<svg width="352" height="210" viewBox="0 0 352 210" fill="none" xmlns="http://www.w3.org/2000/svg">
<path d="M339.233 85.8666C346.766 77.6145 340.989 62.4295 331.123 66.1184C328.955 66.8757 327.06 68.3936 325.713 70.4503C324.366 72.5071 323.639 74.9948 323.638 77.5499C323.292 91.8066 332.898 92.8082 339.233 85.8666Z" fill="#D1D0D6"/>
<path d="M306.506 97.244C301.348 98.9751 301.391 108.873 302.459 113.701C303.536 118.577 307.761 123.016 312.216 120.234C318.066 116.582 317.641 108.316 314.727 102.667C313.033 99.3764 310.212 96.0016 306.506 97.244Z" fill="#D1D0D6"/>
<path d="M348.047 108.995C347.914 107.861 347.572 106.771 347.045 105.793C346.519 104.815 345.817 103.97 344.986 103.313C344.155 102.655 343.211 102.198 342.216 101.972C341.22 101.745 340.193 101.753 339.2 101.996C337.142 102.573 335.263 103.769 333.762 105.457C332.262 107.144 331.197 109.259 330.683 111.576C329.181 118.8 336.543 121.925 341.401 119.952C345.388 118.336 348.68 113.909 348.047 108.995Z" fill="#D1D0D6"/>
<path d="M304.818 199.092C297.888 195.924 83.2843 204.353 76.455 204.649C69.6257 204.946 73.4108 217.547 77.151 222.822C87.226 223.548 288.063 223.309 300.427 222.419C303.302 220.236 311.747 202.253 304.818 199.092Z" fill="#D1D0D6"/>
<path d="M104.775 191.485C102.521 159.44 100.821 98.0073 101.036 72.1115C149.113 69.5428 240.27 67.9479 269.235 66.9323C269.594 94.1229 272.406 176.169 272.18 186.549C272.108 189.864 282.678 190.272 282.675 186.953C282.675 182.242 281.309 70.4118 280.805 61.9154C280.302 53.419 277.786 50.5049 265.567 50.5049C231.064 50.5049 135.322 54.309 104.78 57.3837C98.544 58.0119 93.1283 58.921 92.2665 67.0946C91.4047 75.2682 94.7821 189.218 95.6439 193.433C96.5057 197.647 104.989 194.487 104.775 191.485Z" fill="#D1D0D6"/>
<path d="M260.792 70.982C254 70.7394 119.122 74.8663 111.786 75.1089C104.449 75.3514 103.375 78.5064 103.592 86.3973C115.992 86.1547 259.498 83.2406 266.938 83.2406C267.044 77.7735 267.584 71.2175 260.792 70.982ZM239.704 79.9181C239.33 79.4972 239.096 78.945 239.039 78.3533C238.983 77.7616 239.108 77.166 239.394 76.6654C239.689 76.1644 240.12 75.7836 240.623 75.5793C241.125 75.3751 241.672 75.3582 242.184 75.5312C242.577 75.7063 242.918 76.0047 243.165 76.391C243.412 76.7773 243.556 77.2353 243.579 77.7107C243.611 78.2313 243.506 78.7509 243.277 79.2046C243.048 79.6582 242.705 80.0256 242.291 80.2608C241.877 80.496 241.411 80.5884 240.951 80.5265C240.491 80.4646 240.057 80.2511 239.704 79.9129V79.9181ZM250.064 80.5376C249.732 80.5332 249.405 80.4527 249.101 80.3009C248.798 80.1492 248.525 79.9295 248.3 79.6551C248.074 79.3808 247.901 79.0576 247.79 78.7052C247.679 78.3529 247.634 77.9789 247.656 77.606C247.706 77.037 247.916 76.5008 248.254 76.0749C248.593 75.6489 249.044 75.3552 249.54 75.2363C249.867 75.1926 250.198 75.2264 250.512 75.3353C250.826 75.4443 251.117 75.626 251.365 75.8689C251.613 76.1118 251.814 76.4105 251.953 76.7457C252.093 77.0809 252.168 77.4453 252.175 77.8154C252.214 78.4906 252.014 79.1557 251.619 79.665C251.223 80.1743 250.664 80.4862 250.064 80.5323V80.5376ZM260.479 77.955C260.424 78.6142 260.149 79.2253 259.708 79.6639C259.267 80.1025 258.695 80.3357 258.107 80.316C257.525 80.2512 256.985 79.9471 256.59 79.4619C256.195 78.9767 255.972 78.3445 255.965 77.6863C255.948 77.3364 255.995 76.9863 256.102 76.6575C256.21 76.3288 256.377 76.0285 256.592 75.7751C256.807 75.5218 257.066 75.3208 257.353 75.1846C257.639 75.0484 257.948 74.9798 258.259 74.9832C258.898 75.0576 259.487 75.4084 259.901 75.9617C260.315 76.5151 260.522 77.2279 260.479 77.9498V77.955Z" fill="#D1D0D6"/>
<path d="M188.114 100.909C191.584 100.989 200.695 101.586 203.493 100.455C203.779 100.318 204.021 100.086 204.186 99.7885C204.35 99.4914 204.43 99.1444 204.413 98.7948C204.396 98.4451 204.283 98.1099 204.091 97.8347C203.899 97.5595 203.636 97.3576 203.338 97.2567C198.209 96.9092 193.068 96.8783 187.936 97.1642C182.731 97.3858 177.503 97.2497 172.309 97.8029C170.807 97.9617 171.03 100.473 172.445 100.595C177.656 101.035 182.895 100.787 188.114 100.909Z" fill="#D1D0D6"/>
<path d="M224.029 109.403C225.824 109.164 225.379 105.774 223.762 105.756C212.447 105.639 176.513 106.663 148.97 108.494C147.521 108.592 147.38 111.314 148.882 111.323C161.461 111.382 174.002 111.269 186.579 110.892C196.725 110.593 214.642 110.654 224.029 109.403Z" fill="#D1D0D6"/>
<path d="M163.598 125.621C152.915 126.309 141.859 126.281 131.12 126.583C127.08 126.696 125.55 127.536 126.151 132.664C127.918 147.722 128.654 164.355 129.448 179.509C129.747 185.213 131.041 185.346 136.852 185.693C145.173 186.188 157.419 186.042 166.226 186.056C170.817 186.065 171.41 184.241 171.41 180.547C171.41 164.156 170.613 147.741 169.97 131.382C169.76 126.035 168.857 125.284 163.598 125.621Z" fill="#D1D0D6"/>
<path d="M71.7071 218.549C72.2217 219.347 73.4973 218.567 73.0649 217.661C71.7706 214.941 70.1462 211.903 70.0083 208.744C69.6735 201.103 76.0145 201.968 80.7529 201.815C117.266 200.641 262.889 195.913 299.184 194.66C304.75 194.468 312.487 193.856 311.711 202.986C311.368 207.01 309.348 210.172 307.332 213.367C306.456 214.763 308.316 216.38 309.192 214.986C311.425 211.444 313.833 207.577 314.076 203.092C314.696 191.72 305.824 191.795 298.624 192.02C265.074 193.067 120.309 197.878 81.4783 199.175C75.2132 199.384 67.1144 198.651 67.8383 208.933C68.1033 212.756 69.7572 215.534 71.7071 218.549Z" fill="white"/>
<path d="M92.4525 193.285C92.5749 194.446 94.1141 194.002 94.0133 192.868C91.9301 169.281 90.4266 147.472 89.6191 124.862C89.2068 113.345 87.0089 69.0866 89.8051 61.0579C91.7441 55.4861 98.3053 54.6014 102.926 54.2262C162.271 49.4746 230.534 47.0927 269.836 47.234C279.756 47.2706 282.763 50.3418 282.983 61.194C283.84 103.357 284.263 145.528 285.028 187.693C285.062 189.527 287.596 189.645 287.571 187.796C286.985 146.205 286.216 104.589 285.463 62.9983C285.234 50.3226 282.743 44.798 271.057 44.4717C244.83 43.744 216.783 45.2307 190.589 46.2708C161.294 47.4364 129.594 48.1746 100.587 51.6803C95.6269 52.2805 89.9291 53.9645 87.6971 59.5764C84.8048 66.8408 86.905 114.666 87.3251 124.649C88.2892 147.587 90.0391 170.487 92.4525 193.285Z" fill="white"/>
<path d="M267.939 68.471C269.359 91.156 268.675 111.525 270.977 186.808C270.991 187.092 271.102 187.359 271.287 187.552C271.472 187.745 271.717 187.85 271.969 187.844C272.222 187.838 272.462 187.722 272.64 187.52C272.818 187.319 272.919 187.047 272.922 186.763C272.744 169.684 272.062 138.979 271.614 120.566C271.199 103.505 271.441 85.0694 270.154 68.2162C269.987 66.0105 270.309 65.6144 268.161 65.6528C242.637 66.1083 130.935 69.4046 101.35 71.0623C99.4479 71.1688 99.5486 71.8127 99.5889 73.8543C99.9439 91.9116 100.297 156.054 103.997 192.314C104.039 192.513 104.144 192.689 104.291 192.809C104.438 192.93 104.618 192.987 104.8 192.971C104.981 192.955 105.152 192.867 105.281 192.722C105.409 192.577 105.488 192.385 105.502 192.181C104.874 171.416 103.343 150.587 102.734 129.71C102.187 110.909 101.561 92.0617 101.728 73.2471C131.24 72.5962 242.18 68.2808 267.939 68.471Z" fill="white"/>
<path d="M242.513 125.508C233.256 125.463 222.691 125.723 213.246 125.794C203.154 125.871 192.211 125.543 182.167 126.396C181.426 126.459 181.213 127.859 181.957 127.895C191.567 128.365 224.753 127.695 242.787 127.7C245.159 127.695 244.963 125.519 242.513 125.508Z" fill="white"/>
<path d="M182.569 135.088C182.36 135.102 182.164 135.206 182.022 135.379C181.879 135.552 181.802 135.78 181.806 136.016C181.81 136.252 181.894 136.476 182.042 136.643C182.19 136.81 182.389 136.907 182.599 136.912C186.075 137.125 189.566 137.173 193.047 137.2C194.723 137.212 202.6 137.568 203.725 136.899C204.286 136.568 204.322 135.338 203.711 135.268C201.6 135.024 190.868 134.65 182.569 135.088Z" fill="white"/>
<path d="M244.906 134.645C239.354 135.259 233.73 135.184 228.127 135.313C222.361 135.447 216.122 134.997 210.49 135.393C209.615 135.454 209.504 137.117 210.4 137.138C219.291 137.426 236.141 137.99 245.052 136.789C246.258 136.632 246.154 134.5 244.906 134.645Z" fill="white"/>
<path d="M182.145 146.279C192.29 146.701 202.49 146.294 212.641 146.223C213.937 146.214 213.828 143.954 212.542 143.965C202.397 144.075 192.198 143.85 182.064 144.457C181.855 144.477 181.661 144.588 181.523 144.766C181.386 144.944 181.314 145.176 181.325 145.412C181.335 145.648 181.426 145.87 181.579 146.031C181.732 146.193 181.935 146.282 182.145 146.279Z" fill="white"/>
<path d="M227.879 146.08C228.837 146.027 228.849 144.092 227.797 144.077C225.334 144.042 222.852 144.134 220.393 144.326C219.463 144.398 219.556 146.116 220.467 146.151C222.935 146.242 225.418 146.218 227.879 146.08Z" fill="white"/>
<path d="M243.992 146.396C244.204 146.351 244.396 146.222 244.532 146.033C244.668 145.844 244.74 145.606 244.736 145.363C244.731 145.119 244.649 144.886 244.506 144.703C244.362 144.521 244.165 144.402 243.951 144.368C242.941 144.143 241.735 144.215 232.494 144.551C231.61 144.585 231.66 146.253 232.528 146.279C241.505 146.565 242.975 146.628 243.992 146.396Z" fill="white"/>
<path d="M193.728 155.906C195.303 155.917 202.995 155.994 204.984 155.781C205.942 155.68 205.928 153.809 204.984 153.697C203.018 153.469 195.296 153.469 193.728 153.465C189.912 153.455 186.099 153.736 182.287 153.741C182.084 153.751 181.892 153.849 181.751 154.015C181.61 154.18 181.532 154.401 181.532 154.63C181.532 154.859 181.61 155.08 181.751 155.245C181.892 155.411 182.084 155.509 182.287 155.519C186.099 155.563 189.91 155.88 193.728 155.906Z" fill="white"/>
<path d="M245.372 152.754C233.986 152.908 222.516 152.719 211.147 153.51C210.124 153.581 210.014 155.295 211.08 155.338C222.456 155.801 233.909 155.274 245.287 155.099C246.626 155.078 246.715 152.735 245.372 152.754Z" fill="white"/>
<path d="M182.775 165.148C189.189 165.181 196.358 164.851 202.544 164.677C206.256 164.574 218.593 164.528 222.091 164.104C223.877 163.888 223.195 162.197 222.246 162.185C212.751 162.068 192.257 162.534 182.721 163.406C181.859 163.481 180.97 165.139 182.775 165.148Z" fill="white"/>
<path d="M245.489 163.924C246.361 163.856 246.292 162.179 245.461 162.042C243.162 161.658 232.295 161.853 229.076 162.073C228.976 162.075 228.877 162.099 228.786 162.144C228.694 162.189 228.611 162.254 228.542 162.335C228.472 162.416 228.418 162.512 228.381 162.616C228.345 162.721 228.327 162.833 228.329 162.945C228.331 163.058 228.352 163.169 228.392 163.272C228.432 163.375 228.49 163.469 228.562 163.547C228.633 163.625 228.718 163.686 228.811 163.727C228.904 163.768 229.004 163.789 229.104 163.787C233.909 164.148 242.738 164.137 245.489 163.924Z" fill="white"/>
<path d="M181.956 173.99C188.25 174.628 194.582 174.628 200.877 173.99C202.282 173.873 202.203 171.411 200.801 171.527C194.576 172.051 188.343 172.028 182.108 172.201C181.216 172.231 181.043 173.88 181.956 173.99Z" fill="white"/>
<path d="M231.731 171.073C227.462 170.574 223.025 172.178 205.637 172.043C204.682 172.043 204.668 173.904 205.61 173.931C210.009 174.064 214.393 174.122 218.795 173.963C222.152 173.841 228.96 173.858 231.929 172.947C232.771 172.689 232.542 171.167 231.731 171.073Z" fill="white"/>
<path d="M237.3 173.098C240.324 173.33 243.128 172.972 246.31 172.909C247.175 172.892 247.024 171.016 245.95 170.866C243.026 170.742 240.097 170.87 237.19 171.246C236.233 171.372 236.395 173.028 237.3 173.098Z" fill="white"/>
<path d="M182.183 182.798C188.517 182.904 214.011 183.283 220.42 183.246C221.705 183.246 221.702 180.803 220.442 180.712C212.611 180.131 192.982 180.144 182.2 180.95C181.277 181.018 181.252 182.782 182.183 182.798Z" fill="white"/>
<path d="M343.01 162.22C326.834 159.491 310.491 158.221 294.136 158.421C293.809 158.419 293.496 158.564 293.264 158.822C293.032 159.081 292.901 159.433 292.899 159.8C292.898 160.168 293.026 160.521 293.256 160.782C293.486 161.043 293.798 161.19 294.125 161.192C309.881 160.966 325.628 162.144 341.218 164.715C337.987 182.237 334.502 199.72 331.722 217.339C331.551 218.416 332.962 218.882 333.2 217.789C337.153 199.943 340.369 181.884 343.875 163.919C343.958 163.565 343.914 163.188 343.752 162.87C343.59 162.552 343.324 162.318 343.01 162.22Z" fill="white"/>
<path d="M315.546 156.597C315.577 158.342 317.871 158.45 318.167 154.958C318.754 148.107 319.562 143.092 320.492 137.171C323.706 128.225 328.887 120.345 335.547 114.27C336.372 113.504 335.589 112.001 334.629 112.656C329.388 116.298 325.076 121.409 322.115 127.488C325.002 112.555 328.671 97.827 333.104 83.3817C333.388 82.401 331.962 81.7571 331.613 82.7099C325.225 100.134 320.211 123.156 317.353 141.577C316.759 132.497 315.091 123.546 312.393 114.963C312.041 113.94 310.6 114.57 310.824 115.568C313.9 128.972 315.485 142.753 315.546 156.597Z" fill="white"/>
<rect x="-0.988261" y="22.9565" width="121.75" height="121.75" rx="60.875" transform="rotate(-8 -0.988261 22.9565)" fill="#FEF9F6"/>
<g clip-path="url(#clip0_1_2002)">
<mask id="mask0_1_2002" style="mask-type:luminance" maskUnits="userSpaceOnUse" x="-336" y="-94" width="891" height="891">
<path d="M-225.764 796.069L554.028 686.477L444.436 -93.3157L-335.357 16.277L-225.764 796.069Z" fill="white"/>
</mask>
<g mask="url(#mask0_1_2002)">
<path d="M71.3944 89.2875C69.7879 89.4051 67.9134 89.384 66.407 89.1683C66.1248 89.1278 64.9442 88.8729 64.6402 88.782C59.2727 87.1559 55.0458 82.5535 54.2149 76.6417C53.0753 68.533 58.7441 61.001 66.858 59.8606C74.8999 58.7304 82.3648 64.3017 83.6041 72.3029L88.9187 71.556C87.2676 60.6257 77.0856 53.0104 66.112 54.5526C55.0729 56.1041 47.3499 66.3467 48.9017 77.3884C49.9715 85.0006 55.1829 91.0195 61.9265 93.5209C63.1424 93.9605 64.8535 94.3492 65.4288 94.4407C67.2903 94.7214 69.5329 94.7669 71.5056 94.6407C72.1754 94.5973 74.4938 94.2982 75.1688 94.206L111.767 89.0625L111.023 83.7689L74.4864 88.9037C74.0004 88.972 71.8744 89.2521 71.3944 89.2875ZM73.3113 80.5422C72.9248 80.5965 70.9017 80.8675 70.5239 80.8885C69.8837 80.9237 68.9534 80.9583 68.345 80.9062C67.6545 80.8216 66.9965 80.6736 66.6931 80.5586C64.569 79.7684 62.9302 77.8694 62.5922 75.4643C62.1004 71.9654 64.5351 68.7298 68.0353 68.2379C71.4622 67.7562 74.6316 70.0907 75.2217 73.481L80.3279 72.7633C79.346 66.5561 73.5691 62.2544 67.3179 63.1329C60.9973 64.0212 56.5939 69.8632 57.482 76.1825C58.1083 80.639 61.2036 84.1287 65.1889 85.4909C65.8085 85.7458 66.9346 85.9455 67.2523 85.9824C68.3418 86.1111 69.7791 86.1015 70.9358 86.0244C71.3639 86.0003 73.4385 85.7248 73.8764 85.6659L73.8775 85.6738L110.564 80.5177L109.846 75.4076L73.3113 80.5422ZM48.4506 97.9409L43.1006 98.6928L38.2107 63.8988L30.3928 64.9975L29.6407 59.6463L42.8085 57.7957L48.4506 97.9409ZM24.8946 68.4967L25.6178 73.6422L31.4917 72.8167L35.2828 99.7915L40.4231 99.0691L35.9088 66.9487L24.8946 68.4967Z" fill="#F04D29"/>
<path d="M96.7213 50.6002C94.7943 50.871 93.4121 52.6322 93.6831 54.5605C93.9541 56.4888 95.7769 57.8623 97.7038 57.5915C99.6897 57.3124 101.002 55.4983 100.731 53.57C100.46 51.6417 98.7072 50.3211 96.7213 50.6002ZM97.6239 57.023C96.0323 57.2467 94.485 56.1884 94.2451 54.4815C94.0173 52.8611 95.2086 51.3859 96.8003 51.1622C98.3906 50.9387 99.9358 52.0293 100.164 53.6497C100.403 55.3566 99.2142 56.7995 97.6239 57.023Z" fill="#F04D29"/>
<path d="M98.6836 54.8251C98.6289 54.4361 98.5204 54.0826 98.055 54.0024C98.5858 53.7301 98.5894 53.3569 98.5583 53.1355C98.4326 52.2408 97.6044 52.241 97.2703 52.2879L95.7337 52.5039L96.2207 55.9688L96.8613 55.8787L96.6615 54.4574L97.1659 54.3865C97.8916 54.2845 97.9988 54.6101 98.0417 54.9153C98.1247 55.5061 98.1404 55.6175 98.2905 55.6779L98.9323 55.5877C98.7738 55.467 98.8135 55.3505 98.6836 54.8251ZM97.3463 53.8455L96.5905 53.9518L96.4371 52.8606L97.0842 52.7696C97.5322 52.7066 97.856 52.8054 97.9151 53.2259C97.9462 53.4473 97.8808 53.7704 97.3463 53.8455Z" fill="#F04D29"/>
</g>
</g>
<rect x="-0.988261" y="22.9565" width="121.75" height="121.75" rx="60.875" transform="rotate(-8 -0.988261 22.9565)" stroke="#FDEFE5" stroke-width="1.75"/>
<defs>
<clipPath id="clip0_1_2002">
<rect width="83.1644" height="40.5596" fill="white" transform="translate(23.7666 60.4717) rotate(-8)"/>
</clipPath>
</defs>
</svg>
