<?xml version="1.0" encoding="utf-8"?>
<!-- Generator: Adobe Illustrator 26.5.0, SVG Export Plug-In . SVG Version: 6.00 Build 0)  -->
<svg version="1.1" id="Layer_1" xmlns="http://www.w3.org/2000/svg" xmlns:xlink="http://www.w3.org/1999/xlink" x="0px" y="0px"
	 viewBox="0 0 94.1 35.3" style="enable-background:new 0 0 94.1 35.3;" xml:space="preserve">
<style type="text/css">
	.st0{clip-path:url(#SVGID_00000072268598515611946100000009907270790551449504_);}
	.st1{fill:#EA4335;}
	.st2{fill:#FBBC04;}
	.st3{fill:#4285F4;}
	.st4{fill:#34A853;}
	.st5{fill:#FFFFFF;}
</style>
<path d="M4,0.2h86.1c2.2,0,4,1.8,4,4v27.1c0,2.2-1.8,4-4,4H4c-2.2,0-4-1.8-4-4V4.2C0,2,1.8,0.2,4,0.2z"/>
<g>
	<defs>
		<rect id="SVGID_1_" x="7.3" y="7.5" width="16.8" height="18.3"/>
	</defs>
	<clipPath id="SVGID_00000175304623825923248780000014992029691707320750_">
		<use xlink:href="#SVGID_1_"  style="overflow:visible;"/>
	</clipPath>
	<g style="clip-path:url(#SVGID_00000175304623825923248780000014992029691707320750_);">
		<path class="st1" d="M15.2,16.3l-7.8,8c0.1,0.3,0.2,0.6,0.5,0.8c0.2,0.2,0.5,0.4,0.8,0.5c0.6,0.2,1.3,0.2,1.9-0.1l8.8-4.9
			C19.2,20.6,15.2,16.3,15.2,16.3z"/>
		<path class="st2" d="M23,14.9l-3.8-2.1L15,16.4l4.3,4.2l3.8-2.1c0.3-0.2,0.6-0.4,0.8-0.7c0.4-0.6,0.4-1.5,0-2.1
			C23.6,15.3,23.4,15.1,23,14.9C23,14.9,23,14.9,23,14.9z"/>
		<path class="st3" d="M7.4,9.1c0,0.2-0.1,0.3-0.1,0.5v14.2c0,0.2,0,0.4,0.1,0.5l8.1-7.8C15.4,16.5,7.4,9.1,7.4,9.1z"/>
		<path class="st4" d="M15.2,16.7l4-3.9l-8.8-4.9c-0.3-0.2-0.7-0.3-1.1-0.3c-0.9,0-1.8,0.6-2,1.5C7.4,9,15.2,16.7,15.2,16.7z"/>
	</g>
</g>
<path class="st5" d="M31.1,10.6c0-0.1-0.1-0.2-0.2-0.3c-0.1-0.2-0.3-0.3-0.6-0.4c-0.1,0-0.3-0.1-0.4-0.1c-0.2,0-0.5,0.1-0.6,0.2
	c-0.2,0.1-0.4,0.3-0.5,0.5c-0.1,0.2-0.2,0.5-0.2,0.9c0,0.3,0.1,0.6,0.2,0.9c0.1,0.2,0.3,0.4,0.5,0.5c0.2,0.1,0.4,0.2,0.7,0.2
	c0.2,0,0.4,0,0.6-0.1c0.2-0.1,0.3-0.2,0.4-0.4c0.1-0.2,0.1-0.4,0.1-0.6l0.2,0h-1.2v-0.5h1.7v0.5c0,0.4-0.1,0.7-0.2,0.9
	c-0.1,0.3-0.4,0.5-0.6,0.6c-0.3,0.1-0.6,0.2-0.9,0.2c-0.4,0-0.7-0.1-1-0.3c-0.3-0.2-0.5-0.4-0.7-0.8c-0.2-0.3-0.2-0.7-0.2-1.2
	c0-0.3,0-0.6,0.1-0.9c0.1-0.3,0.2-0.5,0.4-0.7c0.2-0.2,0.4-0.3,0.6-0.4c0.2-0.1,0.5-0.2,0.8-0.2c0.2,0,0.4,0,0.6,0.1
	c0.2,0.1,0.4,0.2,0.5,0.3c0.3,0.3,0.5,0.6,0.6,1L31.1,10.6L31.1,10.6z M32.6,13.5V9.3h2.7v0.6h-2v1.3h1.9v0.6h-1.9V13h2v0.6
	L32.6,13.5L32.6,13.5z M36,9.8V9.3h3.3v0.6h-1.3v3.7h-0.6V9.8L36,9.8L36,9.8z M42.2,9.3v4.3h-0.6V9.3H42.2z M42.9,9.8V9.3h3.3v0.6
	h-1.3v3.7h-0.6V9.8L42.9,9.8L42.9,9.8z M52.2,11.4c0,0.5-0.1,0.8-0.2,1.2c-0.2,0.3-0.4,0.6-0.7,0.8c-0.3,0.2-0.6,0.3-1,0.3
	c-0.4,0-0.7-0.1-1-0.3c-0.3-0.2-0.5-0.4-0.7-0.8c-0.2-0.3-0.2-0.7-0.2-1.2c0-0.5,0.1-0.8,0.2-1.2c0.2-0.3,0.4-0.6,0.7-0.8
	c0.3-0.2,0.6-0.3,1-0.3c0.4,0,0.7,0.1,1,0.3c0.3,0.2,0.5,0.4,0.7,0.8C52.1,10.6,52.2,11,52.2,11.4z M51.5,11.4
	c0-0.3-0.1-0.6-0.2-0.9c-0.1-0.2-0.3-0.4-0.5-0.5c-0.2-0.1-0.4-0.2-0.7-0.2c-0.2,0-0.5,0.1-0.7,0.2c-0.2,0.1-0.4,0.3-0.5,0.5
	C49,10.8,49,11.1,49,11.4c0,0.3,0.1,0.6,0.2,0.9c0.1,0.2,0.3,0.4,0.5,0.5c0.2,0.1,0.4,0.2,0.7,0.2c0.2,0,0.5-0.1,0.7-0.2
	c0.2-0.1,0.3-0.3,0.5-0.5C51.5,12,51.5,11.8,51.5,11.4z M56.4,9.3v4.3h-0.6l-2.2-3.1h0v3.1H53V9.3h0.6l2.2,3.1h0V9.3L56.4,9.3
	L56.4,9.3z M33.7,20.9c-0.1-0.2-0.2-0.4-0.3-0.6c-0.2-0.4-0.6-0.6-1-0.7c-0.2-0.1-0.4-0.1-0.7-0.1c-0.4,0-0.8,0.1-1.1,0.3
	c-0.3,0.2-0.6,0.5-0.8,0.9c-0.2,0.4-0.3,0.9-0.3,1.5c0,0.6,0.1,1.1,0.3,1.5c0.2,0.4,0.5,0.7,0.8,1c0.3,0.2,0.7,0.3,1.2,0.3
	c0.4,0,0.8-0.1,1.1-0.2c0.3-0.2,0.5-0.4,0.7-0.7c0.2-0.3,0.2-0.7,0.2-1.1l0.3,0.1h-2.1v-0.9h2.9V23c0,0.6-0.1,1.2-0.4,1.6
	c-0.3,0.5-0.6,0.8-1.1,1.1c-0.5,0.2-1,0.4-1.6,0.4c-0.7,0-1.3-0.2-1.8-0.5c-0.5-0.3-0.9-0.8-1.2-1.3c-0.3-0.6-0.4-1.3-0.4-2
	c0-0.6,0.1-1.1,0.2-1.6c0.2-0.5,0.4-0.9,0.7-1.2c0.3-0.3,0.7-0.6,1.1-0.8c0.4-0.2,0.9-0.3,1.3-0.3c0.4,0,0.8,0.1,1.1,0.2
	c0.3,0.1,0.7,0.3,0.9,0.5c0.6,0.4,0.9,1.1,1,1.8H33.7z M38.5,26.1c-0.5,0-1-0.1-1.4-0.4c-0.4-0.2-0.7-0.6-0.9-1
	c-0.2-0.4-0.3-0.9-0.3-1.5c0-0.6,0.1-1.1,0.3-1.5s0.5-0.8,0.9-1s0.8-0.4,1.4-0.4c0.5,0,1,0.1,1.4,0.4c0.4,0.2,0.7,0.6,0.9,1
	c0.2,0.4,0.3,0.9,0.3,1.5c0,0.6-0.1,1.1-0.3,1.5c-0.2,0.4-0.5,0.8-0.9,1C39.5,26,39.1,26.1,38.5,26.1z M38.5,25.2
	c0.3,0,0.6-0.1,0.8-0.3c0.2-0.2,0.4-0.4,0.5-0.7c0.1-0.3,0.2-0.6,0.2-1c0-0.4-0.1-0.7-0.2-1c-0.1-0.3-0.3-0.5-0.5-0.7
	c-0.2-0.2-0.5-0.3-0.8-0.3c-0.3,0-0.6,0.1-0.8,0.3c-0.2,0.2-0.4,0.4-0.5,0.7c-0.1,0.3-0.2,0.6-0.2,1c0,0.4,0.1,0.7,0.2,1
	c0.1,0.3,0.3,0.5,0.5,0.7C37.9,25.1,38.2,25.2,38.5,25.2L38.5,25.2z M44.7,26.1c-0.5,0-1-0.1-1.4-0.4c-0.4-0.2-0.7-0.6-0.9-1
	c-0.2-0.4-0.3-0.9-0.3-1.5c0-0.6,0.1-1.1,0.3-1.5c0.2-0.4,0.5-0.8,0.9-1c0.4-0.2,0.8-0.4,1.4-0.4c0.5,0,1,0.1,1.4,0.4s0.7,0.6,0.9,1
	c0.2,0.4,0.3,0.9,0.3,1.5c0,0.6-0.1,1.1-0.3,1.5c-0.2,0.4-0.5,0.8-0.9,1C45.7,26,45.2,26.1,44.7,26.1z M44.7,25.2
	c0.3,0,0.6-0.1,0.8-0.3c0.2-0.2,0.4-0.4,0.5-0.7c0.1-0.3,0.2-0.6,0.2-1c0-0.4-0.1-0.7-0.2-1c-0.1-0.3-0.3-0.5-0.5-0.7
	c-0.2-0.2-0.5-0.3-0.8-0.3c-0.3,0-0.6,0.1-0.8,0.3c-0.2,0.2-0.4,0.4-0.5,0.7c-0.1,0.3-0.2,0.6-0.2,1c0,0.4,0.1,0.7,0.2,1
	c0.1,0.3,0.3,0.5,0.5,0.7C44.1,25.1,44.4,25.2,44.7,25.2L44.7,25.2z M50.9,28.2c-0.4,0-0.8-0.1-1.1-0.2c-0.3-0.1-0.6-0.3-0.8-0.5
	c-0.2-0.2-0.3-0.4-0.5-0.6l0.9-0.4c0.1,0.1,0.2,0.2,0.3,0.3c0.1,0.1,0.3,0.2,0.5,0.3c0.2,0.1,0.4,0.1,0.7,0.1c0.4,0,0.8-0.1,1-0.3
	c0.3-0.2,0.4-0.5,0.4-1V25h-0.1c-0.1,0.1-0.2,0.3-0.3,0.4c-0.1,0.2-0.3,0.3-0.5,0.4c-0.2,0.1-0.5,0.2-0.8,0.2
	c-0.4,0-0.8-0.1-1.2-0.3c-0.4-0.2-0.7-0.5-0.8-0.9c-0.2-0.4-0.3-0.9-0.3-1.5s0.1-1.1,0.3-1.5c0.2-0.4,0.5-0.8,0.8-1
	c0.4-0.2,0.8-0.3,1.2-0.3c0.3,0,0.6,0.1,0.8,0.2c0.2,0.1,0.4,0.2,0.5,0.4c0.1,0.2,0.2,0.3,0.3,0.4h0.1v-0.9h1.1v5.7
	c0,0.5-0.1,0.9-0.3,1.2c-0.2,0.3-0.5,0.5-0.9,0.7C51.7,28.1,51.3,28.2,50.9,28.2z M50.9,25c0.3,0,0.6-0.1,0.8-0.2
	c0.2-0.1,0.4-0.4,0.5-0.6c0.1-0.3,0.2-0.6,0.2-1c0-0.4-0.1-0.7-0.2-1c-0.1-0.3-0.3-0.5-0.5-0.7c-0.2-0.2-0.5-0.2-0.8-0.2
	c-0.3,0-0.6,0.1-0.8,0.3c-0.2,0.2-0.4,0.4-0.5,0.7c-0.1,0.3-0.2,0.6-0.2,1c0,0.4,0.1,0.7,0.2,1c0.1,0.3,0.3,0.5,0.5,0.6
	C50.3,24.9,50.5,25,50.9,25z M55.9,18.6V26h-1.1v-7.4H55.9z M59.8,26.1c-0.5,0-1-0.1-1.4-0.4c-0.4-0.2-0.7-0.6-0.9-1
	c-0.2-0.4-0.3-0.9-0.3-1.5c0-0.6,0.1-1.1,0.3-1.5c0.2-0.4,0.5-0.8,0.9-1c0.4-0.2,0.8-0.4,1.4-0.4c0.3,0,0.6,0.1,0.9,0.2
	c0.3,0.1,0.6,0.3,0.8,0.5c0.2,0.2,0.4,0.5,0.6,0.9c0.1,0.4,0.2,0.8,0.2,1.3v0.4h-4.4v-0.8h3.4c0-0.3-0.1-0.5-0.2-0.8
	c-0.1-0.2-0.3-0.4-0.5-0.5c-0.2-0.1-0.5-0.2-0.7-0.2c-0.3,0-0.6,0.1-0.8,0.2c-0.2,0.1-0.4,0.3-0.5,0.6c-0.1,0.2-0.2,0.5-0.2,0.8v0.6
	c0,0.4,0.1,0.7,0.2,1c0.1,0.3,0.3,0.5,0.6,0.6c0.2,0.1,0.5,0.2,0.8,0.2c0.2,0,0.4,0,0.6-0.1c0.3-0.1,0.6-0.4,0.7-0.7l1,0.2
	c-0.1,0.3-0.2,0.6-0.4,0.8c-0.2,0.2-0.5,0.4-0.8,0.5C60.6,26.1,60.2,26.1,59.8,26.1z M66.2,26v-7.4h2.7c0.6,0,1.1,0.1,1.4,0.3
	c0.4,0.2,0.7,0.5,0.9,0.9c0.2,0.4,0.3,0.8,0.3,1.2c0,0.5-0.1,0.9-0.3,1.2c-0.2,0.4-0.5,0.7-0.9,0.9c-0.4,0.2-0.9,0.3-1.4,0.3H67v-1
	h1.7c0.4,0,0.7-0.1,0.9-0.2c0.2-0.1,0.4-0.3,0.5-0.5c0.1-0.2,0.2-0.5,0.2-0.8s-0.1-0.5-0.2-0.7c-0.1-0.2-0.3-0.4-0.5-0.5
	c-0.2-0.1-0.5-0.2-0.9-0.2h-1.4V26L66.2,26L66.2,26z M73.8,18.6V26h-1.1v-7.4H73.8L73.8,18.6z M76.8,26.1c-0.3,0-0.7-0.1-1-0.2
	c-0.3-0.1-0.5-0.3-0.7-0.6C75,25.1,75,24.8,75,24.4c0-0.3,0.1-0.6,0.2-0.8c0.1-0.2,0.3-0.4,0.5-0.5c0.2-0.1,0.4-0.2,0.7-0.3
	c0.3-0.1,0.5-0.1,0.8-0.1l0.8-0.1c0.2,0,0.4-0.1,0.5-0.1c0.1-0.1,0.1-0.2,0.1-0.3v0c0-0.3-0.1-0.6-0.3-0.7c-0.2-0.2-0.4-0.3-0.8-0.3
	c-0.4,0-0.7,0.1-0.9,0.2c-0.2,0.2-0.4,0.3-0.4,0.5l-1-0.2c0.1-0.3,0.3-0.6,0.5-0.8c0.2-0.2,0.5-0.4,0.8-0.5c0.3-0.1,0.6-0.1,1-0.1
	c0.2,0,0.5,0,0.7,0.1c0.3,0.1,0.5,0.1,0.7,0.3c0.2,0.1,0.4,0.3,0.5,0.6c0.1,0.3,0.2,0.6,0.2,1V26h-1.1v-0.8h0
	c-0.1,0.1-0.2,0.3-0.3,0.4c-0.1,0.1-0.3,0.2-0.5,0.3C77.4,26.1,77.2,26.1,76.8,26.1z M77.1,25.3c0.3,0,0.6-0.1,0.8-0.2
	c0.2-0.1,0.4-0.3,0.5-0.5c0.1-0.2,0.2-0.4,0.2-0.6v-0.7c-0.1,0.1-0.1,0.1-0.2,0.1c-0.1,0-0.2,0.1-0.4,0.1l-0.4,0.1l-0.3,0
	c-0.2,0-0.4,0.1-0.6,0.1c-0.2,0.1-0.3,0.1-0.4,0.3c-0.1,0.1-0.2,0.3-0.2,0.5c0,0.3,0.1,0.5,0.3,0.6C76.5,25.2,76.8,25.3,77.1,25.3z
	 M81.5,28.1c-0.3,0-0.5,0-0.7-0.1l0.3-0.9c0.2,0.1,0.4,0.1,0.5,0.1c0.2,0,0.3-0.1,0.4-0.2c0.1-0.1,0.2-0.3,0.3-0.5l0.1-0.4l-2-5.7
	h1.2l1.4,4.3H83l1.4-4.3h1.2l-2.3,6.3c-0.1,0.3-0.2,0.5-0.4,0.7c-0.2,0.2-0.4,0.4-0.6,0.5C82.1,28,81.8,28.1,81.5,28.1L81.5,28.1z"
	/>
</svg>
