<svg xmlns="http://www.w3.org/2000/svg" width="94" height="36" fill="none"><rect width="93.62" height="35.107" x=".107" y=".893" fill="#000" rx="4"/><g clip-path="url(#a)"><path fill="#fff" d="M25.95 27.192c-1.04 1.003-2.175.845-3.267.37-1.157-.487-2.218-.508-3.438 0-1.527.654-2.334.464-3.246-.37-5.177-5.314-4.414-13.405 1.464-13.701 1.432.074 2.43.782 3.268.845 1.252-.254 2.45-.982 3.787-.887 1.602.126 2.811.76 3.607 1.901-3.31 1.975-2.525 6.317.51 7.532-.605 1.584-1.39 3.158-2.695 4.32l.01-.01Zm-5.325-13.765c-.16-2.355 1.76-4.299 3.967-4.489.308 2.725-2.482 4.753-3.967 4.49Z"/></g><path fill="#fff" d="M36.33 14.207h-1.377V9.95h1.421c.417 0 .775.085 1.074.256.3.169.529.412.688.729.16.316.241.695.241 1.137 0 .443-.08.824-.243 1.142-.16.319-.393.564-.698.736-.305.17-.673.255-1.105.255Zm-.735-.562h.7c.324 0 .594-.06.808-.182.215-.124.376-.302.483-.534.106-.234.16-.52.16-.856 0-.334-.054-.617-.16-.85a1.13 1.13 0 0 0-.472-.53c-.21-.12-.47-.18-.78-.18h-.74v3.133Zm4.875.626c-.3 0-.56-.069-.783-.206a1.387 1.387 0 0 1-.52-.575 1.91 1.91 0 0 1-.185-.865c0-.33.062-.62.185-.868.124-.248.297-.44.52-.578.223-.137.484-.206.783-.206.3 0 .56.069.783.206.224.137.397.33.52.578.123.248.185.537.185.868 0 .33-.062.618-.185.865a1.386 1.386 0 0 1-.52.575 1.465 1.465 0 0 1-.783.206Zm.002-.522a.744.744 0 0 0 .482-.153.9.9 0 0 0 .283-.41c.062-.17.093-.358.093-.563 0-.203-.03-.39-.093-.56a.913.913 0 0 0-.283-.414.738.738 0 0 0-.482-.156.75.75 0 0 0-.486.156.928.928 0 0 0-.285.413c-.06.17-.091.358-.091.561 0 .205.03.393.091.563.063.17.157.307.285.41.129.102.29.153.486.153Zm2.774.457-.94-3.191h.643l.625 2.344h.032l.627-2.344h.642l.623 2.333h.032l.62-2.333h.643l-.937 3.191h-.634l-.648-2.304h-.048l-.648 2.305h-.632Zm4.758-1.894v1.895h-.621v-3.192h.596v.52h.04a.912.912 0 0 1 .344-.408c.158-.102.357-.154.597-.154.217 0 .408.046.571.137.164.09.29.225.38.404.09.178.135.4.135.663v2.03h-.62V12.25c0-.231-.061-.412-.182-.542-.12-.132-.286-.197-.496-.197a.778.778 0 0 0-.385.093.672.672 0 0 0-.264.274.905.905 0 0 0-.095.433Zm3.497-2.36v4.255h-.621V9.95h.62Zm2.18 4.319c-.3 0-.56-.069-.783-.206a1.387 1.387 0 0 1-.52-.575 1.91 1.91 0 0 1-.185-.865c0-.33.062-.62.185-.868.124-.248.297-.44.52-.578.223-.137.484-.206.783-.206.3 0 .56.069.783.206.224.137.397.33.52.578.123.248.185.537.185.868 0 .33-.062.618-.185.865a1.386 1.386 0 0 1-.52.575 1.465 1.465 0 0 1-.783.206Zm.002-.522a.744.744 0 0 0 .482-.153.9.9 0 0 0 .283-.41c.062-.17.093-.358.093-.563 0-.203-.03-.39-.093-.56a.913.913 0 0 0-.283-.414.738.738 0 0 0-.482-.156.75.75 0 0 0-.486.156.928.928 0 0 0-.285.413c-.06.17-.091.358-.091.561 0 .205.03.393.091.563.063.17.157.307.285.41.129.102.29.153.486.153Zm3.108.528c-.202 0-.385-.037-.548-.112a.924.924 0 0 1-.389-.33.948.948 0 0 1-.141-.53c0-.18.034-.329.104-.445a.767.767 0 0 1 .28-.276c.118-.068.25-.12.395-.154a3.91 3.91 0 0 1 .445-.079l.465-.054a.684.684 0 0 0 .26-.073c.054-.033.08-.087.08-.162v-.014c0-.182-.05-.322-.153-.422-.101-.1-.252-.15-.453-.15-.21 0-.374.047-.495.14a.745.745 0 0 0-.247.305l-.584-.133c.07-.194.17-.35.304-.47.134-.12.289-.207.463-.261a1.809 1.809 0 0 1 .956-.038c.144.03.278.083.403.162.126.08.23.192.31.339.08.145.12.334.12.567v2.12h-.607v-.437h-.025c-.04.08-.1.16-.18.237a.96.96 0 0 1-.31.193 1.2 1.2 0 0 1-.453.077Zm.135-.498a.892.892 0 0 0 .44-.102.712.712 0 0 0 .281-.266.69.69 0 0 0 .098-.356v-.411a.323.323 0 0 1-.129.062 1.987 1.987 0 0 1-.214.048 21.503 21.503 0 0 1-.426.06c-.12.016-.23.041-.33.077a.567.567 0 0 0-.237.156.39.39 0 0 0-.087.266c0 .154.056.27.17.35a.754.754 0 0 0 .434.115Zm3.462.49c-.257 0-.487-.066-.69-.197a1.346 1.346 0 0 1-.473-.568 2.107 2.107 0 0 1-.17-.887c0-.345.057-.64.172-.885a1.243 1.243 0 0 1 1.166-.758c.198 0 .357.033.477.1a.852.852 0 0 1 .283.228c.068.087.12.164.158.23h.037v-1.58h.622v4.255h-.607v-.497h-.052a1.64 1.64 0 0 1-.162.233.902.902 0 0 1-.287.228c-.122.065-.28.098-.474.098Zm.138-.53c.178 0 .33-.047.452-.141a.873.873 0 0 0 .283-.397c.065-.17.098-.366.098-.59 0-.222-.032-.416-.096-.582a.854.854 0 0 0-.28-.389.739.739 0 0 0-.457-.139.739.739 0 0 0-.468.146.89.89 0 0 0-.283.396 1.62 1.62 0 0 0-.093.568c0 .213.032.405.096.575.063.17.157.306.282.405a.734.734 0 0 0 .465.148Zm5.223.532c-.299 0-.56-.069-.783-.206a1.386 1.386 0 0 1-.52-.575 1.91 1.91 0 0 1-.184-.865c0-.33.061-.62.184-.868.124-.248.297-.44.52-.578.223-.137.484-.206.783-.206.3 0 .56.069.784.206.223.137.396.33.52.578.122.248.184.537.184.868 0 .33-.062.618-.185.865a1.386 1.386 0 0 1-.52.575 1.465 1.465 0 0 1-.783.206Zm.002-.522a.744.744 0 0 0 .482-.153.9.9 0 0 0 .283-.41c.062-.17.093-.358.093-.563 0-.203-.03-.39-.093-.56a.913.913 0 0 0-.283-.414.738.738 0 0 0-.482-.156.75.75 0 0 0-.486.156.928.928 0 0 0-.284.413c-.061.17-.092.358-.092.561 0 .205.03.393.092.563.062.17.157.307.284.41.129.102.291.153.486.153Zm2.8-1.438v1.896h-.62v-3.192h.596v.52h.04a.912.912 0 0 1 .344-.408c.158-.102.357-.154.597-.154.217 0 .407.046.571.137.164.09.29.225.38.404.09.178.135.4.135.663v2.03h-.621V12.25c0-.231-.06-.412-.18-.542-.121-.132-.287-.197-.497-.197a.777.777 0 0 0-.385.093.672.672 0 0 0-.264.274.905.905 0 0 0-.095.433Zm5.915-1.296v.499h-1.743v-.499h1.743Zm-1.276-.765h.621v3.02c0 .12.018.21.054.272.036.06.083.1.14.122.058.021.12.031.189.031a.73.73 0 0 0 .13-.01l.088-.017.112.514a1.22 1.22 0 0 1-.403.067 1.093 1.093 0 0 1-.457-.088.783.783 0 0 1-.343-.283.83.83 0 0 1-.13-.48V10.25Zm2.653 2.062v1.895h-.621V9.95h.613v1.583h.04a.917.917 0 0 1 .342-.409c.154-.101.355-.152.603-.152.218 0 .41.045.573.135.165.09.292.225.382.404.092.177.137.399.137.665v2.03h-.62V12.25c0-.234-.061-.415-.181-.544-.121-.13-.289-.195-.503-.195a.822.822 0 0 0-.395.093.674.674 0 0 0-.272.274.89.89 0 0 0-.098.433Zm4.274 1.959c-.314 0-.585-.067-.812-.202a1.367 1.367 0 0 1-.524-.571 1.933 1.933 0 0 1-.183-.866c0-.327.061-.615.183-.865a1.42 1.42 0 0 1 .515-.584c.222-.14.481-.21.777-.21.18 0 .355.03.524.09.17.06.32.153.455.28.134.128.24.293.318.497.078.202.116.448.116.738v.22H78.95v-.466h1.929a.917.917 0 0 0-.1-.434.754.754 0 0 0-.7-.411.811.811 0 0 0-.457.129.865.865 0 0 0-.3.332.96.96 0 0 0-.104.442v.364c0 .213.038.395.113.545.076.15.182.263.317.342a.944.944 0 0 0 .476.117.989.989 0 0 0 .322-.05.668.668 0 0 0 .413-.405l.589.106a1.065 1.065 0 0 1-.254.455c-.12.128-.272.229-.455.301-.181.07-.388.106-.62.106ZM35.933 26.67H34.74l2.68-7.448h1.298l2.68 7.447h-1.193L38.1 20.575h-.058l-2.11 6.094Zm.2-2.917H40v.946h-3.868v-.946Zm6.253 5.01v-7.679h1.062v.906h.09a3.03 3.03 0 0 1 .273-.404c.12-.153.284-.286.495-.4.21-.116.49-.175.836-.175.451 0 .854.114 1.207.342.354.228.632.557.833.986.204.429.306.945.306 1.549 0 .603-.1 1.12-.302 1.552-.201.43-.478.76-.83.993-.35.23-.752.346-1.203.346-.34 0-.617-.057-.832-.171a1.575 1.575 0 0 1-.502-.4 3.021 3.021 0 0 1-.28-.408h-.066v2.964h-1.087Zm1.065-4.886c0 .393.057.737.171 1.033.114.295.28.527.495.694.216.165.48.247.793.247.324 0 .596-.086.814-.258.218-.174.383-.41.495-.709.114-.298.17-.634.17-1.007 0-.369-.055-.7-.167-.993a1.52 1.52 0 0 0-.494-.694c-.218-.17-.491-.255-.818-.255-.316 0-.582.081-.8.244-.216.162-.38.389-.491.68-.112.29-.168.63-.168 1.018Zm5.255 4.887v-7.68h1.062v.906h.09a3.03 3.03 0 0 1 .273-.404c.119-.153.284-.286.495-.4.21-.116.49-.175.836-.175.451 0 .853.114 1.207.342.354.228.632.557.833.986.204.429.305.945.305 1.549 0 .603-.1 1.12-.301 1.552-.202.43-.478.76-.83.993-.35.23-.752.346-1.203.346-.34 0-.617-.057-.833-.171a1.575 1.575 0 0 1-.502-.4 3.021 3.021 0 0 1-.28-.408h-.065v2.964h-1.087Zm1.065-4.887c0 .393.057.737.171 1.033.114.295.279.527.495.694.215.165.48.247.792.247.325 0 .597-.086.815-.258.218-.174.383-.41.494-.709.114-.298.171-.634.171-1.007 0-.369-.055-.7-.167-.993a1.52 1.52 0 0 0-.495-.694c-.218-.17-.49-.255-.818-.255-.315 0-.581.081-.8.244-.215.162-.379.389-.49.68-.112.29-.168.63-.168 1.018Zm12.114-2.698a1.063 1.063 0 0 0-.48-.8c-.282-.192-.636-.288-1.062-.288-.306 0-.57.049-.793.146a1.221 1.221 0 0 0-.52.393.927.927 0 0 0-.182.563c0 .177.041.33.124.458.085.129.195.237.33.324.139.085.287.156.444.215.158.055.31.101.455.138l.727.189c.238.058.481.137.731.236.25.1.481.23.694.393.214.162.386.363.517.604.133.24.2.527.2.861 0 .422-.11.797-.327 1.124-.216.327-.53.585-.942.774-.41.19-.906.284-1.487.284-.558 0-1.04-.088-1.448-.265a2.227 2.227 0 0 1-.956-.753 2.182 2.182 0 0 1-.382-1.164h1.128c.021.27.109.494.261.673.155.177.353.31.593.396.242.085.508.128.796.128.318 0 .6-.05.848-.15a1.42 1.42 0 0 0 .589-.421 1 1 0 0 0 .214-.637.78.78 0 0 0-.189-.541 1.397 1.397 0 0 0-.505-.35 4.941 4.941 0 0 0-.717-.243l-.88-.24c-.596-.162-1.069-.401-1.418-.716-.346-.316-.52-.733-.52-1.251 0-.43.117-.804.35-1.124.232-.32.547-.568.945-.745.397-.18.846-.27 1.345-.27.504 0 .95.09 1.335.266.387.177.693.42.916.73.223.309.34.663.35 1.063h-1.084Zm5.048-.095v.873h-3.051v-.873h3.05ZM64.7 19.746h1.087v5.284c0 .21.032.37.095.476a.493.493 0 0 0 .243.214.98.98 0 0 0 .331.055c.087 0 .164-.006.23-.018l.152-.03.196.899a2.131 2.131 0 0 1-.705.116 1.915 1.915 0 0 1-.8-.153 1.372 1.372 0 0 1-.6-.494c-.153-.223-.23-.503-.23-.84v-5.509Zm5.728 7.036c-.524 0-.98-.12-1.371-.36a2.428 2.428 0 0 1-.91-1.007c-.215-.432-.323-.936-.323-1.513 0-.58.108-1.086.324-1.52.216-.434.519-.77.909-1.01s.847-.36 1.37-.36c.524 0 .981.12 1.372.36.39.24.693.576.909 1.01.216.434.323.94.323 1.52 0 .577-.108 1.081-.323 1.513a2.428 2.428 0 0 1-.91 1.007c-.39.24-.847.36-1.37.36Zm.004-.913c.339 0 .62-.09.843-.269.223-.179.388-.418.495-.716.109-.298.163-.627.163-.985 0-.357-.054-.684-.163-.982a1.6 1.6 0 0 0-.495-.724c-.223-.182-.504-.273-.844-.273-.341 0-.625.091-.85.273-.223.182-.39.423-.499.724-.106.298-.16.625-.16.982 0 .358.054.687.16.985.11.298.276.537.499.716.225.18.509.27.85.27Zm3.813.8v-5.585h1.05v.887h.059c.102-.3.281-.537.538-.709a1.54 1.54 0 0 1 .88-.262 4.598 4.598 0 0 1 .462.026v1.04a1.968 1.968 0 0 0-.233-.04 2.231 2.231 0 0 0-.334-.026c-.257 0-.486.055-.688.164a1.216 1.216 0 0 0-.647 1.095v3.41h-1.087Zm6.137.113c-.55 0-1.024-.117-1.422-.353-.395-.237-.7-.57-.916-1-.213-.431-.32-.936-.32-1.516 0-.572.107-1.076.32-1.512.216-.437.516-.777.902-1.022.388-.245.84-.368 1.36-.368.315 0 .62.053.916.157.296.104.561.268.796.49.236.224.421.513.557.87.135.354.203.784.203 1.29v.386h-4.44v-.814h3.375c0-.287-.058-.54-.175-.76a1.32 1.32 0 0 0-.49-.528 1.372 1.372 0 0 0-.735-.192 1.42 1.42 0 0 0-.8.225c-.226.148-.4.342-.524.582a1.68 1.68 0 0 0-.181.774v.637c0 .373.065.69.196.952.133.262.319.462.556.6.238.136.515.204.833.204.206 0 .394-.03.564-.087a1.17 1.17 0 0 0 .724-.709l1.028.185c-.082.303-.23.569-.443.797a2.15 2.15 0 0 1-.797.527c-.317.123-.68.185-1.087.185Z"/><defs><clipPath id="a"><path fill="#fff" d="M10.35 8.207h20.478v20.479H10.35z"/></clipPath></defs></svg>