<svg width="255" height="269" viewBox="0 0 255 269" fill="none" xmlns="http://www.w3.org/2000/svg">
<path d="M26.6857 147.796C26.6741 147.201 27.1732 147.126 27.657 146.999C34.4896 145.196 87.9842 136.834 88.0205 136.828C89.8116 136.562 89.7869 138.796 88.3777 139.019C28.503 148.48 26.7163 149.35 26.6865 147.794V147.796H26.6857Z" fill="#180B02"/>
<path d="M29.6743 156.397C29.5725 155.481 30.4258 155.313 31.1039 155.191C95.7357 143.637 91.0019 145.082 91.1321 146.22C91.306 147.734 91.3292 147.273 39.9394 155.856C31.6611 157.239 29.7958 157.511 29.6722 156.395L29.6743 156.397Z" fill="#180B02"/>
<path d="M90.0123 110.904C89.9658 113.487 85.982 113.493 86.1064 110.674C86.2199 108.126 90.064 108.001 90.0123 110.904Z" fill="#180B02"/>
<path d="M19.5966 129.367C19.251 128.637 17.9815 128.42 18.2631 127.795C18.7345 126.744 20.0411 129.497 20.8057 127.059C21.0174 126.383 21.846 126.682 21.6489 127.402C21.3819 128.379 20.415 128.898 21.9042 129.59C22.1712 129.715 22.6644 129.92 22.4411 130.346C22.193 130.82 21.7747 130.607 21.4408 130.358C19.8614 129.173 20.2986 131.738 19.3536 131.288C18.776 131.012 19.1594 130.334 19.5944 129.368H19.5959L19.5966 129.367Z" fill="#180B02"/>
<path d="M93.5134 111.191C92.0548 111.38 92.0984 108.788 93.6611 108.921C95.3955 109.069 95.0935 111.293 93.5134 111.191Z" fill="#180B02"/>
<path d="M25.2301 127.41C26.5898 127.569 26.3257 129.583 25.1748 129.458C23.9628 129.327 23.9075 127.575 25.2301 127.408V127.41Z" fill="#180B02"/>
<path d="M88.4331 246.389C86.5474 245.973 88.3429 246.637 76.449 241.963C72.5517 240.432 80.021 239.621 101.757 232.975C103.876 232.328 105.674 232.518 107.495 233.734C110.386 235.663 116.933 237.697 113.251 238.834C88.5517 246.458 89.7258 246.176 88.4323 246.39V246.388L88.4331 246.389Z" fill="#180B02"/>
<path d="M121.917 248.902C121.429 248.888 121.629 249.022 114.294 245.261C110.109 243.116 115.97 242.515 138.25 235.023C140.61 234.229 141.288 234.942 147.334 238.274C150.964 240.276 147.401 240.425 121.917 248.901V248.902Z" fill="#180B02"/>
<path d="M87.5271 233.222C86.3791 233.025 85.7709 232.659 78.1933 228.762C76.5957 227.94 76.8998 227.418 78.3388 227.053C104.708 220.376 100.411 219.843 109.722 224.865C113.886 227.112 109.44 227.138 87.5271 233.222Z" fill="#180B02"/>
<path d="M119.875 236.728C118.19 236.673 117.85 236.175 110.477 231.904C110.146 231.713 109.844 231.446 109.844 231.113C109.844 230.608 110.385 230.591 110.733 230.492C134.342 223.721 133.26 223.678 134.553 224.36C145.902 230.349 149.239 228.174 119.876 236.725L119.875 236.728Z" fill="#180B02"/>
<path d="M198.681 223.287C197.724 223.273 197.344 223.1 190.768 219.975C187.442 218.394 190.037 218.326 211.39 211.383C214.275 210.444 214.558 210.993 223.446 213.115C225.366 213.573 225.163 214.629 223.58 215.155C198.723 223.415 200.166 223.051 198.681 223.289V223.287Z" fill="#180B02"/>
<path d="M243.664 217.103C238.594 219.117 129.205 257.7 121.604 259.861C120.67 260.127 120.138 259.429 120.909 259.106C127.752 256.232 236.952 218.053 242.508 216.681C243.484 216.44 244.478 216.779 243.664 217.103Z" fill="#180B02"/>
<path d="M164.886 212.344C164.185 212.251 155.926 209.17 156.19 207.823C156.368 206.904 156.084 207.294 177.577 201.794C178.632 201.525 178.038 201.472 188.697 204.262C193.504 205.521 180.12 208.174 164.886 212.346V212.345V212.344Z" fill="#180B02"/>
<path d="M182.151 217.357C173.032 213.435 173.243 213.368 173.276 212.897C173.337 212.031 191.547 207.602 192.306 207.182C196.46 204.88 200.044 207.161 205.215 208.434C206.299 208.701 206.656 209.375 205.261 209.841C199.498 211.764 187.158 215.952 182.152 217.359V217.357H182.151Z" fill="#180B02"/>
<path d="M128.77 215.476C133.006 217.933 137.132 219.893 134.12 220.715C114.819 225.98 119.281 226.251 109.064 220.776C108.684 220.573 108.163 220.434 108.221 219.89C108.279 219.345 108.799 219.306 109.222 219.197C126.899 214.681 126.831 214.351 128.769 215.474L128.77 215.476H128.77Z" fill="#180B02"/>
<path d="M167.936 227.477C167.467 227.205 166.605 227.129 166.724 226.286C166.928 224.83 179.798 221.971 182.355 220.852C184.912 219.733 186.476 220.718 192.955 223.987C195.431 225.237 192.48 225.259 176.958 230.618C174.668 231.409 173.084 230.477 167.935 227.477H167.936Z" fill="#180B02"/>
<path d="M140.804 218.84C140.358 218.709 128.365 214.306 132.853 213.162C151.528 208.405 149.981 208.378 151.724 209.318C159.043 213.258 158.794 213.342 158.765 213.711C158.712 214.39 141.271 218.777 140.804 218.84Z" fill="#180B02"/>
<path d="M154.21 238.148C152.592 237.863 148.381 235.008 146.593 233.903C145.587 233.28 145.726 232.573 146.851 232.209C163.619 226.767 162.575 226.799 163.926 227.627C170.197 231.472 170.54 231.591 170.543 232.349C170.546 233.106 154.909 237.971 154.209 238.148L154.21 238.148Z" fill="#180B02"/>
<path d="M70.0553 229.177C72.4415 229.203 77.8912 232.094 80.1465 233.26C80.5182 233.451 81.1337 233.544 80.9925 234.257C80.8732 234.858 80.4644 235.185 79.9493 235.338C79.2494 235.545 68.4948 238.311 68.4577 238.319C67.1977 238.607 67.3024 238.42 57.1545 234.33C55.8989 233.823 56.3143 232.726 57.2011 232.494C70.8526 228.916 70.0895 229.175 70.056 229.178L70.0553 229.177Z" fill="#180B02"/>
<path d="M176.708 217.703C177.595 218.162 177.367 218.863 176.485 219.142C160.591 224.168 164.248 223.894 158.774 220.914C155.178 218.959 153.81 218.226 155.528 217.712C172.013 212.775 167.666 213.017 176.709 217.703H176.708Z" fill="#180B02"/>
<path d="M108.186 245.028C109.369 245.421 108.259 244.892 115.87 248.83C116.251 249.027 116.776 249.12 116.719 249.693C116.665 250.233 116.438 250.709 115.862 250.905C104.847 254.647 106.316 253.951 104.561 253.291C99.8835 251.534 94.0431 249.69 98.9065 247.982C99.8486 247.651 106.718 245.277 108.188 245.03L108.186 245.028Z" fill="#180B02"/>
<path d="M148.342 227.914C146.95 228.033 140.615 224.45 139.409 223.741C139.043 223.526 138.528 223.343 138.633 222.799C138.717 222.361 139.196 222.294 139.569 222.186C149.449 219.335 149.759 218.903 151.405 219.922C160.257 225.408 161.617 223.837 148.343 227.913L148.342 227.914Z" fill="#180B02"/>
<path d="M82.6964 249.932C106.818 259.167 107.68 259.666 107.308 260.513C106.959 261.308 106.507 261.329 101.95 259.588C98.0903 258.115 83.8873 252.622 82.3086 251.983C81.2421 251.552 81.5819 249.579 82.6949 249.931L82.6964 249.932Z" fill="#180B02"/>
<path d="M66.9816 246.007C58.9966 242.956 54.0576 241.419 54.8557 239.886C55.2449 239.139 55.079 239.258 67.0748 243.85C68.6003 244.433 68.8062 245.969 66.9816 246.007Z" fill="#180B02"/>
<path fill-rule="evenodd" clip-rule="evenodd" d="M165.382 189.25C167.457 188.791 168.762 188.504 169.572 188.306H169.574C172.154 187.676 170.929 189.571 170.073 189.962C168.865 190.513 166.334 191.095 161.549 192.195C158.91 192.802 155.587 193.567 151.423 194.57L142.268 196.776L141.459 196.971C141.887 196.173 142.216 195.326 142.438 194.448C154.377 191.676 161.342 190.14 165.383 189.249L165.382 189.25ZM41.888 218.815L39.3672 219.442C39.1424 219.499 38.9504 219.547 38.7692 219.518C37.6707 219.35 36.9985 216.38 32.0348 195.332C31.4353 195.551 30.8591 195.709 30.3048 195.811C30.8446 197.974 31.2672 199.618 31.4193 200.213L31.4775 200.442C35.9465 218.324 36.2586 221.207 37.312 221.51C37.5179 221.57 37.7529 221.529 38.0534 221.484C38.6557 221.445 39.7994 221.247 42.7967 220.584C42.3754 219.886 42.0881 219.375 41.888 218.815V218.815ZM25.5789 175.411C25.9667 174.764 26.4134 174.196 26.9037 173.7C24.9931 165.706 23.0676 157.714 21.1273 149.727C20.7207 148.059 20.3584 146.575 20.0317 145.253C17.8892 136.548 17.5008 134.966 19.0271 134.808C27.5468 133.931 137.483 117.83 140.557 117.109C142.358 116.687 141.603 115.933 140.173 116.035C133.669 116.487 97.8168 121.54 66.444 125.962C40.1355 129.669 16.9755 132.933 16.9093 132.669C16.5308 131.169 16.1062 129.681 15.6362 128.207C15.0032 126.192 14.9611 126.055 16.0399 125.936C33.7131 123.983 53.4138 121.559 56.6723 121.158L57.1393 121.1C72.2207 119.219 87.3052 117.364 102.393 115.534C142.015 110.714 145.8 110.252 146.305 107.877C143.942 107.877 34.9586 120.786 13.1561 124.419C12.3915 124.547 14.8541 133.998 18.9994 149.89C21.2248 158.388 23.4177 166.895 25.5782 175.411L25.5789 175.411Z" fill="#180B02"/>
<path fill-rule="evenodd" clip-rule="evenodd" d="M135.006 97.239C139.257 96.7224 143.945 96.2954 146.875 96.5711C145.929 97.3459 145.353 98.1069 145.135 99.1079C143.143 99.201 139.439 99.5939 132.06 100.472C132.912 99.6724 133.879 98.6067 135.006 97.2382V97.239ZM122.925 98.8729C85.2234 104.029 58.9199 107.03 40.6327 109.114C-0.212771 113.773 -1.06467 113.869 0.361957 123.273C2.02066 134.213 19.6509 206.869 19.6596 206.904C20.6323 210.824 21.4551 214.236 22.1731 217.212C26.1351 233.637 26.8961 236.79 31.9944 238.888C72.2157 255.438 78.7865 257.856 82.5789 259.252C83.9561 259.759 84.9666 260.131 87.0894 260.996C88.0999 261.408 89.3447 261.943 90.7378 262.543C97.2933 265.363 107.124 269.594 111.089 268.909C120.452 267.291 162.969 252.004 183.322 244.686L183.325 244.685L183.329 244.684L183.361 244.672L183.365 244.67C186.862 243.413 189.7 242.392 191.601 241.718C200.48 238.571 209.366 235.446 218.261 232.342L218.264 232.341C254.148 219.792 257.511 218.617 253.571 213.894C249.825 209.405 208.371 200.713 203.877 199.811C200.061 199.045 196.893 198.422 194.265 197.907C184.507 195.993 182.204 195.539 181.954 194.563C181.875 194.261 181.995 193.91 182.151 193.449L182.176 193.374C182.347 192.867 181.684 190.822 178.557 181.19C173.642 166.068 168.796 150.923 164.02 135.756L163.094 137.505L162.122 139.352L163.075 142.468C166.357 153.203 168.948 161.679 169.397 161.551C172.688 171.222 175.915 180.915 179.08 190.629C180.347 194.513 178.204 194.965 173.225 196.019H173.223C172.093 196.258 170.815 196.528 169.397 196.877C147.846 202.174 127.833 207.107 110.22 211.45H110.217C69.5843 221.465 41.7123 228.337 37.132 229.289C32.3567 230.283 31.4662 231.964 30.9577 232.92C30.6951 233.415 30.535 233.715 29.9923 233.627H29.9909C28.8778 233.444 28.255 230.775 20.5857 197.951C19.584 193.66 18.4592 188.851 17.1999 183.467C13.7254 168.619 10.7179 157.078 8.37392 148.082C3.37235 128.891 1.38991 121.28 4.31446 117.839C6.23579 115.576 10.2792 115.117 16.9817 114.356C17.8918 114.252 18.8499 114.142 19.8582 114.023C64.5311 108.718 93.3554 105.193 112.046 102.905C117.323 102.261 121.793 101.714 125.584 101.254C124.945 100.751 124.263 100.116 123.479 99.3902V99.3887L123.464 99.3771L122.922 98.8736L122.925 98.8729ZM162.153 165.583C160.51 159.909 158.892 154.228 157.3 148.54L158.233 146.762L164.738 169.478C164.227 169.298 163.703 169.157 163.171 169.058L162.968 168.37C163.127 167.432 162.805 166.458 162.153 165.583ZM221.427 227.874L221.425 227.875C200.698 235.141 171.439 245.399 141.854 256.294C139.242 257.257 136.86 258.141 134.682 258.948C112.389 267.216 111.387 267.589 101.684 263.795C99.318 262.87 39.5102 239.03 36.6278 237.704C27.593 233.543 32.1472 232.473 83.0569 220.502L83.0598 220.501C100.219 216.466 122.646 211.193 151.592 204.147C165.647 200.726 172.149 198.946 175.39 198.06C178.594 197.181 178.612 197.177 179.587 197.321C180.41 197.442 180.957 197.505 181.445 197.563C183.842 197.843 184.79 197.954 209.75 203.793C248.188 212.786 254.132 214.523 250.722 217.302V217.3C250.067 217.833 238.714 221.814 221.427 227.874H221.427Z" fill="#180B02"/>
<path d="M149.915 117.736C104.278 172.918 104.86 174.613 103.544 173.841C95.2308 168.968 81.9176 173.765 78.1899 184.625C77.7832 185.808 76.6468 186.558 75.3977 186.533C68.8597 186.408 60.5749 191.889 60.54 200.748C60.5371 201.667 60.1726 202.04 59.264 201.823C55.1769 200.849 43.9057 205.137 44.8886 216.564C44.9468 217.239 45.0479 217.721 45.2399 218.046C77.3613 210.386 77.3874 210.521 77.3038 210.139C76.4781 206.441 79.6245 200.219 83.8884 196.839C86.4965 194.772 90.8418 193.541 91.1379 195.641C91.4471 197.833 88.0897 195.271 82.9404 201.618C81.2221 203.736 80.0217 206.128 79.5197 208.824C79.2149 210.463 83.3137 208.989 138.136 195.86C139.081 194.817 141.666 188.054 135.373 184.369C133.897 183.505 134.877 184.118 154.551 146.505C156.036 143.667 163.2 129.971 164.813 127.054C166.187 124.567 151.718 117.178 149.914 117.732L149.916 117.735L149.915 117.736ZM140.865 156.466C140.836 156.515 121.091 190.008 119.435 190.165C117.101 189.613 118.403 189.253 139.436 155.697C139.761 155.179 140.092 154.538 140.825 154.926C141.611 155.343 141.164 155.942 140.865 156.466ZM151.585 131.848C142.954 144.383 124.718 167.98 123.674 168.127C123.343 168.116 123.098 167.988 122.993 167.7C122.16 165.397 171.232 103.314 151.584 131.849L151.585 131.848Z" fill="#F07D29"/>
<path d="M143.774 175.713C143.64 172.88 145.087 170.921 146.889 169.151C148.446 167.623 147.694 170.35 149.005 170.296C149.571 170.273 149.62 169.754 149.775 169.346C152.546 162.039 159.78 163.816 161.122 167.397C161.816 169.246 159.732 168.478 160.273 170.029C160.673 171.172 166.144 169.359 168.401 175.632C169.26 178.021 167.549 181.057 165.62 182.182C164.713 182.71 163.731 183.111 162.79 183.588C161.023 184.486 162.468 182.173 161.48 181.752C160.937 181.52 159.142 183.83 156.668 185.91C153.867 188.264 150.563 187.503 148.88 184.246C147.517 181.61 147.805 178.8 147.029 178.626C146.46 178.498 146.101 178.863 145.913 179.347C145.143 181.32 143.699 178.153 143.773 175.715L143.775 175.713L143.774 175.713Z" fill="#F07D29"/>
<path d="M34.5635 172.451C35.793 172.463 36.9526 172.379 36.3619 173.518C35.8861 174.44 36.706 175.413 37.6467 174.231C41.9353 168.838 51.224 169.398 53.3941 175.939C53.8626 177.351 51.7878 176.183 50.3204 176.846C49.7864 177.087 49.1695 177.31 49.2161 178C49.2626 178.69 49.9632 178.697 50.4456 178.759C56.2496 179.502 60.3745 185.66 54.3166 190.208C52.8609 191.3 48.6188 193.368 48.5199 191.347C48.45 189.932 47.1282 189.615 46.7739 191.338C45.5429 197.335 41.1583 198.401 36.8362 196.345C32.9943 194.518 37.6285 193.002 36.4528 191.732C35.4845 190.687 29.5547 196.874 25.9215 193.24C22.8537 190.17 25.7418 185.362 29.4994 183.143C29.9563 182.873 30.7725 182.74 30.3833 181.957C29.1698 179.518 25.736 184.183 25.7753 181.286C25.8408 176.407 28.5587 172.4 34.5679 172.454L34.565 172.451H34.5635Z" fill="#F07D29"/>
<path d="M227.315 83.5509C253.26 43.3769 246.731 0.204891 239.107 0.00773851C226.519 -0.318909 204.862 9.57655 190.965 21.9062C182.817 29.1354 175.896 37.4791 169.511 46.2775C167.899 48.5007 169.777 47.2181 145.117 53.324C142.615 53.9439 143.97 52.6678 130.135 79.4529C123.013 93.2383 122.001 93.4966 124.115 95.3743C128.476 99.2511 127.994 99.9866 129.972 97.7925C135.721 91.4152 143.004 80.6969 147.541 74.3051C148.462 73.0058 148.279 73.4823 151.937 73.4212C153.358 73.3979 152.283 74.1713 150.592 77.6662C147.144 84.7935 144.934 87.8315 147.297 89.9202C151.589 93.7155 152.792 94.2612 154.224 95.8042C148.155 99.6752 147.506 99.6432 149.316 101.108C150.903 102.392 152.297 102.665 150.74 103.749C138.881 112.002 140.755 107.883 171.06 126.627C177.172 130.408 177.59 130.329 178.112 127.978C179.574 121.398 179.021 120.888 180.664 122.013C182.712 123.415 184.719 125.056 185.051 122.594C185.836 116.781 185.286 116.077 186.725 116.876C197.988 123.131 197.772 122.318 199.355 120.912C202.493 118.125 207.994 110.93 210.224 108.112C210.965 109.747 211.505 111.293 212.337 112.665C213.462 114.524 212.781 113.55 204.633 129.524C197.695 143.129 198.002 143.074 200.049 143.883C205.99 146.229 205.93 145.91 207.642 143.572L231.52 111.146C232.962 109.217 232.642 108.864 230.703 100.208C227.01 83.7095 226.627 84.6182 227.316 83.5524L227.315 83.5509ZM208.615 12.9769C217.599 7.83345 227.907 3.49246 238.141 1.93489C239.591 1.71445 240.386 2.23971 240.739 3.70126C243.492 15.1209 243.024 22.7585 242.342 33.8734C242.333 34.0256 242.324 34.1784 242.314 34.3319C242.192 36.3274 243.999 36.3595 208.99 15.2816C206.958 14.0579 206.595 14.1351 208.615 12.9769ZM203.851 15.833C205.783 14.338 204.893 14.8029 226.268 28.0318C241.976 37.7563 241.98 37.3161 241.813 38.0189C241.421 41.1624 244.054 41.0722 217.607 25.4571C200.933 15.6126 202.118 17.176 203.851 15.8345L203.851 15.833ZM146.415 71.7261C140.234 80.1324 134.275 87.3747 129.038 95.6653C128.64 96.2953 128.335 96.4255 127.742 95.8217C125.016 93.047 125.176 94.2248 126.835 91.0063C140.736 64.0692 142.553 60.946 144.267 57.1994C145.284 54.9762 146.76 55.6608 166.075 50.8862C165.878 51.8618 165.334 52.4656 164.916 53.0992C155.481 67.4332 155.881 70.632 153.335 70.6189C147.076 70.5898 147.101 70.7898 146.414 71.7261H146.415ZM177.778 120.605C175.739 128.192 176.366 127.239 175.259 126.593C170.566 123.862 168.276 122.376 147.552 110.393C145.638 109.286 147.607 109.197 151.936 104.791C153.386 103.315 152.772 103.659 166.451 112.698C177.978 120.315 177.931 120.032 177.778 120.605ZM183.971 115.971C183.227 120.231 183.538 121.164 182.045 120.181C178.139 117.612 156.227 103.239 151.825 100.756C150.244 99.8637 151.816 99.7691 155.169 97.2337C156.595 96.1556 155.571 98.0216 178.038 111.937C183.239 115.159 184.285 115.176 183.971 115.971ZM202.708 112.685C196.488 119.633 197.559 120.097 195.984 119.26C171.969 106.461 154.364 91.7942 149.543 88.0578C149.093 87.7093 148.916 87.4481 149.285 86.8865C151.378 83.7051 152.813 79.1452 153.611 79.119C154.276 79.6035 172.982 94.5907 194.264 106.428C203.322 111.466 204.146 111.077 202.708 112.685ZM204.059 109.129C178.07 94.267 162.522 81.8158 155.865 77.0682C155.094 76.5182 154.908 76.006 155.427 75.0916C164.491 59.0625 176.277 36.9422 199.62 18.8805C201.304 17.5754 200.127 18.0636 220.601 30.3692C241.073 42.6771 241.223 41.9365 240.947 43.0408C236.507 60.8595 230.045 76.7197 212.409 100.033C204.945 109.902 205.429 109.908 204.061 109.126L204.059 109.128L204.059 109.129ZM205.611 142.345C205.133 143.01 204.642 143.204 203.827 142.905C203.806 142.898 203.785 142.89 203.765 142.883C201.061 141.895 201.009 141.876 202.473 139.339C207.06 131.393 210.99 123.109 215.136 114.933C215.575 114.067 215.563 113.355 215.098 112.46C214.246 110.822 213.877 108.856 212.779 107.438C210.6 104.626 214.519 104.061 224.649 87.897C224.713 87.7952 224.843 87.7348 225.119 87.5165C230.115 108.587 229.913 108.349 230.019 108.619C230.293 109.323 229.841 108.543 205.61 142.345L205.611 142.345Z" fill="#F07D29"/>
<path d="M204.059 109.129C178.07 94.267 162.522 81.8158 155.865 77.0682C155.094 76.5182 154.908 76.006 155.427 75.0916C164.491 59.0625 176.277 36.9422 199.62 18.8805C201.304 17.5754 200.127 18.0636 220.601 30.3692C241.073 42.6771 241.223 41.9365 240.947 43.0408C236.507 60.8595 230.045 76.7197 212.409 100.033C204.945 109.902 205.429 109.908 204.061 109.126L204.059 109.128L204.059 109.129Z" fill="#FBEFE8"/>
<path d="M208.615 12.9769C217.599 7.83345 227.907 3.49246 238.141 1.93489C239.591 1.71445 240.386 2.23971 240.739 3.70126C243.492 15.1209 243.024 22.7585 242.342 33.8734L242.314 34.3319C242.192 36.3274 243.999 36.3595 208.99 15.2816C206.958 14.0579 206.595 14.1351 208.615 12.9769Z" fill="#FBEFE8"/>
<path d="M203.851 15.833C205.783 14.338 204.893 14.8029 226.268 28.0318C241.976 37.7563 241.98 37.3161 241.813 38.0189C241.421 41.1624 244.054 41.0722 217.607 25.4571C200.933 15.6126 202.118 17.176 203.851 15.8345L203.851 15.833Z" fill="#FBEFE8"/>
<path d="M202.708 112.685C196.488 119.633 197.559 120.097 195.984 119.26C171.969 106.461 154.364 91.7942 149.543 88.0578C149.093 87.7093 148.916 87.4481 149.285 86.8865C151.378 83.7051 152.813 79.1452 153.611 79.119C154.276 79.6035 172.982 94.5907 194.264 106.428C203.322 111.466 204.146 111.077 202.708 112.685Z" fill="#FBEFE8"/>
<path d="M146.415 71.7261C140.234 80.1324 134.275 87.3747 129.038 95.6653C128.64 96.2953 128.335 96.4255 127.742 95.8217C125.016 93.047 125.176 94.2248 126.835 91.0063C140.736 64.0692 142.553 60.946 144.267 57.1994C145.284 54.9762 146.76 55.6608 166.075 50.8862C165.878 51.8618 165.334 52.4656 164.916 53.0992C155.481 67.4332 155.881 70.632 153.335 70.6189C147.076 70.5898 147.101 70.7898 146.414 71.7261H146.415Z" fill="#FBEFE8"/>
<path d="M205.611 142.345C205.133 143.01 204.642 143.204 203.827 142.905L203.765 142.883C201.061 141.895 201.009 141.876 202.473 139.339C207.06 131.393 210.99 123.109 215.136 114.933C215.575 114.067 215.563 113.355 215.098 112.46C214.246 110.822 213.877 108.856 212.779 107.438C210.6 104.626 214.519 104.061 224.649 87.897C224.713 87.7952 224.843 87.7348 225.119 87.5165C230.115 108.587 229.913 108.349 230.019 108.619C230.293 109.323 229.841 108.543 205.61 142.345L205.611 142.345Z" fill="#FBEFE8"/>
<path d="M206.984 38.4083C215.888 38.9015 222.701 46.0805 222.384 55.0498C222.081 63.6474 214.292 70.6722 205.239 70.1775C196.693 69.7104 189.929 62.6595 190.306 53.6494C190.656 45.3071 198.088 37.9165 206.983 38.4097H206.984V38.4083ZM219.566 54.4082C219.976 47.9829 214.263 40.5711 205.792 40.9538C188.169 41.7519 189.273 68.0626 206.914 67.7229C214.317 67.5803 219.944 60.6181 219.565 54.4082H219.566Z" fill="#F07D29"/>
<path d="M206.371 64.2032C201.161 64.4382 196.194 59.9219 196.197 54.0582C196.2 48.4572 201.097 43.6128 206.694 43.7866C220.267 44.2108 220.139 64.3305 206.371 64.2032ZM206.618 62.6354C217.75 62.6223 217.802 45.804 206.673 45.5385C195.277 45.2671 195.219 62.6456 206.618 62.6354Z" fill="#F07D29"/>
</svg>
