<svg width="300" height="210" viewBox="0 0 300 210" fill="none" xmlns="http://www.w3.org/2000/svg">
<path d="M196.68 118.22C195.72 119.395 192.969 121.868 192.754 122.227C192.713 122.301 192.694 122.385 192.7 122.47C192.706 122.554 192.736 122.635 192.787 122.703C192.838 122.77 192.907 122.822 192.987 122.851C193.066 122.88 193.152 122.886 193.235 122.867C194.756 121.859 196.132 120.646 197.322 119.261C198.49 118.107 199.345 116.673 199.805 115.095C200.792 111.764 199.595 106.718 196.199 105.321C195.718 105.08 195.238 105.802 195.718 106.122C196.641 106.729 197.406 107.547 197.949 108.508C198.493 109.469 198.799 110.547 198.843 111.65C199.069 114.149 198.692 115.753 196.68 118.22Z" fill="#010614"/>
<path d="M195.236 125.993C194.996 126.232 195.236 126.554 195.557 126.554C196.789 126.182 197.915 125.523 198.842 124.63C200.863 123.111 202.343 120.984 203.064 118.56C203.785 116.137 203.71 113.547 202.848 111.17C202.808 111.073 202.735 110.995 202.64 110.949C202.546 110.904 202.439 110.896 202.338 110.926C202.238 110.956 202.153 111.022 202.099 111.111C202.045 111.201 202.026 111.307 202.047 111.409C203.883 122.064 196.86 124.041 195.236 125.993Z" fill="#010614"/>
<path d="M198.441 128.316C199.529 128.316 202.182 126.378 202.287 126.312C205.514 123.778 208.024 119.92 207.415 115.896C207.335 115.415 206.614 115.581 206.614 115.977C206.535 117.828 206.032 119.636 205.143 121.262C204.253 122.887 203.002 124.287 201.486 125.352C198.861 127.229 198.177 127.617 198.121 127.674C198.045 127.995 198.121 128.316 198.441 128.316Z" fill="#010614"/>
<path d="M207.735 125.912C208.967 124.395 209.745 122.562 209.979 120.623C210.058 120.062 209.257 120.062 209.018 120.463C208.455 121.703 208.266 123.541 206.853 125.188C204.769 127.566 203.355 127.795 202.526 129.033C202.447 129.194 202.526 129.433 202.687 129.354C204.12 129.36 206.923 127.073 207.735 125.912Z" fill="#010614"/>
<path d="M229.769 41.9425C232.839 44.1286 236.207 44.4247 239.866 43.6225C239.945 43.6225 241.468 46.7473 241.629 47.0675C243.021 49.6574 244.744 52.0548 246.756 54.1991C247.733 55.4855 248.995 56.5278 250.442 57.2441C250.744 57.3831 251.071 57.455 251.403 57.455C251.735 57.455 252.063 57.3831 252.364 57.2441C253.966 56.443 253.486 53.7193 254.608 52.3574C254.974 51.9448 255.435 51.6271 255.952 51.4316C256.468 51.2361 257.024 51.1686 257.572 51.235C259.816 51.4754 260.858 53.8799 261.338 55.7227C261.91 57.4312 261.966 59.2704 261.499 61.0105C260.777 62.8532 258.935 63.5746 257.172 63.8948C256.771 63.9746 256.852 64.5364 257.172 64.6162C257.928 64.8351 258.731 64.8306 259.484 64.6031C260.238 64.3756 260.909 63.9349 261.418 63.3341C261.424 63.7262 261.521 64.1114 261.702 64.4592C261.883 64.807 262.143 65.1077 262.461 65.3375C262.867 67.4512 267.279 82.5796 268.389 84.2459C261.805 87.209 261.124 87.4652 253.164 91.5382C252.923 89.6944 250.441 85.3684 250.04 84.9673C251.226 84.1631 252.207 83.0915 252.903 81.8389C253.599 80.5863 253.991 79.1877 254.047 77.7559C254.047 77.1952 253.325 77.276 253.245 77.7559C253.106 79.0991 252.646 80.3891 251.904 81.5174C251.162 82.6456 250.16 83.579 248.982 84.2388C247.803 84.8986 246.484 85.2655 245.134 85.3086C243.785 85.3517 242.444 85.0697 241.226 84.4864C238.422 83.1214 236.979 80.2402 235.697 77.5963C232.862 71.6113 232.682 67.784 231.051 66.6196C229.768 65.6578 228.165 65.4971 227.364 63.9746C228.403 62.3513 229.289 60.6348 230.009 58.8475C231.212 55.9631 231.212 52.5979 230.97 49.4731C230.636 47.6695 230.664 45.8176 231.051 44.0246C231.067 43.9728 231.063 43.9168 231.039 43.8679C231.016 43.8189 230.975 43.7805 230.925 43.7603C230.874 43.7401 230.818 43.7395 230.768 43.7587C230.717 43.7779 230.675 43.8155 230.651 43.864C229.258 46.6465 229.928 48.2425 229.928 51.235C230.087 55.3183 228.907 59.3415 226.568 62.6926C226.328 63.0937 225.848 63.5746 225.928 64.0576C226.067 64.5472 226.301 65.0045 226.618 65.4032C226.934 65.802 227.326 66.1344 227.771 66.3812C228.572 66.8621 229.693 67.0217 230.335 67.7462C230.984 68.6919 231.447 69.7523 231.7 70.871C232.9 74.5922 235.427 81.6199 238.751 84.2512C240.185 85.4434 241.943 86.1795 243.799 86.3651C245.655 86.5507 247.524 86.1773 249.167 85.2928C249.568 85.0534 251.81 91.3828 252.052 91.9435C251.891 92.0233 248.847 93.6235 247.404 94.4278C247.325 94.4684 247.259 94.528 247.21 94.6012C247.16 94.6743 247.131 94.7587 247.123 94.8464C247.115 94.9342 247.129 95.0225 247.164 95.1033C247.199 95.1841 247.254 95.2548 247.324 95.3087C248.9 96.5575 250.208 98.1109 251.17 99.8762C232.921 107.482 225.707 131.123 215.755 142.583C208.742 150.924 197.742 157.053 187.552 160.45C182.549 162.138 177.436 163.476 172.248 164.455C172.087 164.455 172.087 164.776 172.328 164.776C190.417 162.689 205.477 154.842 214.313 145.867C224.517 135.662 230.588 116.614 243.083 106.282C248.771 101.557 256.223 98.1899 263.754 100.033C264.636 100.273 265.518 100.514 266.398 100.834C266.799 100.994 267.121 100.353 266.719 100.114C262.414 97.5757 256.738 98.0041 251.897 99.7124C251.186 97.9698 250.058 96.4289 248.611 95.2258C250.816 93.9941 267.958 85.3306 272.729 83.9278C273.215 91.2127 273.534 96.4511 273.931 99.0709C273.945 99.1399 273.974 99.2053 274.014 99.2631C274.054 99.321 274.106 99.3701 274.166 99.4075C274.226 99.4449 274.292 99.4699 274.362 99.481C274.432 99.4921 274.503 99.489 274.571 99.472C298.989 126.931 290.689 161.133 294.041 191.615C294.122 192.096 294.763 192.096 294.763 191.615C293.879 174.457 295.232 150.166 291.958 133.365C289.844 121.739 284.818 108.437 276.495 100.114C276.094 99.7124 275.613 99.2315 275.13 98.8315V98.7506C274.379 92.5798 274.117 86.8279 273.45 83.3671C273.528 83.2662 273.573 83.1432 273.578 83.0155C273.583 82.8877 273.547 82.7617 273.476 82.6553C273.405 82.5489 273.303 82.4675 273.183 82.4227C273.064 82.3778 272.933 82.3717 272.809 82.4053C271.529 82.7897 270.272 83.2454 269.043 83.7703C268.606 82.1369 268.071 80.5313 267.441 78.9623C266.96 77.5974 263.355 66.6238 263.115 65.8216C265.118 66.6238 267.122 65.5066 268.643 64.1416C275.783 57.5602 278.55 46.5478 273.771 38.5825C282.981 42.4192 293.046 34.1641 289.716 23.1181C288.234 18.153 284.947 13.9226 280.502 11.2594C270.032 5.48439 259.216 12.6811 260.791 20.554C260.711 20.1539 259.028 19.5932 258.708 19.4326C256.752 18.7659 254.676 18.5211 252.619 18.7144C250.561 18.9076 248.567 19.5346 246.769 20.554C242.945 19.7402 238.997 19.686 235.151 20.3944C229.703 21.5956 224.575 25.762 224.255 31.6913C224.327 33.7083 224.862 35.6817 225.818 37.4591C226.774 39.2366 228.126 40.7705 229.769 41.9425Z" fill="#010614"/>
<path d="M217.75 42.1048C215.116 37.9332 210.219 33.5316 204.931 33.6124C203.244 33.6713 201.597 34.1397 200.131 34.9771C198.665 35.8145 197.426 36.9959 196.518 38.4193C192.992 43.6273 193.233 51.0792 194.595 57.0043C196.275 64.3753 201.405 76.3936 210.3 76.9543C211.686 77.0144 213.069 76.7894 214.365 76.293C215.66 75.7967 216.84 75.0397 217.831 74.0689C226.08 66.3 223.057 50.5048 217.75 42.1048ZM220.475 68.2257C217.93 75.4476 210.09 76.1668 203.81 66.2223C199.884 60.1323 196.918 51.8803 198.28 44.5093C199.322 39.2205 203.889 33.9327 209.658 36.2563C220.755 40.5561 223.277 60.2698 220.475 68.2225V68.2257Z" fill="#010614"/>
<path d="M218.633 88.0127C219.928 89.1183 221.993 88.8138 223.439 88.3277C224.081 88.1681 220.079 79.5948 218.392 75.7487C218.364 75.6922 218.324 75.6425 218.276 75.603C218.227 75.5635 218.17 75.5351 218.109 75.5198C218.047 75.5045 217.984 75.5027 217.922 75.5145C217.86 75.5263 217.802 75.5514 217.751 75.588C216.635 76.4066 215.389 77.0297 214.065 77.4308C213.744 77.5946 218.156 87.6063 218.633 88.0127Z" fill="#010614"/>
<path d="M105.015 100.914C111.667 125.055 115.04 132.818 117.995 140.735C119.518 144.902 121.04 149.068 122.963 153.074C126.014 159.855 129.412 160.617 134.261 159.405C137.866 158.522 141.472 157.561 144.997 156.601C145.237 156.52 145.158 156.2 144.917 156.279C141.232 157.08 137.546 157.882 133.94 158.683C132.177 159.084 130.255 159.405 128.572 158.603C125.854 157.394 124.318 154.1 123.203 151.552C121.29 147.203 114.788 129.352 114.23 127.675C109.61 114.13 98.0042 74.1063 96.4418 57.9668C96.2013 55.2431 95.8811 52.1183 97.4834 49.7148C99.0878 47.2305 101.97 46.1889 104.536 45.1505C134.849 32.919 187.462 19.4779 212.302 15.825C217.713 15.0784 219.591 14.9377 222.157 20.0712C222.924 21.5388 223.389 23.1456 223.522 24.7962C223.529 24.8767 223.565 24.9517 223.625 25.0064C223.684 25.0612 223.762 25.0915 223.842 25.0915C223.923 25.0915 224.001 25.0612 224.06 25.0064C224.12 24.9517 224.156 24.8767 224.163 24.7962C224.182 21.6702 223.105 18.6363 221.118 16.2229C220.651 15.6659 220.078 15.2085 219.431 14.878C218.784 14.5475 218.077 14.3507 217.352 14.2993C210.14 13.3984 141.199 28.824 103.495 44.426C100.85 45.5474 98.126 46.7496 96.6035 49.2339C95.0012 51.7172 95.1608 54.9228 95.4012 57.7263C96.0333 67.8389 102.272 91.1405 105.015 100.914Z" fill="#010614"/>
<path d="M113.109 51.2396C111.863 51.6353 110.676 52.2006 109.583 52.9196C107.329 54.6542 107.404 57.065 107.58 59.8905C108.519 74.9055 114.742 98.897 119.359 110.769C119.398 110.866 119.472 110.945 119.567 110.991C119.661 111.036 119.769 111.045 119.869 111.014C119.97 110.984 120.055 110.918 120.109 110.828C120.163 110.738 120.181 110.632 120.16 110.529C117.156 100.086 110.055 79.3596 108.622 60.6896C108.462 58.2861 108.061 55.2411 110.302 53.6388C111.408 52.911 112.626 52.3697 113.907 52.0365C115.349 51.4748 116.792 50.9949 118.233 50.4332C166.308 33.1932 198.992 28.5008 206.049 26.7966C208.527 26.1509 212.761 25.2363 213.902 27.518C214.801 30.4092 215.524 33.3526 216.065 36.3317C216.145 36.5721 216.626 36.5721 216.546 36.2519C216.269 33.935 215.867 31.6346 215.344 29.3607C215.205 28.6197 214.99 27.895 214.703 27.1977C213.902 25.355 211.819 25.0347 209.978 25.1145C208.056 25.2985 206.152 25.647 204.289 26.1561C200.517 27.0192 159.241 33.7802 113.109 51.2396Z" fill="#010614"/>
<path d="M161.985 29.4433C162.385 29.3625 162.225 28.8018 161.905 28.8018C161.441 28.802 160.986 28.9334 160.593 29.1807C160.2 29.4281 159.885 29.7814 159.684 30.1999C159.483 30.6185 159.404 31.0853 159.457 31.5466C159.509 32.0079 159.691 32.445 159.981 32.8075C160.262 33.1689 160.63 33.4538 161.05 33.636C161.47 33.8182 161.929 33.8918 162.385 33.8502C162.875 33.8033 163.345 33.6317 163.75 33.3519C164.154 33.072 164.481 32.6932 164.698 32.2514C164.915 31.8096 165.015 31.3196 164.99 30.8281C164.964 30.3365 164.812 29.8598 164.55 29.4433C164.475 29.3269 164.357 29.2446 164.222 29.2146C164.087 29.1845 163.946 29.209 163.829 29.2827C163.268 29.5977 163.829 30.5647 163.829 31.0456C163.829 31.395 163.732 31.7376 163.548 32.0346C163.364 32.3315 163.1 32.5709 162.787 32.7256C162.563 32.8062 162.324 32.8388 162.087 32.8212C161.849 32.8036 161.618 32.7363 161.408 32.6236C161.198 32.5108 161.014 32.3553 160.869 32.1669C160.723 31.9786 160.618 31.7617 160.562 31.5303C160.505 31.2989 160.498 31.0582 160.54 30.8238C160.583 30.5895 160.674 30.3666 160.808 30.1698C160.943 29.973 161.117 29.8067 161.319 29.6815C161.522 29.5563 161.749 29.4752 161.985 29.4433Z" fill="#010614"/>
<path d="M136.425 141.54C134.745 142.101 132.9 142.742 131.378 141.54C130.306 140.526 129.507 139.259 129.054 137.855C124.434 126.067 129.428 138.41 124.486 126.558C124.461 126.525 124.425 126.501 124.384 126.492C124.343 126.482 124.3 126.488 124.262 126.507C124.225 126.526 124.195 126.557 124.179 126.596C124.162 126.634 124.16 126.677 124.171 126.718C124.732 128.398 125.213 130.078 125.774 131.766C126.334 133.454 126.976 135.126 127.537 136.813C128.338 139.056 129.217 141.94 131.623 142.983C133.285 143.521 135.09 143.406 136.671 142.662C137.387 142.418 137.145 141.296 136.425 141.54Z" fill="#010614"/>
<path d="M237.14 74.4723C239.064 73.8717 242.308 71.3874 243.71 69.9856C244.271 69.5047 243.47 68.7036 242.909 69.1845C239.599 72.219 238.217 72.7104 236.819 73.9914C236.58 74.235 236.82 74.55 237.14 74.4723Z" fill="#010614"/>
<path d="M268.469 167.817C268.524 167.789 268.566 167.742 268.589 167.686C268.612 167.629 268.614 167.566 268.595 167.508C268.575 167.45 268.536 167.4 268.484 167.369C268.431 167.337 268.369 167.325 268.309 167.335C267.784 167.335 255.056 170.417 253.806 170.78C258.555 167.589 262.935 163.88 266.867 159.724C266.892 159.704 266.913 159.679 266.927 159.65C266.942 159.622 266.951 159.591 266.952 159.559C266.954 159.527 266.949 159.494 266.938 159.465C266.926 159.435 266.909 159.407 266.886 159.385C266.863 159.362 266.836 159.344 266.806 159.333C266.776 159.322 266.744 159.317 266.712 159.318C266.68 159.32 266.649 159.329 266.621 159.343C266.592 159.358 266.567 159.379 266.547 159.404C261.38 164.207 255.765 168.503 249.778 172.235C238.34 179.48 218.884 188.958 211.261 192.174C192.585 200.055 170.372 205.275 158.86 188.729C153.411 180.796 151.808 170.621 153.251 161.246C153.41 160.045 153.572 158.923 153.732 157.72C153.812 157.16 153.01 156.919 152.851 157.481C152.536 158.682 152.209 159.884 151.969 161.087C151.419 164.746 151.313 168.458 151.654 172.142C152.599 181.764 156.971 191.261 164.874 196.42C180.679 206.728 205.614 196.606 222.484 188.167C223.429 187.695 248.401 175.374 251.728 172.063C265.852 168.637 267.59 168.315 268.469 167.817Z" fill="#010614"/>
<path d="M170.878 60.7712C174.724 59.6498 193.153 55.1621 192.992 54.5216C191.888 50.1053 191.96 44.2463 194.034 40.0988C194.081 40.0137 194.102 39.9168 194.094 39.8199C194.086 39.723 194.051 39.6306 193.991 39.5539C193.931 39.4772 193.85 39.4197 193.758 39.3886C193.666 39.3574 193.567 39.3539 193.473 39.3785C178.983 42.0539 140.461 52.1465 116.314 60.6935C116.256 60.7096 116.203 60.7369 116.156 60.7738C116.109 60.8107 116.069 60.8565 116.04 60.9086C116.011 60.9607 115.992 61.018 115.985 61.0773C115.978 61.1366 115.983 61.1967 115.999 61.2542C117.12 65.5004 118.321 70.468 120.486 74.3141C121.11 75.887 123.961 74.1766 170.878 60.7712Z" fill="#0705CB"/>
<path d="M211.661 82.805C211.501 81.6028 211.26 80.4016 211.101 79.1195C211.101 78.8791 210.78 78.7982 210.54 78.7982C200.604 80.2409 196.117 66.6182 193.873 59.4089C193.794 59.0939 173.763 64.8574 169.837 65.8139C169.743 65.8478 169.665 65.9167 169.62 66.0062C169.575 66.0958 169.567 66.1991 169.596 66.2948C169.788 66.7537 174.234 79.7716 174.644 81.3581C174.724 81.5986 175.045 81.7592 175.205 81.5986C176.166 80.9581 180.173 77.9929 180.654 79.1951C182.433 83.4443 184.549 87.5441 186.983 91.4549C193.233 89.2121 209.498 83.7637 211.26 83.2019C211.582 83.2051 211.741 83.0455 211.661 82.805Z" fill="#0705CB"/>
<path d="M216.548 47.6307C215.428 44.1846 214.065 40.1757 210.62 38.4957C209.227 37.8891 207.677 37.7406 206.194 38.0718C204.711 38.403 203.371 39.1967 202.368 40.3384C199.562 43.4643 199.403 48.0307 200.204 52.0375C200.284 52.4376 216.548 47.7903 216.548 47.6307Z" fill="#0705CB"/>
<path d="M218.873 54.7614C218.952 54.521 218.792 54.2805 218.472 54.3603C216.148 54.7614 202.768 58.6076 202.207 58.7703C202.113 58.804 202.035 58.8729 201.99 58.9625C201.945 59.0521 201.937 59.1555 201.967 59.2512C203.569 63.8985 206.934 70.3886 212.542 71.1897C218.712 72.0717 219.754 63.258 219.513 58.931C219.391 57.5287 219.177 56.1359 218.873 54.7614Z" fill="#0705CB"/>
<path d="M160.782 118.781C161.343 118.14 160.862 117.416 160.462 116.858C159.5 115.255 158.459 113.733 157.497 112.132C157.097 111.491 156.696 110.93 155.895 111.252C155.173 111.572 149.005 115.977 149.005 115.977C148.844 115.977 148.764 116.136 148.764 116.297C148.778 116.631 148.921 116.947 149.164 117.178C149.325 117.499 152.851 122.145 153.732 123.187C153.812 123.348 154.213 123.348 154.372 123.348C156.619 121.986 158.761 120.459 160.782 118.781ZM154.372 122.226C153.571 121.185 149.726 116.377 149.647 116.297C151.09 115.255 155.817 112.291 156.052 112.21C156.052 112.21 159.818 117.899 159.898 118.06C159.902 118.06 154.934 121.745 154.372 122.226Z" fill="#010614"/>
<path d="M161.665 134.485C161.667 134.568 161.692 134.648 161.735 134.719C161.778 134.79 161.839 134.848 161.912 134.888C161.984 134.929 162.066 134.95 162.149 134.949C162.232 134.948 162.313 134.926 162.385 134.885C164.189 133.757 165.928 132.527 167.593 131.201C168.155 130.799 169.356 130.159 169.196 129.277C169.115 128.962 165.27 122.706 165.03 122.466C164.549 121.986 163.748 122.546 163.267 122.787C161.504 123.749 156.536 126.872 156.857 127.595C158.331 129.978 159.936 132.278 161.665 134.485ZM164.148 123.507L167.914 129.437C167.833 129.517 162.466 133.443 162.065 133.847C161.905 133.532 158.139 127.917 157.978 127.517C158.139 127.434 163.748 123.668 164.148 123.507Z" fill="#010614"/>
<path d="M155.976 113.653C155.575 113.893 155.575 114.454 155.495 114.854C155.29 115.991 155.182 117.144 155.174 118.3C154.632 118.116 154.05 118.088 153.494 118.219C153.253 118.3 153.173 118.7 153.414 118.78C153.729 118.942 155.176 119.261 155.497 119.421C155.571 119.44 155.649 119.443 155.724 119.428C155.8 119.413 155.871 119.381 155.932 119.335C155.994 119.289 156.044 119.23 156.08 119.162C156.115 119.093 156.135 119.018 156.138 118.942C156.171 117.598 156.305 116.258 156.539 114.935C156.618 114.535 156.779 114.134 156.618 113.812C156.589 113.757 156.549 113.708 156.5 113.67C156.451 113.631 156.394 113.603 156.333 113.588C156.272 113.573 156.209 113.571 156.148 113.582C156.086 113.593 156.027 113.617 155.976 113.653Z" fill="#0705CB"/>
<path d="M164.388 131.04C164.462 131.053 164.538 131.051 164.611 131.033C164.684 131.016 164.753 130.983 164.813 130.938C164.873 130.893 164.923 130.836 164.96 130.771C164.997 130.706 165.021 130.634 165.029 130.559C164.789 128.715 164.629 126.794 164.388 124.95C164.308 124.63 163.987 123.908 163.587 124.308C163.187 124.708 163.816 129.906 163.907 129.998C163.442 129.902 162.986 129.767 162.542 129.597C162.481 129.584 162.418 129.589 162.36 129.613C162.303 129.636 162.253 129.677 162.219 129.729C162.185 129.781 162.168 129.842 162.169 129.905C162.17 129.967 162.191 130.027 162.227 130.078C162.883 130.527 163.615 130.853 164.388 131.04Z" fill="#0705CB"/>
<path d="M165.51 139.131C165.51 139.212 169.356 144.339 169.92 145.141C170.401 145.702 170.882 146.821 171.762 146.342C174.176 144.862 176.455 143.173 178.574 141.295C178.814 140.734 178.253 140.253 178.093 140.014C177.933 139.775 174.487 135.206 173.525 134.084C173.38 133.847 173.155 133.67 172.892 133.582C172.628 133.494 172.342 133.502 172.084 133.604C170.882 134.084 166.635 137.45 165.433 138.251C165.11 138.495 165.35 138.81 165.51 139.131ZM172.562 134.566C172.562 134.566 177.448 140.734 177.77 140.971C175.605 142.413 173.522 143.935 171.439 145.381C171.439 145.381 166.632 138.811 166.551 138.65C167.754 137.93 172.401 134.566 172.562 134.566Z" fill="#010614"/>
<path d="M169.436 140.575C170.237 140.655 170.958 140.735 171.759 140.816C171.759 140.816 172.16 143.298 172.24 143.46C172.32 143.86 173.121 143.94 173.041 143.46C172.961 142.418 172.801 140.895 172.801 140.895C173.608 141.123 174.455 141.178 175.285 141.056C175.337 141.023 175.381 140.979 175.414 140.927C175.447 140.874 175.468 140.816 175.476 140.754C175.483 140.693 175.477 140.631 175.458 140.572C175.439 140.514 175.407 140.46 175.365 140.415C175.05 140.015 173.041 139.854 172.56 139.774C172.401 139.053 172.16 138.409 172 137.69C171.983 137.633 171.945 137.583 171.894 137.552C171.843 137.52 171.783 137.508 171.724 137.518C171.664 137.528 171.611 137.559 171.573 137.606C171.536 137.652 171.516 137.711 171.519 137.771C171.519 138.252 171.679 139.614 171.679 139.774C170.958 139.761 170.235 139.788 169.516 139.854C169.036 139.934 168.955 140.49 169.436 140.575Z" fill="#0705CB"/>
<path d="M174.243 150.99C174.965 152.192 179.692 158.445 179.853 158.445C180.117 158.445 186.981 153.704 187.308 153.315C187.634 152.927 187.468 152.595 187.148 152.274C186.827 151.874 181.7 145.224 181.219 145.384C178.723 146.913 176.364 148.656 174.168 150.592C174.083 150.59 174.083 150.83 174.243 150.99ZM181.294 146.341C181.374 146.422 185.942 152.592 186.102 152.752C185.781 152.993 180.654 156.517 179.932 157.079C179.531 156.599 175.846 151.71 174.965 150.748C176.406 149.788 181.214 146.341 181.294 146.341Z" fill="#010614"/>
<path d="M181.134 100.432C180.333 100.352 179.454 101.154 178.81 101.554C170.034 106.82 165.949 109.188 162.145 111.89C162.08 111.936 162.034 112.005 162.017 112.083C161.999 112.161 162.011 112.242 162.05 112.312C162.089 112.382 162.153 112.434 162.228 112.46C162.304 112.485 162.386 112.482 162.46 112.451C166.108 110.582 180.27 101.951 179.365 102.516C180.005 102.115 181.127 101.714 181.448 100.993C181.535 100.673 181.374 100.432 181.134 100.432Z" fill="#010614"/>
<path d="M181.054 115.977C180.092 116.538 179.291 117.179 178.329 117.82C177.367 118.46 176.486 119.022 175.526 119.662C173.59 120.894 170.814 122.372 169.996 123.107C169.945 123.16 169.913 123.227 169.904 123.3C169.894 123.372 169.909 123.446 169.945 123.509C169.982 123.572 170.038 123.622 170.105 123.651C170.172 123.68 170.247 123.686 170.318 123.668C171.942 123.293 180.337 117.822 181.615 116.778C182.095 116.458 181.535 115.736 181.054 115.977Z" fill="#010614"/>
<path d="M184.099 114.774C184.204 114.722 191.29 110.307 191.554 110.049C191.794 109.729 191.393 109.328 191.073 109.409C188.438 110.752 185.965 112.392 183.701 114.296C183.378 114.534 183.779 114.935 184.099 114.774Z" fill="#010614"/>
<path d="M177.609 135.206C177.294 135.45 177.689 136.008 178.009 135.767C181.75 133.753 186.094 130.412 188.509 129.037C189.034 128.717 189.543 128.369 190.031 127.995C190.112 127.916 190.16 127.81 190.168 127.698C190.175 127.585 190.141 127.474 190.072 127.385C190.003 127.296 189.903 127.235 189.792 127.215C189.682 127.194 189.567 127.215 189.471 127.274C189.265 127.365 180.556 132.949 177.609 135.206Z" fill="#010614"/>
<path d="M189.868 145.862C196.999 140.315 198.927 139.084 200.924 137.53C202.782 136.086 204.691 134.957 205.492 134.244C205.893 133.844 205.412 133.203 204.851 133.443C203.547 134.095 188.399 145.481 187.063 146.988C186.998 147.054 186.96 147.143 186.957 147.235C186.954 147.328 186.985 147.419 187.046 147.489C187.106 147.56 187.191 147.605 187.283 147.616C187.376 147.627 187.469 147.603 187.544 147.549C188.364 147.052 189.141 146.488 189.868 145.862Z" fill="#010614"/>
<path d="M225.522 89.4598C226.962 88.6387 226.964 87.5772 226.564 87.7798C226.015 87.8739 225.494 88.0931 225.043 88.4203C222.638 89.863 219.513 90.3439 217.191 88.4203C216.399 87.7397 215.769 86.8914 215.347 85.9371C215.267 85.6966 214.946 85.6966 214.946 86.0169C214.95 90.6421 221.657 92.2161 225.522 89.4598Z" fill="#010614"/>
<path d="M217.995 92.7406C218.758 93.2327 219.616 93.5585 220.514 93.6967C221.411 93.8349 222.327 93.7825 223.203 93.5428C224.725 93.2215 227.048 92.2608 227.928 90.8979C228.169 90.5776 227.767 90.1776 227.448 90.2574C226.695 90.5476 225.992 90.9532 225.364 91.4596C224.307 92.0753 223.128 92.4518 221.91 92.5624C220.691 92.6731 219.464 92.5153 218.313 92.1001C218.229 92.0635 218.134 92.0607 218.048 92.0922C217.962 92.1236 217.891 92.187 217.85 92.2692C217.809 92.3514 217.801 92.4462 217.828 92.5339C217.855 92.6216 217.915 92.6956 217.995 92.7406Z" fill="#010614"/>
<path d="M220.234 96.1056C223.216 97.3467 227.689 96.5067 229.289 93.5415C229.338 93.4357 229.348 93.3161 229.318 93.2035C229.287 93.0909 229.218 92.9926 229.123 92.9257C229.027 92.8588 228.911 92.8277 228.795 92.8378C228.679 92.8479 228.57 92.8985 228.487 92.9808C227.965 93.5038 227.403 93.9862 226.807 94.4235C225.867 95.0243 224.814 95.4266 223.712 95.6057C222.611 95.7848 221.485 95.737 220.402 95.4651C220.322 95.4549 220.241 95.4742 220.173 95.5196C220.106 95.565 220.058 95.6332 220.037 95.7116C220.017 95.79 220.025 95.8732 220.062 95.9457C220.098 96.0182 220.159 96.075 220.234 96.1056Z" fill="#010614"/>
<path d="M221.917 99.3911C224.722 100.512 228.327 99.0708 230.331 96.9876C230.651 96.6663 231.051 96.2663 230.891 95.7854C230.855 95.704 230.799 95.6324 230.73 95.5768C230.66 95.5211 230.578 95.4828 230.49 95.4651C229.539 95.3454 228.655 97.3457 226.644 97.9484C225.147 98.4411 223.573 98.6585 221.998 98.5899C221.915 98.6147 221.842 98.6635 221.787 98.7299C221.732 98.7964 221.698 98.8777 221.69 98.9635C221.681 99.0492 221.698 99.1356 221.738 99.2117C221.779 99.2879 221.841 99.3503 221.917 99.3911Z" fill="#010614"/>
<path d="M235.858 92.6606C236.173 93.1415 236.98 92.8212 236.74 92.2605C233.414 84.0474 224.183 84.6711 223.119 77.1972C223.099 77.1275 223.057 77.0661 222.999 77.0224C222.941 76.9787 222.871 76.9551 222.799 76.9551C222.726 76.9551 222.656 76.9787 222.598 77.0224C222.54 77.0661 222.498 77.1275 222.478 77.1972C222.358 77.8055 222.358 78.4316 222.478 79.04C223.053 80.939 224.233 82.5982 225.838 83.765C229.145 86.3858 232.834 87.5187 235.858 92.6606Z" fill="#010614"/>
<path d="M238.583 52.1979C238.824 52.1181 238.663 51.717 238.423 51.7978C237.289 51.9868 233.69 52.6777 233.215 53.7204C233.134 53.9608 233.134 54.3619 233.455 54.3619C235.336 54.3914 237.216 54.2303 239.064 53.881C239.212 53.8371 239.336 53.7368 239.41 53.602C239.484 53.4672 239.501 53.3087 239.459 53.1609C239.417 53.0131 239.318 52.8879 239.184 52.8126C239.05 52.7373 238.891 52.7179 238.743 52.7586C237.942 52.9192 237.141 53.0799 236.421 53.1597C237.163 52.8916 237.886 52.5702 238.583 52.1979Z" fill="#010614"/>
<path d="M126.33 88.7349C127.631 93.1365 132.18 96.4272 137.067 95.1452C146.041 92.8215 147.567 79.1201 137.628 77.0369C130.972 75.6834 124.329 81.9635 126.33 88.7349Z" fill="#0705CB"/>
<path d="M161.505 81.4432C161.745 81.2826 163.507 83.3658 164.149 84.1669C165.054 83.5332 165.99 82.9451 166.953 82.405C167.636 81.2042 168.022 79.8578 168.08 78.4777C168.138 77.0977 167.865 75.7237 167.285 74.47C166.706 73.2164 165.835 72.1191 164.746 71.2694C163.657 70.4197 162.381 69.8421 161.024 69.5845C158.609 69.1019 156.101 69.5418 153.995 70.8175C151.889 72.0932 150.337 74.1121 149.646 76.4757C149.129 78.4174 149.255 80.4746 150.006 82.3383C150.758 84.2021 152.093 85.7719 153.813 86.8119C156.296 84.9681 158.86 83.2062 161.505 81.4432Z" fill="#0705CB"/>
<path d="M140.432 111.009C139.172 112.269 138.273 112.619 138.989 113.812C141.891 119.88 167.086 155.484 175.05 162.448C175.069 162.476 175.094 162.499 175.124 162.516C175.153 162.532 175.185 162.542 175.219 162.545C175.252 162.548 175.286 162.543 175.317 162.532C175.349 162.52 175.378 162.501 175.401 162.477C175.425 162.453 175.443 162.424 175.454 162.393C175.465 162.361 175.469 162.327 175.465 162.294C175.462 162.26 175.451 162.228 175.434 162.199C175.416 162.17 175.393 162.146 175.365 162.127C163.37 148.26 145.325 122.526 140.351 114.135C138.986 111.811 144.517 108.686 146.12 107.323C156.763 98.6175 167.863 90.4859 179.372 82.9632C184.32 93.5976 193.479 107.585 197.319 112.769C197.72 113.33 198.684 112.849 198.28 112.208C193.602 104.664 186.167 95.1327 180.173 81.7578C180.138 81.6875 180.089 81.6251 180.029 81.5745C179.969 81.5239 179.9 81.4862 179.825 81.4636C179.749 81.4411 179.671 81.4342 179.593 81.4434C179.515 81.4527 179.44 81.4779 179.372 81.5174C165.575 90.7196 146.757 105.361 140.432 111.009Z" fill="#010614"/>
<path d="M171.359 83.4471C171.425 83.4014 171.472 83.3325 171.491 83.254C171.509 83.1755 171.497 83.093 171.458 83.0226C171.418 82.9523 171.354 82.8993 171.277 82.8739C171.201 82.8485 171.118 82.8526 171.044 82.8854C165.315 86.0712 159.752 89.5481 154.378 93.3024C153.737 93.7025 153.176 94.1834 152.615 94.5834C144.941 99.9106 137.992 106.213 131.943 113.333C131.871 113.422 131.825 113.529 131.811 113.642C131.797 113.755 131.815 113.87 131.863 113.974C138.688 128.995 158.084 150.118 165.673 154.837C165.834 154.917 166.074 154.677 165.914 154.516C161.864 150.316 159.371 148.666 151.652 140.174C145.158 132.948 136.904 122.576 132.823 113.733C147.215 96.8462 162.703 89.2169 171.359 83.4471Z" fill="#010614"/>
<path d="M159.341 153.074C159.656 153.234 160.061 153.314 160.302 153.474C160.323 153.485 160.346 153.491 160.37 153.493C160.393 153.494 160.417 153.491 160.439 153.484C160.461 153.476 160.482 153.465 160.5 153.449C160.518 153.434 160.532 153.415 160.543 153.394C160.553 153.373 160.56 153.35 160.561 153.326C160.563 153.303 160.56 153.279 160.553 153.257C160.545 153.234 160.533 153.214 160.518 153.196C160.502 153.178 160.484 153.163 160.463 153.153C160.151 152.966 159.856 152.752 159.582 152.513C157.133 150.855 154.779 149.063 152.53 147.144C141.098 137.766 124.472 118.516 123.766 117.097C125.003 115.248 146.138 94.6268 158.379 85.4488C158.62 85.2892 158.379 84.9689 158.139 85.1338C151.022 89.8168 145.571 94.6573 139.15 100.598C135.952 103.538 125.656 113.216 122.884 116.542C122.755 116.682 122.677 116.86 122.663 117.049C122.648 117.238 122.698 117.427 122.804 117.584C125.254 121.37 136.914 133.859 140.592 137.534C145.146 141.724 153.315 150.062 159.341 153.074Z" fill="#010614"/>
<path d="M216.468 137.529C216.546 137.58 216.639 137.602 216.731 137.593C216.824 137.583 216.91 137.542 216.976 137.477C217.042 137.411 217.083 137.325 217.093 137.233C217.103 137.14 217.08 137.047 217.03 136.969C216.953 136.823 208.87 127.378 208.777 127.274C208.616 127.113 208.376 127.354 208.462 127.514C209.632 129.866 214.414 136.356 216.468 137.529Z" fill="#010614"/>
<path d="M224.802 101.474C225.694 103.855 226.878 106.116 228.327 108.205C230.007 109.885 232.254 108.365 232.254 106.281C232.254 104.038 230.971 101.635 230.251 99.5518C230.225 99.4737 230.183 99.4021 230.126 99.3421C230.07 99.2821 230.001 99.2352 229.925 99.2046C229.849 99.174 229.767 99.1604 229.684 99.1649C229.602 99.1694 229.522 99.1918 229.45 99.2305C228.138 100.015 226.649 100.456 225.122 100.513C224.642 100.433 224.645 100.913 224.802 101.474Z" fill="#010614"/>
<rect x="28" y="-19" width="48" height="48" rx="24" fill="white"/>
<path d="M60.8247 12.045C59.6647 11.865 59.8127 12.758 61.5128 12.898C62.0858 12.945 62.2367 12.41 62.2017 11.96C61.9407 8.65001 61.2018 9.36001 61.2698 9.96001C61.3494 10.6459 61.3741 11.3371 61.3437 12.027C61.3277 12.156 60.9567 12.065 60.8247 12.045Z" fill="#0705CB"/>
<path d="M59.2621 13.9245C58.9621 13.6395 57.9621 13.7885 57.3231 12.2135C56.7901 10.8955 55.4411 12.4825 57.2331 13.9135C58.3671 14.8125 59.8051 14.4465 59.2621 13.9245Z" fill="#0705CB"/>
<path d="M66.2282 4.55873C66.1502 4.08173 65.6372 4.21973 65.6032 4.68573C65.5782 5.02473 65.4492 5.80373 65.8422 5.87773C66.2352 5.95173 66.3002 4.98773 66.2282 4.55873Z" fill="#0705CB"/>
<path d="M53.2538 15.0167C54.5467 16.7067 57.9418 19.4507 60.2048 18.9787C62.7778 18.4427 64.5877 14.0957 64.8507 11.7787C64.9157 11.2007 64.3938 11.2477 64.2788 11.7357C63.8068 13.7357 62.1577 17.5567 60.1197 18.0187C57.9567 18.5097 55.3518 15.7457 53.8198 14.4747C53.744 14.4223 53.6524 14.3977 53.5606 14.405C53.4688 14.4124 53.3823 14.4511 53.3157 14.5149C53.2492 14.5786 53.2067 14.6633 53.1954 14.7547C53.1841 14.8462 53.2047 14.9387 53.2538 15.0167Z" fill="#0705CB"/>
<path d="M64.5858 5.83161C65.2378 6.13861 65.3698 5.55561 64.9088 5.16361C64.6919 5.00064 64.4422 4.88687 64.1769 4.83023C63.9117 4.77358 63.6373 4.77542 63.3728 4.83561C63.2777 4.85526 63.1927 4.90818 63.1332 4.98484C63.0736 5.06151 63.0433 5.15691 63.0478 5.2539C63.0523 5.35088 63.0911 5.4431 63.1575 5.51398C63.2238 5.58486 63.3133 5.62976 63.4098 5.64061C63.8077 5.6601 64.2021 5.72417 64.5858 5.83161Z" fill="#0705CB"/>
<path d="M59.7172 5.03652C60.4372 5.23052 60.7772 4.42052 60.1362 4.09852C59.7232 3.89152 57.5662 3.95452 57.7632 4.76652C57.8772 5.23752 59.1552 4.88552 59.7172 5.03652Z" fill="#0705CB"/>
<path d="M39.7139 15.7265C39.2479 18.5175 40.6719 18.1675 42.1449 15.0635C46.2119 6.49947 41.9999 -0.700541 48.9309 -3.59454C49.5612 -5.01982 50.6067 -6.22183 51.9309 -7.04354C48.1699 -13.4005 39.2489 -14.2905 36.6789 -6.38054C33.8179 2.41846 41.3189 6.10546 39.7139 15.7265Z" fill="#0705CB"/>
<path d="M48.9419 8.47411C48.8713 9.18216 49.0284 9.89429 49.3905 10.5069C49.7525 11.1194 50.3006 11.6005 50.9549 11.8801C50.7339 15.1943 50.1784 18.4777 49.2969 21.6801C49.1279 22.3051 50.0569 22.6391 50.2559 22.0141C50.9299 19.8971 52.0989 14.3691 51.9089 12.0141C53.4979 12.0141 52.8829 10.8271 52.3429 10.8751C52.0148 10.9304 51.6781 10.9042 51.3625 10.7988C51.0469 10.6934 50.762 10.5122 50.5329 10.2709C50.3038 10.0296 50.1374 9.73575 50.0485 9.41512C49.9596 9.0945 49.9508 8.75693 50.0229 8.43211C50.1829 7.12411 51.4749 6.31311 52.4009 7.37311C52.6559 7.66411 53.1379 7.28811 53.4239 7.06611C52.8939 6.00611 51.3109 2.90311 53.8239 3.28811C54.5695 3.4093 55.3049 3.58647 56.0239 3.81811C56.3265 3.24145 56.5614 2.63173 56.7239 2.00111C59.9769 3.65411 65.5809 4.23011 66.5669 3.23011C68.1459 1.63011 67.5559 -5.4699 58.1329 -6.9099C50.2219 -8.1279 45.4459 1.23811 48.9419 8.47411Z" fill="#0705CB"/>
<path d="M60.3799 7.1921C59.3875 6.11078 58.0968 5.34797 56.6709 5.0001C53.0779 3.7001 52.9159 3.9771 54.2289 6.7061C55.0239 8.3581 56.4489 10.7581 58.4199 10.9441C58.7919 10.9995 59.172 10.9579 59.5233 10.8233C59.8745 10.6886 60.1851 10.4655 60.4248 10.1756C60.6645 9.88574 60.8252 9.53884 60.8915 9.16855C60.9577 8.79825 60.9272 8.41712 60.8029 8.06209C61.2626 7.92227 61.7563 7.94273 62.2029 8.1201C61.2389 10.5461 64.7689 13.8681 68.7509 7.06109C69.1259 6.41909 68.8729 6.2411 68.4759 6.1551C67.2669 5.8931 64.0199 6.04909 62.7909 7.21409C62.4139 7.03828 62.0037 6.94534 61.5878 6.94155C61.1719 6.93775 60.76 7.02319 60.3799 7.1921ZM57.0369 7.8971C56.3759 7.4971 57.6729 5.94609 58.1859 6.47709C58.5559 6.85909 57.5359 8.2001 57.0369 7.9001V7.8971ZM59.1559 8.1881C58.8571 8.73026 58.443 9.20029 57.9429 9.5651C57.8689 9.60416 57.7843 9.61852 57.7016 9.60606C57.6188 9.59361 57.5422 9.55499 57.483 9.49587C57.4237 9.43675 57.385 9.36023 57.3724 9.2775C57.3598 9.19477 57.374 9.11018 57.4129 9.0361C57.6928 8.49953 58.0851 8.02954 58.5629 7.65809C59.0609 7.34009 59.4209 7.7211 59.1559 8.1881ZM66.1699 8.0981C65.8306 8.81249 65.393 9.47592 64.8699 10.0691C64.4779 10.4691 63.9049 10.2281 64.2289 9.61809C64.5814 8.92313 65.0075 8.26804 65.4999 7.6641C65.9099 7.1831 66.4489 7.5001 66.1699 8.1001V8.0981ZM64.7179 7.0861C65.1789 7.6161 64.1179 8.8711 63.6059 8.4691C63.0939 8.0671 64.2999 6.6251 64.7179 7.1071V7.0861Z" fill="#0705CB"/>
<rect x="64" y="13" width="16" height="16" rx="8" fill="#0705CB"/>
<path d="M24.799 39.7273H25.8857V45.0682H25.9531L29.6534 39.7273H30.669V47H29.5717V41.6662H29.5043L25.8111 47H24.799V39.7273ZM37.9551 39.7273V47H36.8613V40.6648H33.438V47H32.3443V39.7273H37.9551ZM42.2795 39.7273H43.3661V45.0682H43.4336L47.1339 39.7273H48.1495V47H47.0522V41.6662H46.9847L43.2915 47H42.2795V39.7273ZM49.665 47V41.5455H51.927C52.5426 41.5455 53.0302 41.6768 53.3901 41.9396C53.7499 42.2 53.9299 42.554 53.9299 43.0014C53.9299 43.321 53.8281 43.5743 53.6245 43.7614C53.4209 43.9484 53.151 44.0739 52.8148 44.1378C53.0587 44.1662 53.2824 44.2396 53.486 44.358C53.6896 44.474 53.8529 44.6302 53.976 44.8267C54.1015 45.0232 54.1642 45.2576 54.1642 45.5298C54.1642 45.8187 54.0897 46.0743 53.9405 46.2969C53.7914 46.517 53.5748 46.6899 53.2907 46.8153C53.0089 46.9384 52.6692 47 52.2715 47H49.665ZM50.6628 46.1122H52.2715C52.5343 46.1122 52.7402 46.0495 52.8894 45.924C53.0385 45.7985 53.1131 45.6281 53.1131 45.4126C53.1131 45.1593 53.0385 44.9605 52.8894 44.8161C52.7402 44.6693 52.5343 44.5959 52.2715 44.5959H50.6628V46.1122ZM50.6628 43.8182H51.9377C52.1365 43.8182 52.307 43.7898 52.449 43.733C52.5935 43.6761 52.7035 43.5956 52.7793 43.4915C52.8574 43.3849 52.8965 43.2595 52.8965 43.1151C52.8965 42.9044 52.8101 42.7398 52.6373 42.6214C52.4644 42.5031 52.2277 42.4439 51.927 42.4439H50.6628V43.8182ZM56.9164 47.1207C56.5707 47.1207 56.2582 47.0568 55.9789 46.929C55.6995 46.7988 55.4782 46.6106 55.3148 46.3643C55.1538 46.1181 55.0733 45.8163 55.0733 45.4588C55.0733 45.151 55.1325 44.8977 55.2509 44.6989C55.3693 44.5 55.5291 44.3426 55.7303 44.2266C55.9315 44.1106 56.1564 44.023 56.405 43.9638C56.6536 43.9046 56.9069 43.8596 57.165 43.8288C57.4917 43.791 57.7568 43.7602 57.9604 43.7365C58.164 43.7105 58.312 43.669 58.4043 43.6122C58.4966 43.5554 58.5428 43.4631 58.5428 43.3352V43.3104C58.5428 43.0002 58.4552 42.7599 58.28 42.5895C58.1072 42.419 57.8491 42.3338 57.5059 42.3338C57.1484 42.3338 56.8667 42.4131 56.6607 42.5717C56.4571 42.728 56.3162 42.902 56.2381 43.0938L55.2402 42.8665C55.3586 42.535 55.5314 42.2675 55.7587 42.0639C55.9883 41.858 56.2523 41.7088 56.5506 41.6165C56.8489 41.5218 57.1626 41.4744 57.4917 41.4744C57.7095 41.4744 57.9403 41.5005 58.1841 41.5526C58.4303 41.6023 58.66 41.6946 58.873 41.8295C59.0885 41.9645 59.2649 42.1574 59.4022 42.4084C59.5395 42.657 59.6081 42.9801 59.6081 43.3778V47H58.5712V46.2543H58.5286C58.4599 46.3916 58.3569 46.5265 58.2196 46.6591C58.0823 46.7917 57.906 46.9018 57.6905 46.9893C57.4751 47.0769 57.217 47.1207 56.9164 47.1207ZM57.1472 46.2685C57.4408 46.2685 57.6917 46.2105 57.9 46.0945C58.1107 45.9785 58.2705 45.8269 58.3794 45.6399C58.4907 45.4505 58.5463 45.2481 58.5463 45.0327V44.3295C58.5085 44.3674 58.4351 44.4029 58.3262 44.4361C58.2196 44.4669 58.0977 44.4941 57.9604 44.5178C57.8231 44.5391 57.6893 44.5592 57.5591 44.5781C57.4289 44.5947 57.32 44.6089 57.2324 44.6207C57.0265 44.6468 56.8382 44.6906 56.6678 44.7521C56.4997 44.8137 56.3648 44.9025 56.263 45.0185C56.1635 45.1321 56.1138 45.2836 56.1138 45.473C56.1138 45.7358 56.2109 45.9347 56.405 46.0696C56.5991 46.2022 56.8465 46.2685 57.1472 46.2685ZM64.7191 43.8146V44.7344H61.7646V43.8146H64.7191ZM62.0629 41.5455V47H61.0224V41.5455H62.0629ZM65.4613 41.5455V47H64.4244V41.5455H65.4613ZM69.1793 47.1101C68.668 47.1101 68.2217 46.9929 67.8406 46.7585C67.4594 46.5241 67.1635 46.1963 66.9528 45.7749C66.7421 45.3535 66.6367 44.861 66.6367 44.2976C66.6367 43.7318 66.7421 43.237 66.9528 42.8132C67.1635 42.3894 67.4594 42.0604 67.8406 41.826C68.2217 41.5916 68.668 41.4744 69.1793 41.4744C69.6907 41.4744 70.137 41.5916 70.5181 41.826C70.8993 42.0604 71.1952 42.3894 71.4059 42.8132C71.6166 43.237 71.7219 43.7318 71.7219 44.2976C71.7219 44.861 71.6166 45.3535 71.4059 45.7749C71.1952 46.1963 70.8993 46.5241 70.5181 46.7585C70.137 46.9929 69.6907 47.1101 69.1793 47.1101ZM69.1829 46.2188C69.5143 46.2188 69.7889 46.1312 70.0067 45.956C70.2246 45.7808 70.3855 45.5476 70.4897 45.2564C70.5962 44.9652 70.6495 44.6444 70.6495 44.294C70.6495 43.946 70.5962 43.6264 70.4897 43.3352C70.3855 43.0417 70.2246 42.8061 70.0067 42.6286C69.7889 42.451 69.5143 42.3622 69.1829 42.3622C68.8491 42.3622 68.5721 42.451 68.3519 42.6286C68.1341 42.8061 67.9719 43.0417 67.8654 43.3352C67.7612 43.6264 67.7092 43.946 67.7092 44.294C67.7092 44.6444 67.7612 44.9652 67.8654 45.2564C67.9719 45.5476 68.1341 45.7808 68.3519 45.956C68.5721 46.1312 68.8491 46.2188 69.1829 46.2188ZM72.9071 47V41.5455H75.1692C75.7847 41.5455 76.2724 41.6768 76.6323 41.9396C76.9921 42.2 77.1721 42.554 77.1721 43.0014C77.1721 43.321 77.0703 43.5743 76.8667 43.7614C76.6631 43.9484 76.3932 44.0739 76.057 44.1378C76.3008 44.1662 76.5246 44.2396 76.7282 44.358C76.9318 44.474 77.0951 44.6302 77.2182 44.8267C77.3437 45.0232 77.4064 45.2576 77.4064 45.5298C77.4064 45.8187 77.3319 46.0743 77.1827 46.2969C77.0336 46.517 76.8169 46.6899 76.5328 46.8153C76.2511 46.9384 75.9114 47 75.5137 47H72.9071ZM73.905 46.1122H75.5137C75.7765 46.1122 75.9824 46.0495 76.1316 45.924C76.2807 45.7985 76.3553 45.6281 76.3553 45.4126C76.3553 45.1593 76.2807 44.9605 76.1316 44.8161C75.9824 44.6693 75.7765 44.5959 75.5137 44.5959H73.905V46.1122ZM73.905 43.8182H75.1799C75.3787 43.8182 75.5492 43.7898 75.6912 43.733C75.8356 43.6761 75.9457 43.5956 76.0215 43.4915C76.0996 43.3849 76.1387 43.2595 76.1387 43.1151C76.1387 42.9044 76.0523 42.7398 75.8794 42.6214C75.7066 42.5031 75.4699 42.4439 75.1692 42.4439H73.905V43.8182ZM80.1586 47.1207C79.8129 47.1207 79.5004 47.0568 79.2211 46.929C78.9417 46.7988 78.7203 46.6106 78.557 46.3643C78.396 46.1181 78.3155 45.8163 78.3155 45.4588C78.3155 45.151 78.3747 44.8977 78.4931 44.6989C78.6114 44.5 78.7712 44.3426 78.9725 44.2266C79.1737 44.1106 79.3986 44.023 79.6472 43.9638C79.8958 43.9046 80.1491 43.8596 80.4071 43.8288C80.7338 43.791 80.999 43.7602 81.2026 43.7365C81.4062 43.7105 81.5542 43.669 81.6465 43.6122C81.7388 43.5554 81.785 43.4631 81.785 43.3352V43.3104C81.785 43.0002 81.6974 42.7599 81.5222 42.5895C81.3494 42.419 81.0913 42.3338 80.748 42.3338C80.3906 42.3338 80.1088 42.4131 79.9029 42.5717C79.6993 42.728 79.5584 42.902 79.4803 43.0938L78.4824 42.8665C78.6008 42.535 78.7736 42.2675 79.0009 42.0639C79.2305 41.858 79.4945 41.7088 79.7928 41.6165C80.0911 41.5218 80.4048 41.4744 80.7338 41.4744C80.9516 41.4744 81.1825 41.5005 81.4263 41.5526C81.6725 41.6023 81.9022 41.6946 82.1152 41.8295C82.3307 41.9645 82.507 42.1574 82.6444 42.4084C82.7817 42.657 82.8503 42.9801 82.8503 43.3778V47H81.8134V46.2543H81.7708C81.7021 46.3916 81.5991 46.5265 81.4618 46.6591C81.3245 46.7917 81.1481 46.9018 80.9327 46.9893C80.7173 47.0769 80.4592 47.1207 80.1586 47.1207ZM80.3894 46.2685C80.6829 46.2685 80.9339 46.2105 81.1422 46.0945C81.3529 45.9785 81.5127 45.8269 81.6216 45.6399C81.7329 45.4505 81.7885 45.2481 81.7885 45.0327V44.3295C81.7507 44.3674 81.6773 44.4029 81.5684 44.4361C81.4618 44.4669 81.3399 44.4941 81.2026 44.5178C81.0653 44.5391 80.9315 44.5592 80.8013 44.5781C80.6711 44.5947 80.5622 44.6089 80.4746 44.6207C80.2686 44.6468 80.0804 44.6906 79.91 44.7521C79.7419 44.8137 79.6069 44.9025 79.5051 45.0185C79.4057 45.1321 79.356 45.2836 79.356 45.473C79.356 45.7358 79.4531 45.9347 79.6472 46.0696C79.8413 46.2022 80.0887 46.2685 80.3894 46.2685Z" fill="#807974"/>
<rect x="5" y="70" width="48" height="48" rx="24" fill="white"/>
<path d="M23.1072 88.5604C23.6606 88.1272 24.3378 87.882 25.0402 87.8604C26.0402 87.7604 25.8672 87.0754 25.6402 86.9174C25.0072 86.4694 23.0752 87.1074 22.6312 87.9174C22.3002 88.5174 22.8062 88.7994 23.1072 88.5604Z" fill="#0705CB"/>
<path d="M32.9999 87.6086C33.8172 87.4447 34.6649 87.5314 35.4319 87.8576C35.512 87.8951 35.6036 87.8995 35.6869 87.87C35.7702 87.8404 35.8385 87.7792 35.8769 87.6996C36.1889 87.0466 34.1859 86.1416 32.6979 86.5806C31.8079 86.8426 31.7199 87.8346 32.9999 87.6086Z" fill="#0705CB"/>
<path d="M27.9058 99.4803C29.5248 103.031 35.1908 101.159 33.8708 96.7623C33.6908 96.3333 33.1488 96.4953 33.0078 96.6193C31.8727 97.6349 30.4281 98.2377 28.9078 98.3303C28.0808 98.4253 27.4668 98.5153 27.9058 99.4803ZM33.1618 97.5733C33.2684 98.1272 33.1737 98.701 32.8949 99.1913C32.616 99.6817 32.1713 100.056 31.6408 100.248C31.1102 100.44 30.5287 100.435 30.0009 100.236C29.4731 100.037 29.0337 99.6565 28.7618 99.1623C30.365 99.1404 31.9145 98.5808 33.1618 97.5733Z" fill="#0705CB"/>
<path d="M30.4121 96.1626C30.6451 95.9086 30.4811 95.4006 29.9411 95.6706C29.4647 95.8441 28.9504 95.8862 28.4521 95.7926C27.6581 95.6446 27.8731 96.3126 28.4521 96.5336C28.7805 96.6629 29.1388 96.6966 29.4856 96.631C29.8324 96.5653 30.1536 96.403 30.4121 96.1626Z" fill="#0705CB"/>
<path d="M37.6909 92.1478C37.6212 92.2117 37.5764 92.2982 37.5645 92.392C37.5525 92.4857 37.5742 92.5807 37.6256 92.6601C37.677 92.7394 37.7549 92.798 37.8453 92.8254C37.9358 92.8528 38.0331 92.8472 38.1199 92.8097C38.2518 92.7465 38.3954 92.7113 38.5417 92.7063C38.6879 92.7014 38.8336 92.7269 38.9695 92.7811C39.1054 92.8353 39.2285 92.9171 39.3312 93.0214C39.4338 93.1256 39.5138 93.25 39.5659 93.3867C40.0959 94.4997 39.2659 97.3557 38.7719 97.8747C38.1309 98.5477 37.3259 97.9957 37.1819 97.9587C37.2664 97.2447 37.3125 96.5267 37.3199 95.8077C37.3259 95.3077 36.6759 95.2078 36.6529 95.7178C36.5189 98.7118 35.8139 102.146 32.9809 103.776C31.7172 104.37 30.3188 104.621 28.9273 104.502C27.5357 104.383 26.2003 103.898 25.0559 103.098C22.9369 101.318 23.0019 98.3318 22.4069 96.8978C22.2689 96.5638 21.8399 96.6587 21.8139 97.0297C21.7768 97.6358 21.8393 98.2439 21.9989 98.8298C21.457 98.9545 20.8882 98.8762 20.4002 98.6097C19.9122 98.3432 19.5389 97.907 19.3509 97.3838C18.9579 96.4838 18.7359 93.8917 19.6309 93.8077C20.0309 93.7707 20.1609 93.1617 19.7159 93.0717C17.4379 92.6077 17.3679 97.9627 19.9489 99.4917C20.291 99.6972 20.6715 99.8305 21.0671 99.8835C21.4626 99.9365 21.8648 99.908 22.2489 99.7998C22.5593 101.291 23.2957 102.66 24.3689 103.741L23.8149 107.905L23.2609 112.069C23.2365 112.174 23.2539 112.284 23.3094 112.376C23.3649 112.468 23.4541 112.535 23.5581 112.563C23.6621 112.59 23.7728 112.576 23.8666 112.524C23.9605 112.471 24.0302 112.384 24.0609 112.281C24.6689 109.713 25.1032 107.107 25.3609 104.481C26.5901 105.133 27.9546 105.49 29.3459 105.523C30.7373 105.556 32.1171 105.264 33.3759 104.671C34.3357 104.041 35.1527 103.216 35.7741 102.251C36.3956 101.285 36.8077 100.2 36.9839 99.0658C38.3559 99.6808 39.5839 98.9927 40.1149 97.4767C41.9339 92.2367 38.9279 91.0638 37.6909 92.1478Z" fill="#0705CB"/>
<path d="M20.336 90.092C21.0944 89.4574 21.6685 88.6307 21.9983 87.6984C22.3281 86.7662 22.4015 85.7624 22.211 84.792C22.5821 85.1474 23.0267 85.417 23.5134 85.5819C24.0001 85.7467 24.517 85.8028 25.0277 85.7462C25.5384 85.6896 26.0305 85.5216 26.4692 85.2541C26.908 84.9866 27.2827 84.6261 27.567 84.198C28.304 86.407 33.667 86.879 35.461 84.267C35.6853 85.9098 36.4535 87.43 37.643 88.585C39.376 87.827 41.06 83.992 37.495 82.636C39.614 80.718 36.134 75.971 33.352 78.546C31.922 73.926 23.87 74.758 24.495 79.746C21.316 77.098 16.718 80.975 19.727 83.984C17.221 83.968 16.792 88.884 20.336 90.092Z" fill="#0705CB"/>
<path d="M21.74 91.2792C21.24 91.2792 20.299 91.1862 19.87 91.1842C19.086 91.1842 19.187 92.0682 19.833 92.1482C20.278 92.2022 20.924 92.2382 21.369 92.2862C21.2076 93.1806 21.4079 94.1025 21.9261 94.8492C22.4442 95.5959 23.2376 96.1063 24.132 96.2682C24.7835 96.401 25.4592 96.3477 26.0818 96.1144C26.7044 95.881 27.2487 95.477 27.6524 94.9486C28.056 94.4203 28.3027 93.7889 28.3642 93.1269C28.4257 92.4648 28.2994 91.7988 28 91.2052C28.3107 90.9975 28.6722 90.8784 29.0456 90.8608C29.4189 90.8432 29.79 90.9277 30.119 91.1052C29.276 93.5902 31.263 95.4192 33.679 95.2642C35.326 95.1592 37.223 94.2642 36.857 91.3812C37.321 91.3797 37.7846 91.3497 38.245 91.2912C38.3702 91.2743 38.4842 91.2097 38.5629 91.1108C38.6416 91.0119 38.6791 90.8864 38.6675 90.7605C38.6559 90.6346 38.5961 90.5181 38.5006 90.4353C38.405 90.3525 38.2812 90.3098 38.155 90.3162C37.625 90.3162 37.133 90.3902 36.619 90.4272C35.649 88.1712 32.211 87.9432 30.58 90.2422C30.1104 89.9923 29.5816 89.8751 29.0504 89.9031C28.5192 89.9311 28.0057 90.1033 27.565 90.4012C26.073 88.4502 22.937 89.0592 21.74 91.2792ZM34.4 92.5662C34.184 93.1552 33.564 94.7342 32.927 94.3362C32.394 94.0022 33.298 92.6262 33.605 92.2172C34.127 91.5162 34.588 92.0422 34.4 92.5662ZM32.033 91.5002C32.266 91.0712 32.833 89.8822 33.257 89.7422C33.496 89.6642 34.057 89.8002 33.495 90.8422C33.2106 91.4864 32.8343 92.0859 32.378 92.6222C32.215 92.7002 31.333 92.7932 32.033 91.5002ZM26.418 93.0582C26.2609 93.5665 25.9869 94.0309 25.618 94.4142C25.173 94.9442 24.659 94.6472 24.855 94.0542C25.0903 93.5015 25.4101 92.9887 25.803 92.5342C25.927 92.3882 26.643 92.2992 26.418 93.0582ZM23.318 92.9842C23.6556 92.1047 24.1409 91.2893 24.753 90.5732C25.053 90.4372 25.653 90.6792 25.177 91.4582C24.807 92.158 24.4022 92.8389 23.964 93.4982C23.578 93.9702 23 93.7002 23.319 92.9852L23.318 92.9842Z" fill="#0705CB"/>
<rect x="41" y="102" width="16" height="16" rx="8" fill="#0705CB"/>
<path d="M0.799006 128.727H1.88565V134.068H1.95312L5.65341 128.727H6.66903V136H5.57173V130.666H5.50426L1.81108 136H0.799006V128.727ZM13.9551 128.727V136H12.8613V129.665H9.43803V136H8.34428V128.727H13.9551ZM24.32 131.092H23.212C23.1694 130.856 23.0901 130.647 22.9741 130.467C22.8581 130.287 22.716 130.135 22.5479 130.009C22.3799 129.884 22.1916 129.789 21.9833 129.725C21.7773 129.661 21.5584 129.629 21.3263 129.629C20.9073 129.629 20.5321 129.735 20.2006 129.945C19.8716 130.156 19.6112 130.465 19.4194 130.872C19.23 131.279 19.1353 131.777 19.1353 132.364C19.1353 132.955 19.23 133.455 19.4194 133.862C19.6112 134.269 19.8728 134.577 20.2042 134.786C20.5356 134.994 20.9085 135.098 21.3228 135.098C21.5524 135.098 21.7702 135.067 21.9762 135.006C22.1845 134.942 22.3728 134.848 22.5408 134.725C22.7089 134.602 22.851 134.452 22.967 134.274C23.0853 134.094 23.167 133.888 23.212 133.656L24.32 133.66C24.2608 134.017 24.146 134.346 23.9755 134.647C23.8074 134.945 23.5908 135.203 23.3256 135.421C23.0629 135.637 22.7622 135.804 22.4237 135.922C22.0851 136.04 21.7158 136.099 21.3157 136.099C20.686 136.099 20.1249 135.95 19.6325 135.652C19.14 135.351 18.7518 134.922 18.4677 134.363C18.186 133.804 18.0451 133.138 18.0451 132.364C18.0451 131.587 18.1871 130.921 18.4712 130.364C18.7553 129.806 19.1436 129.377 19.636 129.079C20.1284 128.778 20.6883 128.628 21.3157 128.628C21.7016 128.628 22.0614 128.683 22.3952 128.795C22.7314 128.904 23.0333 129.065 23.3008 129.278C23.5683 129.488 23.7897 129.746 23.9648 130.052C24.14 130.355 24.2584 130.702 24.32 131.092ZM26.5882 134.512L28.9924 130.545H30.1358V136H29.0953V132.03L26.7019 136H25.5478V130.545H26.5882V134.512ZM31.0307 137.573V135.08H31.4746C31.5882 134.976 31.6841 134.852 31.7623 134.707C31.8427 134.563 31.9102 134.391 31.9647 134.192C32.0215 133.994 32.0688 133.762 32.1067 133.496C32.1446 133.229 32.1777 132.924 32.2061 132.58L32.3766 130.545H36.084V135.08H36.9221V137.573H35.8851V136H32.0819V137.573H31.0307ZM32.611 135.08H35.0471V131.455H33.3283L33.2147 132.58C33.1602 133.153 33.0916 133.65 33.0087 134.072C32.9258 134.491 32.7933 134.827 32.611 135.08ZM40.2575 136.11C39.7461 136.11 39.2998 135.993 38.9187 135.759C38.5375 135.524 38.2416 135.196 38.0309 134.775C37.8202 134.353 37.7148 133.861 37.7148 133.298C37.7148 132.732 37.8202 132.237 38.0309 131.813C38.2416 131.389 38.5375 131.06 38.9187 130.826C39.2998 130.592 39.7461 130.474 40.2575 130.474C40.7688 130.474 41.2151 130.592 41.5962 130.826C41.9774 131.06 42.2733 131.389 42.484 131.813C42.6947 132.237 42.8001 132.732 42.8001 133.298C42.8001 133.861 42.6947 134.353 42.484 134.775C42.2733 135.196 41.9774 135.524 41.5962 135.759C41.2151 135.993 40.7688 136.11 40.2575 136.11ZM40.261 135.219C40.5924 135.219 40.8671 135.131 41.0849 134.956C41.3027 134.781 41.4637 134.548 41.5678 134.256C41.6744 133.965 41.7276 133.644 41.7276 133.294C41.7276 132.946 41.6744 132.626 41.5678 132.335C41.4637 132.042 41.3027 131.806 41.0849 131.629C40.8671 131.451 40.5924 131.362 40.261 131.362C39.9272 131.362 39.6502 131.451 39.43 131.629C39.2122 131.806 39.0501 132.042 38.9435 132.335C38.8394 132.626 38.7873 132.946 38.7873 133.294C38.7873 133.644 38.8394 133.965 38.9435 134.256C39.0501 134.548 39.2122 134.781 39.43 134.956C39.6502 135.131 39.9272 135.219 40.261 135.219ZM43.9853 138.045V130.545H45.0222V131.43H45.111C45.1725 131.316 45.2613 131.185 45.3773 131.036C45.4933 130.886 45.6543 130.756 45.8603 130.645C46.0662 130.531 46.3385 130.474 46.677 130.474C47.1174 130.474 47.5104 130.586 47.856 130.808C48.2016 131.031 48.4727 131.352 48.6692 131.771C48.8681 132.19 48.9675 132.694 48.9675 133.283C48.9675 133.873 48.8693 134.378 48.6728 134.8C48.4763 135.219 48.2064 135.542 47.8631 135.769C47.5198 135.994 47.128 136.107 46.6877 136.107C46.3562 136.107 46.0852 136.051 45.8745 135.94C45.6661 135.828 45.5028 135.698 45.3844 135.549C45.266 135.4 45.1749 135.267 45.111 135.151H45.0471V138.045H43.9853ZM45.0257 133.273C45.0257 133.656 45.0814 133.992 45.1926 134.281C45.3039 134.57 45.4649 134.796 45.6756 134.96C45.8863 135.121 46.1444 135.201 46.4498 135.201C46.767 135.201 47.0321 135.117 47.2452 134.949C47.4583 134.778 47.6193 134.548 47.7282 134.256C47.8394 133.965 47.8951 133.637 47.8951 133.273C47.8951 132.913 47.8406 132.59 47.7317 132.303C47.6252 132.017 47.4642 131.791 47.2488 131.625C47.0357 131.459 46.7694 131.376 46.4498 131.376C46.142 131.376 45.8816 131.456 45.6685 131.614C45.4578 131.773 45.298 131.994 45.1891 132.278C45.0802 132.562 45.0257 132.894 45.0257 133.273ZM52.4547 136.11C51.9434 136.11 51.4971 135.993 51.1159 135.759C50.7348 135.524 50.4389 135.196 50.2282 134.775C50.0175 134.353 49.9121 133.861 49.9121 133.298C49.9121 132.732 50.0175 132.237 50.2282 131.813C50.4389 131.389 50.7348 131.06 51.1159 130.826C51.4971 130.592 51.9434 130.474 52.4547 130.474C52.9661 130.474 53.4123 130.592 53.7935 130.826C54.1747 131.06 54.4706 131.389 54.6813 131.813C54.892 132.237 54.9973 132.732 54.9973 133.298C54.9973 133.861 54.892 134.353 54.6813 134.775C54.4706 135.196 54.1747 135.524 53.7935 135.759C53.4123 135.993 52.9661 136.11 52.4547 136.11ZM52.4583 135.219C52.7897 135.219 53.0643 135.131 53.2821 134.956C53.4999 134.781 53.6609 134.548 53.7651 134.256C53.8716 133.965 53.9249 133.644 53.9249 133.294C53.9249 132.946 53.8716 132.626 53.7651 132.335C53.6609 132.042 53.4999 131.806 53.2821 131.629C53.0643 131.451 52.7897 131.362 52.4583 131.362C52.1245 131.362 51.8475 131.451 51.6273 131.629C51.4095 131.806 51.2473 132.042 51.1408 132.335C51.0366 132.626 50.9846 132.946 50.9846 133.294C50.9846 133.644 51.0366 133.965 51.1408 134.256C51.2473 134.548 51.4095 134.781 51.6273 134.956C51.8475 135.131 52.1245 135.219 52.4583 135.219ZM56.1825 136V130.545H58.4446C59.0601 130.545 59.5478 130.677 59.9077 130.94C60.2675 131.2 60.4474 131.554 60.4474 132.001C60.4474 132.321 60.3456 132.574 60.142 132.761C59.9384 132.948 59.6686 133.074 59.3324 133.138C59.5762 133.166 59.8 133.24 60.0036 133.358C60.2071 133.474 60.3705 133.63 60.4936 133.827C60.6191 134.023 60.6818 134.258 60.6818 134.53C60.6818 134.819 60.6072 135.074 60.4581 135.297C60.3089 135.517 60.0923 135.69 59.8082 135.815C59.5265 135.938 59.1868 136 58.7891 136H56.1825ZM57.1804 135.112H58.7891C59.0518 135.112 59.2578 135.049 59.407 134.924C59.5561 134.799 59.6307 134.628 59.6307 134.413C59.6307 134.159 59.5561 133.96 59.407 133.816C59.2578 133.669 59.0518 133.596 58.7891 133.596H57.1804V135.112ZM57.1804 132.818H58.4553C58.6541 132.818 58.8246 132.79 58.9666 132.733C59.111 132.676 59.2211 132.596 59.2969 132.491C59.375 132.385 59.4141 132.259 59.4141 132.115C59.4141 131.904 59.3277 131.74 59.1548 131.621C58.982 131.503 58.7453 131.444 58.4446 131.444H57.1804V132.818Z" fill="#807974"/>
<rect x="31" y="159" width="48" height="48" rx="24" fill="white"/>
<path d="M52.436 186.568C52.271 186.15 51.17 186.875 50.847 186.706C50.524 186.537 50.76 183.257 50.317 183.437C49.785 183.654 49.587 186.837 50.206 187.363C50.743 187.823 52.683 187.189 52.436 186.568Z" fill="#0705CB"/>
<path d="M53.1832 189.116C55.6102 188.475 56.3652 187.68 56.1832 186.468C56.0832 185.789 55.2772 185.498 55.2672 186.668C55.2592 187.574 54.1072 187.95 52.9252 188.437C52.5002 188.645 52.3832 189.328 53.1832 189.116Z" fill="#0705CB"/>
<path d="M58.3269 191.866C58.6339 191.58 58.2319 191.035 57.8609 191.198C56.2199 191.922 53.8669 194.014 51.3609 193.487C50.2759 193.258 49.7699 192.195 49.4169 191.257C48.9703 190.049 48.6163 188.809 48.3579 187.548C48.2659 187.113 47.5689 187.283 47.6049 187.712C47.7869 189.831 48.5499 193.812 50.9219 194.488C52.8309 195.028 55.0029 194.052 56.6379 193.088C57.2434 192.743 57.8098 192.333 58.3269 191.866Z" fill="#0705CB"/>
<path d="M46.7998 180.163C46.7888 179.602 46.7998 178.108 46.2328 178.118C45.5598 178.131 45.9728 180.439 46.0628 180.879C46.1528 181.319 46.8288 181.637 46.7998 180.163Z" fill="#0705CB"/>
<path d="M54.2748 178.357C54.9898 178.357 54.8038 177.786 54.3968 177.626C53.7968 177.39 51.9538 177.276 51.9968 178.076C52.0478 179.025 53.4588 178.362 54.2748 178.357Z" fill="#0705CB"/>
<path d="M47.7479 180.259C48.4539 179.784 49.1579 179.729 48.9239 179.077C48.6539 178.325 47.3109 179.29 47.0699 179.84C46.9069 180.212 47.1769 180.642 47.7479 180.259Z" fill="#0705CB"/>
<path d="M56.7428 175.009C57.2318 176.534 58.1518 177.886 59.3918 178.9C60.0788 179.446 60.1758 179.509 60.8228 178.9C62.1838 177.618 63.6738 180.355 62.8088 182.9C62.5268 183.731 62.2788 184.155 61.4948 184.367C60.7108 184.579 61.0558 185.713 62.1738 185.336C62.671 189.62 63.4442 193.867 64.4888 198.051C64.494 198.111 64.5115 198.169 64.5402 198.222C64.5688 198.275 64.608 198.321 64.6553 198.359C64.7027 198.396 64.7571 198.423 64.8153 198.438C64.8736 198.454 64.9343 198.457 64.9938 198.448C65.0533 198.439 65.1103 198.417 65.1613 198.385C65.2122 198.353 65.2561 198.311 65.2901 198.261C65.3241 198.212 65.3476 198.156 65.3591 198.097C65.3706 198.037 65.3698 197.977 65.3568 197.918C64.9668 195.269 64.2288 192.303 63.9108 189.118C68.2818 181.574 66.4698 172.367 60.3558 169.231C54.2418 166.095 43.1498 168.897 43.3088 174.248C43.4678 179.599 54.9158 175.576 56.7428 175.009Z" fill="#0705CB"/>
<path d="M58.439 178.818C58.169 178.473 56.32 178.531 55.853 178.627C54.418 178.927 46.102 181.517 44.871 182.394C44.342 182.771 45.04 184.994 45.804 186.208C46.428 187.199 46.964 187.161 48.071 186.844C49.438 186.451 49.571 185.911 49.576 184.582C49.582 183.522 49.576 182.505 49.502 181.546C49.502 181.377 49.921 181.212 49.978 181.366C50.3158 182.29 50.7068 183.194 51.149 184.073C52.026 185.796 53.109 185.503 54.481 185.173C56.335 184.722 56.713 184.114 56.823 182.466C56.8858 181.487 56.8432 180.505 56.696 179.536C57.096 179.536 58.137 179.578 58.418 179.329C58.4823 179.26 58.5198 179.171 58.5236 179.077C58.5275 178.983 58.4974 178.891 58.439 178.818ZM46.085 183.448C46.2629 183.068 46.4869 182.712 46.752 182.388C47.194 181.851 47.628 182.295 47.319 182.812C47.1171 183.141 46.8905 183.455 46.641 183.75C46.36 184.089 45.863 183.917 46.085 183.448ZM48.691 183.109C48.267 184.035 47.795 184.938 47.277 185.816C46.899 186.433 46.377 186.123 46.593 185.525C47.0513 184.494 47.6029 183.508 48.241 182.579C48.447 182.33 48.962 182.54 48.691 183.109ZM52.013 182.134C52.217 181.478 52.554 180.872 53.003 180.354C53.326 179.914 54.011 180.095 53.603 180.799C53.36 181.223 52.856 182.171 52.628 182.489C52.4 182.807 51.88 182.733 52.013 182.134ZM55.113 181.149C54.6933 182.202 54.1771 183.215 53.571 184.174C53.371 184.5 52.692 184.56 52.877 183.898C53.3074 182.845 53.8588 181.846 54.52 180.921C54.753 180.6 55.292 180.555 55.117 181.149H55.113Z" fill="#0705CB"/>
<rect x="67" y="191" width="16" height="16" rx="8" fill="#0705CB"/>
</svg>
