<svg width="354" height="210" viewBox="0 0 354 210" fill="none" xmlns="http://www.w3.org/2000/svg">
<path d="M161.647 47.0396C161.052 47.8821 158.588 51.1779 158.879 52.093C159.286 53.3691 163.481 54.2612 164.162 53.0912C164.339 52.7797 164.378 52.247 164.042 52.1284C163.008 51.7637 161.918 51.8522 160.792 51.4912C161.146 50.2026 162.068 48.8202 162.597 47.4361C162.851 46.9069 161.939 46.6237 161.647 47.0396Z" fill="#180B02"/>
<path d="M155.149 42.227C154.055 42.4306 153.875 43.2979 155.234 43.4306C155.818 43.5553 156.353 43.8475 156.774 44.2714C157.463 44.9794 158.397 44.7333 157.978 43.5864C157.77 43.041 157.361 42.596 156.834 42.3432C156.308 42.0903 155.705 42.0487 155.149 42.227Z" fill="#180B02"/>
<path d="M169.92 43.4306C169.425 43.2774 168.892 43.3004 168.411 43.4956C167.931 43.6908 167.533 44.0462 167.285 44.5014C166.692 45.6112 167.285 46.2927 168.127 45.5227C168.619 45.0321 169.285 44.7554 169.98 44.7528C171.069 44.7333 171.272 43.7191 169.92 43.4306Z" fill="#180B02"/>
<path d="M172.68 56.3764C172.77 54.7391 172.559 53.6081 171.225 54.4506C168.326 56.2813 164.924 57.1527 161.502 56.941C159.42 56.941 160.012 58.3234 160.744 59.6243C164.205 65.768 172.265 63.9325 172.68 56.3764ZM170.743 56.6649C169.973 62.6829 164.474 62.5059 162.321 58.5659C165.257 58.8053 168.195 58.1421 170.743 56.6649Z" fill="#180B02"/>
<path d="M177.143 44.0324C178.474 44.1601 179.812 44.2003 181.149 44.1528C183.135 43.9474 182.786 42.0394 180.993 42.011C179.67 41.9908 178.349 41.9022 177.035 41.7456C175.832 31.5663 166.688 32.8778 164.102 39.9401C163.8 39.7304 163.455 39.5921 163.092 39.536C162.729 39.4799 162.359 39.5073 162.008 39.6162C161.599 31.0866 151.554 30.4476 149.17 40.0499C146.273 51.7195 159.999 57.1817 161.914 41.8907C162.194 41.8175 162.486 41.8086 162.77 41.8647C163.053 41.9208 163.321 42.0404 163.551 42.2146C161.647 56.21 176.807 56.5923 177.143 44.0324ZM159.841 40.811C159.606 43.7102 158.447 49.022 154.885 49.0273C151.071 49.0273 150.193 44.2147 151.36 40.1773C151.577 39.2033 151.987 38.2824 152.564 37.4683C153.142 36.6542 153.875 35.9632 154.723 35.4355C158.109 33.7204 160.087 37.802 159.841 40.811ZM169.058 51.0487C165.351 50.0433 164.955 44.8289 165.569 41.8818C166.1 39.3419 168.323 35.9736 171.224 36.2391C173.196 36.4161 175.21 39.2835 175.118 43.3846C175.053 46.5936 173.106 52.139 169.058 51.0451V51.0487Z" fill="#180B02"/>
<path d="M158.627 75.5419C160.688 76.1933 161.038 78.0518 161.851 78.958C163.775 81.1015 164.683 73.7135 164.775 72.8586C168.012 72.8586 172.74 71.0886 174.52 68.7682C174.954 68.2035 174.665 67.5646 173.906 67.8424C171.764 68.7558 170.046 70.2532 166.387 70.6567C155.309 71.8781 154.528 61.1766 154.898 52.6027C143.588 52.47 145.273 30.8459 157.411 31.4512C161.482 31.6548 165.582 28.3113 167.35 25.9642C166.698 24.4666 166.292 22.8739 166.146 21.2472C166.146 19.7197 167.127 20.0418 167.562 21.3799C170.403 30.26 175.455 36.8763 186.609 39.0056C186.769 39.0056 186.922 39.069 187.035 39.1819C187.148 39.2947 187.211 39.4478 187.211 39.6074C187.211 39.767 187.148 39.9201 187.035 40.0329C186.922 40.1458 186.769 40.2092 186.609 40.2092C185.3 40.3023 183.983 40.1761 182.715 39.8357C183.03 41.3137 183.432 42.7717 183.919 44.2023C180.995 46.2484 182.503 48.3123 183.137 47.2467C183.575 46.5164 184.23 45.9409 185.011 45.6002C185.792 45.2595 186.659 45.1705 187.493 45.3457C191.475 45.852 189.263 56.7693 184.701 56.4153C182.487 56.2383 182.577 56.2472 182.294 59.0137C181.811 63.6582 181.108 75.9349 182.379 78.866C182.696 79.597 183.469 79.066 183.751 78.7687C184.475 78.0023 186.386 74.8746 188.923 75.3154C190.573 75.8297 192.089 76.7012 193.364 77.868C194.638 79.0348 195.64 80.4682 196.298 82.0662C200.245 83.0644 210.881 86.6257 214.912 89.8258C210.099 82.5228 205.562 72.6445 205.562 63.5608C205.562 54.4772 211.226 34.0478 199.295 17.4452C188.273 2.12588 160.447 -0.429999 148.761 20.9321C141.016 35.0921 142.858 51.8505 139.991 62.4156C137.433 71.8338 134.131 78.6217 127.955 84.1689C134.073 82.5163 140.329 81.4244 146.645 80.9068C149.7 76.8057 156.468 74.8569 158.627 75.5419Z" fill="#180B02"/>
<path d="M205.851 23.6862C210.412 23.7942 219.8 21.5463 221.889 15.7106C224.554 8.26423 217.174 -4.7435 206.994 -4.7435C198.789 -4.7435 196.165 3.5755 195.489 10.3015C200.087 13.7468 203.667 18.3717 205.851 23.6862Z" fill="#180B02"/>
<path d="M191.953 91.6631C196.252 87.0611 195.417 80.9847 189.121 77.8394C188.279 77.4199 187.528 77.2252 187.112 78.1049C184.505 83.5618 178.137 85.4327 172.542 85.5389C164.566 85.6911 161.838 84.2043 159.236 78.5368C158.681 77.3296 158.454 77.0765 157.275 77.142C153.027 77.3757 146.431 81.3086 148.287 87.3797C150.567 94.8332 162.801 95.9819 167.092 91.7711C171.922 98.221 186.546 97.451 191.953 91.6631ZM165.893 89.7993C157.095 97.9519 140.315 83.2503 157.291 78.9704C159.698 86.369 165.497 87.9019 172.559 87.7408C178.816 87.5992 185.409 85.5159 188.657 79.9209C201.892 87.4293 180.269 101.21 168.203 90.0506C167.216 89.132 167.074 88.7054 165.893 89.7993Z" fill="#180B02"/>
<path d="M168.493 105.8C170.479 106.349 171.38 101.835 169.6 101.757C168.072 101.699 167.169 105.435 168.493 105.8Z" fill="#180B02"/>
<path d="M165.713 117.735C167.398 118.049 168.348 113.825 166.653 113.549C164.957 113.273 163.902 117.399 165.713 117.735Z" fill="#180B02"/>
<path d="M163.079 97.8245C160.475 104.312 157.592 117.42 157.7 124.364C157.692 124.457 157.702 124.55 157.731 124.639C157.759 124.728 157.804 124.811 157.865 124.882C157.925 124.953 157.998 125.012 158.081 125.055C158.164 125.098 158.255 125.124 158.348 125.132C158.441 125.14 158.534 125.129 158.623 125.101C158.712 125.073 158.794 125.027 158.866 124.967C158.937 124.907 158.996 124.833 159.039 124.751C159.082 124.668 159.108 124.577 159.116 124.484C160.136 115.612 162.195 106.889 165.251 98.4971C165.652 97.274 163.56 96.6209 163.079 97.8245Z" fill="#180B02"/>
<path d="M340.913 210.051C235.831 210.021 130.488 209.499 25.4402 209.931C23.9357 209.931 24.2366 212.232 25.6685 212.232C130.714 213.174 236.072 212.497 341.166 212.533C342.766 212.543 342.495 210.051 340.913 210.051Z" fill="#180B02"/>
<path d="M106.616 148.547C107.901 149.62 107.646 149.503 109.154 148.547C111.986 146.754 116.951 142.965 119.103 141.184C118.887 148.404 120.721 180.763 121.51 187.746C121.542 187.963 121.656 188.159 121.829 188.293C122.002 188.427 122.22 188.49 122.438 188.467C122.656 188.444 122.856 188.338 122.997 188.17C123.139 188.003 123.21 187.787 123.195 187.569C123.303 171.628 120.795 154.592 121.739 138.998C122.466 126.962 127.194 116.165 130.412 108.499C130.458 108.392 130.483 108.276 130.485 108.159C130.487 108.042 130.465 107.926 130.422 107.817C130.379 107.708 130.315 107.609 130.233 107.524C130.152 107.44 130.055 107.373 129.947 107.327C129.84 107.28 129.724 107.255 129.607 107.254C129.49 107.252 129.373 107.273 129.265 107.316C129.156 107.359 129.056 107.423 128.972 107.505C128.888 107.587 128.821 107.684 128.774 107.791C123.986 117.225 120.803 127.39 119.354 137.869C115.492 141.395 111.138 144.282 107.672 146.977C102.86 140.959 95.4365 125.32 92.4292 114.816C95.0878 111.808 97.9584 108.993 101.019 106.395C112.372 96.6173 116.429 91.6578 132.18 87.5549C136.486 86.4328 140.862 85.546 145.161 84.4132C145.788 84.2486 145.62 83.1034 144.945 83.114C140.938 83.5478 136.964 84.2432 133.047 85.1955C116.232 89.2417 112.328 93.1003 100.164 103.958C96.9797 106.561 94.0193 109.426 91.3141 112.524C90.7449 113.176 90.3863 113.984 90.2855 114.843C90.1847 115.702 90.3465 116.572 90.7495 117.337C93.4558 125.87 100.807 143.698 106.616 148.547Z" fill="#180B02"/>
<path d="M210.29 146.322C210.081 158.042 208.828 173.58 208.738 180.082C208.725 180.947 210.221 181.009 210.434 180.19C211.131 177.51 213.089 148.839 212.119 146.19C211.791 145.301 210.303 145.563 210.29 146.322Z" fill="#180B02"/>
<path d="M196.201 85.8646C219.388 93.0862 231.424 105.993 244.446 125.364C244.645 125.53 244.893 125.628 245.152 125.642C245.411 125.657 245.668 125.587 245.884 125.443C246.101 125.3 246.265 125.091 246.353 124.846C246.441 124.602 246.447 124.336 246.372 124.088C233.69 105.103 219.48 89.663 196.537 84.2043C195.442 83.9424 195.166 85.5424 196.201 85.8646Z" fill="#180B02"/>
<path d="M236.313 141.221C232.611 143.345 225.616 151.133 223.259 154.985C219.65 150.004 212.559 140.021 209.423 136.457C208.821 135.772 207.451 136.457 207.968 137.342C210.605 141.887 216.834 150.312 220.407 155.28C223.006 158.889 223.128 158.7 225.485 155.725C229.099 151.028 233.099 146.641 237.444 142.611C238.337 141.811 237.438 140.572 236.313 141.221Z" fill="#180B02"/>
<path d="M53.1374 62.051C54.2436 61.982 54.3428 57.3747 57.6243 54.5073C60.0333 52.4045 57.8509 51.6169 56.3252 52.7036C53.1339 54.971 50.8629 62.182 53.1374 62.051Z" fill="#180B02"/>
<path d="M65.06 51.7195C67.5274 53.3125 66.945 51.3974 65.06 59.4686C63.5502 65.9309 65.083 72.0958 66.5875 78.5262C71.5435 99.729 81.19 123.054 85.6327 131.054C85.7635 131.171 85.9271 131.245 86.1013 131.266C86.2755 131.287 86.4519 131.254 86.6066 131.171C86.7612 131.088 86.8866 130.959 86.9657 130.803C87.0448 130.646 87.0737 130.469 87.0487 130.295C86.4255 128.75 85.7597 127.221 85.0521 125.713C86.6451 124.075 87.9638 122.62 89.9851 120.815C92.0065 119.01 89.8364 118.957 89.263 119.348C87.4168 120.618 85.6818 122.042 84.0769 123.606C77.7135 109.434 72.7533 94.6725 69.2673 79.5333C66.5238 67.6248 65.0936 68.0991 68.8336 54.6878C69.8089 51.1921 69.0974 51.2505 66.3308 49.5991C62.189 47.1211 61.0527 45.3511 57.5959 42.4766C56.3427 41.4217 53.3709 44.2041 65.06 51.7195Z" fill="#180B02"/>
<path d="M45.6165 71.1629C46.8201 90.1604 56.502 127.638 62.3288 146.094C64.5661 153.174 68.5008 163.13 77.4163 163.617C85.4645 164.063 96.7571 157.82 104.437 148.108C105.065 147.317 103.504 146.177 102.874 146.907C98.428 152.04 87.1725 161.488 77.7402 161.332C69.5469 161.196 66.5786 152.379 64.6263 145.871C58.1852 124.392 50.2433 94.927 48.0945 72.7082C47.8467 70.1346 48.252 69.4708 45.689 68.6779C40.9985 67.23 39.6073 65.7432 36.0638 63.8652C35.6071 63.6245 34.1168 64.0157 35.3788 65.5255C37.3028 67.8442 42.6446 70.2479 45.6165 71.1629Z" fill="#180B02"/>
<path d="M290.19 92.8915C298.036 97.5749 298.04 100.148 300.657 102.515C300.791 102.633 300.959 102.703 301.137 102.717C301.314 102.73 301.491 102.685 301.641 102.588C301.791 102.492 301.905 102.349 301.966 102.182C302.027 102.015 302.032 101.832 301.98 101.662C301.535 99.6157 298.944 96.8403 297.378 95.4049C295.429 93.6657 293.138 92.3543 290.652 91.5551C289.821 91.2737 289.526 92.495 290.19 92.8915Z" fill="#180B02"/>
<path d="M302.473 95.504C304.723 95.6651 306.084 94.2951 303.472 93.7588C301.583 93.3711 299.537 93.2048 297.631 92.8437C296.494 92.626 294.434 94.9217 302.473 95.504Z" fill="#180B02"/>
<path d="M293.594 101.625C294.374 103.347 294.971 105.227 295.856 106.848C296.334 107.721 297.468 107.508 297.433 106.462C297.221 104.481 296.633 102.559 295.7 100.798C293.004 94.6862 290.213 93.8119 282.248 89.7532C281.466 89.355 280.634 90.5728 281.418 91.1126C288.207 95.8031 290.369 94.4968 293.594 101.625Z" fill="#180B02"/>
<path d="M227.061 156.838C226.387 155.935 223.167 156.824 229.082 162.491C234.737 167.906 235.47 164.743 234.785 164.104C233.509 162.914 232.559 164.201 227.061 156.838Z" fill="#180B02"/>
<path d="M247.069 135.614C252.089 120.463 255.947 107.17 265.61 93.6844C269.868 87.7408 271.553 89.4488 278.267 93.288C285.69 97.536 288.366 98.6812 286.195 108.712C285.885 110.144 285.285 111.508 284.991 112.935C284.871 113.523 286.618 115.979 288.397 108.832C291.052 98.1962 286.688 95.6173 278.254 90.8577C270.677 86.5797 268.426 85.9725 263.047 93.4809C256.418 102.733 247.225 123.558 245.469 135.12C245.409 136.071 246.771 136.513 247.069 135.614Z" fill="#180B02"/>
<path d="M269.304 115.618C268.251 118.519 265.693 133.672 266.415 136.216C266.447 136.399 266.537 136.568 266.671 136.696C266.806 136.825 266.979 136.906 267.164 136.929C267.348 136.952 267.536 136.915 267.698 136.823C267.86 136.731 267.988 136.59 268.063 136.419C268.52 135.416 269.037 126.93 271.426 116.147C271.695 114.944 269.748 114.416 269.304 115.618Z" fill="#180B02"/>
<path d="M276.617 112.009C274.215 110.799 272.056 110.126 269.399 109.073C268.617 108.763 268.771 108.579 268.665 106.595C268.543 104.308 269.07 101.816 267.859 101.639C266.181 101.402 266.394 105.574 266.443 106.79C266.571 110.181 266.888 110.59 269.355 111.6C271.822 112.611 273.808 112.946 276.104 113.875C277.256 114.34 278.256 112.834 276.617 112.009Z" fill="#180B02"/>
<path d="M86.7157 178.181C90.0818 178.529 93.4733 178.561 96.8454 178.276C97.0825 178.186 97.285 178.023 97.424 177.811C97.563 177.599 97.6314 177.348 97.6194 177.095C97.6075 176.841 97.5157 176.598 97.3573 176.4C97.1989 176.202 96.982 176.059 96.7374 175.991C93.395 175.697 90.0333 175.697 86.6909 175.991C86.408 176.005 86.1415 176.128 85.9475 176.335C85.7534 176.541 85.6468 176.815 85.65 177.098C85.6532 177.381 85.766 177.652 85.9647 177.854C86.1634 178.056 86.4325 178.173 86.7157 178.181Z" fill="#F07D29"/>
<path d="M113.988 195.217C113.241 195.217 113.05 196.585 113.855 196.782C120.08 198.29 162.303 197.635 167.682 197.564C169.15 197.543 169.369 195.192 167.875 195.263C153.501 195.973 126.178 195.265 113.988 195.217Z" fill="#F07D29"/>
<path d="M201.426 188.227C201.307 188.323 201.215 188.447 201.158 188.589C201.102 188.731 201.083 188.885 201.103 189.036C201.124 189.187 201.183 189.331 201.275 189.452C201.367 189.574 201.49 189.669 201.63 189.73C201.984 189.882 210.281 190.068 211.784 190.164C212.712 190.164 213.908 189.08 213.048 188.202C211.781 186.903 202.996 186.955 201.426 188.227Z" fill="#F07D29"/>
<path d="M113.184 192.812C122.293 193.544 154.655 193.178 165.833 193.075C167.036 193.065 167.426 190.994 166.026 190.951C159.794 190.735 115.783 190.41 113.089 190.951C112.9 191.029 112.74 191.164 112.63 191.336C112.521 191.509 112.468 191.711 112.478 191.915C112.489 192.119 112.562 192.315 112.689 192.476C112.815 192.636 112.988 192.753 113.184 192.812Z" fill="#F07D29"/>
<path d="M219.554 194.723C222.22 194.927 224.892 194.93 227.567 194.881C229.16 194.851 229.057 192.378 227.447 192.378C225.836 192.378 219.859 192.125 218.544 192.642C218.074 192.827 216.738 194.327 219.554 194.723Z" fill="#F07D29"/>
<path d="M87.762 199.837C84.6468 200.09 84.5494 202.509 87.9673 202.4C92.0825 202.269 96.2102 202.345 100.311 202.016C101.31 201.934 101.308 200.069 100.311 199.764C98.3572 199.18 90.5904 199.608 87.762 199.837Z" fill="#F07D29"/>
<path d="M219.314 196.962C218.303 197.286 218.652 198.909 219.638 198.971C221.731 199.1 224.45 198.654 227.879 198.886C230.166 199.04 230.92 196.842 228.107 196.481C225.17 196.136 222.195 196.299 219.314 196.962Z" fill="#F07D29"/>
<path d="M201.638 192.305C200.822 192.562 200.605 193.879 201.578 194.111C205.406 194.514 209.256 194.671 213.104 194.58C213.267 194.585 213.429 194.557 213.581 194.499C213.733 194.441 213.873 194.354 213.991 194.242C214.109 194.131 214.205 193.997 214.271 193.848C214.338 193.7 214.375 193.54 214.38 193.377C214.384 193.214 214.357 193.052 214.299 192.9C214.241 192.748 214.154 192.609 214.042 192.49C213.931 192.372 213.797 192.277 213.648 192.21C213.5 192.143 213.34 192.106 213.177 192.102C210.902 191.872 203.941 191.583 201.638 192.305Z" fill="#F07D29"/>
<path d="M86.8838 185.845C86.7169 185.955 86.5855 186.112 86.5057 186.295C86.4259 186.479 86.4011 186.681 86.4342 186.879C86.4674 187.076 86.5571 187.259 86.6926 187.407C86.828 187.554 87.0033 187.659 87.1971 187.709C87.9423 187.987 95.1019 187.822 96.9427 187.926C99.1092 188.048 100.55 185.539 95.6435 185.255C93.693 185.142 88.4273 184.871 86.8838 185.845Z" fill="#F07D29"/>
<path d="M97.2914 180.937C96.2294 180.268 87.5033 180.452 86.3793 181.08C86.2005 181.178 86.0543 181.327 85.9587 181.507C85.863 181.687 85.8221 181.891 85.8409 182.095C85.8597 182.298 85.9374 182.491 86.0645 182.651C86.1916 182.81 86.3625 182.929 86.5563 182.993C86.8572 183.126 96.2683 183.524 97.2153 182.993C97.396 182.893 97.5477 182.747 97.6558 182.571C97.7639 182.394 97.8247 182.193 97.8323 181.986C97.84 181.78 97.7942 181.574 97.6995 181.391C97.6047 181.207 97.4642 181.05 97.2914 180.937Z" fill="#F07D29"/>
<path d="M212.563 198.635C215.14 198.868 215.427 196.323 212.563 196.047C209.699 195.771 203.527 195.626 201.35 196.697C201.174 196.796 201.031 196.944 200.938 197.122C200.846 197.301 200.807 197.504 200.828 197.704C200.848 197.905 200.927 198.095 201.054 198.251C201.181 198.408 201.351 198.524 201.543 198.585C202.192 198.743 208.955 198.307 212.563 198.635Z" fill="#F07D29"/>
<path d="M202.108 202.916C203.178 203.255 213.345 203.651 214.537 202.989C214.703 202.883 214.838 202.736 214.93 202.561C215.021 202.387 215.065 202.192 215.058 201.995C215.051 201.798 214.992 201.606 214.888 201.439C214.784 201.272 214.637 201.135 214.464 201.042C210.333 200.599 206.167 200.599 202.037 201.042C201.816 201.087 201.618 201.209 201.479 201.386C201.34 201.563 201.268 201.784 201.277 202.009C201.285 202.234 201.373 202.449 201.526 202.615C201.678 202.782 201.884 202.888 202.108 202.916Z" fill="#F07D29"/>
<path d="M168.18 204.649C151.719 204.757 128.803 204.812 112.728 204.975C111.753 204.975 111.524 206.586 112.583 206.745C119.647 207.796 161.419 207.214 168.288 206.938C168.526 206.848 168.729 206.684 168.868 206.472C169.007 206.259 169.076 206.008 169.064 205.754C169.052 205.501 168.96 205.257 168.801 205.059C168.642 204.86 168.425 204.717 168.18 204.649Z" fill="#F07D29"/>
<path d="M202.553 185.471C204.854 185.572 209.375 185.664 211.685 185.629C213.995 185.593 213.356 183.386 212.372 183.222C211.612 183.096 205.152 182.308 202.283 183.222C200.267 183.738 200.449 185.381 202.553 185.471Z" fill="#F07D29"/>
<path d="M230.298 205.01C226.899 204.889 223.496 205.034 220.119 205.444C219.565 205.646 218.254 207.428 221.611 207.526C224.558 207.609 227.518 207.557 230.461 207.526C232.079 207.508 231.898 205.017 230.298 205.01Z" fill="#F07D29"/>
<path d="M228.24 203.518C229.817 203.644 230.176 201.217 228.594 201.113C226.535 200.966 220.461 200.523 218.427 201.208C217.356 201.562 217.705 203.078 218.68 203.278C220.599 203.67 225.675 203.315 228.24 203.518Z" fill="#F07D29"/>
<path d="M214.092 205.083C210.975 205.083 207.848 205.26 204.731 205.299C203.72 205.313 202.408 205.191 201.638 205.973C201.483 206.153 201.403 206.387 201.417 206.625C201.43 206.863 201.536 207.086 201.711 207.248C202.658 208.133 206.524 207.717 207.956 207.706C210.045 207.691 212.135 207.643 214.223 207.561C214.552 207.544 214.86 207.396 215.08 207.152C215.3 206.907 215.414 206.585 215.397 206.256C215.379 205.928 215.232 205.62 214.987 205.4C214.743 205.179 214.421 205.066 214.092 205.083Z" fill="#F07D29"/>
<path d="M85.4041 192.052C86.2696 192.378 94.3798 192.353 96.594 192.365C98.9995 192.38 99.1552 189.96 96.594 189.682C94.0328 189.404 86.8838 189.328 85.2235 190.332C85.082 190.435 84.9701 190.574 84.8991 190.734C84.828 190.894 84.8002 191.07 84.8185 191.244C84.8367 191.418 84.9004 191.585 85.0032 191.726C85.106 191.868 85.2442 191.981 85.4041 192.052Z" fill="#F07D29"/>
<path d="M165.823 202.796C166.101 202.767 166.358 202.636 166.545 202.428C166.732 202.22 166.835 201.951 166.835 201.671C166.835 201.392 166.732 201.122 166.545 200.914C166.358 200.707 166.101 200.576 165.823 200.546C150.386 199.909 127.106 200.253 112.222 200.283C111.999 200.293 111.788 200.388 111.634 200.55C111.48 200.711 111.394 200.926 111.394 201.149C111.394 201.372 111.48 201.587 111.634 201.748C111.788 201.91 111.999 202.005 112.222 202.016C127.46 202.267 150.374 203.134 165.823 202.796Z" fill="#F07D29"/>
<path d="M85.5493 197.058C89.9089 197.327 94.2719 197.506 98.6473 197.394C98.8718 197.336 99.0747 197.214 99.2317 197.044C99.3887 196.873 99.4932 196.661 99.5326 196.432C99.572 196.204 99.5447 195.969 99.4539 195.755C99.3631 195.542 99.2128 195.359 99.0208 195.229C97.4809 194.344 87.3158 194.507 85.3918 195.302C84.6431 195.605 84.767 197.01 85.5493 197.058Z" fill="#F07D29"/>
<path d="M101.177 204.842C95.9617 204.468 90.7223 204.617 85.537 205.288C84.3936 205.671 84.8875 207.412 85.9335 207.428C90.9391 207.547 95.9606 207.58 100.961 207.2C101.241 207.174 101.504 207.052 101.703 206.853C101.902 206.654 102.025 206.391 102.051 206.111C102.076 205.831 102.003 205.55 101.843 205.318C101.684 205.087 101.448 204.918 101.177 204.842Z" fill="#F07D29"/>
<path d="M77.0428 200.534C73.301 200.534 69.5344 200.426 65.805 200.679C65.58 200.72 65.3749 200.834 65.2216 201.004C65.0683 201.174 64.9755 201.389 64.9577 201.617C64.9399 201.845 64.9981 202.073 65.1232 202.264C65.2483 202.456 65.4333 202.6 65.6493 202.676C67.5432 203.347 74.8657 203.085 76.8498 203.03C77.1803 203.055 77.5074 202.949 77.7592 202.733C78.011 202.517 78.1668 202.211 78.1924 201.88C78.218 201.55 78.1112 201.223 77.8956 200.971C77.68 200.719 77.3732 200.563 77.0428 200.538V200.534Z" fill="#F07D29"/>
<path d="M74.5526 204.817C72.7967 204.848 66.1292 204.817 65.0229 205.492C64.8794 205.565 64.7572 205.674 64.6684 205.808C64.5796 205.942 64.5272 206.097 64.5163 206.258C64.5054 206.418 64.5364 206.579 64.6063 206.724C64.6762 206.869 64.7825 206.993 64.9149 207.085C66.3203 207.869 73.7826 207.373 75.9367 207.313C78.6307 207.235 79.6077 204.734 74.5526 204.817Z" fill="#F07D29"/>
<path d="M41.0642 0.886878C36.903 1.65152 17.8684 5.60393 13.2239 7.41995C8.57942 9.23597 8.4449 13.3512 9.206 16.7691C9.9671 20.187 19.1552 52.2611 21.6703 57.495C24.1855 62.7289 28.5362 62.2953 31.5239 61.6085C38.2925 60.0674 44.9797 58.1882 51.5603 55.9781C52.4674 53.1953 54.3026 50.8084 56.7588 49.2167C56.1896 48.543 55.6897 47.8136 55.2667 47.0396C55.1216 48.314 52.8595 48.4715 51.6559 48.7477C49.985 49.1335 48.7071 47.9034 50.1656 46.8945C50.6966 46.521 53.9428 45.367 54.7481 45.9316C53.0401 41.5526 56.2278 38.9065 59.4298 41.4447C58.5271 37.4144 52.5268 11.498 50.6824 6.55442C50.1453 4.53558 48.8351 2.80926 47.0353 1.7487C45.2355 0.688136 43.0905 0.37855 41.0642 0.886878ZM50.401 26.7183C50.578 28.1732 48.6788 27.8581 46.2981 28.7396C44.4556 29.4228 42.7918 28.6617 44.7582 27.0192C45.7477 26.1873 50.1426 24.5642 50.3939 26.7183H50.401ZM19.1162 24.6013C18.0454 24.3836 16.0718 16.1797 16.2276 15.4805C16.3834 14.7814 44.4626 7.73324 45.1954 8.1899C45.9282 8.64656 48.192 16.3956 47.9035 16.9974C47.615 17.5992 19.8349 24.7447 19.0755 24.6084L19.1162 24.6013ZM28.1963 30.899C29.6796 30.722 29.8938 32.9628 28.4123 33.2212C27.2104 33.4301 26.0086 33.7841 24.8723 34.039C23.1536 34.4266 22.5129 33.154 24.0174 32.1734C25.3255 31.5084 26.7397 31.0771 28.1963 30.899ZM29.4229 37.7931C30.9628 37.5276 31.1558 39.9348 29.6637 40.1986C28.1716 40.4623 27.4742 40.8482 26.4263 40.9066C24.382 41.0252 24.6829 39.6446 25.7767 38.8728C26.9179 38.2972 28.1527 37.9297 29.4229 37.7878V37.7931ZM31.8284 44.3421C31.9814 44.3817 32.1252 44.4511 32.2514 44.5463C32.3776 44.6415 32.4837 44.7607 32.5638 44.897C32.6439 45.0333 32.6963 45.184 32.718 45.3406C32.7397 45.4972 32.7303 45.6565 32.6904 45.8095C32.3877 46.9741 31.0779 46.7228 28.1592 47.4343C26.6653 47.799 26.1254 46.3883 27.5344 45.5457C28.8453 44.7997 30.3204 44.3893 31.8284 44.351V44.3421ZM33.3807 53.463C32.347 53.817 28.8619 55.2772 28.4123 53.5833C28.0193 52.1018 31.2443 51.6859 32.5381 51.1761C34.8037 50.2911 35.6675 52.6328 33.3453 53.463H33.3807ZM38.1703 28.244C40.3598 28.136 40.5757 30.1698 38.9031 30.591C37.2304 31.0123 36.7614 31.0247 34.8498 31.5769C34.7346 31.6427 34.6073 31.6845 34.4755 31.6996C34.3438 31.7147 34.2103 31.7029 34.0833 31.6649C33.9562 31.6268 33.8382 31.5634 33.7364 31.4783C33.6346 31.3933 33.5512 31.2885 33.4912 31.1702C33.4311 31.0519 33.3958 30.9227 33.3872 30.7904C33.3786 30.658 33.3971 30.5253 33.4413 30.4003C33.4856 30.2753 33.5549 30.1606 33.6448 30.0631C33.7348 29.9657 33.8437 29.8875 33.9648 29.8335C35.2447 29.0247 36.6754 28.4839 38.1703 28.244ZM35.5772 37.7754C35.0002 35.97 39.6217 35.2974 40.3067 35.4744C40.7757 35.5913 42.328 37.3153 39.3314 37.8799C38.2606 38.1578 36.0233 39.2764 35.5418 37.7843L35.5772 37.7754ZM37.9349 43.1297C39.2907 42.2391 40.9007 41.8164 42.5192 41.9261C42.7233 42.036 42.8913 42.2026 43.003 42.4057C43.1148 42.6088 43.1655 42.8399 43.149 43.0712C43.1326 43.3024 43.0497 43.524 42.9103 43.7093C42.7709 43.8946 42.581 44.0357 42.3634 44.1156C41.1098 44.5049 39.8169 44.7543 38.5084 44.859C38.3075 44.857 38.1124 44.7922 37.9503 44.6736C37.7882 44.5551 37.6673 44.3887 37.6046 44.1979C37.542 44.0071 37.5406 43.8015 37.6008 43.6099C37.661 43.4183 37.7797 43.2504 37.9402 43.1297H37.9349ZM39.9686 51.7443C38.873 51.939 38.5738 50.0486 39.4996 49.6858C40.9812 49.1009 42.5109 48.6461 44.0715 48.3264C45.2255 48.0945 45.5388 50.1548 44.5281 50.5407C43.0521 51.0867 41.527 51.4898 39.9739 51.7443H39.9686ZM53.3657 40.7225C52.8825 41.7137 48.2327 42.9616 47.9035 41.1792C47.6362 39.7012 50.0558 39.7632 51.9462 39.0552C52.168 38.9928 52.4031 38.9954 52.6235 39.0626C52.844 39.1298 53.0405 39.2588 53.1899 39.4342C53.3393 39.6097 53.4352 39.8243 53.4664 40.0526C53.4976 40.281 53.4626 40.5134 53.3657 40.7225ZM51.5479 33.4071C52.0418 35.0196 47.9389 35.6833 47.2539 35.7541C45.4379 35.94 44.8556 34.4868 47.1212 33.4531C48.1832 32.9681 51.0311 31.7681 51.5249 33.4035L51.5479 33.4071Z" fill="#F07D29"/>
<path d="M335.592 135.975C334.593 137.448 333.234 138.641 331.644 139.441C330.054 140.242 328.286 140.622 326.508 140.547C328.565 133.327 323.343 129.633 320.301 131.007C315.956 132.966 318.784 140.354 323.549 142.074C322.591 143.712 321.269 145.108 319.687 146.154C319.583 146.203 319.491 146.272 319.414 146.357C319.338 146.442 319.28 146.542 319.243 146.65C319.207 146.759 319.192 146.873 319.201 146.987C319.21 147.101 319.242 147.212 319.294 147.314C319.347 147.415 319.42 147.505 319.508 147.577C319.597 147.65 319.699 147.704 319.808 147.736C319.918 147.768 320.033 147.777 320.147 147.764C320.26 147.75 320.37 147.714 320.469 147.657C322.781 146.678 324.649 144.878 325.714 142.604C327.967 142.905 330.257 142.485 332.257 141.404C334.256 140.323 335.862 138.636 336.843 136.586C337.173 135.795 336.102 135.373 335.592 135.975ZM324.367 140.066C320.758 138.65 319.278 133.063 321.841 133.209C324.404 133.354 325.092 137.49 324.37 140.066H324.367Z" fill="#F07D29"/>
<path d="M240.97 136.529C239.957 137.513 241.812 151.532 242.173 153.227C244.819 149.857 248.021 146.964 251.641 144.673C251.505 143.636 251.429 142.591 251.413 141.545C247.563 139.103 241.782 135.745 240.97 136.529Z" fill="#F07D29"/>
<path d="M266.897 139.283C269.323 141.617 271.402 144.288 273.069 147.213C273.423 148.031 272.336 148.487 271.805 147.935C268.419 144.395 257.946 133.621 253.999 134.327C250.751 134.908 253.999 148.871 254.264 150.942C254.363 151.735 253.567 151.988 253.121 151.195C252.485 149.814 252.078 148.339 251.917 146.827C243.014 152.555 238.793 162.589 238.288 166.499C238.798 166.885 239.38 167.166 239.999 167.327C240.618 167.488 241.263 167.526 241.897 167.437C243.329 167.235 249.542 161.828 254.218 169.41C259.974 178.744 251.811 190.44 247.828 192.089C251.703 194.881 258.321 196.348 263.734 196.817C265.052 200.524 266.661 204.12 268.546 207.573C269.376 208.356 281.66 208.223 282.352 207.826C283.044 207.43 283.664 200.607 284 197.454C290.334 197.488 296.548 195.718 301.914 192.353C302.052 192.26 302.22 192.224 302.384 192.253C302.547 192.281 302.694 192.372 302.792 192.506C302.89 192.64 302.932 192.806 302.91 192.971C302.888 193.136 302.804 193.285 302.674 193.389C300.353 195.438 297.596 196.932 294.611 197.755C295.574 200.727 297.909 207.38 298.643 207.874C299.378 208.368 311.757 208.163 311.878 207.2C312.75 202.453 314.009 197.785 315.642 193.243C317.085 189.296 332.21 170.41 319.168 150.087C307.024 131.168 278.014 133.954 266.897 139.283ZM244.506 163.355C243.039 163.102 243.621 159.638 244.844 159.746C246.067 159.854 245.865 163.64 244.506 163.415V163.355ZM246.204 156.233C245.557 156.374 244.969 156.71 244.518 157.196C243.972 157.79 243.219 157.123 243.472 156.353C243.654 155.885 243.951 155.471 244.336 155.149C244.721 154.827 245.182 154.608 245.674 154.512C246.696 154.452 247.069 156.088 246.205 156.293L246.204 156.233ZM253.085 163.451C251.545 163.451 252.062 159.721 253.338 159.842C254.615 159.962 254.4 163.536 253.085 163.523V163.451ZM255.31 157.183C254.675 156.616 253.873 156.27 253.025 156.196C251.745 156.07 252.317 154.224 253.494 154.199C254.137 154.192 254.77 154.359 255.326 154.683C255.882 155.006 256.339 155.475 256.65 156.038C257.004 157.001 256.013 157.831 255.314 157.242L255.31 157.183ZM257.004 189.314C257.963 188.886 261.806 187.958 260.841 183.804C260.537 182.494 262.296 181.699 262.911 183.468C264.327 187.563 261.849 190.68 257.547 190.656C256.524 190.657 256.337 189.617 257.004 189.314ZM287.515 139.168C284.374 139.078 281.232 139.325 278.143 139.903C275.918 140.421 275.488 138.943 277.193 137.989C279.379 136.759 284.627 136.605 287.335 136.786C290.043 136.966 289.717 139.133 287.512 139.241L287.515 139.168Z" fill="#F07D29"/>
<path d="M285.75 199.392C285.573 200.245 284.956 205.66 284.547 207.428C288.293 207.911 292.086 207.911 295.832 207.428C294.476 204.583 293.424 201.603 292.692 198.537C290.988 198.936 287.17 199.212 285.75 199.392Z" fill="#F07D29"/>
<path d="M251.292 185.664C256.837 175.858 252.988 166.994 247.683 167.449C243.29 167.826 243.014 169.506 241.222 169.573C239.431 169.64 238.539 168.182 236.41 167.98C230.537 167.437 231.859 179.752 234.893 184.186C238.66 189.698 245.72 195.518 251.292 185.664ZM238.346 180.588C236.399 181.204 234.918 175.304 236.638 174.57C238.647 173.573 240.233 179.988 238.346 180.588ZM247.141 180.719C244.663 180.634 245.409 173.786 247.37 173.91C249.747 174.06 248.874 180.779 247.141 180.719Z" fill="#F07D29"/>
<path d="M251.954 196.022C253.158 199.957 256.225 206.949 257.765 207.573C260.496 208.019 263.271 208.138 266.031 207.927C264.411 204.87 263.039 201.687 261.928 198.41C258.506 198.095 255.148 197.291 251.954 196.022Z" fill="#F07D29"/>
<path d="M285.124 124.113C289.696 124.555 292.027 120.84 291.705 116.243C291.284 110.023 287.908 111.429 288.59 113.018C290.006 116.335 289.792 121.702 285.871 121.766C280.349 121.856 279.444 113.447 281.6 110.492C281.914 110.067 282.314 109.712 282.774 109.451C283.235 109.19 283.744 109.028 284.271 108.977C285.885 108.8 283.621 105.777 280.529 108.363C276.283 111.914 277.497 123.374 285.124 124.113Z" fill="#F07D29"/>
<path d="M343.801 89.9674C341.635 89.8341 339.469 89.7297 337.303 89.6542C337.461 86.883 337.279 84.1029 336.762 81.3759C336.708 81.1465 336.574 80.9443 336.383 80.8066C336.192 80.6688 335.957 80.6048 335.723 80.6264C335.488 80.6479 335.269 80.7536 335.107 80.9239C334.944 81.0942 334.849 81.3176 334.838 81.5529C334.548 84.2258 334.499 86.9194 334.693 89.6011C332.031 89.4423 329.36 89.5431 326.717 89.902C326.517 89.9686 326.345 90.0989 326.226 90.2728C326.108 90.4467 326.05 90.6547 326.06 90.8649C326.071 91.0751 326.151 91.276 326.286 91.4368C326.422 91.5976 326.607 91.7094 326.813 91.7551C329.441 92.0521 332.085 92.1768 334.73 92.1286V99.9166C334.73 101.396 337.291 101.373 337.291 99.7839V92.2171C339.505 92.3003 341.716 92.4101 343.921 92.541C344.257 92.5173 344.57 92.3633 344.794 92.1119C345.017 91.8605 345.134 91.5316 345.118 91.1955C345.102 90.8594 344.956 90.5428 344.71 90.3133C344.464 90.0839 344.137 89.9597 343.801 89.9674Z" fill="#F07D29"/>
<path d="M239.212 57.3021C237.95 58.8774 236.571 60.3482 235.435 62.0191C234.812 62.9342 236.302 64.0759 237.07 63.3413C238.516 61.9607 239.766 60.3819 241.113 58.9022C242.883 60.3695 244.596 61.8793 246.407 63.2935C247.421 64.0847 249.572 62.6085 247.718 61.0917L242.798 57.0012C244.157 55.4737 245.564 53.9692 246.901 52.3992C247.125 52.1738 247.252 51.8695 247.255 51.5515C247.258 51.2334 247.137 50.9268 246.917 50.6972C246.697 50.4676 246.395 50.3333 246.078 50.3229C245.76 50.3125 245.45 50.4268 245.216 50.6416C243.669 52.1566 242.215 53.7638 240.861 55.4542C239.275 54.0317 237.564 52.7551 235.748 51.6399C234.797 51.2062 234.123 52.4222 234.64 53.1567C236.047 54.6621 237.576 56.0486 239.212 57.3021Z" fill="#F07D29"/>
<path d="M297.072 28.5112C296.853 29.2773 296.834 30.0864 297.014 30.8622C297.195 31.638 297.57 32.355 298.105 32.9458C298.639 33.5366 299.315 33.9817 300.069 34.2392C300.823 34.4967 301.629 34.5581 302.414 34.4177C303.746 33.9962 304.883 33.1119 305.62 31.9247C306.357 30.7375 306.645 29.3258 306.431 27.9448C305.49 23.4544 297.997 23.996 297.072 28.5112ZM303.953 29.329C303.514 32.4937 299.559 32.9398 299.309 30.0759C299.004 26.5873 304.38 26.251 303.953 29.329Z" fill="#F07D29"/>
<path d="M292.804 17.4683C291.788 12.1441 284.595 13.0132 283.885 18.0913C283.812 19.4072 284.265 20.6983 285.143 21.6807C286.022 22.6631 287.254 23.2565 288.57 23.3305C289.245 23.2492 289.895 23.0292 290.48 22.6842C291.065 22.3393 291.573 21.8769 291.97 21.3262C292.368 20.7755 292.648 20.1485 292.791 19.4845C292.935 18.8205 292.939 18.134 292.804 17.4683ZM288.397 16.4204C292.174 15.9744 290.431 21.603 288.276 20.9552C284.793 19.9056 286.052 16.6965 288.397 16.4204Z" fill="#F07D29"/>
<path d="M288.529 33.2637C293.628 28.2134 298.383 22.827 302.762 17.1408C303.365 16.0469 301.7 14.9053 300.921 15.7248C298.243 18.6046 288.542 28.9538 286.977 32.0513C286.48 33.0442 287.75 33.7929 288.529 33.2637Z" fill="#F07D29"/>
</svg>
