<svg width="294" height="249" viewBox="0 0 294 249" fill="none" xmlns="http://www.w3.org/2000/svg">
<path d="M195.505 120.703C194.98 118.672 194.668 116.591 194.574 114.495C196.099 113.029 198.24 111.2 199.131 111.137C200.086 111.068 203.133 115.137 203.577 116.218C202.314 117.703 201.306 119.388 200.595 121.204C198.919 120.864 197.214 120.696 195.505 120.703H195.505ZM200.367 122.993C198.751 122.619 197.107 122.383 195.451 122.286C194.64 125.189 191.492 129.233 189.838 136.446C190.096 142.376 190.974 148.262 192.457 154.008C194.057 147.942 196.709 143.348 200.269 137.5C200.636 133.841 200.19 126.941 200.375 122.992L200.367 122.993ZM70.2122 119.568C70.1916 117.854 71.0244 113.325 70.9685 112.662C68.9686 110.669 66.0653 108.724 65.2995 108.702C64.2646 108.682 60.5367 115.418 59.9648 116.276C63.6178 118.797 65.2039 119.615 66.069 120.716C67.3782 120.11 68.7782 119.723 70.2122 119.568ZM70.9685 168.024C71.1736 162.281 67.8264 129.313 66.6019 122.32C67.9816 121.767 69.4313 121.407 70.9097 121.252C73.4947 125.784 83.0901 143.246 85.8956 175.038C83.2004 174.063 73.4447 170.202 70.9685 168.032V168.024Z" fill="#D1D0D6"/>
<path d="M79.4227 65.168C79.4014 64.9617 79.3005 64.7718 79.1413 64.6388C78.9822 64.5058 78.7774 64.4402 78.5706 64.4559C78.3637 64.4716 78.1712 64.5674 78.034 64.7229C77.8968 64.8784 77.8257 65.0814 77.8358 65.2886C78.1315 69.6862 78.1848 74.0967 77.9953 78.5002C77.8483 82.8051 77.6623 92.3101 73.3589 94.7562C69.448 96.9788 59.3601 94.9289 55.4918 93.3722C55.3355 93.3058 55.1595 93.3025 55.0008 93.363C54.8421 93.4235 54.713 93.5431 54.6406 93.6967C54.5681 93.8503 54.558 94.026 54.6123 94.187C54.6666 94.3479 54.781 94.4816 54.9317 94.5599C57.413 95.736 60.0602 96.5238 62.7808 96.8958C62.9175 98.7847 62.7529 101.6 62.9521 102.566C62.9816 102.729 63.0678 102.876 63.1953 102.981C63.3228 103.086 63.4834 103.143 63.6487 103.141C63.8139 103.139 63.9732 103.078 64.0982 102.97C64.2232 102.862 64.3059 102.713 64.3316 102.55C64.525 101.377 64.2861 98.7009 64.3052 97.0869C74.4533 98.1364 79.0537 97.0869 79.6785 78.154C79.9128 73.8254 79.8271 69.4854 79.4219 65.1695L79.4227 65.168ZM82.4685 55.5182C83.618 61.1858 79.9232 62.766 75.0546 62.7337C69.6464 62.6955 64.2376 62.6455 58.8294 62.672C57.5094 67.9507 55.6035 70.0315 52.0388 73.7984C51.8264 74.0226 51.417 74.2511 51.2016 74.0123C49.6015 72.2424 46.3727 72.471 45.5267 75.9696C45.2219 77.3208 45.3867 78.7355 45.994 79.9804C46.6013 81.2253 47.6148 82.2261 48.8672 82.8176C50.2468 83.6312 49.1605 84.3427 48.2499 83.9436C47.7993 83.7245 47.3747 83.4555 46.9842 83.1417C47.1554 86.8601 47.1819 91.9543 46.9577 95.5456C46.9077 96.3533 45.5811 96.2188 45.5899 95.4691C45.6898 91.6568 45.585 87.8418 45.276 84.0406C40.2802 78.6009 38.1995 69.9639 38.37 62.8476C38.5251 56.287 42.3044 49.1994 48.2278 55.7519C50.3938 51.794 53.9046 48.7419 58.1253 47.1473C66.1625 44.011 80.4281 45.5009 82.4678 55.5167L82.4685 55.5182ZM76.9273 57.1109C77.6609 58.5773 79.2529 56.9559 78.5561 55.1287C76.6672 50.1784 68.0603 48.8745 63.6466 50.2152C62.8242 50.4643 63.1439 51.6418 63.9399 51.6359C69.0503 51.5904 74.4577 52.1049 76.9273 57.1109ZM73.1458 66.9688C74.2821 66.7137 75.9858 67.409 76.0005 68.7886C75.9856 68.9003 75.9378 69.0051 75.8632 69.0895C75.7885 69.1739 75.6904 69.2342 75.5814 69.2627C75.4723 69.2912 75.3573 69.2865 75.2509 69.2493C75.1445 69.2122 75.0516 69.1441 74.984 69.054C74.8389 68.7667 74.6049 68.534 74.3168 68.3905C74.0288 68.2471 73.702 68.2006 73.3854 68.258C73.2266 68.2637 73.0711 68.2122 72.9471 68.1129C72.8231 68.0136 72.7388 67.8731 72.7097 67.7169C72.6806 67.5608 72.7085 67.3993 72.7884 67.262C72.8683 67.1247 72.9956 67.0206 73.1458 66.9688ZM63.8274 67.7383C65.0299 67.9022 64.7278 69.1943 63.8274 69.1708C63.3423 69.17 62.871 69.3323 62.4893 69.6317C62.1076 69.9311 61.8378 70.3503 61.7231 70.8216C61.6822 70.9753 61.5867 71.1088 61.4544 71.1972C61.3222 71.2855 61.1623 71.3227 61.0047 71.3017C60.8471 71.2807 60.7025 71.203 60.598 71.0831C60.4935 70.9632 60.4362 70.8094 60.4369 70.6504C60.4644 70.235 60.5744 69.8293 60.7604 69.4569C60.9464 69.0845 61.2047 68.7529 61.5203 68.4814C61.8359 68.2099 62.2023 68.004 62.5983 67.8757C62.9943 67.7473 63.4119 67.6991 63.8267 67.7339L63.8274 67.7383ZM66.1383 73.4684C66.2103 74.2908 66.4742 75.8718 65.5797 76.2004C64.2133 76.7031 63.8201 74.6106 63.9509 73.7411C64.1986 72.0623 66.0045 71.9741 66.1383 73.4684ZM75.0068 74.1181C75.0656 74.7546 75.0641 75.7528 74.382 75.913C73.209 76.1886 72.9157 75.1684 72.851 74.1622C72.7996 73.4044 72.9495 72.285 73.908 72.2417C74.9487 72.1961 74.937 73.3868 75.0031 74.1189L75.0068 74.1181ZM73.2751 80.312C73.8617 82.3369 71.0143 82.8051 69.2591 82.1774C68.6608 81.965 68.9247 80.9764 69.4539 80.9205C70.1455 80.9417 70.8379 80.9226 71.5273 80.8632C72.1491 80.7236 71.8206 80.5788 71.5788 79.9011C71.0878 78.5715 70.4057 77.0023 70.0595 75.6587C70.0272 75.5089 70.0493 75.3525 70.1217 75.2175C70.1942 75.0825 70.3124 74.9776 70.455 74.9218C70.5977 74.8659 70.7556 74.8626 70.9005 74.9125C71.0454 74.9624 71.1678 75.0623 71.2458 75.1942C72.0395 76.8512 72.7176 78.5612 73.2751 80.312ZM67.828 87.2636C65.576 90.1962 60.1385 88.5396 60.5787 83.1006C62.3442 86.3088 66.6741 87.0666 67.828 87.2636ZM59.2646 82.3045C59.6813 80.4773 60.3479 80.6728 61.3762 81.8092C66.4161 87.3812 70.9077 84.7418 69.7346 87.135C69.3254 87.9317 68.7274 88.6162 67.9927 89.1286C67.2581 89.6409 66.4092 89.9657 65.5201 90.0745C64.631 90.1832 63.7289 90.0726 62.8924 89.7524C62.0559 89.4322 61.3105 88.9121 60.7213 88.2375C60.0565 87.4169 59.5813 86.4595 59.3296 85.4339C59.0779 84.4082 59.0552 83.3397 59.2646 82.3045ZM140.923 126.294C134.423 118.864 127.95 115.712 118.825 112.58C116.17 119.718 108.332 132.19 102.301 137.39C101.744 137.871 100.813 137.088 101.314 136.51C107.907 129.35 113.251 121.135 117.124 112.206C117.71 110.971 117.71 110.918 119.121 111.149C127.345 112.496 136.055 118.245 141.573 124.239C142.712 125.478 142.668 125.805 142.013 127.236C136.569 139.216 129.256 153.593 121.631 164.076C117.341 169.976 113.083 174.449 102.586 176.637C101.714 176.819 101.435 175.186 102.363 175.043C111.813 173.577 116.748 168.455 121.946 160.619C134.365 141.913 140.467 126.298 140.922 126.298L140.923 126.294ZM113.517 210.303C106.614 210.799 102.893 209.852 96.6106 207.057C92.4211 205.191 85.3563 201.461 80.9213 201.475C80.2731 201.475 79.943 202.623 80.6281 202.77C86.2383 203.966 91.2576 206.805 97.0671 209.27C101.774 211.267 108.733 213.529 113.755 211.763C114.421 211.536 114.516 210.308 113.518 210.308L113.517 210.303ZM119.044 208.9C114.269 210.188 104.846 207.601 101.035 205.026C100.365 204.575 101.074 203.624 101.747 203.887C110.568 207.331 114.099 207.528 118.902 207.529C119.057 207.556 119.199 207.632 119.306 207.746C119.413 207.861 119.48 208.007 119.496 208.163C119.512 208.319 119.476 208.476 119.395 208.61C119.313 208.744 119.19 208.847 119.044 208.905V208.9ZM122.542 205.754C117.085 206.468 108.831 204.193 104.266 201.147C103.622 200.717 104.255 199.71 104.936 199.996C112.058 202.994 114.997 203.419 122.532 204.293C122.719 204.302 122.896 204.382 123.026 204.518C123.156 204.653 123.229 204.833 123.231 205.021C123.232 205.208 123.161 205.389 123.033 205.527C122.905 205.664 122.729 205.747 122.542 205.758V205.754ZM122.982 202.04C117.339 201.297 111.931 199.314 107.146 196.232C106.568 195.791 106.841 194.757 107.631 194.975C110.418 195.743 118.364 199.648 123.359 200.488C124.082 200.493 123.91 202.143 122.977 202.05L122.982 202.04ZM106.809 190.996C103.982 190.409 98.3261 192.845 96.0359 194.352C95.5545 194.796 94.9933 195.145 94.3821 195.379C93.7103 195.509 93.5611 194.656 93.9419 193.938C98.1938 185.781 110.266 187.339 115.552 180.959C116.036 180.373 115.246 179.493 114.628 179.974C109.852 183.658 106.373 184.063 101.099 186.188C98.0454 187.417 93.1966 190.326 92.1088 193.872C91.7023 195.192 91.9941 196.887 93.7221 197.065C95.2766 197.228 96.5415 195.926 97.7925 195.206C100.514 193.42 103.672 192.417 106.925 192.304C108.676 192.264 107.24 190.996 106.809 190.996ZM84.858 177.555C86.6543 178.082 87.2908 178.923 86.4713 180.32C83.4078 185.568 80.7758 194.543 78.867 204.925C78.5737 206.538 78.1835 206.304 76.8759 206.171C65.2047 204.886 53.7929 201.855 43.0225 197.178C22.8607 188.578 8.62747 178.895 7.75796 155.203C7.0553 136.094 12.5266 112.872 31.1868 103.672C31.3741 103.572 31.5937 103.549 31.7974 103.61C32.0011 103.671 32.1723 103.811 32.2732 103.998C32.374 104.185 32.3964 104.405 32.3353 104.609C32.2743 104.812 32.1348 104.984 31.9475 105.084C13.0463 115.334 7.8175 139.162 9.75202 159.019C11.8769 180.804 29.5301 190.276 48.0712 197.366C57.5694 200.913 67.4278 203.409 77.4698 204.808C77.4698 198.25 80.936 185.505 84.7161 179.373C69.5196 174.971 55.3462 167.6 43.0152 157.688C42.8782 157.572 42.7922 157.406 42.7756 157.228C42.7589 157.049 42.813 156.871 42.9261 156.731C43.0393 156.592 43.2025 156.502 43.3809 156.482C43.5592 156.462 43.7385 156.512 43.8803 156.622C44.7192 157.264 45.5656 157.895 46.4197 158.515C45.0475 151.248 46.9415 137.125 50.6518 130.306C51.0921 129.501 52.2968 130.216 52.0182 130.998C47.8037 142.811 47.2422 147.421 47.9272 159.592C59.1516 167.593 71.6329 173.665 84.8565 177.556L84.858 177.555ZM67.4157 197.298C66.9164 197.344 66.4556 197.585 66.1343 197.97C65.813 198.355 65.6574 198.852 65.7017 199.351C65.7741 199.769 65.9695 200.156 66.2631 200.463C66.5566 200.769 66.9349 200.981 67.3496 201.071C67.6017 201.098 67.8566 201.072 68.098 200.994C68.3394 200.917 68.5618 200.789 68.7509 200.621C68.9401 200.452 69.0917 200.245 69.1961 200.014C69.3004 199.783 69.3552 199.533 69.3568 199.279C69.3601 199.021 69.3125 198.766 69.2166 198.526C69.1207 198.287 68.9785 198.069 68.7981 197.885C68.6177 197.701 68.4027 197.554 68.1655 197.454C67.9282 197.353 67.6734 197.3 67.4157 197.298ZM92.1749 211.304C93.298 211.052 93.7882 212.504 92.7276 212.722C68.0405 217.818 37.4689 215.961 16.7294 212.674C16.554 212.636 16.396 212.541 16.2803 212.404C16.1646 212.267 16.0976 212.095 16.0899 211.916C14.6236 203.264 13.0617 189.401 13.524 180.758C13.5317 180.601 13.5996 180.452 13.7136 180.344C13.8276 180.235 13.9789 180.175 14.1363 180.175C14.2937 180.175 14.445 180.235 14.559 180.344C14.673 180.452 14.7408 180.601 14.7485 180.758C14.5582 191.953 16.5684 201.521 17.3703 211.129C67.4774 217.487 92.7467 211.304 92.1749 211.304ZM68.4601 175.233C62.8631 180.099 59.269 191.862 59.6328 198.881C59.6725 199.648 60.9308 199.629 60.983 198.868C61.7834 187.341 65.6017 180.234 69.5729 176.307C70.1653 175.716 69.1665 174.617 68.4601 175.231V175.233ZM107.117 181.755C107.833 182.072 107.811 183.36 106.992 183.299C103.695 183.056 97.9006 184.162 95.783 184.396C92.5939 184.751 90.0934 185.138 87.2445 183.437C86.5404 183.017 87.1652 182.003 87.8766 182.221C90.7468 183.051 93.7829 183.123 96.6893 182.431C99.1545 182.061 105.007 180.82 107.116 181.754L107.117 181.755ZM65.8876 105.369C62.9668 103.945 62.2332 104.772 60.5501 107.192C58.6792 110.019 57.1202 113.041 55.9005 116.205C46.7019 112.121 41.7547 108.11 34.4171 101.844C36.4965 100.563 38.4964 99.885 40.5904 98.7818C40.7397 98.7019 40.856 98.5717 40.9185 98.4143C40.9811 98.2569 40.986 98.0825 40.9323 97.9219C40.8786 97.7613 40.7698 97.6248 40.6252 97.5367C40.4806 97.4486 40.3094 97.4145 40.1421 97.4404C37.7723 98.2359 35.5166 99.3377 33.4322 100.718C32.6127 101.304 32.393 101.649 33.0934 102.449C37.6041 107.603 48.5732 115.235 54.8509 117.509C56.5502 118.125 56.6546 118.017 57.4903 116.482C58.8581 113.956 59.6519 111.633 61.2263 109.196C62.769 106.806 63.2409 105.677 65.6767 107.077C68.2337 108.339 70.3988 110.273 71.9396 112.673C72.4042 113.347 73.453 112.643 73.1289 111.879C73.2898 111.871 71.2451 107.98 65.8876 105.369ZM60.4869 104.288C55.0785 102.966 49.9958 100.557 45.548 97.2074C44.9203 96.7671 44.0949 97.7337 44.6829 98.2526C47.0672 100.36 56.2827 105.719 60.101 105.55C60.7169 105.524 61.1976 104.494 60.4869 104.288ZM98.3577 177.403C98.4651 179.872 96.6525 180.35 96.5864 177.728C96.1041 166.701 94.2223 155.779 90.9864 145.226C87.8655 133.717 82.072 123.107 74.077 114.26C73.5155 113.622 74.3703 112.647 74.9906 113.277C82.2987 120.652 89.1894 132.649 92.6394 144.73C95.6201 155.406 97.5366 166.35 98.3607 177.403L98.3577 177.403ZM153.452 92.1513C153.503 91.9787 153.619 91.8324 153.776 91.7433C153.932 91.6541 154.117 91.6288 154.292 91.6727C154.466 91.7167 154.617 91.8264 154.713 91.979C154.809 92.1316 154.842 92.3153 154.805 92.4916C154.027 98.7634 150.86 103.121 147.542 108.155C144.97 112.183 141.857 115.839 138.29 119.021C137.68 119.571 136.853 118.607 137.338 117.994C140.771 113.679 142.941 111.996 145.874 107.289C150.058 100.594 150.584 100.052 153.452 92.1513ZM151.452 84.0737C151.463 83.8919 151.407 83.7124 151.293 83.5701C151.179 83.4278 151.017 83.3329 150.837 83.3038C150.657 83.2747 150.473 83.3136 150.32 83.4128C150.167 83.5121 150.057 83.6646 150.011 83.8407C148.516 89.7425 145.945 95.3178 142.427 100.286C142.337 100.442 142.306 100.624 142.34 100.8C142.373 100.976 142.468 101.135 142.608 101.247C142.748 101.359 142.924 101.417 143.103 101.411C143.282 101.405 143.453 101.335 143.585 101.213C146.647 97.9637 151.941 88.9475 151.458 84.073L151.452 84.0737ZM144.638 81.3079C143.148 87.1657 140.879 92.7972 137.893 98.0519C137.514 98.759 138.586 99.3396 139.066 98.759C142.849 93.7165 145.25 87.773 146.029 81.5174C146.049 81.3374 145.998 81.1568 145.888 81.0133C145.778 80.8698 145.616 80.7746 145.437 80.7475C145.258 80.7204 145.075 80.7636 144.928 80.8681C144.78 80.9725 144.678 81.1301 144.644 81.3079H144.638ZM138.305 80.5222C136.913 86.9768 134.888 93.2783 132.258 99.3352C131.935 100.128 133.163 100.655 133.602 99.9526C135.924 96.2387 139.956 85.493 139.754 80.7743C139.723 79.9503 138.495 79.6659 138.311 80.5222H138.305ZM126.533 91.2627C126.949 90.5865 128.193 90.9254 127.903 91.7405C125.02 99.8255 125.297 102.591 124.677 110.561C124.613 111.376 123.486 111.134 123.365 110.474C122.415 105.292 123.782 95.7624 126.538 91.2627H126.533ZM136.082 129.542C135.444 130.356 134.733 129.998 134.096 129.566C133.881 129.369 133.73 129.112 133.663 128.829C133.595 128.545 133.615 128.248 133.719 127.975C133.822 127.703 134.006 127.468 134.245 127.301C134.484 127.134 134.768 127.043 135.059 127.04C135.351 127.036 135.637 127.121 135.879 127.282C136.122 127.443 136.311 127.673 136.422 127.943C136.532 128.213 136.558 128.51 136.498 128.795C136.437 129.08 136.292 129.341 136.082 129.542ZM133.042 134.409C133.364 134.995 132.536 135.968 132.059 135.491C128.04 131.472 119.183 126.452 115.18 124.04C114.519 123.641 115.101 122.633 115.788 122.867C119.102 124.009 131.376 131.372 133.048 134.409H133.042ZM103.207 142.287C103.541 143.068 102.314 143.9 101.855 143.218C97.9749 137.7 93.1885 132.878 87.6988 128.957C87.0226 128.471 87.8568 127.539 88.5256 127.983C92.2911 130.492 101.432 138.129 103.212 142.287H103.207ZM214.744 90.5079C214.928 90.4273 215.135 90.4194 215.324 90.4857C215.513 90.552 215.67 90.6876 215.763 90.8651C215.857 91.0426 215.879 91.2488 215.826 91.4421C215.773 91.6354 215.648 91.8014 215.478 91.9066C211.278 94.5146 206.408 95.8372 201.466 95.7117C201.436 97.6462 200.908 99.5403 199.933 101.212C199.826 101.299 199.696 101.354 199.558 101.369C199.42 101.385 199.281 101.36 199.157 101.298C199.033 101.236 198.93 101.14 198.859 101.02C198.789 100.901 198.754 100.764 198.76 100.625C199.415 99.0059 199.811 97.2938 199.933 95.5514C197.239 95.1881 194.694 94.0971 192.573 92.3958C190.452 90.6945 188.835 88.4473 187.896 85.8957C185.307 78.828 187.479 70.998 190.178 64.2985C190.23 64.1307 190.346 63.9901 190.5 63.907C190.655 63.824 190.836 63.8052 191.005 63.8547C191.174 63.9043 191.316 64.0181 191.401 64.1717C191.487 64.3253 191.508 64.5063 191.461 64.6756C190.161 68.6013 189.221 72.6372 188.653 76.7332C187.973 85.2379 191.683 92.6533 200.677 93.5302C205.441 93.9888 210.318 92.3277 214.745 90.5079H214.744ZM197.131 101.02C197.769 103.275 198.754 105.418 200.049 107.372C208.019 105.104 215.733 102.02 223.07 98.1688C224.337 97.5396 224.553 97.4544 225.81 98.1394C227.973 99.3892 229.957 100.928 231.706 102.713C231.873 102.859 231.977 103.064 231.994 103.286C232.012 103.507 231.942 103.727 231.8 103.897C231.658 104.068 231.455 104.176 231.234 104.199C231.013 104.222 230.792 104.157 230.618 104.019C228.797 102.254 226.806 100.673 224.672 99.3022C217.379 103.5 209.53 106.648 201.357 108.651C203.138 110.135 204.835 111.717 206.439 113.389C209.277 116.117 209.192 116.58 213.14 114.945C217.696 113.169 221.922 110.641 225.641 107.467C226.332 106.858 227.155 107.886 226.542 108.548C223.399 111.94 216.979 115.519 212.612 117.088C209.568 118.181 208.4 117.76 206.173 115.596C204.989 114.446 200.455 109.719 199.556 109.104C197.071 110.233 194.662 111.523 192.347 112.968C191.127 113.613 190.741 112.339 191.797 111.538C193.918 110.19 196.139 109.007 198.442 108C197.379 106.226 196.526 104.334 195.9 102.362C194.316 103.782 192.945 105.423 191.831 107.234C191.74 107.361 191.607 107.452 191.456 107.49C191.305 107.527 191.145 107.51 191.005 107.441C190.865 107.372 190.754 107.256 190.693 107.112C190.631 106.969 190.622 106.809 190.668 106.66C191.657 104.541 193.09 102.66 194.869 101.143C195.117 101.142 196.403 99.1243 197.131 101.018L197.131 101.02ZM228.352 57.058C227.192 56.7427 227.094 55.885 228.306 55.1514C230.676 53.7219 229.807 50.5577 227.582 49.3097C226.345 48.7304 224.98 48.4801 223.619 48.5829C222.257 48.6856 220.945 49.138 219.81 49.8962C218.707 50.7451 218.003 49.9388 217.992 49.0561C217.973 46.913 217.19 44.8469 215.783 43.2302C214.376 41.6136 212.438 40.5528 210.318 40.239C206.034 39.5952 199.529 41.7715 197.689 45.9705C197.445 46.5262 196.516 46.89 196.086 46.2888C193.71 42.9379 189.178 43.6803 186.126 45.6332C178.528 50.4952 183.047 56.5634 189.498 59.2946C195.7 61.9223 202.946 61.8355 209.504 60.9998C211.443 60.7521 211.744 61.1468 212.155 63.088C212.615 65.0952 213.52 66.9735 214.803 68.5842C216.086 70.195 217.714 71.4971 219.567 72.3945C221.896 68.28 227.807 69.4398 229.571 73.9785C231.246 78.2878 228.518 83.2733 223.589 84.8087C223.589 90.957 224.469 94.6915 224.348 95.278C224.216 95.941 223.4 95.8984 223.064 95.4581C221.938 93.9815 221.779 86.5661 222.023 84.7977C222.224 83.3313 222.141 83.3519 223.622 82.8183C225.199 82.2789 226.524 81.1796 227.345 79.7287C228.167 78.2777 228.427 76.5759 228.078 74.9457C227.141 71.5368 223.188 70.2314 220.799 73.1861C220.267 73.8447 219.927 73.991 218.453 73.4412C216.251 72.4764 214.331 70.965 212.877 69.0503C211.422 67.1357 210.481 64.8812 210.142 62.5007C183.804 66.8629 173.373 51.5441 185.088 43.9971C188.754 41.6421 193.645 41.1262 196.724 44.1772C198.637 39.9583 206.373 37.8312 210.578 38.4589C215.284 39.1645 219.583 43.06 219.916 47.8433C221.326 47.142 222.886 46.7982 224.46 46.8422C226.035 46.8861 227.574 47.3165 228.942 48.0954C231.651 49.9065 232.608 53.8071 230.011 56.1503C235.931 57.7908 238.507 65.3694 237.715 72.0954C237.355 75.4913 236.127 78.7375 234.15 81.5217C232.172 84.306 229.512 86.5346 226.424 87.9934C225.397 88.4506 224.582 86.9277 225.609 86.4374C228.374 85.1657 230.772 83.2141 232.578 80.7648C234.385 78.3155 235.541 75.4485 235.939 72.4313C236.626 66.6954 234.564 58.7463 228.35 57.0566L228.352 57.058ZM208.828 82.7845C209.089 81.2579 210.956 81.9679 210.533 83.4886C209.5 87.2188 203.231 86.6381 200.885 86.128C200.045 85.9479 200.225 84.6617 201.083 84.7984C202.972 85.1225 208.379 85.3923 208.828 82.7852V82.7845ZM203.674 67.6097C204.136 67.3331 204.655 67.1661 205.192 67.1216C205.728 67.0771 206.268 67.1562 206.769 67.353C207.27 67.5497 207.719 67.8587 208.082 68.2563C208.445 68.6539 208.712 69.1295 208.862 69.6464C209.123 70.8194 208.057 71.3589 207.573 70.3652C207.265 69.746 206.754 69.2512 206.125 68.9632C205.497 68.6752 204.788 68.6115 204.118 68.7827C203.555 68.8357 202.961 68.0147 203.674 67.6097ZM196.782 67.2694C197.345 67.9382 196.508 68.6034 195.639 68.2962C195.111 68.0863 194.53 68.0498 193.979 68.1918C193.429 68.3338 192.939 68.6471 192.578 69.0863C192.467 69.2044 192.317 69.2794 192.156 69.2981C191.995 69.3167 191.833 69.2778 191.697 69.1882C191.562 69.0986 191.463 68.964 191.417 68.8083C191.371 68.6526 191.382 68.4858 191.448 68.3373C192.164 66.7314 195.376 65.598 196.788 67.2701L196.782 67.2694ZM194.89 73.0024C195.048 73.9439 194.505 74.9891 193.619 74.9876C192.491 74.9876 192.33 74.0917 192.375 73.3677C192.327 73.0335 192.413 72.6937 192.615 72.4231C192.817 72.1525 193.119 71.9733 193.453 71.9249C193.787 71.8764 194.127 71.9627 194.397 72.1648C194.668 72.3669 194.847 72.6682 194.896 73.0024H194.89ZM204.623 72.1064C205.281 72.3012 205.451 73.3236 205.369 73.866C205.222 74.8075 204.549 75.6888 203.559 75.3559C203.205 75.2 202.923 74.9151 202.771 74.5589C202.619 74.2027 202.608 73.802 202.741 73.4382C203.033 72.5467 203.871 71.8822 204.627 72.1072L204.623 72.1064ZM200.709 79.8695C201.605 80.2568 201.043 81.6291 200.138 81.4328C199.037 81.1851 198.063 81.6203 196.959 81.474C194.87 81.1969 194.417 79.6556 195.137 77.899C195.778 76.202 196.686 74.6181 197.826 73.2067C198.274 72.8444 198.883 73.3809 198.782 73.8726C198.635 74.587 197.817 75.6146 196.804 78.1246C196.346 79.2653 196.083 79.9386 197.646 79.8474C198.655 79.6035 199.709 79.6111 200.715 79.8695H200.709ZM183.926 189.063C176.088 189.97 178.041 207.166 181.089 212.691C177.717 217.184 162.564 216.387 158.845 214.534C157.744 189.378 160.86 170.846 166.617 146.576C166.668 146.4 166.648 146.211 166.562 146.05C166.477 145.888 166.332 145.766 166.158 145.709C165.984 145.652 165.795 145.664 165.63 145.744C165.465 145.824 165.338 145.964 165.274 146.136C160.276 159.579 157.639 179.518 157.088 193.792C148.652 197.05 140.032 199.807 131.272 202.05C129.658 196.022 121.176 181.194 115.696 178.319C135.832 168.027 149.753 158.392 158.708 141.244C167.995 123.459 179.952 109.902 190.177 105.245C187.382 113.236 186.005 146.449 190.775 157.886C187.147 167.936 184.847 178.417 183.933 189.063L183.926 189.063ZM175.033 143.287C176.093 140.461 177.495 137.777 179.208 135.292C177.26 132.703 175.872 129.736 175.133 126.581C175.031 125.856 176.107 125.426 176.387 126.152C177.211 128.763 178.443 131.227 180.038 133.452C181.081 134.846 180.964 135.141 180.207 136.512C178.599 139.471 177.179 142.527 175.955 145.664C179.493 153.503 181.643 156.145 186.603 162.27C187.19 163.003 186.464 163.984 185.807 163.388C181.177 158.671 177.469 153.129 174.877 147.048C174.024 144.778 174.167 145.449 175.04 143.287H175.033ZM210.463 187.68C211.278 187.929 211.066 189.227 210.196 189.331C206.546 189.771 203.361 184.785 199.587 184.875C196.654 184.942 194.54 188.526 191.116 188.687C190.933 188.696 190.754 188.635 190.615 188.516C190.476 188.397 190.388 188.229 190.369 188.047C190.35 187.865 190.402 187.683 190.514 187.538C190.625 187.393 190.788 187.296 190.969 187.268C194.104 186.64 195.924 183.398 199.7 182.882C202.79 182.464 207.578 186.8 210.462 187.68H210.463ZM197.559 214.94C193.577 215.123 186.378 215.437 183.877 211.776C183.407 211.09 182.451 211.878 182.731 212.558C184.624 217.157 192.722 217.024 196.837 216.892C203.167 216.72 209.41 215.38 215.254 212.94C216.412 212.447 215.532 210.758 214.387 211.207C209.017 213.36 203.332 214.622 197.555 214.943L197.559 214.94ZM192.228 209.482C187.151 211.404 180.912 210.286 180.759 206.083C180.73 205.291 182.006 205.071 182.14 205.853C182.885 210.128 189.834 207.826 191.768 207.97C192.499 207.973 193.059 209.169 192.222 209.485L192.228 209.482ZM191.282 202.15C188.225 202.003 183.561 203.538 181.775 199.412C181.392 198.532 180.265 199.064 180.413 199.999C181.019 203.804 185.387 204.956 191.528 203.811C192.387 203.655 192.095 202.148 191.283 202.148L191.282 202.15ZM192.161 196.072C191.545 195.845 187.711 196.245 186.176 195.889C185.13 195.647 183.01 194.622 183.661 193.119C183.753 192.941 183.77 192.733 183.708 192.542C183.647 192.351 183.512 192.192 183.334 192.101C183.155 192.009 182.948 191.992 182.757 192.054C182.566 192.115 182.407 192.25 182.315 192.428C180.896 194.557 182.996 196.742 184.944 197.368C187.34 197.902 189.822 197.916 192.223 197.411C192.343 197.342 192.442 197.241 192.509 197.12C192.575 196.998 192.607 196.861 192.601 196.722C192.595 196.584 192.551 196.45 192.473 196.335C192.396 196.22 192.289 196.129 192.163 196.071L192.161 196.072ZM233.873 105.244C270.814 111.139 290.502 168.33 285.548 187.839C281.484 203.848 240.582 219.392 219.933 217.485C217.204 216.441 212.858 194.773 213.123 185.471C226.329 182.667 242.392 177.962 251.737 167.699C252.323 167.046 251.492 166.048 250.801 166.657C248.728 168.479 246.531 170.155 244.226 171.673C242.899 166.475 237.783 157.463 234.548 153.613C234.451 153.462 234.298 153.356 234.122 153.318C233.947 153.281 233.764 153.314 233.613 153.411C233.463 153.509 233.357 153.662 233.319 153.837C233.281 154.012 233.315 154.196 233.412 154.346C237.664 161.463 240.251 165.252 242.524 172.757C231.976 179.222 221.736 181.546 211.01 184.195C206.626 182.945 203.036 179.626 201.15 179.404C194.242 178.595 191.575 185.024 187.253 185.501C189.898 156.14 205.276 123.741 233.87 105.243L233.873 105.244ZM235.461 123.151C229.899 125.632 224.578 128.619 219.563 132.075C220.749 135.569 223.15 140.065 224.283 143.027C224.802 144.382 224.482 144.955 223.403 145.814C212.703 154.276 202.928 163.845 194.241 174.363C193.669 175.05 192.786 174.101 193.28 173.384C200.493 162.911 213.457 151.16 222.763 144.081C221.046 140.744 219.598 137.276 218.433 133.709C217.665 131.306 217.692 131.688 219.615 130.169C224.731 126.379 230.326 123.282 236.253 120.959C236.532 118.096 236.373 115.206 235.781 112.391C235.634 111.752 236.763 111.333 237.085 111.98C238.175 114.638 238.463 117.556 237.912 120.375C237.528 122.428 237.434 122.333 235.459 123.148L235.461 123.151Z" fill="white"/>
</svg>
