<svg width="294" height="249" viewBox="0 0 294 249" fill="none" xmlns="http://www.w3.org/2000/svg">
<path d="M195.505 120.702C194.98 118.671 194.668 116.591 194.574 114.495C196.099 113.029 198.24 111.2 199.131 111.137C200.086 111.068 203.133 115.137 203.577 116.218C202.314 117.703 201.306 119.388 200.595 121.203C198.919 120.863 197.214 120.695 195.505 120.702H195.505ZM200.367 122.992C198.751 122.619 197.107 122.382 195.451 122.285C194.64 125.189 191.492 129.233 189.838 136.446C190.096 142.375 190.974 148.261 192.457 154.008C194.057 147.942 196.709 143.348 200.269 137.5C200.636 133.841 200.19 126.941 200.375 122.992L200.367 122.992ZM70.2122 119.567C70.1916 117.853 71.0244 113.325 70.9685 112.661C68.9686 110.669 66.0653 108.724 65.2995 108.702C64.2646 108.681 60.5367 115.418 59.9648 116.275C63.6178 118.797 65.2039 119.614 66.069 120.715C67.3782 120.11 68.7782 119.722 70.2122 119.567ZM70.9685 168.024C71.1736 162.28 67.8264 129.313 66.6019 122.32C67.9816 121.766 69.4313 121.407 70.9097 121.251C73.4947 125.784 83.0901 143.246 85.8956 175.038C83.2004 174.062 73.4447 170.201 70.9685 168.032V168.024Z" fill="#F07D29"/>
<path d="M79.4227 65.1678C79.4014 64.9615 79.3005 64.7716 79.1413 64.6386C78.9822 64.5056 78.7774 64.4399 78.5706 64.4556C78.3637 64.4713 78.1712 64.5672 78.034 64.7227C77.8968 64.8782 77.8257 65.0812 77.8358 65.2883C78.1315 69.6859 78.1848 74.0965 77.9953 78.4999C77.8483 82.8048 77.6623 92.3099 73.3589 94.7559C69.448 96.9786 59.3601 94.9287 55.4918 93.3719C55.3355 93.3055 55.1595 93.3022 55.0008 93.3627C54.8421 93.4232 54.713 93.5428 54.6406 93.6965C54.5681 93.8501 54.558 94.0258 54.6123 94.1867C54.6666 94.3477 54.781 94.4813 54.9317 94.5597C57.413 95.7358 60.0602 96.5236 62.7808 96.8955C62.9175 98.7845 62.7529 101.6 62.9521 102.566C62.9816 102.729 63.0678 102.876 63.1953 102.981C63.3228 103.086 63.4834 103.142 63.6487 103.14C63.8139 103.139 63.9732 103.078 64.0982 102.97C64.2232 102.862 64.3059 102.713 64.3316 102.55C64.525 101.377 64.2861 98.7007 64.3052 97.0866C74.4533 98.1362 79.0537 97.0866 79.6785 78.1538C79.9128 73.8252 79.8271 69.4852 79.4219 65.1692L79.4227 65.1678ZM82.4685 55.518C83.618 61.1855 79.9232 62.7658 75.0546 62.7335C69.6464 62.6952 64.2376 62.6453 58.8294 62.6717C57.5094 67.9505 55.6035 70.0313 52.0388 73.7981C51.8264 74.0223 51.417 74.2509 51.2016 74.012C49.6015 72.2421 46.3727 72.4707 45.5267 75.9693C45.2219 77.3205 45.3867 78.7353 45.994 79.9802C46.6013 81.2251 47.6148 82.2258 48.8672 82.8173C50.2468 83.631 49.1605 84.3425 48.2499 83.9434C47.7993 83.7243 47.3747 83.4553 46.9842 83.1415C47.1554 86.8598 47.1819 91.9541 46.9577 95.5453C46.9077 96.3531 45.5811 96.2186 45.5899 95.4689C45.6898 91.6565 45.585 87.8415 45.276 84.0404C40.2802 78.6006 38.1995 69.9637 38.37 62.8474C38.5251 56.2868 42.3044 49.1992 48.2278 55.7517C50.3938 51.7938 53.9046 48.7416 58.1253 47.147C66.1625 44.0108 80.4281 45.5006 82.4678 55.5165L82.4685 55.518ZM76.9273 57.1107C77.6609 58.577 79.2529 56.9556 78.5561 55.1284C76.6672 50.1782 68.0603 48.8743 63.6466 50.2149C62.8242 50.4641 63.1439 51.6416 63.9399 51.6357C69.0503 51.5901 74.4577 52.1046 76.9273 57.1107ZM73.1458 66.9685C74.2821 66.7135 75.9858 67.4088 76.0005 68.7884C75.9856 68.9001 75.9378 69.0048 75.8632 69.0893C75.7885 69.1737 75.6904 69.234 75.5814 69.2625C75.4723 69.2909 75.3573 69.2863 75.2509 69.2491C75.1445 69.2119 75.0516 69.1439 74.984 69.0537C74.8389 68.7664 74.6049 68.5337 74.3168 68.3903C74.0288 68.2469 73.702 68.2004 73.3854 68.2577C73.2266 68.2634 73.0711 68.212 72.9471 68.1127C72.8231 68.0134 72.7388 67.8729 72.7097 67.7167C72.6806 67.5605 72.7085 67.3991 72.7884 67.2618C72.8683 67.1244 72.9956 67.0204 73.1458 66.9685ZM63.8274 67.7381C65.0299 67.902 64.7278 69.1941 63.8274 69.1706C63.3423 69.1697 62.871 69.332 62.4893 69.6315C62.1076 69.9309 61.8378 70.35 61.7231 70.8214C61.6822 70.9751 61.5867 71.1086 61.4544 71.1969C61.3222 71.2853 61.1623 71.3224 61.0047 71.3014C60.8471 71.2804 60.7025 71.2028 60.598 71.0829C60.4935 70.963 60.4362 70.8092 60.4369 70.6501C60.4644 70.2348 60.5744 69.8291 60.7604 69.4567C60.9464 69.0843 61.2047 68.7527 61.5203 68.4812C61.8359 68.2097 62.2023 68.0037 62.5983 67.8754C62.9943 67.7471 63.4119 67.6989 63.8267 67.7337L63.8274 67.7381ZM66.1383 73.4681C66.2103 74.2906 66.4742 75.8716 65.5797 76.2001C64.2133 76.7029 63.8201 74.6103 63.9509 73.7408C64.1986 72.0621 66.0045 71.9739 66.1383 73.4681ZM75.0068 74.1179C75.0656 74.7544 75.0641 75.7525 74.382 75.9127C73.209 76.1884 72.9157 75.1682 72.851 74.162C72.7996 73.4042 72.9495 72.2848 73.908 72.2414C74.9487 72.1958 74.937 73.3865 75.0031 74.1186L75.0068 74.1179ZM73.2751 80.3117C73.8617 82.3366 71.0143 82.8048 69.2591 82.1771C68.6608 81.9647 68.9247 80.9762 69.4539 80.9203C70.1455 80.9415 70.8379 80.9224 71.5273 80.863C72.1491 80.7233 71.8206 80.5785 71.5788 79.9009C71.0878 78.5712 70.4057 77.002 70.0595 75.6584C70.0272 75.5086 70.0493 75.3522 70.1217 75.2172C70.1942 75.0822 70.3124 74.9774 70.455 74.9215C70.5977 74.8656 70.7556 74.8624 70.9005 74.9123C71.0454 74.9622 71.1678 75.062 71.2458 75.1939C72.0395 76.851 72.7176 78.561 73.2751 80.3117ZM67.828 87.2633C65.576 90.196 60.1385 88.5393 60.5787 83.1003C62.3442 86.3086 66.6741 87.0664 67.828 87.2633ZM59.2646 82.3043C59.6813 80.4771 60.3479 80.6726 61.3762 81.8089C66.4161 87.3809 70.9077 84.7416 69.7346 87.1347C69.3254 87.9315 68.7274 88.6159 67.9927 89.1283C67.2581 89.6407 66.4092 89.9655 65.5201 90.0742C64.631 90.183 63.7289 90.0724 62.8924 89.7522C62.0559 89.432 61.3105 88.9118 60.7213 88.2372C60.0565 87.4166 59.5813 86.4593 59.3296 85.4336C59.0779 84.408 59.0552 83.3394 59.2646 82.3043ZM140.923 126.294C134.423 118.864 127.95 115.712 118.825 112.58C116.17 119.718 108.332 132.19 102.301 137.39C101.744 137.87 100.813 137.088 101.314 136.51C107.907 129.35 113.251 121.135 117.124 112.206C117.71 110.971 117.71 110.918 119.121 111.149C127.345 112.496 136.055 118.244 141.573 124.238C142.712 125.477 142.668 125.805 142.013 127.236C136.569 139.215 129.256 153.593 121.631 164.075C117.341 169.976 113.083 174.448 102.586 176.637C101.714 176.819 101.435 175.186 102.363 175.043C111.813 173.577 116.748 168.454 121.946 160.619C134.365 141.913 140.467 126.298 140.922 126.298L140.923 126.294ZM113.517 210.303C106.614 210.798 102.893 209.852 96.6106 207.057C92.4211 205.191 85.3563 201.461 80.9213 201.474C80.2731 201.474 79.943 202.622 80.6281 202.769C86.2383 203.966 91.2576 206.804 97.0671 209.27C101.774 211.267 108.733 213.529 113.755 211.763C114.421 211.536 114.516 210.308 113.518 210.308L113.517 210.303ZM119.044 208.9C114.269 210.188 104.846 207.6 101.035 205.026C100.365 204.574 101.074 203.624 101.747 203.887C110.568 207.331 114.099 207.528 118.902 207.529C119.057 207.556 119.199 207.632 119.306 207.746C119.413 207.861 119.48 208.007 119.496 208.163C119.512 208.319 119.476 208.476 119.395 208.61C119.313 208.744 119.19 208.847 119.044 208.904V208.9ZM122.542 205.753C117.085 206.468 108.831 204.193 104.266 201.146C103.622 200.716 104.255 199.71 104.936 199.995C112.058 202.994 114.997 203.419 122.532 204.293C122.719 204.302 122.896 204.382 123.026 204.518C123.156 204.653 123.229 204.833 123.231 205.021C123.232 205.208 123.161 205.389 123.033 205.526C122.905 205.663 122.729 205.746 122.542 205.758V205.753ZM122.982 202.039C117.339 201.297 111.931 199.313 107.146 196.232C106.568 195.791 106.841 194.756 107.631 194.975C110.418 195.743 118.364 199.648 123.359 200.488C124.082 200.492 123.91 202.143 122.977 202.05L122.982 202.039ZM106.809 190.995C103.982 190.409 98.3261 192.845 96.0359 194.352C95.5545 194.796 94.9933 195.144 94.3821 195.379C93.7103 195.508 93.5611 194.656 93.9419 193.938C98.1938 185.781 110.266 187.339 115.552 180.959C116.036 180.372 115.246 179.493 114.628 179.973C109.852 183.658 106.373 184.063 101.099 186.188C98.0454 187.417 93.1966 190.326 92.1088 193.871C91.7023 195.191 91.9941 196.886 93.7221 197.065C95.2766 197.227 96.5415 195.926 97.7925 195.205C100.514 193.42 103.672 192.416 106.925 192.304C108.676 192.264 107.24 190.995 106.809 190.995ZM84.858 177.555C86.6543 178.081 87.2908 178.923 86.4713 180.32C83.4078 185.567 80.7758 194.542 78.867 204.924C78.5737 206.538 78.1835 206.304 76.8759 206.171C65.2047 204.886 53.7929 201.854 43.0225 197.178C22.8607 188.578 8.62747 178.894 7.75796 155.203C7.0553 136.094 12.5266 112.871 31.1868 103.672C31.3741 103.571 31.5937 103.549 31.7974 103.61C32.0011 103.671 32.1723 103.811 32.2732 103.998C32.374 104.185 32.3964 104.405 32.3353 104.608C32.2743 104.812 32.1348 104.983 31.9475 105.084C13.0463 115.334 7.8175 139.162 9.75202 159.018C11.8769 180.804 29.5301 190.276 48.0712 197.366C57.5694 200.913 67.4278 203.408 77.4698 204.807C77.4698 198.25 80.936 185.505 84.7161 179.373C69.5196 174.971 55.3462 167.6 43.0152 157.687C42.8782 157.571 42.7922 157.406 42.7756 157.227C42.7589 157.049 42.813 156.87 42.9261 156.731C43.0393 156.592 43.2025 156.502 43.3809 156.482C43.5592 156.461 43.7385 156.511 43.8803 156.622C44.7192 157.264 45.5656 157.895 46.4197 158.515C45.0475 151.248 46.9415 137.124 50.6518 130.306C51.0921 129.501 52.2968 130.216 52.0182 130.998C47.8037 142.811 47.2422 147.421 47.9272 159.592C59.1516 167.593 71.6329 173.665 84.8565 177.556L84.858 177.555ZM67.4157 197.298C66.9164 197.344 66.4556 197.585 66.1343 197.97C65.813 198.355 65.6574 198.851 65.7017 199.351C65.7741 199.769 65.9695 200.156 66.2631 200.462C66.5566 200.769 66.9349 200.981 67.3496 201.071C67.6017 201.098 67.8566 201.072 68.098 200.994C68.3394 200.916 68.5618 200.789 68.7509 200.62C68.9401 200.451 69.0917 200.245 69.1961 200.014C69.3004 199.783 69.3552 199.532 69.3568 199.279C69.3601 199.021 69.3125 198.765 69.2166 198.526C69.1207 198.287 68.9785 198.069 68.7981 197.885C68.6177 197.701 68.4027 197.554 68.1655 197.453C67.9282 197.353 67.6734 197.3 67.4157 197.298ZM92.1749 211.304C93.298 211.052 93.7882 212.504 92.7276 212.722C68.0405 217.818 37.4689 215.961 16.7294 212.673C16.554 212.636 16.396 212.541 16.2803 212.404C16.1646 212.267 16.0976 212.095 16.0899 211.916C14.6236 203.264 13.0617 189.4 13.524 180.758C13.5317 180.6 13.5996 180.452 13.7136 180.344C13.8276 180.235 13.9789 180.175 14.1363 180.175C14.2937 180.175 14.445 180.235 14.559 180.344C14.673 180.452 14.7408 180.6 14.7485 180.758C14.5582 191.953 16.5684 201.521 17.3703 211.129C67.4774 217.487 92.7467 211.304 92.1749 211.304ZM68.4601 175.233C62.8631 180.099 59.269 191.862 59.6328 198.881C59.6725 199.648 60.9308 199.629 60.983 198.868C61.7834 187.341 65.6017 180.234 69.5729 176.307C70.1653 175.716 69.1665 174.617 68.4601 175.231V175.233ZM107.117 181.755C107.833 182.072 107.811 183.359 106.992 183.299C103.695 183.056 97.9006 184.161 95.783 184.396C92.5939 184.751 90.0934 185.137 87.2445 183.437C86.5404 183.017 87.1652 182.003 87.8766 182.221C90.7468 183.05 93.7829 183.123 96.6893 182.43C99.1545 182.061 105.007 180.82 107.116 181.754L107.117 181.755ZM65.8876 105.369C62.9668 103.945 62.2332 104.772 60.5501 107.191C58.6792 110.019 57.1202 113.041 55.9005 116.205C46.7019 112.121 41.7547 108.109 34.4171 101.844C36.4965 100.563 38.4964 99.8848 40.5904 98.7815C40.7397 98.7016 40.856 98.5715 40.9185 98.4141C40.9811 98.2567 40.986 98.0823 40.9323 97.9216C40.8786 97.761 40.7698 97.6246 40.6252 97.5365C40.4806 97.4483 40.3094 97.4142 40.1421 97.4402C37.7723 98.2357 35.5166 99.3375 33.4322 100.718C32.6127 101.304 32.393 101.649 33.0934 102.449C37.6041 107.603 48.5732 115.235 54.8509 117.509C56.5502 118.125 56.6546 118.017 57.4903 116.482C58.8581 113.956 59.6519 111.633 61.2263 109.196C62.769 106.806 63.2409 105.677 65.6767 107.077C68.2337 108.339 70.3988 110.273 71.9396 112.672C72.4042 113.347 73.453 112.643 73.1289 111.879C73.2898 111.87 71.2451 107.98 65.8876 105.369ZM60.4869 104.288C55.0785 102.965 49.9958 100.556 45.548 97.2072C44.9203 96.7669 44.0949 97.7334 44.6829 98.2523C47.0672 100.36 56.2827 105.719 60.101 105.55C60.7169 105.524 61.1976 104.494 60.4869 104.288ZM98.3577 177.402C98.4651 179.872 96.6525 180.35 96.5864 177.728C96.1041 166.7 94.2223 155.779 90.9864 145.225C87.8655 133.717 82.072 123.107 74.077 114.26C73.5155 113.622 74.3703 112.647 74.9906 113.277C82.2987 120.651 89.1894 132.649 92.6394 144.73C95.6201 155.406 97.5366 166.35 98.3607 177.403L98.3577 177.402ZM153.452 92.1511C153.503 91.9784 153.619 91.8322 153.776 91.743C153.932 91.6538 154.117 91.6286 154.292 91.6725C154.466 91.7164 154.617 91.8261 154.713 91.9787C154.809 92.1314 154.842 92.315 154.805 92.4914C154.027 98.7631 150.86 103.121 147.542 108.155C144.97 112.183 141.857 115.839 138.29 119.02C137.68 119.57 136.853 118.607 137.338 117.994C140.771 113.679 142.941 111.996 145.874 107.289C150.058 100.594 150.584 100.052 153.452 92.1511ZM151.452 84.0734C151.463 83.8917 151.407 83.7122 151.293 83.5698C151.179 83.4275 151.017 83.3326 150.837 83.3035C150.657 83.2745 150.473 83.3133 150.32 83.4126C150.167 83.5118 150.057 83.6643 150.011 83.8405C148.516 89.7423 145.945 95.3176 142.427 100.286C142.337 100.441 142.306 100.624 142.34 100.8C142.373 100.976 142.468 101.135 142.608 101.247C142.748 101.359 142.924 101.417 143.103 101.411C143.282 101.404 143.453 101.334 143.585 101.213C146.647 97.9635 151.941 88.9472 151.458 84.0727L151.452 84.0734ZM144.638 81.3076C143.148 87.1654 140.879 92.7969 137.893 98.0517C137.514 98.7587 138.586 99.3394 139.066 98.7587C142.849 93.7162 145.25 87.7728 146.029 81.5171C146.049 81.3372 145.998 81.1565 145.888 81.013C145.778 80.8695 145.616 80.7743 145.437 80.7472C145.258 80.7202 145.075 80.7634 144.928 80.8679C144.78 80.9723 144.678 81.1299 144.644 81.3076H144.638ZM138.305 80.5219C136.913 86.9766 134.888 93.2781 132.258 99.335C131.935 100.128 133.163 100.655 133.602 99.9524C135.924 96.2384 139.956 85.4927 139.754 80.774C139.723 79.9501 138.495 79.6657 138.311 80.5219H138.305ZM126.533 91.2625C126.949 90.5863 128.193 90.9251 127.903 91.7402C125.02 99.8252 125.297 102.591 124.677 110.561C124.613 111.376 123.486 111.134 123.365 110.474C122.415 105.292 123.782 95.7621 126.538 91.2625H126.533ZM136.082 129.542C135.444 130.356 134.733 129.998 134.096 129.566C133.881 129.369 133.73 129.112 133.663 128.828C133.595 128.545 133.615 128.248 133.719 127.975C133.822 127.703 134.006 127.468 134.245 127.301C134.484 127.134 134.768 127.043 135.059 127.04C135.351 127.036 135.637 127.121 135.879 127.282C136.122 127.443 136.311 127.673 136.422 127.943C136.532 128.213 136.558 128.51 136.498 128.795C136.437 129.08 136.292 129.34 136.082 129.542ZM133.042 134.408C133.364 134.995 132.536 135.967 132.059 135.49C128.04 131.471 119.183 126.452 115.18 124.04C114.519 123.641 115.101 122.632 115.788 122.867C119.102 124.009 131.376 131.371 133.048 134.408H133.042ZM103.207 142.287C103.541 143.068 102.314 143.9 101.855 143.218C97.9749 137.7 93.1885 132.878 87.6988 128.957C87.0226 128.47 87.8568 127.539 88.5256 127.983C92.2911 130.492 101.432 138.128 103.212 142.287H103.207ZM214.744 90.5076C214.928 90.4271 215.135 90.4191 215.324 90.4854C215.513 90.5517 215.67 90.6873 215.763 90.8648C215.857 91.0423 215.879 91.2486 215.826 91.4419C215.773 91.6352 215.648 91.8012 215.478 91.9063C211.278 94.5143 206.408 95.837 201.466 95.7114C201.436 97.6459 200.908 99.5401 199.933 101.211C199.826 101.299 199.696 101.354 199.558 101.369C199.42 101.385 199.281 101.36 199.157 101.298C199.033 101.236 198.93 101.139 198.859 101.02C198.789 100.901 198.754 100.763 198.76 100.625C199.415 99.0057 199.811 97.2935 199.933 95.5512C197.239 95.1879 194.694 94.0969 192.573 92.3956C190.452 90.6943 188.835 88.447 187.896 85.8955C185.307 78.8277 187.479 70.9978 190.178 64.2983C190.23 64.1305 190.346 63.9898 190.5 63.9068C190.655 63.8238 190.836 63.805 191.005 63.8545C191.174 63.904 191.316 64.0179 191.401 64.1715C191.487 64.3251 191.508 64.5061 191.461 64.6753C190.161 68.6011 189.221 72.6369 188.653 76.733C187.973 85.2377 191.683 92.6531 200.677 93.53C205.441 93.9886 210.318 92.3275 214.745 90.5076H214.744ZM197.131 101.02C197.769 103.275 198.754 105.418 200.049 107.371C208.019 105.104 215.733 102.02 223.07 98.1685C224.337 97.5394 224.553 97.4541 225.81 98.1391C227.973 99.389 229.957 100.927 231.706 102.712C231.873 102.858 231.977 103.064 231.994 103.285C232.012 103.507 231.942 103.726 231.8 103.897C231.658 104.068 231.455 104.176 231.234 104.199C231.013 104.222 230.792 104.157 230.618 104.019C228.797 102.253 226.806 100.673 224.672 99.3019C217.379 103.5 209.53 106.648 201.357 108.651C203.138 110.135 204.835 111.716 206.439 113.389C209.277 116.117 209.192 116.58 213.14 114.945C217.696 113.169 221.922 110.641 225.641 107.466C226.332 106.858 227.155 107.886 226.542 108.548C223.399 111.939 216.979 115.519 212.612 117.088C209.568 118.18 208.4 117.76 206.173 115.595C204.989 114.446 200.455 109.718 199.556 109.104C197.071 110.232 194.662 111.523 192.347 112.968C191.127 113.613 190.741 112.339 191.797 111.538C193.918 110.19 196.139 109.007 198.442 108C197.379 106.225 196.526 104.333 195.9 102.362C194.316 103.781 192.945 105.422 191.831 107.234C191.74 107.361 191.607 107.451 191.456 107.489C191.305 107.527 191.145 107.51 191.005 107.441C190.865 107.372 190.754 107.255 190.693 107.112C190.631 106.969 190.622 106.808 190.668 106.659C191.657 104.541 193.09 102.66 194.869 101.143C195.117 101.142 196.403 99.124 197.131 101.018L197.131 101.02ZM228.352 57.0578C227.192 56.7425 227.094 55.8847 228.306 55.1512C230.676 53.7216 229.807 50.5574 227.582 49.3094C226.345 48.7302 224.98 48.4799 223.619 48.5826C222.257 48.6854 220.945 49.1377 219.81 49.8959C218.707 50.7449 218.003 49.9386 217.992 49.0558C217.973 46.9128 217.19 44.8467 215.783 43.23C214.376 41.6134 212.438 40.5525 210.318 40.2388C206.034 39.5949 199.529 41.7712 197.689 45.9703C197.445 46.526 196.516 46.8898 196.086 46.2886C193.71 42.9377 189.178 43.68 186.126 45.6329C178.528 50.495 183.047 56.5631 189.498 59.2944C195.7 61.922 202.946 61.8353 209.504 60.9996C211.443 60.7519 211.744 61.1466 212.155 63.0877C212.615 65.0949 213.52 66.9732 214.803 68.584C216.086 70.1947 217.714 71.4969 219.567 72.3943C221.896 68.2798 227.807 69.4396 229.571 73.9782C231.246 78.2875 228.518 83.273 223.589 84.8084C223.589 90.9567 224.469 94.6912 224.348 95.2778C224.216 95.9408 223.4 95.8981 223.064 95.4579C221.938 93.9812 221.779 86.5658 222.023 84.7974C222.224 83.3311 222.141 83.3517 223.622 82.8181C225.199 82.2787 226.524 81.1794 227.345 79.7284C228.167 78.2775 228.427 76.5757 228.078 74.9455C227.141 71.5365 223.188 70.2312 220.799 73.1859C220.267 73.8444 219.927 73.9907 218.453 73.4409C216.251 72.4761 214.331 70.9648 212.877 69.0501C211.422 67.1354 210.481 64.881 210.142 62.5005C183.804 66.8627 173.373 51.5438 185.088 43.9968C188.754 41.6419 193.645 41.1259 196.724 44.1769C198.637 39.958 206.373 37.8309 210.578 38.4586C215.284 39.1642 219.583 43.0597 219.916 47.8431C221.326 47.1418 222.886 46.798 224.46 46.8419C226.035 46.8859 227.574 47.3163 228.942 48.0952C231.651 49.9062 232.608 53.8069 230.011 56.1501C235.931 57.7906 238.507 65.3692 237.715 72.0951C237.355 75.4911 236.127 78.7372 234.15 81.5215C232.172 84.3057 229.512 86.5344 226.424 87.9932C225.397 88.4504 224.582 86.9274 225.609 86.4372C228.374 85.1654 230.772 83.2138 232.578 80.7645C234.385 78.3153 235.541 75.4482 235.939 72.431C236.626 66.6951 234.564 58.7461 228.35 57.0563L228.352 57.0578ZM208.828 82.7843C209.089 81.2577 210.956 81.9677 210.533 83.4884C209.5 87.2185 203.231 86.6379 200.885 86.1278C200.045 85.9477 200.225 84.6614 201.083 84.7982C202.972 85.1223 208.379 85.392 208.828 82.785V82.7843ZM203.674 67.6094C204.136 67.3328 204.655 67.1659 205.192 67.1213C205.728 67.0768 206.268 67.156 206.769 67.3527C207.27 67.5494 207.719 67.8585 208.082 68.2561C208.445 68.6537 208.712 69.1292 208.862 69.6461C209.123 70.8192 208.057 71.3587 207.573 70.365C207.265 69.7458 206.754 69.251 206.125 68.963C205.497 68.675 204.788 68.6113 204.118 68.7825C203.555 68.8354 202.961 68.0144 203.674 67.6094ZM196.782 67.2691C197.345 67.938 196.508 68.6032 195.639 68.2959C195.111 68.0861 194.53 68.0495 193.979 68.1915C193.429 68.3336 192.939 68.6468 192.578 69.0861C192.467 69.2042 192.317 69.2792 192.156 69.2978C191.995 69.3165 191.833 69.2775 191.697 69.1879C191.562 69.0983 191.463 68.9638 191.417 68.8081C191.371 68.6524 191.382 68.4856 191.448 68.3371C192.164 66.7311 195.376 65.5977 196.788 67.2699L196.782 67.2691ZM194.89 73.0021C195.048 73.9437 194.505 74.9888 193.619 74.9874C192.491 74.9874 192.33 74.0914 192.375 73.3674C192.327 73.0332 192.413 72.6935 192.615 72.4229C192.817 72.1523 193.119 71.9731 193.453 71.9246C193.787 71.8762 194.127 71.9625 194.397 72.1646C194.668 72.3666 194.847 72.6679 194.896 73.0021H194.89ZM204.623 72.1062C205.281 72.3009 205.451 73.3233 205.369 73.8658C205.222 74.8073 204.549 75.6886 203.559 75.3556C203.205 75.1998 202.923 74.9148 202.771 74.5586C202.619 74.2024 202.608 73.8017 202.741 73.438C203.033 72.5464 203.871 71.882 204.627 72.1069L204.623 72.1062ZM200.709 79.8692C201.605 80.2566 201.043 81.6288 200.138 81.4326C199.037 81.1849 198.063 81.62 196.959 81.4738C194.87 81.1967 194.417 79.6554 195.137 77.8987C195.778 76.2018 196.686 74.6178 197.826 73.2065C198.274 72.8441 198.883 73.3807 198.782 73.8724C198.635 74.5868 197.817 75.6143 196.804 78.1244C196.346 79.2651 196.083 79.9383 197.646 79.8472C198.655 79.6033 199.709 79.6109 200.715 79.8692H200.709ZM183.926 189.062C176.088 189.97 178.041 207.165 181.089 212.69C177.717 217.183 162.564 216.387 158.845 214.534C157.744 189.378 160.86 170.846 166.617 146.576C166.668 146.4 166.648 146.211 166.562 146.049C166.477 145.888 166.332 145.765 166.158 145.708C165.984 145.651 165.795 145.664 165.63 145.744C165.465 145.823 165.338 145.964 165.274 146.135C160.276 159.579 157.639 179.518 157.088 193.791C148.652 197.049 140.032 199.807 131.272 202.05C129.658 196.022 121.176 181.194 115.696 178.319C135.832 168.027 149.753 158.392 158.708 141.244C167.995 123.459 179.952 109.901 190.177 105.244C187.382 113.236 186.005 146.448 190.775 157.886C187.147 167.936 184.847 178.417 183.933 189.063L183.926 189.062ZM175.033 143.287C176.093 140.461 177.495 137.776 179.208 135.292C177.26 132.702 175.872 129.736 175.133 126.581C175.031 125.856 176.107 125.425 176.387 126.152C177.211 128.763 178.443 131.227 180.038 133.451C181.081 134.846 180.964 135.141 180.207 136.512C178.599 139.47 177.179 142.527 175.955 145.664C179.493 153.502 181.643 156.145 186.603 162.269C187.19 163.003 186.464 163.983 185.807 163.388C181.177 158.671 177.469 153.128 174.877 147.048C174.024 144.778 174.167 145.449 175.04 143.287H175.033ZM210.463 187.68C211.278 187.929 211.066 189.227 210.196 189.331C206.546 189.771 203.361 184.785 199.587 184.874C196.654 184.942 194.54 188.526 191.116 188.687C190.933 188.696 190.754 188.635 190.615 188.516C190.476 188.397 190.388 188.229 190.369 188.047C190.35 187.865 190.402 187.682 190.514 187.537C190.625 187.392 190.788 187.296 190.969 187.267C194.104 186.64 195.924 183.398 199.7 182.882C202.79 182.464 207.578 186.8 210.462 187.68H210.463ZM197.559 214.94C193.577 215.123 186.378 215.437 183.877 211.776C183.407 211.09 182.451 211.877 182.731 212.557C184.624 217.157 192.722 217.024 196.837 216.892C203.167 216.719 209.41 215.379 215.254 212.94C216.412 212.447 215.532 210.757 214.387 211.206C209.017 213.36 203.332 214.622 197.555 214.942L197.559 214.94ZM192.228 209.481C187.151 211.403 180.912 210.286 180.759 206.083C180.73 205.291 182.006 205.071 182.14 205.853C182.885 210.128 189.834 207.826 191.768 207.97C192.499 207.973 193.059 209.168 192.222 209.485L192.228 209.481ZM191.282 202.15C188.225 202.003 183.561 203.538 181.775 199.412C181.392 198.532 180.265 199.064 180.413 199.998C181.019 203.803 185.387 204.956 191.528 203.811C192.387 203.654 192.095 202.148 191.283 202.148L191.282 202.15ZM192.161 196.072C191.545 195.845 187.711 196.245 186.176 195.889C185.13 195.647 183.01 194.622 183.661 193.119C183.753 192.94 183.77 192.733 183.708 192.542C183.647 192.351 183.512 192.192 183.334 192.1C183.155 192.009 182.948 191.992 182.757 192.053C182.566 192.115 182.407 192.249 182.315 192.428C180.896 194.557 182.996 196.742 184.944 197.368C187.34 197.902 189.822 197.916 192.223 197.41C192.343 197.341 192.442 197.241 192.509 197.119C192.575 196.998 192.607 196.861 192.601 196.722C192.595 196.584 192.551 196.45 192.473 196.335C192.396 196.22 192.289 196.129 192.163 196.071L192.161 196.072ZM233.873 105.244C270.814 111.138 290.502 168.329 285.548 187.839C281.484 203.848 240.582 219.392 219.933 217.485C217.204 216.441 212.858 194.773 213.123 185.47C226.329 182.667 242.392 177.962 251.737 167.699C252.323 167.046 251.492 166.048 250.801 166.657C248.728 168.479 246.531 170.155 244.226 171.673C242.899 166.475 237.783 157.462 234.548 153.613C234.451 153.462 234.298 153.356 234.122 153.318C233.947 153.28 233.764 153.314 233.613 153.411C233.463 153.508 233.357 153.662 233.319 153.837C233.281 154.012 233.315 154.195 233.412 154.346C237.664 161.462 240.251 165.251 242.524 172.757C231.976 179.222 221.736 181.546 211.01 184.194C206.626 182.945 203.036 179.626 201.15 179.404C194.242 178.594 191.575 185.024 187.253 185.501C189.898 156.14 205.276 123.741 233.87 105.243L233.873 105.244ZM235.461 123.15C229.899 125.632 224.578 128.619 219.563 132.075C220.749 135.569 223.15 140.065 224.283 143.027C224.802 144.382 224.482 144.955 223.403 145.813C212.703 154.275 202.928 163.845 194.241 174.363C193.669 175.05 192.786 174.101 193.28 173.383C200.493 162.911 213.457 151.16 222.763 144.08C221.046 140.744 219.598 137.276 218.433 133.709C217.665 131.305 217.692 131.688 219.615 130.169C224.731 126.379 230.326 123.282 236.253 120.959C236.532 118.095 236.373 115.206 235.781 112.391C235.634 111.751 236.763 111.332 237.085 111.98C238.175 114.637 238.463 117.556 237.912 120.375C237.528 122.428 237.434 122.332 235.459 123.148L235.461 123.15Z" fill="#180B02"/>
</svg>
