<svg width="12" height="12" viewBox="0 0 12 12" fill="none" xmlns="http://www.w3.org/2000/svg">
<path d="M7.17592 5.99926L10.7593 2.42426C10.9162 2.26734 11.0043 2.05451 11.0043 1.83259C11.0043 1.61067 10.9162 1.39785 10.7593 1.24093C10.6023 1.08401 10.3895 0.99585 10.1676 0.99585C9.94567 0.99585 9.73285 1.08401 9.57593 1.24093L6.00093 4.82426L2.42593 1.24093C2.26901 1.08401 2.05618 0.99585 1.83426 0.99585C1.61234 0.99585 1.39951 1.08401 1.24259 1.24093C1.08567 1.39785 0.997516 1.61067 0.997516 1.83259C0.997516 2.05451 1.08567 2.26734 1.24259 2.42426L4.82593 5.99926L1.24259 9.57426C1.16449 9.65173 1.10249 9.7439 1.06018 9.84545C1.01788 9.94699 0.996094 10.0559 0.996094 10.1659C0.996094 10.2759 1.01788 10.3849 1.06018 10.4864C1.10249 10.588 1.16449 10.6801 1.24259 10.7576C1.32006 10.8357 1.41223 10.8977 1.51378 10.94C1.61533 10.9823 1.72425 11.0041 1.83426 11.0041C1.94427 11.0041 2.05319 10.9823 2.15474 10.94C2.25629 10.8977 2.34846 10.8357 2.42593 10.7576L6.00093 7.17426L9.57593 10.7576C9.65339 10.8357 9.74556 10.8977 9.84711 10.94C9.94866 10.9823 10.0576 11.0041 10.1676 11.0041C10.2776 11.0041 10.3865 10.9823 10.4881 10.94C10.5896 10.8977 10.6818 10.8357 10.7593 10.7576C10.8374 10.6801 10.8994 10.588 10.9417 10.4864C10.984 10.3849 11.0058 10.2759 11.0058 10.1659C11.0058 10.0559 10.984 9.94699 10.9417 9.84545C10.8994 9.7439 10.8374 9.65173 10.7593 9.57426L7.17592 5.99926Z" fill="#807974"/>
</svg>
