<?xml version="1.0" encoding="UTF-8"?>
<svg id="Layer_2" data-name="Layer 2" xmlns="http://www.w3.org/2000/svg" viewBox="0 0 228 162.68">
  <defs>
    <style>
      .cls-1 {
        fill: #fff;
      }

      .cls-2 {
        fill: #d1d0d6;
      }

      .cls-3 {
        fill: none;
        stroke: #fff;
      }
    </style>
  </defs>
  <g id="Layer_1-2" data-name="Layer 1">
    <path class="cls-2" d="M137.77,102.05c-.8-.49-1.81-.13-2.61-.62-.68-.43-.34-1.89-.06-2.58,.24-.66,.57-1.28,.99-1.84,.16-.21,1.17-.56,1.21-1.43,.09-.64-.41-.99-1.06-1.09-.56,.01-1.13-.04-1.68-.14-.18-.18-.31-.4-.37-.64s-.07-.5,0-.74c.21-.89,1.14-1.71,1.22-2.92,.07-.99-1.42-1.83-1.72-2.78-.27-1.42-.27-2.88,0-4.31l.09-.3c.03-.06,.04-.13,.03-.2,0-.07-.02-.13-.05-.19-.03-.06-.07-.11-.12-.16-.05-.04-.11-.07-.18-.09-.4-.15-.75,.3-.77,.56-.05,.63-2.21,5.19-3.28,7.72-.51,1.16-.98,2.35-1.37,3.54,0,.03-.35,13.97-.38,14.52-.33,6.64-.64,7.06,.15,7.43,.15,.07,.31,.1,.48,.08,.16-.02,.32-.09,.44-.2,2.28-1.88,4.4-4.28,6.43-6.26,.12-.1,.21-.23,.25-.38,.05-.15,.05-.3,.01-.45-.32-1.16,.98-2.46,1.74-3.37,.4-.45,1.17-1.01,1.24-1.93,.03-.24-.01-.49-.12-.71-.11-.22-.29-.4-.5-.51Z"/>
    <path class="cls-2" d="M143.34,76.95c.05,.03,.09,.08,.12,.14,.03,.06,.04,.12,.04,.18,0,.06-.02,.12-.06,.17-.03,.05-.08,.1-.13,.12-.54,.3-1.34,.45-1.83,.67-2.19,1.1-1.46,3,.04,2.44,1.46-.06,1.27-.07,1.27,.15,.04,.25,.04,.5,0,.75-.06,1.13-1.65,.99-2.49,1.75-.16,.12-.28,.29-.35,.48-.07,.19-.08,.4-.04,.59,.04,.2,.14,.38,.28,.53,.14,.14,.32,.25,.51,.3,.42,.09,1.9-.31,1.9,.07-.02,.93,.02,.84-.25,1.36-.66,1.3-2.1,1.93-2.57,2.82-.2,.3-.28,.66-.24,1.01,.04,.35,.21,.68,.47,.93,.29,.19,.63,.3,.98,.31,1.86,.32,1.26,2.41-.02,3.86-.64,.74-1.55,1.64-1.47,2.7,.03,.22,.13,.43,.3,.58,.17,.15,.38,.23,.6,.24,.16,0,1.44-.06,1.83-.07,.74-.03,1.04,.1,1.39-.22,.17-.16,.28-.38,.29-.62,.07-3.06,.21-7.65,.29-11.49,.21-.64,.23-1.33,.04-1.97,0-.78-.01-1.49-.01-2.13,.19-.42,.28-.88,.25-1.33,0-.48-.08-.96-.23-1.42,2.13-5.39,1.48-3.74,1.7-4.18,.57-.65,1.53-1.23,1.33-2.36-.14-.55-.43-1.05-.83-1.45-.4-.4-.91-.68-1.46-.81-.45-.11-.92-.03-1.31,.21-.39,.24-.67,.63-.77,1.08-.21,.46,.31,1.1,.72,1.77-.4,0-.79,.08-1.17,.21-.16,.04-.3,.12-.42,.23-.12,.11-.22,.24-.28,.39-.06,.15-.09,.31-.08,.48,.01,.16,.06,.32,.14,.46,.48,.4,.99,.76,1.53,1.06Z"/>
    <path class="cls-2" d="M53.36,30.23l-2.03-26.4L0,6.65l4.01,25.46,9.88-.25,5.19,12.06,4.35-12.57,29.93-1.12Z"/>
    <path class="cls-1" d="M181.03,59.19c.83,.58,3.29,2.33,5.81,4.18,.1,.09,.24,.13,.37,.12,.14-.01,.26-.07,.35-.18,.09-.1,.13-.24,.12-.37,0-.13-.07-.26-.17-.35-1.68-1.85-3.74-3.33-6.04-4.32-.12-.05-.25-.05-.37,0-.12,.05-.22,.14-.28,.25s-.07,.25-.03,.37c.04,.12,.12,.23,.24,.29Z"/>
    <path class="cls-2" d="M77.36,8.39c-.58,.02-2.14,.11-2.61,.15l-1.09-2.72c-.03-.11-.1-.2-.19-.26-.09-.06-.2-.09-.31-.09-.11,0-.22,.05-.3,.12-.08,.07-.14,.17-.17,.28-.03,0-.6,1.93-.87,2.88h-2.69c-.16,0-.31,.06-.44,.16-.13,.1-.22,.23-.26,.38-.05,.15-.04,.31,0,.46,.05,.15,.15,.28,.28,.37l2.13,1.71-.75,2.88c-.04,.18-.03,.37,.04,.54,.07,.17,.19,.31,.35,.41,.16,.1,.34,.14,.53,.12,.18-.02,.36-.09,.5-.21l1.94-1.71,2.04,1.58c.15,.11,.32,.18,.51,.18,.18,0,.36-.05,.52-.16,.15-.11,.26-.26,.32-.43,.06-.17,.06-.36,0-.54l-.89-2.82,2.02-1.81c.13-.11,.23-.27,.27-.44,.04-.17,.03-.35-.03-.51-.06-.16-.18-.3-.33-.4-.15-.1-.32-.14-.49-.13Z"/>
    <path class="cls-2" d="M88.61,7.87c-.58,.02-2.15,.11-2.61,.15l-1.09-2.71c-.03-.11-.1-.2-.19-.27-.09-.07-.2-.1-.31-.09-.11,0-.22,.04-.3,.12-.09,.07-.14,.17-.17,.28-.03,0-.6,1.93-.87,2.88h-2.69c-.16,0-.31,.06-.44,.16-.13,.1-.22,.23-.26,.38-.05,.15-.04,.31,0,.46,.05,.15,.15,.28,.28,.37l2.13,1.71-.75,2.89c-.04,.18-.03,.37,.04,.54,.07,.17,.19,.31,.35,.41,.16,.1,.34,.14,.53,.12,.18-.02,.36-.09,.5-.21l1.94-1.71,2.04,1.58c.15,.11,.32,.18,.51,.18,.18,0,.36-.05,.52-.16,.15-.11,.26-.26,.32-.43,.06-.17,.06-.36,0-.54l-.89-2.82,2.02-1.81c.13-.11,.23-.27,.27-.44,.04-.17,.03-.35-.03-.51-.06-.16-.18-.3-.33-.4s-.32-.14-.5-.13Z"/>
    <path class="cls-2" d="M100.58,7.56c-.58,.02-2.14,.11-2.61,.15l-1.09-2.71c-.03-.11-.1-.2-.19-.26-.09-.06-.2-.1-.31-.09-.11,0-.22,.04-.3,.11-.09,.07-.15,.17-.17,.28-.03,0-.6,1.93-.87,2.88h-2.68c-.16,0-.31,.06-.44,.15-.13,.1-.22,.23-.27,.38-.05,.15-.05,.32,0,.47,.05,.15,.15,.28,.28,.38l2.13,1.71-.75,2.89c-.05,.18-.03,.37,.04,.54,.07,.17,.19,.32,.35,.41,.16,.1,.34,.14,.53,.12,.18-.02,.36-.09,.5-.21l1.94-1.71,2.04,1.58c.15,.11,.32,.17,.51,.18,.18,0,.36-.05,.51-.16,.15-.11,.26-.26,.32-.43,.06-.17,.06-.36,0-.54l-.89-2.82,2.02-1.81c.14-.11,.23-.27,.27-.44,.04-.17,.03-.35-.03-.51-.06-.16-.18-.3-.33-.4-.15-.1-.32-.14-.5-.13Z"/>
    <path class="cls-1" d="M148.05,42.45c.24-.27,1.08-1.18,1.46-1.5,1.54-1.4,1.88-1.6,2.25-1.27,.43,.41-.04,.81-.78,1.93-.68,.92-1.42,1.79-2.22,2.61-.15,.15-.34,.24-.55,.26s-.42-.04-.58-.17c-.63-.46-1.22-.96-1.77-1.51-.48-.52-1.39-1.54-.93-1.97,.52-.66,2.45,1.08,3.13,1.62Z"/>
    <path class="cls-1" d="M147.34,37.18c.53,.21,.58-.07,2.14-2.87,.67-1.16,2.11-4.1,4.2-7.33,.15-.26,.28-.52,.43-.78,.58-1.17,.92-1.67,.47-1.96-1.44-1.14-8.77,12.27-7.24,12.94Z"/>
    <path class="cls-1" d="M158.41,28.98c.45,.09,.86,.31,1.18,.64,.32,.33,.52,.75,.58,1.2,.07,.45-.01,.91-.22,1.32-.21,.41-.54,.74-.95,.94-.41,.21-.87,.28-1.32,.22-.45-.07-.87-.27-1.2-.59-.33-.32-.55-.73-.63-1.18-.08-.45-.02-.91,.17-1.33,.16-.47,.51-.86,.95-1.09,.45-.23,.96-.27,1.44-.13Z"/>
    <path class="cls-1" d="M149.07,24.51c.45,.09,.86,.31,1.17,.64,.32,.33,.52,.75,.59,1.2,.07,.45-.01,.91-.22,1.32-.21,.41-.54,.74-.95,.94-.41,.21-.87,.28-1.32,.22s-.87-.27-1.2-.59c-.33-.32-.55-.73-.63-1.18-.08-.45-.02-.91,.17-1.33,.16-.47,.5-.86,.95-1.09,.45-.23,.96-.27,1.44-.13Z"/>
    <path class="cls-1" d="M164.14,51.97c.63,1.54,.95,3.18,.93,4.84-.02,1.66-.36,3.3-1.02,4.83-2.41,6.03-5.55,8.05-4.4,18.13,.01,.13,.08,.25,.18,.34,.1,.08,.23,.13,.37,.12,.13-.01,.26-.07,.35-.17,.09-.1,.13-.23,.13-.36-.07-2.32,.12-4.63,.55-6.91,1.7-8.12,8.72-12.4,3.81-21.22-.02-.06-.06-.12-.11-.16-.05-.05-.1-.08-.16-.11-.06-.02-.13-.04-.19-.04-.07,0-.13,.02-.19,.04-.06,.03-.12,.06-.16,.11-.05,.05-.08,.11-.11,.17-.02,.06-.03,.13-.03,.2,0,.07,.02,.13,.05,.19Z"/>
    <path class="cls-1" d="M167.53,48.79c.52,2.49,.54,1.4,1.04,3.79,.23,1.07,.33,3.03,.48,3.95-.01,.07,0,.13,.01,.2,.02,.06,.05,.13,.09,.18,.04,.05,.09,.1,.15,.13,.06,.03,.12,.05,.19,.06,.07,0,.14,0,.2-.02,.07-.02,.13-.05,.18-.09,.05-.04,.1-.1,.13-.16,.03-.06,.05-.13,.06-.19,.07-.29,.17-.56,.21-.85,.38-2.21,.03-4.48-.99-6.47-.24-.38-.52-.73-.86-1.02-.07-.12-.18-.2-.31-.24-.13-.04-.27-.02-.39,.05-.12,.07-.2,.18-.24,.31-.04,.13-.02,.27,.05,.39Z"/>
    <path class="cls-1" d="M171.09,45.33c.06,.42,.15,.84,.26,1.25,.32,.89,.58,1.79,.78,2.71,.16,.83,.49,3.64,.53,4.09-.01,.14,.03,.27,.12,.38,.09,.11,.22,.17,.35,.18,.14,.01,.27-.03,.38-.12,.11-.09,.17-.22,.18-.35,.42-1.46,.47-3.01,.14-4.5-.19-1.06-.52-2.08-.99-3.04-.26-.39-.55-.75-.88-1.08-.06-.12-.17-.2-.3-.24-.13-.04-.26-.02-.38,.04-.12,.06-.2,.17-.24,.3-.04,.13-.02,.27,.04,.38Z"/>
    <path class="cls-1" d="M174.2,40.59c.18,.86,.41,1.71,.68,2.55,.7,1.88,1.23,3.81,1.57,5.79,.28,1.87,.34,3.77,.18,5.65-.02,.13,.01,.27,.09,.38,.08,.11,.19,.19,.33,.22,.06,.02,.13,.02,.2,0,.07-.01,.13-.04,.18-.07,.06-.04,.1-.09,.14-.14,.04-.06,.06-.12,.07-.19,.66-1.96,.83-4.06,.5-6.11-.31-2.11-.88-4.17-1.7-6.14-.35-.84-.8-1.63-1.33-2.36-.03-.06-.07-.12-.11-.16-.05-.05-.11-.08-.17-.1-.06-.02-.13-.03-.19-.03-.07,0-.13,.02-.19,.04-.06,.03-.12,.07-.16,.11-.05,.05-.08,.11-.11,.17-.02,.06-.03,.13-.03,.19,0,.07,.02,.13,.04,.19Z"/>
    <path class="cls-1" d="M182.75,46.2c-.27,1.48-.69,2.92-1.23,4.32-.99,2.63-2.38,5.08-4.12,7.27-3.32,4.42-2.4,10.7-.34,15.87,.02,.07,.06,.13,.1,.18,.04,.05,.1,.09,.16,.12s.13,.05,.2,.05c.07,0,.14,0,.2-.03,.07-.02,.12-.06,.18-.1,.05-.05,.09-.1,.12-.16,.03-.06,.05-.13,.05-.2,0-.07,0-.14-.03-.2-1.3-4.32-2.05-10.85,.74-14.48,2.9-3.86,4.99-7.72,4.99-12.55,0-.13-.04-.26-.13-.36-.09-.1-.21-.16-.34-.17-.13-.01-.26,.03-.37,.11-.1,.08-.17,.2-.19,.33Z"/>
    <path class="cls-1" d="M227.73,160.12c-1.13-2.03-2.19-4.14-3.2-6.29-3.18-6.8-2.74-7.23-3.58-7.2-.38,.02-1.17,.03-1.72,.08-.57-1.33-1.22-2.62-1.94-3.87-.06-.11-.16-.2-.27-.26-.11-.06-.24-.09-.36-.08-.95,.02-1.9,.1-2.83,.23-.17,.02-.33,.11-.45,.24-.12,.13-.18,.29-.19,.47-.01,.28-.1,2-.05,2.27l-1.77,.02c-.04-.3-.32-1.62-.48-2.68-.05-.18-.16-.33-.3-.44-.15-.11-.32-.17-.5-.16-2.2,0-3.66-.03-6.43,.04-.18,0-.35,.07-.5,.17-.14,.11-.25,.26-.31,.43-.29,.89-.46,1.81-.49,2.75l-1.78,.02c-.13-.34-.53-1.73-.63-2.14-.04-.18-.15-.34-.3-.45-.15-.11-.33-.17-.52-.17h-2.95c-.17,0-.34,.07-.48,.17-.14,.1-.24,.24-.3,.41l-.73,2.33c-.16-.39-.34-.78-.51-1.16-.06-.11-.14-.21-.25-.27s-.23-.1-.35-.1c-4.83-.33-13.7-.04-15.54-.17-.19-.01-.37,.03-.53,.14-.16,.1-.27,.25-.33,.43-.31,1.07-.51,2.05-.68,2.86-.2-.02-.4-.05-.6-.08-.19-.03-.39,0-.56,.1-.17,.09-.31,.24-.39,.42-.84,2-1.72,3.98-2.61,5.96-1.02-.63-1.98-1.34-2.9-2.11-.12-.11-.52-.54-.65-.65,.24-1.02,3.7-3.19,1.88-5.07-1.32-1.32-3.7,1.3-5.38,1.62-.24,.04-.48,.06-.72,.07,.03-.07,.07-.15,.1-.22,.8-2.09,3.08-3.96,2.18-6.25-.81-1.69-5.08,1.36-5.98,.51-.03-.03,0-.08,0-.12,.24-2.18,1.64-4.28,.98-6.44-.1-.33-.29-.61-.56-.82-.27-.21-.59-.34-.93-.36-1.12,.05-2.22,.29-3.25,.71,.99-1.91,2.47-3.84,1.32-5.6-1-1.53-4.24,.6-5.6,.75,1.31-1.32,2.44-2.8,3.35-4.42,.59-1.31,.55-2.91-.88-3.5-2.63-1.01-5.71,1.53-7.19,1.53,.1-.22,.15-.48,.19-.54,.31-.89,1.44-3.04,1.07-4.32-.33-1.11-1.42-1.3-2.55-.95-.78,.3-1.62,.42-2.46,.34,0-.17,.04-.33,.11-.49,.57-1.68,2.12-3.03,2.19-4.75,.03-.19,.01-.38-.04-.57-.05-.18-.14-.35-.27-.5-.12-.15-.27-.27-.44-.35-.17-.08-.36-.13-.55-.14-.96-.03-2.84,1.01-4.09,1.01,.77-1.94,4.54-5.08,2.83-6.74-.88-1.12-4.44,1.57-6.09,1.35,.31-.52,.64-1.03,1.01-1.51,1.02-1.18,1.92-2.46,2.68-3.81,.1-.2,.15-.41,.16-.63,.01-.22-.02-.44-.1-.65-.08-.21-.19-.39-.35-.55-.15-.16-.33-.29-.54-.37-.9-.37-2.04,.1-3.24,.25-.26,.05-.52,.06-.78,.01,.36-.74,.84-1.42,1.42-2,1.13-1.05,2.18-2.19,3.13-3.41,.47-.86,.65-1.89-.18-2.4-1.15-.69-3.21,.56-4.49,.33-.02,0-.05,0-.08-.01l.28-.42c1.13-1.67,2.55-3.12,4.19-4.3,.15-.11,.25-.26,.31-.43,.05-.17,.05-.36,0-.53-.06-.17-.17-.32-.32-.42-.15-.1-.33-.16-.51-.15-1.1,.16-2.2,.24-3.31,.26-.26,.03-.53,0-.79-.08-.25-.08-.49-.21-.69-.39,.9-1.01,.89-.82,2.73-1.87,.52-.3,2.63-1.55,2.78-2.14,.04-.14,.05-.28,.03-.43-.03-.14-.09-.28-.17-.39-.54-.67-1.92-.44-4.68-.44,1.71-1.17,3.54-2.17,5.46-2.98,.13-.06,.25-.15,.33-.26,.08-.12,.14-.26,.15-.4,.01-.14-.01-.29-.08-.42-.06-.13-.16-.24-.28-.32-1.05-.68-2.16-1.25-3.32-1.7,1.02-.26,2.05-.43,3.1-.53,.14-.01,.27-.07,.38-.17,.11-.09,.18-.22,.22-.36,.03-.14,.03-.28-.02-.42-.05-.13-.14-.25-.26-.33-1.14-.76-2.35-1.39-3.51-2.11,.34,.04,.66,.09,.99,.11,.13,0,.26-.03,.37-.1,.11-.07,.19-.18,.23-.31,.27-.95,1.06-3.4,1.44-4.41,1.56,.59,3.21,.9,4.87,.93,5.5-.02,12.65-2.98,17.58-8.53,.5-.5-.32-1.21-.74-.72-3.88,3.75-11.15,7.54-16.84,7.52-2.99-.15-5.89-1.13-8.35-2.83-1.04-.63-2.01-1.36-2.91-2.18,2.66-3.56,6.18-6.39,10.22-8.24,1.91,1.35,4.15,2.14,6.47,2.29,2.33,.15,4.65-.34,6.72-1.42,6.12-3.3,9.86-11.28,6.35-17.25,2.81-3.81,6.74-8.19,9.36-11.18,1.29,3.7,1.82,7.63,1.56,11.54-.03,.71-.03,1.39-.1,2.08-.12,1.25-.34,1.85,.24,2.02,.66,.14,.75-.74,1.06-1.8,.86-3.78,.73-7.72-.37-11.44,1.9-1.91,3.11-4.39,3.46-7.06,.53-5.05-2.29-10.96-7.67-10.96-.29-1.67-1.02-3.24-2.13-4.53-1.1-1.29-2.54-2.26-4.14-2.81-3.91-1.58-8.24-1.77-12.27-.53-6.66,2.13-11.13,7.98-14.36,11.16-2.56,2.54-5.32,6.31-7.73,8.48-3.94,3.56-6.85,1.35-9,3.77-1.91,2.21-.48,4.71,2.13,5.64-1.13,2.75,.08,5.83,3.04,5.83-.24,2.38,1.2,4.52,3.64,4.35-.02,.67,.2,1.33,.63,1.85,.43,.52,1.04,.86,1.71,.96,.7,.18,1.42,.27,2.14,.27,.09,1.57,.51,3.1,1.24,4.49,.73,1.39,1.75,2.61,2.99,3.57-1.37-.47-5.21,.24-6.02,.54-.12,.05-1.48,.6-1.34,1.15,.13,.51,1.46,.48,2.04,.41,.12-.02,3.29-.56,4.05-.74,1.49-.33,1.79-.46,1.76-.89-.01-.23-.29-.24,.76,.35-3.19,1.94-5.8,4.71-7.54,8.02-.04,.07-.07,.14-.07,.22,0,.08,0,.16,.03,.23,.03,.07,.07,.14,.13,.19,.06,.05,.13,.09,.21,.11,1.64,2.11,3.8,3.76,6.27,4.79-.61,1.58-.83,2.16-1.44,4.01-.81-.12-2.21-.46-3.02-.63-.13-.02-.26,0-.38,.06-.12,.06-.21,.15-.27,.27-.06,.12-.08,.25-.06,.38,.02,.13,.08,.25,.17,.34,1.24,1.12,2.6,2.09,4.07,2.89-1.28,.22-2.55,.55-3.77,1-.15,.06-.27,.16-.36,.29-.08,.13-.13,.29-.12,.44,0,.16,.07,.31,.16,.43,.1,.12,.23,.21,.39,.25,1.32,.37,2.6,.89,3.81,1.54-1.47,.62-2.88,1.39-4.2,2.29-.57,.4-1.11,.84-1.62,1.32-.57,.95,.74,1.64,1.82,1.81,.76,.07,1.51,.07,2.27,.02-1.18,.69-3.2,1.54-3.84,2.76-.13,.21-.21,.45-.24,.69-.03,.25,0,.5,.07,.73,.07,.24,.2,.45,.37,.64,.17,.18,.37,.33,.6,.43,.84,.48,1.82,.68,2.79,.55-.16,.16,.32-.37-1.64,1.87-.46,.52-.87,1.09-1.21,1.7-.65,1.08-.1,2.17,1.31,2.44,1.18,.03,2.36-.12,3.49-.45-.2,.28-.42,.54-.65,.79-.92,1-3.48,3.16-4.09,4.92-.46,1.32,.46,2.19,1.74,2.26,1.07-.07,2.12-.21,3.18-.4-.49,.99-2.28,3.03-3,4.1-.59,.88-1.51,1.98-.73,2.83,1.65,1.78,4.75-.17,6.16-.62-1.11,1.85-3.47,4.1-3.05,5.76,.08,.3,.27,.57,.53,.75,.26,.18,.57,.27,.88,.24,1.35-.09,2.68-.4,3.92-.92-.35,.98-.85,1.91-1.47,2.75-1.31,2.32-.83,4.14,1.83,3.96,.86-.11,1.7-.29,2.52-.56-.21,1.1-.55,2.16-1.01,3.17-.2,.45-.35,.93-.43,1.41-.07,1.44,1.68,1.61,3.06,1.15,1.49-.47,3.49-1.75,5-1.51,.12,.02,.45,.07,.49,.2,.45,1.55-2.75,4.21-3.72,6.32-.12,.23-.15,.5-.07,.74,.08,.25,.25,.45,.48,.58,1.83,.84,3.71-.77,5.43-1.06,.08,0,.16,0,.24-.02,.49,1.11-2.37,4.56-2.1,5.65,.12,.91,1.3,.72,2.17,.44,1.05-.32,2.86-1.09,3.15-.62,.51,1.69-1.06,4.34-.99,6.01,.03,1.2,1.04,1.73,2.25,1.62,1.31-.13,2.4-.86,3.99-1.17,.24,1.76-3.25,4.88-2.23,6.41,.41,.65,1.39,.48,2.12,.32,1.55-.35,2.92-1.71,4-1.98,.09-.03,.2-.1,.25-.03,.95,.95-2.06,2.71-2.15,4.29-.07,1.04,3.25,3.02,4.23,3.67-.55,1.24-2.41,5.51-2.79,6.41-.06,.14-.09,.29-.07,.44,.02,.15,.07,.29,.16,.41,.09,.12,.21,.22,.35,.28,.14,.06,.29,.08,.44,.06,13.57-1.2,46.28-.16,57.21-1.55,.66,.25,1.12-.69,.53-1ZM168.09,14.08c.95-1.18,3.59-3.89,3.69-4.02,.07-.11,.18-.2,.31-.23s.27-.02,.39,.05c.12,.07,.21,.17,.25,.3,.04,.13,.03,.27-.03,.39-.83,1.81-2.21,3.32-3.95,4.3-.63,.34-1.07-.27-.66-.78h0Zm-16.92,38.23c2.49-.51,3.91-1.95,5.74-3.75,2.21-2.16,4.1-4.61,5.64-7.29,.69,.42,1.48,.64,2.29,.63-1.09,5.89-6.71,11.46-13.66,10.41h0Zm-11.28-35.45c3.67-4.67,8.99-10.14,14.42-12.46,1.48-.71,3.08-1.13,4.72-1.22,1.64-.09,3.28,.14,4.83,.69,.07,.02,.12,.05,.18,.1,.05,.04,.09,.1,.12,.16,.03,.06,.05,.13,.05,.19,0,.07,0,.14-.02,.2-.02,.06-.05,.12-.1,.18-.04,.05-.1,.09-.16,.12-.06,.03-.13,.05-.19,.05s-.14,0-.2-.02c-6.92-1.89-14.32,4.21-19.26,9.38-1.78,1.78-2.54,2.32-3.68,3.33-.04,.05-.1,.09-.16,.12-.06,.03-.13,.04-.2,.04-.07,0-.13-.01-.2-.04-.06-.03-.12-.06-.17-.11-.05-.05-.08-.11-.1-.17-.02-.06-.04-.13-.03-.19,0-.07,.02-.13,.04-.19,.03-.06,.07-.12,.12-.16h0Zm-4.65,5.45c-.06,.04-.13,.06-.2,.07-.07,0-.14,0-.21-.01-.07-.02-.13-.05-.19-.1-.05-.04-.1-.1-.13-.16-.03-.06-.05-.13-.06-.2,0-.07,0-.14,.03-.21,.02-.07,.06-.13,.11-.18,.05-.05,.1-.09,.17-.12,.95-.82,1.94-1.59,2.97-2.3,.55-.33,1.07,.02,.71,.72-.76,1.16-1.88,2.04-3.18,2.5h0Zm4.92,9.61c.07-.16,.09-.34,.05-.52-.04-.17-.12-.33-.25-.45-2.26-2.12-2.17-5.99-.39-7.17,.87-.48,1.85-.7,2.84-.64,.14,0,.28-.02,.4-.08,.12-.06,.23-.15,.32-.26,1.48-1.9,3.53-3.27,5.85-3.92-.08,.23,0,.5,.36,.67,2.46,1.2,2.27,3.42,3.2,3.14,.12-.05,.23-.14,.29-.26,.06-.12,.08-.26,.04-.38-.07-.79-.38-1.53-.87-2.15-.5-.61-1.17-1.06-1.92-1.3,4.74-.91,9.1,1.73,14.76-1.57-1.32,3.18-1.93,6.61-1.77,10.04-.24-1.05-.88-1.97-1.79-2.55-.91-.58-2.01-.77-3.07-.54-.65,.13-.69,.85,.01,1.01,.79,.12,1.55,.4,2.22,.83,.67,.43,1.24,1.01,1.67,1.68,.05,.1,.13,.18,.23,.23,.1,.05,.21,.07,.32,.05,.11-.02,.21-.07,.29-.15,.08-.08,.13-.18,.14-.29,.17,2.17,.89,4.27,2.11,6.08-.14,.15-.86,1.01-1.33,1.63-.07,.1-.11,.22-.12,.35,0,.13,.02,.25,.09,.36,.89,1.53,1.28,3.3,1.13,5.06-.41-.03-.82-.15-1.18-.34-.37-.19-.69-.46-.95-.78-.07-.09-.17-.16-.27-.2-.11-.04-.22-.06-.34-.05-.11,.01-.22,.05-.32,.11-.1,.06-.18,.15-.23,.25-1.98,3.3-7.59,10.12-11.45,11.58-.13,.03-.24,.12-.32,.23-.07,.11-.1,.25-.07,.39-1.3-.3-2.5-.92-3.5-1.8-.12-.12-.27-.19-.44-.23-.16-.03-.33-.01-.49,.05-.88,.38-1.74,.8-2.58,1.28-6.63-3.9-5.58-12.31-2.67-19.41h-.01Zm64.12,112.25c1.3-.01,2.57-.01,3.88-.04,.44-.01,.88-.03,1.33-.04,.06,.29,.42,1.16,.61,1.64l-6.48,.07c.26-.53,.49-1.07,.67-1.63h-.01Zm-11.16,1.71c.28,.47,.53,.95,.75,1.45l-4.61,.15c.01-.5-.01-1-.07-1.5,3.59-.06,2.75-.07,3.94-.1h0Zm-5.68,.12c.02,.51,.07,1.03,.16,1.53l-3.26,.11c-.03-.36-.09-1.28-.13-1.61,1.07,0,2.18-.01,3.24-.03h0Zm-8.97-.05c.87,.03,2.33,.06,4.01,.07,.02,.33,.1,1.28,.13,1.68-1.83,.06-3.35,.17-4.92,.1,.46-1.01,.58-1.28,.79-1.85h0Zm30.53,14.29c-.14,0-29.48-.06-37.73,.57,.19-.45,3.57-8.02,5.01-11.4,1.94,.21,2.87,.11,18.6-.42,.18,0,.35-.07,.49-.18,.14-.11,.25-.26,.31-.43l1.11-3.65h1.7c.2,.75,.44,1.49,.72,2.22,.06,.16,.16,.29,.3,.39,.14,.1,.3,.15,.47,.15,15.17-.16,14.14-.2,14.48-.55,.34-.35,.11-.65,.18-1.71,0-.39-.02-.77,0-1.16,.32-.03,1.13-.14,1.63-.16,2.07,3.64,1.82,4.27,2.62,4.16,.8-.09,.7-.06,1.64-.13,1.74,4.17,3.75,8.23,6,12.16-5.95,.5-11.64,.22-17.54,.13h0Z"/>
    <path class="cls-1" d="M49.59,74.19c-.08-1.6-.13-3.23-.11-5.01-.12-3.87,.38-7.74,1.48-11.45,3.17-10.58,8.97-.1,6.12,2.24-.1,.08-.17,.2-.19,.34s.02,.27,.1,.38,.2,.18,.33,.2c.13,.02,.27,0,.38-.09,2.4-1.69,1.53-6.39-.83-8.42-.4-.35-.86-.61-1.37-.77-.5-.16-1.04-.21-1.56-.14-.52,.06-1.03,.23-1.48,.5-.45,.27-.85,.63-1.15,1.06-2.72,3.23-3.87,12.14-3.38,17.05,.15,1.43,.38,2.85,.67,4.25,0,.07,.03,.14,.06,.2,.03,.06,.08,.11,.13,.16,.05,.04,.12,.07,.18,.09,.07,.02,.14,.02,.2,.01,.07,0,.13-.03,.19-.07,.06-.04,.11-.08,.15-.14s.07-.12,.08-.19c.01-.07,.01-.14,0-.21Z"/>
    <path class="cls-1" d="M57.17,50.1c.51-.29,1.06-.51,1.63-.66,2.45-.72,3.9,1.24,4.02,3.54,.09,.95,.26,2.66-.47,3.27-.11,.08-.18,.2-.21,.34-.02,.14,0,.27,.09,.39,.04,.06,.09,.1,.15,.14,.06,.04,.12,.06,.19,.07,.07,.01,.14,0,.2,0,.07-.02,.13-.05,.18-.09,1.4-.78,1.51-2.65,1.53-4.2-.22-5.17-5.15-7.02-7.97-3.56-.5,.43,.15,1.22,.66,.77Z"/>
    <path class="cls-1" d="M67.9,56.07c-.53,.32-1.02,.72-1.44,1.17-.98,1.09-1.75,2.35-2.26,3.71-.44,.98-.67,2.03-.67,3.1s.23,2.13,.67,3.1c.02,.07,.05,.13,.09,.18,.04,.05,.1,.1,.16,.13,.06,.03,.13,.05,.2,.06,.07,0,.14,0,.2-.03,.07-.02,.13-.05,.18-.09,.05-.04,.1-.1,.13-.16,.03-.06,.05-.13,.05-.19,0-.07,0-.13-.03-.2-.26-1.79-.04-3.61,.65-5.28,.57-1.59,1.25-2.2,2.78-4.8,.05-.05,.09-.1,.11-.16,.03-.06,.04-.13,.04-.19,0-.07-.01-.13-.04-.2-.02-.06-.06-.12-.11-.17-.05-.05-.1-.09-.16-.11-.06-.03-.13-.04-.2-.04-.07,0-.13,.01-.19,.04-.06,.03-.12,.07-.16,.11Z"/>
    <path class="cls-1" d="M76.69,45.58c-1.1,1.26-5.05,4.83-6.16,9.41-1.22,5.33,1.3,11.28,1.97,15.08,.02,.14,.1,.26,.21,.35,.11,.08,.25,.12,.39,.1,.13-.02,.26-.1,.34-.2,.08-.11,.12-.25,.1-.38-.33-3.86-1.23-6.78-1.54-10.34-.49-5.79,1.75-7.52,5.5-13.39,.08-.11,.12-.24,.11-.38-.01-.13-.08-.26-.19-.34-.11-.08-.25-.12-.38-.1-.14,.02-.26,.09-.35,.19Z"/>
    <path class="cls-1" d="M93.79,34.37c-1.83-.46-3.73-.61-5.61-.43-6.5,.09-10.1,.13-20.05,.88,.28-1.17,.27-2.39-.03-3.55-.1-.27-.23-.51-.51-.51-1,.02-.69,3.15-.55,4.14-8.29,.65-17.37,1.61-17.53,1.67-1.14,.4-2.23,.83-3.36,1.26-5.41,2.15-4.69,1.97-5.08,1.91-.13-.02-.26,.02-.37,.1-.11,.08-.18,.2-.2,.33-.02,.13,0,.26,.08,.37,.08,.11,.19,.19,.32,.21,.99,.22-3.1-.7,9.27,1.92,3.86,.06,5.48-.08,16.05-.73-.31,1.05-.56,2.12-.76,3.19-.12,.62-.75,3.18,.03,3.42,.67,.2,1.29-1.38,1.45-2.1,.44-1.48,.61-3.04,.51-4.58,22.83-1.4,25.77-.83,27.78-3.19,1.19-1.46,.93-3.45-1.46-4.31Z"/>
    <path class="cls-1" d="M71.47,111.31c-4.27-.83-7.28,.76-8.74,3.23-.79,1.33-1.24,2.83-1.3,4.38-.02,.13,0,.26,.08,.37,.07,.11,.18,.19,.31,.23,.91,.24,1.85,.33,2.79,.28,4.34-.19,6.76-3.2,7.56-7.47,.04-.22-.01-.46-.14-.65-.13-.19-.33-.32-.55-.36Z"/>
    <path class="cls-1" d="M72.59,132.58c-.01-.14-.06-.27-.15-.38-.08-.11-.19-.2-.31-.25-.12-.06-.26-.08-.4-.06-.14,.01-.27,.06-.38,.14-2.1,1.56-5.19-.8-4.02-4.01,.07-.33,.24-.62,.47-.86,.24-.24,.53-.4,.86-.48,.33-.08,.67-.06,.98,.05,.32,.11,.6,.3,.81,.56,0,.13,.07,.26,.16,.35s.23,.14,.36,.14c.13,0,.26-.05,.36-.15,.1-.09,.15-.22,.16-.35,.06-.66-.03-1.33-.25-1.96-.22-.63-.57-1.21-1.03-1.69-.46-.49-1.01-.87-1.63-1.13-.62-.26-1.28-.39-1.95-.37-2.05,.28-3.95,1.24-5.39,2.72-1.27-.97-2.75-1.61-4.32-1.88-4.77-.09-5.96,7.77-4.01,12,1.88,4.08,6.22,7.35,9.23,4.35,.92,.71,1.97,1.25,3.09,1.57,.72,.19,1.46,.27,2.2,.23,3.9-.31,5.56-4.64,5.16-8.54Z"/>
    <path class="cls-1" d="M11.29,14.67c.85,.04,3.53,.09,4.87,.04,2.73-.06,16.29-.86,18.21-1,1.66-.13,7.26-.68,7.26-.68,.14-.01,.26-.08,.35-.18,.09-.1,.14-.23,.14-.37-.01-.14-.08-.27-.18-.35-.11-.09-.24-.13-.38-.12-5.87-.06-22.01,.8-25.48,1.08-2.43,.2-5,.61-4.86,.58-.12,.02-.23,.09-.31,.19-.08,.1-.12,.22-.11,.35,0,.12,.06,.24,.15,.33,.09,.09,.21,.14,.33,.14Z"/>
    <path class="cls-1" d="M22.05,19.43c.66,.09,2.29,.23,3.12,.24,2.15,.04,10.32-.21,11.73-.29,3-.18,4.79-.41,4.67-.4,.07,0,.14,0,.2-.03,.07-.02,.12-.06,.18-.11,.05-.05,.09-.11,.12-.17s.04-.13,.04-.2-.01-.14-.04-.2c-.03-.06-.07-.12-.12-.17-.05-.05-.11-.09-.18-.11s-.13-.03-.2-.03c-6-.27-12-.2-17.99,.22-.97,.12-1.56,.23-1.56,.23-.07,0-.13,.02-.19,.04-.06,.03-.12,.07-.16,.11-.05,.05-.08,.1-.11,.17-.02,.06-.04,.13-.03,.19,.01,.13,.07,.26,.17,.35,.1,.09,.22,.15,.36,.15Z"/>
    <path class="cls-1" d="M26.62,25.54c.37,.12,.76,.2,1.15,.24,.54,.04,2.66-.12,3.21-.17,.91-.08,1.8-.25,2.68-.5,.07,0,.13-.02,.2-.05,.06-.03,.12-.07,.16-.12,.04-.05,.08-.11,.1-.18,.02-.06,.03-.13,.03-.2,0-.07-.02-.13-.05-.2-.03-.06-.07-.12-.12-.16-.05-.04-.11-.08-.18-.1-.06-.02-.13-.03-.2-.03-1.97-.22-3.95-.2-5.92,.06-.38,.08-.75,.21-1.1,.39-.13,0-.26,.07-.35,.17-.09,.1-.14,.23-.13,.37,0,.13,.07,.26,.17,.35,.1,.09,.23,.14,.37,.13Z"/>
    <path class="cls-3" d="M63.82,3.61h0s0,0,0,0l-.21-.45,.21,.45s0,0,0,0m.02,0h-.02m.02,0h0c23.27-1.49,34.23-2.01,39.41-2.11,2.61-.05,3.71,0,4.19,.09,.08,.01,.13,.03,.16,.03,.03,.04,.06,.09,.11,.14,.02,.02,.03,.03,.04,.04,0,0,0,0,0,0,.03,.18,.06,.59,.08,1.61,.02,.82,.04,2.01,.08,3.75,.05,2.48,.12,6.08,.23,11.32,0,.1-.04,.19-.1,.26-.07,.07-.15,.11-.25,.12,0,0,0,0,0,0l-42.58,1.94h0c-.08,0-.16-.02-.22-.07-.06-.05-.1-.12-.1-.2l-1.09-16.9h0m.03-.02l-.03,.02m0-.02s0,0,0,0c0,0,0,0,0,0m0-.02v.02m43.31-.74v-.51s-.52,.02-.52,.02c-2.33,.09-39.53,1.16-42.22,1.22h-.54s.06,.55,.06,.55c.13,1.28,1.41,14.12,1.54,15.53l.04,.48,.48-.02c2.22-.11,37.82-1.83,40.95-1.97l.49-.02v-.49s-.27-14.78-.27-14.78Zm-40.73,16.24c-.24-2.49-1.19-11.96-1.44-14.52,5.07-.14,36.36-1.04,41.19-1.19l.25,13.79c-5.03,.24-35.39,1.7-39.99,1.93Z"/>
    <path class="cls-1" d="M169.04,159.23c-1.49-.3-.34-.3-8.75-.5-.68,0-1.39,.03-2.07,.01-.13,0-.26,.03-.37,.11-.1,.08-.17,.2-.19,.34-.02,.13,.02,.26,.1,.37,.08,.11,.2,.18,.33,.2,1.77,.53,3.62,.79,5.47,.79,1.35,.08,3.4,.05,3.85,.01,.56-.08,1.11-.19,1.65-.33,.13,0,.25-.07,.34-.16s.14-.22,.14-.35c0-.13-.05-.25-.14-.35-.09-.09-.21-.15-.34-.15Z"/>
    <path class="cls-1" d="M117.96,84.28c-3.3-1.08-6.74-2.5-9.93-2.32-.16,0-.31-.03-.45-.11-.14-.07-.25-.18-.34-.32-.08-.13-.13-.29-.13-.44,0-.16,.04-.31,.11-.45,5.5-8.98,8.76-14.44,14.37-21.57,.08-.11,.2-.18,.33-.2,.13-.02,.27,.01,.38,.09,.11,.08,.18,.2,.2,.33,.02,.13-.01,.27-.09,.38-2.23,3.34-10.8,17.08-12.92,20.58,3.89,.32,7.21,2.01,10.83,2.96,.17,.04,.32,.13,.43,.26s.19,.29,.21,.46c.02,.17,0,.34-.09,.49-.08,.15-.2,.28-.35,.36-4.63,2.63-7.58,4.06-12.58,6.59,.54,2.73,.95,5.19,1.4,6.98,.03,.13,0,.27-.06,.39-.07,.12-.18,.2-.32,.23-.13,.03-.27,.02-.39-.05-.12-.07-.21-.18-.25-.31-.77-2.62-1.12-4.44-1.85-7.47-.04-.15-.02-.3,.04-.44,.06-.14,.17-.25,.3-.32,3.02-1.64,10.45-5.71,11.13-6.1Z"/>
    <path class="cls-1" d="M142.6,121.88c-.06-.12-.17-.21-.3-.24-.13-.04-.27-.03-.38,.04-4.57,1.87-8.97,4.14-13.13,6.79-.36-2.92-1.08-8.51-1.08-8.56,3.56-3.63,5.06-5.8,9.41-9.74,.1-.09,.16-.22,.16-.35,0-.13-.04-.27-.13-.37s-.21-.17-.35-.18c-.13-.01-.27,.03-.37,.11-4.69,4.2-5.5,5.54-9.2,9.28-1.58-17.62,2.07-56.66,4.63-66.51,.04-.15,.04-.31,0-.46-.04-.15-.13-.28-.25-.39-.12-.1-.26-.18-.41-.2-.15-.03-.31-.02-.46,.04-19.28,7.08-38.07,18.37-49.14,35.47-.93-5.29-2.03-11.28-2.68-16.3-.02-.14-.07-.26-.15-.38-.08-.11-.18-.2-.31-.26-.12-.06-.26-.1-.39-.1-.14,0-.27,.03-.39,.09-9.02,4.69-21.6,6.42-31.5,6.01-.1,0-.2,.03-.3,.07-.09,.04-.18,.1-.25,.18-.07,.08-.12,.16-.16,.26-.04,.1-.05,.2-.05,.3,.22,2.25,2.05,17.13,2.78,22.33,.02,.13,.09,.24,.19,.32,.1,.08,.23,.12,.36,.1,.13-.01,.25-.08,.33-.18,.08-.1,.13-.23,.12-.36-.48-5.22-2.06-19.56-2.25-21.52,10.21,.26,21.19-1.01,30.42-5.47,.52,3.42,3.54,21.56,3.63,21.95,.44,1.96,.66,2.45,1.16,2.37,.69-.11,.47-1.15,.43-2.68-.33-2.97-.47-3.36-.59-4.14,10.46-17.28,28.81-28.66,47.84-35.9-1.85,10.76-3.08,21.61-3.69,32.51-.94,14.04-1.29,30.67,1.37,45.86,.12,.79,.48,2.49,.7,3.24-.92,2.56-1.58,5.21-1.95,7.91-.37,2.58-.36,3.27,.17,3.36,.61,.11,.73-.6,1.17-2.18,.4-1.26,1.31-5.54,1.33-5.67,.59-3.15,.6-1.99,.09-7.91l-.08-.68c2.72-1.15,5.38-2.45,7.96-3.89,1.94-.87,3.78-1.97,5.47-3.27,.12-.06,.21-.17,.25-.3,.04-.13,.03-.27-.02-.39Z"/>
    <path class="cls-1" d="M130.32,75.05c1.74-1.21,3.39-2.54,4.95-3.98,.06-.04,.1-.09,.14-.15,.03-.06,.06-.12,.07-.19,.01-.07,0-.14,0-.2-.02-.07-.04-.13-.09-.18-.04-.06-.09-.1-.15-.14-.06-.04-.12-.06-.19-.07-.07-.01-.14,0-.2,0-.07,.02-.13,.05-.18,.09-1.87,1.09-3.56,2.45-5.02,4.04-.1,.09-.17,.22-.17,.35,0,.14,.04,.27,.13,.37,.09,.1,.22,.17,.35,.17,.14,0,.27-.04,.37-.13Z"/>
    <path class="cls-1" d="M146.38,74.18c.4,.49,1.41,1.61,3.07,3.87,.36,.52,1.2,1.61,1.66,2.18,1.7,1.97,1.96,2.28,2.4,1.95,.43-.34,.09-.74-.5-1.74-1.54-2.69-3.39-5.19-5.51-7.45-.24-.26-1.85-1.7-2.38-1.17-.38,.45,1.14,2.24,1.25,2.36Z"/>
    <path class="cls-1" d="M199.65,75.75c-4.24,5.24-1.8,2.3-5.91,7.64-2.04,2.54-3.92,5.21-5.61,8-.26-.71-4.62-13.47-5.01-14.59-.01-.06-.04-.13-.08-.18-.04-.05-.09-.1-.15-.13s-.12-.05-.19-.06c-.07,0-.13,0-.2,.02-.06,.02-.12,.05-.17,.09-.05,.04-.09,.09-.12,.15-.03,.06-.05,.12-.05,.19,0,.07,0,.13,.02,.19,2.69,12.69,10.83,32.97,16.18,44.8,.05,.13,.15,.23,.28,.28,.13,.05,.27,.05,.4,0,.13-.05,.23-.15,.28-.28,.05-.13,.05-.27,0-.4-.48-1.25-7.77-20.76-10.66-28.66,2.64-3.51,8.66-11.04,10.31-13.68,.57-.92,1.09-1.87,1.54-2.86,.07-.11,.09-.25,.06-.38-.03-.13-.11-.24-.23-.31-.11-.07-.25-.09-.38-.07-.13,.03-.24,.11-.32,.22Z"/>
    <path class="cls-1" d="M191.48,62.48l-.69-.06c-4.04,1.48-7.87,3.51-11.38,6.02-.17,.11-.29,.27-.34,.46-.06,.19-.04,.39,.04,.57,.24,.53,.97,2.19,1.84,4.32-9.44,4.11-18,7.21-27.58,11.96-.12,.06-.23,.16-.29,.28-.06,.12-.09,.26-.07,.4l.3,2.9c-3.4,3.1-6.58,6.45-9.49,10.02-.09,.11-.13,.24-.12,.38,.01,.14,.07,.26,.17,.35,.05,.05,.11,.08,.17,.1,.06,.02,.13,.03,.2,.03s.13-.02,.19-.05c.06-.03,.11-.07,.16-.12,2.78-3.24,5.74-6.3,8.89-9.18-.79,14.19,3.49,32.25,13.39,43.87,.09,.1,.21,.16,.35,.17,.14,.01,.27-.03,.37-.12,.1-.09,.17-.21,.19-.34,.01-.14-.02-.27-.1-.38-.99-1.27-1.91-2.6-2.74-3.98-9.64-15.78-9.54-31.85-10.54-43.33,8.46-4.04,19.04-7.92,27.96-11.75,.2-.08,.35-.23,.44-.42,.09-.19,.1-.41,.04-.61-.44-1.31-.93-2.4-1.86-4.53,3.13-2.16,6.51-3.94,10.06-5.28,19.02,10.18,29.11,35.1,27.81,56.14-.38,6.55-1.03,13.35-4.12,19.13-.04,.06-.06,.12-.07,.19,0,.07,0,.13,.01,.2,.02,.07,.05,.13,.09,.18,.04,.05,.09,.1,.15,.13,.12,.06,.26,.08,.39,.04,.13-.04,.24-.12,.31-.24,3.33-5.46,4.32-13.27,4.8-19.53,1.48-22.23-9.26-47.66-28.93-57.92Z"/>
    <path class="cls-1" d="M156.68,155.55c-.01-.21-.1-.41-.25-.56s-.35-.24-.56-.24l-29.64-.94-10.94-51.11c-.04-.19-.15-.36-.3-.48-.15-.12-.34-.19-.53-.2l-100.3-1.19c-.08,0-.16,.01-.23,.04-.07,.03-.14,.08-.19,.15-.05,.06-.08,.14-.1,.21-.02,.08-.01,.16,.01,.24l13.83,57.87c.07,.32,.36,1.09,.69,1.09h127.95c.23,0,.45,.44,.63,.27,.34-.33,.27-.27-.07-5.13Zm-35.58,3.45c-1.21-5.79-4.6-21.4-4.88-22.87-1.39-7.2-2.39-14.51-3.81-21.72-1.56-6.87-.94-3.99-2.29-9.2-.03-.13-.12-.24-.23-.31-.11-.07-.25-.09-.38-.06-.07,.01-.13,.04-.18,.08-.06,.04-.1,.09-.14,.15-.04,.06-.06,.12-.07,.19-.01,.07,0,.13,0,.2,.23,1.24,4.23,24.82,5.39,31.01,1.77,8.88,3.08,13.18,5.46,22.54-36.6-.23-88.72-.56-91.21-.57l-13.95-56.57c2.55,.06,94.8,1.8,98.97,1.85l10.91,51.12c.04,.19,.14,.37,.29,.49,.15,.13,.34,.2,.54,.2l29.5,.92,.19,2.77c-2.07,0-16.09-.1-34.09-.21Z"/>
  </g>
</svg>