<?xml version="1.0" encoding="utf-8"?>
<!-- Generator: Adobe Illustrator 26.5.0, SVG Export Plug-In . SVG Version: 6.00 Build 0)  -->
<svg version="1.1" id="Layer_1" xmlns="http://www.w3.org/2000/svg" xmlns:xlink="http://www.w3.org/1999/xlink" x="0px" y="0px"
	 viewBox="0 0 289 207" style="enable-background:new 0 0 289 207;" xml:space="preserve">
<style type="text/css">
	.st0{fill:#F07D29;}
	.st1{fill:#180B02;}
</style>
<path class="st0" d="M173.1,132.4c-1-0.6-2.2-0.2-3.1-0.7c-0.8-0.5-0.4-2.3-0.1-3.1c0.3-0.8,0.7-1.5,1.2-2.2
	c0.2-0.2,1.4-0.7,1.5-1.7c0.1-0.8-0.5-1.2-1.3-1.3c-0.7,0-1.4,0-2-0.2c-0.2-0.2-0.4-0.5-0.5-0.8c-0.1-0.3-0.1-0.6,0-0.9
	c0.2-1.1,1.4-2.1,1.5-3.5c0.1-1.2-1.7-2.2-2.1-3.3c-0.3-1.7-0.3-3.5,0-5.2l0.1-0.4c0-0.1,0-0.2,0-0.2c0-0.1,0-0.2-0.1-0.2
	c0-0.1-0.1-0.1-0.1-0.2c-0.1-0.1-0.1-0.1-0.2-0.1c-0.5-0.2-0.9,0.4-0.9,0.7c-0.1,0.8-2.7,6.2-4,9.3c-0.6,1.4-1.2,2.8-1.6,4.3
	c0,0-0.4,16.8-0.5,17.5c-0.4,8-0.8,8.5,0.2,8.9c0.2,0.1,0.4,0.1,0.6,0.1c0.2,0,0.4-0.1,0.5-0.2c2.7-2.3,5.3-5.2,7.7-7.5
	c0.1-0.1,0.2-0.3,0.3-0.5c0.1-0.2,0.1-0.4,0-0.5c-0.4-1.4,1.2-3,2.1-4.1c0.5-0.5,1.4-1.2,1.5-2.3c0-0.3,0-0.6-0.1-0.9
	C173.6,132.8,173.4,132.6,173.1,132.4z"/>
<path class="st0" d="M179.8,102.2c0.1,0,0.1,0.1,0.1,0.2c0,0.1,0,0.1,0,0.2c0,0.1,0,0.1-0.1,0.2c0,0.1-0.1,0.1-0.2,0.1
	c-0.6,0.4-1.6,0.5-2.2,0.8c-2.6,1.3-1.8,3.6,0.1,2.9c1.8-0.1,1.5-0.1,1.5,0.2c0,0.3,0,0.6,0,0.9c-0.1,1.4-2,1.2-3,2.1
	c-0.2,0.2-0.3,0.4-0.4,0.6c-0.1,0.2-0.1,0.5,0,0.7c0.1,0.2,0.2,0.5,0.3,0.6c0.2,0.2,0.4,0.3,0.6,0.4c0.5,0.1,2.3-0.4,2.3,0.1
	c0,1.1,0,1-0.3,1.6c-0.8,1.6-2.5,2.3-3.1,3.4c-0.2,0.4-0.3,0.8-0.3,1.2c0.1,0.4,0.3,0.8,0.6,1.1c0.4,0.2,0.8,0.4,1.2,0.4
	c2.2,0.4,1.5,2.9,0,4.6c-0.8,0.9-1.9,2-1.8,3.3c0,0.3,0.2,0.5,0.4,0.7c0.2,0.2,0.5,0.3,0.7,0.3c0.2,0,1.7-0.1,2.2-0.1
	c0.9,0,1.2,0.1,1.7-0.3c0.2-0.2,0.3-0.5,0.3-0.7c0.1-3.7,0.3-9.2,0.3-13.8c0.3-0.8,0.3-1.6,0.1-2.4c0-0.9,0-1.8,0-2.6
	c0.2-0.5,0.3-1.1,0.3-1.6c0-0.6-0.1-1.2-0.3-1.7c2.6-6.5,1.8-4.5,2-5c0.7-0.8,1.8-1.5,1.6-2.8c-0.2-0.7-0.5-1.3-1-1.7
	c-0.5-0.5-1.1-0.8-1.8-1c-0.5-0.1-1.1,0-1.6,0.3c-0.5,0.3-0.8,0.8-0.9,1.3c-0.3,0.6,0.4,1.3,0.9,2.1c-0.5,0-1,0.1-1.4,0.3
	c-0.2,0.1-0.4,0.1-0.5,0.3c-0.1,0.1-0.3,0.3-0.3,0.5c-0.1,0.2-0.1,0.4-0.1,0.6c0,0.2,0.1,0.4,0.2,0.6
	C178.6,101.4,179.2,101.9,179.8,102.2z"/>
<path class="st0" d="M71.5,46L69,14.2L7.2,17.6l4.8,30.7l11.9-0.3l6.3,14.5l5.2-15.1L71.5,46z"/>
<path class="st1" d="M225.2,80.8c1,0.7,4,2.8,7,5c0.1,0.1,0.3,0.2,0.4,0.2c0.2,0,0.3-0.1,0.4-0.2c0.1-0.1,0.2-0.3,0.2-0.4
	c0-0.2-0.1-0.3-0.2-0.4c-2-2.2-4.5-4-7.3-5.2c-0.1-0.1-0.3-0.1-0.4,0c-0.1,0.1-0.3,0.2-0.3,0.3c-0.1,0.1-0.1,0.3,0,0.4
	C225,80.6,225.1,80.8,225.2,80.8z"/>
<path class="st0" d="M100.4,19.7c-0.7,0-2.6,0.1-3.1,0.2l-1.3-3.3c0-0.1-0.1-0.2-0.2-0.3c-0.1-0.1-0.2-0.1-0.4-0.1
	c-0.1,0-0.3,0.1-0.4,0.1c-0.1,0.1-0.2,0.2-0.2,0.3c0,0-0.7,2.3-1,3.5h-3.2c-0.2,0-0.4,0.1-0.5,0.2c-0.2,0.1-0.3,0.3-0.3,0.5
	s-0.1,0.4,0,0.6c0.1,0.2,0.2,0.3,0.3,0.5l2.6,2.1l-0.9,3.5c-0.1,0.2,0,0.4,0,0.6c0.1,0.2,0.2,0.4,0.4,0.5c0.2,0.1,0.4,0.2,0.6,0.1
	c0.2,0,0.4-0.1,0.6-0.3l2.3-2.1l2.5,1.9c0.2,0.1,0.4,0.2,0.6,0.2c0.2,0,0.4-0.1,0.6-0.2c0.2-0.1,0.3-0.3,0.4-0.5
	c0.1-0.2,0.1-0.4,0-0.6l-1.1-3.4l2.4-2.2c0.2-0.1,0.3-0.3,0.3-0.5c0.1-0.2,0-0.4,0-0.6c-0.1-0.2-0.2-0.4-0.4-0.5
	S100.6,19.7,100.4,19.7z"/>
<path class="st0" d="M113.9,19c-0.7,0-2.6,0.1-3.1,0.2l-1.3-3.3c0-0.1-0.1-0.2-0.2-0.3c-0.1-0.1-0.2-0.1-0.4-0.1
	c-0.1,0-0.3,0.1-0.4,0.1c-0.1,0.1-0.2,0.2-0.2,0.3c0,0-0.7,2.3-1,3.5H104c-0.2,0-0.4,0.1-0.5,0.2c-0.2,0.1-0.3,0.3-0.3,0.5
	c-0.1,0.2-0.1,0.4,0,0.6c0.1,0.2,0.2,0.3,0.3,0.5l2.6,2.1l-0.9,3.5c-0.1,0.2,0,0.4,0,0.6c0.1,0.2,0.2,0.4,0.4,0.5
	c0.2,0.1,0.4,0.2,0.6,0.1c0.2,0,0.4-0.1,0.6-0.3l2.3-2.1l2.5,1.9c0.2,0.1,0.4,0.2,0.6,0.2c0.2,0,0.4-0.1,0.6-0.2
	c0.2-0.1,0.3-0.3,0.4-0.5c0.1-0.2,0.1-0.4,0-0.6l-1.1-3.4l2.4-2.2c0.2-0.1,0.3-0.3,0.3-0.5c0.1-0.2,0-0.4,0-0.6
	c-0.1-0.2-0.2-0.4-0.4-0.5C114.4,19.1,114.1,19,113.9,19z"/>
<path class="st0" d="M128.3,18.7c-0.7,0-2.6,0.1-3.1,0.2l-1.3-3.3c0-0.1-0.1-0.2-0.2-0.3c-0.1-0.1-0.2-0.1-0.4-0.1
	c-0.1,0-0.3,0.1-0.4,0.1c-0.1,0.1-0.2,0.2-0.2,0.3c0,0-0.7,2.3-1,3.5h-3.2c-0.2,0-0.4,0.1-0.5,0.2c-0.2,0.1-0.3,0.3-0.3,0.5
	c-0.1,0.2-0.1,0.4,0,0.6c0.1,0.2,0.2,0.3,0.3,0.5l2.6,2.1l-0.9,3.5c-0.1,0.2,0,0.4,0,0.6c0.1,0.2,0.2,0.4,0.4,0.5
	c0.2,0.1,0.4,0.2,0.6,0.1c0.2,0,0.4-0.1,0.6-0.3l2.3-2.1l2.5,1.9c0.2,0.1,0.4,0.2,0.6,0.2c0.2,0,0.4-0.1,0.6-0.2
	c0.2-0.1,0.3-0.3,0.4-0.5c0.1-0.2,0.1-0.4,0-0.6l-1.1-3.4l2.4-2.2c0.2-0.1,0.3-0.3,0.3-0.5s0-0.4,0-0.6c-0.1-0.2-0.2-0.4-0.4-0.5
	C128.8,18.7,128.6,18.7,128.3,18.7z"/>
<path class="st1" d="M185.5,60.7c0.3-0.3,1.3-1.4,1.8-1.8c1.9-1.7,2.3-1.9,2.7-1.5c0.5,0.5,0,1-0.9,2.3c-0.8,1.1-1.7,2.2-2.7,3.1
	c-0.2,0.2-0.4,0.3-0.7,0.3c-0.3,0-0.5-0.1-0.7-0.2c-0.8-0.5-1.5-1.2-2.1-1.8c-0.6-0.6-1.7-1.9-1.1-2.4
	C182.4,57.9,184.7,60,185.5,60.7z"/>
<path class="st1" d="M184.6,54.3c0.6,0.3,0.7-0.1,2.6-3.5c0.8-1.4,2.5-4.9,5.1-8.8c0.2-0.3,0.3-0.6,0.5-0.9c0.7-1.4,1.1-2,0.6-2.4
	C191.6,37.4,182.8,53.5,184.6,54.3z"/>
<path class="st1" d="M198,44.5c0.5,0.1,1,0.4,1.4,0.8c0.4,0.4,0.6,0.9,0.7,1.4c0.1,0.5,0,1.1-0.3,1.6c-0.3,0.5-0.7,0.9-1.1,1.1
	c-0.5,0.3-1,0.3-1.6,0.3c-0.5-0.1-1-0.3-1.4-0.7c-0.4-0.4-0.7-0.9-0.8-1.4c-0.1-0.5,0-1.1,0.2-1.6c0.2-0.6,0.6-1,1.1-1.3
	C196.8,44.3,197.4,44.3,198,44.5z"/>
<path class="st1" d="M186.7,39.1c0.5,0.1,1,0.4,1.4,0.8c0.4,0.4,0.6,0.9,0.7,1.4c0.1,0.5,0,1.1-0.3,1.6c-0.3,0.5-0.7,0.9-1.1,1.1
	c-0.5,0.3-1,0.3-1.6,0.3c-0.5-0.1-1-0.3-1.4-0.7c-0.4-0.4-0.7-0.9-0.8-1.4c-0.1-0.5,0-1.1,0.2-1.6c0.2-0.6,0.6-1,1.1-1.3
	C185.5,39,186.1,38.9,186.7,39.1z"/>
<path class="st1" d="M204.9,72.2C205.6,74,206,76,206,78c0,2-0.4,4-1.2,5.8c-2.9,7.3-6.7,9.7-5.3,21.8c0,0.2,0.1,0.3,0.2,0.4
	c0.1,0.1,0.3,0.2,0.4,0.1c0.2,0,0.3-0.1,0.4-0.2c0.1-0.1,0.2-0.3,0.2-0.4c-0.1-2.8,0.1-5.6,0.7-8.3c2-9.8,10.5-14.9,4.6-25.6
	c0-0.1-0.1-0.1-0.1-0.2c-0.1-0.1-0.1-0.1-0.2-0.1c-0.1,0-0.2,0-0.2,0c-0.1,0-0.2,0-0.2,0.1c-0.1,0-0.1,0.1-0.2,0.1
	c-0.1,0.1-0.1,0.1-0.1,0.2c0,0.1,0,0.2,0,0.2C204.8,72,204.8,72.1,204.9,72.2z"/>
<path class="st1" d="M209,68.3c0.6,3,0.6,1.7,1.2,4.6c0.3,1.3,0.4,3.6,0.6,4.8c0,0.1,0,0.2,0,0.2c0,0.1,0.1,0.2,0.1,0.2
	c0,0.1,0.1,0.1,0.2,0.2s0.1,0.1,0.2,0.1c0.1,0,0.2,0,0.2,0c0.1,0,0.2-0.1,0.2-0.1c0.1-0.1,0.1-0.1,0.2-0.2c0-0.1,0.1-0.2,0.1-0.2
	c0.1-0.3,0.2-0.7,0.3-1c0.5-2.7,0-5.4-1.2-7.8c-0.3-0.5-0.6-0.9-1-1.2c-0.1-0.1-0.2-0.2-0.4-0.3c-0.2,0-0.3,0-0.5,0.1
	c-0.1,0.1-0.2,0.2-0.3,0.4C208.9,68,208.9,68.2,209,68.3z"/>
<path class="st1" d="M213.2,64.2c0.1,0.5,0.2,1,0.3,1.5c0.4,1.1,0.7,2.2,0.9,3.3c0.2,1,0.6,4.4,0.6,4.9c0,0.2,0,0.3,0.1,0.5
	s0.3,0.2,0.4,0.2c0.2,0,0.3,0,0.5-0.1c0.1-0.1,0.2-0.3,0.2-0.4c0.5-1.8,0.6-3.6,0.2-5.4c-0.2-1.3-0.6-2.5-1.2-3.7
	c-0.3-0.5-0.7-0.9-1.1-1.3c-0.1-0.1-0.2-0.2-0.4-0.3c-0.2,0-0.3,0-0.5,0.1c-0.1,0.1-0.2,0.2-0.3,0.4C213.2,63.8,213.2,64,213.2,64.2
	z"/>
<path class="st1" d="M217,58.4c0.2,1,0.5,2.1,0.8,3.1c0.8,2.3,1.5,4.6,1.9,7c0.3,2.3,0.4,4.5,0.2,6.8c0,0.2,0,0.3,0.1,0.5
	c0.1,0.1,0.2,0.2,0.4,0.3c0.1,0,0.2,0,0.2,0c0.1,0,0.2,0,0.2-0.1c0.1,0,0.1-0.1,0.2-0.2c0-0.1,0.1-0.1,0.1-0.2
	c0.8-2.4,1-4.9,0.6-7.4c-0.4-2.5-1.1-5-2-7.4c-0.4-1-1-2-1.6-2.8c0-0.1-0.1-0.1-0.1-0.2c-0.1-0.1-0.1-0.1-0.2-0.1
	c-0.1,0-0.2,0-0.2,0c-0.1,0-0.2,0-0.2,0.1s-0.1,0.1-0.2,0.1c-0.1,0.1-0.1,0.1-0.1,0.2c0,0.1,0,0.2,0,0.2
	C216.9,58.3,217,58.4,217,58.4z"/>
<path class="st1" d="M227.3,65.2c-0.3,1.8-0.8,3.5-1.5,5.2c-1.2,3.2-2.9,6.1-5,8.8c-4,5.3-2.9,12.9-0.4,19.1c0,0.1,0.1,0.2,0.1,0.2
	c0.1,0.1,0.1,0.1,0.2,0.1c0.1,0,0.2,0.1,0.2,0.1c0.1,0,0.2,0,0.2,0c0.1,0,0.2-0.1,0.2-0.1c0.1-0.1,0.1-0.1,0.1-0.2
	c0-0.1,0.1-0.2,0.1-0.2c0-0.1,0-0.2,0-0.2c-1.6-5.2-2.5-13.1,0.9-17.4c3.5-4.7,6-9.3,6-15.1c0-0.2,0-0.3-0.2-0.4
	c-0.1-0.1-0.3-0.2-0.4-0.2c-0.2,0-0.3,0-0.4,0.1C227.4,64.9,227.3,65,227.3,65.2z"/>
<path class="st1" d="M281.5,202.4c-1.4-2.4-2.6-5-3.9-7.6c-3.8-8.2-3.3-8.7-4.3-8.7c-0.5,0-1.4,0-2.1,0.1c-0.7-1.6-1.5-3.2-2.3-4.7
	c-0.1-0.1-0.2-0.2-0.3-0.3c-0.1-0.1-0.3-0.1-0.4-0.1c-1.1,0-2.3,0.1-3.4,0.3c-0.2,0-0.4,0.1-0.5,0.3c-0.1,0.2-0.2,0.4-0.2,0.6
	c0,0.3-0.1,2.4-0.1,2.7l-2.1,0c-0.1-0.4-0.4-2-0.6-3.2c-0.1-0.2-0.2-0.4-0.4-0.5c-0.2-0.1-0.4-0.2-0.6-0.2c-2.6,0-4.4,0-7.7,0.1
	c-0.2,0-0.4,0.1-0.6,0.2c-0.2,0.1-0.3,0.3-0.4,0.5c-0.4,1.1-0.5,2.2-0.6,3.3l-2.1,0c-0.2-0.4-0.6-2.1-0.8-2.6
	c-0.1-0.2-0.2-0.4-0.4-0.5c-0.2-0.1-0.4-0.2-0.6-0.2h-3.6c-0.2,0-0.4,0.1-0.6,0.2c-0.2,0.1-0.3,0.3-0.4,0.5l-0.9,2.8
	c-0.2-0.5-0.4-0.9-0.6-1.4c-0.1-0.1-0.2-0.2-0.3-0.3c-0.1-0.1-0.3-0.1-0.4-0.1c-5.8-0.4-16.5,0-18.7-0.2c-0.2,0-0.4,0-0.6,0.2
	c-0.2,0.1-0.3,0.3-0.4,0.5c-0.4,1.3-0.6,2.5-0.8,3.4c-0.2,0-0.5-0.1-0.7-0.1c-0.2,0-0.5,0-0.7,0.1c-0.2,0.1-0.4,0.3-0.5,0.5
	c-1,2.4-2.1,4.8-3.1,7.2c-1.2-0.8-2.4-1.6-3.5-2.5c-0.1-0.1-0.6-0.7-0.8-0.8c0.3-1.2,4.5-3.8,2.3-6.1c-1.6-1.6-4.5,1.6-6.5,2
	c-0.3,0-0.6,0.1-0.9,0.1c0-0.1,0.1-0.2,0.1-0.3c1-2.5,3.7-4.8,2.6-7.5c-1-2-6.1,1.6-7.2,0.6c0,0,0-0.1,0-0.1c0.3-2.6,2-5.2,1.2-7.8
	c-0.1-0.4-0.4-0.7-0.7-1c-0.3-0.3-0.7-0.4-1.1-0.4c-1.3,0.1-2.7,0.3-3.9,0.8c1.2-2.3,3-4.6,1.6-6.7c-1.2-1.8-5.1,0.7-6.7,0.9
	c1.6-1.6,2.9-3.4,4-5.3c0.7-1.6,0.7-3.5-1.1-4.2c-3.2-1.2-6.9,1.8-8.7,1.8c0.1-0.3,0.2-0.6,0.2-0.7c0.4-1.1,1.7-3.7,1.3-5.2
	c-0.4-1.3-1.7-1.6-3.1-1.1c-0.9,0.4-2,0.5-3,0.4c0-0.2,0-0.4,0.1-0.6c0.7-2,2.6-3.7,2.6-5.7c0-0.2,0-0.5,0-0.7
	c-0.1-0.2-0.2-0.4-0.3-0.6c-0.1-0.2-0.3-0.3-0.5-0.4c-0.2-0.1-0.4-0.2-0.7-0.2c-1.2,0-3.4,1.2-4.9,1.2c0.9-2.3,5.5-6.1,3.4-8.1
	c-1.1-1.4-5.3,1.9-7.3,1.6c0.4-0.6,0.8-1.2,1.2-1.8c1.2-1.4,2.3-3,3.2-4.6c0.1-0.2,0.2-0.5,0.2-0.8c0-0.3,0-0.5-0.1-0.8
	c-0.1-0.2-0.2-0.5-0.4-0.7c-0.2-0.2-0.4-0.3-0.6-0.4c-1.1-0.4-2.5,0.1-3.9,0.3c-0.3,0.1-0.6,0.1-0.9,0c0.4-0.9,1-1.7,1.7-2.4
	c1.4-1.3,2.6-2.6,3.8-4.1c0.6-1,0.8-2.3-0.2-2.9c-1.4-0.8-3.9,0.7-5.4,0.4c0,0-0.1,0-0.1,0l0.3-0.5c1.4-2,3.1-3.8,5-5.2
	c0.2-0.1,0.3-0.3,0.4-0.5s0.1-0.4,0-0.6c-0.1-0.2-0.2-0.4-0.4-0.5c-0.2-0.1-0.4-0.2-0.6-0.2c-1.3,0.2-2.6,0.3-4,0.3
	c-0.3,0-0.6,0-0.9-0.1c-0.3-0.1-0.6-0.3-0.8-0.5c1.1-1.2,1.1-1,3.3-2.3c0.6-0.4,3.2-1.9,3.3-2.6c0.1-0.2,0.1-0.3,0-0.5
	c0-0.2-0.1-0.3-0.2-0.5c-0.6-0.8-2.3-0.5-5.6-0.5c2.1-1.4,4.3-2.6,6.6-3.6c0.2-0.1,0.3-0.2,0.4-0.3c0.1-0.1,0.2-0.3,0.2-0.5
	c0-0.2,0-0.3-0.1-0.5c-0.1-0.2-0.2-0.3-0.3-0.4c-1.3-0.8-2.6-1.5-4-2c1.2-0.3,2.5-0.5,3.7-0.6c0.2,0,0.3-0.1,0.5-0.2
	c0.1-0.1,0.2-0.3,0.3-0.4c0-0.2,0-0.3,0-0.5c-0.1-0.2-0.2-0.3-0.3-0.4c-1.4-0.9-2.8-1.7-4.2-2.5c0.4,0.1,0.8,0.1,1.2,0.1
	c0.2,0,0.3,0,0.4-0.1c0.1-0.1,0.2-0.2,0.3-0.4c0.3-1.1,1.3-4.1,1.7-5.3c1.9,0.7,3.9,1.1,5.9,1.1c6.6,0,15.2-3.6,21.2-10.3
	c0.6-0.6-0.4-1.5-0.9-0.9c-4.7,4.5-13.4,9.1-20.3,9.1c-3.6-0.2-7.1-1.4-10.1-3.4c-1.2-0.8-2.4-1.6-3.5-2.6c3.2-4.3,7.4-7.7,12.3-9.9
	c2.3,1.6,5,2.6,7.8,2.8c2.8,0.2,5.6-0.4,8.1-1.7c7.4-4,11.9-13.6,7.6-20.8c3.4-4.6,8.1-9.9,11.3-13.5c1.6,4.5,2.2,9.2,1.9,13.9
	c0,0.8,0,1.7-0.1,2.5c-0.1,1.5-0.4,2.2,0.3,2.4c0.8,0.2,0.9-0.9,1.3-2.2c1-4.6,0.9-9.3-0.4-13.8c2.3-2.3,3.7-5.3,4.2-8.5
	c0.6-6.1-2.8-13.2-9.2-13.2c-0.3-2-1.2-3.9-2.6-5.5c-1.3-1.6-3.1-2.7-5-3.4c-4.7-1.9-9.9-2.1-14.8-0.6c-8,2.6-13.4,9.6-17.3,13.4
	c-3.1,3.1-6.4,7.6-9.3,10.2c-4.7,4.3-8.3,1.6-10.8,4.5c-2.3,2.7-0.6,5.7,2.6,6.8c-1.4,3.3,0.1,7,3.7,7c-0.3,2.9,1.4,5.4,4.4,5.2
	c0,0.8,0.2,1.6,0.8,2.2c0.5,0.6,1.3,1,2.1,1.2c0.8,0.2,1.7,0.3,2.6,0.3c0.1,1.9,0.6,3.7,1.5,5.4c0.9,1.7,2.1,3.1,3.6,4.3
	c-1.7-0.6-6.3,0.3-7.3,0.7c-0.1,0.1-1.8,0.7-1.6,1.4c0.2,0.6,1.8,0.6,2.5,0.5c0.1,0,4-0.7,4.9-0.9c1.8-0.4,2.2-0.6,2.1-1.1
	c0-0.3-0.3-0.3,0.9,0.4c-3.8,2.3-7,5.7-9.1,9.7c-0.1,0.1-0.1,0.2-0.1,0.3s0,0.2,0,0.3s0.1,0.2,0.2,0.2c0.1,0.1,0.2,0.1,0.2,0.1
	c2,2.5,4.6,4.5,7.5,5.8c-0.7,1.9-1,2.6-1.7,4.8c-1-0.1-2.7-0.5-3.6-0.8c-0.2,0-0.3,0-0.5,0.1c-0.1,0.1-0.3,0.2-0.3,0.3
	c-0.1,0.1-0.1,0.3-0.1,0.5c0,0.2,0.1,0.3,0.2,0.4c1.5,1.3,3.1,2.5,4.9,3.5c-1.5,0.3-3.1,0.7-4.5,1.2c-0.2,0.1-0.3,0.2-0.4,0.3
	c-0.1,0.2-0.2,0.3-0.1,0.5c0,0.2,0.1,0.4,0.2,0.5c0.1,0.1,0.3,0.3,0.5,0.3c1.6,0.4,3.1,1.1,4.6,1.9c-1.8,0.8-3.5,1.7-5.1,2.8
	c-0.7,0.5-1.3,1-2,1.6c-0.7,1.1,0.9,2,2.2,2.2c0.9,0.1,1.8,0.1,2.7,0c-1.4,0.8-3.8,1.9-4.6,3.3c-0.2,0.3-0.3,0.5-0.3,0.8
	c0,0.3,0,0.6,0.1,0.9c0.1,0.3,0.2,0.5,0.4,0.8c0.2,0.2,0.4,0.4,0.7,0.5c1,0.6,2.2,0.8,3.4,0.7c-0.2,0.2,0.4-0.4-2,2.3
	c-0.6,0.6-1,1.3-1.5,2c-0.8,1.3-0.1,2.6,1.6,2.9c1.4,0,2.8-0.1,4.2-0.5c-0.2,0.3-0.5,0.7-0.8,1c-1.1,1.2-4.2,3.8-4.9,5.9
	c-0.6,1.6,0.6,2.6,2.1,2.7c1.3-0.1,2.6-0.2,3.8-0.5c-0.6,1.2-2.7,3.7-3.6,4.9c-0.7,1.1-1.8,2.4-0.9,3.4c2,2.1,5.7-0.2,7.4-0.7
	c-1.3,2.2-4.2,4.9-3.7,6.9c0.1,0.4,0.3,0.7,0.6,0.9c0.3,0.2,0.7,0.3,1.1,0.3c1.6-0.1,3.2-0.5,4.7-1.1c-0.4,1.2-1,2.3-1.8,3.3
	c-1.6,2.8-1,5,2.2,4.8c1-0.1,2-0.4,3-0.7c-0.2,1.3-0.7,2.6-1.2,3.8c-0.2,0.5-0.4,1.1-0.5,1.7c-0.1,1.7,2,1.9,3.7,1.4
	c1.8-0.6,4.2-2.1,6-1.8c0.1,0,0.5,0.1,0.6,0.2c0.5,1.9-3.3,5.1-4.5,7.6c-0.1,0.3-0.2,0.6-0.1,0.9c0.1,0.3,0.3,0.5,0.6,0.7
	c2.2,1,4.5-0.9,6.5-1.3c0.1,0,0.2,0,0.3,0c0.6,1.3-2.9,5.5-2.5,6.8c0.1,1.1,1.6,0.9,2.6,0.5c1.3-0.4,3.4-1.3,3.8-0.7
	c0.6,2-1.3,5.2-1.2,7.2c0,1.4,1.2,2.1,2.7,1.9c1.6-0.2,2.9-1,4.8-1.4c0.3,2.1-3.9,5.9-2.7,7.7c0.5,0.8,1.7,0.6,2.5,0.4
	c1.9-0.4,3.5-2.1,4.8-2.4c0.1,0,0.2-0.1,0.3,0c1.1,1.1-2.5,3.3-2.6,5.2c-0.1,1.3,3.9,3.6,5.1,4.4c-0.7,1.5-2.9,6.6-3.4,7.7
	c-0.1,0.2-0.1,0.3-0.1,0.5c0,0.2,0.1,0.4,0.2,0.5c0.1,0.1,0.3,0.3,0.4,0.3c0.2,0.1,0.3,0.1,0.5,0.1c16.3-1.4,55.7-0.2,68.9-1.9
	C281.6,203.9,282.2,202.8,281.5,202.4z M209.6,26.5c1.1-1.4,4.3-4.7,4.4-4.8c0.1-0.1,0.2-0.2,0.4-0.3s0.3,0,0.5,0.1
	c0.1,0.1,0.2,0.2,0.3,0.4c0,0.2,0,0.3,0,0.5c-1,2.2-2.7,4-4.8,5.2C209.7,27.9,209.1,27.1,209.6,26.5L209.6,26.5z M189.3,72.6
	c3-0.6,4.7-2.3,6.9-4.5c2.7-2.6,4.9-5.5,6.8-8.8c0.8,0.5,1.8,0.8,2.8,0.8C204.4,67.1,197.6,73.8,189.3,72.6L189.3,72.6z M175.7,29.9
	c4.4-5.6,10.8-12.2,17.4-15c1.8-0.9,3.7-1.4,5.7-1.5c2-0.1,3.9,0.2,5.8,0.8c0.1,0,0.1,0.1,0.2,0.1c0.1,0.1,0.1,0.1,0.2,0.2
	c0,0.1,0.1,0.2,0.1,0.2c0,0.1,0,0.2,0,0.2c0,0.1-0.1,0.1-0.1,0.2c-0.1,0.1-0.1,0.1-0.2,0.2c-0.1,0-0.2,0.1-0.2,0.1
	c-0.1,0-0.2,0-0.2,0c-8.3-2.3-17.2,5.1-23.2,11.3c-2.1,2.1-3.1,2.8-4.4,4c-0.1,0.1-0.1,0.1-0.2,0.1c-0.1,0-0.2,0.1-0.2,0.1
	s-0.2,0-0.2,0c-0.1,0-0.1-0.1-0.2-0.1c-0.1-0.1-0.1-0.1-0.1-0.2c0-0.1,0-0.2,0-0.2c0-0.1,0-0.2,0.1-0.2
	C175.6,30,175.6,29.9,175.7,29.9L175.7,29.9z M170.1,36.4c-0.1,0-0.2,0.1-0.2,0.1c-0.1,0-0.2,0-0.3,0c-0.1,0-0.2-0.1-0.2-0.1
	c-0.1-0.1-0.1-0.1-0.2-0.2c0-0.1-0.1-0.2-0.1-0.2c0-0.1,0-0.2,0-0.2c0-0.1,0.1-0.2,0.1-0.2c0.1-0.1,0.1-0.1,0.2-0.1
	c1.1-1,2.3-1.9,3.6-2.8c0.7-0.4,1.3,0,0.9,0.9C173,34.8,171.7,35.9,170.1,36.4L170.1,36.4z M176,48c0.1-0.2,0.1-0.4,0.1-0.6
	c0-0.2-0.1-0.4-0.3-0.5c-2.7-2.5-2.6-7.2-0.5-8.6c1-0.6,2.2-0.8,3.4-0.8c0.2,0,0.3,0,0.5-0.1c0.2-0.1,0.3-0.2,0.4-0.3
	c1.8-2.3,4.3-3.9,7.1-4.7c-0.1,0.3,0,0.6,0.4,0.8c3,1.4,2.7,4.1,3.8,3.8c0.2-0.1,0.3-0.2,0.4-0.3c0.1-0.1,0.1-0.3,0-0.5
	c-0.1-0.9-0.5-1.8-1.1-2.6c-0.6-0.7-1.4-1.3-2.3-1.6c5.7-1.1,11,2.1,17.8-1.9c-1.6,3.8-2.3,8-2.1,12.1c-0.3-1.3-1.1-2.4-2.2-3.1
	c-1.1-0.7-2.4-0.9-3.7-0.7c-0.8,0.2-0.8,1,0,1.2c1,0.1,1.9,0.5,2.7,1c0.8,0.5,1.5,1.2,2,2c0.1,0.1,0.2,0.2,0.3,0.3
	c0.1,0.1,0.3,0.1,0.4,0.1c0.1,0,0.3-0.1,0.3-0.2c0.1-0.1,0.2-0.2,0.2-0.4c0.2,2.6,1.1,5.1,2.5,7.3c-0.2,0.2-1,1.2-1.6,2
	c-0.1,0.1-0.1,0.3-0.1,0.4c0,0.2,0,0.3,0.1,0.4c1.1,1.8,1.5,4,1.4,6.1c-0.5,0-1-0.2-1.4-0.4c-0.4-0.2-0.8-0.6-1.1-0.9
	c-0.1-0.1-0.2-0.2-0.3-0.2c-0.1-0.1-0.3-0.1-0.4-0.1c-0.1,0-0.3,0.1-0.4,0.1c-0.1,0.1-0.2,0.2-0.3,0.3c-2.4,4-9.1,12.2-13.8,14
	c-0.2,0-0.3,0.1-0.4,0.3c-0.1,0.1-0.1,0.3-0.1,0.5c-1.6-0.4-3-1.1-4.2-2.2c-0.1-0.1-0.3-0.2-0.5-0.3c-0.2,0-0.4,0-0.6,0.1
	c-1.1,0.5-2.1,1-3.1,1.5C171.2,66.7,172.5,56.6,176,48L176,48z M253.2,183.2c1.6,0,3.1,0,4.7-0.1c0.5,0,1.1,0,1.6-0.1
	c0.1,0.4,0.5,1.4,0.7,2l-7.8,0.1C252.7,184.5,253,183.9,253.2,183.2L253.2,183.2z M239.8,185.2c0.3,0.6,0.6,1.1,0.9,1.7l-5.6,0.2
	c0-0.6,0-1.2-0.1-1.8C239.4,185.3,238.4,185.3,239.8,185.2L239.8,185.2z M232.9,185.4c0,0.6,0.1,1.2,0.2,1.8l-3.9,0.1
	c0-0.4-0.1-1.5-0.2-1.9C230.3,185.4,231.7,185.4,232.9,185.4L232.9,185.4z M222.1,185.3c1,0,2.8,0.1,4.8,0.1c0,0.4,0.1,1.5,0.2,2
	c-2.2,0.1-4,0.2-5.9,0.1C221.8,186.3,221.9,186,222.1,185.3L222.1,185.3z M258.9,202.5c-0.2,0-35.5-0.1-45.4,0.7
	c0.2-0.5,4.3-9.7,6-13.7c2.3,0.2,3.5,0.1,22.4-0.5c0.2,0,0.4-0.1,0.6-0.2c0.2-0.1,0.3-0.3,0.4-0.5l1.3-4.4h2
	c0.2,0.9,0.5,1.8,0.9,2.7c0.1,0.2,0.2,0.4,0.4,0.5s0.4,0.2,0.6,0.2c18.3-0.2,17-0.2,17.4-0.7c0.4-0.4,0.1-0.8,0.2-2.1
	c0-0.5,0-0.9,0-1.4c0.4,0,1.4-0.2,2-0.2c2.5,4.4,2.2,5.1,3.2,5c1-0.1,0.8-0.1,2-0.2c2.1,5,4.5,9.9,7.2,14.6
	C272.9,203,266,202.6,258.9,202.5L258.9,202.5z"/>
<path class="st1" d="M66.9,98.9c-0.1-1.9-0.2-3.9-0.1-6c-0.1-4.7,0.5-9.3,1.8-13.8c3.8-12.7,10.8-0.1,7.4,2.7
	c-0.1,0.1-0.2,0.2-0.2,0.4c0,0.2,0,0.3,0.1,0.5c0.1,0.1,0.2,0.2,0.4,0.2c0.2,0,0.3,0,0.5-0.1c2.9-2,1.8-7.7-1-10.1
	c-0.5-0.4-1-0.7-1.6-0.9c-0.6-0.2-1.2-0.2-1.9-0.2c-0.6,0.1-1.2,0.3-1.8,0.6c-0.5,0.3-1,0.8-1.4,1.3C65.7,77.3,64.4,88,64.9,94
	c0.2,1.7,0.5,3.4,0.8,5.1c0,0.1,0,0.2,0.1,0.2c0,0.1,0.1,0.1,0.2,0.2c0.1,0.1,0.1,0.1,0.2,0.1c0.1,0,0.2,0,0.2,0
	c0.1,0,0.2,0,0.2-0.1c0.1,0,0.1-0.1,0.2-0.2s0.1-0.1,0.1-0.2C67,99.1,67,99,66.9,98.9z"/>
<path class="st1" d="M76.1,69.9c0.6-0.3,1.3-0.6,2-0.8c3-0.9,4.7,1.5,4.8,4.3c0.1,1.1,0.3,3.2-0.6,3.9c-0.1,0.1-0.2,0.2-0.2,0.4
	c0,0.2,0,0.3,0.1,0.5c0,0.1,0.1,0.1,0.2,0.2c0.1,0,0.1,0.1,0.2,0.1c0.1,0,0.2,0,0.2,0c0.1,0,0.2-0.1,0.2-0.1
	c1.7-0.9,1.8-3.2,1.8-5.1c-0.3-6.2-6.2-8.5-9.6-4.3C74.7,69.5,75.5,70.4,76.1,69.9z"/>
<path class="st1" d="M89,77.1c-0.6,0.4-1.2,0.9-1.7,1.4c-1.2,1.3-2.1,2.8-2.7,4.5c-0.5,1.2-0.8,2.4-0.8,3.7c0,1.3,0.3,2.6,0.8,3.7
	c0,0.1,0.1,0.2,0.1,0.2c0.1,0.1,0.1,0.1,0.2,0.2c0.1,0,0.2,0.1,0.2,0.1c0.1,0,0.2,0,0.2,0c0.1,0,0.2-0.1,0.2-0.1
	c0.1-0.1,0.1-0.1,0.2-0.2c0-0.1,0.1-0.2,0.1-0.2c0-0.1,0-0.2,0-0.2c-0.3-2.2,0-4.3,0.8-6.4c0.7-1.9,1.5-2.7,3.3-5.8
	c0.1-0.1,0.1-0.1,0.1-0.2c0-0.1,0-0.2,0.1-0.2c0-0.1,0-0.2,0-0.2c0-0.1-0.1-0.1-0.1-0.2c-0.1-0.1-0.1-0.1-0.2-0.1
	c-0.1,0-0.2,0-0.2,0c-0.1,0-0.2,0-0.2,0.1C89.1,77,89,77,89,77.1z"/>
<path class="st1" d="M99.6,64.4c-1.3,1.5-6.1,5.8-7.4,11.3c-1.5,6.4,1.6,13.6,2.4,18.2c0,0.2,0.1,0.3,0.3,0.4
	c0.1,0.1,0.3,0.1,0.5,0.1c0.2,0,0.3-0.1,0.4-0.2c0.1-0.1,0.1-0.3,0.1-0.5c-0.4-4.6-1.5-8.2-1.9-12.5c-0.6-7,2.1-9.1,6.6-16.1
	c0.1-0.1,0.1-0.3,0.1-0.5c0-0.2-0.1-0.3-0.2-0.4c-0.1-0.1-0.3-0.1-0.5-0.1C99.8,64.2,99.7,64.3,99.6,64.4z"/>
<path class="st1" d="M120.2,51c-2.2-0.6-4.5-0.7-6.8-0.5c-7.8,0.1-12.2,0.2-24.1,1.1c0.3-1.4,0.3-2.9,0-4.3
	c-0.1-0.3-0.3-0.6-0.6-0.6c-1.2,0-0.8,3.8-0.7,5c-10,0.8-20.9,1.9-21.1,2c-1.4,0.5-2.7,1-4,1.5c-6.5,2.6-5.7,2.4-6.1,2.3
	c-0.2,0-0.3,0-0.4,0.1S56,57.8,56,57.9c0,0.2,0,0.3,0.1,0.4c0.1,0.1,0.2,0.2,0.4,0.3c1.2,0.3-3.7-0.8,11.2,2.3
	c4.6,0.1,6.6-0.1,19.3-0.9c-0.4,1.3-0.7,2.5-0.9,3.8c-0.1,0.7-0.9,3.8,0,4.1c0.8,0.2,1.6-1.7,1.8-2.5c0.5-1.8,0.7-3.7,0.6-5.5
	c27.5-1.7,31-1,33.5-3.8C123.3,54.4,123,52,120.2,51z"/>
<path class="st1" d="M93.3,143.6c-5.1-1-8.8,0.9-10.5,3.9c-1,1.6-1.5,3.4-1.6,5.3c0,0.2,0,0.3,0.1,0.4c0.1,0.1,0.2,0.2,0.4,0.3
	c1.1,0.3,2.2,0.4,3.4,0.3c5.2-0.2,8.1-3.9,9.1-9c0-0.3,0-0.6-0.2-0.8C93.8,143.8,93.6,143.7,93.3,143.6z"/>
<path class="st1" d="M94.6,169.2c0-0.2-0.1-0.3-0.2-0.5c-0.1-0.1-0.2-0.2-0.4-0.3c-0.2-0.1-0.3-0.1-0.5-0.1c-0.2,0-0.3,0.1-0.5,0.2
	c-2.5,1.9-6.2-1-4.8-4.8c0.1-0.4,0.3-0.8,0.6-1c0.3-0.3,0.6-0.5,1-0.6c0.4-0.1,0.8-0.1,1.2,0.1c0.4,0.1,0.7,0.4,1,0.7
	c0,0.2,0.1,0.3,0.2,0.4c0.1,0.1,0.3,0.2,0.4,0.2c0.2,0,0.3-0.1,0.4-0.2c0.1-0.1,0.2-0.3,0.2-0.4c0.1-0.8,0-1.6-0.3-2.4
	s-0.7-1.5-1.2-2c-0.6-0.6-1.2-1.1-2-1.4c-0.7-0.3-1.5-0.5-2.3-0.4c-2.5,0.3-4.8,1.5-6.5,3.3c-1.5-1.2-3.3-1.9-5.2-2.3
	c-5.7-0.1-7.2,9.4-4.8,14.5c2.3,4.9,7.5,8.9,11.1,5.2c1.1,0.9,2.4,1.5,3.7,1.9c0.9,0.2,1.8,0.3,2.7,0.3
	C93.1,179.1,95.1,173.9,94.6,169.2z"/>
<path class="st1" d="M20.8,27.2c1,0,4.2,0.1,5.9,0.1c3.3-0.1,19.6-1,21.9-1.2c2-0.2,8.7-0.8,8.7-0.8c0.2,0,0.3-0.1,0.4-0.2
	c0.1-0.1,0.2-0.3,0.2-0.4c0-0.2-0.1-0.3-0.2-0.4c-0.1-0.1-0.3-0.2-0.5-0.2c-7.1-0.1-26.5,1-30.7,1.3c-2.9,0.2-6,0.7-5.9,0.7
	c-0.1,0-0.3,0.1-0.4,0.2c-0.1,0.1-0.1,0.3-0.1,0.4c0,0.2,0.1,0.3,0.2,0.4C20.5,27.2,20.7,27.2,20.8,27.2z"/>
<path class="st1" d="M33.8,33c0.8,0.1,2.8,0.3,3.8,0.3c2.6,0,12.4-0.3,14.1-0.3c3.6-0.2,5.8-0.5,5.6-0.5c0.1,0,0.2,0,0.2,0
	c0.1,0,0.2-0.1,0.2-0.1c0.1-0.1,0.1-0.1,0.1-0.2c0-0.1,0.1-0.2,0.1-0.2c0-0.1,0-0.2-0.1-0.2c0-0.1-0.1-0.1-0.1-0.2
	c-0.1-0.1-0.1-0.1-0.2-0.1c-0.1,0-0.2,0-0.2,0c-7.2-0.3-14.5-0.2-21.7,0.3c-1.2,0.1-1.9,0.3-1.9,0.3c-0.1,0-0.2,0-0.2,0.1
	c-0.1,0-0.1,0.1-0.2,0.1c-0.1,0.1-0.1,0.1-0.1,0.2c0,0.1,0,0.2,0,0.2c0,0.2,0.1,0.3,0.2,0.4C33.5,32.9,33.6,33,33.8,33z"/>
<path class="st1" d="M39.3,40.3c0.4,0.1,0.9,0.2,1.4,0.3c0.7,0,3.2-0.1,3.9-0.2c1.1-0.1,2.2-0.3,3.2-0.6c0.1,0,0.2,0,0.2-0.1
	c0.1,0,0.1-0.1,0.2-0.1c0.1-0.1,0.1-0.1,0.1-0.2c0-0.1,0-0.2,0-0.2c0-0.1,0-0.2-0.1-0.2c0-0.1-0.1-0.1-0.1-0.2
	c-0.1-0.1-0.1-0.1-0.2-0.1c-0.1,0-0.2,0-0.2,0c-2.4-0.3-4.8-0.2-7.1,0.1c-0.5,0.1-0.9,0.3-1.3,0.5c-0.2,0-0.3,0.1-0.4,0.2
	c-0.1,0.1-0.2,0.3-0.2,0.4s0.1,0.3,0.2,0.4C39,40.3,39.1,40.3,39.3,40.3z"/>
<path class="st1" d="M84.1,13.3c-0.1,0-0.2,0-0.2,0.1c-0.1,0-0.1,0.1-0.2,0.1c-0.1,0.1-0.1,0.1-0.1,0.2c0,0.1,0,0.2,0,0.2l1.3,20.4
	c0,0.3,0.1,0.5,0.3,0.7s0.4,0.3,0.7,0.2l51.3-2.3c0.3,0,0.5-0.1,0.7-0.3c0.2-0.2,0.3-0.5,0.3-0.7c-0.5-21.4-0.3-20.1-0.7-20.6
	C136.9,10.8,140.1,9.7,84.1,13.3z M135.6,13.1c-2.8,0.1-47.6,1.4-50.8,1.5c0.2,1.5,1.7,17,1.9,18.7c2.7-0.1,45.5-2.2,49.3-2.4
	L135.6,13.1z"/>
<path class="st1" d="M210.8,201.3c-1.8-0.4-0.4-0.4-10.5-0.6c-0.8,0-1.7,0-2.5,0c-0.2,0-0.3,0-0.4,0.1c-0.1,0.1-0.2,0.2-0.2,0.4
	c0,0.2,0,0.3,0.1,0.4s0.2,0.2,0.4,0.2c2.1,0.6,4.4,1,6.6,1c1.6,0.1,4.1,0.1,4.6,0c0.7-0.1,1.3-0.2,2-0.4c0.2,0,0.3-0.1,0.4-0.2
	c0.1-0.1,0.2-0.3,0.2-0.4c0-0.2-0.1-0.3-0.2-0.4C211.1,201.4,210.9,201.3,210.8,201.3z"/>
<path class="st1" d="M149.3,111.1c-4-1.3-8.1-3-12-2.8c-0.2,0-0.4,0-0.5-0.1c-0.2-0.1-0.3-0.2-0.4-0.4c-0.1-0.2-0.2-0.3-0.2-0.5
	s0-0.4,0.1-0.5c6.6-10.8,10.5-17.4,17.3-26c0.1-0.1,0.2-0.2,0.4-0.2c0.2,0,0.3,0,0.5,0.1c0.1,0.1,0.2,0.2,0.2,0.4
	c0,0.2,0,0.3-0.1,0.5c-2.7,4-13,20.6-15.6,24.8c4.7,0.4,8.7,2.4,13,3.6c0.2,0,0.4,0.2,0.5,0.3c0.1,0.2,0.2,0.3,0.3,0.5
	c0,0.2,0,0.4-0.1,0.6c-0.1,0.2-0.2,0.3-0.4,0.4c-5.6,3.2-9.1,4.9-15.1,7.9c0.6,3.3,1.1,6.3,1.7,8.4c0,0.2,0,0.3-0.1,0.5
	c-0.1,0.1-0.2,0.2-0.4,0.3c-0.2,0-0.3,0-0.5-0.1c-0.1-0.1-0.2-0.2-0.3-0.4c-0.9-3.2-1.3-5.3-2.2-9c0-0.2,0-0.4,0-0.5
	c0.1-0.2,0.2-0.3,0.4-0.4C139.5,116.4,148.4,111.5,149.3,111.1z"/>
<path class="st1" d="M178.9,156.3c-0.1-0.1-0.2-0.2-0.4-0.3s-0.3,0-0.5,0c-5.5,2.2-10.8,5-15.8,8.2c-0.4-3.5-1.3-10.2-1.3-10.3
	c4.3-4.4,6.1-7,11.3-11.7c0.1-0.1,0.2-0.3,0.2-0.4c0-0.2,0-0.3-0.2-0.4c-0.1-0.1-0.3-0.2-0.4-0.2c-0.2,0-0.3,0-0.4,0.1
	c-5.7,5.1-6.6,6.7-11.1,11.2c-1.9-21.2,2.5-68.2,5.6-80.1c0-0.2,0-0.4,0-0.6c-0.1-0.2-0.2-0.3-0.3-0.5s-0.3-0.2-0.5-0.2
	c-0.2,0-0.4,0-0.6,0c-23.2,8.5-45.8,22.1-59.2,42.7c-1.1-6.4-2.4-13.6-3.2-19.6c0-0.2-0.1-0.3-0.2-0.5c-0.1-0.1-0.2-0.2-0.4-0.3
	c-0.1-0.1-0.3-0.1-0.5-0.1s-0.3,0-0.5,0.1c-10.9,5.6-26,7.7-37.9,7.2c-0.1,0-0.2,0-0.4,0.1s-0.2,0.1-0.3,0.2
	c-0.1,0.1-0.1,0.2-0.2,0.3c0,0.1-0.1,0.2-0.1,0.4c0.3,2.7,2.5,20.6,3.3,26.9c0,0.2,0.1,0.3,0.2,0.4c0.1,0.1,0.3,0.1,0.4,0.1
	c0.2,0,0.3-0.1,0.4-0.2c0.1-0.1,0.2-0.3,0.1-0.4c-0.6-6.3-2.5-23.6-2.7-25.9c12.3,0.3,25.5-1.2,36.6-6.6c0.6,4.1,4.3,26,4.4,26.4
	c0.5,2.4,0.8,2.9,1.4,2.9c0.8-0.1,0.6-1.4,0.5-3.2c-0.4-3.6-0.6-4-0.7-5c12.6-20.8,34.7-34.5,57.6-43.2c-2.2,13-3.7,26-4.4,39.1
	c-1.1,16.9-1.6,36.9,1.7,55.2c0.1,0.9,0.6,3,0.8,3.9c-1.1,3.1-1.9,6.3-2.4,9.5c-0.4,3.1-0.4,3.9,0.2,4c0.7,0.1,0.9-0.7,1.4-2.6
	c0.5-1.5,1.6-6.7,1.6-6.8c0.7-3.8,0.7-2.4,0.1-9.5l-0.1-0.8c3.3-1.4,6.5-3,9.6-4.7c2.3-1.1,4.6-2.4,6.6-3.9c0.1-0.1,0.3-0.2,0.3-0.4
	C179,156.6,179,156.5,178.9,156.3z"/>
<path class="st1" d="M164.2,99.9c2.1-1.5,4.1-3.1,6-4.8c0.1,0,0.1-0.1,0.2-0.2c0-0.1,0.1-0.1,0.1-0.2c0-0.1,0-0.2,0-0.2
	s-0.1-0.2-0.1-0.2c0-0.1-0.1-0.1-0.2-0.2c-0.1,0-0.1-0.1-0.2-0.1c-0.1,0-0.2,0-0.2,0c-0.1,0-0.2,0.1-0.2,0.1c-2.2,1.3-4.3,3-6,4.9
	c-0.1,0.1-0.2,0.3-0.2,0.4c0,0.2,0,0.3,0.2,0.5c0.1,0.1,0.3,0.2,0.4,0.2C163.9,100.1,164,100,164.2,99.9z"/>
<path class="st1" d="M183.5,98.9c0.5,0.6,1.7,1.9,3.7,4.7c0.4,0.6,1.4,1.9,2,2.6c2.1,2.4,2.4,2.7,2.9,2.3c0.5-0.4,0.1-0.9-0.6-2.1
	c-1.9-3.2-4.1-6.2-6.6-9c-0.3-0.3-2.2-2-2.9-1.4C181.5,96.6,183.4,98.7,183.5,98.9z"/>
<path class="st1" d="M247.6,100.8c-5.1,6.3-2.2,2.8-7.1,9.2c-2.5,3.1-4.7,6.3-6.8,9.6c-0.3-0.9-5.6-16.2-6-17.6
	c0-0.1-0.1-0.2-0.1-0.2c0-0.1-0.1-0.1-0.2-0.2c-0.1,0-0.1-0.1-0.2-0.1c-0.1,0-0.2,0-0.2,0c-0.1,0-0.1,0.1-0.2,0.1
	c-0.1,0-0.1,0.1-0.2,0.2c0,0.1-0.1,0.1-0.1,0.2c0,0.1,0,0.2,0,0.2c3.2,15.3,13,39.7,19.5,53.9c0.1,0.2,0.2,0.3,0.3,0.3
	c0.2,0.1,0.3,0.1,0.5,0c0.2-0.1,0.3-0.2,0.3-0.3c0.1-0.2,0.1-0.3,0-0.5c-0.6-1.5-9.4-25-12.8-34.5c3.2-4.2,10.4-13.3,12.4-16.5
	c0.7-1.1,1.3-2.3,1.9-3.4c0.1-0.1,0.1-0.3,0.1-0.5c0-0.2-0.1-0.3-0.3-0.4c-0.1-0.1-0.3-0.1-0.5-0.1
	C247.9,100.5,247.7,100.6,247.6,100.8z"/>
<path class="st1" d="M237.8,84.8l-0.8-0.1c-4.9,1.8-9.5,4.2-13.7,7.2c-0.2,0.1-0.3,0.3-0.4,0.6c-0.1,0.2,0,0.5,0.1,0.7
	c0.3,0.6,1.2,2.6,2.2,5.2c-11.4,4.9-21.7,8.7-33.2,14.4c-0.1,0.1-0.3,0.2-0.4,0.3c-0.1,0.1-0.1,0.3-0.1,0.5l0.4,3.5
	c-4.1,3.7-7.9,7.8-11.4,12.1c-0.1,0.1-0.2,0.3-0.1,0.5c0,0.2,0.1,0.3,0.2,0.4c0.1,0.1,0.1,0.1,0.2,0.1c0.1,0,0.2,0,0.2,0
	c0.1,0,0.2,0,0.2-0.1c0.1,0,0.1-0.1,0.2-0.1c3.3-3.9,6.9-7.6,10.7-11.1c-1,17.1,4.2,38.8,16.1,52.8c0.1,0.1,0.3,0.2,0.4,0.2
	s0.3,0,0.4-0.1c0.1-0.1,0.2-0.3,0.2-0.4c0-0.2,0-0.3-0.1-0.5c-1.2-1.5-2.3-3.1-3.3-4.8c-11.6-19-11.5-38.3-12.7-52.2
	c10.2-4.9,22.9-9.5,33.7-14.1c0.2-0.1,0.4-0.3,0.5-0.5c0.1-0.2,0.1-0.5,0-0.7c-0.5-1.6-1.1-2.9-2.2-5.5c3.8-2.6,7.8-4.7,12.1-6.4
	c22.9,12.3,35,42.3,33.5,67.6c-0.5,7.9-1.2,16.1-5,23c0,0.1-0.1,0.1-0.1,0.2c0,0.1,0,0.2,0,0.2c0,0.1,0.1,0.2,0.1,0.2
	c0.1,0.1,0.1,0.1,0.2,0.2c0.1,0.1,0.3,0.1,0.5,0.1c0.2,0,0.3-0.1,0.4-0.3c4-6.6,5.2-16,5.8-23.5C274.4,127.8,261.5,97.2,237.8,84.8z
	"/>
<path class="st1" d="M195.9,196.9c0-0.3-0.1-0.5-0.3-0.7c-0.2-0.2-0.4-0.3-0.7-0.3l-35.7-1.1L146,133.2c-0.1-0.2-0.2-0.4-0.4-0.6
	c-0.2-0.1-0.4-0.2-0.6-0.2L24.3,131c-0.1,0-0.2,0-0.3,0.1c-0.1,0-0.2,0.1-0.2,0.2c-0.1,0.1-0.1,0.2-0.1,0.3c0,0.1,0,0.2,0,0.3
	l16.7,69.7c0.1,0.4,0.4,1.3,0.8,1.3h154.1c0.3,0,0.5,0.5,0.8,0.3C196.4,202.7,196.3,202.7,195.9,196.9z M153,201
	c-1.5-7-5.5-25.8-5.9-27.5c-1.7-8.7-2.9-17.5-4.6-26.2c-1.9-8.3-1.1-4.8-2.8-11.1c0-0.2-0.1-0.3-0.3-0.4s-0.3-0.1-0.5-0.1
	c-0.1,0-0.2,0.1-0.2,0.1c-0.1,0-0.1,0.1-0.2,0.2c0,0.1-0.1,0.1-0.1,0.2c0,0.1,0,0.2,0,0.2c0.3,1.5,5.1,29.9,6.5,37.3
	c2.1,10.7,3.7,15.9,6.6,27.1c-44.1-0.3-106.8-0.7-109.8-0.7L25,132.2c3.1,0.1,114.2,2.2,119.2,2.2l13.1,61.6c0,0.2,0.2,0.4,0.3,0.6
	c0.2,0.2,0.4,0.2,0.6,0.2l35.5,1.1l0.2,3.3C191.6,201.3,174.7,201.2,153,201z"/>
</svg>
