<svg width="228" height="223" viewBox="0 0 228 223" fill="none" xmlns="http://www.w3.org/2000/svg">
<path d="M21.3948 113.891C29.5142 114.011 43.7232 120.971 48.38 123.251C55.7829 126.851 57.4545 128.411 56.6186 132.491C55.9022 136.331 54.2306 137.171 56.2604 138.731C59.1261 140.771 99.1262 155.531 99.1262 155.651C104.141 157.571 104.022 163.211 101.872 168.251C92.4394 190.931 88.4994 201.731 77.6337 219.371C77.0367 220.331 77.0367 220.211 76.0815 219.971C64.0217 216.971 61.2754 214.811 51.2455 209.531C49.2157 208.451 44.9173 197.171 43.6038 183.491C43.2456 180.371 40.1411 179.051 37.8725 181.931C36.0814 184.211 36.2008 180.851 33.6934 179.051C32.7382 178.331 32.1409 178.811 31.4245 179.531C29.7528 180.971 29.3949 178.091 28.3202 176.651C27.4844 175.691 26.2902 175.571 25.4543 176.651C24.8573 177.371 24.6185 177.251 24.2603 176.531C23.0663 174.011 19.9619 174.371 19.2455 176.411C18.2903 179.411 19.0067 186.851 19.2455 189.971C19.6037 193.931 20.6782 194.651 18.8872 194.531C16.4991 194.291 9.09613 189.971 6.94687 188.531C3.00659 185.891 0.499123 184.451 0.37972 180.491C0.260317 173.651 8.37995 140.891 13.9919 124.931C16.8576 116.651 16.9768 113.771 21.3948 113.891ZM64.2603 155.531C64.2603 157.571 65.574 157.691 75.2456 161.771C90.5292 168.131 91.1261 168.611 92.4395 167.171C95.9022 163.211 98.1709 161.891 91.2455 159.971C73.9321 154.931 64.8573 148.091 64.2603 155.531ZM64.0216 161.291C62.947 161.171 61.9919 163.211 63.9023 164.051C63.9023 164.051 80.1411 171.131 87.7829 173.051C88.977 173.411 88.9768 173.411 89.6933 172.451C90.2903 171.611 90.1708 171.011 89.3349 170.531C86.1111 169.091 67.8425 161.771 64.0216 161.291Z" fill="#D1D0D6"/>
<path d="M103.185 174.851C110.469 189.251 116.439 200.291 129.096 209.171C139.126 216.251 151.305 220.091 163.723 220.571C201.574 222.251 229.991 187.331 224.738 149.531C220.2 117.251 183.663 90.6111 150.827 90.1311C147.484 90.1311 139.245 88.4511 137.096 86.8911C135.782 85.9311 131.126 77.4111 128.618 69.1311C125.872 60.3711 124.32 58.4511 124.797 56.0511C125.394 52.9311 127.544 52.4511 128.26 46.3311C128.857 42.1311 123.603 42.731 121.215 47.171C119.663 50.171 115.484 50.1711 113.693 47.2911C113.215 46.5711 112.977 45.7311 112.738 44.8911C110.588 46.3311 108.32 46.3312 106.051 45.6112C101.394 44.1712 102.469 39.4912 103.305 35.0512C99.1259 37.4512 95.4244 37.2111 92.2005 33.4911C89.8125 40.3311 83.4841 40.2112 80.6184 36.0112C80.1408 36.9712 79.7824 37.931 79.1854 38.771C76.5585 42.731 72.6182 43.211 69.0361 39.971C67.0063 45.251 69.9914 52.4511 69.3944 52.6911C69.1556 52.8111 68.4393 51.6112 68.3199 51.0112C67.9617 49.6912 63.7824 51.0111 60.6779 46.9311C58.5286 44.1711 59.4841 41.891 61.7528 39.371C62.8274 38.171 57.6931 36.7311 57.5737 28.0911C57.4543 22.4511 61.8719 19.2111 67.2451 17.8911C68.4391 17.6511 68.4393 17.5311 68.3199 16.3311C67.4841 8.89112 75.3647 3.97112 83.0065 7.69112C83.3647 7.81112 83.7227 8.411 83.9615 8.171C84.2003 8.051 84.2005 7.57124 84.4393 7.21124C88.2602 -0.348757 98.0511 -1.42876 101.394 5.41124C102.708 8.17124 102.589 8.17124 102.947 7.81124C104.857 5.05124 108.797 5.89112 111.424 7.33112C114.29 9.01112 113.335 11.4111 114.171 11.2911C116.678 10.8111 119.066 11.6511 121.215 12.7311C124.559 14.5311 122.648 19.5712 123.006 20.0512C123.245 20.4112 126.708 18.4911 130.051 22.0911C131.245 23.4111 130.768 25.3312 130.29 27.0112C129.932 28.0912 131.842 26.4111 134.947 30.4911C138.29 34.8111 137.932 39.7311 134.469 43.3311C133.275 44.5311 132.2 45.9711 130.529 46.6911C130.171 46.8111 130.051 47.1711 129.932 47.6511C128.499 54.8511 125.275 54.4911 127.066 59.0511C130.768 68.6511 132.559 75.1312 137.574 84.0112C139.842 88.0912 150.23 88.691 154.887 88.571C182.827 88.451 216.379 113.051 224.976 139.811C232.499 163.451 224.379 195.131 201.215 211.211C169.574 233.171 120.499 223.331 103.424 177.611C102.588 176.651 102.588 176.651 103.185 174.851ZM60.4392 28.6911C61.275 36.2511 67.3645 35.8911 66.051 34.6911C63.663 32.6511 62.7079 28.9312 63.7825 26.0512C64.0213 25.4512 64.2602 24.971 64.499 24.371C65.4542 21.971 60.678 22.3311 60.4392 28.6911ZM70.708 15.371C70.3498 18.731 73.5735 20.7712 72.9765 19.4512C72.0213 17.2912 72.499 14.2912 73.4542 12.0112C74.1707 10.2112 70.708 10.451 70.708 15.371Z" fill="white"/>
<path d="M74.8871 128.771C75.1259 131.291 71.7826 131.651 76.0811 142.571C76.6781 144.131 77.3944 144.131 62.8273 138.491C53.9915 135.131 64.0213 131.531 59.2452 126.011C54.1109 120.011 44.3198 118.091 44.678 117.011C48.9765 105.491 51.7228 107.291 59.2452 109.811C59.9616 110.051 71.3049 115.211 72.1407 115.691C76.5586 118.211 73.8125 115.571 74.8871 128.771Z" fill="#D1D0D6"/>
<path d="M99.9618 177.611C105.096 195.131 108.678 187.451 100.678 199.211C95.902 206.171 88.3797 219.371 80.2603 220.091C77.514 220.451 82.4095 221.171 99.9618 177.611Z" fill="#D1D0D6"/>
<path d="M93.6335 120.611C92.6782 120.611 84.7975 104.171 83.7229 101.771C83.3647 101.051 83.4841 101.891 80.1408 103.211C79.305 103.571 80.2604 103.331 83.6037 112.691C84.7978 115.931 80.738 108.971 78.8276 104.171C78.7082 103.811 78.4694 103.931 78.2306 103.931C58.0515 111.011 40.2603 89.2911 51.0066 71.0511C59.8424 56.1711 79.9021 54.9711 89.4543 67.4511C96.2603 76.4511 95.9021 86.0509 90.8872 94.0909C87.3051 99.8509 84.0812 100.211 84.6782 101.291C87.3051 105.971 91.9618 115.571 93.6335 120.611ZM79.9021 101.771C88.8573 97.6908 94.4693 87.8508 92.7976 77.7708C91.2454 68.4108 82.4096 59.7711 71.3051 60.2511C60.32 60.7311 51.2454 68.5309 49.4544 79.3309C46.7081 95.7709 63.4245 109.331 79.9021 101.771Z" fill="white"/>
<path d="M117.156 87.0117C112.26 91.5717 109.992 90.7317 110.708 91.8117C112.38 94.9317 112.499 100.332 112.141 104.052C111.663 109.572 115.126 115.331 122.887 116.651C134.589 118.691 144.738 104.172 144.977 92.0517C144.977 91.9317 144.857 91.6916 145.096 91.6916C145.335 91.6916 145.335 91.8117 145.335 92.0517C148.439 101.892 136.141 121.691 121.454 118.211C114.29 116.531 110.708 111.372 110.469 106.332C110.35 103.332 111.783 98.4116 109.872 92.2916C109.514 91.0916 107.603 93.4916 101.036 93.1316C95.4243 92.8916 92.081 90.1316 97.4542 91.3316C104.26 92.7716 112.499 90.2514 117.514 84.3714C120.141 81.2514 122.41 75.0116 123.007 73.0916C123.723 70.4516 124.201 80.4117 117.156 87.0117Z" fill="white"/>
<path d="M112.26 146.411C110.111 153.011 107.006 155.171 104.857 157.571C104.618 157.811 104.618 157.691 104.38 157.451C103.902 156.851 104.022 156.491 104.499 156.011C112.619 148.331 109.992 144.011 113.215 145.931C140.678 161.891 187.484 165.491 187.484 165.731C187.365 168.731 131.126 160.211 112.26 146.411Z" fill="white"/>
<path d="M21.9915 177.131C25.3348 176.771 16.2602 208.811 44.6781 209.651C45.8721 209.651 46.8272 209.171 46.9466 209.411C47.6631 211.331 33.6929 213.371 25.8123 202.811C19.2451 194.171 20.9169 177.131 21.9915 177.131Z" fill="white"/>
<path d="M166.589 125.171C167.424 126.611 170.887 149.651 166.35 159.971C166.23 160.211 166.111 160.691 165.753 160.571C164.798 160.331 166.111 158.411 166.827 149.171C167.305 140.891 166.35 129.011 166.589 125.171Z" fill="white"/>
<path d="M97.6929 120.011C98.2899 119.651 100.081 121.211 100.559 121.691C106.409 128.051 110.588 133.811 109.036 142.211C108.32 145.931 107.006 145.331 107.126 144.491C107.484 140.651 108.559 136.331 105.096 130.691C100.32 123.251 97.9317 120.611 97.6929 120.011Z" fill="white"/>
<path d="M32.0215 201.491C32.0215 204.251 27.0068 199.811 26.2904 187.691C25.8128 179.651 27.0067 178.211 27.3649 179.651C28.2007 184.331 27.723 185.891 29.6334 194.291C30.3498 197.411 31.5439 199.931 32.0215 201.491Z" fill="white"/>
<path d="M34.1706 182.771C34.6483 195.491 36.3199 197.171 37.3945 202.091C37.5139 202.571 36.5588 203.771 35.4842 201.371C30.9469 192.011 32.7381 180.131 34.0515 180.611C34.2903 180.731 34.2902 180.971 34.2902 181.091C34.0514 181.691 34.1706 182.291 34.1706 182.771Z" fill="white"/>
<path d="M40.9766 182.531C41.4542 182.531 40.8573 191.891 43.723 201.251C44.0812 202.571 45.0366 204.971 44.2007 205.331C43.1261 205.691 41.9318 201.611 41.5736 200.531C38.9468 192.491 40.1408 182.411 40.9766 182.531Z" fill="white"/>
<path d="M79.1853 118.931C77.6331 131.891 80.0213 135.371 85.275 142.691C85.5138 143.051 85.2751 143.411 84.7975 143.171C83.2453 142.331 78.5886 136.811 77.6334 130.451C76.7975 124.571 78.3495 119.291 79.1853 118.931Z" fill="white"/>
<path d="M109.156 101.051C107.365 102.971 101.275 105.011 97.4544 106.691C90.1708 110.051 90.2903 110.171 90.0515 109.931C89.5739 108.971 113.335 96.6111 109.156 101.051Z" fill="white"/>
<path d="M81.9321 118.571C82.1709 135.491 90.8876 135.011 90.1712 136.571C89.3353 138.371 78.1112 129.851 81.3351 119.651C81.4545 119.171 81.5739 118.811 81.9321 118.571Z" fill="white"/>
<path d="M84.0811 117.851C88.2602 132.011 96.2603 129.611 95.7827 131.411C95.6633 132.011 95.0663 131.771 94.5887 131.651C90.1708 130.331 86.5887 128.051 84.7976 123.491C84.32 122.051 83.2453 119.171 84.0811 117.851Z" fill="white"/>
<path d="M100.081 77.1716C100.32 74.0516 108.797 67.2116 109.394 68.1716C109.633 68.5316 105.932 72.2517 104.977 73.2117C102.589 75.6117 101.753 77.1717 101.156 77.8917C100.798 78.3717 100.081 78.2516 100.081 77.1716Z" fill="white"/>
<path d="M81.8126 146.531C79.7828 145.691 79.6633 145.691 79.4245 145.331C78.3499 142.691 75.9617 135.491 76.3199 132.851C76.4394 132.251 77.1558 132.131 77.2752 132.731C78.9468 140.651 79.7828 142.331 81.8126 146.531Z" fill="white"/>
<path d="M90.8869 49.4515C89.9317 49.4515 89.8124 48.6116 90.4094 48.0116C92.5586 46.0916 93.2751 45.3714 95.1855 42.3714C100.559 33.8514 95.4242 49.2115 90.8869 49.4515Z" fill="white"/>
<path d="M71.0663 55.6917C70.2305 53.2917 72.3797 49.4517 74.8872 48.4917C76.7977 47.7717 79.9019 48.4917 79.7825 49.4517C79.6631 50.0517 78.8274 50.0516 78.3498 49.9316C74.2901 49.0916 71.7825 53.2916 71.4243 55.3316C71.3049 55.4516 71.3051 55.5717 71.0663 55.6917Z" fill="white"/>
<path d="M99.7231 58.091C99.7231 58.931 99.7229 59.651 99.0065 59.891C98.2901 60.251 97.693 59.8911 97.096 59.4111C94.5885 57.3711 96.1407 53.6511 98.0512 55.2111C99.0064 56.1711 99.7231 57.011 99.7231 58.091Z" fill="white"/>
<path d="M86.5887 60.3709C86.5887 60.6109 86.5885 60.971 86.2303 61.091C85.8721 61.211 85.7526 60.8511 85.5138 60.6111C80.8571 50.6511 85.7528 55.3309 86.5887 60.3709Z" fill="white"/>
<path d="M49.6929 87.3708C44.7974 68.2908 68.7976 51.7308 84.7976 64.5708C105.096 80.7708 84.9169 111.971 61.3945 101.891C61.1557 101.771 61.0364 101.771 60.917 101.531C61.1558 100.451 61.6332 99.3709 61.6332 98.2909C61.6332 98.0509 61.7526 97.931 61.872 97.811C65.6929 99.611 64.9767 99.0109 68.0812 99.8509C67.723 100.571 67.484 100.931 68.2004 101.051C85.6332 103.091 97.5735 83.2908 85.7526 69.7308C76.5586 59.1708 58.8869 61.931 53.275 76.811C53.0362 77.411 53.5139 77.411 54.2303 77.411C53.7527 80.651 53.1556 81.9709 54.1108 87.4909C53.7526 87.0109 53.2751 86.8908 52.7975 87.1308C51.7229 87.6108 50.7675 87.3708 49.6929 87.3708Z" fill="#D1D0D6"/>
<path d="M68.0813 100.091C82.529 101.891 92.3201 88.0911 88.3798 76.6911C82.6484 59.8911 59.6034 61.091 54.1109 77.6511C53.3945 77.5311 52.9171 77.6511 53.1559 77.0511C58.7678 62.1711 76.4395 59.4109 85.6335 69.9709C97.4544 83.5309 85.5141 103.451 68.0813 101.291C67.4842 101.051 67.7231 100.691 68.0813 100.091Z" fill="white"/>
<path d="M61.8723 97.9315C61.514 98.4115 61.6337 99.0116 60.9173 98.6516C56.0217 95.5316 54.2305 91.9314 52.6782 87.3714C55.1857 85.8114 52.32 91.2115 61.8723 97.9315Z" fill="white"/>
<path d="M72.6182 70.9313C72.6182 68.0513 75.9614 69.1314 76.7973 72.4914C77.3943 75.2514 73.0958 74.6513 72.6182 70.9313Z" fill="white"/>
</svg>
