<?xml version="1.0" encoding="utf-8"?>
<!-- Generator: Adobe Illustrator 26.5.0, SVG Export Plug-In . SVG Version: 6.00 Build 0)  -->
<svg version="1.1" id="Layer_1" xmlns="http://www.w3.org/2000/svg" xmlns:xlink="http://www.w3.org/1999/xlink" x="0px" y="0px"
	 viewBox="0 0 234 226" style="enable-background:new 0 0 234 226;" xml:space="preserve">
<style type="text/css">
	.st0{fill:#F07D29;}
	.st1{fill:#180B02;}
</style>
<path class="st0" d="M26.7,114.8c7.9,0.1,21.8,6.9,26.3,9.1c7.2,3.5,8.8,5,8,9c-0.7,3.7-2.3,4.6-0.3,6.1c2.8,2,41.8,16.4,41.8,16.5
	c4.9,1.9,4.8,7.4,2.7,12.3c-9.2,22.1-13,32.6-23.6,49.8c-0.6,0.9-0.6,0.8-1.5,0.6c-11.8-2.9-14.4-5-24.2-10.2
	c-2-1.1-6.2-12.1-7.5-25.4c-0.3-3-3.4-4.3-5.6-1.5c-1.7,2.2-1.6-1.1-4.1-2.8c-0.9-0.7-1.5-0.2-2.2,0.5c-1.6,1.4-2-1.4-3-2.8
	c-0.8-0.9-2-1.1-2.8,0c-0.6,0.7-0.8,0.6-1.2-0.1c-1.2-2.5-4.2-2.1-4.9-0.1c-0.9,2.9-0.2,10.2,0,13.2c0.3,3.9,1.4,4.6-0.3,4.4
	c-2.3-0.2-9.5-4.4-11.6-5.9c-3.8-2.6-6.3-4-6.4-7.8c-0.1-6.7,7.8-38.6,13.3-54.2C22.3,117.5,22.4,114.7,26.7,114.8z M68.5,155.4
	c0,2,1.3,2.1,10.7,6.1c14.9,6.2,15.5,6.7,16.8,5.3c3.4-3.9,5.6-5.1-1.2-7C77.9,154.9,69.1,148.2,68.5,155.4z M68.3,161.1
	c-1-0.1-2,1.9-0.1,2.7c0,0,15.8,6.9,23.3,8.8c1.2,0.4,1.2,0.4,1.9-0.6c0.6-0.8,0.5-1.4-0.3-1.9C89.8,168.7,72,161.5,68.3,161.1z"/>
<path class="st1" d="M106.5,174.3c7.1,14,12.9,24.8,25.3,33.5c9.8,6.9,21.7,10.6,33.8,11.1c36.9,1.6,64.6-32.4,59.5-69.3
	c-4.4-31.5-40-57.4-72.1-57.9c-3.3,0-11.3-1.6-13.4-3.2c-1.3-0.9-5.8-9.2-8.3-17.3c-2.7-8.5-4.2-10.4-3.7-12.8
	c0.6-3,2.7-3.5,3.4-9.5c0.6-4.1-4.5-3.5-6.9,0.8c-1.5,2.9-5.6,2.9-7.3,0.1c-0.5-0.7-0.7-1.5-0.9-2.3c-2.1,1.4-4.3,1.4-6.5,0.7
	c-4.5-1.4-3.5-6-2.7-10.3c-4.1,2.3-7.7,2.1-10.8-1.5c-2.3,6.7-8.5,6.6-11.3,2.5c-0.5,0.9-0.8,1.9-1.4,2.7c-2.6,3.9-6.4,4.3-9.9,1.2
	c-2,5.1,0.9,12.2,0.3,12.4c-0.2,0.1-0.9-1.1-1-1.6c-0.3-1.3-4.4,0-7.5-4c-2.1-2.7-1.2-4.9,1-7.4c1-1.2-4-2.6-4.1-11
	c-0.1-5.5,4.2-8.7,9.4-9.9c1.2-0.2,1.2-0.4,1-1.5c-0.8-7.3,6.9-12.1,14.3-8.4c0.3,0.1,0.7,0.7,0.9,0.5c0.2-0.1,0.2-0.6,0.5-0.9
	c3.7-7.4,13.3-8.4,16.5-1.8c1.3,2.7,1.2,2.7,1.5,2.3c1.9-2.7,5.7-1.9,8.3-0.5c2.8,1.6,1.9,4,2.7,3.9c2.4-0.5,4.8,0.4,6.9,1.4
	c3.3,1.8,1.4,6.7,1.7,7.1c0.2,0.4,3.6-1.5,6.9,2c1.2,1.3,0.7,3.2,0.2,4.8c-0.3,1.1,1.5-0.6,4.5,3.4c3.3,4.2,2.9,9-0.5,12.5
	c-1.2,1.2-2.2,2.6-3.8,3.3c-0.3,0.1-0.5,0.5-0.6,0.9c-1.4,7-4.5,6.7-2.8,11.1c3.6,9.4,5.4,15.7,10.2,24.3c2.2,4,12.3,4.6,16.9,4.4
	c27.2-0.1,60,23.9,68.3,50c7.3,23-0.6,53.9-23.2,69.6c-30.9,21.4-78.7,11.8-95.3-32.8C105.9,176,105.9,176,106.5,174.3z M64.8,31.8
	c0.8,7.4,6.8,7,5.5,5.8c-2.3-2-3.3-5.6-2.2-8.4c0.2-0.6,0.5-1.1,0.7-1.6C69.7,25.2,65,25.6,64.8,31.8z M74.8,18.8
	c-0.3,3.3,2.8,5.3,2.2,4c-0.9-2.1-0.5-5,0.5-7.3C78.2,13.8,74.8,14,74.8,18.8z"/>
<path class="st0" d="M78.9,129.4c0.2,2.5-3,2.8,1.2,13.5c0.6,1.5,1.3,1.5-12.9-4c-8.6-3.3,1.2-6.8-3.5-12.2
	c-5-5.8-14.6-7.7-14.2-8.8c4.2-11.2,6.9-9.5,14.2-7c0.7,0.2,11.8,5.3,12.6,5.7C80.5,119.1,77.8,116.5,78.9,129.4z"/>
<path class="st0" d="M103.3,177c5,17.1,8.5,9.6,0.7,21.1c-4.7,6.8-12,19.7-19.9,20.4C81.4,218.7,86.2,219.4,103.3,177z"/>
<path class="st1" d="M97.1,121.4c-0.9,0-8.6-16-9.7-18.4c-0.3-0.7-0.2,0.1-3.5,1.4c-0.8,0.4,0.1,0.1,3.4,9.2
	c1.2,3.2-2.8-3.6-4.7-8.3c-0.1-0.4-0.3-0.2-0.6-0.2c-19.7,6.9-37-14.3-26.5-32.1c8.6-14.5,28.2-15.7,37.5-3.5
	c6.6,8.8,6.3,18.1,1.4,26c-3.5,5.6-6.6,6-6.1,7C91,107.1,95.5,116.5,97.1,121.4z M83.8,103c8.7-4,14.2-13.6,12.6-23.4
	c-1.5-9.1-10.1-17.5-21-17.1C64.7,63,55.8,70.6,54.1,81.1C51.4,97.2,67.7,110.4,83.8,103z"/>
<path class="st1" d="M120.1,88.6c-4.8,4.4-7,3.6-6.3,4.7c1.6,3,1.7,8.3,1.4,11.9c-0.5,5.4,2.9,11,10.5,12.3
	c11.4,2,21.3-12.2,21.5-24c0-0.1-0.1-0.4,0.1-0.4c0.2,0,0.2,0.1,0.2,0.4c3,9.6-9,28.9-23.3,25.5c-7-1.6-10.5-6.7-10.7-11.6
	c-0.1-2.9,1.3-7.7-0.6-13.7c-0.3-1.2-2.2,1.2-8.6,0.8c-5.5-0.2-8.7-2.9-3.5-1.8c6.6,1.4,14.7-1.1,19.6-6.8c2.6-3,4.8-9.1,5.4-11
	C126.5,72.5,126.9,82.2,120.1,88.6z"/>
<path class="st1" d="M115.3,146.6c-2.1,6.4-5.1,8.5-7.2,10.9c-0.2,0.2-0.2,0.1-0.5-0.1c-0.5-0.6-0.3-0.9,0.1-1.4
	c7.9-7.5,5.4-11.7,8.5-9.8c26.8,15.6,72.4,19.1,72.4,19.3C188.5,168.3,133.7,160,115.3,146.6z"/>
<path class="st1" d="M27.3,176.5c3.3-0.4-5.6,30.9,22.1,31.7c1.2,0,2.1-0.5,2.2-0.2c0.7,1.9-12.9,3.9-20.6-6.4
	C24.6,193.1,26.2,176.5,27.3,176.5z"/>
<path class="st1" d="M168.3,125.8c0.8,1.4,4.2,23.9-0.2,33.9c-0.1,0.2-0.2,0.7-0.6,0.6c-0.9-0.2,0.3-2.1,1-11.1
	C169,141.2,168,129.6,168.3,125.8z"/>
<path class="st1" d="M101.1,120.8c0.6-0.4,2.3,1.2,2.8,1.6c5.7,6.2,9.8,11.8,8.3,20c-0.7,3.6-2,3-1.9,2.2c0.3-3.7,1.4-8-2-13.5
	C103.7,124,101.3,121.4,101.1,120.8z"/>
<path class="st1" d="M37.1,200.3c0,2.7-4.9-1.6-5.6-13.5c-0.5-7.8,0.7-9.2,1-7.8c0.8,4.6,0.3,6.1,2.2,14.3
	C35.4,196.3,36.6,198.7,37.1,200.3z"/>
<path class="st1" d="M39.2,182c0.5,12.4,2.1,14,3.1,18.8c0.1,0.5-0.8,1.6-1.9-0.7c-4.4-9.1-2.7-20.7-1.4-20.2
	c0.2,0.1,0.2,0.4,0.2,0.5C39,180.9,39.2,181.5,39.2,182z"/>
<path class="st1" d="M45.8,181.8c0.5,0-0.1,9.1,2.7,18.3c0.3,1.3,1.3,3.6,0.5,4c-1,0.4-2.2-3.6-2.6-4.7
	C43.8,191.5,45,181.7,45.8,181.8z"/>
<path class="st1" d="M83.1,119.8c-1.5,12.6,0.8,16,5.9,23.2c0.2,0.4,0,0.7-0.5,0.5c-1.5-0.8-6.1-6.2-7-12.4
	C80.7,125.3,82.2,120.1,83.1,119.8z"/>
<path class="st1" d="M112.3,102.3c-1.7,1.9-7.7,3.9-11.4,5.5c-7.1,3.3-7,3.4-7.2,3.2C93.2,110,116.4,98,112.3,102.3z"/>
<path class="st1" d="M85.7,119.4c0.2,16.5,8.7,16,8,17.6c-0.8,1.8-11.8-6.6-8.6-16.5C85.3,120,85.4,119.6,85.7,119.4z"/>
<path class="st1" d="M87.8,118.7c4.1,13.8,11.9,11.5,11.4,13.2c-0.1,0.6-0.7,0.4-1.2,0.2c-4.3-1.3-7.8-3.5-9.5-8
	C88.1,122.8,87,120,87.8,118.7z"/>
<path class="st1" d="M103.4,79c0.2-3,8.5-9.7,9.1-8.8c0.2,0.4-3.4,4-4.3,4.9c-2.3,2.3-3.1,3.9-3.7,4.6
	C104.1,80.2,103.4,80.1,103.4,79z"/>
<path class="st1" d="M85.6,146.7c-2-0.8-2.1-0.8-2.3-1.2c-1-2.6-3.4-9.6-3-12.2c0.1-0.6,0.8-0.7,0.9-0.1
	C82.8,140.9,83.6,142.6,85.6,146.7z"/>
<path class="st1" d="M94.5,52c-0.9,0-1-0.8-0.5-1.4c2.1-1.9,2.8-2.6,4.7-5.5C103.9,36.8,98.9,51.8,94.5,52z"/>
<path class="st1" d="M75.1,58.1c-0.8-2.3,1.3-6.1,3.7-7c1.9-0.7,4.9,0,4.8,0.9c-0.1,0.6-0.9,0.6-1.4,0.5c-4-0.8-6.4,3.3-6.8,5.3
	C75.4,57.9,75.4,58,75.1,58.1z"/>
<path class="st1" d="M103.1,60.4c0,0.8,0,1.5-0.7,1.8c-0.7,0.4-1.3,0-1.9-0.5c-2.4-2-0.9-5.6,0.9-4.1
	C102.4,58.6,103.1,59.4,103.1,60.4z"/>
<path class="st1" d="M90.3,62.7c0,0.2,0,0.6-0.3,0.7c-0.3,0.1-0.5-0.2-0.7-0.5C84.7,53.2,89.5,57.7,90.3,62.7z"/>
<path class="st0" d="M54.3,89c-4.8-18.6,18.6-34.7,34.2-22.2c19.8,15.8,0.1,46.2-22.8,36.4c-0.2-0.1-0.3-0.1-0.5-0.4
	c0.2-1.1,0.7-2.1,0.7-3.2c0-0.2,0.1-0.4,0.2-0.5c3.7,1.8,3,1.2,6.1,2c-0.3,0.7-0.6,1.1,0.1,1.2c17,2,28.6-17.3,17.1-30.5
	c-9-10.3-26.2-7.6-31.7,6.9c-0.2,0.6,0.2,0.6,0.9,0.6c-0.5,3.2-1,4.4-0.1,9.8c-0.3-0.5-0.8-0.6-1.3-0.4C56.3,89.2,55.3,89,54.3,89z"
	/>
<path class="st1" d="M72.2,101.4c14.1,1.8,23.6-11.7,19.8-22.8C86.4,62.2,64,63.4,58.6,79.5c-0.7-0.1-1.2,0-0.9-0.6
	c5.5-14.5,22.7-17.2,31.7-6.9c11.5,13.2-0.1,32.6-17.1,30.5C71.6,102.3,71.9,102,72.2,101.4z"/>
<path class="st1" d="M66.2,99.3c-0.3,0.5-0.2,1.1-0.9,0.7c-4.8-3-6.5-6.6-8-11C59.7,87.5,56.9,92.7,66.2,99.3z"/>
<path class="st1" d="M76.7,73c0-2.8,3.3-1.8,4.1,1.5C81.3,77.2,77.1,76.6,76.7,73z"/>
</svg>
