<svg width="253" height="211" viewBox="0 0 253 211" fill="none" xmlns="http://www.w3.org/2000/svg">
<path d="M20.4563 47.9181C34.8988 48.0241 45.6313 61.2304 37.8244 73.5834C33.0067 81.2127 27.3131 80.843 27.1793 83.1618C26.4625 95.6751 30.2904 99.405 18.6927 84.9625C17.2922 83.2201 10.2273 84.6975 4.64766 78.4912C-6.35646 66.2243 7.30166 47.8214 20.4563 47.9181ZM25.7457 91.72C26.2306 81.4366 24.7771 81.4578 27.0428 80.4283C34.9478 76.8376 41.0388 68.0117 37.6534 60.0154C31.0563 44.4334 8.62799 47.408 3.35578 63.1291C-0.0375422 73.2349 6.52783 81.3227 16.2308 82.5377C19.6149 82.9604 19.6546 83.8945 25.7457 91.72Z" fill="#180B02"/>
<path d="M20.8548 61.4556C21.2072 65.6678 20.6759 65.8281 21.4232 66.0189C25.9216 67.1969 26.3721 69.4149 25.1902 71.1705C23.6002 73.5383 21.186 72.5326 21.2655 73.6562C21.3119 74.3095 21.4391 75.8425 20.8495 75.8173C20.5196 75.8027 20.3937 75.7683 20.3195 73.5171C20.2917 72.7221 19.5311 73.4469 16.9434 72.0596C16.6042 71.8768 15.5879 71.1056 15.8953 70.7346C16.2743 70.2748 16.8559 71.3971 19.8279 71.947C20.6229 72.0914 20.0929 71.8847 20.0929 67.2022C20.0929 66.2588 18.8461 66.8206 16.7804 65.7062C13.8151 64.103 15.9629 60.6805 19.3377 59.9451C20.346 59.7252 19.7179 59.2959 19.9763 57.8834C20.0558 57.4462 20.4666 57.4276 20.5686 57.8622C20.8813 59.2018 20.4189 59.8193 21.1582 59.8378C22.303 59.867 25.1743 60.7189 24.8682 61.3934C24.4747 62.2612 20.7183 59.8179 20.8548 61.4556ZM21.3437 67.0643C20.9701 66.9597 21.1118 66.8312 21.2112 71.6078C21.239 73.0481 29.2937 69.2811 21.3437 67.0643ZM20.0028 64.3428C19.9021 60.8316 20.1525 60.7216 19.4529 60.9309C17.0375 61.6517 15.2129 64.1043 17.6324 65.0835C20.5209 66.2535 20.032 65.3697 20.0028 64.3428Z" fill="#F07D29"/>
<path fill-rule="evenodd" clip-rule="evenodd" d="M249.973 19.9578C239.809 10.704 177.882 1.61985 164.851 0.957346C163.935 0.910706 163.06 0.852937 162.22 0.79742C151.789 0.10789 146.956 -0.211699 141.773 26.0442C143.171 26.9846 144.39 28.2884 145.185 29.9986C147.181 19.9166 149.232 11.9489 151.186 7.97985C152.27 5.77902 153.058 4.81972 159.799 5.35237C173.171 6.41237 236.041 14.5174 246.484 24.0349C253.743 30.6479 232.565 139.457 228.597 152.616C227.285 156.963 226.018 156.893 219.391 156.524C219.152 156.511 218.906 156.497 218.651 156.483C217.819 156.438 216.666 156.336 215.279 156.193C215.249 157.433 215.174 158.664 215.055 159.882C218.841 160.29 221.83 160.521 223.666 160.529C227.541 160.548 230.087 158.636 231.377 154.479C235.666 140.655 259.998 29.0844 249.973 19.9578ZM214.322 144.906C216.192 145.07 218.58 145.201 221.611 145.316C221.712 145.32 221.814 145.329 221.916 145.337C222.53 145.393 223.136 145.447 223.409 144.281C224.09 141.358 224.813 138.449 225.533 135.539L225.536 135.53C225.871 134.173 226.208 132.818 226.54 131.459C226.989 129.622 226.621 129.573 221.138 128.848H221.137C219.062 128.574 216.254 128.203 212.482 127.601C211.051 127.373 211.009 127.6 210.186 132.008C210.179 132.045 210.171 132.082 210.165 132.121C210.815 133.516 211.402 134.926 211.926 136.343C212 135.986 212.07 135.649 212.135 135.334C213.064 130.847 213.125 130.548 214.358 130.679C216.317 130.888 217.867 131.023 219.091 131.132C223.274 131.499 223.64 131.531 223.389 132.99C222.852 135.914 222.163 138.809 221.325 141.662C221.087 142.519 220.588 142.446 220.171 142.385C220.062 142.369 219.959 142.354 219.868 142.356C218.071 142.112 216.627 141.943 215.473 141.806C214.721 141.718 214.092 141.642 213.567 141.572C213.856 142.682 214.108 143.794 214.322 144.906ZM197.698 114.799C198.025 114.852 198.368 114.907 198.727 114.967H198.735C200.584 115.269 202.867 115.643 205.682 116.136C206.807 116.503 207.04 115.32 208.414 108.351C208.775 106.52 209.215 104.291 209.77 101.586C210.142 99.7668 209.778 99.7043 205.045 98.8923C202.831 98.5125 199.66 97.9686 195.162 97.0038C193.914 96.7317 193.847 97.1407 193.202 101.182C192.896 103.102 192.459 105.843 191.701 109.721C193.855 111.33 195.853 113.027 197.698 114.799ZM186.27 106.067C186.486 104.887 186.679 103.84 186.851 102.91L186.854 102.902L186.855 102.894V102.89L186.857 102.889C188.201 95.6381 188.211 95.5874 186.626 95.2629C182.618 94.4427 179.633 93.7032 177.393 93.1489C173.583 92.2047 171.936 91.797 171.093 92.4407C170.453 92.93 170.276 94.0266 169.964 95.9565L169.897 96.3797L169.861 96.5985C169.755 97.2464 169.65 97.9007 169.548 98.5518C170.438 98.8364 171.314 99.1322 172.177 99.4385C172.177 99.4291 172.178 99.4197 172.18 99.4104C172.655 95.5572 172.723 95.0159 174.421 95.4431C177.38 96.1866 179.524 96.6648 181.069 97.0093C184.994 97.8844 185.055 97.8979 184.791 99.2061C184.323 101.526 184.017 103.294 183.792 104.634C184.636 105.1 185.461 105.578 186.27 106.067ZM163.929 96.9521C164.085 95.3824 164.279 93.6016 164.537 91.5875C164.953 89.934 164.028 89.7863 162.787 89.5882C162.453 89.5349 162.096 89.4777 161.736 89.3867C158.135 88.4524 155.356 87.7005 153.211 87.1197L153.21 87.1193L153.207 87.1189L153.206 87.1187L153.204 87.1184C152.175 86.8396 151.291 86.6003 150.532 86.3995C149.261 88.0418 147.546 89.1104 145.464 89.3747C145.21 91.5443 144.976 93.3799 144.775 94.9348C145.726 94.9248 146.7 94.9323 147.684 94.955C147.732 94.5596 147.777 94.1871 147.819 93.8363C148.31 89.768 148.449 88.6172 148.943 88.435C149.139 88.3632 149.39 88.4422 149.739 88.5522L149.784 88.5665C153.296 89.6739 155.795 90.3811 157.563 90.8819C161.813 92.0844 161.855 92.0963 161.607 93.6015C161.444 94.5893 161.311 95.489 161.195 96.3074C162.12 96.5115 163.03 96.7265 163.929 96.9521ZM159.42 77.4418C161.031 77.8199 162.861 78.259 164.937 78.7774C166.009 79.0424 166.649 78.5998 166.73 77.4524C167.103 72.1353 167.873 68.614 168.399 66.2057C168.896 63.928 169.177 62.6459 168.7 61.782C168.085 60.6697 166.216 60.2507 161.937 59.2925C161.138 59.1136 160.256 58.9159 159.282 58.6914C160.402 59.4035 161.169 60.4618 161.609 61.6855C161.931 61.7709 162.233 61.8504 162.515 61.9248L162.516 61.9251C166.519 62.9805 166.678 63.0225 166.418 64.372C165.826 67.4551 165.471 69.7128 165.214 71.3493C164.655 74.9159 164.558 75.5331 163.468 75.3178C161.966 75.0233 160.641 74.7702 159.471 74.5475C159.54 74.942 159.577 75.3423 159.584 75.7446C159.592 76.3161 159.536 76.8853 159.42 77.4418ZM158.8 50.0877C172.904 54.0998 223.996 61.4258 226.225 61.7456L226.3 61.7563C230.457 62.3578 230.568 61.9927 231.893 57.6606L231.897 57.6471C232.03 57.2117 232.176 56.7363 232.339 56.2178C233.878 49.9637 235.011 43.6165 235.729 37.216C236.054 34.4255 235.283 33.1615 232.898 31.8815C228.758 29.6661 208.846 23.6148 193.678 21.4418C158.565 16.4068 156.371 17.5477 155.404 22.5363C154.511 27.052 153.827 31.6054 153.354 36.1822C153.948 37.1436 154.254 38.2557 154.236 39.3875C154.218 40.5678 153.848 41.7158 153.174 42.6844C152.839 43.2343 152.925 43.3986 153.492 43.702C155.895 44.9059 157.736 46.9981 158.623 49.5356C158.688 49.7184 158.747 49.9025 158.8 50.0877ZM232.282 39.0021C231.018 45.2094 230.343 49.3624 229.89 52.156C229.196 56.4372 229.019 57.5265 228.03 57.9257C227.376 57.4579 226.534 57.3452 223.118 56.8881C216.608 56.0171 200.751 53.8953 159.043 45.6814C155.801 45.0441 155.598 44.5777 156.102 41.028C156.717 36.7353 157.138 33.4022 157.465 30.8186C158.234 24.7428 158.479 22.8124 159.465 22.2948C159.925 22.0536 160.543 22.1188 161.452 22.2142C161.77 22.2476 162.124 22.2847 162.518 22.3137C177.114 23.3737 211.863 28.8579 229.563 33.8412C233.127 34.8461 233.073 35.1119 232.304 38.8872L232.28 39.0021H232.282ZM186.853 65.3286C184.685 64.8854 181.845 64.3047 178.139 63.4667C178.076 63.4663 178.015 63.4652 177.957 63.4641C177.67 63.4589 177.444 63.4548 177.248 63.5294C176.508 63.8112 176.196 65.2153 174.701 71.9184V71.9202C174.286 73.7829 173.78 76.0545 173.148 78.8248C172.735 80.6193 173.399 80.7376 178.341 81.619L178.342 81.6192C180.286 81.9659 182.891 82.4305 186.353 83.1615C186.676 83.2298 186.973 83.3007 187.247 83.3661C190.543 84.1514 190.56 84.1557 193.315 69.5405L193.35 69.3485C193.517 68.4697 193.629 67.8889 193.429 67.4494C193.039 66.5933 191.472 66.273 186.853 65.3286ZM185.391 68.0889C190.858 69.3652 191.269 69.4609 191.004 70.7171C190.761 71.8679 190.552 72.8822 190.368 73.7755L190.365 73.7862V73.7877C189.004 80.3727 189.003 80.3772 187.479 80.0809C185.223 79.6429 183.392 79.3135 181.91 79.047C175.966 77.9781 175.658 77.9226 176.204 75.9297C177.036 72.8961 177.416 70.767 177.674 69.3169C178.108 66.8936 178.202 66.3669 179.501 66.6852C181.926 67.2802 183.858 67.731 185.391 68.0889ZM197.388 100.571C197.272 100.58 197.131 100.543 196.978 100.503C196.491 100.374 195.894 100.217 195.717 101.482C195.399 103.745 195.052 105.458 194.787 106.767C194.369 108.826 194.155 109.88 194.58 110.494C195.025 111.139 196.178 111.297 198.54 111.619H198.542C199.819 111.794 201.45 112.016 203.513 112.39C204.687 112.602 204.771 112.155 205.352 109.06C205.592 107.78 205.918 106.047 206.44 103.723C206.851 101.894 206.264 101.813 201.63 101.18L201.628 101.179C200.479 101.022 199.081 100.831 197.388 100.571ZM196.394 84.5358C196.68 85.2541 198.138 85.5064 203.256 86.3923L203.26 86.393C205.147 86.7197 207.532 87.1324 210.54 87.6866C212.408 88.0319 212.542 87.1213 213.292 81.9888C213.603 79.8549 214.022 76.9909 214.716 73.1844L214.719 73.1683C214.817 72.6267 214.888 72.2378 214.765 71.9258C214.45 71.1296 212.869 70.8343 207.258 69.7857H207.256L207.255 69.7853C205.437 69.4458 203.198 69.0272 200.443 68.4873C199.123 68.2291 199.052 68.6645 198.316 73.1305C197.947 75.3776 197.409 78.645 196.46 83.3578L196.455 83.3864C196.353 83.8898 196.28 84.2498 196.394 84.5358ZM207.952 72.9282C211.967 73.6139 212.295 73.67 211.987 75.2236C211.634 76.9918 211.411 78.4304 211.233 79.5904C210.876 81.8988 210.689 83.1043 209.994 83.6105C209.234 84.1635 207.867 83.8818 205.005 83.2923C203.677 83.0188 202.028 82.679 199.969 82.3256C199.141 82.1812 198.86 81.8884 199.041 80.8562C199.512 78.1848 199.759 76.2552 199.936 74.8775V74.875C200.315 71.9173 200.368 71.5052 201.612 71.7574C204.368 72.3163 206.425 72.6677 207.951 72.9282H207.952ZM215.605 104.767V104.768C215.23 106.878 214.658 110.099 213.553 114.986L213.55 114.999C212.982 117.534 212.901 117.891 228.026 118.498L228.14 118.504C228.431 118.517 228.655 118.526 228.841 118.447C229.447 118.187 229.643 116.964 230.48 111.726C230.788 109.798 231.183 107.327 231.717 104.159C231.793 103.709 231.844 103.4 231.733 103.173C231.492 102.682 230.486 102.568 227.311 102.206C225.207 101.966 222.151 101.617 217.732 100.979C216.315 100.774 216.291 100.91 215.605 104.767ZM226.518 115.435C226.095 115.702 225.467 115.646 224.407 115.551L224.142 115.528H224.153C222.735 115.312 221.576 115.154 220.631 115.024C216.853 114.507 216.507 114.461 216.791 113.092C217.206 111.118 217.512 109.553 217.753 108.317L217.754 108.309C218.589 104.025 218.658 103.677 219.885 103.844C222.168 104.154 223.888 104.334 225.177 104.468C228.769 104.842 229.001 104.866 228.688 106.41C228.264 108.497 227.982 110.123 227.763 111.386C227.313 113.985 227.129 115.048 226.518 115.435ZM219.907 75.7617C220.592 71.9013 220.616 71.7646 222.034 71.9694C226.456 72.6086 229.512 72.9573 231.616 73.1974H231.618C234.79 73.5593 235.794 73.6739 236.037 74.1641C236.148 74.3912 236.096 74.6989 236.019 75.1491C235.485 78.3149 235.091 80.7858 234.783 82.713L234.782 82.7157C233.946 87.9534 233.75 89.1763 233.141 89.4369C232.957 89.5163 232.733 89.5063 232.442 89.4935L232.328 89.4886C217.198 88.8841 217.279 88.5278 217.852 85.9907L217.855 85.9773C218.96 81.0924 219.532 77.8711 219.907 75.7617ZM228.709 86.5441C229.769 86.6394 230.397 86.6958 230.82 86.4287C231.432 86.0422 231.616 84.9785 232.067 82.3755C232.286 81.1132 232.568 79.4877 232.99 77.4032C233.304 75.8599 233.073 75.8357 229.477 75.4612C228.187 75.3271 226.467 75.1479 224.187 74.838C222.965 74.6723 222.898 75.0169 222.072 79.2443L222.071 79.2495C221.827 80.4959 221.517 82.0795 221.093 84.0865C220.804 85.4535 221.156 85.5015 224.934 86.0184L224.936 86.0186C225.878 86.1476 227.033 86.3056 228.444 86.5206L228.709 86.5441ZM219.07 36.5737C219.954 36.7203 221.103 36.911 222.597 37.1684C222.946 37.2279 222.999 36.8386 223.078 36.2649C223.098 36.1231 223.119 35.9694 223.147 35.809C223.204 35.4744 223.18 35.4703 220.292 34.9916C219.405 34.8447 218.25 34.6533 216.745 34.3939C216.397 34.3333 216.343 34.7219 216.265 35.2953C216.245 35.4376 216.224 35.5911 216.196 35.752C216.138 36.0873 216.163 36.0914 219.07 36.5737ZM217.77 44.3744C214.822 43.8867 214.797 43.8824 214.855 43.5456C214.883 43.385 214.904 43.2317 214.923 43.0897C215.002 42.5158 215.057 42.1267 215.405 42.186C216.901 42.4439 218.051 42.6348 218.935 42.7814C221.839 43.263 221.863 43.267 221.806 43.6013C221.778 43.7619 221.758 43.9148 221.739 44.0564C221.66 44.6341 221.607 45.0213 221.258 44.9607C219.785 44.7079 218.649 44.5198 217.77 44.3744ZM216.36 52.3578C217.244 52.5042 218.393 52.6946 219.887 52.9518C220.235 53.0143 220.288 52.6247 220.367 52.0511C220.387 51.9088 220.408 51.7544 220.436 51.5937C220.494 51.2583 220.469 51.2542 217.562 50.7719L217.557 50.7711L217.554 50.7707C216.672 50.6243 215.526 50.434 214.035 50.1773C213.681 50.1168 213.627 50.5192 213.547 51.1077V51.1093L213.546 51.1138V51.1154C213.529 51.2476 213.509 51.389 213.485 51.5367C213.427 51.8721 213.452 51.876 216.36 52.3578ZM213.482 50.0791C213.319 50.0509 213.164 50.0294 213.021 50.0095C212.45 49.9303 212.063 49.8766 212.123 49.5292C212.36 48.1484 212.538 47.0823 212.673 46.2604L212.674 46.2575C213.122 43.545 213.131 43.4929 213.467 43.5508C213.616 43.5754 213.761 43.5949 213.896 43.6131C214.484 43.6926 214.886 43.7469 214.826 44.1007C214.589 45.4792 214.413 46.5437 214.276 47.3651C213.827 50.0856 213.818 50.1361 213.482 50.0791ZM222.999 43.751C223.132 43.7692 223.277 43.7886 223.428 43.8133C223.767 43.8705 223.778 43.8049 224.228 41.0737V41.0692C224.362 40.2575 224.534 39.2109 224.766 37.8627C224.826 37.5144 224.436 37.4606 223.862 37.3813C223.721 37.3616 223.567 37.3405 223.407 37.3128C223.071 37.2549 223.06 37.3225 222.616 40.0124V40.014L222.614 40.026C222.479 40.8422 222.304 41.8988 222.07 43.2647C222.007 43.6173 222.41 43.6716 222.999 43.751ZM208.829 34.8032C207.324 34.5437 206.168 34.3521 205.282 34.2053C202.395 33.7267 202.37 33.7226 202.427 33.3881C202.45 33.2382 202.47 33.0947 202.489 32.9607V32.9591C202.568 32.3707 202.623 31.9682 202.977 32.0286C204.474 32.2868 205.625 32.4778 206.51 32.6245C209.411 33.1056 209.436 33.1097 209.379 33.4437C209.351 33.6043 209.33 33.7576 209.31 33.8996C209.232 34.4735 209.178 34.8626 208.829 34.8032ZM204.001 42.0098L204.002 42.01C204.879 42.1554 206.017 42.344 207.488 42.5968C207.839 42.6563 207.892 42.2667 207.97 41.6924C207.99 41.5506 208.01 41.3977 208.038 41.2374C208.095 40.9027 208.071 40.8987 205.181 40.4197L205.18 40.4196L205.177 40.4192C204.292 40.2724 203.139 40.0812 201.637 39.8222C201.283 39.7608 201.229 40.163 201.149 40.7516C201.131 40.886 201.112 41.03 201.087 41.1804C201.029 41.5173 201.054 41.5214 204.001 42.0098ZM206.115 50.5879C204.651 50.3365 203.518 50.1489 202.643 50.0038C199.681 49.5134 199.656 49.5092 199.714 49.1728C199.738 49.0223 199.758 48.878 199.777 48.7435C199.856 48.1549 199.91 47.7518 200.264 47.8133C201.767 48.0722 202.92 48.2636 203.806 48.4102L203.807 48.4105L203.809 48.4108C206.698 48.8898 206.722 48.8937 206.665 49.2284C206.639 49.3842 206.619 49.5332 206.6 49.6718V49.6732C206.521 50.2534 206.468 50.6488 206.115 50.5879ZM199.285 47.6519C199.42 47.6701 199.563 47.6894 199.714 47.7141C200.062 47.7741 200.071 47.7204 200.564 44.7161C200.692 43.9374 200.853 42.9604 201.061 41.7357C201.12 41.3832 200.717 41.3289 200.129 41.2495C199.994 41.2314 199.85 41.2119 199.698 41.1871C199.363 41.1292 199.354 41.1805 198.905 43.896V43.8983V43.9002C198.768 44.7214 198.592 45.7859 198.355 47.1642C198.294 47.518 198.697 47.5726 199.285 47.6519ZM209.231 41.3871C208.642 41.3077 208.238 41.2532 208.298 40.8995C208.503 39.6818 208.663 38.7099 208.789 37.935L208.791 37.9312C209.277 34.9607 209.289 34.8887 209.636 34.9476C209.798 34.9757 209.953 34.9973 210.096 35.0171C210.668 35.0968 211.056 35.151 210.998 35.4974C210.787 36.7399 210.626 37.7262 210.499 38.5088L210.497 38.5133C210.018 41.4391 210.007 41.509 209.66 41.4493C209.509 41.4247 209.366 41.4054 209.231 41.3871Z" fill="#F07D29"/>
<path d="M131.224 146.682C143.538 128.682 145.557 125.431 150.025 119.988C151.731 117.91 149.967 117.781 145.75 116.675C144.523 116.353 145.581 114.688 146.28 113.628C158.218 95.4418 156.638 95.3848 158.719 95.7902C204.486 104.69 222.439 141.401 212.755 170.905C208.369 184.266 197.488 191.906 184.025 195.262C174.541 197.627 152.816 193.449 136.411 179.982C135.086 178.9 134.967 178.596 135.522 177.041C138.603 168.407 133.222 166.533 137.441 164.598C141.108 162.988 144.914 161.714 148.81 160.791C166.732 156.22 177.902 158.177 189.183 160.461C192.241 161.08 199.619 162.855 196.981 161.211C188.88 156.164 174.507 156.279 174.745 154.767C175.745 146.407 176.083 137.981 175.754 129.567C175.431 124.975 172.671 146.269 172.94 154.37C172.992 155.923 172.109 154.962 165.858 155.439C156.38 156.091 147.08 158.342 138.352 162.096C133.063 164.565 134.789 165.541 132.991 164.713C121.77 159.514 108.696 168.365 110.662 182.636C110.723 183.079 110.877 183.708 110.245 183.639C109.671 183.577 108.715 183.917 108.582 182.844C106.185 163.307 106.656 157.395 99.4145 155.947C85.7432 153.208 85.5259 154.887 85.5895 153.332C85.6902 150.853 85.2874 136.372 84.7878 134.517C83.9572 135.874 83.4908 137.423 83.4337 139.013C82 153.795 85.2357 154.42 82.2982 154.028C69.822 152.367 44.1792 153.221 31.6977 154.832C26.1513 155.548 25.6504 162.441 26.3686 167.89C23.7954 167.277 22.7288 165.179 21.5986 163.179C11.9327 146.049 20.85 127.286 20.5386 131.416C20.524 132.029 20.672 132.636 20.9676 133.173C21.2631 133.711 21.6957 134.161 22.2213 134.478C24.442 136.252 22.9739 144.966 26.9794 149.8C29.2054 152.486 29.803 150.131 43.4717 148.536C68.3207 145.636 68.0836 146.318 68.9316 142.426C69.8591 138.139 68.7991 127.465 67.7006 124.363C66.74 121.645 67.7815 119.88 69.4033 118.151C78.9896 107.935 90.8683 102.648 104.159 98.9384C105.529 98.5555 105.687 98.6814 105.714 100.089C105.781 103.544 106.477 106.938 106.714 110.377C107.467 121.307 107.838 121.11 105.776 121.159C104.272 121.199 101.403 119.913 102.074 122.565C104.041 130.349 116.593 149.057 121.898 156.365C123.349 158.365 125.891 161.88 126.158 159.567C126.809 153.926 136.183 114.275 136.188 114.252C139.791 98.5449 136.272 95.6339 138.819 95.304C143.989 94.4578 149.257 94.4034 154.443 95.1423C155.957 95.3225 156.022 95.1781 150.257 104.276C143.117 115.546 141.902 116.955 145.402 118.038C146.302 118.386 147.234 118.64 148.185 118.795C148.987 118.871 148.942 119.21 148.51 119.696C143.317 125.549 138.96 132.851 132.894 141.702C132.012 143.235 131.444 144.928 131.224 146.682Z" fill="#F07D29"/>
<path d="M131.882 194.805C131.584 192.961 107.195 189.167 107.686 187.044C108.112 185.205 126.207 190.689 129.958 191.703C132.757 192.461 135.193 193.675 133.512 195.845C130.843 199.29 116.185 206.601 110.759 208.565C103.074 211.348 94.9238 210.517 77.5359 208.996C37.9329 205.532 35.964 211.778 31.8234 189.057C25.8609 156.292 27.0401 158.036 44.974 157.2C62.2532 156.581 79.5544 157.08 96.7694 158.691C102.829 159.333 103.394 163.478 105.619 177.932C106.825 185.76 108.908 199.644 107.115 207.445C104.839 210.15 132.113 196.219 131.882 194.805ZM33.3524 160.124C29.2767 161.184 30.0068 166.541 30.9846 173.109C35.4525 203.105 36.3217 204.292 48.7396 205.056C67.9097 206.237 64.7574 205.654 94.2294 208.153C103.834 208.968 105.701 207.296 105.712 203.078C105.651 195.438 104.986 187.814 103.724 180.279C100.934 162.508 99.7944 161.489 96.5057 160.968C77.2098 157.917 38.9585 158.674 33.3524 160.124Z" fill="#180B02"/>
<path d="M117.986 100.343C117.775 113.565 116.739 108.077 118.661 128.188C119.943 141.6 123.976 154.432 122.872 154.859C122.251 155.1 108.925 134.176 104.268 123.951C103.812 122.95 103.55 122.317 104.632 122.43C110.396 123.028 109.27 120.797 107.64 102.761C107.281 98.7859 106.744 98.301 107.879 98.1234C118.847 96.4076 118.033 97.3457 117.986 100.343Z" fill="#F07D29"/>
<path d="M12.379 102.452C14.1845 104.755 15.5916 107.344 16.5422 110.112C16.6641 110.56 16.3514 110.849 16.0373 110.433C9.25599 101.447 8.28079 101.53 14.8117 99.5096C29.3655 95.0046 41.8232 95.2696 49.8818 95.373C50.9124 95.3471 51.9299 95.6082 52.8208 96.1269C53.7117 96.6456 54.441 97.4015 54.9274 98.3105C63.5399 111.945 66.7703 129.558 66.5119 141.77C66.4205 146.086 59.9306 141.452 29.8756 149.025C28.8156 149.29 28.3241 149.568 26.3644 140.789C23.9251 129.863 28.2631 139.438 29.71 146.193C30.2268 148.604 31.5094 145.653 45.561 143.319C64.7735 140.13 64.8954 144.272 64.8437 139.535C64.7298 129.001 56.5691 97.5844 50.3336 97.0584C42.1809 96.3574 19.1021 99.03 12.379 102.452Z" fill="#180B02"/>
<path d="M135.853 61.531C133.79 59.1623 132.507 56.2156 132.18 53.0921C132.143 48.073 127.831 49.0336 125.35 45.6522C124.378 44.3272 124.29 42.0562 124.99 42.0336C125.691 42.0111 124.99 45.0931 129.164 46.8368C136.174 49.7716 130.66 55.8839 137.866 61.2408C140.155 62.9435 143.798 62.3088 146.597 63.5649C149.178 64.7243 149.38 67.8327 146.487 68.9974C145.56 69.3684 139.332 70.223 137.965 77.4509C136.032 87.7077 138.445 92.5082 138.123 93.4463C137.768 94.4838 136.852 94.5169 136.629 93.4927C134.471 83.5419 134.7 70.9968 144.447 68.2633C146.11 67.7983 147.198 67.422 147.179 66.3951C147.126 63.5503 140.614 64.8144 137.469 62.7381C137.371 62.6884 137.265 62.6591 137.155 62.6518C137.047 62.6445 136.937 62.6595 136.833 62.6957C131.576 63.6232 131.32 63.2509 131.258 64.4725C131.08 67.9665 132.067 67.7333 118.43 67.6711C116.717 67.6631 116.915 67.0576 117.259 62.4545C117.299 61.9073 117.16 61.7033 116.578 61.6039C115.226 61.3642 113.843 61.3508 112.486 61.5641C111.294 61.7549 111.495 61.91 111.632 66.4666C111.677 68.0036 111.336 67.9241 98.4176 67.0894C97.1748 67.0086 97.6107 66.9688 97.2251 58.3364C97.1549 56.7743 98.5501 57.6739 107.5 57.6739C110.637 57.6739 111.74 57.4354 111.54 58.8943C111.275 60.7917 111.632 60.5638 112.704 60.2696C116.149 59.3236 117.201 61.5747 117.39 59.8218C117.616 57.7336 117.629 57.7627 119.759 57.7919C123.134 57.8382 126.51 57.8237 129.888 57.8621C131.805 57.8846 131.971 57.6117 131.499 61.5588C131.402 62.3936 131.445 62.1988 135.853 61.531ZM110.629 59.6031C110.696 58.3484 110.605 58.9406 99.3531 58.5736C97.8638 58.5246 98.3991 58.9923 98.4905 65.5815C98.5064 66.774 99.153 65.6822 109.84 66.4335C110.916 66.509 110.279 66.1394 110.629 59.6031ZM129.453 66.5846C130.504 66.5846 130.161 66.6998 130.572 59.7608C130.639 58.6226 130.424 59.0851 119.119 58.8479C117.824 58.8201 118.445 59.1288 118.192 65.8598C118.159 66.7396 118.159 66.5581 129.453 66.5846Z" fill="#180B02"/>
<path d="M139.495 86.3231C140.228 85.4089 145.617 90.1775 150.242 83.6599C150.784 82.8967 149.132 83.0649 149.224 82.3044C149.281 81.838 151.408 81.5279 151.874 81.4736C158.583 80.6945 157.755 74.736 157.796 73.4388C157.861 71.3639 156.461 73.3341 154.823 72.8889C152.36 72.2264 155.523 71.2592 156.746 70.594C158.359 69.6498 159.536 68.1085 160.024 66.3033C160.51 64.498 160.266 62.5738 159.345 60.9467C157.71 58.5167 157.289 59.1394 156.238 59.9755C154.272 61.543 152.753 61.9087 152.434 61.3323C152.255 61.0077 152.453 60.7957 154.327 59.1606C158.382 55.6242 159.056 49.1834 152.992 44.8109C151.624 43.8251 151.957 44.7526 150.697 45.1196C146.923 46.2154 156.494 39.4565 149.568 34.7846C146.101 32.4473 145.944 34.7038 144.856 33.2304C143.399 31.2588 140.691 25.65 133.779 25.9945C131.83 26.0913 132.014 27.2122 131.353 26.6027C130.605 25.915 131.915 24.863 132.894 24.5582C135.519 23.8013 138.337 24.1065 140.74 25.4081C143.142 26.7096 144.936 28.9032 145.736 31.5158C146.171 33.07 149.785 30.4558 153.267 36.0592C153.911 37.0482 154.247 38.2071 154.228 39.3872C154.21 40.5674 153.84 41.7154 153.165 42.6842C152.83 43.2354 152.918 43.3997 153.483 43.7018C155.884 44.9081 157.723 47.0006 158.611 49.5371C159.499 52.0737 159.365 54.856 158.24 57.2963C158.108 57.6104 157.698 57.9509 158.385 58.2318C163.235 60.2193 163.034 67.6963 159.229 71.1373C158.986 71.3186 158.82 71.5833 158.764 71.8801C158.705 72.177 158.761 72.4846 158.917 72.7432C159.336 73.6891 159.561 74.7099 159.576 75.7445C159.592 76.7791 159.398 77.8063 159.009 78.7645C158.618 79.7228 158.039 80.5924 157.305 81.3215C156.571 82.0507 155.696 82.6243 154.736 83.008C153.293 83.5857 152.014 84.5111 151.015 85.7017C146.522 92.7335 138.011 88.1728 139.495 86.3231Z" fill="#180B02"/>
<path d="M116.353 182.826C117.034 183.603 117.925 184.169 118.919 184.454C119.913 184.74 120.968 184.732 121.958 184.434C122.419 184.31 122.715 184.577 123.066 184.793C126.858 187.119 127.319 184.212 129.011 184.867C129.476 185.117 130.01 185.207 130.531 185.123C131.051 185.04 131.531 184.787 131.894 184.404C132.257 184.021 132.485 183.529 132.541 183.004C132.598 182.481 132.48 181.952 132.207 181.501C131.931 180.984 131.657 180.509 132.339 180.093C132.606 179.884 132.944 179.786 133.281 179.822C133.618 179.856 133.929 180.022 134.147 180.282C142.506 189.119 157.263 194.674 158.048 195.053C153.094 196.337 142.309 195.591 137.037 194.655C135.382 194.364 136.924 190.222 128.469 188.016C115.689 184.679 115.41 185.282 116.08 183.9C116.202 183.55 116.293 183.191 116.353 182.826Z" fill="#F07D29"/>
<path d="M101.643 86.6677C98.3622 87.6933 95.2829 88.002 93.1324 84.6113C92.2129 83.2348 91.746 81.6056 91.7967 79.9509C91.8476 78.2963 92.4136 76.6988 93.416 75.3814C87.9716 73.8338 87.9755 66.6046 90.6017 64.8728C90.9422 64.6476 91.3636 64.1335 91.7491 64.5124C92.5998 65.3472 89.4768 65.9037 90.3923 70.3742C91.2973 74.7957 95.1358 73.5224 95.4883 74.9163C95.6433 75.5298 95.2127 75.8995 94.8125 76.2161C92.3798 78.1414 93.1669 83.3473 95.6645 85.1135C99.0088 87.4773 102.992 83.3473 103.059 86.1457C103.205 92.295 110.031 92.9655 113.425 91.0681C113.69 90.921 114.079 90.5526 114.305 90.8773C114.99 91.8591 108.247 96.1296 103.705 91.1661C102.496 89.965 101.764 88.3671 101.643 86.6677Z" fill="#180B02"/>
<path d="M130.295 82.4011C129.561 85.6659 126.768 88.6154 121.653 89.5879C120.58 89.792 120.776 89.8821 120.593 94.7938C120.561 95.6617 120.17 96.8078 119.44 96.6488C118.926 96.5362 118.929 96.5031 119.426 90.8546C119.475 90.3021 119.484 89.9271 118.733 89.9894C111.722 90.5949 104.384 85.2419 102.158 77.2535C101.726 75.7072 100.089 69.1882 101.695 69.1418C102.49 69.118 101.562 77.9292 107.681 84.3303C108.974 85.7481 110.547 86.8817 112.301 87.6591C114.055 88.4366 115.952 88.841 117.87 88.8467C119.789 88.8523 121.688 88.459 123.446 87.6917C125.205 86.9245 126.785 85.8001 128.086 84.3899C128.749 83.6494 129.489 82.9827 130.295 82.4011Z" fill="#180B02"/>
<path d="M119.643 26.6782C124.201 18.9309 130.428 23.5923 129.623 24.8232C129.301 25.3135 128.884 25.0047 128.563 24.7821C125.11 22.4104 121.596 24.9822 120.333 27.8681C120.166 28.2483 120.168 28.8552 119.589 28.8578C118.491 28.8578 119.282 26.5086 115.897 25.756C115.248 25.5922 114.572 25.5684 113.914 25.6862C113.255 25.804 112.629 26.0608 112.078 26.4393C111.526 26.8179 111.062 27.3097 110.715 27.8819C110.368 28.454 110.147 29.0934 110.067 29.7575C110.002 30.2438 110.153 30.8851 109.509 31.0958C108.93 31.2852 108.681 30.7128 108.327 30.4227C106.462 28.8976 100.748 29.2235 100.087 35.9877C100.058 36.2858 100.271 36.7734 99.8381 36.8489C98.7092 37.045 98.5568 33.9511 99.5267 32.0789C100.307 30.5406 101.63 29.3465 103.24 28.728C104.85 28.1094 106.632 28.1104 108.241 28.7306C108.618 28.8631 108.855 29.0354 108.969 28.4219C109.731 24.2773 116.223 22.3428 119.643 26.6782Z" fill="#180B02"/>
<path d="M113.678 185.428C111.145 183.728 112.486 171.877 120.265 167.585C126.728 164.017 133.382 166.352 132.488 167.88C132.298 168.204 132.068 168.055 131.819 167.984C128.624 167.086 125.209 167.421 122.251 168.925C119.293 170.428 117.008 172.989 115.851 176.099C114.744 179.106 114.014 182.24 113.678 185.428Z" fill="#180B02"/>
<path d="M91.0323 61.9324C87.7516 61.0963 86.3855 53.9307 91.9704 50.1094C92.8528 49.5052 93.8015 49.0043 94.7621 48.4333C87.9583 43.0697 94.8006 36.2804 99.0512 37.5245C99.4487 37.6425 99.8965 37.7736 99.8011 38.3103C99.7163 38.7926 99.2711 38.7661 98.9001 38.7488C95.0801 38.5832 90.86 43.5652 95.4697 47.0566C96.4674 47.8132 97.5009 48.0146 97.3592 48.8824C97.1525 50.1425 95.6711 49.1766 92.6514 51.7723C87.2308 56.4336 90.9422 60.9797 91.0323 61.9324Z" fill="#180B02"/>
<path d="M126.328 119.789C121.19 119.798 117.399 113.939 119.087 113.189C119.642 112.942 119.749 113.466 119.953 113.796C124.367 120.736 129.758 118.499 134.396 111.836C134.581 111.571 134.661 111.06 135.179 111.254C137.414 112.097 132.005 119.455 126.328 119.789Z" fill="#180B02"/>
<path d="M26.6945 121.237C29.8017 119.196 20.4114 121.478 19.8642 118.999C19.5727 117.674 17.9257 118.767 18.7419 120.215C20.1239 122.671 24.7799 122.496 26.6945 121.237Z" fill="#180B02"/>
<path d="M21.1967 122.309C19.2595 124.744 26.9644 127.938 31.3661 125.146C31.572 125.053 31.7511 124.911 31.8872 124.731C32.0231 124.551 32.1114 124.34 32.1438 124.116C30.2926 124.58 28.3659 124.658 26.4829 124.348C24.6 124.037 22.8007 123.342 21.1967 122.309Z" fill="#180B02"/>
<path d="M103.078 49.1728C104.045 48.9096 105.035 48.7423 106.034 48.6732C108.531 48.3764 108.593 46.4327 109.372 44.1139C109.809 42.8141 111.048 42.9506 110.603 43.6011C110.047 44.6904 109.711 45.8787 109.616 47.0978C108.829 50.6581 105.601 50.6038 103.882 51.1563C99.8769 52.4429 102.174 56.2562 101.08 56.402C99.7564 56.5782 98.1624 50.7773 103.078 49.1728Z" fill="#180B02"/>
<path d="M22.4687 112.398C19.8929 112.207 17.2349 113.812 17.8749 115.961C18.2605 117.259 16.9885 117.373 16.4651 116.554C14.3888 113.304 18.9826 107.942 24.8868 111.122C26.8597 112.185 23.8467 112.501 22.4687 112.398Z" fill="#180B02"/>
<path d="M33.9806 132.974C32.7775 135.346 26.3923 136.13 22.7048 131.421C22.3073 130.904 21.8369 130.038 22.4239 129.668C23.4534 129.019 25.3005 134.509 33.9806 132.974Z" fill="#180B02"/>
<path d="M33.2052 128.526C32.8355 130.532 25.8249 131.887 22.5972 128.544C22.0209 127.948 21.4763 126.946 22.1229 126.557C23.0265 125.998 25.7017 130.354 33.2052 128.526Z" fill="#180B02"/>
<path d="M123.86 40.4423C124.685 42.8021 118.766 47.6728 114.043 46.2538C113.535 46.1027 112.879 45.8284 113.021 45.3183C113.286 44.3511 115.532 47.3747 123.401 40.702C123.726 40.4251 123.616 40.5006 123.86 40.4423Z" fill="#180B02"/>
<path d="M122.563 181.702C122.213 182.175 121.731 182.534 121.177 182.734C120.624 182.934 120.023 182.966 119.451 182.827C118.879 182.686 118.362 182.382 117.962 181.948C117.563 181.517 117.301 180.976 117.208 180.394C116.861 177.367 119.019 173.666 119.964 174.526C120.255 174.791 119.985 175 119.891 175.209C119.33 176.421 119.023 177.735 118.989 179.069C118.948 181.509 119.817 181.555 122.563 181.702Z" fill="#180B02"/>
<path d="M110.144 191.625C124.242 193.362 122.406 195.468 121.181 195.29C118.827 194.938 111.506 193.57 110.144 191.625Z" fill="#180B02"/>
<path d="M127.692 183.364C125.285 186.023 120.775 182.643 123.556 176.483C123.953 175.592 124.988 175.885 124.824 176.944C123.595 184.867 127.258 182.449 127.692 183.364Z" fill="#180B02"/>
<path d="M129.628 55.3617C129.44 55.6889 129.546 55.6651 122.665 53.614C122.494 53.5961 122.336 53.5146 122.222 53.3856C122.108 53.2566 122.046 53.0896 122.049 52.9174C122.053 52.7453 122.12 52.5806 122.239 52.4559C122.358 52.3311 122.519 52.2556 122.691 52.2439C126.043 51.4291 130.11 54.5229 129.628 55.3617Z" fill="#180B02"/>
<path d="M105.903 53.9652C106.062 51.9922 110.605 50.8448 112.321 52.1698C113.147 52.8071 112.728 53.455 112.08 53.4378C110.008 53.3962 107.938 53.573 105.903 53.9652Z" fill="#180B02"/>
<path d="M123.524 73.3395C125.285 76.1353 121.404 79.3484 118.28 78.5428C118.039 78.4805 117.705 78.4978 117.685 78.1599C117.637 77.3238 122.246 78.0552 123.524 73.3395Z" fill="#180B02"/>
<path d="M127.837 180.397C127.947 178.886 128.558 177.686 129.264 177.94C130.279 178.307 128.01 180.637 130.871 182.651C132.281 183.643 127.936 184.479 127.837 180.397Z" fill="#180B02"/>
<path d="M114.816 72.1974C109.308 72.1656 114.197 64.9536 113.809 67.287C113.458 69.3937 113.014 70.3437 114.297 70.6697C114.578 70.7412 116.168 71.2779 116.058 71.7774C115.935 72.3392 115.17 72.0556 114.816 72.1974Z" fill="#180B02"/>
<path d="M114.331 195.966C119.133 196.675 117.228 199.444 113.359 196.667C113.297 196.623 113.254 196.557 113.241 196.482C113.227 196.408 113.243 196.331 113.286 196.269C113.515 195.848 113.927 196.009 114.331 195.966Z" fill="#180B02"/>
<path d="M109.519 198.69C111.067 198.478 113.817 198.947 113.399 199.974C112.948 201.079 110.417 199.644 109.519 198.69Z" fill="#180B02"/>
<path d="M66.345 193.733C55.7238 193.355 55.3091 178.738 65.3724 177.675C66.6289 177.506 67.9078 177.682 69.0716 178.185C70.2353 178.689 71.2401 179.5 71.9776 180.531C72.3327 180.98 72.6586 181.352 71.6728 181.517C67.2155 182.262 66.8591 188.607 70.9705 190.224C72.2598 190.732 72.273 190.746 71.2064 191.693C69.8656 192.906 68.1505 193.626 66.345 193.733Z" fill="#180B02"/>
<path d="M72.1219 168.733C73.688 168.744 72.2782 173.98 66.6403 175.33C65.2756 175.656 64.5442 174.828 64.951 173.608C65.6336 172.252 66.6503 171.094 67.9049 170.241C69.1596 169.389 70.6108 168.869 72.1219 168.733Z" fill="#180B02"/>
<path d="M106.434 63.7623C105.337 63.7756 105.034 61.9073 105.374 60.9427C105.882 59.4852 107.167 59.8059 107.465 60.9639C107.763 62.122 107.621 63.753 106.434 63.7623Z" fill="#180B02"/>
<path d="M125.55 61.9074C125.006 65.1696 123.071 63.6578 123.068 62.0399C123.064 59.7079 125.52 59.5635 125.55 61.9074Z" fill="#180B02"/>
</svg>
