<svg width="229" height="192" viewBox="0 0 229 192" fill="none" xmlns="http://www.w3.org/2000/svg">
<path d="M18.9602 43.8509C32.0402 43.9469 41.7602 55.9073 34.6898 67.0949C30.3266 74.0045 25.1702 73.6697 25.049 75.7697C24.3998 87.1025 27.8666 90.4805 17.363 77.4005C16.0946 75.8225 9.6962 77.1605 4.64298 71.5397C-5.32302 60.4301 7.0466 43.7633 18.9602 43.8509ZM23.7506 83.5205C24.1898 74.2073 22.8734 74.2265 24.9254 73.2941C32.0846 70.0421 37.601 62.0489 34.535 54.8069C28.5602 40.6949 8.2478 43.3889 3.47298 57.6269C0.399777 66.7793 6.34578 74.1041 15.1334 75.2045C18.1982 75.5873 18.2342 76.4333 23.7506 83.5205Z" fill="white"/>
<path d="M19.3213 56.1114C19.6405 59.9262 19.1593 60.0714 19.8361 60.2442C23.9101 61.311 24.3181 63.3198 23.2477 64.9098C21.8077 67.0542 19.6213 66.1434 19.6933 67.161C19.7353 67.7526 19.8505 69.141 19.3165 69.1182C19.0177 69.105 18.9037 69.0738 18.8365 67.035C18.8113 66.315 18.1225 66.9714 15.7789 65.715C15.4717 65.5494 14.5513 64.851 14.8297 64.515C15.1729 64.0986 15.6997 65.115 18.3913 65.613C19.1113 65.7438 18.6313 65.5566 18.6313 61.3158C18.6313 60.4614 17.5021 60.9702 15.6313 59.961C12.9457 58.509 14.8909 55.4094 17.9473 54.7434C18.8605 54.5442 18.2917 54.1554 18.5257 52.8762C18.5977 52.4802 18.9697 52.4634 19.0621 52.857C19.3453 54.0702 18.9265 54.6294 19.5961 54.6462C20.6329 54.6726 23.2333 55.4442 22.9561 56.055C22.5997 56.841 19.1977 54.6282 19.3213 56.1114ZM19.7641 61.191C19.4257 61.0962 19.5541 60.9798 19.6441 65.3058C19.6693 66.6102 26.9641 63.1986 19.7641 61.191ZM18.5497 58.7262C18.4585 55.5462 18.6853 55.4466 18.0517 55.6362C15.8641 56.289 14.2117 58.5102 16.4029 59.397C19.0189 60.4566 18.5761 59.6562 18.5497 58.7262Z" fill="#D1D0D6"/>
<path fill-rule="evenodd" clip-rule="evenodd" d="M226.824 18.5282C217.619 10.1474 161.534 1.92023 149.732 1.32023C148.903 1.27799 148.11 1.22567 147.349 1.17539C137.903 0.55091 133.525 0.261472 128.832 24.0404C130.098 24.8921 131.202 26.0729 131.922 27.6217C133.729 18.4909 135.587 11.2748 137.357 7.68023C138.338 5.68703 139.052 4.81823 145.157 5.30063C157.267 6.26063 214.206 13.601 223.664 22.2206C230.238 28.2098 211.058 126.754 207.464 138.671C206.276 142.608 205.129 142.545 199.127 142.211C198.911 142.199 198.688 142.186 198.457 142.174C197.704 142.133 196.66 142.041 195.403 141.911C195.376 143.034 195.308 144.149 195.2 145.252C198.629 145.622 201.336 145.83 202.999 145.838C206.508 145.856 208.814 144.124 209.982 140.358C213.866 127.839 235.903 26.7938 226.824 18.5282ZM194.537 131.688C196.23 131.837 198.392 131.956 201.138 132.06C201.229 132.064 201.322 132.072 201.414 132.08C201.97 132.13 202.519 132.179 202.766 131.123C203.383 128.476 204.037 125.841 204.69 123.206L204.692 123.197C204.996 121.968 205.301 120.741 205.602 119.511C206.009 117.846 205.675 117.802 200.71 117.146H200.708C198.829 116.897 196.286 116.561 192.87 116.016C191.574 115.81 191.536 116.015 190.79 120.008C190.784 120.041 190.777 120.075 190.771 120.11C191.36 121.373 191.892 122.65 192.366 123.934C192.433 123.61 192.497 123.305 192.556 123.02C193.397 118.956 193.452 118.685 194.569 118.804C196.343 118.994 197.747 119.116 198.856 119.214C202.644 119.547 202.975 119.576 202.748 120.897C202.261 123.545 201.637 126.167 200.879 128.751C200.663 129.527 200.212 129.461 199.834 129.406C199.735 129.392 199.642 129.377 199.559 129.38C197.932 129.159 196.624 129.005 195.578 128.882C194.898 128.801 194.328 128.733 193.853 128.669C194.114 129.675 194.342 130.682 194.537 131.688ZM179.48 104.422C179.777 104.47 180.088 104.52 180.413 104.574H180.42C182.094 104.848 184.162 105.186 186.712 105.633C187.73 105.965 187.942 104.894 189.186 98.5827C189.512 96.9243 189.911 94.9056 190.414 92.4553C190.751 90.8081 190.421 90.7514 186.134 90.0161C184.129 89.672 181.258 89.1794 177.184 88.3057C176.053 88.0592 175.993 88.4297 175.409 92.0895C175.132 93.8289 174.736 96.3111 174.049 99.8235C176 101.28 177.81 102.818 179.48 104.422ZM169.13 96.5139C169.326 95.4447 169.501 94.4965 169.657 93.6551L169.66 93.6471L169.661 93.6404V93.6368L169.662 93.6355C170.88 87.0689 170.888 87.0229 169.453 86.729C165.823 85.9862 163.12 85.3165 161.092 84.8144C157.64 83.9593 156.149 83.5901 155.386 84.173C154.806 84.6162 154.645 85.6093 154.363 87.3572L154.302 87.7405L154.27 87.9386C154.174 88.5254 154.079 89.118 153.986 89.7077C154.793 89.9654 155.586 90.2333 156.367 90.5107C156.367 90.5022 156.368 90.4937 156.37 90.4853C156.8 86.9955 156.862 86.5053 158.4 86.8922C161.08 87.5655 163.021 87.9986 164.42 88.3106C167.975 89.1032 168.03 89.1155 167.791 90.3002C167.368 92.4009 167.09 94.0025 166.886 95.2165C167.651 95.6383 168.398 96.0712 169.13 96.5139ZM148.897 88.2589C149.039 86.8373 149.214 85.2245 149.448 83.4004C149.825 81.9029 148.987 81.7691 147.863 81.5897C147.56 81.5414 147.238 81.4896 146.911 81.4071C143.65 80.561 141.133 79.88 139.19 79.3541L139.189 79.3537L139.187 79.3534L139.186 79.3531L139.184 79.3529C138.252 79.1004 137.452 78.8837 136.764 78.7018C135.613 80.1892 134.06 81.157 132.174 81.3964C131.945 83.3612 131.732 85.0237 131.55 86.4319C132.412 86.4228 133.294 86.4296 134.185 86.4501C134.228 86.0921 134.269 85.7547 134.308 85.437C134.752 81.7525 134.878 80.7103 135.325 80.5453C135.503 80.4803 135.73 80.5518 136.046 80.6514L136.087 80.6644C139.267 81.6673 141.53 82.3077 143.132 82.7613C146.981 83.8503 147.019 83.8611 146.795 85.2243C146.647 86.1189 146.526 86.9338 146.422 87.675C147.259 87.8598 148.084 88.0545 148.897 88.2589ZM144.814 70.5891C146.273 70.9316 147.93 71.3293 149.81 71.7987C150.781 72.0387 151.361 71.6379 151.434 70.5987C151.772 65.7833 152.47 62.5942 152.946 60.413C153.396 58.3502 153.65 57.1891 153.218 56.4067C152.662 55.3993 150.968 55.0199 147.094 54.152C146.37 53.99 145.571 53.811 144.689 53.6077C145.703 54.2526 146.398 55.211 146.796 56.3194C147.088 56.3966 147.361 56.4686 147.617 56.5361L147.618 56.5363C151.243 57.4921 151.387 57.5301 151.152 58.7523C150.616 61.5446 150.294 63.5893 150.061 65.0714C149.555 68.3016 149.467 68.8605 148.48 68.6655C147.12 68.3988 145.92 68.1696 144.86 67.9679C144.923 68.3252 144.956 68.6877 144.962 69.0521C144.97 69.5696 144.919 70.0851 144.814 70.5891ZM144.252 45.8156C157.026 49.4492 203.298 56.0841 205.316 56.3737L205.385 56.3834C209.149 56.9282 209.25 56.5975 210.45 52.6741L210.454 52.6619C210.574 52.2675 210.706 51.837 210.853 51.3674C212.248 45.7033 213.274 39.9549 213.924 34.1582C214.218 31.631 213.52 30.4862 211.36 29.327C207.611 27.3206 189.577 21.8402 175.84 19.8722C144.04 15.3122 142.052 16.3454 141.176 20.8634C140.368 24.9531 139.748 29.0769 139.32 33.222C139.858 34.0927 140.135 35.0999 140.119 36.1249C140.102 37.1939 139.768 38.2335 139.157 39.1107C138.853 39.6087 138.931 39.7575 139.445 40.0323C141.622 41.1227 143.288 43.0175 144.092 45.3156C144.151 45.4812 144.204 45.6479 144.252 45.8156ZM210.802 35.7758C209.657 41.3976 209.046 45.1587 208.636 47.6888C208.007 51.5661 207.847 52.5527 206.951 52.9142C206.359 52.4905 205.596 52.3885 202.502 51.9745C196.607 51.1856 182.245 49.2641 144.473 41.825C141.536 41.2478 141.353 40.8254 141.809 37.6106C142.366 33.7229 142.747 30.7043 143.044 28.3644C143.74 22.8618 143.962 21.1135 144.854 20.6447C145.271 20.4263 145.831 20.4853 146.654 20.5717C146.942 20.6019 147.263 20.6355 147.619 20.6618C160.838 21.6218 192.31 26.5886 208.339 31.1018C211.567 32.0119 211.518 32.2526 210.822 35.6718L210.8 35.7758H210.802ZM169.658 59.6187C167.695 59.2173 165.124 58.6914 161.767 57.9325C161.71 57.9321 161.654 57.9311 161.602 57.9301C161.342 57.9254 161.137 57.9217 160.96 57.9893C160.29 58.2445 160.007 59.5162 158.653 65.5868V65.5885C158.278 67.2755 157.819 69.3327 157.247 71.8417C156.872 73.4669 157.474 73.574 161.95 74.3723L161.951 74.3725C163.711 74.6864 166.07 75.1073 169.206 75.7693C169.499 75.8311 169.768 75.8953 170.016 75.9546C173 76.6658 173.016 76.6697 175.511 63.4333L175.543 63.2594C175.694 62.4635 175.795 61.9375 175.614 61.5395C175.261 60.7641 173.842 60.474 169.658 59.6187ZM168.335 62.1186C173.286 63.2745 173.658 63.3612 173.418 64.4989C173.198 65.5411 173.009 66.4597 172.842 67.2687L172.84 67.2785V67.2798C171.607 73.2435 171.606 73.2476 170.226 72.9793C168.182 72.5826 166.524 72.2843 165.182 72.0429C159.799 71.0749 159.52 71.0246 160.014 69.2197C160.768 66.4723 161.112 64.544 161.346 63.2307C161.738 61.0361 161.824 60.5591 163.001 60.8473C165.197 61.3862 166.946 61.7945 168.335 62.1186ZM179.2 91.5361C179.095 91.5447 178.967 91.5109 178.829 91.4745C178.387 91.3579 177.847 91.2157 177.686 92.3617C177.398 94.4109 177.084 95.9627 176.844 97.1476C176.466 99.0124 176.272 99.9675 176.657 100.523C177.06 101.108 178.104 101.25 180.244 101.542H180.245C181.402 101.7 182.879 101.902 184.747 102.24C185.81 102.432 185.886 102.028 186.413 99.2247C186.63 98.0655 186.925 96.4959 187.398 94.3909C187.77 92.7344 187.238 92.6616 183.042 92.0878L183.04 92.0874C181.999 91.9451 180.733 91.7719 179.2 91.5361ZM178.3 77.0139C178.559 77.6645 179.879 77.893 184.514 78.6953L184.518 78.6959C186.227 78.9918 188.387 79.3656 191.111 79.8674C192.803 80.1802 192.924 79.3555 193.603 74.7072C193.885 72.7746 194.264 70.1808 194.893 66.7334L194.896 66.7188C194.984 66.2283 195.049 65.8762 194.938 65.5936C194.652 64.8725 193.22 64.605 188.138 63.6553H188.137L188.136 63.6549C186.49 63.3475 184.462 62.9684 181.967 62.4794C180.772 62.2455 180.707 62.6399 180.041 66.6846C179.706 68.7197 179.219 71.6789 178.36 75.947L178.355 75.9729C178.262 76.4288 178.196 76.7549 178.3 77.0139ZM188.767 66.5014C192.403 67.1224 192.701 67.1732 192.421 68.5802C192.102 70.1816 191.9 71.4845 191.738 72.5351C191.416 74.6257 191.246 75.7175 190.616 76.1759C189.929 76.6767 188.69 76.4216 186.098 75.8877C184.896 75.6401 183.402 75.3323 181.537 75.0122C180.787 74.8814 180.533 74.6162 180.697 73.6814C181.123 71.2621 181.348 69.5145 181.507 68.2668V68.2645C181.85 65.5859 181.898 65.2127 183.025 65.441C185.521 65.9472 187.385 66.2654 188.766 66.5014H188.767ZM195.698 95.3363V95.3377C195.359 97.2483 194.84 100.166 193.84 104.591L193.837 104.603C193.322 106.899 193.249 107.223 206.947 107.772L207.05 107.777C207.314 107.789 207.517 107.798 207.685 107.726C208.235 107.49 208.412 106.383 209.17 101.639C209.449 99.8931 209.807 97.6551 210.29 94.7859C210.359 94.3782 210.406 94.0986 210.305 93.8928C210.086 93.4485 209.176 93.3447 206.3 93.0169C204.395 92.7997 201.626 92.4841 197.624 91.9059C196.342 91.7205 196.32 91.8436 195.698 95.3363ZM205.582 104.998C205.199 105.24 204.63 105.189 203.67 105.104L203.43 105.082H203.44C202.156 104.886 201.106 104.744 200.25 104.626C196.829 104.158 196.516 104.116 196.772 102.876C197.148 101.088 197.425 99.6712 197.644 98.5515L197.645 98.5443C198.401 94.6645 198.463 94.3495 199.574 94.5004C201.642 94.7816 203.2 94.944 204.367 95.0656C207.62 95.4047 207.83 95.4265 207.547 96.8247C207.163 98.7147 206.908 100.187 206.71 101.331C206.302 103.685 206.135 104.648 205.582 104.998ZM199.595 69.0675C200.215 65.5713 200.237 65.4475 201.521 65.633C205.525 66.2119 208.294 66.5277 210.199 66.7452H210.2C213.073 67.0729 213.983 67.1767 214.202 67.6207C214.303 67.8264 214.256 68.105 214.187 68.5128C213.703 71.3799 213.346 73.6177 213.067 75.3631L213.066 75.3655C212.309 80.1091 212.131 81.2166 211.58 81.4526C211.414 81.5245 211.211 81.5155 210.947 81.5039L210.844 81.4994C197.141 80.952 197.214 80.6293 197.734 78.3316L197.736 78.3194C198.737 73.8954 199.255 70.9779 199.595 69.0675ZM207.566 78.8328C208.526 78.9191 209.095 78.9702 209.478 78.7283C210.032 78.3782 210.199 77.4149 210.607 75.0575C210.805 73.9142 211.061 72.4421 211.444 70.5542C211.728 69.1565 211.518 69.1346 208.261 68.7954C207.094 68.6739 205.536 68.5117 203.471 68.231C202.364 68.0809 202.303 68.393 201.556 72.2216L201.554 72.2263C201.334 73.3551 201.053 74.7894 200.669 76.607C200.407 77.8451 200.725 77.8885 204.148 78.3566L204.149 78.3569C205.002 78.4736 206.048 78.6168 207.326 78.8114L207.566 78.8328ZM198.836 33.5766C199.637 33.7093 200.677 33.882 202.031 34.1151C202.346 34.169 202.394 33.8165 202.466 33.2969C202.484 33.1685 202.504 33.0293 202.529 32.8839C202.58 32.5809 202.559 32.5772 199.943 32.1437C199.14 32.0107 198.094 31.8373 196.73 31.6023C196.416 31.5475 196.367 31.8995 196.296 32.4187C196.278 32.5476 196.259 32.6867 196.234 32.8323C196.181 33.1361 196.204 33.1398 198.836 33.5766ZM197.659 40.6413C194.989 40.1996 194.966 40.1958 195.019 39.8907C195.044 39.7453 195.064 39.6065 195.08 39.4778C195.152 38.9581 195.202 38.6057 195.517 38.6594C196.872 38.8929 197.914 39.0659 198.714 39.1986C201.344 39.6348 201.366 39.6384 201.314 39.9411C201.289 40.0866 201.271 40.2251 201.253 40.3533C201.182 40.8765 201.134 41.2272 200.818 41.1723C199.484 40.9434 198.455 40.773 197.659 40.6413ZM196.382 47.8716C197.183 48.0042 198.223 48.1766 199.577 48.4095C199.891 48.4662 199.939 48.1133 200.011 47.5938C200.029 47.4649 200.048 47.3251 200.074 47.1796C200.126 46.8758 200.104 46.8721 197.471 46.4353L197.466 46.4346L197.464 46.4342C196.664 46.3016 195.626 46.1293 194.276 45.8967C193.956 45.842 193.907 46.2065 193.835 46.7394V46.7408L193.834 46.7449V46.7463C193.818 46.8661 193.8 46.9941 193.778 47.1279C193.726 47.4317 193.748 47.4353 196.382 47.8716ZM193.776 45.8078C193.628 45.7823 193.488 45.7628 193.358 45.7448C192.841 45.6731 192.491 45.6245 192.545 45.3098C192.76 44.0593 192.92 43.0938 193.043 42.3494L193.044 42.3468C193.45 39.8901 193.458 39.843 193.762 39.8954C193.897 39.9177 194.028 39.9354 194.15 39.9518C194.683 40.0238 195.047 40.073 194.993 40.3934C194.778 41.6419 194.618 42.606 194.495 43.3499C194.088 45.8137 194.08 45.8594 193.776 45.8078ZM202.394 40.0767C202.516 40.0932 202.646 40.1108 202.783 40.1331C203.09 40.185 203.1 40.1256 203.508 37.652V37.6479C203.629 36.9128 203.785 35.9649 203.995 34.7439C204.049 34.4285 203.696 34.3797 203.177 34.308C203.048 34.2901 202.909 34.271 202.764 34.2459C202.46 34.1935 202.45 34.2547 202.048 36.6908V36.6923L202.046 36.7032C201.924 37.4424 201.766 38.3993 201.553 39.6363C201.497 39.9557 201.862 40.0049 202.394 40.0767ZM189.562 31.973C188.198 31.7381 187.152 31.5645 186.349 31.4316C183.734 30.9981 183.712 30.9944 183.763 30.6914C183.785 30.5557 183.803 30.4257 183.82 30.3044V30.303C183.892 29.7701 183.941 29.4055 184.261 29.4602C185.617 29.6941 186.66 29.867 187.462 29.9999C190.088 30.4356 190.111 30.4393 190.06 30.7418C190.034 30.8873 190.015 31.0261 189.997 31.1547C189.926 31.6745 189.877 32.0269 189.562 31.973ZM185.189 38.4998L185.19 38.4999C185.984 38.6317 187.015 38.8025 188.347 39.0314C188.665 39.0853 188.713 38.7325 188.784 38.2123C188.802 38.0839 188.82 37.9454 188.845 37.8002C188.897 37.4971 188.875 37.4935 186.258 37.0597L186.257 37.0596L186.254 37.0592C185.453 36.9263 184.409 36.7531 183.048 36.5186C182.728 36.4629 182.678 36.8273 182.606 37.3603C182.59 37.482 182.573 37.6124 182.55 37.7486C182.497 38.0538 182.52 38.0575 185.189 38.4998ZM187.104 46.2686C185.778 46.041 184.752 45.8711 183.959 45.7397C181.277 45.2955 181.254 45.2917 181.307 44.987C181.328 44.8507 181.346 44.72 181.363 44.5982C181.435 44.0652 181.484 43.7001 181.805 43.7558C183.166 43.9903 184.21 44.1636 185.012 44.2964L185.014 44.2967L185.015 44.2969C187.632 44.7307 187.654 44.7343 187.602 45.0374C187.578 45.1785 187.56 45.3134 187.543 45.4389V45.4403C187.471 45.9657 187.423 46.3238 187.104 46.2686ZM180.918 43.6097C181.04 43.6261 181.17 43.6436 181.307 43.6659C181.621 43.7203 181.63 43.6717 182.076 40.9508C182.192 40.2456 182.338 39.3607 182.526 38.2515C182.58 37.9323 182.215 37.8831 181.682 37.8113C181.56 37.7948 181.429 37.7772 181.292 37.7547C180.989 37.7023 180.98 37.7487 180.574 40.208V40.2102V40.2119C180.45 40.9556 180.29 41.9197 180.076 43.1679C180.02 43.4883 180.385 43.5378 180.918 43.6097ZM189.925 37.9358C189.392 37.8639 189.026 37.8146 189.08 37.4942C189.266 36.3914 189.412 35.5112 189.526 34.8095L189.527 34.806C189.967 32.1157 189.978 32.0505 190.292 32.1038C190.439 32.1293 190.579 32.1488 190.709 32.1668C191.227 32.2389 191.579 32.288 191.526 32.6018C191.335 33.7271 191.189 34.6203 191.074 35.3291L191.072 35.3331C190.638 37.983 190.628 38.0462 190.314 37.9922C190.177 37.9699 190.048 37.9524 189.925 37.9358Z" fill="#D1D0D6"/>
<path d="M119.278 133.297C130.431 116.995 132.259 114.05 136.306 109.12C137.85 107.239 136.253 107.122 132.433 106.12C131.322 105.829 132.281 104.32 132.913 103.36C143.725 86.8902 142.295 86.8386 144.179 87.2058C185.628 95.2662 201.888 128.514 193.117 155.234C189.145 167.335 179.291 174.254 167.098 177.294C158.508 179.436 138.833 175.652 123.976 163.455C122.776 162.475 122.668 162.2 123.171 160.791C125.961 152.972 121.087 151.275 124.908 149.522C128.23 148.064 131.676 146.911 135.205 146.074C151.437 141.934 161.553 143.707 171.769 145.776C174.539 146.336 181.221 147.944 178.831 146.455C171.495 141.884 158.478 141.988 158.693 140.619C159.599 133.047 159.905 125.416 159.607 117.796C159.315 113.637 156.815 132.922 157.059 140.259C157.105 141.666 156.306 140.796 150.645 141.228C142.061 141.818 133.638 143.857 125.734 147.256C120.943 149.492 122.507 150.376 120.879 149.626C110.716 144.918 98.8754 152.934 100.656 165.859C100.711 166.26 100.851 166.83 100.278 166.767C99.7587 166.711 98.8922 167.019 98.7722 166.047C96.6014 148.353 97.0274 142.999 90.4694 141.687C78.0878 139.207 77.891 140.727 77.9486 139.32C78.0398 137.074 77.675 123.96 77.2226 122.28C76.4704 123.508 76.048 124.911 75.9963 126.351C74.6978 139.738 77.6282 140.305 74.9678 139.95C63.6686 138.445 40.445 139.219 29.141 140.678C24.1178 141.326 23.6642 147.568 24.3146 152.504C21.9842 151.948 21.0182 150.049 19.9946 148.237C11.2406 132.723 19.3166 115.73 19.0346 119.47C19.0214 120.026 19.1555 120.576 19.4232 121.062C19.6908 121.549 20.0826 121.957 20.5586 122.244C22.5698 123.85 21.2402 131.743 24.8678 136.12C26.8838 138.553 27.425 136.42 39.8042 134.976C62.3091 132.349 62.0942 132.967 62.8622 129.442C63.7022 125.559 62.7422 115.892 61.7474 113.083C60.8774 110.622 61.8206 109.023 63.2894 107.457C71.9714 98.2051 82.7294 93.417 94.7666 90.057C96.0074 89.7102 96.1503 89.8242 96.1743 91.0986C96.2355 94.2282 96.8654 97.3015 97.0802 100.417C97.7618 110.316 98.0978 110.137 96.2307 110.181C94.8687 110.217 92.2707 109.053 92.8779 111.454C94.6599 118.504 106.027 135.447 110.832 142.066C112.146 143.877 114.448 147.061 114.69 144.966C115.279 139.857 123.769 103.947 123.774 103.926C127.037 89.7006 123.85 87.0642 126.156 86.7654C130.839 85.9991 135.61 85.9498 140.307 86.619C141.678 86.7822 141.737 86.6514 136.516 94.8906C130.049 105.098 128.949 106.374 132.119 107.355C132.934 107.67 133.777 107.9 134.639 108.04C135.365 108.109 135.324 108.416 134.933 108.856C130.23 114.157 126.285 120.77 120.791 128.786C119.992 130.174 119.477 131.708 119.278 133.297Z" fill="#D1D0D6"/>
<path d="M119.874 176.88C119.604 175.21 97.5155 171.774 97.9607 169.852C98.3459 168.186 114.734 173.153 118.132 174.071C120.666 174.757 122.873 175.856 121.35 177.822C118.933 180.942 105.658 187.564 100.744 189.342C93.7835 191.862 86.4023 191.11 70.6548 189.732C34.788 186.595 33.0047 192.252 29.2547 171.674C23.8547 142.001 24.9228 143.58 41.1648 142.823C56.8138 142.262 72.4828 142.714 88.0738 144.173C93.5614 144.755 94.0738 148.508 96.0886 161.599C97.1806 168.689 99.0671 181.262 97.4436 188.328C95.382 190.777 120.083 178.16 119.874 176.88ZM30.6396 145.471C26.9484 146.431 27.6096 151.283 28.4952 157.231C32.5415 184.397 33.3287 185.472 44.5751 186.164C61.9367 187.234 59.0818 186.706 85.7734 188.969C94.4722 189.707 96.163 188.192 96.1726 184.373C96.1175 177.454 95.5156 170.549 94.3726 163.724C91.8454 147.63 90.8134 146.707 87.835 146.236C70.3594 143.472 35.7168 144.157 30.6396 145.471Z" fill="white"/>
<path d="M107.288 91.3297C107.098 103.305 106.159 98.3343 107.9 116.548C109.061 128.694 112.714 140.316 111.714 140.703C111.151 140.921 99.0829 121.971 94.8649 112.71C94.4521 111.804 94.2145 111.231 95.1949 111.333C100.415 111.875 99.3949 109.854 97.9189 93.5197C97.5937 89.9197 97.1077 89.4805 98.1349 89.3197C108.068 87.7657 107.332 88.6153 107.288 91.3297Z" fill="#D1D0D6"/>
<path d="M11.6448 93.2404C13.2799 95.3261 14.5543 97.6708 15.4152 100.178C15.5256 100.583 15.2424 100.845 14.958 100.468C8.81641 92.3296 7.93321 92.4052 13.848 90.5752C27.0288 86.4952 38.3112 86.7352 45.6096 86.8288C46.543 86.8054 47.4645 87.0418 48.2713 87.5116C49.0782 87.9814 49.7387 88.666 50.1792 89.4892C57.9792 101.837 60.9048 117.789 60.6708 128.849C60.588 132.758 54.7104 128.561 27.4908 135.419C26.5308 135.659 26.0856 135.911 24.3108 127.96C22.1016 118.065 26.0304 126.737 27.3408 132.855C27.8088 135.038 28.9704 132.365 41.6964 130.252C59.0964 127.364 59.2068 131.115 59.16 126.825C59.0568 117.285 51.666 88.8316 46.0188 88.3552C38.6352 87.7204 17.7336 90.1408 11.6448 93.2404Z" fill="white"/>
<path d="M123.47 56.1786C121.602 54.0334 120.44 51.3647 120.144 48.5358C120.11 43.9902 116.206 44.8602 113.958 41.7978C113.078 40.5978 112.998 38.541 113.633 38.5206C114.267 38.5002 113.633 41.2914 117.413 42.8706C123.761 45.5286 118.768 51.0642 125.293 55.9158C127.367 57.4578 130.666 56.883 133.201 58.0206C135.539 59.0706 135.721 61.8858 133.102 62.9406C132.262 63.2766 126.622 64.0506 125.383 70.5966C123.632 79.8858 125.818 84.2334 125.526 85.083C125.204 86.0226 124.375 86.0526 124.174 85.125C122.219 76.113 122.426 64.7514 131.254 62.2758C132.76 61.8546 133.745 61.5138 133.728 60.5838C133.68 58.0074 127.782 59.1522 124.934 57.2718C124.846 57.2268 124.75 57.2003 124.65 57.1937C124.552 57.1871 124.452 57.2007 124.358 57.2334C119.597 58.0734 119.365 57.7362 119.309 58.8426C119.148 62.007 120.042 61.7958 107.691 61.7394C106.14 61.7322 106.319 61.1838 106.631 57.015C106.667 56.5194 106.541 56.3346 106.014 56.2446C104.789 56.0275 103.537 56.0154 102.308 56.2086C101.228 56.3814 101.411 56.5218 101.534 60.6486C101.575 62.0406 101.267 61.9686 89.5666 61.2126C88.441 61.1394 88.8358 61.1034 88.4866 53.2854C88.423 51.8706 89.6866 52.6854 97.7926 52.6854C100.633 52.6854 101.633 52.4694 101.451 53.7906C101.211 55.509 101.534 55.3026 102.505 55.0362C105.625 54.1794 106.578 56.2182 106.749 54.6306C106.953 52.7394 106.965 52.7658 108.895 52.7922C111.951 52.8342 115.009 52.821 118.068 52.8558C119.804 52.8762 119.954 52.629 119.527 56.2038C119.44 56.9598 119.478 56.7834 123.47 56.1786ZM100.626 54.4326C100.687 53.2962 100.604 53.8326 90.4138 53.5002C89.065 53.4558 89.5498 53.8794 89.6326 59.847C89.647 60.927 90.2326 59.9382 99.9118 60.6186C100.886 60.687 100.309 60.3522 100.626 54.4326ZM117.674 60.7554C118.626 60.7554 118.315 60.8598 118.687 54.5754C118.748 53.5446 118.554 53.9634 108.315 53.7486C107.142 53.7234 107.705 54.003 107.475 60.099C107.445 60.8958 107.445 60.7314 117.674 60.7554Z" fill="white"/>
<path d="M126.769 78.6324C127.433 77.8044 132.313 82.1231 136.503 76.2204C136.993 75.5292 135.497 75.6815 135.58 74.9927C135.631 74.5703 137.559 74.2896 137.98 74.2403C144.057 73.5347 143.307 68.1384 143.344 66.9636C143.403 65.0844 142.134 66.8688 140.651 66.4656C138.42 65.8656 141.285 64.9896 142.392 64.3871C143.854 63.532 144.919 62.1361 145.361 60.5012C145.801 58.8662 145.581 57.1236 144.747 55.65C143.266 53.4492 142.884 54.0131 141.933 54.7703C140.152 56.1899 138.777 56.5212 138.487 55.9991C138.325 55.7052 138.504 55.5131 140.202 54.0324C143.874 50.8295 144.485 44.9963 138.993 41.0363C137.754 40.1435 138.055 40.9835 136.914 41.316C133.497 42.3083 142.164 36.1872 135.892 31.956C132.751 29.8392 132.61 31.8828 131.625 30.5484C130.305 28.7628 127.852 23.6831 121.593 23.9951C119.827 24.0827 119.994 25.0979 119.395 24.5459C118.717 23.9231 119.904 22.9703 120.791 22.6943C123.168 22.0088 125.721 22.2853 127.896 23.464C130.072 24.6428 131.697 26.6294 132.421 28.9955C132.815 30.4031 136.089 28.0355 139.242 33.1103C139.825 34.006 140.129 35.0555 140.112 36.1244C140.095 37.1932 139.761 38.2329 139.15 39.1103C138.846 39.6095 138.925 39.7584 139.438 40.0319C141.612 41.1244 143.278 43.0195 144.082 45.3167C144.886 47.614 144.765 50.1338 143.746 52.3439C143.626 52.6283 143.255 52.9367 143.877 53.1911C148.27 54.9911 148.087 61.7628 144.641 64.8792C144.421 65.0433 144.271 65.2831 144.22 65.5519C144.167 65.8208 144.217 66.0993 144.359 66.3336C144.738 67.1902 144.942 68.1147 144.955 69.0517C144.97 69.9888 144.795 70.919 144.442 71.7868C144.088 72.6547 143.563 73.4422 142.899 74.1026C142.234 74.763 141.442 75.2824 140.572 75.63C139.265 76.1532 138.107 76.9912 137.202 78.0696C133.133 84.438 125.425 80.3076 126.769 78.6324Z" fill="white"/>
<path d="M105.81 166.031C106.427 166.735 107.233 167.247 108.134 167.505C109.034 167.765 109.989 167.757 110.886 167.487C111.303 167.375 111.571 167.617 111.889 167.813C115.323 169.919 115.741 167.286 117.273 167.88C117.695 168.105 118.178 168.187 118.65 168.111C119.121 168.036 119.556 167.807 119.885 167.46C120.213 167.113 120.42 166.668 120.47 166.193C120.522 165.719 120.415 165.24 120.168 164.831C119.918 164.363 119.67 163.933 120.288 163.556C120.529 163.367 120.835 163.278 121.141 163.31C121.446 163.341 121.728 163.491 121.925 163.727C129.495 171.731 142.86 176.761 143.571 177.104C139.085 178.267 129.317 177.591 124.542 176.744C123.043 176.48 124.44 172.729 116.783 170.731C105.209 167.709 104.955 168.255 105.563 167.004C105.672 166.687 105.755 166.362 105.81 166.031Z" fill="#D1D0D6"/>
<path d="M92.4875 78.9446C89.5163 79.8734 86.7275 80.153 84.7799 77.0822C83.9471 75.8355 83.5243 74.36 83.5702 72.8614C83.6163 71.3628 84.1289 69.9161 85.0367 68.723C80.1059 67.3214 80.1095 60.7742 82.4879 59.2058C82.7963 59.0018 83.1779 58.5362 83.5271 58.8794C84.2975 59.6354 81.4691 60.1394 82.2983 64.1882C83.1179 68.1926 86.5943 67.0394 86.9135 68.3018C87.0539 68.8574 86.6639 69.1922 86.3015 69.479C84.0983 71.2226 84.8111 75.9374 87.0731 77.537C90.1019 79.6778 93.7091 75.9374 93.7703 78.4718C93.9023 84.0409 100.085 84.6482 103.158 82.9298C103.398 82.7966 103.751 82.4629 103.955 82.7569C104.575 83.6461 98.4683 87.5138 94.3547 83.0186C93.2605 81.9308 92.5972 80.4836 92.4875 78.9446Z" fill="white"/>
<path d="M118.436 75.0797C117.771 78.0365 115.242 80.7077 110.61 81.5885C109.638 81.7733 109.815 81.8549 109.65 86.3033C109.621 87.0893 109.267 88.1273 108.606 87.9833C108.14 87.8813 108.143 87.8513 108.593 82.7357C108.637 82.2353 108.645 81.8957 107.965 81.9521C101.616 82.5005 94.9701 77.6525 92.9541 70.4177C92.5629 69.0173 91.0797 63.1133 92.5341 63.0713C93.2541 63.0497 92.4141 71.0297 97.9557 76.8269C99.1264 78.1109 100.551 79.1377 102.14 79.8417C103.729 80.5459 105.446 80.9121 107.184 80.9173C108.922 80.9223 110.641 80.5661 112.234 79.8712C113.827 79.1764 115.257 78.1581 116.436 76.8809C117.036 76.2103 117.707 75.6064 118.436 75.0797Z" fill="white"/>
<path d="M108.79 24.6142C112.918 17.5978 118.558 21.8194 117.828 22.9342C117.537 23.3782 117.159 23.0986 116.868 22.897C113.741 20.749 110.558 23.0782 109.415 25.6918C109.264 26.0362 109.265 26.5858 108.74 26.5882C107.747 26.5882 108.463 24.4606 105.397 23.779C104.81 23.6307 104.197 23.6091 103.601 23.7158C103.005 23.8224 102.438 24.055 101.938 24.3978C101.439 24.7407 101.018 25.1861 100.704 25.7043C100.39 26.2224 100.19 26.8016 100.117 27.403C100.058 27.8434 100.195 28.4242 99.612 28.615C99.0876 28.7866 98.862 28.2682 98.5416 28.0054C96.852 26.6242 91.6776 26.9194 91.0788 33.0454C91.0524 33.3154 91.2456 33.757 90.8532 33.8254C89.8308 34.003 89.6928 31.201 90.5712 29.5054C91.2775 28.1122 92.4758 27.0308 93.934 26.4706C95.392 25.9103 97.0061 25.9113 98.4636 26.473C98.8044 26.593 99.0192 26.749 99.1224 26.1934C99.8124 22.4398 105.692 20.6878 108.79 24.6142Z" fill="white"/>
<path d="M103.387 168.388C101.093 166.848 102.307 156.115 109.352 152.228C115.206 148.997 121.232 151.111 120.422 152.495C120.251 152.789 120.042 152.653 119.816 152.59C116.923 151.776 113.83 152.08 111.151 153.442C108.472 154.802 106.403 157.122 105.355 159.938C104.352 162.662 103.691 165.5 103.387 168.388Z" fill="white"/>
<path d="M82.8779 56.5421C79.9067 55.7849 78.6695 49.2953 83.7275 45.8345C84.5267 45.2873 85.3859 44.8337 86.2559 44.3165C80.0939 39.4589 86.2907 33.3101 90.1403 34.4369C90.5003 34.5437 90.9059 34.6625 90.8195 35.1485C90.7427 35.5853 90.3395 35.5613 90.0035 35.5457C86.5439 35.3957 82.7219 39.9077 86.8967 43.0697C87.8003 43.7549 88.7363 43.9373 88.6079 44.7233C88.4207 45.8645 87.0791 44.9897 84.3443 47.3405C79.4351 51.5621 82.7963 55.6793 82.8779 56.5421Z" fill="white"/>
<path d="M114.844 108.941C110.19 108.95 106.757 103.643 108.286 102.964C108.789 102.741 108.886 103.215 109.071 103.514C113.068 109.799 117.95 107.774 122.15 101.739C122.318 101.499 122.39 101.036 122.86 101.212C124.884 101.975 119.986 108.639 114.844 108.941Z" fill="white"/>
<path d="M24.6096 110.252C27.4236 108.404 18.9192 110.47 18.4236 108.225C18.1596 107.025 16.668 108.015 17.4072 109.327C18.6588 111.55 22.8756 111.392 24.6096 110.252Z" fill="white"/>
<path d="M19.6307 111.223C17.8763 113.428 24.8543 116.32 28.8407 113.792C29.0271 113.708 29.1894 113.579 29.3126 113.416C29.4357 113.253 29.5157 113.062 29.5451 112.859C27.8684 113.279 26.1235 113.35 24.4182 113.069C22.7129 112.787 21.0834 112.159 19.6307 111.223Z" fill="white"/>
<path d="M93.7873 44.9864C94.6627 44.748 95.5595 44.5965 96.4645 44.534C98.7253 44.2652 98.7817 42.5048 99.4873 40.4048C99.8833 39.2276 101.005 39.3512 100.602 39.9404C100.099 40.9269 99.7949 42.003 99.7081 43.1072C98.9953 46.3316 96.0721 46.2824 94.5157 46.7828C90.8881 47.948 92.9689 51.4016 91.9777 51.5336C90.7789 51.6932 89.3353 46.4396 93.7873 44.9864Z" fill="white"/>
<path d="M20.7827 102.247C18.4499 102.074 16.0427 103.528 16.6223 105.474C16.9715 106.65 15.8195 106.753 15.3455 106.012C13.4651 103.068 17.6255 98.2116 22.9727 101.092C24.7595 102.054 22.0307 102.341 20.7827 102.247Z" fill="white"/>
<path d="M31.2085 120.882C30.1189 123.03 24.3361 123.741 20.9965 119.476C20.6365 119.008 20.2105 118.223 20.7421 117.888C21.6745 117.3 23.3473 122.273 31.2085 120.882Z" fill="white"/>
<path d="M30.5061 116.854C30.1713 118.671 23.8221 119.898 20.8989 116.871C20.3769 116.331 19.8837 115.423 20.4693 115.071C21.2877 114.564 23.7105 118.51 30.5061 116.854Z" fill="white"/>
<path d="M112.608 37.0801C113.356 39.2173 107.995 43.6285 103.717 42.3433C103.258 42.2065 102.664 41.9581 102.792 41.4961C103.032 40.6201 105.066 43.3585 112.193 37.3153C112.487 37.0645 112.387 37.1329 112.608 37.0801Z" fill="white"/>
<path d="M111.435 165.013C111.117 165.441 110.68 165.767 110.179 165.948C109.678 166.129 109.134 166.158 108.616 166.032C108.098 165.905 107.629 165.629 107.268 165.236C106.906 164.845 106.668 164.355 106.584 163.829C106.27 161.087 108.225 157.735 109.08 158.514C109.344 158.754 109.099 158.943 109.014 159.133C108.507 160.23 108.229 161.42 108.197 162.629C108.16 164.838 108.947 164.88 111.435 165.013Z" fill="white"/>
<path d="M100.187 174C112.955 175.573 111.292 177.48 110.183 177.319C108.051 177 101.421 175.762 100.187 174Z" fill="white"/>
<path d="M116.08 166.518C113.899 168.926 109.815 165.865 112.333 160.286C112.693 159.48 113.631 159.745 113.482 160.704C112.369 167.88 115.686 165.69 116.08 166.518Z" fill="white"/>
<path d="M117.833 50.5918C117.662 50.8882 117.758 50.8666 111.527 49.009C111.372 48.9928 111.228 48.919 111.125 48.8021C111.022 48.6853 110.966 48.534 110.969 48.3781C110.972 48.2222 111.033 48.0731 111.14 47.9602C111.248 47.8471 111.394 47.7787 111.55 47.7682C114.586 47.0302 118.269 49.8322 117.833 50.5918Z" fill="white"/>
<path d="M96.3457 49.3273C96.4897 47.5405 100.605 46.5013 102.159 47.7013C102.906 48.2785 102.527 48.8653 101.94 48.8497C100.064 48.812 98.1885 48.9721 96.3457 49.3273Z" fill="white"/>
<path d="M112.304 66.873C113.899 69.405 110.384 72.3151 107.555 71.5854C107.336 71.529 107.034 71.5446 107.016 71.2386C106.973 70.4814 111.146 71.1438 112.304 66.873Z" fill="white"/>
<path d="M116.21 163.831C116.31 162.463 116.863 161.376 117.503 161.606C118.422 161.939 116.368 164.048 118.958 165.872C120.235 166.771 116.3 167.528 116.21 163.831Z" fill="white"/>
<path d="M104.418 65.8387C99.4295 65.8099 103.858 59.2783 103.506 61.3915C103.188 63.2995 102.786 64.1599 103.948 64.4551C104.202 64.5199 105.642 65.0059 105.542 65.4583C105.431 65.9671 104.738 65.7103 104.418 65.8387Z" fill="white"/>
<path d="M103.979 177.931C108.328 178.573 106.602 181.081 103.098 178.565C103.042 178.526 103.003 178.466 102.991 178.399C102.979 178.331 102.993 178.262 103.032 178.205C103.24 177.824 103.613 177.97 103.979 177.931Z" fill="white"/>
<path d="M99.6206 180.399C101.022 180.207 103.513 180.632 103.134 181.562C102.726 182.562 100.434 181.263 99.6206 180.399Z" fill="white"/>
<path d="M60.5196 175.909C50.9004 175.567 50.5248 162.329 59.6388 161.366C60.7768 161.213 61.935 161.372 62.989 161.828C64.043 162.284 64.9529 163.019 65.6208 163.952C65.9424 164.359 66.2376 164.696 65.3448 164.845C61.308 165.521 60.9852 171.266 64.7088 172.732C65.8764 173.191 65.8884 173.204 64.9224 174.061C63.7082 175.16 62.1549 175.812 60.5196 175.909Z" fill="white"/>
<path d="M65.7517 153.268C67.1701 153.277 65.8933 158.02 60.7873 159.242C59.5513 159.538 58.8889 158.788 59.2573 157.682C59.8755 156.455 60.7963 155.406 61.9326 154.633C63.0688 153.862 64.3832 153.391 65.7517 153.268Z" fill="white"/>
<path d="M96.827 58.1997C95.8334 58.2117 95.5586 56.5197 95.867 55.6461C96.3266 54.3261 97.4906 54.6165 97.7606 55.6653C98.0306 56.7141 97.9022 58.1913 96.827 58.1997Z" fill="white"/>
<path d="M114.139 56.5197C113.647 59.4741 111.894 58.1049 111.892 56.6397C111.888 54.5277 114.113 54.3969 114.139 56.5197Z" fill="white"/>
</svg>
