<svg width="496" height="496" viewBox="0 0 496 496" fill="none" xmlns="http://www.w3.org/2000/svg">
<path d="M118.465 179.385C115.514 172.035 116.732 168.203 115.783 164.26C115.737 164.101 115.641 163.961 115.509 163.861C115.377 163.761 115.216 163.708 115.05 163.708C114.885 163.708 114.724 163.761 114.592 163.861C114.46 163.961 114.364 164.101 114.318 164.26C112.673 169.079 115.112 175.543 117.064 179.934C117.427 180.787 118.811 180.245 118.465 179.385Z" fill="#F07D29"/>
<path d="M115.652 158.772C115.872 155.276 116.286 151.795 116.889 148.345C117.564 145.527 118.092 142.677 118.473 139.805C118.471 139.619 118.409 139.439 118.295 139.291C118.181 139.144 118.022 139.038 117.843 138.99C117.663 138.942 117.473 138.954 117.3 139.024C117.128 139.095 116.984 139.219 116.889 139.38C113.717 144.991 113.839 152.55 114.388 158.772C114.417 158.919 114.495 159.051 114.61 159.146C114.726 159.241 114.871 159.293 115.02 159.293C115.169 159.293 115.314 159.241 115.429 159.146C115.545 159.051 115.623 158.919 115.652 158.772Z" fill="#F07D29"/>
<path d="M121.881 131.697C126.165 121.188 130.811 116.359 133.102 111.33C133.203 111.15 133.236 110.94 133.195 110.738C133.154 110.537 133.042 110.356 132.879 110.23C132.716 110.104 132.513 110.041 132.308 110.052C132.102 110.063 131.907 110.148 131.759 110.291C125.722 115.109 122.605 124.012 120.6 131.147C120.416 131.941 121.56 132.473 121.881 131.697Z" fill="#F07D29"/>
<path d="M138.162 105.291C142.615 99.732 148.144 95.1489 149.992 92.85C150.132 92.7012 150.214 92.5075 150.223 92.3037C150.233 92.0999 150.17 91.8993 150.045 91.7379C149.92 91.5765 149.742 91.4649 149.542 91.423C149.343 91.3812 149.134 91.4118 148.955 91.5095C143.76 94.0106 139.99 99.6216 137.002 104.373C136.576 105.109 137.62 105.969 138.162 105.291Z" fill="#F07D29"/>
<path d="M155.975 88.0958C160.781 85.028 166.402 82.362 170.427 78.2775C170.853 77.7827 170.427 76.813 169.756 77.1168C164.45 79.3141 159.876 83.4594 155.242 86.8136C154.444 87.363 155.113 88.6402 155.975 88.0958Z" fill="#F07D29"/>
<path d="M176.153 75.2891C185.165 70.7817 189.193 69.352 191.52 66.6314C191.642 66.4999 191.719 66.3333 191.739 66.1554C191.76 65.9776 191.724 65.7978 191.636 65.6418C191.548 65.4859 191.413 65.3619 191.25 65.2877C191.087 65.2135 190.905 65.1929 190.729 65.229C187.224 65.8527 184.049 68.6576 175.545 74.1917C175.408 74.2764 175.308 74.4111 175.267 74.5676C175.226 74.7241 175.246 74.8904 175.325 75.0319C175.403 75.1734 175.533 75.2793 175.688 75.3274C175.842 75.3755 176.009 75.3622 176.154 75.2903L176.153 75.2891Z" fill="#F07D29"/>
<path d="M199.324 64.5556C202.451 63.7835 205.512 62.7643 208.478 61.5077C211.302 60.6473 214.055 59.5664 216.71 58.275C216.894 58.159 217.037 57.9873 217.117 57.7848C217.197 57.5822 217.211 57.3595 217.155 57.1488C217.1 56.9382 216.979 56.7505 216.81 56.6132C216.641 56.4759 216.433 56.3961 216.215 56.3853C212.87 56.68 209.603 57.5681 206.568 59.0079C203.674 60.0083 201.003 61.5619 198.702 63.5822C198.229 64.01 198.714 64.666 199.325 64.5569L199.324 64.5556Z" fill="#F07D29"/>
<path d="M223.719 56.3246C229.981 55.802 236.138 54.4054 242.013 52.1756C242.987 51.7503 242.507 50.1023 241.463 50.1643C235.303 50.4681 229.146 52.9692 223.291 54.9209C222.376 55.164 222.744 56.4635 223.719 56.3246Z" fill="#F07D29"/>
<path d="M248.112 51.2641C253.356 51.022 258.574 50.3895 263.724 49.3719C263.943 49.3014 264.135 49.1631 264.27 48.9768C264.406 48.7905 264.48 48.5658 264.48 48.3353C264.48 48.1047 264.406 47.88 264.27 47.6937C264.135 47.5074 263.943 47.3691 263.724 47.2986C258.528 45.9582 252.685 47.6024 247.928 49.6162C247.137 49.982 247.075 51.3919 248.112 51.2641Z" fill="#F07D29"/>
<path d="M270.918 47.7858C273.672 48.6701 276.59 48.924 279.456 48.5285C282.757 48.8067 286.081 48.4969 289.274 47.6134C289.448 47.5567 289.599 47.4466 289.706 47.2989C289.813 47.1511 289.871 46.9732 289.871 46.7907C289.871 46.6081 289.813 46.4302 289.706 46.2825C289.599 46.1347 289.448 46.0246 289.274 45.9679C286.035 45.3575 282.716 45.2954 279.456 45.7844C276.548 45.6381 273.641 46.0944 270.918 47.1248C270.864 47.1612 270.82 47.2104 270.789 47.2681C270.758 47.3257 270.742 47.39 270.742 47.4553C270.742 47.5206 270.758 47.5849 270.789 47.6425C270.82 47.7002 270.864 47.7494 270.918 47.7858Z" fill="#F07D29"/>
<path d="M296.103 48.0302C298.604 48.458 301.051 48.5249 303.542 48.701C306.33 49.0656 309.144 49.188 311.953 49.0668C312.183 49.0609 312.403 48.9731 312.573 48.8194C312.744 48.6656 312.855 48.4558 312.885 48.2279C312.914 48 312.862 47.7689 312.737 47.5763C312.611 47.3836 312.421 47.242 312.201 47.177C306.995 45.4932 301.429 45.2613 296.102 46.5062C295.937 46.5545 295.792 46.6549 295.689 46.7925C295.586 46.9301 295.531 47.0973 295.531 47.2691C295.532 47.4409 295.588 47.608 295.691 47.7452C295.794 47.8824 295.939 47.9824 296.104 48.0302H296.103Z" fill="#F07D29"/>
<path d="M319.031 49.4326C324.42 50.7196 329.986 51.091 335.497 50.5312C336.472 50.4072 336.35 48.9453 335.497 48.701C330.185 47.454 324.706 47.0829 319.274 47.6023C318.3 47.6643 317.934 49.1933 319.031 49.4326Z" fill="#F07D29"/>
<path d="M343.121 51.4438C348.501 53.4786 354.191 54.5721 359.943 54.6765C360.855 54.6145 360.917 53.5183 360.126 53.1525C354.694 51.2796 348.977 50.3711 343.232 50.4679C343.112 50.47 342.997 50.5156 342.908 50.5963C342.819 50.6769 342.763 50.7871 342.749 50.9063C342.736 51.0256 342.766 51.1457 342.834 51.2443C342.902 51.343 343.004 51.4147 343.121 51.4438Z" fill="#F07D29"/>
<path d="M365.317 56.3245C373.845 59.37 376.271 61.3565 379.526 61.69C380.377 61.8115 380.747 60.5914 380.195 60.0421C376.598 56.4448 370.439 55.7132 365.683 54.9804C365.511 54.9478 365.332 54.9814 365.183 55.0746C365.034 55.1677 364.926 55.3135 364.88 55.4829C364.834 55.6523 364.853 55.8329 364.934 55.9886C365.015 56.1444 365.152 56.2651 365.317 56.3245Z" fill="#F07D29"/>
<path d="M384.405 66.0201C388.204 70.4035 388.034 74.4509 389.6 76.8751C390.026 77.5459 391.308 77.5459 391.49 76.6271C392.161 72.2982 388.38 67.7214 385.392 64.981C384.709 64.3746 383.811 65.3344 384.405 66.0201Z" fill="#F07D29"/>
<path d="M390.738 81.8153C390.137 86.1168 389.912 90.4625 390.067 94.803C390.188 95.8397 391.774 96.6928 392.384 95.4143C393.91 90.9408 394.037 86.1089 392.75 81.5611C392.512 80.3508 390.798 80.7179 390.736 81.8153H390.738Z" fill="#F07D29"/>
<path d="M388.551 97.4864C386.579 98.6741 384.543 99.7524 382.453 100.717C380.466 101.366 378.562 102.247 376.78 103.339C375.988 104.01 376.72 105.049 377.522 105.169C379.79 105.147 381.999 104.445 383.865 103.156C385.964 101.962 387.841 100.416 389.414 98.5838C389.891 98.0345 389.228 97.0686 388.551 97.4864Z" fill="#F07D29"/>
<path d="M372.697 102.426C369.122 100.962 366.721 97.7901 363.428 96.0219C363.27 95.9362 363.091 95.8983 362.912 95.9127C362.733 95.9271 362.562 95.9932 362.419 96.103C362.277 96.2128 362.17 96.3615 362.111 96.5312C362.051 96.7008 362.043 96.884 362.085 97.0585C363.428 101.387 368.366 103.097 372.331 103.829C372.514 103.868 372.705 103.835 372.864 103.737C373.023 103.639 373.138 103.483 373.185 103.303C373.232 103.122 373.208 102.93 373.117 102.767C373.026 102.603 372.876 102.482 372.697 102.426Z" fill="#F07D29"/>
<path d="M362.083 91.2056C361.978 89.1824 362.512 87.1774 363.609 85.4743C364.667 84.0297 365.895 82.7189 367.269 81.5708C367.393 81.4325 367.475 81.2622 367.507 81.0792C367.539 80.8962 367.518 80.708 367.448 80.5361C367.378 80.3642 367.26 80.2155 367.11 80.107C366.959 79.9986 366.781 79.9348 366.595 79.9229C361.354 80.4176 359.948 87.2426 360.864 91.3891C360.988 91.998 362.145 91.8765 362.084 91.2056H362.083Z" fill="#F07D29"/>
<path d="M373.854 80.2887C379.344 79.6303 384.709 80.5367 390.137 80.3507C390.879 80.3507 391.357 79.1926 390.562 78.8268C385.256 76.4472 379.098 77.2408 373.609 78.5205C372.634 78.704 372.818 80.4152 373.854 80.2887Z" fill="#F07D29"/>
<path d="M396.114 81.266C400.982 81.6864 405.626 83.2773 410.444 83.7051C411.419 83.7646 411.541 82.4849 410.87 82.0571C406.664 79.1307 400.992 79.0687 396.114 79.5585C395.897 79.5728 395.694 79.669 395.545 79.8275C395.397 79.9861 395.314 80.1951 395.314 80.4123C395.314 80.6294 395.397 80.8385 395.545 80.997C395.694 81.1555 395.897 81.2517 396.114 81.266Z" fill="#F07D29"/>
<path d="M419.774 85.8402C422.315 87.196 424.992 88.2788 427.762 89.0704C430.423 90.1748 433.208 90.9529 436.056 91.388C436.269 91.3823 436.474 91.3081 436.642 91.1764C436.809 91.0447 436.929 90.8626 436.985 90.6571C437.04 90.4515 437.028 90.2336 436.95 90.0355C436.872 89.8375 436.732 89.6699 436.551 89.5578C433.973 88.2484 431.25 87.2455 428.439 86.5694C425.747 85.6153 422.971 84.9211 420.147 84.4961C419.407 84.4366 419.217 85.4868 419.774 85.8402Z" fill="#F07D29"/>
<path d="M443.981 94.6814C447.11 96.3421 450.002 98.4139 452.581 100.842C454.775 102.853 456.606 105.789 459.289 107.244C459.402 107.311 459.533 107.343 459.664 107.335C459.796 107.328 459.922 107.281 460.027 107.201C460.131 107.121 460.21 107.012 460.252 106.887C460.294 106.763 460.298 106.628 460.264 106.501C459.593 103.329 456.422 100.77 453.983 98.818C451.151 96.6187 448.058 94.7758 444.776 93.331C443.861 92.9132 443.066 94.199 443.982 94.6814H443.981Z" fill="#F07D29"/>
<path d="M463.739 113.279C468.219 118.968 469.855 124.317 472.034 127.063C472.168 127.198 472.339 127.29 472.525 127.328C472.712 127.366 472.905 127.348 473.081 127.276C473.257 127.204 473.408 127.081 473.515 126.923C473.621 126.765 473.678 126.58 473.679 126.389C473.184 120.962 468.863 115.962 465.325 112.059C464.534 111.268 463.015 112.36 463.739 113.279Z" fill="#F07D29"/>
<path d="M473.436 132.001C474.198 137.69 473.802 143.83 475.082 149.382C475.33 150.478 477.217 150.602 477.399 149.382C478.315 143.588 476.41 137.124 475.082 131.57C474.846 130.477 473.299 130.966 473.436 132.001Z" fill="#F07D29"/>
<path d="M474.898 158.102C473.661 166.436 470.612 169.296 469.167 172.858C468.672 174.019 470.325 174.627 471.057 173.957C475.203 170.481 476.668 163.53 477.034 158.406C477.155 157.186 475.094 156.882 474.898 158.102Z" fill="#F07D29"/>
<path d="M450.203 173.47C453.797 174.628 457.191 176.336 460.264 178.531C460.016 178.74 423.791 192.345 423.553 192.434C423.553 192.434 424.773 191.581 425.383 191.032C432.762 184.689 449.288 173.221 450.203 173.47Z" fill="#F07D29"/>
<path d="M466.666 178.835C472.237 180.4 477.697 182.336 483.01 184.629C482.802 184.938 482.532 185.201 482.217 185.4C481.902 185.6 481.549 185.731 481.18 185.787C470.325 188.713 426.541 193.532 426.482 192.922C426.453 192.686 466.436 178.797 466.667 178.835H466.666Z" fill="#F07D29"/>
<path d="M474.656 189.69C471.218 196.567 471.324 196.617 470.945 196.886C470.675 196.999 470.375 197.019 470.092 196.945C454.878 194.261 447.671 193.452 448.817 192.769C450.066 192.023 474.416 189.926 474.656 189.69Z" fill="#F07D29"/>
<path d="M59.863 232.558C59.9024 232.853 60.056 233.119 60.2908 233.301C60.5052 233.456 60.7715 233.522 61.0336 233.485C62.0573 233.33 63.0353 232.955 63.9004 232.386C69.0588 229.566 73.1496 229.136 98.4146 219.948C97.5679 219.676 96.6807 219.552 95.792 219.582C55.2366 218.411 57.3545 218.493 57.0073 218.667C55.9111 219.161 56.7035 220.435 57.0073 221.168C57.6806 222.983 57.6236 225.364 59.8618 232.56L59.863 232.558Z" fill="#F07D29"/>
<path d="M95.2924 223.168C81.1453 232.009 66.9969 240.912 52.8497 249.756C52.5707 241.372 51.9792 240.669 52.4244 239.205C53.0332 237.072 58.0354 236.462 59.8631 235.791C89.8699 225.423 92.4379 223.039 95.2924 223.168Z" fill="#F07D29"/>
<path d="M65.8398 250.365C65.9613 250.427 66.1436 250.489 66.2651 250.548C66.4477 250.555 66.6256 250.489 66.7598 250.365C71.881 247.013 75.539 242.135 79.9919 238.048C81.6131 236.408 83.1403 234.677 84.5662 232.865C84.7498 232.617 84.9916 232.315 84.9296 232.009C80.9715 234.085 77.3073 236.583 73.5278 238.779C69.5489 240.794 65.6995 243.054 62.002 245.547C62.5513 246.522 63.4044 247.375 64.0132 248.352C64.5197 249.109 65.1347 249.786 65.8385 250.364L65.8398 250.365Z" fill="#F07D29"/>
<path d="M409.405 190.361C408.231 190.563 407.128 191.061 406.2 191.808C405.272 192.555 404.55 193.526 404.101 194.63C399.987 202.606 396.981 209.473 394.038 216.825C393.674 217.862 392.269 220.058 392.454 221.156C392.879 223.533 397.332 222.377 398.735 221.948C400.686 221.531 402.572 220.854 404.343 219.936C406.464 217.816 410.528 207.928 412.638 203.408C414.927 199.499 417.003 195.468 418.856 191.333C419.396 190.57 419.659 189.644 419.599 188.711C419.601 188.64 419.585 188.569 419.553 188.506C419.521 188.442 419.474 188.388 419.415 188.347C419.159 188.221 419.559 188.233 409.404 190.359L409.405 190.361Z" fill="#F07D29"/>
<path d="M123.648 218.655C121.314 218.297 120.294 217.265 120.294 214.509C120.232 209.996 119.551 205.482 119.074 201.031C117.953 190.015 117.558 189.105 118.159 188.103C118.468 187.756 118.858 187.491 119.295 187.332C119.731 187.172 120.2 187.123 120.66 187.188C123.832 187.128 127.003 187.371 130.172 187.616C132.25 187.804 133.183 188.202 133.65 191.153C134.973 198.595 135.941 211.265 136.211 216.634C136.357 218.69 135.776 219.377 134.138 219.561C130.621 219.579 127.11 219.276 123.648 218.655Z" fill="#F07D29"/>
<path d="M177.618 129.379C179.083 120.77 178.004 111.073 197.619 109.378C199.218 109.242 301.308 108.14 320.74 108.401C327.083 108.463 332.998 109.438 337.694 114.135C341.597 118.036 341.84 122.792 341.719 128.038C341.657 129.806 344.341 129.745 344.403 128.038C344.707 123.463 345.146 118.884 342.635 114.806C340.041 110.564 335.984 107.419 331.231 105.962C325.07 104.134 318.24 104.683 311.9 104.683C304.217 104.743 225.733 105.178 217.866 105.233C205.388 105.337 186.929 104.01 179.275 113.708C175.861 118.099 175.983 123.831 175.983 129.075C175.913 130.05 177.452 130.359 177.621 129.379H177.618Z" fill="#180B02"/>
<path d="M192.191 178.59C193.195 165.189 193.106 151.759 193.29 138.343C193.352 133.341 192.74 125.415 198.839 123.647C201.69 123.099 204.599 122.915 207.496 123.097C211.093 123.035 312.687 120.537 320.187 120.596C323.48 120.658 327.932 121.146 329.341 124.745C329.888 127.35 329.951 130.034 329.525 132.661C329.546 133.027 329.706 133.37 329.973 133.621C330.239 133.872 330.591 134.012 330.957 134.012C331.323 134.012 331.675 133.872 331.941 133.621C332.207 133.37 332.368 133.027 332.389 132.661C332.513 128.087 333.791 123.454 329.828 120.044C325.072 116.019 317.815 117.24 312.144 117.36C296.9 117.726 235.918 119.188 220.734 119.615C213.772 119.389 206.803 119.655 199.878 120.409C187.815 122.418 190.724 138.079 190.724 152.18C190.724 160.959 190.846 169.803 191.219 178.584C191.154 179.262 192.141 179.262 192.191 178.589V178.59Z" fill="#180B02"/>
<path d="M351.049 173.836C351.524 175.248 352.471 176.454 353.731 177.249C356.453 178.55 358.848 176.754 357.756 176.091C356.024 174.79 354.684 176.556 351.72 173.346C351.354 172.982 350.867 173.47 351.049 173.836Z" fill="#180B02"/>
<path d="M355.986 170.357C355.409 171.958 358.121 171.884 358.853 171.273C360.161 170.181 359.375 168.551 359.706 165.907C359.71 165.809 359.691 165.712 359.65 165.623C359.609 165.534 359.547 165.456 359.469 165.396C359.392 165.336 359.301 165.296 359.204 165.278C359.108 165.261 359.009 165.267 358.915 165.296C357.754 165.662 357.51 166.944 357.572 168.041C357.737 168.684 357.715 169.361 357.51 169.993C357.206 170.488 356.963 170.241 356.535 170.052C356.423 170.032 356.307 170.051 356.206 170.106C356.106 170.161 356.028 170.251 355.986 170.357Z" fill="#180B02"/>
<path d="M360.865 162.431C360.865 163.346 360.562 164.87 361.36 165.541C361.5 165.674 361.686 165.748 361.878 165.748C362.071 165.748 362.257 165.674 362.397 165.541C363.188 164.75 362.645 163.224 362.518 162.249C362.392 161.212 360.927 161.516 360.865 162.433V162.431Z" fill="#180B02"/>
<path d="M352.643 162.066C352.529 162.911 352.45 164.644 353.071 165.175C353.21 165.311 353.396 165.386 353.589 165.386C353.783 165.386 353.969 165.311 354.108 165.175C354.746 164.629 354.632 162.948 354.535 162.066C354.514 161.829 354.406 161.609 354.231 161.449C354.055 161.289 353.827 161.2 353.589 161.2C353.352 161.2 353.123 161.289 352.948 161.449C352.773 161.609 352.664 161.829 352.643 162.066Z" fill="#180B02"/>
<path d="M351.05 161.029C352.076 159.559 353.793 159.646 354.647 159.077C354.73 159.033 354.799 158.967 354.847 158.886C354.895 158.805 354.92 158.713 354.92 158.619C354.92 158.526 354.895 158.434 354.847 158.353C354.799 158.272 354.73 158.206 354.647 158.162C352.939 157.125 350.743 159.015 349.946 160.417C349.585 161.15 350.622 161.638 351.05 161.029Z" fill="#180B02"/>
<path d="M363.611 208.533C376.274 219.475 374.132 224.539 374.953 228.291C375.201 229.57 376.843 229.266 377.209 228.291C378.733 224.45 376.172 219.51 373.914 216.462C371.093 213.14 367.807 210.244 364.158 207.862C363.732 207.556 363.25 208.221 363.611 208.533Z" fill="#180B02"/>
<path d="M357.606 200.048C356.532 195.334 356.212 190.479 356.656 185.665C362.653 182.741 365.24 176.166 365.826 169C367.941 173.813 371.484 177.611 374.036 182.435C379.154 191.989 374.212 199.556 366.535 198.349C365.862 198.242 365.749 199.254 366.231 199.569C371.44 202.968 379.674 197.988 378.914 188.714C378.189 179.52 370.285 173.889 365.948 166.425C365.996 162.455 365.574 158.494 364.692 154.623C366.048 153.908 368.156 152.34 368.304 151.456C368.732 148.344 368.252 145.175 366.921 142.33C365.59 139.485 363.466 137.084 360.804 135.418C349.703 127.952 333.384 134.038 325.428 145.112C317.38 156.33 323.29 166.775 318.78 173.47C316.647 176.639 312.927 178.286 309.939 180.481C307.39 182.295 305.404 184.79 304.207 187.681C303.01 190.571 302.651 193.74 303.171 196.825C305.12 209.815 321.71 218.719 333.782 215.302C336.695 214.612 339.337 213.072 341.374 210.878C343.41 208.683 344.749 205.933 345.221 202.977C346.215 203.996 347.423 204.783 348.757 205.28C350.091 205.778 351.519 205.973 352.938 205.854C355.113 205.513 357.658 203.991 357.619 201.648C366.117 204.069 374.075 206.362 380.809 213.301C382.516 215.129 383.614 217.813 385.627 219.278C385.82 219.383 386.037 219.437 386.257 219.433C386.476 219.43 386.691 219.371 386.881 219.26C387.071 219.15 387.23 218.992 387.341 218.803C387.452 218.614 387.513 218.399 387.517 218.179C387.381 212.623 372.968 200.203 357.606 200.048ZM339.095 208.419C330.07 217.993 312.813 210.247 307.749 200.065C306.329 197.154 306.009 193.827 306.849 190.699C307.689 187.571 309.631 184.851 312.318 183.043C316.525 180.054 321.16 177.677 322.99 172.491C324.758 167.43 323.356 162.186 323.905 157.003C324.806 151.061 327.921 145.679 332.625 141.939C346.386 130.344 364.515 134.639 365.346 150.402C363.755 151.747 361.901 152.746 359.902 153.335C357.904 153.925 355.805 154.092 353.738 153.826C350.051 153.417 346.501 152.19 343.348 150.233C342.923 149.868 342.495 150.481 342.801 150.842C344.088 152.208 345.605 153.338 347.282 154.182C345.462 155.306 344.043 156.976 343.227 158.953C336.698 155.932 332.523 168.301 337.556 172.003C338.396 172.633 339.436 172.936 340.483 172.856C336.218 185.685 346.798 200.234 339.093 208.417L339.095 208.419ZM351.536 203.718C349.314 203.487 347.196 202.662 345.403 201.329C346.007 191.948 340.033 182.006 342.509 171.703C342.613 171.596 342.683 171.461 342.711 171.315C342.738 171.168 342.722 171.017 342.663 170.88C342.605 170.743 342.507 170.626 342.382 170.544C342.257 170.463 342.111 170.42 341.962 170.422C340.739 170.3 339.706 170.726 338.667 169.679C335.945 167.109 339.276 158.252 342.999 161.387C343.122 161.507 343.271 161.597 343.435 161.651C343.598 161.704 343.772 161.72 343.942 161.696C344.113 161.672 344.275 161.609 344.418 161.513C344.56 161.416 344.679 161.288 344.764 161.139C345.783 158.684 347.556 156.616 349.826 155.234C354.335 156.753 359.226 156.694 363.697 155.066C363.63 156.266 363.602 157.463 363.59 158.655C363.286 158.147 362.883 157.706 362.404 157.357C361.926 157.008 361.382 156.76 360.805 156.627C360.011 156.443 359.472 157.527 360.194 157.908C361.785 158.746 362.126 159.951 363.12 160.043C363.21 160.044 363.299 160.024 363.379 159.984C363.46 159.943 363.529 159.885 363.583 159.812C363.88 164.912 363.395 170.028 362.145 174.981C360.256 181.142 354.462 186.627 348.059 182.237C346.836 181.383 345.632 183.199 346.535 184.188C347.546 185.332 348.873 186.151 350.349 186.542C351.824 186.933 353.382 186.878 354.827 186.386C353.999 188.744 353.667 191.249 353.854 193.742C354.04 196.236 354.741 198.663 355.911 200.873C354.647 202.349 353.77 203.717 351.535 203.717L351.536 203.718Z" fill="#180B02"/>
<path d="M190.546 302.506C190.192 312.567 190.484 314.133 192.74 379.584C192.862 382.938 192.988 387.025 196.52 388.671C198.318 389.304 200.238 389.513 202.131 389.282C204.998 389.22 314.093 385.076 324.831 384.581C328.062 384.457 330.684 383.666 331.112 380.069C331.855 374.33 330.793 370.967 329.585 342.259C329.16 331.404 329.402 320.306 328.365 309.513C328.365 309.279 328.272 309.054 328.107 308.888C327.941 308.723 327.717 308.63 327.482 308.63C327.248 308.63 327.024 308.723 326.858 308.888C326.693 309.054 326.6 309.279 326.6 309.513C324.782 329.009 328.882 345.434 328.062 369.213C327.814 375.627 328.715 378.272 327.999 379.702C326.779 382.2 322.574 381.53 320.195 381.653C317.696 381.713 202.937 385.676 200.49 385.738C197.074 385.8 196.341 383.786 196.099 380.79C196.062 380.296 192.857 313.802 191.587 302.43C191.582 301.833 190.608 301.835 190.546 302.506Z" fill="#180B02"/>
<path d="M172.983 346.047C172.078 362.257 172.008 378.547 172.13 394.78C172.192 401.306 172.923 408.44 177.557 413.502C182.681 419.113 190.973 419.54 198.048 419.844C260.969 422.867 323.74 417.37 331.596 415.391C336.608 414.105 339.592 413.691 341.63 409.496C343.857 404.9 343.286 398.191 342.085 393.805C341.837 392.816 340.378 393.256 340.561 394.233C340.926 397.404 340.802 400.612 340.196 403.745C339.889 405.94 339.453 409.356 337.391 410.454C334.041 412.006 330.41 412.856 326.719 412.952C286.772 417.021 246.584 418.224 206.465 416.552C199.146 416.248 190.059 416.977 183.353 413.319C176.647 409.661 175.486 401.793 175.241 394.842C174.692 378.622 175.057 362.339 174.328 346.109C174.338 346.018 174.329 345.925 174.301 345.838C174.274 345.75 174.229 345.669 174.169 345.6C174.109 345.53 174.036 345.473 173.954 345.433C173.871 345.393 173.781 345.37 173.69 345.366C173.598 345.362 173.506 345.376 173.421 345.409C173.335 345.441 173.257 345.491 173.191 345.554C173.125 345.618 173.072 345.695 173.037 345.779C173.002 345.864 172.984 345.955 172.985 346.047H172.983Z" fill="#180B02"/>
<path d="M244.453 404.161C252.508 404.384 251.798 403.864 283.787 403.171V405.244C283.26 405.771 284.247 405.016 259.517 406.709C254.321 407.013 244.453 409.086 241.223 403.72C241.112 403.555 240.942 403.438 240.747 403.394C240.553 403.349 240.348 403.381 240.177 403.483C240.005 403.584 239.879 403.748 239.823 403.939C239.768 404.131 239.789 404.337 239.88 404.514C242.792 409.805 251.408 408.225 258.907 408.225C281.245 408.225 283.378 409.148 286.349 407.067C286.826 406.76 287.231 406.353 287.536 405.874C287.84 405.395 288.037 404.856 288.112 404.293C288.188 403.731 288.14 403.158 287.973 402.616C287.805 402.074 287.522 401.574 287.143 401.152C285.577 399.693 281.101 400.294 275.435 400.41C265.127 400.658 254.761 400.288 244.456 401.018C244.039 401.018 243.639 401.184 243.345 401.479C243.05 401.773 242.885 402.173 242.885 402.59C242.885 403.006 243.05 403.406 243.345 403.7C243.639 403.995 244.039 404.161 244.456 404.161H244.453Z" fill="#180B02"/>
<path d="M323.544 397.94C323.242 397.647 322.852 397.462 322.435 397.413C322.017 397.364 321.595 397.454 321.234 397.67C320.873 397.885 320.593 398.213 320.437 398.603C320.281 398.994 320.258 399.425 320.372 399.829C320.353 400.147 320.447 400.462 320.636 400.718C320.826 400.975 321.099 401.156 321.409 401.232C321.347 401.232 321.287 401.172 321.225 401.172C321.654 401.396 322.149 401.457 322.62 401.345C323.091 401.233 323.505 400.955 323.787 400.562C324.069 400.168 324.199 399.687 324.154 399.205C324.109 398.723 323.892 398.274 323.543 397.94H323.544Z" fill="#180B02"/>
<path d="M207.009 402.88C206.739 402.521 206.37 402.25 205.948 402.098C205.525 401.947 205.068 401.922 204.632 402.027C204.243 402.145 203.889 402.357 203.602 402.644C203.314 402.932 203.102 403.286 202.984 403.675C202.899 403.996 202.884 404.332 202.938 404.66C202.993 404.988 203.117 405.3 203.301 405.577C203.486 405.854 203.727 406.088 204.008 406.264C204.29 406.441 204.606 406.556 204.936 406.601C205.393 406.668 205.859 406.594 206.274 406.39C206.688 406.185 207.03 405.86 207.255 405.456C207.48 405.053 207.577 404.59 207.533 404.13C207.489 403.67 207.306 403.233 207.009 402.88Z" fill="#180B02"/>
<path d="M128.404 201.398C131.069 202.817 133.415 204.768 135.296 207.13C135.681 207.798 136.176 208.395 136.76 208.898C136.89 208.972 137.038 209.01 137.187 209.01C137.337 209.009 137.484 208.969 137.613 208.894C137.742 208.819 137.85 208.711 137.925 208.581C137.999 208.452 138.039 208.305 138.039 208.155C138.039 206.265 135.844 204.376 134.504 203.207C132.855 201.846 130.974 200.793 128.952 200.098C128.222 199.811 127.669 201.04 128.403 201.396L128.404 201.398Z" fill="#180B02"/>
<path d="M129.01 206.336C130.723 207.449 132.246 208.829 133.523 210.423C134.621 211.704 135.658 213.715 137.182 214.57C137.32 214.646 137.477 214.68 137.634 214.667C137.791 214.655 137.941 214.596 138.065 214.499C138.189 214.401 138.282 214.269 138.331 214.12C138.38 213.97 138.384 213.809 138.343 213.657C138.095 211.765 135.904 209.875 134.561 208.655C133.102 207.207 131.297 206.158 129.317 205.607C129.226 205.591 129.133 205.607 129.052 205.651C128.971 205.695 128.908 205.766 128.873 205.851C128.838 205.936 128.832 206.03 128.858 206.118C128.883 206.207 128.938 206.284 129.013 206.337L129.01 206.336Z" fill="#180B02"/>
<path d="M161.581 172.92C162.248 172.421 162.762 171.745 163.063 170.969C163.365 170.193 163.443 169.348 163.289 168.53C163.246 168.421 163.178 168.324 163.091 168.246C163.003 168.168 162.899 168.112 162.786 168.083C162.673 168.053 162.554 168.051 162.44 168.076C162.326 168.1 162.219 168.152 162.128 168.226C161.373 169.355 160.701 170.537 160.117 171.763C160.017 171.959 159.989 172.184 160.036 172.399C160.083 172.614 160.203 172.805 160.375 172.942C160.548 173.078 160.762 173.151 160.982 173.147C161.202 173.143 161.414 173.064 161.581 172.922V172.92Z" fill="#180B02"/>
<path d="M160.237 157.066C159.439 157.479 159.495 158.652 159.446 159.443C159.384 160.358 159.263 161.395 160.189 161.944C160.312 162.004 160.448 162.035 160.585 162.035C160.722 162.035 160.857 162.004 160.98 161.944C162.017 161.273 161.723 159.93 161.651 158.894C161.641 158.223 161.329 156.499 160.237 157.066Z" fill="#180B02"/>
<path d="M151.334 157.978C151.181 158.679 151.119 159.397 151.15 160.114C151.361 162.212 153.268 162.043 153.468 160.238C153.468 159.501 153.407 158.766 153.285 158.04C153.039 156.759 151.458 156.759 151.334 157.978Z" fill="#180B02"/>
<path d="M154.567 153.466C154.495 152.942 153.219 152.183 150.785 153.714C150.605 153.827 150.466 153.994 150.389 154.192C150.311 154.389 150.299 154.607 150.355 154.811C150.41 155.016 150.53 155.198 150.696 155.329C150.863 155.461 151.067 155.535 151.279 155.542C152.146 155.471 152.992 155.243 153.778 154.871C154.057 154.772 154.291 154.575 154.437 154.317C154.582 154.058 154.628 153.756 154.567 153.466Z" fill="#180B02"/>
<path d="M165.423 155.48C164.829 153.877 161.828 152.21 161.032 153.224C160.361 154.077 161.28 154.993 161.885 155.539C162.547 156.252 163.426 156.724 164.386 156.882C164.557 156.886 164.726 156.849 164.88 156.774C165.033 156.699 165.166 156.588 165.268 156.45C165.37 156.313 165.437 156.153 165.464 155.984C165.491 155.815 165.476 155.642 165.423 155.48Z" fill="#180B02"/>
<path d="M155.055 161.211C155.182 162.124 154.384 162.919 154.019 163.712C153.838 164.071 153.744 164.468 153.744 164.87C153.744 165.272 153.838 165.668 154.019 166.027C154.262 166.42 154.591 166.752 154.982 166.997C155.374 167.243 155.816 167.395 156.275 167.443C156.735 167.491 157.199 167.433 157.632 167.273C158.066 167.113 158.457 166.856 158.775 166.522C158.862 166.431 158.925 166.32 158.957 166.198C158.989 166.077 158.99 165.949 158.959 165.827C158.929 165.705 158.868 165.593 158.782 165.501C158.696 165.409 158.589 165.341 158.469 165.302C157.494 165.054 155.239 165.851 155.605 164.082C156.005 163.14 156.111 162.099 155.908 161.096C155.727 160.723 154.986 160.782 155.055 161.21V161.211Z" fill="#180B02"/>
<path d="M155.976 184.75C148.273 187.241 138.875 191.946 136.339 197.862C135.973 198.715 136.767 199.873 137.741 199.264C142.145 196.358 145.932 189.79 156.341 185.906C157.007 185.605 156.702 184.513 155.976 184.75Z" fill="#180B02"/>
<path d="M195.555 253.232C195.307 252.073 193.787 252.489 193.666 253.48C193.3 257.962 193.177 262.461 193.3 266.957C193.238 270.861 192.751 274.764 192.751 278.665C182.202 282.061 171.137 283.568 160.064 283.118C149.968 282.495 140.202 279.282 131.709 273.787C134.594 257.912 136.383 241.857 137.065 225.736C137.065 225.063 135.966 224.88 135.844 225.552C135.601 226.968 135.36 228.385 135.122 229.804C131.312 231.405 127.307 234.242 123.466 235.741C119.684 237.265 114.379 239.205 110.231 238.243C101.39 236.169 114.624 216.72 117.306 212.762C117.554 212.578 117.123 212.212 116.881 212.455C112.766 217.124 109.281 222.311 106.514 227.885C104.562 231.788 102.854 237.285 107.122 240.388C111.147 243.314 117.306 241.546 121.577 240.14C126.34 238.879 130.765 236.579 134.533 233.404C132.335 246.963 130.473 260.551 128.222 274.098C128.145 274.457 128.18 274.83 128.322 275.168C128.464 275.506 128.706 275.792 129.016 275.988C130.238 276.797 131.457 277.596 132.715 278.323C101.599 329.778 110.71 359.75 109.565 398.303C109.392 403.992 108.302 411.023 108.633 416.815C108.397 416.976 93.4191 428.442 92.9169 428.917C91.7563 430.016 88.4641 432.942 89.3172 434.711C90.1703 436.418 93.4663 436.418 94.9902 436.479C101.236 436.909 111.725 432.844 117.43 430.258C120.909 428.652 125.421 427.148 125.421 422.941C125.463 422.722 125.54 420.576 125.51 419.256C130.873 404.107 136.85 379.559 136.947 365.434C136.935 365.192 136.839 364.961 136.674 364.783C136.508 364.605 136.286 364.491 136.045 364.461C135.803 364.431 135.56 364.488 135.356 364.62C135.153 364.753 135.003 364.954 134.933 365.186C132.061 377.09 133.862 374.34 124.709 417.834C123.431 417.643 117.577 423.556 111.207 417.225C114.809 406.12 111.249 367.093 112.857 345.732C114.965 318.505 125.587 299.113 133.993 279.019C139.493 281.976 145.418 284.062 151.558 285.204C131.767 322.82 134.867 360.161 143.395 402.815C144.413 409.137 145.86 415.383 147.724 421.51C140.777 423.884 134.159 429.426 129.005 434.465C128.09 435.38 127.115 436.538 127.543 437.757C127.968 439.038 129.675 439.343 131.018 439.405C136.431 439.612 141.847 439.078 147.115 437.819C152.179 436.504 160.874 433.975 163.155 429.038C163.63 427.367 163.869 425.638 163.866 423.902C164.343 413.477 163.604 413.791 163.095 405.499C159.965 356.045 169.875 346.679 183.89 311.648C187.714 302.763 190.042 293.306 190.779 283.66C190.9 283.232 190.108 283.165 189.988 283.598C183.999 310.919 167.619 334.287 162.18 358.849C158.704 374.241 158.963 388.85 159.982 404.401C160.029 405.092 160.589 418.883 161.598 421.079C158.629 424.486 153.87 425.626 150.286 422.126C149.806 416.684 148.01 409.526 146.996 404.28C138.107 360.306 134.933 326.354 152.854 285.438C166.68 287.554 180.816 286.164 193.966 281.396C194.332 281.396 195.064 280.846 195.247 279.506C195.957 275.338 196.304 271.117 196.283 266.889C196.579 262.324 196.336 257.74 195.56 253.232H195.555Z" fill="#180B02"/>
<path d="M319.092 323.726C319.39 320.987 319.162 318.216 318.421 315.563C316.593 310.929 311.166 310.615 306.895 310.439C283.664 309.402 260.368 310.135 237.134 309.83C228.228 309.679 213.504 309.83 208.107 317.147C206.573 319.522 205.807 322.311 205.912 325.135C205.169 336.052 200.91 357.7 216.826 359.836C220.093 360.099 223.375 360.119 226.645 359.895C235.466 359.761 262.722 359.647 276.792 359.219C279.606 359.132 283.738 358.687 285.858 358.553C287.923 362.234 290.628 365.517 293.846 368.248C294.075 368.379 294.328 368.465 294.59 368.499C294.851 368.533 295.117 368.515 295.372 368.446C295.627 368.377 295.866 368.258 296.074 368.097C296.283 367.935 296.458 367.734 296.589 367.505C299.64 363.299 302.566 359.03 305.555 354.888C309.701 356.046 314.708 356.474 317.568 352.57C319.945 349.239 319.092 345.733 319.092 323.723V323.726ZM315.922 349.888C314.53 354.037 309.824 353.789 306.166 353.302C306.059 352.952 305.858 352.639 305.585 352.397C305.311 352.155 304.976 351.993 304.616 351.93C304.256 351.866 303.885 351.904 303.545 352.038C303.206 352.173 302.91 352.398 302.69 352.691C300.006 356.35 297.248 360.01 294.578 363.67C292.553 361.252 290.659 358.728 288.905 356.107C287.314 354.093 286.926 355.152 276.16 355.558C257.775 356.455 239.053 356.04 220.119 356.411C218.571 356.597 217.002 356.425 215.532 355.906C214.062 355.388 212.731 354.538 211.643 353.422C206.75 347.689 208.071 336.212 208.838 326.225C208.645 323.641 209.263 321.062 210.607 318.846C216.143 311.526 233.885 312.81 246.341 313.053C261.879 313.329 269.414 311.979 298.539 312.993C302.014 313.115 305.552 313.115 309.028 313.419C312.628 313.725 315.858 314.639 316.224 318.787C316.835 325.555 316.345 332.69 316.345 339.457C316.288 342.629 316.966 346.777 315.922 349.887V349.888Z" fill="#180B02"/>
<path d="M216.403 327.446C223.37 328.191 230.387 328.356 237.381 327.94C244.882 327.878 296.958 327.27 304.458 326.966C305.04 326.942 305.591 326.694 305.995 326.273C306.398 325.853 306.624 325.293 306.624 324.71C306.624 324.127 306.398 323.566 305.995 323.146C305.591 322.725 305.04 322.477 304.458 322.453C297.14 322.453 289.823 323 282.505 323.196C221.421 324.68 222.01 324.633 216.403 325.757C216.224 325.814 216.068 325.927 215.957 326.079C215.847 326.231 215.787 326.414 215.787 326.602C215.787 326.79 215.847 326.973 215.957 327.125C216.068 327.276 216.224 327.389 216.403 327.447V327.446Z" fill="#180B02"/>
<path d="M218.17 336.836C244.867 338.308 270.614 337.217 296.651 336.774C300.248 336.653 304.639 337.323 308.055 336.165C308.47 336.044 308.835 335.791 309.094 335.445C309.354 335.098 309.494 334.677 309.494 334.245C309.494 333.812 309.354 333.391 309.094 333.045C308.835 332.698 308.47 332.445 308.055 332.324C304.476 331.805 300.841 331.805 297.262 332.324C264.809 333.42 239.108 333.177 218.17 334.701C217.896 334.714 217.637 334.832 217.447 335.031C217.258 335.23 217.152 335.494 217.152 335.769C217.152 336.043 217.258 336.307 217.447 336.506C217.637 336.705 217.896 336.823 218.17 336.836Z" fill="#180B02"/>
<path d="M274.028 345.923C278.447 346.952 281.202 346.692 299.261 345.923C302.06 346.028 304.858 345.699 307.556 344.948C307.841 344.858 308.09 344.679 308.267 344.438C308.444 344.197 308.54 343.905 308.54 343.606C308.54 343.306 308.444 343.015 308.267 342.774C308.09 342.532 307.841 342.353 307.556 342.263C305.036 341.686 302.433 341.562 299.87 341.898C296.822 342.022 293.772 342.146 290.716 342.325C285.289 342.573 279.191 342.325 274.009 343.971C273.798 344.035 273.614 344.165 273.484 344.342C273.354 344.52 273.285 344.734 273.287 344.954C273.289 345.174 273.363 345.387 273.497 345.562C273.63 345.737 273.817 345.863 274.028 345.923Z" fill="#180B02"/>
<path d="M289.029 260.978C287.57 247.669 276.907 250.498 267.928 250.914C262.745 251.162 233.109 252.378 223.536 252.806C217.315 253.11 207.925 251.829 204.815 258.721C202.192 264.574 203.047 272.012 203.595 278.235C203.639 279.594 204.07 280.912 204.836 282.035C205.603 283.158 206.674 284.039 207.924 284.575C211.882 286.161 215.84 283.832 219.877 284.515C221.156 284.699 222.133 282.929 220.79 282.26C215.036 279.445 207.819 284.687 207.253 276.894C206.887 271.892 205.729 266.099 207.131 261.221C208.106 257.686 210.79 256.646 214.204 256.343C221.27 255.739 276.467 254.274 276.71 254.269C278.886 253.949 281.103 254.449 282.931 255.672C284.821 257.32 284.821 260.184 285.064 262.502C285.616 267.449 287.968 277.74 284.027 280.733C281.588 282.626 276.892 282.014 273.966 282.198C236.787 284.209 237.143 283.324 235.548 285.003C233.706 286.92 234.049 287.561 229.084 294.517C227.194 291.405 225.373 288.296 223.473 285.248C222.374 283.48 219.632 285.124 220.73 286.832C223.107 290.431 225.487 293.969 227.865 297.565C228.291 298.176 229.389 298.542 229.938 297.813C231.348 296.038 232.792 294.29 234.267 292.569C235.428 291.226 236.89 288.666 238.473 287.868C239.637 287.633 240.826 287.549 242.011 287.62C243.169 287.558 263.286 286.705 267.987 286.522C272.758 286.523 277.524 286.218 282.255 285.607C293.848 283.904 289.886 268.78 289.029 260.978Z" fill="#180B02"/>
<path d="M300.069 172.982C294.837 171.287 288.42 173.23 283.054 173.346C271.426 173.649 256.257 173.316 242.805 173.957C240.793 174.079 237.563 173.591 235.915 174.872C235.192 175.414 229.513 183.392 229.147 183.897C228.598 183.154 224.818 177.678 223.536 175.605C222.5 173.837 219.633 175.543 220.793 177.188C222.014 178.957 226.159 186.457 227.317 188.289C227.502 188.583 227.758 188.825 228.062 188.993C228.366 189.161 228.708 189.249 229.055 189.249C229.402 189.249 229.744 189.161 230.047 188.993C230.351 188.825 230.608 188.583 230.793 188.289C233.356 184.997 235.854 181.703 238.415 178.349C248.723 177.606 259.088 177.372 269.456 176.885C275.187 176.637 280.982 176.094 286.713 176.335C290.982 176.519 296.41 177.078 300.432 175.177C301.347 174.749 300.984 173.292 300.069 172.982Z" fill="#180B02"/>
<path d="M221.585 172.126C219.499 171.689 217.374 171.464 215.242 171.455C212.927 171.455 209.389 172.492 207.865 170.176C207.007 167.941 206.613 165.555 206.705 163.163C206.36 160.33 206.319 157.468 206.583 154.626C206.831 152.003 207.436 148.77 209.997 147.491C212.443 146.639 215.039 146.302 217.622 146.501C234.197 145.967 291.42 146.106 307.932 144.549C311.957 144.184 315.923 144.301 319.948 144.184C322.021 144.124 321.959 140.832 319.948 141.014C315.957 141.439 311.945 141.622 307.932 141.561C290.887 140.96 228.489 142.684 223.595 142.904C219.431 142.869 215.271 143.175 211.156 143.819C201.333 146.046 203.594 158.956 203.594 165.285C203.231 167.94 203.814 170.639 205.242 172.907C206.199 173.898 207.379 174.647 208.683 175.092C209.987 175.537 211.379 175.666 212.742 175.468C215.689 175.357 218.623 175.031 221.522 174.493C221.777 174.422 222.004 174.271 222.167 174.063C222.331 173.854 222.423 173.598 222.43 173.332C222.437 173.067 222.358 172.807 222.206 172.589C222.054 172.372 221.835 172.21 221.584 172.126H221.585Z" fill="#180B02"/>
<path d="M217.439 268.599C216.261 265.556 217.988 261.648 221.705 262.806C223.197 263.319 224.481 264.303 225.365 265.611C224.999 264.819 227.195 263.416 227.744 263.109C231.986 260.636 235.678 266.078 231.524 271.1C229.877 273.204 227.948 275.071 225.792 276.649C225.124 277.092 225.016 276.85 224.756 276.587C222.133 274.222 218.759 272.023 217.439 268.599Z" fill="#F07D29"/>
<path d="M240.123 268.171C238.938 265.133 240.672 261.22 244.39 262.38C245.882 262.892 247.167 263.877 248.049 265.185C247.683 264.392 249.879 262.988 250.429 262.684C254.701 260.191 258.345 265.673 254.208 270.672C252.562 272.777 250.633 274.644 248.477 276.221C247.806 276.666 247.701 276.422 247.44 276.162C244.818 273.782 241.434 271.538 240.123 268.171Z" fill="#F07D29"/>
<path d="M262.809 267.684C261.623 264.646 263.358 260.732 267.075 261.89C268.567 262.403 269.852 263.388 270.735 264.695C270.371 263.904 272.565 262.501 273.114 262.197C277.386 259.706 281.03 265.185 276.894 270.185C275.248 272.289 273.319 274.156 271.163 275.734C270.497 276.179 270.386 275.935 270.126 275.674C267.444 273.295 264.119 271.05 262.809 267.684Z" fill="#F07D29"/>
<path d="M310.191 229.815C291.328 228.002 269.702 232.071 255.856 230.668C250.167 230.194 250.23 229.184 249.758 226.34C249.037 222.316 248.71 218.231 248.781 214.144C248.781 211.889 248.477 206.703 250.611 205.117C252.197 203.959 255.732 204.142 257.563 203.959C272.43 202.628 285.19 203.293 297.391 202.313C299.281 202.13 299.343 199.263 297.391 199.325C290.666 199.414 265.583 200.035 256.473 200.911C253.866 200.876 251.283 201.416 248.91 202.494C246.287 204.204 245.983 208.35 245.8 211.094C245.508 215.717 245.674 220.357 246.295 224.947C246.661 227.935 246.661 230.983 249.589 232.63C257.731 237.185 289.633 232.419 310.326 231.715C311.41 231.646 311.41 229.942 310.189 229.815H310.191Z" fill="#180B02"/>
<path d="M258.234 218.045C268.36 218.605 282.2 217.971 289.639 218.107C292.993 218.169 296.897 218.85 300.128 217.613C300.44 217.515 300.712 217.32 300.905 217.057C301.098 216.794 301.202 216.476 301.202 216.149C301.202 215.823 301.098 215.505 300.905 215.242C300.712 214.979 300.44 214.784 300.128 214.686C296.899 213.881 293.544 213.713 290.25 214.191C279.449 214.183 268.657 214.815 257.93 216.084C256.831 216.28 257.197 217.988 258.234 218.045Z" fill="#180B02"/>
<path d="M214.451 163.102C224.607 164.129 229.637 162.973 258.237 162.249C262.827 162.404 267.417 161.974 271.897 160.968C272.09 160.905 272.257 160.782 272.376 160.618C272.494 160.454 272.558 160.257 272.558 160.054C272.558 159.852 272.494 159.654 272.376 159.49C272.257 159.326 272.09 159.204 271.897 159.14C267.34 158.168 264.75 158.477 243.052 159.262C233.538 159.628 223.539 159.2 214.148 160.786C212.743 161.031 213.23 162.981 214.449 163.103L214.451 163.102Z" fill="#180B02"/>
<path d="M281.893 160.237C287.088 161.969 302.841 162.102 307.568 160.358C308.664 159.93 308.968 158.103 307.568 157.857C298.988 157.513 290.395 157.942 281.893 159.138C281.769 159.167 281.658 159.237 281.579 159.337C281.5 159.437 281.457 159.56 281.457 159.687C281.457 159.815 281.5 159.938 281.579 160.038C281.658 160.138 281.769 160.208 281.893 160.237Z" fill="#180B02"/>
<path d="M384.099 247.194C399.091 253.062 417.539 239.716 417.763 218.473C417.884 212.071 416.602 204.143 412.567 198.959C412.48 198.822 412.346 198.72 412.19 198.674C412.034 198.627 411.867 198.638 411.719 198.705C411.57 198.771 411.451 198.89 411.383 199.037C411.314 199.185 411.302 199.352 411.347 199.509C412.567 205.24 414.763 210.423 415.006 216.33C415.842 235.77 401.153 249.019 384.212 246.64C383.856 246.516 383.733 247.011 384.099 247.194Z" fill="#180B02"/>
<path d="M413.372 212.625C413.56 208.603 412.944 202.866 409.834 199.94C409.703 199.816 409.536 199.738 409.357 199.716C409.178 199.694 408.997 199.731 408.84 199.819C408.683 199.908 408.559 200.045 408.485 200.209C408.412 200.374 408.393 200.558 408.432 200.734C409.208 203.739 411.529 205.775 411.907 212.563C411.885 212.669 411.887 212.778 411.911 212.883C411.935 212.988 411.982 213.086 412.048 213.171C412.115 213.256 412.198 213.326 412.294 213.375C412.39 213.424 412.495 213.452 412.603 213.457C412.711 213.461 412.818 213.443 412.918 213.401C413.017 213.36 413.107 213.298 413.18 213.219C413.253 213.14 413.308 213.046 413.341 212.943C413.374 212.841 413.385 212.732 413.372 212.625Z" fill="#180B02"/>
<path d="M410.686 214.326C411.124 210.478 410.807 205.299 408.247 202.191C408.139 202.078 407.999 202 407.846 201.968C407.693 201.936 407.534 201.95 407.39 202.009C407.245 202.069 407.122 202.17 407.036 202.3C406.949 202.431 406.904 202.584 406.906 202.74C407.087 205.55 407.71 204.501 409.467 214.448C409.65 215.239 410.618 214.935 410.687 214.326H410.686Z" fill="#180B02"/>
<path d="M408.493 217.374C408.786 214.173 408.151 210.955 406.663 208.105C406.415 207.74 405.673 207.857 405.747 208.353C405.995 211.342 406.906 214.33 407.274 217.378C407.395 218.109 408.477 218.169 408.494 217.376L408.493 217.374Z" fill="#180B02"/>
<path d="M395.99 221.949C397.512 219.764 400.51 214.483 400.319 211.826C400.315 211.722 400.281 211.622 400.221 211.537C400.161 211.452 400.077 211.387 399.981 211.348C399.885 211.309 399.779 211.299 399.677 211.319C399.575 211.339 399.481 211.388 399.407 211.46C398.452 212.837 397.731 214.361 397.271 215.972C396.529 217.862 395.747 219.683 395.016 221.583C394.832 222.132 395.687 222.379 395.99 221.949Z" fill="#180B02"/>
<path d="M392.942 220.788C395.585 217.866 397.617 214.444 398.916 210.724C399.04 210.115 398.245 209.566 397.82 210.115C395.59 213.277 393.671 216.646 392.089 220.177C391.782 220.667 392.512 221.337 392.942 220.788Z" fill="#180B02"/>
<path d="M400.684 214.205C397.066 227.217 389.023 238.56 377.94 246.28C372.251 250.08 365.694 252.38 358.878 252.967C352.062 253.554 345.208 252.41 338.953 249.639C343.341 245.81 346.305 240.61 347.364 234.883C366.165 243.272 386.915 230.99 394.841 213.29C395.145 212.547 394.292 211.704 393.683 212.375C390.351 216.194 386.977 223.475 378.925 229.197C374.378 232.455 369.101 234.549 363.557 235.295C358.171 235.66 352.762 235.164 347.532 233.826C347.749 232.313 347.826 230.783 347.762 229.256C347.718 228.157 343.861 225.477 342.884 224.194C341.959 222.67 340.941 221.203 339.836 219.804C339.341 219.309 338.23 219.623 338.31 220.415C338.694 222.249 339.471 223.978 340.587 225.483C341.704 226.989 343.133 228.234 344.776 229.135C345.101 235.002 343.107 240.762 339.225 245.173C334.491 250.353 329.986 251.048 324.711 245.601C321.052 241.655 318.491 236.821 317.283 231.578C316.074 226.335 316.26 220.868 317.821 215.719C318.069 214.925 316.847 214.62 316.601 215.353C309.061 235.71 324.035 259.387 337.584 250.637C344.012 254.017 351.231 255.605 358.483 255.234C365.736 254.862 372.755 252.546 378.803 248.527C384.722 244.375 389.845 239.19 393.925 233.222C397.766 227.732 401.608 221.206 401.73 214.317C401.744 214.178 401.703 214.039 401.616 213.93C401.528 213.822 401.401 213.752 401.262 213.738C401.123 213.723 400.984 213.764 400.876 213.851C400.767 213.939 400.698 214.066 400.683 214.205H400.684Z" fill="#180B02"/>
<path d="M46.9335 245.67C44.4589 247.294 42.058 249.028 39.7377 250.866C37.2804 252.5 35.0637 254.47 33.1521 256.718C32.6573 257.461 33.5774 258.059 34.2507 257.817C36.7369 256.506 39.0344 254.865 41.0807 252.939C43.441 251.024 45.7189 249.009 47.9081 246.9C48.0267 246.759 48.093 246.581 48.0956 246.396C48.0982 246.212 48.037 246.032 47.9225 245.888C47.8079 245.743 47.6469 245.642 47.4667 245.603C47.2865 245.563 47.0981 245.587 46.9335 245.67Z" fill="#F07D29"/>
<path d="M29.5632 260.794C27.084 262.176 24.8903 264.017 23.0991 266.219C22.2373 267.101 21.5696 268.154 21.1389 269.309C20.7082 270.464 20.5239 271.697 20.598 272.928C20.636 273.077 20.7138 273.214 20.8233 273.323C20.9328 273.432 21.0697 273.51 21.2197 273.547C21.3696 273.585 21.5269 273.581 21.6749 273.536C21.8228 273.492 21.9559 273.408 22.06 273.293C23.2637 271.551 24.2474 269.666 24.9888 267.682C26.266 265.359 28.0095 263.324 30.11 261.706C30.5924 261.34 30.1671 260.431 29.5632 260.794Z" fill="#F07D29"/>
<path d="M18.5181 278.477C16.1212 283.041 12.7248 289.821 14.6766 295.005C14.7228 295.161 14.8139 295.301 14.9386 295.406C15.0633 295.512 15.2161 295.578 15.3782 295.598C15.5403 295.617 15.7045 295.589 15.8507 295.516C15.9968 295.443 16.1184 295.329 16.2005 295.188C17.9328 291.631 16.9433 287.25 20.3471 279.21C20.7749 278.18 19.0637 277.439 18.5193 278.477H18.5181Z" fill="#F07D29"/>
<path d="M13.3348 301.652C12.7756 307.018 12.3577 315.493 16.565 319.58C16.722 319.731 16.9197 319.833 17.1337 319.873C17.3478 319.913 17.5689 319.89 17.7698 319.806C17.9707 319.721 18.1426 319.58 18.2643 319.4C18.3861 319.219 18.4523 319.007 18.4548 318.789C18.2589 314.572 15.0411 311.283 15.2246 301.654C15.2147 300.446 13.4539 300.492 13.3348 301.652Z" fill="#F07D29"/>
<path d="M19.669 327.142C20.6678 330.139 22.0623 332.989 23.8156 335.617C25.28 337.69 27.3533 340.8 29.9759 341.29C30.1906 341.345 30.4167 341.336 30.6264 341.264C30.8361 341.192 31.0202 341.061 31.1562 340.886C31.2922 340.711 31.3742 340.5 31.3921 340.279C31.4099 340.058 31.3629 339.837 31.2568 339.642C29.8246 336.3 25.1238 335.436 21.5005 326.652C21.0206 325.556 19.2611 325.979 19.669 327.142Z" fill="#F07D29"/>
<path d="M36.5064 347.021C39.5839 349.332 42.8945 351.314 46.3843 352.936C48.8234 354.035 52.1776 355.987 54.7382 354.401C54.9248 354.28 55.0596 354.094 55.1163 353.88C55.173 353.665 55.1473 353.437 55.0444 353.24C53.4585 350.925 50.0968 350.925 47.6032 350.192C44.022 349.116 40.613 347.533 37.4798 345.491C37.2771 345.362 37.0313 345.319 36.7965 345.371C36.5618 345.423 36.3573 345.566 36.2281 345.768C36.0988 345.971 36.0554 346.217 36.1074 346.452C36.1593 346.686 36.3025 346.891 36.5052 347.02L36.5064 347.021Z" fill="#F07D29"/>
<path d="M62.8505 355.375C69.0716 355.057 77.3647 354.881 82.7302 351.288C82.8822 351.189 82.9988 351.044 83.0635 350.874C83.1282 350.704 83.1377 350.518 83.0905 350.343C83.0434 350.167 82.9421 350.011 82.801 349.896C82.6599 349.782 82.4863 349.715 82.3049 349.705C77.976 349.615 72.3303 352.097 62.8505 353.24C61.5696 353.424 61.4481 355.447 62.8505 355.375Z" fill="#F07D29"/>
<path d="M89.0729 346.656C92.3031 346.656 95.5965 344.095 97.9141 342.019C100.678 339.95 102.623 336.971 103.404 333.608C103.525 332.693 102.367 332.51 101.818 332.937C99.438 334.827 97.8595 337.638 95.6573 339.765C93.2114 341.583 90.8699 343.538 88.6438 345.62C88.5481 345.7 88.4803 345.809 88.4505 345.93C88.4207 346.051 88.4304 346.179 88.4781 346.294C88.5259 346.41 88.6092 346.507 88.7159 346.571C88.8226 346.636 88.9473 346.665 89.0716 346.654L89.0729 346.656Z" fill="#F07D29"/>
<path d="M103.89 326.652C105.991 321.69 106.208 311.958 99.9867 309.582C99.1336 309.278 98.3412 310.255 98.5247 311.047C99.1336 313.364 100.902 315.253 101.635 317.632C102.474 320.4 102.62 323.332 102.06 326.17C102.009 326.408 102.051 326.657 102.179 326.865C102.306 327.072 102.509 327.223 102.745 327.285C102.98 327.347 103.231 327.316 103.444 327.198C103.658 327.08 103.817 326.885 103.89 326.652Z" fill="#F07D29"/>
<path d="M95.4138 304.882C92.8036 299.687 87.0029 294.393 80.7198 295.729C80.5747 295.769 80.4447 295.852 80.346 295.966C80.2473 296.08 80.1843 296.22 80.1647 296.369C80.1451 296.519 80.1699 296.671 80.236 296.806C80.3021 296.942 80.4065 297.055 80.5363 297.131C84.4943 299.593 89.0786 300.249 93.7683 306.156C94.5594 307.078 95.9061 305.857 95.4138 304.882Z" fill="#F07D29"/>
<path d="M74.6803 298.96C67.4424 301.066 58.791 313.393 60.5332 320.67C60.5809 320.834 60.6759 320.98 60.8062 321.09C60.9366 321.2 61.0965 321.269 61.266 321.288C61.4354 321.307 61.6067 321.276 61.7585 321.198C61.9103 321.121 62.0357 321 62.1191 320.851C64.0089 317.316 64.6797 313.291 66.8758 309.815C69.3814 306.354 72.2658 303.183 75.4752 300.363C75.6116 300.236 75.7012 300.067 75.7297 299.883C75.7581 299.699 75.7237 299.51 75.632 299.348C75.5402 299.186 75.3965 299.06 75.2241 298.989C75.0517 298.919 74.8593 298.909 74.6803 298.96Z" fill="#F07D29"/>
<path d="M59.3127 326.227C58.5863 329.159 58.2174 332.168 58.214 335.189C57.7032 337.893 57.8732 340.68 58.7088 343.302C58.7911 343.447 58.9107 343.569 59.0552 343.653C59.1998 343.737 59.3642 343.782 59.5315 343.782C59.6989 343.782 59.8633 343.737 60.0079 343.653C60.1524 343.569 60.272 343.447 60.3543 343.302C61.3746 340.727 61.7311 337.938 61.3909 335.189C61.5624 332.193 61.3964 329.186 60.8962 326.227C60.8455 326.056 60.7411 325.906 60.5984 325.8C60.4557 325.693 60.2825 325.636 60.1044 325.636C59.9264 325.636 59.7531 325.693 59.6104 325.8C59.4678 325.906 59.3633 326.056 59.3127 326.227Z" fill="#F07D29"/>
<path d="M59.9233 349.277C60.4382 352.952 61.4432 356.541 62.9117 359.948C63.8492 363.294 65.4677 366.411 67.6658 369.102C67.8152 369.244 68.0063 369.334 68.2108 369.358C68.4153 369.382 68.6222 369.34 68.8006 369.237C68.9789 369.134 69.1192 368.976 69.2006 368.787C69.2819 368.598 69.2999 368.387 69.2518 368.187C68.3664 364.803 67.0556 361.545 65.3508 358.49C64.0078 355.318 62.9117 351.964 61.3257 348.916C60.9599 348.3 59.7993 348.545 59.9233 349.277Z" fill="#F07D29"/>
<path d="M70.2306 375.499C72.0349 378.552 74.2743 381.325 76.8783 383.732C79.0911 386.515 81.6996 388.96 84.6208 390.987C84.7911 391.086 84.9892 391.125 85.1843 391.1C85.3795 391.074 85.5607 390.985 85.6999 390.846C85.839 390.707 85.9283 390.526 85.9538 390.33C85.9794 390.135 85.9397 389.937 85.841 389.767C83.9333 386.738 81.5912 384.006 78.8895 381.657C76.624 378.946 73.9539 376.601 70.9734 374.703C70.8641 374.65 70.7407 374.634 70.6214 374.656C70.502 374.678 70.3928 374.738 70.3099 374.827C70.2269 374.915 70.1744 375.028 70.1602 375.149C70.1459 375.269 70.1706 375.391 70.2306 375.497V375.499Z" fill="#F07D29"/>
<path d="M90.0471 396.903C93.9358 399.916 104.643 408.235 109.501 410.261C110.598 410.687 111.209 409.163 110.538 408.431C107.77 405.889 104.746 403.642 101.513 401.725C98.1588 399.469 94.7434 397.334 91.2673 395.321C90.2926 394.769 89.0824 396.156 90.0471 396.904V396.903Z" fill="#F07D29"/>
<path d="M114.258 412.882C119.611 416.098 131.288 422.329 137.492 421.661C138.466 421.539 139.075 420.199 138.038 419.649C134.746 417.881 130.6 417.514 127.124 416.295C123.03 414.935 119.07 413.2 115.294 411.112C115.061 410.994 114.792 410.969 114.54 411.042C114.289 411.116 114.076 411.283 113.944 411.508C113.811 411.734 113.77 412.002 113.829 412.257C113.887 412.512 114.04 412.735 114.258 412.88V412.882Z" fill="#F07D29"/>
<path d="M146.64 423.858C152.386 425.703 158.715 428.858 164.812 429.102C165.029 429.091 165.238 429.011 165.407 428.874C165.576 428.737 165.697 428.549 165.752 428.338C165.807 428.128 165.793 427.905 165.713 427.702C165.633 427.5 165.491 427.328 165.306 427.212C160.003 424.283 152.99 423.674 147.075 422.265C146.863 422.207 146.638 422.235 146.448 422.344C146.257 422.453 146.118 422.632 146.06 422.844C146.003 423.055 146.031 423.28 146.14 423.471C146.249 423.661 146.428 423.8 146.64 423.858Z" fill="#F07D29"/>
<path d="M176.886 431.966C180.404 433.086 184.017 433.883 187.679 434.346C190.741 435.166 193.917 435.475 197.08 435.261C197.933 435.137 198.057 433.735 197.328 433.369C194.154 432.127 190.794 431.426 187.388 431.296C184.008 430.667 180.579 430.341 177.142 430.321C176.933 430.307 176.728 430.372 176.565 430.503C176.402 430.634 176.294 430.821 176.262 431.027C176.23 431.234 176.276 431.445 176.392 431.618C176.508 431.792 176.685 431.916 176.888 431.966H176.886Z" fill="#F07D29"/>
<path d="M203.899 435.991C208.988 438.003 219.41 441.25 224.572 439.529C224.726 439.478 224.86 439.38 224.955 439.249C225.05 439.117 225.101 438.959 225.101 438.797C225.101 438.635 225.05 438.477 224.955 438.345C224.86 438.214 224.726 438.116 224.572 438.065C220.366 436.367 215.206 437.513 204.264 434.53C203.349 434.226 202.976 435.631 203.899 435.991Z" fill="#F07D29"/>
<path d="M237.988 443.183C245.194 443.678 253.172 445.257 260.369 443.926C260.601 443.859 260.804 443.719 260.949 443.527C261.094 443.334 261.173 443.1 261.173 442.859C261.173 442.618 261.094 442.383 260.949 442.19C260.804 441.998 260.601 441.858 260.369 441.791C253.294 440.023 245.185 441.12 237.988 441.296C237.746 441.309 237.518 441.413 237.352 441.589C237.185 441.765 237.092 441.998 237.092 442.24C237.092 442.482 237.185 442.715 237.352 442.891C237.518 443.066 237.746 443.171 237.988 443.183Z" fill="#F07D29"/>
<path d="M269.698 445.81C276.59 446.106 284.152 447.15 290.92 445.748C291.145 445.683 291.343 445.547 291.484 445.36C291.624 445.173 291.7 444.945 291.7 444.711C291.7 444.477 291.624 444.249 291.484 444.062C291.343 443.875 291.145 443.739 290.92 443.674C284.09 442.212 276.59 443.249 269.698 443.553C269.413 443.574 269.147 443.702 268.953 443.911C268.758 444.12 268.65 444.395 268.65 444.681C268.65 444.966 268.758 445.241 268.953 445.45C269.147 445.659 269.413 445.789 269.698 445.81Z" fill="#F07D29"/>
<path d="M299.52 446.055C306.122 447.004 312.852 446.462 319.216 444.469C320.132 444.163 320.375 442.517 319.216 442.396C312.583 441.625 305.861 442.312 299.52 444.407C298.787 444.653 298.605 445.926 299.52 446.055Z" fill="#F07D29"/>
<path d="M404.343 415.197C407.158 413.511 409.673 411.368 411.785 408.857C414.129 406.566 416.14 403.959 417.761 401.112C417.847 400.967 417.883 400.798 417.862 400.631C417.841 400.464 417.765 400.309 417.646 400.19C417.527 400.071 417.372 399.996 417.205 399.975C417.038 399.954 416.869 399.989 416.725 400.075C411.289 403.744 406.695 408.525 403.245 414.102C402.941 414.832 403.613 415.626 404.343 415.198V415.197Z" fill="#F07D29"/>
<path d="M422.884 396.599C427.511 393.9 432.094 388.683 432.337 383.06C432.332 382.857 432.268 382.66 432.154 382.493C432.04 382.326 431.88 382.195 431.693 382.116C431.506 382.038 431.301 382.015 431.101 382.051C430.902 382.086 430.717 382.179 430.569 382.317C429.045 384.207 427.946 386.401 426.611 388.415C425.084 390.7 423.432 392.898 421.663 395.001C420.995 395.866 421.846 397.206 422.886 396.599H422.884Z" fill="#F07D29"/>
<path d="M434.524 377.938C437.716 373.255 442.025 368.729 443.549 363.18C443.612 362.962 443.599 362.729 443.514 362.52C443.428 362.31 443.275 362.134 443.078 362.022C442.881 361.91 442.652 361.867 442.428 361.9C442.204 361.933 441.997 362.041 441.842 362.205C437.636 366.163 435.621 372.083 432.936 377.023C432.828 377.233 432.805 377.476 432.871 377.703C432.938 377.929 433.089 378.121 433.294 378.239C433.498 378.356 433.74 378.391 433.969 378.335C434.198 378.279 434.397 378.137 434.524 377.938Z" fill="#F07D29"/>
<path d="M447.519 355.497C448.693 352.393 449.73 349.24 450.629 346.047C451.666 343.497 452.084 340.739 451.85 337.997C451.802 337.832 451.712 337.683 451.589 337.563C451.466 337.444 451.314 337.358 451.148 337.315C450.982 337.272 450.808 337.273 450.643 337.317C450.477 337.362 450.326 337.448 450.204 337.569C448.73 339.867 447.811 342.477 447.519 345.191C446.792 348.455 446.222 351.753 445.812 355.072C445.765 355.295 445.806 355.527 445.927 355.72C446.048 355.914 446.239 356.053 446.461 356.108C446.682 356.163 446.916 356.13 447.113 356.016C447.311 355.902 447.456 355.716 447.519 355.497Z" fill="#F07D29"/>
<path d="M453.376 329.457C453.985 317.786 454.875 315.442 453.376 312.882C453.308 312.763 453.21 312.665 453.092 312.597C452.974 312.528 452.841 312.492 452.704 312.492C452.568 312.492 452.434 312.528 452.316 312.597C452.198 312.665 452.101 312.763 452.033 312.882C450.372 315.524 451.29 318.633 451.29 329.457C451.29 329.733 451.4 329.999 451.595 330.194C451.791 330.39 452.056 330.5 452.333 330.5C452.609 330.5 452.875 330.39 453.07 330.194C453.266 329.999 453.376 329.733 453.376 329.457Z" fill="#F07D29"/>
<path d="M454.533 302.506C454.175 293.826 454.946 290.02 453.193 287.626C453.086 287.464 452.941 287.331 452.771 287.239C452.601 287.147 452.41 287.099 452.217 287.099C452.023 287.099 451.833 287.147 451.662 287.239C451.492 287.331 451.347 287.464 451.241 287.626C450.518 289.75 450.431 292.039 450.993 294.211C451.241 297.016 451.786 299.701 452.153 302.506C452.399 303.967 454.6 304.091 454.533 302.506Z" fill="#F07D29"/>
<path d="M452.215 281.099C451.205 276.923 449.547 265.267 446.971 260.794C446.815 260.543 446.582 260.348 446.307 260.238C446.032 260.129 445.729 260.11 445.443 260.185C445.157 260.26 444.902 260.425 444.716 260.655C444.53 260.885 444.423 261.169 444.41 261.465C444.601 266.661 449.546 278.831 450.508 281.527C450.534 281.642 450.583 281.75 450.651 281.846C450.719 281.941 450.806 282.022 450.906 282.084C451.006 282.146 451.117 282.186 451.233 282.204C451.349 282.222 451.468 282.217 451.582 282.188C451.695 282.16 451.803 282.109 451.896 282.038C451.99 281.968 452.069 281.879 452.128 281.778C452.187 281.676 452.226 281.564 452.241 281.447C452.256 281.331 452.247 281.212 452.216 281.099H452.215Z" fill="#F07D29"/>
<path d="M442.641 255.367C440.301 251.04 435.044 243.157 430.446 242.255C430.288 242.215 430.121 242.222 429.967 242.276C429.813 242.331 429.679 242.429 429.581 242.56C429.483 242.69 429.426 242.847 429.417 243.01C429.408 243.173 429.448 243.335 429.531 243.475C431.042 245.701 432.87 247.694 434.958 249.39C437.127 251.554 439.106 253.901 440.873 256.403C441.019 256.621 441.242 256.774 441.497 256.833C441.752 256.891 442.019 256.85 442.245 256.718C442.471 256.585 442.637 256.372 442.711 256.121C442.785 255.87 442.76 255.6 442.641 255.367Z" fill="#F07D29"/>
<path d="M207.621 201.703C202.555 191.4 191.396 182.007 179.566 181.458C180.081 176.342 179.318 171.132 180.24 166.028C180.804 163.673 181.752 161.427 183.047 159.381C189.61 146.691 181.441 134.779 171.927 135.269C171.412 129.866 163.551 127.644 159.264 129.441C153.836 131.759 142.616 142.124 138.653 132.367C137.7 130.188 132.963 133.743 134.2 141.941C134.771 145.357 136.654 148.413 139.448 150.459C142.241 152.504 145.724 153.377 149.152 152.891C150.141 161.568 146.997 172.152 154.753 178.591C156.205 179.798 157.952 180.598 159.814 180.908C159.785 181.403 159.449 186.579 159.508 187.069C159.323 188.924 159.87 190.778 161.032 192.236C162.194 193.693 163.88 194.64 165.729 194.873C168.07 195.219 170.458 194.739 172.483 193.515C174.509 192.291 176.044 190.4 176.827 188.167C177.075 187.252 175.838 186.755 175.182 187.312C173.301 189.443 170.908 191.06 168.23 192.013C167.456 192.219 166.648 192.265 165.856 192.147C165.064 192.029 164.304 191.75 163.624 191.327C162.944 190.903 162.358 190.345 161.902 189.687C161.446 189.028 161.129 188.283 160.973 187.498C161.209 185.352 161.292 183.192 161.221 181.034C165.094 181.034 169.958 177.389 168.597 173.533C168.56 173.409 168.489 173.299 168.391 173.214C168.294 173.13 168.174 173.074 168.047 173.055C167.919 173.036 167.789 173.053 167.67 173.105C167.552 173.158 167.452 173.242 167.38 173.349C165.487 176.034 163.668 178.777 159.876 178.106C158.154 177.656 156.574 176.777 155.284 175.55C153.994 174.323 153.036 172.79 152.5 171.093C150.369 165.356 150.993 158.758 149.865 152.69C153.686 151.406 157.534 147.292 162.681 149.078C164.053 149.514 165.258 150.36 166.134 151.502C167.01 152.644 167.514 154.027 167.579 155.465C167.479 155.647 167.392 155.837 167.318 156.032C167.134 156.64 167.924 157.247 168.414 156.885C168.804 156.654 169.239 156.509 169.69 156.458C170.14 156.407 170.597 156.452 171.029 156.59C171.461 156.729 171.859 156.956 172.196 157.259C172.534 157.562 172.804 157.932 172.988 158.347C173.186 158.783 173.256 159.267 173.191 159.742C173.126 160.216 172.929 160.663 172.622 161.031C171.88 161.81 171.036 161.526 170.062 161.459C169.797 161.466 169.539 161.549 169.32 161.698C169.101 161.848 168.929 162.057 168.827 162.302C168.724 162.546 168.693 162.815 168.74 163.076C168.786 163.338 168.907 163.58 169.087 163.774C169.457 164.095 169.891 164.332 170.361 164.471C170.83 164.61 171.324 164.646 171.809 164.578C173.099 166.724 174.629 168.716 176.371 170.515C176.232 174.616 176.714 178.715 177.801 182.673C178.049 183.474 178.491 183.111 179.325 183.416C190.056 187.013 199.449 192.378 204.805 202.868C207.393 208.094 208.652 213.878 208.471 219.706C208.29 225.535 206.675 231.23 203.769 236.286C192.854 231.682 191.427 230.065 184.314 220.918C186.851 216.297 188.054 211.062 187.79 205.797C187.731 205.247 186.877 205.003 186.753 205.673C184.526 219.499 180.658 220.207 181.806 221.651C183.109 223.529 184.228 225.114 185.254 226.495C182.905 227.511 180.464 228.299 177.964 228.847C173.008 229.5 167.97 229.121 163.167 227.734C158.363 226.348 153.899 223.983 150.053 220.788C145.424 216.552 141.889 211.258 139.75 205.359C137.736 200.602 134.26 198.773 129.444 197.554C128.702 197.306 128.532 198.22 129.138 198.467C132.629 199.899 135.968 201.334 137.616 204.993C138.894 207.738 139.568 210.604 141.092 213.287C151.185 231.002 174.748 235.38 186.244 227.754C189.589 232.136 194.069 235.518 199.199 237.536C194.746 242.59 187.703 244.631 181.157 245.18C173.716 245.851 164.996 244.997 158.532 240.911C145.31 232.485 139.731 214.612 128.53 209.741C128.347 209.679 128.167 209.922 128.282 210.045C136.795 218.975 138.178 222.71 144.013 230.594C148.525 236.695 153.831 243.159 161.149 245.961C172.09 250.184 187.316 249.786 196.334 243.95C198.495 242.682 200.216 240.783 201.266 238.508C202.009 238.846 202.771 239.198 203.591 239.569C203.948 239.775 204.372 239.833 204.771 239.73C205.17 239.627 205.513 239.372 205.727 239.02C209.093 233.437 211.027 227.109 211.358 220.599C211.688 214.088 210.405 207.597 207.621 201.702V201.703Z" fill="#180B02"/>
<path d="M327.143 290.055C328.363 290.42 329.582 290.725 330.802 291.032C330.742 290.663 330.618 290.289 330.554 289.933L327.143 290.055Z" fill="#180B02"/>
<path d="M331.18 291.449C327.907 290.629 328.047 290.656 325.287 289.824L330.816 289.628C330.968 290.548 330.977 290.231 331.18 291.449ZM329.121 290.299L330.4 290.625L330.31 290.257L329.121 290.299Z" fill="#180B02"/>
<path d="M401.723 430.75C398.268 426.227 393.587 422.793 388.236 420.855C389.297 418.192 390.084 415.428 390.585 412.605C391.662 407.561 392.681 404.194 394.093 396.597C400.859 360.606 398.86 325.742 382.415 284.632C384.748 281.196 383.158 276.743 382.514 272.932C381.567 265.848 380.203 258.827 378.427 251.905C378.362 251.684 378.221 251.494 378.028 251.369C377.835 251.244 377.604 251.191 377.376 251.221C377.148 251.251 376.939 251.361 376.785 251.532C376.631 251.703 376.543 251.923 376.538 252.153C376.872 257.959 377.544 263.741 378.549 269.469C379.044 272.824 380.56 277.386 379.951 280.75C379.28 284.591 374.34 285.811 371.17 286.91C364.031 289.315 356.566 290.611 349.034 290.752C335.384 290.962 330.646 287.642 326.35 287.642C326.845 282.276 326.959 276.849 327.69 271.483C328.484 265.568 330.132 259.713 330.617 253.86C330.679 253.067 329.411 252.707 329.093 253.433C326.904 259.042 325.528 264.936 325.006 270.935C324.062 277.153 323.94 283.467 324.642 289.716C326.442 290.654 328.39 291.274 330.401 291.549C330 296.84 335.672 329.096 337.822 341.062C344.321 377.219 347.094 395.112 340.806 426.374C340.723 426.719 340.745 427.082 340.87 427.414C340.995 427.746 341.217 428.034 341.506 428.239C340.92 433.88 344.818 439.223 349.153 442.535C351.983 444.597 355.082 446.261 358.363 447.483C361.525 448.882 364.84 449.905 368.241 450.531C375.071 451.324 369.643 442.664 368.057 440.469C364.749 435.837 360.497 431.959 355.582 429.09C355.658 428.884 355.681 428.662 355.648 428.445C355.615 428.228 355.527 428.023 355.393 427.849C355.258 427.676 355.082 427.539 354.88 427.453C354.678 427.367 354.457 427.334 354.239 427.357C357.541 418.054 366.361 403.411 370.071 368.906C374.296 330.634 368.203 329.857 367.448 313.305C367.406 312.439 368.616 312.414 368.868 313.173C371.326 321.065 372.916 329.202 373.61 337.439C375.032 350.77 373.496 364.807 371.715 378.136C373.343 395.589 371.188 409.241 372.511 418.427C372.952 419.505 373.53 420.521 374.231 421.45C374.669 426.972 380.062 431.592 384.342 434.49C389.394 437.98 395.341 439.949 401.478 440.163C407.82 440.019 403.847 433.435 401.723 430.753V430.75ZM365.329 440.462C366.514 441.936 367.571 443.508 368.489 445.163C370.856 449.434 369.05 448.158 364.951 446.993C355.269 444.128 346.826 439.594 343.716 429.756C343.952 429.927 344.599 430.297 344.899 430.469C346.352 433.441 348.482 436.032 351.117 438.033C353.752 440.034 356.819 441.39 360.073 441.992C362.383 442.442 364.474 442.635 365.329 440.463V440.462ZM361.175 436.256C363.154 438.403 363.584 440.815 359.218 439.843C354.093 438.618 349.609 435.523 346.646 431.165C348.797 431.915 351.137 431.928 353.296 431.203C356.131 432.538 358.78 434.237 361.175 436.257V436.256ZM393.183 429.17C392.44 429.324 391.673 429.324 390.93 429.17C386.804 428.879 382.924 427.1 380.011 424.163C382.03 424.363 384.057 423.866 385.754 422.753C386.021 422.954 388.365 423.775 390.991 425.153C394.832 427.157 394.2 428.626 393.183 429.16V429.17ZM396.843 436.733C387.343 435.058 378.564 428.111 376.236 423.046C376.961 423.444 377.738 423.741 378.544 423.929C380.062 426.076 382.047 427.85 384.351 429.118C386.655 430.385 389.217 431.113 391.843 431.246C393.543 431.303 396.251 431.306 397.166 429.514C398.925 431.226 400.401 433.208 401.537 435.384C403.123 438.308 398.489 436.967 396.841 436.722L396.843 436.733Z" fill="#180B02"/>
<path d="M327.754 443.736C331.282 444.377 334.897 444.377 338.425 443.736C342.256 443.426 345.976 442.304 349.34 440.444C350.255 439.835 350.011 438.127 348.731 438.247C345.317 438.728 341.936 439.421 338.607 440.32C335.008 441.063 331.29 441.31 327.69 442.151C327.02 442.396 326.959 443.615 327.754 443.736Z" fill="#F07D29"/>
<path d="M356.105 439.042C362.775 439.86 369.5 438.019 374.824 433.918C375.801 433.005 374.764 431.723 373.666 431.907C370.654 432.65 367.7 433.607 364.825 434.771C361.836 435.686 358.848 436.419 355.919 437.576C355.741 437.619 355.586 437.726 355.483 437.877C355.379 438.027 355.334 438.21 355.357 438.391C355.38 438.573 355.469 438.739 355.607 438.859C355.745 438.978 355.922 439.043 356.105 439.041V439.042Z" fill="#F07D29"/>
<path d="M380.502 429.773C386.837 429.147 395.258 425.503 398.371 419.649C398.483 419.445 398.525 419.209 398.492 418.978C398.459 418.747 398.352 418.533 398.187 418.368C398.022 418.203 397.808 418.096 397.577 418.063C397.346 418.03 397.111 418.073 396.906 418.185C394.221 419.771 392.028 422.026 389.343 423.674C386.425 425.358 383.388 426.825 380.257 428.065C379.403 428.369 379.403 429.881 380.502 429.773Z" fill="#F07D29"/>
</svg>
