<svg width="32" height="32" viewBox="0 0 32 32" fill="none" xmlns="http://www.w3.org/2000/svg">
<path d="M13.7256 19.5556H18.2796C19.3326 19.5556 20.2052 18.7392 20.2752 17.6887L21.1937 3.91087C21.2707 2.7565 20.3551 1.77783 19.1982 1.77783H12.807C11.6501 1.77783 10.7345 2.7565 10.8115 3.91087L11.73 17.6886C11.8 18.7392 12.6726 19.5556 13.7256 19.5556Z" fill="#F07D29"/>
<path d="M19.5586 28.2223V25.1112C19.5586 24.0066 18.6632 23.1112 17.5586 23.1112H14.4475C13.3429 23.1112 12.4475 24.0066 12.4475 25.1112V28.2223C12.4475 29.3269 13.3429 30.2223 14.4475 30.2223H17.5586C18.6632 30.2223 19.5586 29.3269 19.5586 28.2223Z" fill="#F07D29"/>
</svg>
