<svg width="32" height="32" viewBox="0 0 32 32" fill="none" xmlns="http://www.w3.org/2000/svg">
<path d="M8.66667 20.3333H23.3333V19H8.66667V20.3333ZM8.66667 16.3333H23.3333V15H8.66667V16.3333ZM8.66667 12.3333H23.3333V11H8.66667V12.3333ZM6.15467 25C5.54044 25 5.028 24.7946 4.61733 24.384C4.20667 23.9733 4.00089 23.4609 4 22.8466V8.48665C4 7.87332 4.20578 7.36087 4.61733 6.94932C5.02889 6.53776 5.54089 6.33243 6.15333 6.33332H25.8467C26.46 6.33332 26.972 6.53865 27.3827 6.94932C27.7933 7.35998 27.9991 7.87243 28 8.48665V29.1026L23.8973 25H6.15467Z" fill="#180B02"/>
</svg>
