<svg width="235" height="235" viewBox="0 0 235 235" fill="none" xmlns="http://www.w3.org/2000/svg">
<path fill-rule="evenodd" clip-rule="evenodd" d="M218.487 29.1722C218.479 27.1466 218.437 27.1404 216.41 27.1466C143.112 27.3445 96.3114 27.1787 66.4284 27.0723C19.8225 26.9053 14.3691 26.8867 13.7293 28.6315C13.6452 28.8629 13.644 29.1252 13.644 29.4222C13.6217 47.3614 13.5945 63.5051 13.5648 78.0327L15.093 77.9585L15.0633 66.2188C14.9618 28.926 14.9618 28.6203 16.1213 28.7243C18.3735 28.926 162.187 28.6995 162.137 28.6995C162.268 28.6995 162.416 28.6439 162.551 28.5931C162.705 28.535 162.843 28.483 162.917 28.5313C163.505 28.9025 160.211 35.409 130.973 93.1444C124.95 105.04 117.824 119.11 109.405 135.748C133.259 142.843 136.53 144.648 136.224 147.2C136.042 148.719 134.968 149.004 125.19 151.597C124.026 151.906 122.741 152.247 121.318 152.627C112.042 155.103 104.266 157.178 97.68 158.929C89.9232 174.269 82.1706 189.61 74.4222 204.954L74.4 205.011C74.202 205.513 74.0498 205.899 73.7936 206.194C72.9398 207.172 70.9302 207.146 62.247 207.029C54.1975 206.921 40.4123 206.736 16.4963 207.205C15.3962 207.226 15.0683 207.03 15.0707 205.854C15.1215 185.21 15.1475 166.969 15.1574 150.853C14.5751 150.554 13.9877 150.266 13.3952 149.988C13.274 203.826 13.394 208.213 14.655 208.571C14.7676 208.603 14.8888 208.603 15.0188 208.603C90.7615 208.594 138.44 208.704 168.417 208.774C214.323 208.88 218.718 208.89 218.821 208.229C218.832 208.16 218.795 208.082 218.754 207.996C218.702 207.906 218.671 207.806 218.662 207.702C218.612 204.1 218.577 193.246 218.556 178.532C213.672 180.997 208.792 183.468 203.915 185.945C185.256 195.413 182.513 196.805 179.929 196.555C179.484 196.512 179.043 196.42 178.526 196.313C178.297 196.265 178.067 196.218 177.838 196.173C168.482 194.36 102.131 176.76 100.277 175.813C92.974 172.082 112.772 166.468 126.334 162.622C132.861 160.772 137.943 159.33 137.87 158.705C137.658 156.89 138.13 155.164 138.599 153.446C138.737 152.94 138.876 152.435 138.996 151.928C149.515 107.609 149.719 107.269 150.859 105.385L150.911 105.299L150.951 105.232C152.609 102.462 154.253 102.534 165.538 103.024C167.509 103.111 169.775 103.209 172.386 103.306C175.453 103.421 180.038 103.601 185.275 103.804H185.285C196.137 104.227 209.783 104.757 218.513 105.062L218.51 80.7724V80.2836C218.509 55.2006 218.508 34.8509 218.488 29.171H218.487V29.1722ZM93.3564 203.177C91.254 203.177 91.2292 199.774 93.3316 199.725C95.606 199.673 95.6333 203.177 93.3564 203.177ZM97.5315 192.872C94.355 192.897 94.3797 188.263 97.4573 188.32C98.6576 188.342 99.6933 189.42 99.7069 190.622C99.7193 191.722 98.6316 192.864 97.5315 192.872ZM122.268 198.825C120.167 198.825 120.292 195.399 122.418 195.474C124.619 195.55 124.644 198.825 122.268 198.825ZM128.046 123.965C125.895 124.019 125.844 120.965 127.97 120.939C129.996 120.914 129.922 123.918 128.046 123.965ZM132.623 115.662C130.798 115.625 130.497 112.593 132.748 112.635C134.724 112.671 134.599 115.7 132.623 115.662ZM142.628 204.577C139.926 204.528 140.301 200.602 142.677 200.651C145.178 200.702 145.379 204.628 142.628 204.577ZM156.434 82.2227C153.558 82.2784 153.507 77.8075 156.584 77.8954C157.583 77.9238 158.61 78.9954 158.634 80.0213C158.66 81.1474 157.609 82.1992 156.434 82.2227ZM167.239 94.5043C165.388 94.607 165.288 91.7275 167.164 91.7535C168.964 91.7782 169.015 94.4066 167.239 94.5043ZM168.015 39.0792C165.764 39.0409 165.789 35.7901 167.915 35.7282C170.09 35.6651 170.216 39.1176 168.015 39.0792ZM174.243 89.0014C172.443 88.7514 172.767 86.3929 174.468 86.5005C175.893 86.5909 176.169 88.9024 174.243 89.0014ZM202.456 43.7308C205.257 43.8595 204.856 47.8205 202.38 47.8329C199.879 47.8453 199.804 43.6095 202.456 43.7308ZM188.224 33.2744C190.399 33.1494 190.6 36.6266 188.349 36.6773C186.147 36.7268 186.098 33.3981 188.224 33.2744ZM176.193 48.4331C176.218 45.1068 181.209 45.1068 181.246 48.4083C181.284 51.7853 176.169 51.7098 176.193 48.4331ZM191.225 93.528C188.748 93.4278 188.648 89.6387 191.325 89.6511C194.126 89.6634 193.701 93.6282 191.225 93.528ZM190.7 80.5224C185.699 81.3317 178.981 78.6737 179.245 77.4214C179.346 76.9363 180.253 76.8349 181.54 76.6913C182.571 76.5762 183.846 76.4339 185.147 76.0454C194.9 73.1361 196.803 61.4138 189.7 52.8594C186.149 48.5828 202.364 53.0104 202.456 66.2399C202.505 73.4418 197.43 79.4335 190.7 80.5224ZM202.355 91.6273C200.58 91.6273 200.629 89.2501 202.23 89.2266C203.957 89.2006 203.931 91.6273 202.355 91.6273ZM205.307 204.303C202.681 204.29 202.706 200.413 205.307 200.401C207.858 200.389 207.908 204.315 205.307 204.303ZM210.685 59.5119C208.559 59.4376 208.858 56.3861 210.785 56.4356C212.811 56.4851 212.861 59.5874 210.685 59.5119Z" fill="#F07D29"/>
<path d="M128.62 59.2111C118.465 62.3122 86.6755 60.3372 80.273 60.3372C79.6728 60.3372 79.3189 60.1875 79.2471 59.4871C78.7992 55.088 83.5794 51.4474 86.5753 53.0091C88.9561 54.2502 87.4811 50.0677 92.3282 47.5321C96.2335 45.4891 97.4202 48.6743 98.4807 47.3317C99.9916 45.4186 103.658 45.1562 104.959 47.3564C105.284 47.9071 105.612 47.5866 105.959 47.3317C110.129 44.2628 115.919 44.4769 119.665 49.2831C120.015 49.7335 120.265 49.9068 120.815 49.6828C124.713 48.0989 129.548 50.7829 130.595 55.1102C131.097 57.1854 131.144 57.6841 130.67 57.8116C130.12 57.9588 129.841 56.9367 129.695 56.386C128.15 50.5453 122.514 50.0033 121.016 50.8336C118.861 52.0278 119.038 48.1137 113.888 46.8317C107.583 45.2627 106.287 50.3065 104.459 48.407C102.434 46.3034 100.422 46.5917 98.7059 49.0579C98.4089 49.4848 98.1305 49.4576 97.7803 49.2064C93.8279 46.3826 89.8397 50.1865 89.0267 53.5597C88.7062 54.8863 88.6777 54.9061 87.4254 54.4098C83.8541 52.9967 80.8274 54.76 80.3967 58.4117C80.273 59.4623 80.7222 59.5366 81.4968 59.5378C128.619 59.6121 128.218 58.5627 128.619 59.2124L128.62 59.2111Z" fill="#F07D29"/>
<path d="M33.1293 61.4373C18.9977 61.7689 13.8004 43.2122 26.2256 36.9767C40.9635 29.583 53.7735 48.3154 42.1329 58.1358C39.5281 60.3335 36.505 61.3581 33.1293 61.4373ZM20.7239 48.3315C20.6286 58.486 34.1056 63.6882 41.5587 56.485C49.1381 49.1581 43.2095 36.2008 30.9538 37.4259C25.201 38.0013 20.7771 42.7791 20.7239 48.3315Z" fill="#F07D29"/>
<path d="M26.9988 190.896C26.0732 190.866 25.6512 190.546 25.6748 189.495C25.7292 186.869 26.4222 184.59 28.7003 183.017C32.5488 180.36 34.2255 183.291 35.3788 181.741C37.8747 178.387 42.7181 177.574 46.2089 179.966C46.861 180.412 47.278 180.584 47.9599 179.89C48.5251 179.307 49.2942 178.966 50.1057 178.938C50.9172 178.91 51.708 179.198 52.312 179.741C53.1138 180.464 53.6633 180.592 54.6879 180.14C57.4659 178.918 60.6375 181.659 61.667 184.667C61.8452 185.19 62.0408 185.44 62.6917 185.142C66.3644 183.458 69.4877 187.57 69.2192 190.444C69.1251 191.446 68.619 191.54 63.5418 191.57C27.3255 191.785 44.5866 191.47 27.0001 190.895V190.896H26.9988ZM67.5424 190.271C69.3936 190.094 67.0413 184.539 62.5147 186.169C61.6138 186.493 61.1696 186.618 60.8639 185.393C60.1512 182.538 56.7878 179.617 53.6868 181.817C52.4865 182.668 51.4099 177.891 48.0081 181.192C46.3574 182.793 45.4046 178.68 40.3793 179.791C35.8998 180.782 36.1274 183.869 34.2267 183.267C28.1484 181.344 25.0226 189.745 27.7487 189.895C37.3278 190.421 57.9609 191.186 67.5412 190.27L67.5424 190.271Z" fill="#F07D29"/>
<path d="M117.179 74.0387C116.362 75.9765 113.662 78.9464 111.988 81.6217C111.641 82.1749 111.087 82.4223 110.437 82.0474C106.312 79.669 107.435 78.4217 108.536 79.1716C110.487 80.4981 110.596 81.3272 111.412 79.9215C112.777 77.5753 114.486 75.4704 116.414 73.6068C117.538 72.5216 117.585 73.0735 117.179 74.0387Z" fill="#F07D29"/>
<path d="M121.28 82.1923C120.93 82.9038 120.049 84.338 117.866 87.8004C117.518 88.3523 117.067 88.8473 116.34 88.6753C113.293 87.9575 113.543 85.891 114.864 86.4479C115.39 86.6706 115.834 87.4118 116.415 87.1742C117.288 86.8154 117.97 84.1487 120.579 81.9399C121.3 81.3298 121.929 80.8732 121.279 82.1935L121.28 82.1923Z" fill="#F07D29"/>
<path d="M40.3815 69.1407C40.457 70.4152 39.4547 70.341 39.2059 69.5911C37.2433 63.6675 37.0812 63.5153 37.6554 63.2381C38.5315 62.8161 39.3309 66.1399 40.3815 69.1407Z" fill="#F07D29"/>
<path d="M26.9238 64.6138C25.1975 70.0165 25.1765 70.6302 24.5726 70.4409C23.8017 70.2009 24.1346 69.8271 25.9487 64.1126C26.1788 63.3887 27.0995 63.3875 26.9238 64.6126V64.6138Z" fill="#F07D29"/>
<path d="M48.7103 43.2043C45.9594 43.0546 51.2359 41.0759 53.488 40.253C53.7627 40.1528 54.0102 40.2035 54.1389 40.503C54.4817 41.3061 52.2419 41.9904 50.512 42.5794C49.913 42.7836 49.3352 43.1795 48.7103 43.2043Z" fill="#F07D29"/>
<path d="M45.7573 58.286C46.8091 58.9109 48.9214 60.949 49.9336 61.9377C50.7714 62.7544 50.0697 63.4375 49.258 62.6628C45.3155 58.8961 44.8824 59.0607 45.7573 58.286Z" fill="#F07D29"/>
<path d="M55.7628 51.3325C55.717 52.0329 55.4138 51.8732 49.7117 51.4562C49.0101 51.4067 49.1858 50.7076 49.7117 50.6816C49.9357 50.6568 55.8172 50.5071 55.7628 51.3325Z" fill="#F07D29"/>
<path d="M44.4834 37.3762C43.9327 37.276 43.9339 36.8515 44.1827 36.6263C45.3632 35.5559 46.436 34.3779 47.7589 33.4993C48.2093 33.1998 48.8317 33.7715 48.3095 34.2244C44.5626 37.4777 44.9078 37.2005 44.4834 37.3762Z" fill="#F07D29"/>
<path d="M226.712 105.333C237.817 105.413 235.737 107.807 232.064 132.445C225.704 175.113 225.986 174.789 222.46 176.565C218.934 178.34 189.77 193.269 182.742 196.198C180.166 197.272 172.938 195.295 159.406 191.746C148.527 188.892 109.608 178.72 101.505 176.289C98.1777 175.29 98.0317 173.392 99.9299 171.937C103.738 169.019 130.841 161.379 137.222 159.331C137.522 159.234 137.889 159.232 137.822 158.731C137.567 156.834 137.218 158.567 148.951 110.709C150.221 105.531 151.377 102.686 156.279 102.806C170.035 103.143 220.284 105.285 226.711 105.331L226.712 105.333ZM173.638 104.907C154.981 104.14 153.256 103.157 151.503 106.808C150.23 109.459 151.207 106.733 142.499 143.224C138.9 158.306 137.872 158.331 141.373 158.882L220.083 171.387C223.335 171.912 222.809 173.564 223.659 173.313C224.335 173.113 224.111 173.363 231.538 125.142C233.764 110.684 235.066 108.354 230.488 107.233C229.463 106.982 175.363 104.979 173.637 104.907H173.638ZM179.766 195.147C184.593 194.672 192.248 189.273 216.508 177.79C231.666 170.614 217.575 174.31 144.826 160.907C138.197 159.686 139.394 159.172 104.683 171.287C94.2278 174.936 101.259 174.554 149.103 187.295C171.439 193.243 173.14 194.148 179.767 195.149L179.766 195.147Z" fill="#180B02"/>
<path d="M190.068 110.81C230.837 112.811 228.012 111.486 227.585 114.763C226.313 124.542 221.778 151.207 219.507 165.836C219.185 167.912 219.381 167.192 197.523 163.86C173.286 160.165 165.588 159.029 145.424 155.806C142.898 155.403 142.253 159.328 153.102 113.387C153.651 111.06 153.728 110.878 154.077 110.935C154.353 110.98 154.278 111.286 154.278 111.511C154.278 113.036 154.278 113.065 155.828 113.161C225.976 117.549 225.361 117.566 226.01 117.188C226.736 116.765 226.453 115.334 226.76 114.411C227.053 113.534 226.835 113.211 225.834 113.186C208.251 112.741 190.693 111.81 173.11 111.136C160.921 110.668 154.843 110.209 154.877 109.76C154.91 109.311 166.641 109.661 190.068 110.81ZM225.909 118.638C226.023 118.315 225.684 118.335 224.599 118.183C222.578 117.902 216.178 117.458 192.671 116.136C166.359 114.658 158.093 113.903 155.285 114.02C153.926 114.077 153.696 114.215 153.603 114.81C153.393 116.159 146.253 147.675 145.974 148.95C145.603 150.651 139.514 148.519 218.507 159.655C220.233 159.898 219.607 159.855 225.911 118.636L225.909 118.638ZM217.881 165.91C219.157 166.41 218.479 164.634 219.282 161.708C219.756 159.981 224.844 161.641 148.525 151.203C145.447 150.782 145.495 150.753 144.848 153.679C144.472 155.379 138.671 153.954 217.881 165.91Z" fill="#180B02"/>
<path d="M182.814 176.065C198.071 179.116 200.347 179.092 197.946 180.292C192.693 182.918 192.315 183.229 190.992 182.943C174.557 179.396 174.632 180.629 181.739 176.364C182.037 176.186 182.464 176.165 182.814 176.065Z" fill="#180B02"/>
<path d="M173.137 185.894C158.581 182.367 157.054 182.642 159.256 181.117C163.407 178.24 161.628 178.56 177.088 182.217C177.514 182.318 178.037 182.367 178.114 182.893C178.187 183.393 177.686 183.539 177.364 183.743C174.008 185.873 173.862 185.945 173.137 185.894Z" fill="#180B02"/>
<path d="M191.57 175.739C180.289 173.662 176.986 173.485 178.939 172.288C182.938 169.832 183.066 169.607 184.291 169.811C199.931 172.415 199.695 171.199 192.594 175.389C192.295 175.566 191.97 175.788 191.57 175.739Z" fill="#180B02"/>
<path d="M173.764 179.141C162.258 176.616 159.833 176.514 161.609 175.389C165.835 172.712 165.637 172.66 166.661 172.864C181.955 175.908 181.451 174.414 175.341 178.691C174.914 178.989 174.438 179.191 173.764 179.141Z" fill="#180B02"/>
<path d="M169.836 167.409C179.065 168.985 180.666 168.935 179.415 169.81C177.664 171.035 175.164 172.763 174.088 172.561C162.98 170.477 163.016 171.436 168.311 167.758C168.709 167.481 169.211 167.433 169.836 167.408V167.409Z" fill="#180B02"/>
<path d="M161.407 170.212C151.528 168.436 151.633 168.51 151.578 168.211C151.555 168.086 154.702 164.094 159.807 165.685C165.382 167.421 169.817 165.396 162.859 169.737C162.429 170.005 161.957 170.237 161.407 170.212Z" fill="#180B02"/>
<path d="M155.078 181.516C145.899 179.315 146.073 179.54 145.974 179.065C145.823 178.34 146.849 178.115 147.324 177.615C148.873 175.987 150.601 175.688 152.751 176.414C160.005 178.863 162.081 176.865 155.828 181.242C155.578 181.391 155.303 181.542 155.078 181.516Z" fill="#180B02"/>
<path d="M202.902 177.79C194.898 176.364 192.477 176.776 199.975 173.112C201.302 172.464 201.644 172.642 208.153 173.938C209.347 174.175 209.23 174.696 208.354 175.138C202.941 177.869 203.602 177.539 202.902 177.789V177.79Z" fill="#180B02"/>
<path d="M157.857 175.615C153.105 174.539 151.632 174.466 152.63 173.689C153.207 173.24 156.281 170.818 157.007 170.963C162.251 172.005 163.83 172.083 162.885 172.763C161.956 173.433 158.983 175.49 157.857 175.615Z" fill="#180B02"/>
<path d="M210.203 178.09C210.078 178.791 210.25 178.636 203.975 181.767C203.074 182.216 202.524 181.193 203.475 180.741C210.183 177.551 210.002 177.489 210.203 178.09Z" fill="#180B02"/>
<path d="M190.793 122.34C192.211 122.573 192.195 122.782 192.17 123.14C192.115 123.965 191.82 123.869 187.994 123.566C155.227 120.967 155.781 121.165 155.905 120.164C155.971 119.621 156.733 119.603 157.438 119.66C158.064 119.71 188.15 121.907 190.794 122.34H190.793Z" fill="#180B02"/>
<path d="M190.796 127.718C190.744 128.543 190.75 128.366 177.215 127.292C175.89 127.187 157.328 125.633 156.005 125.391C155.103 125.227 155.155 124.391 156.105 124.391C159.581 124.391 190.868 126.592 190.796 127.718Z" fill="#180B02"/>
<path d="M185.358 134.846C153.98 131.373 153.979 131.64 154.029 130.87C154.078 130.145 151.903 130.098 182.267 133.045C188.97 133.696 188.897 133.746 188.845 134.421C188.748 135.672 185.584 134.871 185.358 134.846Z" fill="#180B02"/>
<path d="M209.302 140.299C196.371 151.077 196.495 151.281 195.971 150.703C195.52 150.205 195.489 150.165 208.327 139.574C209.575 138.544 210.353 139.424 209.302 140.299Z" fill="#180B02"/>
<path d="M211.631 146.751C207.955 144.174 207.65 144.121 208.055 143.574C208.352 143.172 208.757 143.497 209.03 143.674C215.23 147.667 214.881 146.894 207.205 149.376C206.279 149.676 205.857 148.737 206.955 148.377C211.522 146.872 209.73 147.526 211.631 146.751Z" fill="#180B02"/>
<path d="M196.1 140.924C198.527 144.475 198.795 144.641 198.275 145.001C197.819 145.318 197.808 145.364 194.673 140.774C193.566 139.153 195.975 139.631 201.076 139.873C202.051 139.92 202.001 140.952 201.026 140.924C196.424 140.79 196.526 140.649 196.1 140.924Z" fill="#180B02"/>
<path d="M181.318 157.806C181.357 159.882 178.271 159.707 178.416 157.806C178.571 155.78 181.283 155.981 181.318 157.806ZM179.942 157.005C178.916 157.055 178.665 158.515 179.741 158.631C180.741 158.739 181.242 157.206 179.942 157.005Z" fill="#180B02"/>
<path d="M184.817 157.581C186.318 157.806 186.268 159.833 184.768 159.807C183.392 159.783 183.092 157.681 184.817 157.581Z" fill="#180B02"/>
<path d="M175.061 156.105C176.611 156.331 176.337 158.33 174.985 158.307C173.535 158.281 173.46 156.206 175.061 156.105Z" fill="#180B02"/>
<path d="M184.843 107.909C184.895 106.684 187.028 106.659 186.993 108.11C186.954 109.785 184.77 109.635 184.843 107.909Z" fill="#180B02"/>
<path d="M223.482 113.86C223.957 114.71 224.533 114.636 225.258 114.26C224.758 114.911 224.482 115.511 224.932 116.311C224.332 115.786 223.757 115.585 223.007 116.01C223.783 115.41 223.682 114.687 223.482 113.86Z" fill="#180B02"/>
<path d="M183.469 108.059C183.319 108.959 182.18 108.734 182.168 107.984C182.156 107.258 183.319 106.957 183.469 108.059Z" fill="#180B02"/>
<path d="M221.461 115.562C220.711 115.486 220.835 114.529 221.361 114.46C222.035 114.376 222.262 115.462 221.461 115.562Z" fill="#180B02"/>
<path d="M121.238 169.111C135.145 172.313 135.897 172.141 134.045 173.238C130.697 175.221 130.267 175.544 129.017 175.239C114.323 171.662 110.533 171.763 121.238 169.111Z" fill="#180B02"/>
<path d="M175.191 191.897C173.808 192.4 107.845 174.517 104.595 173.283C104.406 173.211 104.415 173.06 104.672 173.108C106.811 173.506 125.12 178.282 173.714 191.246C174.19 191.372 174.714 191.42 175.191 191.897Z" fill="#180B02"/>
<path d="M147.975 167.76C137.821 165.884 132.215 165.227 134.645 164.359C141.691 161.838 139.847 162.381 142.624 162.833C155.055 164.854 154.679 164.283 148.551 167.585C148.376 167.71 148.151 167.711 147.975 167.76Z" fill="#180B02"/>
<path d="M130.542 165.71C142.198 167.961 144.501 168.114 143.173 168.887C138.803 171.426 138.947 171.409 138.245 171.238C127.257 168.566 124.017 168.169 125.414 167.611C127.144 166.92 128.867 166.06 130.542 165.71Z" fill="#180B02"/>
<path d="M142.924 178.566C133.095 176.19 131.898 176.247 133.169 175.439C134.575 174.547 136.893 172.097 142.148 173.938C147.672 175.873 150.302 174.213 144.225 178.165C143.825 178.39 143.399 178.49 142.924 178.565V178.566Z" fill="#180B02"/>
<path d="M154.152 170.637C149.675 173.739 149.899 173.792 148.925 173.589C139.138 171.546 140.473 172.19 145.023 169.237C146.024 168.587 146.044 168.783 153.578 170.312C153.702 170.338 153.826 170.437 154.152 170.637Z" fill="#180B02"/>
<path d="M181.138 183.168C185.265 184.244 188.593 184.746 186.916 185.694C182.091 188.425 183.517 188.488 177.261 186.919C176.885 186.825 176.512 186.694 176.436 186.268C176.361 185.842 176.762 185.742 177.036 185.568C181.06 183.012 180.387 183.468 181.138 183.168Z" fill="#180B02"/>
<path d="M195.846 185.219C195.871 186.019 196.021 185.538 183.341 191.746C182.06 192.374 181.521 191.566 183.066 190.796C196.162 184.273 195.647 184.268 195.846 185.219Z" fill="#180B02"/>
<path d="M78.5217 75.7678C85.3252 75.5673 85.0752 80.4194 87.9511 91.8756C87.9511 91.9004 97.2022 128.817 97.1304 130.418C96.9733 133.919 99.734 131.662 125.543 140.972C126.444 141.298 132.82 143.451 134.547 144.549C136.795 145.978 137.127 148.137 134.121 149.101C129.151 150.696 90.9024 160.758 85.9241 162.057C57.1622 169.566 55.0128 170.53 50.4577 168.511C48.0831 167.457 24.3081 155.58 14.4914 150.528C12.4125 149.458 9.76441 149.002 8.93903 143.7C-0.795936 81.1222 -1.53593 81.1816 1.78537 79.4702C4.49042 78.0769 68.3153 76.0673 78.5205 75.769L78.5217 75.7678ZM42.7052 78.6436C3.53759 80.1335 2.50061 79.365 1.53664 82.57C1.05528 84.1688 10.4153 144.273 10.9165 145.774C11.1417 146.449 11.4572 146.593 11.8668 145.974C13.1872 143.978 11.6577 144.706 93.9786 131.818C95.9289 131.512 95.9759 130.619 95.4797 128.691C90.2082 108.217 84.7275 82.794 83.6497 80.3191C81.6785 75.7901 82.4222 77.1327 42.7052 78.6436ZM55.2108 168.11C59.0122 167.634 133.822 147.5 133.847 147.475C136.423 146.15 133.4 144.662 98.5312 133.769C95.0045 132.668 98.2528 132.652 53.461 139.721C10.9387 146.433 7.58898 145.378 17.6704 150.402C53.1801 168.097 52.21 167.935 55.2108 168.11Z" fill="#180B02"/>
<path d="M91.2297 127.342C91.6059 128.993 95.442 127.738 17.3716 139.923C15.6454 140.193 15.6256 139.973 15.3954 138.473C7.13056 84.4983 6.14184 85.7247 8.24178 85.5724C8.26653 85.5724 80.0717 81.7475 80.1236 82.7969C80.1472 83.272 79.9492 83.3747 76.5214 83.522C16.0463 86.1206 15.9189 86.086 8.86545 86.2233C7.68988 86.2469 8.04998 86.5451 8.49051 88.723C8.82338 90.3737 8.81472 90.4146 10.5669 90.2995C74.0218 86.1578 76.2962 86.1479 80.0482 86.1231C80.3526 86.1206 80.8476 85.9746 80.9663 85.5663C81.074 85.1987 80.8278 84.658 80.73 84.2991C80.5939 83.7942 81.0233 83.4762 81.2584 84.1308C81.9266 85.9969 83.9127 95.3049 91.2272 127.341L91.2297 127.342ZM9.7428 90.9491C8.44225 90.9986 8.58208 89.0224 13.2448 118.964C13.4712 120.414 13.3413 119.785 74.747 112.561C84.3508 111.431 84.3062 111.134 84.4015 112.036C84.4807 112.786 84.253 112.596 79.5742 113.162C29.4887 119.219 24.1479 119.806 14.2694 120.716C13.194 120.815 13.595 120.791 15.2952 132.046C15.4957 133.371 15.3967 132.755 41.6317 129.295C93.0822 122.509 89.4008 123.693 88.9776 121.842C80.9515 86.6861 81.8994 86.7678 80.1236 86.8767C70.2414 87.4806 20.4467 90.5482 9.74156 90.9541L9.7428 90.9491ZM15.6207 134.345C16.2963 138.797 16.0216 139.174 17.5461 138.898C21.5233 138.176 22.9253 138.008 60.8158 132.27C91.3064 127.652 90.8313 128.442 90.0034 126.443C89.4552 125.116 90.1061 123.275 88.0272 123.967C86.5782 124.448 14.9945 133.07 15.6194 134.346L15.6207 134.345Z" fill="#180B02"/>
<path d="M50.1097 81.271C50.1097 82.5455 47.8835 82.772 47.9838 81.021C48.058 79.7205 50.1097 79.52 50.1097 81.271Z" fill="#180B02"/>
<path d="M11.568 86.6215C11.5927 87.5978 10.6424 88.4479 12.0679 88.8736C11.2425 88.8241 10.5669 88.5989 10.0917 89.3488C10.2402 88.5729 10.4419 87.8725 9.5918 87.4481C10.1165 87.0484 10.3677 87.7228 10.6424 87.6213C10.9171 87.4976 11.1176 87.1214 11.568 86.6215Z" fill="#180B02"/>
<path d="M51.8084 81.646C51.5077 81.651 51.2083 80.3702 52.0831 80.3702C52.958 80.3702 53.2092 81.6213 51.8084 81.646Z" fill="#180B02"/>
<path d="M14.0165 88.0993C13.8915 88.7997 12.9548 88.6747 12.9659 88.0238C12.9783 87.2987 13.9918 87.2244 14.0165 88.0993Z" fill="#180B02"/>
<path d="M50.9614 142.774C52.1123 142.774 52.7273 143.151 55.8122 145.174C56.1154 145.372 56.5448 145.551 56.4644 146C56.3245 146.777 46.6626 147.982 45.5848 148.376C42.8649 149.368 41.3527 147.905 38.1564 145.85C36.6046 144.853 38.1069 144.975 50.9627 142.774H50.9614Z" fill="#180B02"/>
<path d="M87.8276 140.623C86.678 140.85 86.2078 140.753 83.1006 138.798C82.7479 138.576 82.1502 138.398 82.2504 137.897C82.3507 137.396 82.9508 137.42 83.3765 137.346C93.2253 135.64 94.6855 134.886 99.0339 136.896C102.213 138.364 103.692 137.481 87.8276 140.623Z" fill="#180B02"/>
<path d="M96.432 144.3C95.9569 144.3 96.0447 144.301 91.955 141.998C91.731 141.872 91.4315 141.773 91.4798 141.474C91.5318 141.15 91.8795 141.197 92.1047 141.148C107.875 137.837 102.646 138.513 109.362 140.523C111.409 141.136 105.587 142.149 96.432 144.3Z" fill="#180B02"/>
<path d="M60.4367 145.65C59.7858 145.449 53.5602 142.38 55.7592 142.023C66.145 140.334 65.7886 140.221 66.5138 140.722C71.9437 144.47 72.2159 143.448 60.4354 145.65H60.4367Z" fill="#180B02"/>
<path d="M73.4451 143.224C72.4948 143.148 68.3679 140.723 68.5176 140.123C68.6921 139.422 72.371 139.501 76.0215 138.521C78.2477 137.924 80.0791 138.265 81.7236 139.822C82.2508 140.321 83.4227 140.572 83.2989 141.198C83.1715 141.848 82.0256 141.656 81.3475 141.798C79.0767 142.274 74.2693 143.099 73.4439 143.224H73.4451Z" fill="#180B02"/>
<path d="M85.6992 146.701C84.8738 146.601 85.2846 146.685 81.3718 144.024C80.2247 143.245 81.5673 143.147 88.3745 141.898C89.3496 141.719 89.8087 142.111 92.9766 144.149C94.4058 145.069 92.6524 145.124 85.6992 146.701Z" fill="#180B02"/>
<path d="M77.0733 148.626C75.7975 148.325 73.3387 146.685 72.2707 145.924C71.7164 145.53 71.6953 145.173 72.4452 145.023C78.0979 143.896 78.1003 143.793 78.5483 144.048C79.8705 144.807 81.1257 145.677 82.3002 146.649C83.3719 147.531 81.9005 147.55 77.0733 148.626Z" fill="#180B02"/>
<path d="M62.9878 110.058C60.7356 110.083 61.1625 110.134 60.6366 108.233C59.5848 104.431 58.7384 100.604 57.835 96.7778C57.3859 94.8771 57.2312 95.5379 75.3177 93.777C76.8929 93.6236 76.4895 93.8092 79.6945 106.133C80.338 108.61 81.9207 107.808 62.9865 110.059L62.9878 110.058ZM62.1871 108.907C64.7387 108.557 74.0443 107.476 77.9447 107.207C79.296 107.114 78.8629 107.541 75.9685 95.6765C75.7483 94.7744 75.5689 94.9031 72.4171 95.2013C57.8115 96.5848 58.6023 96.2544 58.8361 97.1268C61.9545 108.811 61.5127 109.057 62.1871 108.907Z" fill="#180B02"/>
<path d="M13.4399 98.8037C13.4139 98.0786 13.4176 98.607 47.2802 95.5517C47.7814 95.5059 48.4546 95.3017 48.5053 96.0764C48.5548 96.8263 47.8791 96.7706 47.3792 96.8015C12.8063 98.9918 13.4634 99.5029 13.4386 98.8025L13.4399 98.8037Z" fill="#180B02"/>
<path d="M15.9182 104.132C15.318 104.132 14.7748 104.206 14.7426 103.706C14.7018 103.08 14.8428 103.06 20.0451 102.629C49.0606 100.231 49.0532 99.9551 49.1077 100.805C49.177 101.881 15.9429 104.132 15.9182 104.132Z" fill="#180B02"/>
<path d="M21.9477 125.491C21.548 125.416 21.0469 125.516 21.0469 124.991C21.0469 124.541 21.5221 124.494 21.897 124.441C44.3764 121.303 44.3294 120.94 44.4321 121.815C44.5298 122.64 44.5336 122.515 21.9477 125.491Z" fill="#180B02"/>
<path d="M55.0371 129.368C56.8883 129.32 57.0875 132.12 55.1608 132.295C53.2118 132.47 53.0856 129.42 55.0371 129.368ZM55.8624 130.919C55.7127 129.668 54.2129 129.818 54.2364 130.769C54.2637 131.869 55.8117 131.944 55.8624 130.919Z" fill="#180B02"/>
<path d="M51.3603 131.668C51.0596 133.318 49.0723 133.069 49.0587 131.768C49.045 130.392 51.1091 130.068 51.3603 131.668Z" fill="#180B02"/>
<path d="M61.0628 130.193C60.9626 131.794 58.849 131.618 58.8614 130.143C58.8725 128.867 60.9118 128.642 61.0628 130.193Z" fill="#180B02"/>
<path d="M43.1302 156.106C42.2046 155.805 43.0423 156.281 36.7771 153.179C36.5259 153.055 36.1262 153.005 36.2017 152.604C36.2512 152.204 36.6509 152.15 36.9776 152.079C52.7154 148.667 52.2625 148.921 52.8342 149.203C54.465 150.004 56.0005 150.985 57.4115 152.13C58.5685 153.073 58.0624 152.83 43.1302 156.107V156.106Z" fill="#180B02"/>
<path d="M61.6373 158.932C61.1126 158.932 60.7303 158.843 57.5599 156.756C55.2533 155.238 57.8396 155.426 70.9912 152.105C72.4674 151.732 72.8844 152.204 76.0684 154.38C76.6463 154.776 76.7948 155.259 75.8939 155.48C61.6472 158.999 62.0382 158.857 61.6373 158.932Z" fill="#180B02"/>
<path d="M60.9866 152.152C60.2615 152.228 60.3988 152.219 55.9094 149.076C55.4825 148.778 55.433 148.444 56.1099 148.3C69.4124 145.487 68.8729 145.586 69.5163 145.974C73.7917 148.546 73.9649 148.575 73.8932 149.05C73.814 149.575 61.0126 152.151 60.9879 152.151L60.9866 152.152Z" fill="#180B02"/>
<path d="M105.282 148.352C104.407 148.376 104.296 148.196 100.83 146.201C100.529 146.028 100.154 145.9 100.205 145.501C100.28 145.101 100.73 145.123 101.03 145.05C117.858 140.974 111.781 142.063 119.463 144C119.863 144.1 120.114 144.725 119.263 144.925C119.263 144.925 106.133 148.177 105.282 148.352Z" fill="#180B02"/>
<path d="M60.0284 164.711C64.3657 163.382 130.142 145.625 130.344 146.499C130.461 147.008 65.0735 164.283 60.1336 164.89C60.0086 164.905 59.625 164.833 60.0284 164.711Z" fill="#180B02"/>
<path d="M91.9545 151.477C91.2293 151.552 91.1167 151.358 87.6531 149.15C86.9799 148.721 87.2027 148.298 87.7286 148.175C97.7754 145.817 97.0787 145.731 98.6082 146.6C102.299 148.694 102.21 148.726 102.135 148.951C102.059 149.326 92.3554 151.477 91.9557 151.477H91.9545Z" fill="#180B02"/>
<path d="M84.8753 148.826C85.9011 149.251 87.8043 150.749 88.6767 151.427C90.0552 152.498 88.4515 152.375 80.2225 154.428C79.6223 154.577 79.6087 154.587 75.8952 151.927C74.1751 150.694 77.0225 150.851 84.8753 148.826Z" fill="#180B02"/>
<path d="M31.976 150.777C30.7757 150.302 27.2478 148.478 26.7738 148.225C25.5215 147.558 25.7071 147.129 26.8976 146.9C34.6415 145.414 33.1999 144.903 38.8537 148.301C39.1037 148.45 39.5789 148.526 39.4787 148.976C39.3784 149.627 39.3289 149.552 31.9748 150.777H31.976Z" fill="#180B02"/>
<path d="M52.8093 161.057C52.1336 160.957 49.3543 159.66 48.1565 158.806C46.5528 157.662 48.7059 157.42 53.6099 156.255C54.0343 156.153 54.2361 156.153 58.212 158.755C59.6635 159.706 57.1354 160.007 52.8093 161.057Z" fill="#180B02"/>
<path d="M51.8611 163.783C52.6617 164.181 52.955 164.404 52.7112 164.834C52.429 165.33 52.5342 165.212 42.282 160.307C39.3047 158.883 38.91 158.832 39.1055 158.132C39.3357 157.307 39.1426 157.456 51.8611 163.784V163.783Z" fill="#180B02"/>
<path d="M31.9487 154.354C31.8237 155.38 30.9686 154.813 28.4727 153.553C25.4657 152.037 24.3681 151.625 24.8458 150.927C25.0697 150.601 25.0413 150.483 31.1741 153.604C31.5032 153.771 31.8732 153.905 31.9487 154.354Z" fill="#180B02"/>
</svg>
