<svg width="235" height="182" viewBox="0 0 235 182" fill="none" xmlns="http://www.w3.org/2000/svg">
<path fill-rule="evenodd" clip-rule="evenodd" d="M218.487 2.17225C218.479 0.146554 218.437 0.140365 216.41 0.146553C143.112 0.344544 96.3114 0.178727 66.4284 0.0723066C19.8225 -0.0947483 14.3691 -0.11331 13.7293 1.63149C13.6452 1.86289 13.644 2.12523 13.644 2.42221C13.6217 20.3614 13.5945 36.5051 13.5648 51.0327L15.093 50.9585L15.0633 39.2188C14.9618 1.926 14.9618 1.62035 16.1213 1.72429C18.3735 1.926 162.187 1.69954 162.137 1.69954C162.268 1.69954 162.416 1.64386 162.551 1.59312C162.705 1.53497 162.843 1.48299 162.917 1.53125C163.505 1.90248 160.211 8.40896 130.973 66.1444C124.95 78.0399 117.824 92.1097 109.405 108.748C133.259 115.843 136.53 117.648 136.224 120.2C136.042 121.719 134.968 122.004 125.19 124.597C124.026 124.906 122.741 125.247 121.318 125.627C112.042 128.103 104.266 130.178 97.68 131.929C89.9232 147.269 82.1706 162.61 74.4222 177.954L74.4 178.011C74.202 178.513 74.0498 178.899 73.7936 179.194C72.9398 180.172 70.9302 180.146 62.247 180.029C54.1975 179.921 40.4123 179.736 16.4963 180.205C15.3962 180.226 15.0683 180.03 15.0707 178.854C15.1215 158.21 15.1475 139.969 15.1574 123.853C14.5751 123.554 13.9877 123.266 13.3952 122.988C13.274 176.826 13.394 181.213 14.655 181.571C14.7676 181.603 14.8888 181.603 15.0188 181.603C90.7615 181.594 138.44 181.704 168.417 181.774C214.323 181.88 218.718 181.89 218.821 181.229C218.832 181.16 218.795 181.082 218.754 180.996C218.702 180.906 218.671 180.806 218.662 180.702C218.612 177.1 218.577 166.246 218.556 151.532C213.672 153.997 208.792 156.468 203.915 158.945C185.256 168.413 182.513 169.805 179.929 169.555C179.484 169.512 179.043 169.42 178.526 169.313C178.297 169.265 178.067 169.218 177.838 169.173C168.482 167.36 102.131 149.76 100.277 148.813C92.974 145.082 112.772 139.468 126.334 135.622C132.861 133.772 137.943 132.33 137.87 131.705C137.658 129.89 138.13 128.164 138.599 126.446C138.737 125.94 138.876 125.435 138.996 124.928C149.515 80.6089 149.719 80.2686 150.859 78.3852L150.911 78.2985L150.951 78.2317C152.609 75.4623 154.253 75.5341 165.538 76.0241C167.509 76.1107 169.775 76.2085 172.386 76.3063C175.453 76.4213 180.038 76.6008 185.275 76.8037H185.285C196.137 77.2269 209.783 77.7565 218.513 78.0622L218.51 53.7724V53.2836C218.509 28.2006 218.508 7.85088 218.488 2.17101H218.487V2.17225ZM93.3564 176.177C91.254 176.177 91.2292 172.774 93.3316 172.725C95.606 172.673 95.6333 176.177 93.3564 176.177ZM97.5315 165.872C94.355 165.897 94.3797 161.263 97.4573 161.32C98.6576 161.342 99.6933 162.42 99.7069 163.622C99.7193 164.722 98.6316 165.864 97.5315 165.872ZM122.268 171.825C120.167 171.825 120.292 168.399 122.418 168.474C124.619 168.55 124.644 171.825 122.268 171.825ZM128.046 96.9654C125.895 97.0186 125.844 93.9646 127.97 93.9386C129.996 93.9139 129.922 96.9184 128.046 96.9654ZM132.623 88.6621C130.798 88.625 130.497 85.5933 132.748 85.6353C134.724 85.6712 134.599 88.7005 132.623 88.6621ZM142.628 177.577C139.926 177.528 140.301 173.602 142.677 173.651C145.178 173.702 145.379 177.628 142.628 177.577ZM156.434 55.2227C153.558 55.2784 153.507 50.8075 156.584 50.8954C157.583 50.9238 158.61 51.9954 158.634 53.0213C158.66 54.1474 157.609 55.1992 156.434 55.2227ZM167.239 67.5043C165.388 67.607 165.288 64.7275 167.164 64.7535C168.964 64.7782 169.015 67.4066 167.239 67.5043ZM168.015 12.0792C165.764 12.0409 165.789 8.7901 167.915 8.72822C170.09 8.66511 170.216 12.1176 168.015 12.0792ZM174.243 62.0014C172.443 61.7514 172.767 59.3929 174.468 59.5005C175.893 59.5909 176.169 61.9024 174.243 62.0014ZM202.456 16.7308C205.257 16.8595 204.856 20.8205 202.38 20.8329C199.879 20.8453 199.804 16.6095 202.456 16.7308ZM188.224 6.27437C190.399 6.14939 190.6 9.62661 188.349 9.67735C186.147 9.72684 186.098 6.39812 188.224 6.27437ZM176.193 21.4331C176.218 18.1068 181.209 18.1068 181.246 21.4083C181.284 24.7853 176.169 24.7098 176.193 21.4331ZM191.225 66.528C188.748 66.4278 188.648 62.6387 191.325 62.6511C194.126 62.6634 193.701 66.6282 191.225 66.528ZM190.7 53.5224C185.699 54.3317 178.981 51.6737 179.245 50.4214C179.346 49.9363 180.253 49.8349 181.54 49.6913C182.571 49.5762 183.846 49.4339 185.147 49.0454C194.9 46.1361 196.803 34.4138 189.7 25.8594C186.149 21.5828 202.364 26.0104 202.456 39.2399C202.505 46.4418 197.43 52.4335 190.7 53.5224ZM202.355 64.6273C200.58 64.6273 200.629 62.2501 202.23 62.2266C203.957 62.2006 203.931 64.6273 202.355 64.6273ZM205.307 177.303C202.681 177.29 202.706 173.413 205.307 173.401C207.858 173.389 207.908 177.315 205.307 177.303ZM210.685 32.5119C208.559 32.4376 208.858 29.3861 210.785 29.4356C212.811 29.4851 212.861 32.5874 210.685 32.5119Z" fill="#D1D0D6"/>
<path d="M128.62 32.211C118.465 35.312 86.6755 33.3371 80.273 33.3371C79.6728 33.3371 79.3189 33.1873 79.2471 32.487C78.7992 28.0878 83.5794 24.4473 86.5753 26.0089C88.9561 27.2501 87.4811 23.0675 92.3282 20.532C96.2335 18.489 97.4202 21.6742 98.4807 20.3315C99.9916 18.4185 103.658 18.1561 104.959 20.3563C105.284 20.907 105.612 20.5865 105.959 20.3315C110.129 17.2627 115.919 17.4768 119.665 22.283C120.015 22.7334 120.265 22.9067 120.815 22.6827C124.713 21.0988 129.548 23.7828 130.595 28.1101C131.097 30.1853 131.144 30.684 130.67 30.8115C130.12 30.9587 129.841 29.9366 129.695 29.3859C128.15 23.5452 122.514 23.0032 121.016 23.8335C118.861 25.0276 119.038 21.1136 113.888 19.8316C107.583 18.2625 106.287 23.3064 104.459 21.4069C102.434 19.3032 100.422 19.5916 98.7059 22.0578C98.4089 22.4847 98.1305 22.4575 97.7803 22.2063C93.8279 19.3824 89.8397 23.1863 89.0267 26.5596C88.7062 27.8861 88.6777 27.9059 87.4254 27.4097C83.8541 25.9966 80.8274 27.7599 80.3967 31.4116C80.273 32.4622 80.7222 32.5365 81.4968 32.5377C128.619 32.6119 128.218 31.5626 128.619 32.2122L128.62 32.211Z" fill="#D1D0D6"/>
<path d="M33.1293 34.4368C18.9977 34.7684 13.8004 16.2117 26.2256 9.97623C40.9635 2.58251 53.7735 21.3149 42.1329 31.1353C39.5281 33.333 36.505 34.3576 33.1293 34.4368ZM20.7239 21.331C20.6286 31.4855 34.1056 36.6877 41.5587 29.4845C49.1381 22.1576 43.2095 9.20036 30.9538 10.4254C25.201 11.0008 20.7771 15.7786 20.7239 21.331Z" fill="#D1D0D6"/>
<path d="M26.9988 163.896C26.0732 163.866 25.6512 163.546 25.6748 162.495C25.7292 159.869 26.4222 157.59 28.7003 156.017C32.5488 153.36 34.2255 156.29 35.3788 154.741C37.8747 151.386 42.7181 150.573 46.2089 152.965C46.861 153.412 47.278 153.584 47.9599 152.89C48.5251 152.307 49.2942 151.966 50.1057 151.938C50.9172 151.91 51.708 152.197 52.312 152.74C53.1138 153.464 53.6633 153.592 54.6879 153.14C57.4659 151.917 60.6375 154.658 61.667 157.666C61.8452 158.19 62.0408 158.44 62.6917 158.142C66.3644 156.457 69.4877 160.569 69.2192 163.444C69.1251 164.445 68.619 164.539 63.5418 164.57C27.3255 164.784 44.5866 164.47 27.0001 163.894V163.896H26.9988ZM67.5424 163.271C69.3936 163.094 67.0413 157.539 62.5147 159.169C61.6138 159.493 61.1696 159.618 60.8639 158.393C60.1512 155.538 56.7878 152.616 53.6868 154.817C52.4865 155.668 51.4099 150.89 48.0081 154.192C46.3574 155.793 45.4046 151.68 40.3793 152.791C35.8998 153.782 36.1274 156.868 34.2267 156.267C28.1484 154.344 25.0226 162.745 27.7487 162.895C37.3278 163.421 57.9609 164.185 67.5412 163.27L67.5424 163.271Z" fill="#D1D0D6"/>
<path d="M117.179 47.0389C116.362 48.9767 113.662 51.9466 111.988 54.622C111.641 55.1751 111.087 55.4226 110.437 55.0476C106.312 52.6693 107.435 51.4219 108.536 52.1718C110.487 53.4984 110.596 54.3274 111.412 52.9217C112.777 50.5755 114.486 48.4706 116.414 46.607C117.538 45.5218 117.585 46.0737 117.179 47.0389Z" fill="#D1D0D6"/>
<path d="M121.28 55.1923C120.93 55.9038 120.049 57.338 117.866 60.8004C117.518 61.3523 117.067 61.8473 116.34 61.6753C113.293 60.9575 113.543 58.891 114.864 59.4479C115.39 59.6706 115.834 60.4118 116.415 60.1742C117.288 59.8154 117.97 57.1487 120.579 54.9399C121.3 54.3298 121.929 53.8732 121.279 55.1935L121.28 55.1923Z" fill="#D1D0D6"/>
<path d="M40.3815 42.1402C40.457 43.4148 39.4547 43.3405 39.2059 42.5906C37.2433 36.667 37.0812 36.5148 37.6554 36.2376C38.5315 35.8156 39.3309 39.1394 40.3815 42.1402Z" fill="#D1D0D6"/>
<path d="M26.9238 37.6133C25.1975 43.016 25.1765 43.6298 24.5726 43.4404C23.8017 43.2004 24.1346 42.8267 25.9487 37.1121C26.1788 36.3882 27.0995 36.387 26.9238 37.6121V37.6133Z" fill="#D1D0D6"/>
<path d="M48.7103 16.2042C45.9594 16.0544 51.2359 14.0758 53.488 13.2529C53.7627 13.1526 54.0102 13.2034 54.1389 13.5028C54.4817 14.3059 52.2419 14.9902 50.512 15.5793C49.913 15.7834 49.3352 16.1794 48.7103 16.2042Z" fill="#D1D0D6"/>
<path d="M45.7573 31.2861C46.8091 31.911 48.9214 33.9491 49.9336 34.9378C50.7714 35.7545 50.0697 36.4376 49.258 35.663C45.3155 31.8962 44.8824 32.0608 45.7573 31.2861Z" fill="#D1D0D6"/>
<path d="M55.7628 24.3325C55.717 25.0329 55.4138 24.8732 49.7117 24.4562C49.0101 24.4067 49.1858 23.7076 49.7117 23.6816C49.9357 23.6568 55.8172 23.5071 55.7628 24.3325Z" fill="#D1D0D6"/>
<path d="M44.4834 10.3761C43.9327 10.2758 43.9339 9.85141 44.1827 9.62619C45.3632 8.5558 46.436 7.37776 47.7589 6.49917C48.2093 6.19971 48.8317 6.77141 48.3095 7.22431C44.5626 10.4776 44.9078 10.2004 44.4834 10.3761Z" fill="#D1D0D6"/>
<path d="M226.712 78.3323C237.817 78.4127 235.737 80.8072 232.064 105.445C225.704 148.113 225.986 147.789 222.46 149.564C218.934 151.34 189.77 166.269 182.742 169.198C180.166 170.272 172.938 168.294 159.406 164.745C148.527 161.892 109.608 151.72 101.505 149.289C98.1777 148.29 98.0317 146.392 99.9299 144.936C103.738 142.019 130.841 134.379 137.222 132.331C137.522 132.234 137.889 132.232 137.822 131.73C137.567 129.833 137.218 131.567 148.951 83.709C150.221 78.5303 151.377 75.6854 156.279 75.8054C170.035 76.1432 220.284 78.2852 226.711 78.331L226.712 78.3323ZM173.638 77.9066C154.981 77.1394 153.256 76.1568 151.503 79.8073C150.23 82.4591 151.207 79.7331 142.499 116.224C138.9 131.306 137.872 131.331 141.373 131.881L220.083 144.387C223.335 144.912 222.809 146.564 223.659 146.312C224.335 146.113 224.111 146.363 231.538 98.1413C233.764 83.6842 235.066 81.3541 230.488 80.233C229.463 79.9818 175.363 77.9784 173.637 77.9066H173.638ZM179.766 168.147C184.593 167.672 192.248 162.273 216.508 150.79C231.666 143.614 217.575 147.31 144.826 133.907C138.197 132.686 139.394 132.172 104.683 144.287C94.2278 147.936 101.259 147.554 149.103 160.294C171.439 166.243 173.14 167.147 179.767 168.148L179.766 168.147Z" fill="white"/>
<path d="M190.068 83.8102C230.837 85.8112 228.012 84.4859 227.585 87.7626C226.313 97.5421 221.778 124.207 219.507 138.836C219.185 140.912 219.381 140.192 197.523 136.859C173.286 133.164 165.588 132.028 145.424 128.806C142.898 128.403 142.253 132.328 153.102 86.3866C153.651 84.0602 153.728 83.8783 154.077 83.9352C154.353 83.9797 154.278 84.2854 154.278 84.5106C154.278 86.0364 154.278 86.0648 155.828 86.1614C225.976 90.5493 225.361 90.5654 226.01 90.188C226.736 89.7648 226.453 88.3343 226.76 87.4112C227.053 86.5338 226.835 86.2108 225.834 86.1861C208.251 85.7406 190.693 84.8101 173.11 84.1357C160.921 83.6679 154.843 83.2088 154.877 82.7596C154.91 82.3104 166.641 82.6606 190.068 83.8102ZM225.909 91.6383C226.023 91.3153 225.684 91.3351 224.599 91.1829C222.578 90.902 216.178 90.4578 192.671 89.1362C166.359 87.6574 158.093 86.9026 155.285 87.0201C153.926 87.0771 153.696 87.2144 153.603 87.8096C153.393 89.1584 146.253 120.675 145.974 121.949C145.603 123.651 139.514 121.519 218.507 132.655C220.233 132.898 219.607 132.855 225.911 91.6358L225.909 91.6383ZM217.881 138.91C219.157 139.41 218.479 137.634 219.282 134.708C219.756 132.981 224.844 134.641 148.525 124.203C145.447 123.782 145.495 123.752 144.848 126.679C144.472 128.379 138.671 126.954 217.881 138.91Z" fill="white"/>
<path d="M182.814 149.065C198.071 152.116 200.347 152.091 197.946 153.292C192.693 155.918 192.315 156.228 190.992 155.942C174.557 152.396 174.632 153.628 181.739 149.364C182.037 149.186 182.464 149.165 182.814 149.065Z" fill="white"/>
<path d="M173.137 158.894C158.581 155.367 157.054 155.642 159.256 154.117C163.407 151.24 161.628 151.559 177.088 155.217C177.514 155.317 178.037 155.367 178.114 155.893C178.187 156.393 177.686 156.539 177.364 156.743C174.008 158.872 173.862 158.944 173.137 158.894Z" fill="white"/>
<path d="M191.57 148.738C180.289 146.662 176.986 146.485 178.939 145.287C182.938 142.832 183.066 142.607 184.291 142.811C199.931 145.415 199.695 144.198 192.594 148.388C192.295 148.565 191.97 148.788 191.57 148.738Z" fill="white"/>
<path d="M173.764 152.141C162.258 149.616 159.833 149.514 161.609 148.389C165.835 145.712 165.637 145.66 166.661 145.864C181.955 148.908 181.451 147.414 175.341 151.691C174.914 151.989 174.438 152.191 173.764 152.141Z" fill="white"/>
<path d="M169.836 140.409C179.065 141.985 180.666 141.935 179.415 142.81C177.664 144.035 175.164 145.763 174.088 145.561C162.98 143.477 163.016 144.436 168.311 140.758C168.709 140.481 169.211 140.433 169.836 140.408V140.409Z" fill="white"/>
<path d="M161.407 143.211C151.528 141.436 151.633 141.51 151.578 141.21C151.555 141.085 154.702 137.093 159.807 138.685C165.382 140.421 169.817 138.395 162.859 142.736C162.429 143.005 161.957 143.236 161.407 143.211Z" fill="white"/>
<path d="M155.078 154.516C145.899 152.315 146.073 152.54 145.974 152.065C145.823 151.34 146.849 151.115 147.324 150.615C148.873 148.987 150.601 148.688 152.751 149.414C160.005 151.863 162.081 149.865 155.828 154.242C155.578 154.391 155.303 154.542 155.078 154.516Z" fill="white"/>
<path d="M202.902 150.789C194.898 149.364 192.477 149.776 199.975 146.112C201.302 145.463 201.644 145.641 208.153 146.937C209.347 147.175 209.23 147.696 208.354 148.137C202.941 150.868 203.602 150.538 202.902 150.788V150.789Z" fill="white"/>
<path d="M157.857 148.614C153.105 147.538 151.632 147.465 152.63 146.688C153.207 146.239 156.281 143.818 157.007 143.962C162.251 145.004 163.83 145.082 162.885 145.763C161.956 146.432 158.983 148.489 157.857 148.614Z" fill="white"/>
<path d="M210.203 151.09C210.078 151.79 210.25 151.635 203.975 154.766C203.074 155.215 202.524 154.192 203.475 153.74C210.183 150.55 210.002 150.488 210.203 151.09Z" fill="white"/>
<path d="M190.793 95.34C192.211 95.5726 192.195 95.7818 192.17 96.1394C192.115 96.9648 191.82 96.8682 187.994 96.5651C155.227 93.9664 155.781 94.1644 155.905 93.1633C155.971 92.6201 156.733 92.6028 157.438 92.6597C158.064 92.7092 188.15 94.9069 190.794 95.34H190.793Z" fill="white"/>
<path d="M190.796 100.718C190.744 101.543 190.75 101.366 177.215 100.292C175.89 100.187 157.328 98.6328 156.005 98.3915C155.103 98.2269 155.155 97.3916 156.105 97.3916C159.581 97.3916 190.868 99.5918 190.796 100.718Z" fill="white"/>
<path d="M185.358 107.845C153.98 104.373 153.979 104.639 154.029 103.869C154.078 103.144 151.903 103.097 182.267 106.045C188.97 106.696 188.897 106.745 188.845 107.421C188.748 108.672 185.584 107.87 185.358 107.845Z" fill="white"/>
<path d="M209.302 113.299C196.371 124.077 196.495 124.281 195.971 123.703C195.52 123.205 195.489 123.165 208.327 112.574C209.575 111.544 210.353 112.424 209.302 113.299Z" fill="white"/>
<path d="M211.631 119.751C207.955 117.174 207.65 117.121 208.055 116.574C208.352 116.172 208.757 116.498 209.03 116.675C215.23 120.668 214.881 119.894 207.205 122.377C206.279 122.676 205.857 121.737 206.955 121.377C211.522 119.872 209.73 120.527 211.631 119.751Z" fill="white"/>
<path d="M196.1 113.924C198.527 117.475 198.795 117.641 198.275 118.001C197.819 118.318 197.808 118.364 194.673 113.774C193.566 112.153 195.975 112.631 201.076 112.873C202.051 112.92 202.001 113.952 201.026 113.924C196.424 113.79 196.526 113.649 196.1 113.924Z" fill="white"/>
<path d="M181.318 130.805C181.357 132.882 178.271 132.706 178.416 130.805C178.571 128.78 181.283 128.98 181.318 130.805ZM179.942 130.005C178.916 130.054 178.665 131.514 179.741 131.631C180.741 131.738 181.242 130.205 179.942 130.005Z" fill="white"/>
<path d="M184.817 130.58C186.318 130.805 186.268 132.832 184.768 132.806C183.392 132.783 183.092 130.68 184.817 130.58Z" fill="white"/>
<path d="M175.061 129.105C176.611 129.331 176.337 131.33 174.985 131.307C173.535 131.281 173.46 129.206 175.061 129.105Z" fill="white"/>
<path d="M184.843 80.909C184.895 79.6839 187.028 79.6592 186.993 81.1095C186.954 82.785 184.77 82.6352 184.843 80.909Z" fill="white"/>
<path d="M223.482 86.8596C223.957 87.7098 224.533 87.6355 225.258 87.2593C224.758 87.9102 224.482 88.5104 224.932 89.3098C224.332 88.7851 223.757 88.5846 223.007 89.0091C223.783 88.4089 223.682 87.6862 223.482 86.8596Z" fill="white"/>
<path d="M183.469 81.0581C183.319 81.959 182.18 81.7338 182.168 80.9839C182.156 80.2575 183.319 79.9568 183.469 81.0581Z" fill="white"/>
<path d="M221.461 88.562C220.711 88.4865 220.835 87.5288 221.361 87.4607C222.035 87.3766 222.262 88.4618 221.461 88.562Z" fill="white"/>
<path d="M121.238 142.111C135.145 145.313 135.897 145.141 134.045 146.238C130.697 148.221 130.267 148.544 129.017 148.239C114.323 144.662 110.533 144.763 121.238 142.111Z" fill="white"/>
<path d="M175.191 164.896C173.808 165.4 107.845 147.516 104.595 146.282C104.406 146.211 104.415 146.06 104.672 146.108C106.811 146.505 125.12 151.282 173.714 164.245C174.19 164.371 174.714 164.42 175.191 164.896Z" fill="white"/>
<path d="M147.975 140.76C137.821 138.884 132.215 138.227 134.645 137.358C141.691 134.838 139.847 135.381 142.624 135.833C155.055 137.853 154.679 137.283 148.551 140.584C148.376 140.709 148.151 140.71 147.975 140.76Z" fill="white"/>
<path d="M130.542 138.71C142.198 140.961 144.501 141.114 143.173 141.886C138.803 144.426 138.947 144.408 138.245 144.238C127.257 141.566 124.017 141.169 125.414 140.611C127.144 139.92 128.867 139.06 130.542 138.71Z" fill="white"/>
<path d="M142.924 151.565C133.095 149.189 131.898 149.246 133.169 148.438C134.575 147.546 136.893 145.096 142.148 146.937C147.672 148.873 150.302 147.212 144.225 151.164C143.825 151.39 143.399 151.49 142.924 151.564V151.565Z" fill="white"/>
<path d="M154.152 143.637C149.675 146.738 149.899 146.791 148.925 146.588C139.138 144.545 140.473 145.19 145.023 142.236C146.024 141.587 146.044 141.782 153.578 143.312C153.702 143.338 153.826 143.437 154.152 143.637Z" fill="white"/>
<path d="M181.138 156.168C185.265 157.244 188.593 157.746 186.916 158.694C182.091 161.425 183.517 161.488 177.261 159.919C176.885 159.825 176.512 159.694 176.436 159.268C176.361 158.842 176.762 158.742 177.036 158.568C181.06 156.012 180.387 156.468 181.138 156.168Z" fill="white"/>
<path d="M195.846 158.218C195.871 159.019 196.021 158.538 183.341 164.746C182.06 165.373 181.521 164.565 183.066 163.795C196.162 157.273 195.647 157.268 195.846 158.218Z" fill="white"/>
<path d="M78.5217 48.7677C85.3252 48.5672 85.0752 53.4192 87.9511 64.8755C87.9511 64.9002 97.2022 101.817 97.1304 103.418C96.9733 106.919 99.734 104.662 125.543 113.972C126.444 114.298 132.82 116.451 134.547 117.549C136.795 118.978 137.127 121.137 134.121 122.101C129.151 123.696 90.9024 133.758 85.9241 135.057C57.1622 142.566 55.0128 143.53 50.4577 141.51C48.0831 140.457 24.3081 128.58 14.4914 123.528C12.4125 122.457 9.76441 122.002 8.93903 116.7C-0.795936 54.1221 -1.53593 54.1815 1.78537 52.4701C4.49042 51.0767 68.3153 49.0671 78.5205 48.7689L78.5217 48.7677ZM42.7052 51.6435C3.53759 53.1334 2.50061 52.3649 1.53664 55.5699C1.05528 57.1687 10.4153 117.273 10.9165 118.774C11.1417 119.449 11.4572 119.593 11.8668 118.974C13.1872 116.978 11.6577 117.706 93.9786 104.818C95.9289 104.512 95.9759 103.619 95.4797 101.691C90.2082 81.2172 84.7275 55.7939 83.6497 53.319C81.6785 48.7899 82.4222 50.1326 42.7052 51.6435ZM55.2108 141.109C59.0122 140.634 133.822 120.5 133.847 120.475C136.423 119.15 133.4 117.662 98.5312 106.769C95.0045 105.668 98.2528 105.652 53.461 112.721C10.9387 119.433 7.58898 118.378 17.6704 123.402C53.1801 141.097 52.21 140.935 55.2108 141.109Z" fill="white"/>
<path d="M91.2297 100.342C91.6059 101.993 95.442 100.738 17.3716 112.923C15.6454 113.193 15.6256 112.973 15.3954 111.473C7.13056 57.498 6.14184 58.7243 8.24178 58.5721C8.26653 58.5721 80.0717 54.7471 80.1236 55.7965C80.1472 56.2717 79.9492 56.3744 76.5214 56.5216C16.0463 59.1203 15.9189 59.0856 8.86545 59.223C7.68988 59.2465 8.04998 59.5447 8.49051 61.7226C8.82338 63.3734 8.81472 63.4142 10.5669 63.2991C74.0218 59.1574 76.2962 59.1475 80.0482 59.1227C80.3526 59.1203 80.8476 58.9742 80.9663 58.5659C81.074 58.1984 80.8278 57.6576 80.73 57.2988C80.5939 56.7939 81.0233 56.4759 81.2584 57.1305C81.9266 58.9965 83.9127 68.3046 91.2272 100.341L91.2297 100.342ZM9.7428 63.9488C8.44225 63.9983 8.58208 62.0221 13.2448 91.9633C13.4712 93.4135 13.3413 92.7849 74.747 85.5607C84.3508 84.4309 84.3062 84.134 84.4015 85.0361C84.4807 85.7859 84.253 85.5954 79.5742 86.1621C29.4887 92.2182 24.1479 92.806 14.2694 93.7155C13.194 93.8145 13.595 93.791 15.2952 105.046C15.4957 106.371 15.3967 105.755 41.6317 102.295C93.0822 95.5085 89.4008 96.6928 88.9776 94.8416C80.9515 59.6858 81.8994 59.7675 80.1236 59.8763C70.2414 60.4802 20.4467 63.5478 9.74156 63.9537L9.7428 63.9488ZM15.6207 107.345C16.2963 111.797 16.0216 112.173 17.5461 111.897C21.5233 111.176 22.9253 111.008 60.8158 105.269C91.3064 100.651 90.8313 101.442 90.0034 99.4424C89.4552 98.1158 90.1061 96.2745 88.0272 96.9662C86.5782 97.4476 14.9945 106.07 15.6194 107.346L15.6207 107.345Z" fill="white"/>
<path d="M50.1097 54.2704C50.1097 55.5449 47.8835 55.7714 47.9838 54.0204C48.058 52.7198 50.1097 52.5194 50.1097 54.2704Z" fill="white"/>
<path d="M11.568 59.6211C11.5927 60.5974 10.6424 61.4476 12.0679 61.8732C11.2425 61.8237 10.5669 61.5985 10.0917 62.3484C10.2402 61.5725 10.4419 60.8721 9.5918 60.4477C10.1165 60.048 10.3677 60.7224 10.6424 60.6209C10.9171 60.4972 11.1176 60.121 11.568 59.6211Z" fill="white"/>
<path d="M51.8084 54.6459C51.5077 54.6509 51.2083 53.3701 52.0831 53.3701C52.958 53.3701 53.2092 54.6212 51.8084 54.6459Z" fill="white"/>
<path d="M14.0165 61.0993C13.8915 61.7997 12.9548 61.6747 12.9659 61.0238C12.9783 60.2987 13.9918 60.2244 14.0165 61.0993Z" fill="white"/>
<path d="M50.9614 115.773C52.1123 115.773 52.7273 116.151 55.8122 118.174C56.1154 118.372 56.5448 118.55 56.4644 118.999C56.3245 119.777 46.6626 120.982 45.5848 121.375C42.8649 122.368 41.3527 120.905 38.1564 118.85C36.6046 117.852 38.1069 117.975 50.9627 115.773H50.9614Z" fill="white"/>
<path d="M87.8276 113.623C86.678 113.85 86.2078 113.752 83.1006 111.797C82.7479 111.576 82.1502 111.398 82.2504 110.896C82.3507 110.395 82.9508 110.42 83.3765 110.346C93.2253 108.639 94.6855 107.886 99.0339 109.895C102.213 111.364 103.692 110.481 87.8276 113.623Z" fill="white"/>
<path d="M96.432 117.3C95.9569 117.3 96.0447 117.301 91.955 114.998C91.731 114.872 91.4315 114.773 91.4798 114.474C91.5318 114.149 91.8795 114.196 92.1047 114.148C107.875 110.837 102.646 111.512 109.362 113.523C111.409 114.136 105.587 115.149 96.432 117.3Z" fill="white"/>
<path d="M60.4367 118.65C59.7858 118.449 53.5602 115.38 55.7592 115.023C66.145 113.333 65.7886 113.221 66.5138 113.722C71.9437 117.47 72.2159 116.448 60.4354 118.65H60.4367Z" fill="white"/>
<path d="M73.4451 116.223C72.4948 116.148 68.3679 113.722 68.5176 113.122C68.6921 112.422 72.371 112.501 76.0215 111.521C78.2477 110.923 80.0791 111.265 81.7236 112.822C82.2508 113.32 83.4227 113.572 83.2989 114.198C83.1715 114.847 82.0256 114.656 81.3475 114.798C79.0767 115.274 74.2693 116.098 73.4439 116.223H73.4451Z" fill="white"/>
<path d="M85.6992 119.701C84.8738 119.6 85.2846 119.685 81.3718 117.024C80.2247 116.245 81.5673 116.147 88.3745 114.898C89.3496 114.719 89.8087 115.111 92.9766 117.149C94.4058 118.069 92.6524 118.124 85.6992 119.701Z" fill="white"/>
<path d="M77.0733 121.625C75.7975 121.325 73.3387 119.685 72.2707 118.924C71.7164 118.529 71.6953 118.173 72.4452 118.023C78.0979 116.896 78.1003 116.793 78.5483 117.048C79.8705 117.807 81.1257 118.677 82.3002 119.649C83.3719 120.53 81.9005 120.55 77.0733 121.625Z" fill="white"/>
<path d="M62.9878 83.0576C60.7356 83.0823 61.1625 83.1331 60.6366 81.2324C59.5848 77.4309 58.7384 73.6035 57.835 69.7774C57.3859 67.8766 57.2312 68.5374 75.3177 66.7765C76.8929 66.6231 76.4895 66.8087 79.6945 79.1324C80.338 81.6098 81.9207 80.8079 62.9865 83.0588L62.9878 83.0576ZM62.1871 81.9068C64.7387 81.5566 74.0443 80.4751 77.9447 80.2065C79.296 80.1137 78.8629 80.5406 75.9685 68.676C75.7483 67.7739 75.5689 67.9026 72.4171 68.2008C57.8115 69.5843 58.6023 69.2539 58.8361 70.1263C61.9545 81.8103 61.5127 82.0565 62.1871 81.9068Z" fill="white"/>
<path d="M13.4399 71.8036C13.4139 71.0785 13.4176 71.6068 47.2802 68.5516C47.7814 68.5058 48.4546 68.3016 48.5053 69.0763C48.5548 69.8262 47.8791 69.7705 47.3792 69.8014C12.8063 71.9917 13.4634 72.5027 13.4386 71.8024L13.4399 71.8036Z" fill="white"/>
<path d="M15.9182 77.1314C15.318 77.1314 14.7748 77.2056 14.7426 76.7057C14.7018 76.0795 14.8428 76.0597 20.0451 75.6291C49.0606 73.2309 49.0532 72.955 49.1077 73.8051C49.177 74.8805 15.9429 77.1314 15.9182 77.1314Z" fill="white"/>
<path d="M21.9477 98.4915C21.548 98.416 21.0469 98.5163 21.0469 97.9916C21.0469 97.5412 21.5221 97.4941 21.897 97.4409C44.3764 94.3028 44.3294 93.9402 44.4321 94.8151C44.5298 95.6405 44.5336 95.5155 21.9477 98.4915Z" fill="white"/>
<path d="M55.0371 102.368C56.8883 102.32 57.0875 105.12 55.1608 105.294C53.2118 105.47 53.0856 102.42 55.0371 102.368ZM55.8624 103.918C55.7127 102.667 54.2129 102.818 54.2364 103.769C54.2637 104.869 55.8117 104.944 55.8624 103.918Z" fill="white"/>
<path d="M51.3603 104.667C51.0596 106.318 49.0723 106.068 49.0587 104.767C49.045 103.391 51.1091 103.067 51.3603 104.667Z" fill="white"/>
<path d="M61.0628 103.192C60.9626 104.793 58.849 104.618 58.8614 103.143C58.8725 101.867 60.9118 101.642 61.0628 103.192Z" fill="white"/>
<path d="M43.1302 129.106C42.2046 128.805 43.0423 129.282 36.7771 126.179C36.5259 126.056 36.1262 126.005 36.2017 125.604C36.2512 125.204 36.6509 125.15 36.9776 125.079C52.7154 121.668 52.2625 121.921 52.8342 122.203C54.465 123.004 56.0005 123.986 57.4115 125.13C58.5685 126.073 58.0624 125.83 43.1302 129.107V129.106Z" fill="white"/>
<path d="M61.6373 131.932C61.1126 131.932 60.7303 131.842 57.5599 129.756C55.2533 128.238 57.8396 128.426 70.9912 125.105C72.4674 124.732 72.8844 125.204 76.0684 127.38C76.6463 127.776 76.7948 128.259 75.8939 128.48C61.6472 131.998 62.0382 131.857 61.6373 131.932Z" fill="white"/>
<path d="M60.9866 125.152C60.2615 125.228 60.3988 125.219 55.9094 122.076C55.4825 121.778 55.433 121.444 56.1099 121.3C69.4124 118.487 68.8729 118.586 69.5163 118.974C73.7917 121.546 73.9649 121.575 73.8932 122.05C73.814 122.575 61.0126 125.151 60.9879 125.151L60.9866 125.152Z" fill="white"/>
<path d="M105.282 121.352C104.407 121.377 104.296 121.196 100.83 119.201C100.529 119.028 100.154 118.901 100.205 118.501C100.28 118.101 100.73 118.124 101.03 118.051C117.858 113.974 111.781 115.063 119.463 117C119.863 117.1 120.114 117.725 119.263 117.926C119.263 117.926 106.133 121.178 105.282 121.352Z" fill="white"/>
<path d="M60.0284 137.711C64.3657 136.381 130.142 118.624 130.344 119.499C130.461 120.008 65.0735 137.282 60.1336 137.89C60.0086 137.905 59.625 137.833 60.0284 137.711Z" fill="white"/>
<path d="M91.9545 124.476C91.2293 124.552 91.1167 124.357 87.6531 122.15C86.9799 121.72 87.2027 121.297 87.7286 121.175C97.7754 118.816 97.0787 118.731 98.6082 119.6C102.299 121.693 102.21 121.725 102.135 121.951C102.059 122.326 92.3554 124.476 91.9557 124.476H91.9545Z" fill="white"/>
<path d="M84.8753 121.825C85.9011 122.251 87.8043 123.748 88.6767 124.426C90.0552 125.498 88.4515 125.374 80.2225 127.427C79.6223 127.577 79.6087 127.587 75.8952 124.926C74.1751 123.694 77.0225 123.851 84.8753 121.825Z" fill="white"/>
<path d="M31.976 123.777C30.7757 123.301 27.2478 121.477 26.7738 121.225C25.5215 120.558 25.7071 120.129 26.8976 119.9C34.6415 118.413 33.1999 117.902 38.8537 121.3C39.1037 121.45 39.5789 121.526 39.4787 121.976C39.3784 122.627 39.3289 122.551 31.9748 123.777H31.976Z" fill="white"/>
<path d="M52.8093 134.057C52.1336 133.957 49.3543 132.66 48.1565 131.806C46.5528 130.661 48.7059 130.42 53.6099 129.254C54.0343 129.153 54.2361 129.153 58.212 131.755C59.6635 132.706 57.1354 133.006 52.8093 134.057Z" fill="white"/>
<path d="M51.8611 136.783C52.6617 137.182 52.955 137.404 52.7112 137.834C52.429 138.33 52.5342 138.212 42.282 133.307C39.3047 131.883 38.91 131.832 39.1055 131.132C39.3357 130.308 39.1426 130.456 51.8611 136.784V136.783Z" fill="white"/>
<path d="M31.9487 127.353C31.8237 128.379 30.9686 127.812 28.4727 126.553C25.4657 125.037 24.3681 124.625 24.8458 123.927C25.0697 123.6 25.0413 123.483 31.1741 126.603C31.5032 126.771 31.8732 126.904 31.9487 127.353Z" fill="white"/>
</svg>
