<svg width="240" height="177" viewBox="0 0 240 177" fill="none" xmlns="http://www.w3.org/2000/svg">
<path fill-rule="evenodd" clip-rule="evenodd" d="M24.8534 46.4756C-1.94872 62.0591 -5.50237 64.2466 -5.24602 65.809C-5.20558 66.0555 -5.07033 66.2864 -4.91658 66.5519L58.0435 173.883C58.9607 175.438 59.3433 176.161 59.8738 176.294C60.4035 176.426 61.0805 175.971 62.5838 175.171C71.6818 170.329 80.6917 165.324 89.6697 160.263C110.105 148.745 123.218 141.552 131.577 136.965C133.78 135.757 135.654 134.728 137.244 133.851C134.044 134.974 130.455 136.238 126.434 137.665C126.431 137.667 126.344 137.697 126.178 137.758C125.645 137.948 124.309 138.426 122.354 139.123C108.382 146.871 91.3411 156.336 85.5748 159.539C84.2813 160.256 83.5552 160.66 83.5581 160.658C63.9861 171.388 61.2538 173.941 60.2225 173.378C60.0177 173.268 59.8801 173.033 59.6908 172.714C59.6668 172.673 -2.72245 66.724 -2.70378 66.756C-3.21497 65.8912 -3.04584 65.7938 2.22248 62.7599C3.73116 61.891 5.658 60.7814 8.10675 59.344C8.12369 59.3343 15.6472 54.9556 25.8241 49.0138L24.8534 46.4756Z" fill="#010614"/>
<path d="M94.6016 32.5862C94.5883 33.6906 94.9204 33.3211 80.9767 38.9538C72.739 42.2817 52.6838 50.3406 44.2954 53.275C42.5774 53.8766 42.8682 53.5591 38.8281 43.5822C38.1892 42.0056 38.3626 41.7428 39.9831 41.0866C50.8337 36.6917 74.4863 26.9108 88.2006 21.9997C89.9999 21.3554 90.1133 21.4635 90.8162 23.2335C92.6316 27.8005 93.6799 29.9546 94.6016 32.5862ZM88.4834 23.9097C85.1915 25.0661 80.6152 27.3896 41.0315 42.6165C39.9218 43.0433 40.462 42.7992 43.5871 50.7141C43.9979 51.7558 44.218 51.2836 46.5855 50.3366C94.5829 31.1377 92.5582 32.7609 92.1474 31.8099C88.6981 23.811 88.9689 23.7403 88.4821 23.911L88.4834 23.9097Z" fill="#010614"/>
<path d="M49.0873 63.9214C47.9096 63.8267 47.9669 62.845 48.8566 62.4208C52.782 60.5495 50.5665 61.4178 73.2374 52.1518C91.7775 44.5744 91.4867 44.3463 92.1456 45.6014C92.9032 47.0459 91.416 47.1139 68.9799 56.1946C56.6741 61.175 51.3882 63.4865 49.0873 63.9214Z" fill="#010614"/>
<path d="M55.4547 77.5953C54.0569 77.646 53.9435 76.2988 54.8372 75.8173C56.107 75.1344 54.8358 75.6426 88.5908 62.8046C92.3241 61.3854 93.2178 61.0707 93.5806 62.1524C93.958 63.2781 93.4485 63.3875 81.9817 67.7424C81.2067 68.0372 56.2844 77.566 55.4561 77.5953H55.4547Z" fill="#010614"/>
<path d="M74.4711 133.527C73.1599 133.424 73.1773 132.54 74.0683 132.072C77.9643 130.028 91.3479 125.443 95.8748 123.94C99.4335 122.756 100.208 122.594 100.522 123.542C100.937 124.801 100.163 125.024 86.2994 129.852C83.4877 130.831 77.3868 132.916 74.4724 133.526L74.4711 133.527Z" fill="#010614"/>
<path d="M52.6431 70.3744C51.352 70.4611 51.1706 69.4314 51.7975 68.9605C52.6218 68.3416 51.7721 68.7671 70.9911 60.9096C71.8154 60.5721 72.6384 60.3054 73.0092 61.2004C73.528 62.4568 71.8941 62.7529 69.6106 63.6746C52.6991 70.4997 54.7559 69.7221 52.6431 70.3744Z" fill="#010614"/>
<path d="M78.2068 139.448C76.6222 139.407 76.5395 138.023 77.7466 137.531C82.0589 135.773 83.9862 135.18 90.1885 133.08C91.7811 132.541 92.5053 134.307 90.798 134.997C88.0064 136.125 80.3463 138.956 78.2068 139.448Z" fill="#010614"/>
<path fill-rule="evenodd" clip-rule="evenodd" d="M107.266 98.1465C105.359 101.214 104.257 104.832 104.257 108.702C104.257 119.761 113.255 128.755 124.31 128.755C135.369 128.755 144.363 119.761 144.363 108.702C144.363 106.69 144.065 104.745 143.51 102.911C142.95 103.202 142.368 103.474 141.766 103.727C142.218 105.309 142.459 106.979 142.459 108.705C142.459 118.714 134.319 126.854 124.31 126.854C114.301 126.854 106.161 118.714 106.161 108.705C106.161 105.28 107.114 102.073 108.77 99.3362C108.255 98.9534 107.753 98.556 107.266 98.1465Z" fill="#0705CB"/>
<path fill-rule="evenodd" clip-rule="evenodd" d="M161.241 122.362L151.164 96.2707C150.724 96.9123 150.241 97.5325 149.717 98.1274C152.479 105.285 155.456 112.978 158.663 121.25C158.896 121.853 158.788 122 158.212 122.191C156.132 122.878 113.402 138.079 99.1891 143.136L99.1807 143.138L99.1733 143.141C96.33 144.152 94.6324 144.756 94.6368 144.755C85.1988 148.055 79.3614 150.293 75.7099 151.693C71.2128 153.418 70.0317 153.872 69.5243 153.47C69.3436 153.327 69.2482 153.077 69.119 152.737L69.1142 152.725C69.0982 152.68 24.9635 37.9186 24.9768 37.9546C24.6312 37.0655 24.796 37.0035 29.6856 35.1636C31.4197 34.5111 33.748 33.6351 36.8585 32.4193L37.1208 32.3198C41.5008 30.6603 99.3895 8.72603 112.307 3.4808C112.335 3.46959 112.361 3.45839 112.387 3.44745C112.499 3.39997 112.599 3.35769 112.7 3.35355C113.108 3.33675 113.541 3.93736 114.917 7.29498C115.385 6.83175 115.86 6.43534 116.339 6.09855L114.66 1.75084L114.638 1.70989C114.493 1.43459 114.373 1.20851 114.192 1.05485C113.359 0.348064 111.225 1.17516 99.273 5.80658C94.0397 7.83438 86.9244 10.5915 77.2118 14.2687C71.7806 16.3249 66.8827 18.1764 62.4664 19.8457C27.1033 33.2129 22.6332 34.9026 22.6289 36.6036C22.6282 36.8497 22.7212 37.0961 22.8275 37.378L22.832 37.3904L67.3002 153.61C67.3551 153.753 67.4072 153.889 67.4568 154.018C67.9943 155.423 68.2496 156.09 68.7086 156.29C69.1236 156.471 69.7054 156.27 70.8133 155.886C71.0417 155.807 71.2923 155.72 71.5684 155.628C81.3386 152.35 91.0475 148.89 100.738 145.373C122.852 137.344 136.985 132.397 145.982 129.249C159.131 124.646 161.304 123.886 161.376 122.962C161.39 122.779 161.322 122.588 161.241 122.362Z" fill="#010614"/>
<path fill-rule="evenodd" clip-rule="evenodd" d="M111.791 99.783C90.7571 86.3834 98.6821 60.913 118.665 58.3086C119.541 58.9635 120.491 59.6389 121.524 60.3459C119.362 60.4251 117.202 60.8134 115.093 61.5614C92.1604 69.6933 100.172 97.929 123.986 101.873C123.708 102.651 123.445 103.406 123.198 104.133C119.15 103.412 115.217 101.966 111.791 99.783ZM135.169 104.153C145.025 102.373 153.145 96.0189 153.19 85.2697C153.193 84.7855 153.177 84.3027 153.145 83.8239C152.33 83.4104 151.55 82.9942 150.8 82.5727C152.265 89.898 148.964 97.158 137.774 101.041C137.117 101.269 136.416 101.45 135.693 101.596C135.517 102.455 135.343 103.308 135.169 104.153ZM136.546 97.4154C142.897 95.4014 147.732 90.6783 147.764 83.3423C147.768 82.4127 147.691 81.4953 147.538 80.5933C146.759 80.0852 146.009 79.569 145.278 79.0437C147.487 85.183 145.738 91.6427 136.994 95.2C136.846 95.9349 136.695 96.6738 136.546 97.4154ZM133.147 80.8369C125.033 82.4727 112.558 76.3342 120.025 64.189C99.8665 68.4697 104.901 93.9582 126.019 96.5044C125.782 97.102 125.551 97.6942 125.326 98.2784C121.788 97.7916 118.321 96.6045 115.343 94.7078C98.4785 83.9652 105.457 63.4967 121.546 62.1349C121.892 61.7578 122.251 61.4135 122.614 61.0905C123.203 61.4964 123.776 61.8972 124.333 62.293C123.238 63.2735 121.835 65.2015 120.077 69.2255C117.147 75.9291 129.007 80.9899 134.67 78.0903C134.167 78.9558 133.658 79.8753 133.147 80.8369ZM138.124 73.3146C138.064 73.2627 138.002 73.2105 137.941 73.1584C137.916 73.2662 137.887 73.3737 137.859 73.4805C137.948 73.417 138.036 73.3618 138.124 73.3146Z" fill="#010614"/>
<path d="M142.698 75.4251C132.537 67.2715 135.765 68.3559 122.58 59.4153C114.431 53.8906 111.68 50.4427 108.387 43.6776C106.798 40.4151 105.379 37.0538 104.653 33.4539C104.329 31.844 104.873 30.5488 106.355 29.8779C115.644 25.675 123.083 44.0164 133.328 45.1341C136.816 45.5142 134.692 41.7062 132.591 38.9652C124.897 28.9296 122.909 23.8157 117.039 22.3765C116.052 22.1351 115.465 22.0311 115.511 21.5522C115.617 20.4371 118.904 19.9636 122.64 22.9314C124.506 24.4133 125.195 25.2882 134.886 38.7318C139.63 45.3142 136.09 47.663 133.341 47.1122C127.39 45.9184 123.257 42.1143 115.129 33.8353C110.274 28.8895 105.215 31.0237 106.124 33.4979C114.966 57.5679 120.088 52.4968 137.525 67.5089C141.832 71.2169 148.945 78.5382 163.657 84.0219C170.425 86.5442 177.361 86.9803 179.384 88.1741C183.621 90.675 161.322 90.3709 142.698 75.4251Z" fill="#010614"/>
<path d="M201.251 58.4766C205.8 59.2382 239.66 84.8628 243.347 87.6345C246.411 89.938 246.496 92.4149 240.038 88.1533C229.295 81.0661 218.311 71.9761 202.896 61.2336C200.375 59.4769 203.15 64.1213 193.771 79.0107C189.919 85.1256 181.642 93.1671 180.212 94.2475C179.356 94.8944 177.503 93.7567 215.113 138.566C217.88 141.865 217.181 143.567 213.19 139.415C206.58 132.536 187.593 109.229 184.685 105.234C176.796 94.3983 177.331 94.8077 179.135 92.8163C187.651 83.4263 190.672 80.5059 195.473 70.4316C200.519 59.8464 199.5 58.686 201.251 58.4766Z" fill="#010614"/>
<path d="M132.123 9.59128C140.449 15.0866 145.044 17.6142 148.22 22.5493C150.058 25.4064 148.824 26.5601 146.23 23.1442C143.082 19 129.881 9.01774 121.686 7.7026C117.754 7.0717 112.412 15.1613 110.625 18.7199C108.627 22.7 111.546 27.4831 110.337 27.7059C110.03 27.7619 109.911 27.5218 109.806 27.2924C106.362 19.815 109.107 15.7588 115.412 8.73763C121.717 1.71775 129.113 9.07909 130.692 8.37884C141.809 3.45039 159.072 18.2157 157.89 19.5082C156.708 20.8007 149.711 10.8811 137.09 8.78699C135.388 8.50422 133.823 8.92037 132.123 9.58861V9.59128Z" fill="#010614"/>
<path d="M166.108 13.4649C176.313 13.7156 181.847 24.785 185.247 34.4085C188.471 43.5331 190.888 49.0272 196.647 58.3493C198.801 61.8345 197.082 62.8376 194.296 57.8464C180.84 33.7457 181.603 18.2426 166.535 14.7747C165.048 14.4319 164.726 14.2878 164.744 13.9023C164.768 13.3662 165.419 13.4475 166.108 13.4649Z" fill="#010614"/>
<path d="M150.914 9.05295C159.112 8.93691 167.755 17.2973 167.079 18.2016C166.293 19.254 163.585 14.9244 156.111 11.4832C152.147 9.65851 147.241 10.7376 147.241 9.69185C147.241 8.97159 147.989 9.0943 150.914 9.05295Z" fill="#010614"/>
<path d="M139.462 75.54C138.839 80.2271 130.421 120.147 130.413 120.191C129.01 127.354 123.343 120.382 107.729 105.131C104.195 101.678 106.74 102.266 111.34 104.065C122.843 108.564 122.396 111.529 123.132 108.904C126.412 97.2267 138.983 69.115 139.462 75.54Z" fill="#0705CB"/>
</svg>
