<svg width="288" height="211" viewBox="0 0 288 211" fill="none" xmlns="http://www.w3.org/2000/svg">
<path fill-rule="evenodd" clip-rule="evenodd" d="M29.8239 54.7714C-2.33856 73.4716 -6.60294 76.0965 -6.29533 77.9715C-6.2468 78.2673 -6.0845 78.5443 -5.9 78.863L69.6521 207.66C70.7527 209.526 71.2119 210.394 71.8485 210.554C72.4841 210.712 73.2965 210.166 75.1005 209.206C86.0181 203.396 96.83 197.389 107.604 191.316C132.126 177.495 147.861 168.863 157.892 163.359C160.536 161.909 162.785 160.675 164.693 159.622C160.853 160.969 156.546 162.487 151.72 164.199C151.717 164.201 151.613 164.238 151.413 164.31C150.774 164.539 149.171 165.112 146.824 165.949C130.058 175.246 109.609 186.604 102.69 190.447C101.137 191.308 100.266 191.793 100.27 191.79C76.7832 204.667 73.5044 207.73 72.2669 207.055C72.0212 206.922 71.856 206.64 71.6289 206.258C71.6001 206.208 -3.26704 79.0695 -3.24464 79.1079C-3.85806 78.0701 -3.65511 77.9532 2.66688 74.3125C4.4773 73.2699 6.7895 71.9384 9.728 70.2135C9.74833 70.2018 18.7766 64.9474 30.9888 57.8173L29.8239 54.7714Z" fill="#180B02"/>
<path d="M113.522 38.1039C113.506 39.4292 113.905 38.9859 97.1722 45.7451C87.287 49.7386 63.2207 59.4093 53.1546 62.9305C51.0931 63.6524 51.442 63.2715 46.5939 51.2991C45.8272 49.4072 46.0353 49.0919 47.98 48.3044C61.0007 43.0305 89.3838 31.2935 105.841 25.4001C108 24.6271 108.136 24.7567 108.98 26.8807C111.158 32.3611 112.416 34.946 113.522 38.1039ZM106.18 27.6922C102.23 29.0799 96.7384 31.8681 49.238 50.1403C47.9063 50.6525 48.5546 50.3596 52.3047 59.8574C52.7977 61.1075 53.0618 60.5409 55.9028 59.4045C113.5 36.3657 111.07 38.3136 110.577 37.1724C106.438 27.5737 106.763 27.4889 106.179 27.6938L106.18 27.6922Z" fill="#180B02"/>
<path d="M58.9049 75.7065C57.4916 75.5929 57.5604 74.4148 58.628 73.9058C63.3385 71.6602 60.6799 72.7022 87.885 61.583C110.133 52.4901 109.784 52.2164 110.575 53.7225C111.484 55.456 109.699 55.5376 82.776 66.4343C68.009 72.4109 61.6659 75.1847 58.9049 75.7065Z" fill="#180B02"/>
<path d="M66.5458 92.1151C64.8684 92.1759 64.7323 90.5593 65.8047 89.9815C67.3285 89.162 65.8031 89.7718 106.309 74.3662C110.789 72.6632 111.861 72.2855 112.297 73.5836C112.75 74.9345 112.138 75.0657 98.3781 80.2916C97.4482 80.6453 67.5413 92.0799 66.5474 92.1151H66.5458Z" fill="#180B02"/>
<path d="M89.3658 159.233C87.7924 159.109 87.8132 158.048 88.8824 157.486C93.5577 155.034 109.618 149.532 115.05 147.728C119.321 146.308 120.251 146.113 120.627 147.251C121.124 148.762 120.196 149.029 103.56 154.823C100.186 155.998 92.8646 158.5 89.3674 159.231L89.3658 159.233Z" fill="#180B02"/>
<path d="M63.172 83.4498C61.6227 83.5539 61.405 82.3182 62.1573 81.7532C63.1464 81.0105 62.1269 81.5211 85.1896 72.0921C86.1788 71.6872 87.1663 71.367 87.6113 72.441C88.2339 73.9488 86.2732 74.3041 83.533 75.4101C63.2393 83.6003 65.7074 82.6671 63.172 83.4498Z" fill="#180B02"/>
<path d="M93.8485 166.338C91.947 166.288 91.8477 164.628 93.2963 164.038C98.4709 161.928 100.784 161.216 108.226 158.696C110.138 158.05 111.007 160.169 108.958 160.996C105.608 162.351 96.4158 165.747 93.8485 166.338Z" fill="#180B02"/>
<path fill-rule="evenodd" clip-rule="evenodd" d="M128.72 116.776C126.432 120.457 125.109 124.798 125.109 129.443C125.109 142.713 135.907 153.506 149.172 153.506C162.443 153.506 173.236 142.713 173.236 129.443C173.236 127.027 172.879 124.694 172.213 122.493C171.541 122.842 170.843 123.168 170.119 123.472C170.662 125.371 170.952 127.375 170.952 129.446C170.952 141.457 161.183 151.225 149.172 151.225C137.162 151.225 127.393 141.457 127.393 129.446C127.393 125.336 128.538 121.488 130.525 118.203C129.906 117.744 129.304 117.267 128.72 116.776Z" fill="#F07D29"/>
<path fill-rule="evenodd" clip-rule="evenodd" d="M193.489 145.834L181.397 114.525C180.869 115.295 180.289 116.039 179.66 116.753C182.975 125.342 186.547 134.574 190.395 144.501C190.675 145.224 190.546 145.4 189.854 145.629C187.359 146.454 136.083 164.695 119.027 170.763L119.017 170.766L119.008 170.77C115.596 171.983 113.559 172.708 113.564 172.706C102.239 176.666 95.2337 179.352 90.852 181.033C85.4555 183.102 84.0381 183.646 83.4293 183.165C83.2124 182.993 83.098 182.692 82.9429 182.284L82.9371 182.27C82.9179 182.217 29.9563 44.5027 29.9723 44.546C29.5576 43.479 29.7553 43.4046 35.6228 41.1967C37.7037 40.4137 40.4977 39.3625 44.2303 37.9035L44.5451 37.7841C49.8011 35.7927 119.268 9.47163 134.769 3.17735C134.801 3.1639 134.833 3.15046 134.864 3.13734C134.999 3.08036 135.119 3.02962 135.24 3.02466C135.73 3.00449 136.25 3.72523 137.901 7.75437C138.462 7.19848 139.032 6.72279 139.607 6.31865L137.592 1.1014L137.566 1.05226C137.392 0.721901 137.248 0.450602 137.031 0.266215C136.031 -0.581932 133.47 0.410587 119.128 5.96828C112.848 8.40164 104.309 11.7102 92.6542 16.1228C86.1368 18.5903 80.2593 20.8121 74.9598 22.8152C32.5241 38.8559 27.1599 40.8835 27.1548 42.9247C27.154 43.22 27.2655 43.5157 27.3931 43.854L27.3986 43.8689L80.7603 183.333C80.8262 183.504 80.8887 183.667 80.9482 183.822C81.5933 185.508 81.8996 186.308 82.4504 186.548C82.9485 186.766 83.6466 186.524 84.9761 186.063C85.2501 185.969 85.5508 185.865 85.8822 185.754C97.6064 181.82 109.257 177.668 120.885 173.447C147.423 163.814 164.383 157.877 175.179 154.1C190.957 148.576 193.564 147.664 193.651 146.554C193.668 146.335 193.587 146.106 193.489 145.834Z" fill="#180B02"/>
<path fill-rule="evenodd" clip-rule="evenodd" d="M134.15 118.74C108.908 102.66 118.418 72.0958 142.398 68.9705C143.449 69.7563 144.589 70.5669 145.829 71.4152C143.234 71.5103 140.643 71.9762 138.111 72.8738C110.592 82.6321 120.207 116.515 148.784 121.248C148.449 122.181 148.134 123.087 147.838 123.959C142.98 123.095 138.261 121.36 134.15 118.74ZM162.203 123.983C174.03 121.848 183.774 114.223 183.828 101.324C183.832 100.743 183.812 100.163 183.774 99.5888C182.796 99.0926 181.86 98.5932 180.96 98.0874C182.718 106.878 178.756 115.59 165.329 120.249C164.54 120.523 163.7 120.74 162.832 120.915C162.621 121.946 162.411 122.97 162.203 123.983ZM163.855 115.899C171.477 113.482 177.279 107.814 177.317 99.011C177.322 97.8954 177.229 96.7945 177.045 95.7122C176.11 95.1023 175.211 94.4829 174.334 93.8526C176.984 101.22 174.886 108.971 164.393 113.24C164.215 114.122 164.034 115.009 163.855 115.899ZM159.777 96.0044C150.04 97.9674 135.07 90.6012 144.03 76.0269C119.84 81.1638 125.882 111.75 151.223 114.805C150.938 115.523 150.661 116.233 150.391 116.934C146.146 116.35 141.986 114.926 138.412 112.649C118.174 99.7584 126.548 75.1962 145.855 73.562C146.271 73.1096 146.701 72.6963 147.137 72.3088C147.844 72.7958 148.531 73.2768 149.2 73.7517C147.886 74.9283 146.202 77.2419 144.092 82.0707C140.577 90.1151 154.808 96.188 161.604 92.7085C161.001 93.7471 160.39 94.8506 159.777 96.0044ZM165.748 86.9776C165.676 86.9154 165.603 86.8528 165.529 86.7902C165.499 86.9195 165.465 87.0485 165.431 87.1767C165.537 87.1006 165.643 87.0343 165.748 86.9776Z" fill="#180B02"/>
<path d="M171.237 89.5113C159.044 79.727 162.917 81.0283 147.096 70.2996C137.318 63.67 134.016 59.5325 130.064 51.4143C128.158 47.4993 126.455 43.4659 125.584 39.1459C125.195 37.214 125.848 35.6598 127.626 34.8547C138.773 29.8113 147.699 51.8209 159.993 53.1622C164.179 53.6183 161.631 49.0487 159.11 45.7595C149.876 33.7167 147.491 27.5801 140.447 25.8531C139.263 25.5634 138.558 25.4385 138.613 24.8639C138.741 23.5258 142.685 22.9576 147.168 26.5189C149.407 28.2972 150.234 29.3471 161.863 45.4794C167.556 53.3782 163.308 56.1969 160.009 55.5358C152.867 54.1033 147.909 49.5385 138.155 39.6037C132.329 33.6687 126.258 36.2296 127.349 39.1987C137.96 68.0828 144.106 61.9974 165.03 80.0119C170.199 84.4615 178.734 93.2471 196.389 99.8276C204.51 102.854 212.833 103.378 215.261 104.81C220.345 107.811 193.586 107.446 171.237 89.5113Z" fill="#180B02"/>
<path d="M241.502 69.1724C246.96 70.0863 287.592 100.836 292.016 104.162C295.693 106.926 295.795 109.898 288.045 104.784C275.154 96.2798 261.974 85.3718 243.476 72.4808C240.451 70.3728 243.78 75.946 232.526 93.8133C227.904 101.151 217.97 110.801 216.255 112.098C215.227 112.874 213.004 111.509 258.135 165.28C261.457 169.238 260.618 171.281 255.829 166.298C247.896 158.044 225.112 130.075 221.623 125.282C212.155 112.278 212.797 112.77 214.963 110.38C225.181 99.112 228.806 95.6075 234.568 83.5184C240.623 70.8162 239.401 69.4237 241.502 69.1724Z" fill="#180B02"/>
<path d="M158.548 10.5106C168.539 17.105 174.053 20.1381 177.864 26.0602C180.069 29.4886 178.589 30.8731 175.476 26.7741C171.698 21.8011 155.857 9.82231 146.023 8.24414C141.305 7.48707 134.894 17.1946 132.75 21.4649C130.352 26.2411 133.856 31.9807 132.404 32.248C132.036 32.3153 131.893 32.0272 131.767 31.7519C127.634 22.779 130.928 17.9116 138.494 9.48619C146.06 1.06233 154.935 9.89594 156.83 9.05563C170.171 3.14149 190.886 20.8599 189.468 22.4109C188.05 23.9618 179.653 12.0583 164.508 9.54541C162.466 9.20609 160.587 9.70547 158.548 10.5074V10.5106Z" fill="#180B02"/>
<path d="M199.33 15.1594C211.576 15.4603 218.217 28.7436 222.297 40.2918C226.165 51.2413 229.066 57.8343 235.977 69.0207C238.562 73.203 236.499 74.4067 233.155 68.4173C217.008 39.4964 217.924 20.8927 199.842 16.7312C198.058 16.3199 197.672 16.147 197.693 15.6844C197.721 15.041 198.503 15.1386 199.33 15.1594Z" fill="#180B02"/>
<path d="M181.097 9.86472C190.934 9.72547 201.306 19.7579 200.494 20.8431C199.552 22.106 196.302 16.9105 187.333 12.781C182.576 10.5914 176.689 11.8863 176.689 10.6314C176.689 9.76708 177.587 9.91434 181.097 9.86472Z" fill="#180B02"/>
<path d="M167.354 89.6489C166.607 95.2734 156.505 143.177 156.496 143.23C154.812 151.825 148.011 143.459 129.275 125.158C125.033 121.014 128.087 121.72 133.607 123.879C147.411 129.278 146.875 132.836 147.758 129.686C151.694 115.673 166.779 81.9389 167.354 89.6489Z" fill="#F07D29"/>
</svg>
