<svg width="248" height="212" viewBox="0 0 248 212" fill="none" xmlns="http://www.w3.org/2000/svg">
<path d="M22.0131 137.98C25.4256 140.254 30.9935 146.375 32.4313 151.129C33.4258 154.42 31.1209 156.053 28.4013 155.179C22.6644 153.338 10.889 139.825 17.8102 139.903C21.5256 139.944 25.8273 145.269 27.919 148.34C28.14 148.665 28.439 149.1 28.0022 149.421C26.9726 150.169 22.5344 142.076 18.598 141.502C14.048 140.839 23.1831 150.732 27.4718 153.164C29.4738 154.298 31.5915 154.298 30.9909 152.099C29.583 146.956 22.6488 141.064 22.0131 137.98Z" fill="#180B02"/>
<path d="M57.5523 141.1C57.4353 142.221 32.1516 165.02 31.7122 165.359C31.4067 165.595 31.0817 166.047 30.6722 165.647C30.0118 164.997 29.4177 165.86 55.302 141.318C56.2939 140.377 57.2143 139.771 57.5523 141.1Z" fill="#180B02"/>
<path d="M52.3303 156.762C45.712 162.489 37.496 171.009 36.6068 169.981C35.858 169.114 45.4468 161.353 51.3722 155.708C52.3836 154.75 53.4197 155.82 52.3303 156.762Z" fill="#180B02"/>
<path d="M73.0401 193.23C73.0687 194.282 66.7845 199.291 65.9616 199.946C64.828 200.848 63.7191 199.946 64.8098 198.793C66.8945 196.589 69.1264 194.529 71.4905 192.628C71.6132 192.498 71.7717 192.408 71.9456 192.369C72.1196 192.33 72.301 192.345 72.4672 192.41C72.6334 192.473 72.7766 192.587 72.8786 192.732C72.9805 192.879 73.0368 193.052 73.0401 193.23Z" fill="#180B02"/>
<path d="M66.595 209.026C65.4133 210.149 66.0945 209.528 21.4487 164.124C10.9187 153.411 10.7458 153.698 11.8287 152.641C16.8064 147.785 17.7229 147.623 16.7765 146.685C16.1265 146.043 15.4765 146.741 14.9851 147.177C13.2946 148.683 11.699 150.292 10.2076 151.995C8.88968 153.498 8.89059 153.499 10.249 155.019L10.2661 155.039C19.1308 164.952 57.6354 203.907 57.6003 203.874C65.3731 211.82 65.2534 212.3 66.7003 211.017C67.502 210.313 76.2679 202.461 85.3191 194.044L84.383 192.323C79.2765 197.077 73.291 202.66 66.595 209.026Z" fill="#180B02"/>
<path d="M25.3719 137.031C24.4619 137.853 25.7696 139.466 26.6601 138.652C28.3801 137.079 30.632 135.037 33.0587 132.842L30.9105 132.166C27.7086 134.98 25.3807 137.024 25.3719 137.031Z" fill="#180B02"/>
<path d="M38.2605 60.9029C16.4738 58.8099 15.1348 59.4664 14.6291 62.1899C13.9751 65.637 13.574 69.1272 13.4292 72.6328C13.5111 75.3628 13.3083 75.9842 15.036 76.3508C16.1188 77.6474 39.1873 80.1708 51.5279 81.4372L50.6995 78.9876C44.6613 78.3511 34.5361 77.1447 17.3019 74.6842C15.2869 74.3956 15.1504 74.146 15.3987 72.2142C16.8495 60.9042 15.9408 61.8337 19.0179 61.9442C28.0309 62.4462 37.0167 63.3252 45.9518 64.5782V61.9442C43.335 61.506 40.6972 61.1367 38.2605 60.9029Z" fill="#F07D29"/>
<path d="M21.5435 99.4998C20.2825 110.81 22.8435 108.551 10.0268 106.497C8.46682 106.247 9.10772 105.486 9.85392 97.2131C9.95532 96.0873 9.82142 96.3915 19.7742 98.3519C20.8285 98.5651 21.8321 98.3571 21.5435 99.4998ZM10.8835 104.44C10.6599 105.36 11.3788 105.166 18.2012 106.279C19.574 106.503 18.9981 105.685 19.769 100.652C19.9471 99.4816 19.8223 99.9548 12.372 98.1335C11.3502 97.8852 11.6401 97.8917 10.8861 104.44H10.8835Z" fill="#F07D29"/>
<path d="M19.9651 114.546C19.3021 123.173 19.5907 122.996 18.5442 122.792C8.15463 120.729 7.96354 121.244 8.08314 119.689C9.04774 107.221 6.26957 111.582 18.9732 113.059C19.8 113.158 20.1757 113.555 19.9651 114.546ZM9.84853 118.525C9.93823 118.866 9.52353 119.511 10.3776 119.649C12.6084 120.01 14.834 120.404 17.0583 120.782C18.1373 120.967 17.8448 120.568 18.2829 115.222C18.3713 114.147 18.3921 114.506 11.0133 112.779C9.97593 112.536 10.2502 112.915 9.84853 118.525Z" fill="#F07D29"/>
<path d="M33.5411 110.272C23.9471 108.981 23.9562 109.441 24.1343 107.972C24.2786 106.782 24.5815 104.386 24.9247 102.128C25.4837 98.4533 24.9585 99.5635 35.2597 101.099C36.5324 101.289 36.145 101.277 34.7683 109.776C34.6422 110.55 34.0832 110.264 33.5411 110.272ZM32.6311 108.387C33.6282 108.557 33.2473 108.149 34.1911 103.276C34.3848 102.28 34.2366 102.66 27.7158 101.421C26.2858 101.149 26.7356 101.786 26.044 106.567C25.8919 107.69 26.0206 107.258 32.6363 108.387H32.6311Z" fill="#F07D29"/>
<path d="M29.4304 83.9974C39.3507 85.6653 39.2766 85.0374 38.9204 87.0186C37.3604 95.6662 37.4904 94.9486 34.8683 94.5378C27.2399 93.3522 26.3221 93.789 26.6276 92.4214C28.5802 83.714 28.2708 84.0299 29.4304 83.9974ZM37.5151 87.6998C37.6685 86.8158 37.2239 86.9952 30.33 85.7186C29.03 85.4794 29.68 86.3556 28.4645 90.7977C28.0888 92.1627 28.4801 91.8702 35.5079 92.8478C36.5856 92.9999 36.2853 92.9453 37.5151 87.6998Z" fill="#F07D29"/>
<path d="M47.4216 112.086C38.4971 110.979 38.1916 111.326 38.4841 109.8C39.9427 102.334 39.3707 101.697 40.5641 101.887C49.3404 103.274 49.9644 102.651 49.6758 104.11C48.2731 111.225 48.3082 112.313 47.4216 112.086ZM42.0084 103.79C41.7107 103.823 41.0984 103.409 40.9918 104.31C40.1949 110.632 38.6622 109.139 46.0085 110.09C47.0394 110.22 46.6962 109.679 47.6595 105.333C47.9351 104.085 47.3007 104.344 42.0084 103.79Z" fill="#F07D29"/>
<path d="M22.9684 121.28C23.4884 114.26 23.1621 113.895 24.4959 114.13C34.2459 115.858 33.9937 115.106 33.6817 117.436C32.7795 124.186 33.267 125.045 31.5237 124.772C22.1442 123.302 22.9905 124.248 22.9684 121.28ZM32.058 117.9C32.3401 116.83 31.7616 117.17 25.7686 115.959C24.7832 115.76 25.0263 115.875 24.5765 121.14C24.4777 122.286 24.3399 121.972 30.9088 122.929C31.8305 123.06 31.577 122.955 32.058 117.897V117.9Z" fill="#F07D29"/>
<path d="M22.6379 91.7935C22.6093 92.4162 22.2232 92.6697 21.555 92.5436C11.4436 90.6456 10.765 91.0875 11.1017 89.4157C12.7917 81.0892 12.169 80.6954 13.6094 80.984C27.7027 83.805 23.154 80.7422 22.6379 91.7935ZM20.58 90.6936C21.5732 90.8353 21.2196 90.0554 22.2037 84.6968C22.4013 83.6217 22.0971 84.0766 14.6078 82.3359C13.4521 82.0681 13.6536 82.4192 12.8957 87.8831C12.6227 89.8552 12.3302 89.5223 20.58 90.6936Z" fill="#F07D29"/>
<path d="M49.9 96.5554C40.9066 95.3659 40.878 95.6987 41.1185 94.4598C42.6096 86.7651 42.0714 86.1398 43.3064 86.3153C52.4064 87.6075 52.4376 87.3033 52.2127 88.6046C50.992 95.6883 51.5419 96.7699 49.9 96.5554ZM50.563 89.7655C50.7866 88.5955 50.3121 88.9855 44.089 88.0755C42.9528 87.9078 43.426 88.4655 42.6681 93.061C42.5745 93.6265 42.7526 93.7799 43.2661 93.841C51.096 94.777 49.4216 95.7299 50.563 89.7655Z" fill="#F07D29"/>
<path d="M44.1218 126.567C36.5987 125.527 36.2399 125.777 36.3829 124.73C37.5529 116.28 37.2773 116.295 38.3134 116.452C47.039 117.779 47.1261 117.338 46.8635 118.51C45.4036 124.992 45.5453 126.977 44.1218 126.567ZM39.3807 118.276C38.3134 118.116 38.7307 119.272 37.9858 122.949C37.7362 124.176 38.0976 123.849 43.5173 124.68C44.2778 124.797 43.9801 124.652 44.9252 119.654C45.0903 118.767 45.0149 119.117 39.3807 118.276Z" fill="#F07D29"/>
<path d="M52.2664 111.319C53.9434 103.759 53.2323 103.508 54.5895 103.64C55.7065 103.75 56.6829 103.837 57.5362 103.908V105.285C57.0691 105.251 56.5494 105.209 55.9714 105.157C54.9899 105.07 55.2122 105.41 54.2307 110.234C54.0409 111.169 54.4257 110.966 58.8197 111.421L59.8133 112.951C51.9202 112.877 51.9738 112.636 52.2649 111.327L52.2664 111.319Z" fill="#F07D29"/>
<path d="M57.4679 127.688C53.2273 126.931 48.9789 128.078 49.4209 126.069C51.1109 118.388 50.5103 118.041 51.835 118.185C60.3695 119.117 60.935 118.64 60.5931 120.024C60.0237 122.364 59.4309 124.695 58.894 127.044C58.6769 127.988 57.9606 127.495 57.4679 127.688ZM56.6723 126.062C56.9466 126.047 57.3938 126.25 57.5641 125.659C58.0298 124.1 58.4018 122.516 58.6782 120.914C58.8433 119.885 58.4182 120.165 53.057 119.822C52.0963 119.76 52.2965 120.035 51.2734 124.799C51.0472 125.854 51.4203 125.595 56.6723 126.062Z" fill="#F07D29"/>
<path d="M20.0679 50.3027C10.2009 50.1506 7.65293 47.9263 3.62689 83.1251C-1.40541 127.116 -0.557808 126.461 7.60873 129.237C16.3304 132.204 52.169 136.042 59.3489 135.861C60.4016 135.922 61.4424 135.613 62.2918 134.987C63.1412 134.363 63.7459 133.461 64.0014 132.438C64.1407 132 64.3095 131.384 64.5028 130.613L63.0935 127.88C62.7577 129.525 62.47 130.757 62.2503 131.472C61.4924 133.942 60.6799 133.838 56.1767 133.754C52.2585 133.681 36.7534 132.194 33.9103 131.797C10.7937 128.547 2.79489 128.225 2.65059 120.921C2.45689 111.1 6.98349 63.5666 11.7505 54.3613C12.3784 53.1471 12.849 52.6128 17.0207 52.7792C21.19 52.946 32.6528 53.7238 43.8569 55.0894V52.7792C33.6817 51.302 23.8017 50.3586 20.0679 50.3027Z" fill="#F07D29"/>
<path d="M102.503 204.128C103.543 205.837 105.684 204.358 107.703 203.761C129.804 197.211 197.298 175.506 218.042 165.445C219.42 164.766 220.191 163.807 220.026 162.68C219.145 150.312 215.726 134.344 212.753 122.446L209.412 120.854C210.502 124.604 211.323 127.596 211.767 129.517C214.23 140.186 216.173 150.953 217.6 161.819C217.669 162.046 217.693 162.283 217.669 162.519C217.645 162.754 217.573 162.982 217.459 163.19C217.344 163.396 217.19 163.578 217.004 163.725C216.818 163.871 216.603 163.977 216.376 164.04C208.586 167.725 105.214 204.905 103.788 201.937C102.27 198.778 100.927 195.903 99.7133 193.188L97.2793 194.107C98.9458 197.77 100.683 201.131 102.503 204.128Z" fill="#180B02"/>
<path d="M190.792 51.8769C183.252 29.3427 180.522 24.3377 173.421 9.89603C172.091 7.18813 172.298 7.26613 169.567 7.59893C165.204 8.12972 161.871 8.52947 158.752 9.0015L159.615 11.0828C166.461 9.74172 170.88 9.34119 171.358 10.3601C175.34 18.853 179.354 27.329 182.48 36.1924C182.834 37.211 194.831 73.6614 203.456 101.279L206.598 102.025C200.469 82.5779 190.798 51.9001 190.792 51.8769Z" fill="#180B02"/>
<path d="M174.054 44.8764C166.514 22.3422 163.784 17.3372 156.684 2.89554C155.354 0.187641 155.56 0.265641 152.829 0.598441C132.679 3.05024 134.507 2.70444 77.9084 19.6135C65.9146 23.1976 48.6428 28.4756 38.5457 33.8758C35.9717 35.2525 37.3341 34.2542 53.2357 94.1673C63.0312 131.081 72.0194 174.5 85.7656 197.127C86.8056 198.837 88.9467 197.357 90.9656 196.761C113.066 190.21 180.557 168.497 201.305 158.445C202.691 157.766 203.454 156.807 203.289 155.679C202.327 142.18 198.342 124.395 195.213 112.292L192.495 110.469L193.388 106.975L190.04 105.054C192.441 112.939 194.273 119.261 195.024 122.515C197.494 133.189 199.405 143.965 200.859 154.821C200.928 155.048 200.951 155.284 200.928 155.52C200.903 155.755 200.833 155.984 200.718 156.19C200.605 156.397 200.451 156.579 200.265 156.726C200.079 156.872 199.866 156.979 199.638 157.042C191.86 160.73 88.4761 197.91 87.05 194.939C70.67 160.84 74.7221 159.767 40.51 38.4089C39.6503 35.3578 39.6559 35.3552 42.4952 34.0084L42.5172 33.998C58.0353 26.6335 152.308 -1.56346 154.615 3.35834C158.598 11.8525 162.612 20.3272 165.737 29.1906C165.946 29.7915 170.207 42.7239 175.437 58.8994L178.928 60.3368C176.112 51.4065 174.058 44.8871 174.054 44.8764Z" fill="#180B02"/>
<path d="M76.0298 35.5477C81.4111 35.5954 86.5624 37.7362 90.3923 41.5167C94.2224 45.2971 96.43 50.4202 96.5477 55.8004C96.5789 68.4468 87.3723 76.4496 76.3977 76.3235C49.5098 76.0128 49.1458 35.4203 76.0298 35.5477ZM68.729 72.6185C69.2932 72.9214 69.6312 73.0332 69.9107 72.2129C75.3174 56.3321 75.4344 57.2941 75.0769 56.2528C68.9071 38.2582 69.5857 38.3258 67.9191 39.215C54.1222 46.5899 54.3653 64.8978 68.729 72.6185ZM94.716 56.4985C94.781 44.8102 83.2409 34.821 71.2705 38.0021C70.4996 38.2062 70.5022 38.5013 70.7193 39.1565C76.5472 56.7416 75.7373 56.2801 77.374 56.5401C96.3098 59.5561 94.6939 60.4323 94.716 56.4985ZM94.0127 61.6985C94.4391 60.3608 94.8317 61.042 76.9008 57.7491C75.8608 57.5593 76.3418 57.5411 71.1509 72.9396C70.3761 75.2315 89.0636 77.2283 94.0127 61.6933V61.6985Z" fill="#180B02"/>
<path d="M183.258 139.372C184.514 139.456 184.791 140.821 183.459 141.292C176.941 143.599 169.921 145.618 135.359 156.539C90.2297 170.797 90.6236 170.896 90.2908 169.762C89.9008 168.461 182.006 139.641 183.258 139.372Z" fill="#180B02"/>
<path d="M107.32 156.76C108.467 157.18 108.068 157.347 115.715 146.982C116.974 145.277 117.292 145.682 128.952 149.282C130.039 149.618 129.732 149.887 136.709 139.207C137.845 137.466 138.009 137.686 149.738 141.116C151.532 141.636 150.278 141.789 174.055 121.597C176.068 119.888 177.032 118.447 177.851 119.517C178.699 120.624 178.392 120.267 155.32 139.856C151.364 143.215 151.119 143.218 149.938 142.869C138.139 139.39 138.58 139.177 137.885 140.269C135.878 143.435 133.744 146.517 131.526 149.538C130.306 151.2 130.253 151.213 128.306 150.635C117.11 147.315 117.53 146.921 116.722 147.97C108.673 158.412 108.578 158.738 106.972 158.091C100.422 155.461 100.422 155.774 99.8593 156.315C95.8462 160.166 92.6963 163.262 92.1607 162.749C91.7031 162.309 92.2478 161.929 92.5117 161.641C94.6736 159.288 96.9564 157.056 99.3263 154.915C100.03 154.279 100.703 154.334 107.32 156.76Z" fill="#180B02"/>
<path d="M96.909 147.21C97.9659 147.314 104.504 149.797 105.495 150.181C106.06 150.399 106.39 150.412 106.733 149.791C111.171 141.819 116.21 134.21 120.916 126.397C121.849 124.845 121.764 125.111 131.779 129.477C133.056 130.033 132.559 130.053 139.509 119.105C140.445 117.631 140.101 117.155 147.516 121.079C148.796 121.756 148.556 121.419 154.06 115.281C155.239 113.968 155.801 115.039 155.348 115.555C148.913 122.899 149.262 123.064 147.994 122.481C145.873 121.505 143.715 120.599 141.646 119.521C139.939 118.632 140.879 120.264 133.897 130.441C132.947 131.827 133.01 131.604 123.279 127.349C121.089 126.391 122.298 128.724 107.289 151.097C106.433 152.375 106.465 152.406 97.7397 149.09C96.4995 148.618 97.0676 148.723 90.9524 157.343C89.6862 159.128 88.6722 158.481 89.8708 156.652C96.3227 146.82 95.9691 147.111 96.909 147.21Z" fill="#180B02"/>
<path d="M99.2595 35.3045C98.1519 35.2863 98.0089 34.5127 98.668 34.0187C100.368 32.7486 146.378 16.639 148.907 16.119C149.021 16.0742 149.143 16.0531 149.266 16.0574C149.389 16.0617 149.509 16.0911 149.62 16.1439C149.731 16.1965 149.83 16.2715 149.91 16.364C149.991 16.4565 150.052 16.5646 150.09 16.6816C150.126 16.7986 150.139 16.9221 150.127 17.0441C150.114 17.1663 150.078 17.2846 150.017 17.3919C149.957 17.499 149.877 17.5927 149.779 17.6672C149.682 17.7416 149.569 17.7953 149.45 17.8246C139.98 21.6687 103.109 34.2671 99.2595 35.3045Z" fill="#180B02"/>
<path d="M103.689 47.5494C102.553 47.4506 102.586 46.5094 103.257 46.1597C106.817 44.3098 149.527 29.4014 151.221 29.0842C152.812 28.7865 152.949 30.3608 151.788 30.8275C145.42 33.3911 108.984 46.1194 103.689 47.5494Z" fill="#180B02"/>
<path d="M106.796 53.2642C105.895 53.1953 105.616 52.4842 106.327 51.9278C107.78 50.7916 152.589 35.0863 154.601 34.7457C154.819 34.6978 155.047 34.7342 155.239 34.8475C155.432 34.9609 155.575 35.1429 155.638 35.3569C155.702 35.5708 155.681 35.8011 155.583 36.0011C155.484 36.2013 155.312 36.3566 155.104 36.4357C149.74 38.7263 111.038 52.1696 106.796 53.2642Z" fill="#180B02"/>
<path d="M80.1459 129.13C75.4035 114.125 72.7359 117.602 87.4363 112.257C89.4032 111.542 88.9287 113.528 93.3422 124.329C93.4396 124.503 93.4953 124.698 93.505 124.898C93.5147 125.098 93.4782 125.297 93.3981 125.48C93.3182 125.664 93.1969 125.826 93.0437 125.956C92.8906 126.085 92.7099 126.176 92.5154 126.224C82.1518 129.314 80.7257 130.966 80.1459 129.13ZM90.3912 124.6C91.0958 124.334 90.8007 124.47 87.7132 115.433C87.253 114.086 87.4662 114.635 78.6652 117.623C77.8033 117.916 78.1088 117.801 81.7085 127.243C82.0556 128.151 81.8801 127.811 90.3912 124.6Z" fill="#180B02"/>
<path d="M85.2183 101.94C85.9983 103.836 84.8153 103.65 73.7276 107.378C71.9076 107.989 72.2079 107.604 68.447 96.3137C67.537 93.5837 67.7138 94.0868 79.2162 89.8696C81.3378 89.0909 80.8165 91.2424 85.2183 101.94ZM79.5139 92.8583C79.2084 91.9665 79.2539 91.9327 70.696 95.1632C69.5624 95.5909 70.046 95.3556 73.5222 104.751C73.829 105.579 73.8082 105.727 82.1282 102.24C83.0707 101.847 82.6794 102.086 79.5139 92.8583Z" fill="#180B02"/>
<path d="M100.69 40.2613C101.414 39.6919 100.78 39.8921 127.536 30.2292C139.091 26.0562 140.214 25.557 140.613 26.7556C141.098 28.209 141.08 27.9763 102.947 41.1635C100.043 42.1697 100.045 40.767 100.69 40.2613Z" fill="#180B02"/>
<path d="M95.4428 113.133C94.0856 113.052 94.0882 112.036 94.8994 111.661C98.2612 110.101 107.998 107.574 119.846 103.635C120.727 103.343 121.552 103.175 121.864 104.049C122.342 105.39 121.214 105.325 115.007 107.221C95.465 113.195 97.2771 112.686 95.4428 113.133Z" fill="#180B02"/>
<path d="M87.8781 89.8721C86.5365 89.7252 86.5339 88.8438 87.3581 88.3862C89.5356 87.1811 99.9096 84.4862 111.981 80.4757C112.985 80.1429 114.083 79.8075 114.334 80.9203C114.594 82.0669 113.461 82.1696 110.619 83.0367C87.908 89.9566 89.8424 89.4002 87.8781 89.8721Z" fill="#180B02"/>
<path d="M89.8023 164.705C89.8764 170.945 82.218 142.208 81.7188 140.406C81.2417 138.686 81.1117 138.006 81.8306 137.794C82.7302 137.534 82.9876 138.279 84.0822 142.319C85.9373 149.16 88.5101 157.769 89.8023 164.705Z" fill="#180B02"/>
<path d="M97.0638 118.315C95.7508 118.39 95.8093 117.389 96.627 117.092C101.697 115.238 97.732 116.556 114.966 110.971C115.649 110.75 116.266 110.581 116.495 111.27C116.804 112.214 115.464 112.374 113.82 112.904C108.588 114.592 101.62 117.099 97.0638 118.315Z" fill="#180B02"/>
<path d="M89.3907 95.1018C88.1206 95.0355 88.2779 94.0931 89.1957 93.7733C108.572 87.0328 108.583 87.1433 108.896 87.9597C109.178 88.6916 108.558 88.9165 108.014 89.0946C89.4206 95.1851 90.8701 94.7053 89.3907 95.1018Z" fill="#180B02"/>
<path d="M160.73 53.9141C186.95 53.632 200.12 79.2276 192.665 98.387C192.405 99.0578 192.896 99.1982 193.349 99.4166C194.216 99.8352 195.115 100.636 195.941 100.567C197.516 100.437 197.16 96.7971 199.678 97.9346C209.067 102.182 236.903 115.923 243.832 122.734C250.324 129.115 247.017 133.41 242.979 134.079C230.742 136.104 202.991 118.089 192.37 111.589C192.189 111.498 192.029 111.373 191.897 111.219C191.765 111.067 191.664 110.891 191.601 110.698C191.538 110.507 191.513 110.304 191.527 110.103C191.543 109.901 191.598 109.705 191.689 109.526C192.355 107.286 192.27 107.348 190.235 106.324C189.125 105.765 188.596 106.095 187.933 106.987C176.598 122.243 150.735 123.809 136.943 106.458C121.14 86.5726 132.73 54.2144 160.73 53.9141ZM191.583 87.3488C191.507 67.1559 172.134 52.7181 153.608 58.0897C133.564 63.902 125.846 87.7635 140.017 104.974C157.577 126.301 191.687 114.368 191.583 87.3488ZM198.352 109.169C201.83 101.902 204.009 102.065 200.042 100.069C199.27 99.6792 198.881 99.8794 198.482 100.626C193.268 110.443 192.688 109.96 193.982 110.788C202.583 116.292 220.235 126.242 232.692 130.636C244.383 134.76 247.382 131.017 244.929 127.206C240.871 120.891 228.059 115.014 205.027 102.697C204.262 102.287 204.21 103.347 203.571 104.257C202.505 105.772 201.545 108.629 199.693 110.402C199.559 110.527 196.731 112.557 198.352 109.169ZM190.236 103.462C190.147 104.138 190.922 104.037 192.422 104.99C193.213 105.493 193.606 105.285 193.995 104.453C194.927 102.461 194.97 102.482 193.011 101.333C191.357 100.364 192.041 100.344 190.236 103.462Z" fill="#F07D29"/>
<path d="M187.347 88.6788C187.234 94.3378 185.048 99.7587 181.206 103.913C177.361 108.068 172.126 110.668 166.493 111.22C162.913 111.582 159.298 111.183 155.883 110.048C152.469 108.913 149.333 107.069 146.683 104.636C144.032 102.203 141.926 99.2362 140.504 95.9312C139.082 92.6263 138.374 89.0576 138.43 85.46C138.781 71.6046 149.014 62.5241 160.153 62.1536C176.878 61.5881 187.39 75.32 187.347 88.6788ZM150.358 94.7433C150.294 95.2217 150.358 95.7079 150.853 95.8717C152.232 96.3254 154.782 86.1802 156.481 79.831C158.7 71.5344 159.574 69.561 158.11 69.2425C156.403 68.8655 150.636 92.6451 150.358 94.7433ZM157.886 90.5209C157.835 91.2827 158.796 92.1602 159.219 90.6964C160.438 86.4571 161.429 82.1606 162.363 77.8485C162.493 77.2284 162.573 76.6655 161.902 76.4796C160.848 76.1897 160.784 76.1741 157.886 90.5209ZM149.306 74.9365C147.545 75.9076 143.938 89.5407 145.227 89.8865C146.574 90.2518 149.73 77.7471 149.301 74.9365H149.306Z" fill="#F07D29"/>
</svg>
