<svg width="286" height="244" viewBox="0 0 286 244" fill="none" xmlns="http://www.w3.org/2000/svg">
<path d="M25.3223 158.899C29.2598 161.523 35.6843 168.586 37.3433 174.072C38.4908 177.868 35.8313 179.752 32.6933 178.744C26.0738 176.62 12.4868 161.028 20.4728 161.118C24.7598 161.166 29.7233 167.31 32.1368 170.853C32.3918 171.228 32.7368 171.73 32.2328 172.101C31.0448 172.963 25.9238 163.626 21.3818 162.963C16.1318 162.198 26.6723 173.613 31.6208 176.419C33.9308 177.727 36.3743 177.727 35.6813 175.191C34.0568 169.257 26.0558 162.457 25.3223 158.899Z" fill="#010614"/>
<path d="M66.329 162.5C66.194 163.793 37.0205 190.1 36.5135 190.491C36.161 190.763 35.786 191.285 35.3135 190.823C34.5515 190.073 33.866 191.069 63.7325 162.752C64.877 161.666 65.939 160.967 66.329 162.5Z" fill="#010614"/>
<path d="M60.3035 180.571C52.667 187.179 43.187 197.01 42.161 195.823C41.297 194.823 52.361 185.868 59.198 179.355C60.365 178.249 61.5605 179.484 60.3035 180.571Z" fill="#010614"/>
<path d="M84.1998 222.65C84.2328 223.863 76.9818 229.643 76.0323 230.399C74.7243 231.44 73.4448 230.399 74.7033 229.068C77.1087 226.526 79.684 224.148 82.4118 221.955C82.5534 221.805 82.7362 221.702 82.9369 221.657C83.1376 221.612 83.347 221.628 83.5387 221.703C83.7306 221.777 83.8957 221.907 84.0135 222.075C84.1311 222.245 84.196 222.444 84.1998 222.65Z" fill="#010614"/>
<path d="M76.763 240.876C75.3995 242.172 76.1855 241.455 24.6711 189.066C12.5211 176.704 12.3216 177.036 13.5711 175.816C19.3146 170.212 20.3721 170.026 19.2801 168.943C18.5301 168.202 17.7801 169.008 17.2131 169.512C15.2625 171.249 13.4214 173.106 11.7006 175.071C10.1799 176.805 10.181 176.806 11.7483 178.56L11.7681 178.582C21.9966 190.021 66.425 234.969 66.3845 234.931C75.3531 244.099 75.215 244.653 76.8845 243.172C77.8095 242.361 87.924 233.301 98.3678 223.588L97.2876 221.602C91.3955 227.088 84.4892 233.53 76.763 240.876Z" fill="#010614"/>
<path d="M29.1981 157.804C28.1481 158.752 29.657 160.614 30.6845 159.675C32.6691 157.86 35.2674 155.503 38.0675 152.971L35.5889 152.191C31.8944 155.437 29.2083 157.797 29.1981 157.804Z" fill="#010614"/>
<path d="M44.0695 69.9656C18.931 67.5506 17.386 68.3081 16.8025 71.4506C16.0478 75.428 15.5851 79.4552 15.418 83.5001C15.5125 86.6501 15.2785 87.3671 17.272 87.7901C18.5213 89.2862 45.1388 92.1979 59.378 93.659L58.4222 90.8326C51.455 90.0982 39.7721 88.7062 19.8865 85.8671C17.5615 85.5341 17.404 85.2461 17.6905 83.0171C19.3645 69.9671 18.316 71.0396 21.8665 71.1671C32.2661 71.7464 42.6343 72.7606 52.9441 74.2064V71.1671C49.9247 70.6615 46.8811 70.2355 44.0695 69.9656Z" fill="#0705CB"/>
<path d="M24.7809 114.5C23.3259 127.55 26.2809 124.943 11.4924 122.573C9.69237 122.285 10.4319 121.407 11.2929 111.861C11.4099 110.562 11.2554 110.913 22.7394 113.175C23.9559 113.421 25.1139 113.181 24.7809 114.5ZM12.4809 120.2C12.2229 121.262 13.0524 121.038 20.9244 122.322C22.5084 122.58 21.8439 121.637 22.7334 115.829C22.9389 114.479 22.7949 115.025 14.1984 112.923C13.0194 112.637 13.3539 112.644 12.4839 120.2H12.4809Z" fill="#0705CB"/>
<path d="M22.9594 131.861C22.1944 141.815 22.5274 141.611 21.3199 141.376C9.33193 138.995 9.11143 139.589 9.24943 137.795C10.3624 123.409 7.15686 128.441 21.8149 130.145C22.7689 130.259 23.2024 130.718 22.9594 131.861ZM11.2864 136.453C11.3899 136.846 10.9114 137.59 11.8969 137.749C14.4709 138.166 17.0389 138.62 19.6054 139.057C20.8504 139.27 20.5129 138.809 21.0184 132.641C21.1204 131.401 21.1444 131.815 12.6304 129.823C11.4334 129.542 11.7499 129.979 11.2864 136.453Z" fill="#0705CB"/>
<path d="M38.6244 126.929C27.5544 125.44 27.5649 125.971 27.7704 124.276C27.9369 122.903 28.2864 120.139 28.6824 117.533C29.3274 113.293 28.7214 114.574 40.6074 116.345C42.0759 116.564 41.6289 116.551 40.0404 126.358C39.8949 127.25 39.2499 126.92 38.6244 126.929ZM37.5744 124.754C38.7249 124.951 38.2854 124.48 39.3744 118.858C39.5979 117.709 39.4269 118.147 31.9029 116.717C30.2529 116.404 30.7719 117.139 29.9739 122.654C29.7984 123.95 29.9469 123.452 37.5804 124.754H37.5744Z" fill="#0705CB"/>
<path d="M33.8809 96.6123C45.3274 98.5368 45.2419 97.8123 44.8309 100.098C43.0309 110.076 43.1809 109.248 40.1554 108.774C31.3534 107.406 30.2944 107.91 30.6469 106.332C32.8999 96.2853 32.5429 96.6498 33.8809 96.6123ZM43.2094 100.884C43.3864 99.8643 42.8734 100.071 34.9189 98.5983C33.4189 98.3223 34.1689 99.3333 32.7664 104.459C32.3329 106.034 32.7844 105.696 40.8934 106.824C42.1369 107 41.7904 106.937 43.2094 100.884Z" fill="#0705CB"/>
<path d="M54.6403 129.023C44.3428 127.745 43.9903 128.146 44.3278 126.385C46.0108 117.771 45.3508 117.036 46.7278 117.255C56.8543 118.855 57.5743 118.137 57.2413 119.82C55.6228 128.029 55.6633 129.284 54.6403 129.023ZM48.3943 119.451C48.0508 119.488 47.3443 119.011 47.2213 120.051C46.3018 127.345 44.5333 125.623 53.0098 126.719C54.1993 126.869 53.8033 126.245 54.9148 121.231C55.2328 119.791 54.5008 120.09 48.3943 119.451Z" fill="#0705CB"/>
<path d="M26.4247 139.631C27.0247 131.531 26.6482 131.109 28.1872 131.381C39.4372 133.374 39.1462 132.507 38.7862 135.195C37.7452 142.983 38.3077 143.975 36.2962 143.66C25.4737 141.963 26.4502 143.055 26.4247 139.631ZM36.9127 135.731C37.2382 134.496 36.5707 134.888 29.6557 133.491C28.5187 133.262 28.7992 133.394 28.2802 139.469C28.1662 140.792 28.0072 140.429 35.5867 141.533C36.6502 141.684 36.3577 141.563 36.9127 135.728V135.731Z" fill="#0705CB"/>
<path d="M26.0435 105.609C26.0105 106.327 25.565 106.62 24.794 106.474C13.127 104.284 12.344 104.794 12.7325 102.865C14.6825 93.2576 13.964 92.8031 15.626 93.1361C31.8875 96.3911 26.639 92.8571 26.0435 105.609ZM23.669 104.34C24.815 104.503 24.407 103.603 25.5425 97.4201C25.7705 96.1796 25.4195 96.7046 16.778 94.6961C15.4445 94.3871 15.677 94.7921 14.8025 101.097C14.4875 103.372 14.15 102.988 23.669 104.34Z" fill="#0705CB"/>
<path d="M57.4997 111.102C47.1227 109.73 47.0897 110.114 47.3672 108.684C49.0877 99.806 48.4667 99.0845 49.8917 99.287C60.3917 100.778 60.4277 100.427 60.1682 101.928C58.7597 110.102 59.3942 111.35 57.4997 111.102ZM58.2647 103.268C58.5227 101.918 57.9752 102.368 50.7947 101.318C49.4837 101.124 50.0297 101.768 49.1552 107.07C49.0472 107.723 49.2527 107.9 49.8452 107.97C58.8797 109.05 56.9477 110.15 58.2647 103.268Z" fill="#0705CB"/>
<path d="M50.8323 145.732C42.1518 144.532 41.7378 144.82 41.9028 143.612C43.2528 133.862 42.9348 133.879 44.1303 134.06C54.1983 135.592 54.2988 135.083 53.9958 136.435C52.3113 143.914 52.4748 146.204 50.8323 145.732ZM45.3618 136.165C44.1303 135.98 44.6118 137.314 43.7523 141.557C43.4643 142.973 43.8813 142.595 50.1348 143.554C51.0123 143.689 50.6688 143.522 51.7593 137.755C51.9498 136.732 51.8628 137.135 45.3618 136.165Z" fill="#0705CB"/>
<path d="M60.2302 128.138C62.1652 119.414 61.3447 119.125 62.9107 119.278C64.1995 119.404 65.3262 119.504 66.3108 119.586V121.176C65.7718 121.136 65.1721 121.088 64.5052 121.028C63.3727 120.928 63.6292 121.319 62.4967 126.886C62.2777 127.964 62.7217 127.73 67.7917 128.255L68.9382 130.021C59.8308 129.935 59.8926 129.658 60.2284 128.147L60.2302 128.138Z" fill="#0705CB"/>
<path d="M66.2323 147.025C61.3393 146.152 56.4373 147.475 56.9473 145.157C58.8973 136.294 58.2043 135.893 59.7328 136.06C69.5803 137.135 70.2328 136.585 69.8383 138.182C69.1813 140.882 68.4973 143.572 67.8778 146.282C67.6273 147.371 66.8008 146.803 66.2323 147.025ZM65.3143 145.148C65.6308 145.132 66.1468 145.366 66.3433 144.683C66.8806 142.885 67.3099 141.058 67.6288 139.208C67.8193 138.022 67.3288 138.344 61.1428 137.948C60.0343 137.878 60.2653 138.194 59.0848 143.692C58.8238 144.908 59.2543 144.61 65.3143 145.148Z" fill="#0705CB"/>
<path d="M23.0782 57.7342C11.6932 57.5587 8.75315 54.9922 4.10773 95.6062C-1.69877 146.365 -0.720773 145.609 8.70215 148.813C18.7657 152.236 60.1178 156.664 68.4023 156.455C69.617 156.526 70.8179 156.169 71.798 155.447C72.7781 154.727 73.4758 153.686 73.7707 152.506C73.9313 152 74.1262 151.289 74.3492 150.4L72.7231 147.247C72.3356 149.144 72.0037 150.566 71.7502 151.391C70.8757 154.241 69.9382 154.121 64.7422 154.024C60.2212 153.94 42.3307 152.224 39.0502 151.766C12.3772 148.016 3.14773 147.644 2.98123 139.217C2.75773 127.885 7.98073 73.0387 13.4812 62.4172C14.2057 61.0162 14.7487 60.3997 19.5622 60.5917C24.3728 60.7842 37.5992 61.6816 50.527 63.2574V60.5917C38.7863 58.8873 27.3863 57.7987 23.0782 57.7342Z" fill="#0705CB"/>
<path d="M118.196 235.224C119.396 237.197 121.866 235.49 124.196 234.801C149.696 227.243 227.575 202.199 251.51 190.59C253.1 189.807 253.99 188.7 253.799 187.4C252.782 173.129 248.837 154.704 245.407 140.976L241.552 139.139C242.81 143.466 243.757 146.918 244.27 149.135C247.111 161.445 249.353 173.868 251 186.407C251.08 186.668 251.107 186.942 251.08 187.214C251.051 187.485 250.969 187.748 250.837 187.988C250.705 188.226 250.526 188.436 250.312 188.606C250.097 188.774 249.85 188.897 249.587 188.969C240.599 193.221 121.323 236.121 119.678 232.697C117.926 229.052 116.377 225.734 114.976 222.602L112.168 223.662C114.091 227.888 116.095 231.767 118.196 235.224Z" fill="#010614"/>
<path d="M220.067 59.5499C211.367 33.5489 208.217 27.7739 200.024 11.1104C198.49 7.98587 198.728 8.07587 195.577 8.45987C190.543 9.07232 186.697 9.53357 183.098 10.0782L184.094 12.4797C191.993 10.9323 197.092 10.4702 197.644 11.6459C202.238 21.4454 206.87 31.2254 210.476 41.4524C210.886 42.6276 224.728 84.6858 234.68 116.553L238.306 117.413C231.233 94.974 220.075 59.5766 220.067 59.5499Z" fill="#010614"/>
<path d="M200.754 51.4727C192.054 25.4717 188.904 19.6967 180.711 3.03322C179.177 -0.0912774 179.415 -0.00127785 176.264 0.382722C153.014 3.21172 155.123 2.81272 89.817 22.3232C75.978 26.4587 56.049 32.5487 44.3985 38.7797C41.4285 40.3682 43.0005 39.2162 61.3485 108.347C72.651 150.939 83.022 201.038 98.883 227.147C100.083 229.119 102.554 227.412 104.883 226.724C130.383 219.165 208.257 194.112 232.197 182.513C233.796 181.73 234.677 180.623 234.486 179.322C233.376 163.746 228.779 143.225 225.168 129.26L222.032 127.157L223.062 123.125L219.2 120.909C221.97 130.007 224.084 137.301 224.951 141.056C227.801 153.372 230.006 165.806 231.683 178.332C231.762 178.593 231.789 178.866 231.762 179.138C231.734 179.409 231.653 179.673 231.521 179.912C231.39 180.15 231.212 180.36 230.997 180.53C230.783 180.698 230.537 180.822 230.274 180.894C221.3 185.15 102.011 228.05 100.365 224.622C81.465 185.277 86.1405 184.038 46.665 44.0102C45.6731 40.4897 45.6795 40.4867 48.9557 38.9327L48.981 38.9207C66.8865 30.4232 175.662 -2.11178 178.325 3.56722C182.921 13.3682 187.551 23.1467 191.157 33.3737C191.399 34.067 196.316 48.989 202.35 67.6531L206.378 69.3116C203.129 59.0074 200.759 51.485 200.754 51.4727Z" fill="#010614"/>
<path d="M87.6498 40.7084C93.859 40.7634 99.8028 43.2336 104.222 47.5957C108.641 51.9577 111.188 57.8689 111.324 64.0768C111.36 78.6688 100.737 87.9028 88.0743 87.7573C57.0498 87.3988 56.6298 40.5614 87.6498 40.7084ZM79.2257 83.4823C79.8767 83.8318 80.2668 83.9608 80.5893 83.0144C86.8277 64.6904 86.9627 65.8003 86.5502 64.5988C79.4312 43.8358 80.2143 43.9139 78.2913 44.9399C62.3718 53.4493 62.6523 74.5738 79.2257 83.4823ZM109.211 64.8824C109.286 51.3959 95.9703 39.8699 82.1583 43.5404C81.2688 43.7759 81.2718 44.1164 81.5223 44.8724C88.2468 65.1629 87.3122 64.6303 89.2007 64.9303C111.05 68.4103 109.185 69.4214 109.211 64.8824ZM108.399 70.8823C108.891 69.3388 109.344 70.1248 88.6547 66.3253C87.4548 66.1063 88.0098 66.0854 82.0203 83.8528C81.1263 86.4973 102.689 88.8013 108.399 70.8763V70.8823Z" fill="#010614"/>
<path d="M211.374 160.506C212.823 160.602 213.143 162.177 211.607 162.721C204.086 165.382 195.986 167.712 156.107 180.313C104.034 196.765 104.488 196.879 104.104 195.571C103.654 194.07 209.93 160.816 211.374 160.506Z" fill="#010614"/>
<path d="M123.754 180.569C125.077 181.053 124.616 181.247 133.441 169.287C134.893 167.319 135.26 167.787 148.713 171.941C149.967 172.328 149.613 172.638 157.664 160.316C158.975 158.307 159.164 158.561 172.697 162.518C174.767 163.118 173.321 163.295 200.756 139.997C203.078 138.024 204.191 136.362 205.136 137.597C206.114 138.873 205.76 138.462 179.138 161.064C174.573 164.94 174.291 164.943 172.928 164.541C159.314 160.527 159.822 160.281 159.021 161.541C156.705 165.194 154.242 168.75 151.683 172.236C150.276 174.153 150.215 174.168 147.968 173.502C135.05 169.671 135.535 169.217 134.602 170.427C125.315 182.475 125.206 182.852 123.352 182.105C115.795 179.07 115.795 179.432 115.145 180.056C110.515 184.499 106.88 188.072 106.262 187.479C105.734 186.972 106.363 186.533 106.667 186.201C109.162 183.486 111.796 180.911 114.53 178.44C115.342 177.707 116.119 177.77 123.754 180.569Z" fill="#010614"/>
<path d="M111.741 169.55C112.961 169.67 120.504 172.535 121.649 172.978C122.3 173.23 122.681 173.245 123.077 172.528C128.198 163.33 134.012 154.55 139.442 145.535C140.519 143.744 140.42 144.052 151.976 149.089C153.449 149.731 152.876 149.753 160.895 137.122C161.975 135.421 161.578 134.872 170.134 139.399C171.611 140.18 171.334 139.792 177.685 132.709C179.045 131.194 179.693 132.43 179.171 133.025C171.746 141.499 172.148 141.689 170.686 141.017C168.238 139.891 165.748 138.845 163.361 137.602C161.392 136.576 162.476 138.458 154.42 150.202C153.323 151.801 153.397 151.543 142.169 146.633C139.641 145.528 141.036 148.22 123.719 174.035C122.73 175.51 122.768 175.546 112.7 171.719C111.269 171.175 111.924 171.296 104.868 181.243C103.407 183.302 102.237 182.555 103.62 180.445C111.065 169.1 110.657 169.436 111.741 169.55Z" fill="#010614"/>
<path d="M114.453 40.4285C113.175 40.4075 113.01 39.515 113.771 38.945C115.733 37.4795 168.821 18.8915 171.739 18.2915C171.871 18.2397 172.012 18.2154 172.153 18.2204C172.295 18.2253 172.433 18.2592 172.562 18.3201C172.69 18.3809 172.804 18.4674 172.897 18.5741C172.99 18.6809 173.06 18.8055 173.104 18.9405C173.146 19.0755 173.161 19.218 173.147 19.3589C173.132 19.4999 173.09 19.6364 173.02 19.7601C172.951 19.8837 172.858 19.9919 172.745 20.0778C172.633 20.1636 172.502 20.2256 172.366 20.2595C161.438 24.695 118.895 39.2315 114.453 40.4285Z" fill="#010614"/>
<path d="M119.564 54.5569C118.253 54.4429 118.292 53.3569 119.066 52.9534C123.173 50.8189 172.454 33.6169 174.409 33.2509C176.245 32.9074 176.402 34.7239 175.063 35.2624C167.716 38.2204 125.673 52.9069 119.564 54.5569Z" fill="#010614"/>
<path d="M123.149 61.1511C122.109 61.0716 121.787 60.2511 122.607 59.6091C124.284 58.2981 175.986 40.1766 178.308 39.7836C178.56 39.7282 178.823 39.7702 179.045 39.901C179.267 40.0318 179.432 40.2418 179.505 40.4887C179.579 40.7356 179.555 41.0013 179.441 41.2321C179.327 41.4631 179.129 41.6422 178.889 41.7336C172.7 44.3766 128.043 59.8881 123.149 61.1511Z" fill="#010614"/>
<path d="M92.3985 148.688C86.9265 131.375 83.8485 135.388 100.81 129.22C103.08 128.395 102.532 130.687 107.625 143.149C107.737 143.35 107.802 143.575 107.813 143.806C107.824 144.037 107.782 144.266 107.689 144.478C107.597 144.689 107.457 144.877 107.281 145.027C107.104 145.175 106.895 145.28 106.671 145.336C94.713 148.901 93.0675 150.808 92.3985 148.688ZM104.22 143.462C105.033 143.155 104.692 143.312 101.13 132.884C100.599 131.33 100.845 131.963 90.69 135.412C89.6955 135.749 90.048 135.617 94.2015 146.512C94.602 147.559 94.3995 147.167 104.22 143.462Z" fill="#010614"/>
<path d="M98.2514 117.315C99.1514 119.502 97.7864 119.288 84.9929 123.59C82.8929 124.295 83.2394 123.851 78.8999 110.823C77.8499 107.673 78.0539 108.254 91.3259 103.388C93.7739 102.489 93.1724 104.972 98.2514 117.315ZM91.6694 106.836C91.3169 105.807 91.3694 105.768 81.4949 109.496C80.1869 109.989 80.7449 109.718 84.7559 120.558C85.1099 121.514 85.0859 121.685 94.6859 117.662C95.7734 117.207 95.3219 117.483 91.6694 106.836Z" fill="#010614"/>
<path d="M116.104 46.1479C116.939 45.4909 116.207 45.7219 147.08 34.5724C160.412 29.7574 161.708 29.1814 162.168 30.5644C162.728 32.2414 162.707 31.9729 118.708 47.1889C115.357 48.3499 115.36 46.7314 116.104 46.1479Z" fill="#010614"/>
<path d="M110.049 130.231C108.483 130.138 108.486 128.965 109.422 128.533C113.301 126.733 124.536 123.817 138.207 119.272C139.223 118.934 140.175 118.741 140.535 119.749C141.087 121.297 139.785 121.222 132.623 123.409C110.075 130.303 112.166 129.715 110.049 130.231Z" fill="#010614"/>
<path d="M101.321 103.391C99.7727 103.221 99.7697 102.204 100.721 101.676C103.233 100.286 115.203 97.1761 129.132 92.5486C130.29 92.1646 131.558 91.7776 131.847 93.0616C132.147 94.3846 130.839 94.5031 127.56 95.5036C101.355 103.488 103.587 102.846 101.321 103.391Z" fill="#010614"/>
<path d="M103.541 189.737C103.626 196.937 94.7898 163.778 94.2138 161.699C93.6633 159.714 93.5133 158.93 94.3428 158.685C95.3808 158.385 95.6778 159.245 96.9408 163.907C99.0813 171.8 102.05 181.733 103.541 189.737Z" fill="#010614"/>
<path d="M111.92 136.209C110.405 136.296 110.472 135.141 111.416 134.798C117.266 132.659 112.691 134.18 132.576 127.736C133.364 127.481 134.076 127.286 134.34 128.081C134.697 129.17 133.151 129.354 131.253 129.966C125.217 131.913 117.177 134.807 111.92 136.209Z" fill="#010614"/>
<path d="M103.066 109.425C101.6 109.349 101.782 108.262 102.841 107.893C125.198 100.115 125.21 100.243 125.572 101.185C125.897 102.029 125.182 102.289 124.555 102.494C103.1 109.522 104.773 108.968 103.066 109.425Z" fill="#010614"/>
<path d="M185.381 61.9011C215.634 61.5756 230.831 91.1091 222.228 113.216C221.928 113.99 222.495 114.152 223.017 114.404C224.018 114.887 225.056 115.811 226.008 115.732C227.826 115.582 227.415 111.382 230.321 112.694C241.154 117.595 273.272 133.45 281.267 141.308C288.758 148.672 284.942 153.628 280.283 154.399C266.163 156.736 234.143 135.949 221.888 128.449C221.679 128.344 221.495 128.2 221.342 128.023C221.19 127.847 221.073 127.643 221.001 127.421C220.928 127.201 220.899 126.967 220.916 126.734C220.934 126.502 220.997 126.275 221.102 126.068C221.871 123.484 221.772 123.556 219.425 122.374C218.144 121.729 217.533 122.11 216.768 123.139C203.69 140.743 173.847 142.549 157.934 122.528C139.7 99.5841 153.072 62.2476 185.381 61.9011ZM220.98 100.48C220.892 77.1801 198.539 60.5211 177.162 66.7191C154.035 73.4256 145.13 100.958 161.481 120.817C181.742 145.424 221.1 131.656 220.98 100.48ZM228.791 125.657C232.803 117.272 235.317 117.46 230.741 115.157C229.85 114.707 229.401 114.938 228.941 115.799C222.924 127.127 222.255 126.569 223.748 127.525C233.672 133.876 254.04 145.357 268.413 150.427C281.903 155.185 285.363 150.866 282.533 146.468C277.851 139.183 263.067 132.401 236.492 118.189C235.61 117.716 235.55 118.939 234.812 119.989C233.582 121.738 232.475 125.033 230.337 127.079C230.183 127.223 226.92 129.566 228.791 125.657ZM219.426 119.072C219.323 119.852 220.217 119.735 221.948 120.835C222.861 121.415 223.314 121.175 223.763 120.215C224.838 117.917 224.888 117.941 222.627 116.615C220.719 115.498 221.508 115.474 219.426 119.072Z" fill="#0705CB"/>
<path d="M216.092 102.014C215.962 108.544 213.44 114.799 209.006 119.593C204.571 124.387 198.53 127.387 192.031 128.023C187.9 128.441 183.728 127.981 179.788 126.671C175.849 125.362 172.231 123.233 169.172 120.426C166.114 117.619 163.684 114.196 162.043 110.382C160.402 106.569 159.586 102.451 159.65 98.3002C160.055 82.3132 171.862 71.8357 184.715 71.4082C204.013 70.7557 216.142 86.6002 216.092 102.014ZM173.413 109.012C173.339 109.564 173.413 110.125 173.984 110.314C175.576 110.837 178.517 99.1312 180.478 91.8052C183.038 82.2322 184.046 79.9552 182.357 79.5877C180.388 79.1527 173.734 106.591 173.413 109.012ZM182.099 104.14C182.041 105.019 183.149 106.031 183.637 104.342C185.044 99.4507 186.187 94.4932 187.265 89.5177C187.415 88.8022 187.507 88.1527 186.733 87.9382C185.516 87.6037 185.443 87.5857 182.099 104.14ZM172.199 86.1577C170.167 87.2782 166.006 103.009 167.492 103.408C169.046 103.829 172.688 89.4007 172.193 86.1577H172.199Z" fill="#0705CB"/>
</svg>
