<?xml version="1.0" encoding="utf-8"?>
<!-- Generator: Adobe Illustrator 26.5.0, SVG Export Plug-In . SVG Version: 6.00 Build 0)  -->
<svg version="1.1" id="Layer_1" xmlns="http://www.w3.org/2000/svg" xmlns:xlink="http://www.w3.org/1999/xlink" x="0px" y="0px"
	 viewBox="0 0 242 208.2" style="enable-background:new 0 0 242 208.2;" xml:space="preserve">
<style type="text/css">
	.st0{fill:#F07D29;}
	.st1{fill:#180B02;}
</style>
<path class="st0" d="M153.6,103.8h-43.9c-7.5,0-8.7,9.3-0.6,9.4c8.1,0.1,43.2,0.4,44.5,0.4C154.4,113.5,154.1,103.8,153.6,103.8z"/>
<path class="st0" d="M195.1,80.7c0-2-0.8-4-2.2-5.5c-1.4-1.5-3.3-2.4-5.3-2.6c-4.6-0.4-104.9-0.2-110.3,0c-5.3,0.2-7.8,3.8-8,7
	c-0.2,2.3-0.3,8.5,0.6,8.5c2.9,0,123.4,0.3,124.8,0.3C195.6,88.5,195.1,81.6,195.1,80.7z M171.1,84.2c-4.8,0-5.2-7.5-0.3-7.5
	c0.5-0.1,1,0,1.5,0.1c0.5,0.2,0.9,0.4,1.3,0.7c0.4,0.3,0.7,0.8,0.9,1.2c0.2,0.5,0.3,1,0.4,1.5c0,0.5-0.1,1-0.3,1.5
	c-0.2,0.5-0.5,0.9-0.8,1.3c-0.4,0.4-0.8,0.6-1.3,0.8C172.2,84.1,171.6,84.2,171.1,84.2z M183.9,84.2c-0.5,0.1-1,0-1.5-0.1
	c-0.5-0.2-0.9-0.4-1.3-0.7c-0.4-0.3-0.7-0.8-0.9-1.2c-0.2-0.5-0.3-1-0.4-1.5s0.1-1,0.3-1.5c0.2-0.5,0.5-0.9,0.8-1.3
	c0.4-0.4,0.8-0.7,1.3-0.8c0.5-0.2,1-0.3,1.5-0.3C188.5,76.7,188.9,84.2,183.9,84.2z"/>
<path class="st1" d="M194.7,116c0.8-8.3,0.9-16.6,0.2-24.9c-0.1-1.1-1.7-0.9-1.6,0.2c0.6,6.9,0.7,21.1-0.6,28.1
	c-1.4,7-6.4,6.1-11.9,6.2l-95.1,1.1c-17,0.2-14.8-0.8-15-35.3c0-0.8-1.3-0.8-1.3,0c-0.3,4.7-0.5,23.9,0.3,28.7
	c1.6,9.7,11.3,8.2,19.1,8.1l89.1-1C188,127.1,193.5,128.7,194.7,116z"/>
<path class="st1" d="M156.5,103.9c-0.1,0-0.2,0-0.2,0.1c-0.1,0-0.1,0.1-0.2,0.1c-0.1,0.1-0.2,0.3-0.2,0.5s0.1,0.3,0.2,0.4
	c0.1,0.1,0.3,0.2,0.5,0.2c8.3,0.4,16.8-0.1,25.1,0.4c2.9,0.2,4.3,1.4,4.5,2.8c0.4,4-6.4,3.5-8.7,3.6h-20.5c-1,0-1,1.7,0.1,1.7
	c7.1-0.1,14.2-0.1,21.3-0.2c3.4,0,9.7-0.1,9.3-5.1c-0.3-4-5-4.3-8-4.3C172.3,104,163.4,103.6,156.5,103.9z"/>
<path class="st1" d="M88.6,97.2c-0.2-0.6-1-0.4-1.2,0.1c-0.4,0.9-0.5,8-0.5,9.3c-1.1-0.9-2.2-1.7-3.3-2.5c-0.2-0.2-2-0.2,0.1,1.9
	c1.2,1.2,2.5,2.2,4,3.1c0.7,0.2,3.5-3,4.1-3.6c1.5-1.4,0.2-2-0.2-1.9c-1.1,0.7-2.1,1.6-3,2.6C88.6,104.5,89,98.4,88.6,97.2
	L88.6,97.2z"/>
<path class="st1" d="M78.9,114.1c-1,0-0.9-3.1-1-3.9c-0.2-2.6,1.4-1.3,1.4-1.3c0.4,0.5,0.4,3.2,0.4,3.8c5.5-0.4,11-0.4,16.4,0.2
	c-0.1-1.7-0.6-4.1,0.6-4.1c1.2-0.1,1,1.6,1,3c0,1.3,0.3,2.8-0.5,2.8C91,114.5,85,114.4,78.9,114.1z"/>
<path class="st1" d="M119.9,49.9c-0.4-0.5-3.1-4.1-3.9-4c-2.2,0.2-12.5,3.5-11.4,5c1.6,6.4,4.4,17.9,4.9,19.3c0.2,0.6,1.1,0.3,1-0.3
	c-0.6-4.2-3.3-14.1-4.7-19.1c3.3-1.5,6.7-2.7,10.2-3.5c1,1.1,2,2.2,3,3.4c1.6,1.2,30.7-7.7,33.7-8.5c5.6,17.8,5.7,21.3,7.9,26.2
	c0.3,0.6,1.1,0.1,1-0.4c-2.1-7.2-5-20.4-8.1-26.7C153.1,39.9,119.9,50,119.9,49.9z"/>
<path class="st1" d="M129.1,20c3,2.7,13.5,15.7,15.6,19.3c0.3,0.6-0.6,1-0.9,0.5c-4.3-5.5-6.6-9.5-15-18.7
	c-11.7,8-22.2,18.3-23.9,17.7s-3.9-1-5.5-1.5c-2.6,2.1-4.9,4.5-7.1,7c1.2,1.2,10.1,11.5,10.9,13c0.3,0.6-0.5,1.4-0.9,0.8
	c-7.1-8.9-12-13.1-11.3-14.3c1.1-1.8,5.9-6.5,7.6-7.3c0.2-1.1,5.4,0.9,6.3,1.2C105,37.6,128,18.9,129.1,20z"/>
<path class="st1" d="M82.3,44.4c0.2-1.3,2.1-10.5,2.9-10.9l4.9-1.5c0.9-2.3,8.7-23.1,9.4-23c3,0.6,22.1,8.4,23.8,9.6
	c0.5,0.4,0.2,1.2-0.4,1c-7.3-2.7-15.9-6.9-23-9.3c-0.2,1.2-8.7,22.4-8.8,22.6c-0.9,0.9-4,1.2-5.3,1.5C85.7,36,84,42,83.5,43.8
	l4.1,1.1c0.6,0.3,0.5,1.4-0.2,1.3C87.9,46.2,82.2,45.2,82.3,44.4z"/>
<path class="st1" d="M57,38.6c-0.9,0.3-3.6,3.6-3.4,4.4c0.6,3.4,1.6,6.8,2.9,9.9c0.4,0.9,19.2-5,21.4-5.6c0.1,0,0.2,0,0.2-0.1
	c0.1,0,0.1-0.1,0.2-0.2c0-0.1,0.1-0.1,0.1-0.2c0-0.1,0-0.2,0-0.3c0-0.1,0-0.2-0.1-0.2c0-0.1-0.1-0.1-0.2-0.2c-0.1,0-0.1-0.1-0.2-0.1
	c-0.1,0-0.2,0-0.3,0c-6.9,1.4-13.6,3.3-20.2,5.7c-1.1-2.8-1.9-5.7-2.7-8.6c0.6-0.7,3.5-3.9,3.4-4.4c-1.7-8-3.5-16.3-5.3-24.3
	c7.7-1.3,15.8-3.3,23.6-4.8c0.4,3.9,3.3,15.2,5.2,23c0.1,0.4,0.9,0.1,0.9-0.3c0-2.6-4.4-19.9-5.3-23.6c-0.3-1.4-23.2,4-25.1,4.6
	C50.5,13.9,56.3,35.7,57,38.6L57,38.6z"/>
<path class="st1" d="M50.7,61.3C43.1,55.8,30.3,46.9,22,42.9c-1.7-0.8-11.1,18-11.4,21.2c0,1.8,15.8,10.2,19.3,11.5
	c0.1,1.8,0.1,3.6,0.2,5.4c0.4,0.9,3.8,2.6,4.8,2.8c4.2,1.1,5.8,1.5,6.2,0.4C45.3,71.6,50.9,61.5,50.7,61.3z M40,83.7
	c-3.1-0.5-6-1.5-8.7-3c0.1-0.8,0.1-5.7-0.8-6.2c-6.6-3.4-12.3-6.6-18.8-10.5c3.3-8.7,6-12.2,10.4-19.6c9.4,5.7,18.2,10.8,27.2,17.4
	C47.1,65.8,41.1,79.4,40,83.7z"/>
<path class="st1" d="M38,97.1c-10.6-0.3-22.1-0.7-32.8-0.4c-2.2,0.1,1.5,21.3,2.2,23.5c0.3,1,17,0.6,20.5,0.1
	c0.5,1.3,1.3,2.5,2.3,3.4c0.6,0.5,10.6,0.5,10.8-0.8C38.8,107.8,39.3,97.2,38,97.1z M31.1,122.5c-0.4-0.6-2.4-3.6-2.9-3.6
	c-6.6,0.2-13.1,0.3-19.7,0.4c-1.5-7.1-2.4-14.3-2.8-21.5l31.5,0.5c0.6,7.7,1.3,16,2.4,23.6L31.1,122.5z"/>
<path class="st1" d="M58.1,149.5c-5.6-6.5-13.8-17.6-14.5-17.3c-9.4,4.1-18.6,8.9-27.4,14.1c-2.3,1.4,9.2,16.7,11.5,18.9
	c1.5,1.4,14.9-8.3,17.3-9.7c1.3,1.1,2.8,1.9,4.4,2.4C50.2,158.2,58.9,150.5,58.1,149.5z M49.6,156.5c-2.8-0.9-4.4-2.7-5.2-2.3
	c-5.3,3.4-10.2,6.8-16.4,10.2c-4.3-5.4-7.9-11.3-11-17.5c8.8-5.2,17.5-8.9,26.5-13.1c1.9,2.7,10.6,13.9,13.2,16
	C54.4,152.2,52.1,154.3,49.6,156.5z"/>
<path class="st1" d="M95.3,172.5c-2.1-1.6-18.4-8-22.6-8.9c-1.2-0.3-16.5,26.2-15.6,26.9c6.3,4.7,13.5,8.1,21.1,10.1
	c1.7,0.4,9.6-17.1,10.6-19.4c1.1,0,2.4-0.3,3.5-0.3C93.4,180.7,96.2,173.2,95.3,172.5z M92,179.9c-0.9,0.1-4.1-0.1-4.3,0.5
	c-3,6.3-6.1,12.5-9.2,18.8c-8.6-2.6-12.5-4.6-20.1-9.2c0,0,10.3-19.3,14.6-25.1c4.4,1.5,17.4,6.9,21.4,8.4
	C93.5,175.4,92.7,177.7,92,179.9L92,179.9z"/>
<path class="st1" d="M148.5,185.3c-0.3-2.3-0.6-5.6-0.9-8c-0.6-1.4-9.8,0.1-22,0.1c-1.4,0,0.8,26.9,0.9,29.7
	c1.9,1.9,19.9,1,19.9-1.3l-1.6-17.5C146.4,187.3,148,186.4,148.5,185.3z M143.7,188.2c0.4,5.8,0.9,11.6,1.3,17.4
	c-5.8,1-11.6,1.4-17.4,1.1c-0.2-9.1-1.3-18.4-1-28c6.6-0.1,13.1-0.2,19.9-0.7c0.1,0.9,1,7,0.7,7.3
	C147.1,185.6,144.7,186.5,143.7,188.2z"/>
<path class="st1" d="M190.9,166.3c0.9-1.6,1.3-2.2,1.2-2.9c-0.1-0.8-4.6-7.1-5.3-6.7c-3.1,1.7-10.5,8.9-12.3,11.5
	c-0.1,1.6,10.5,20,11.8,20.4c0.6,2.3,11.6-9.1,11.5-9.8C197.8,178.1,191.6,167.6,190.9,166.3z M187,187.5
	c-4.2-6.1-7.9-12.5-11.2-19.2c3.9-3.7,7-6.6,11.1-10l3.8,5.3l-1,2.4c-0.3,0.6,6,10.6,7,12.7C193.9,182.1,190.6,185.1,187,187.5
	L187,187.5z"/>
<path class="st1" d="M227.1,140c-1-1.1-8.5-4.7-9.9-5.2c0.1-0.5,0.4-3.1,0.1-3.4c-1.8-1.1-3.8-2-5.8-2.7c-1,0-7.4,13.4-6.9,13.9
	c1.9,1.6,14.9,10.1,17.3,11C222.8,153.8,227.7,140.6,227.1,140z M221.7,151.7c-1.3-0.9-14.6-9.4-15.8-9.8c0.1-0.1,5.2-10.6,6-12
	c1.3,0.9,2.8,1.6,4.3,2.2c-0.2,1-0.2,2.1-0.1,3.1c0,0.4,8,4.5,9.6,5.1C224.4,144.1,223.1,148,221.7,151.7z"/>
<path class="st1" d="M233.2,104.8c0-0.9-6.3-2.6-7.3-2.9c0-0.8-0.1-1.5-0.3-2.3c-0.3-0.7-5.5-2.6-5.9-2.3c-1,0.5-3.2,11.6-2.2,12.1
	c1.6,0.9,12.4,5.5,14,5.2C232.3,114.3,233.4,105,233.2,104.8z M230.9,113c-4.2-1.4-8.3-3.1-12.5-4.5l1.9-9.9l4.3,1.6
	c0.1,0.5,0.2,2.4,0.7,2.6l6.7,2.4C231.5,107.6,230.9,112.6,230.9,113z"/>
<path class="st1" d="M231.8,69.2c-0.3-0.3-7.2-0.1-8.9-0.2l-2.2-2c-0.8,0-4.7-0.2-5.1,0.3c-0.4,0.5,2.3,10.3,2.8,11.1
	c0.3,0.4,14.4,0.4,14.7,0C233,75.3,232.5,72.2,231.8,69.2z M219.2,77.3c-0.8-3.1-1.6-6.1-2.4-9.2c1.1,0,2.6,0.2,3.6,0.1
	c0.6,0.7,1.3,1.4,2,1.9c2.8,0.2,5.6,0.3,8.4,0.2c0.3,2.4,0.7,4.8,1.4,7.2C227.9,77.5,223.4,77.3,219.2,77.3z"/>
<path class="st1" d="M213.9,29.2c-0.5-0.5-7.7,2.5-8.6,2.8c-0.7-0.6-1.5-1.1-2.3-1.5c-0.5,0-5.7,2-5.2,3c1.3,2.4,5.1,8.4,7.3,10.2
	c0.7,0.6,12.2-4.3,13-5C219.1,37.8,214.7,30,213.9,29.2z M205.7,42.7c-2.4-3-4.3-6-6.6-9.1l3.7-1.6c0.4,0.2,2,1.4,2.4,1.3
	c2.8-0.7,5.5-1.7,8.1-2.9c1.2,2.5,2.6,5,3.7,7.5C215.4,38.7,205.7,42.6,205.7,42.7z"/>
<path class="st0" d="M1.2,57.9C1,58.5,1.9,59,2.2,58.3c6.4-15,13.9-24.9,25.3-36c0.4-0.4-0.2-1.1-0.6-0.8
	C26.8,20.9,9.4,35.7,1.2,57.9z"/>
<path class="st0" d="M100.7,68.1c-2.4-2.5-6.2-6.2-9.2-7.9c-0.6-0.3-1,0.5-0.6,0.9c2.9,2.8,6,4.9,9,7.9
	C100.4,69.6,101.2,68.7,100.7,68.1z"/>
<path class="st0" d="M126.8,10.3C122,5,111.2,0.9,105.3,0c-0.2,0-0.3,0-0.4,0.1s-0.2,0.2-0.2,0.4c0,0.2,0,0.3,0.1,0.4
	c0.1,0.1,0.2,0.2,0.4,0.2c10.7,1.7,14.9,5.5,21,10C126.6,11.5,127.1,10.7,126.8,10.3L126.8,10.3z"/>
<path class="st0" d="M50.6,49.1c-1.5-0.1-3.7,3.2-4.2,4.3c-0.3,0.6,0.7,1,1,0.5c1.2-2.2,3.4-3.6,3.6-4c0-0.1,0-0.2,0-0.3
	c0-0.1,0-0.2-0.1-0.2c0-0.1-0.1-0.1-0.2-0.2C50.8,49.1,50.7,49.1,50.6,49.1L50.6,49.1z"/>
<path class="st0" d="M45.4,23.9C39,25.5,32.3,32.4,29.1,38c-0.4,0.7,0.7,1.1,1.1,0.5c3.6-6.1,9-10.8,15.5-13.6
	C46.2,24.7,45.9,23.8,45.4,23.9z"/>
<path class="st0" d="M41.3,37.1c0.5-0.1,0.9,0.6,0.5,0.9c-2.8,1.7-5,4.2-6.4,7.1c-0.3,0.7-1.3,0.1-1-0.6
	C35.5,42,38.5,37.9,41.3,37.1L41.3,37.1z"/>
<path class="st0" d="M23,76.5c-2.6,3-3.9,9.1-4,12.9c0,0.7,1.1,0.7,1.2,0.1c0.5-5.8,1.9-9.3,3.9-12.2C24.5,76.6,23.5,75.9,23,76.5z"
	/>
<path class="st0" d="M15.2,77.3c-2.1,2.9-3,10.7-3,14.3c0,0.1,0.1,0.3,0.2,0.4c0.1,0.1,0.2,0.1,0.4,0.1c0.1,0,0.3-0.1,0.4-0.1
	c0.1-0.1,0.2-0.2,0.2-0.4c0.1-4.8,1.1-9.4,2.9-13.9C16.5,77.1,15.6,76.7,15.2,77.3L15.2,77.3z"/>
<path class="st0" d="M33.4,182.9c-11.9-8.4-18-17.7-23.6-30.6c0-0.1-0.1-0.2-0.3-0.3c-0.1-0.1-0.3-0.1-0.4,0s-0.2,0.1-0.3,0.3
	c-0.1,0.1-0.1,0.3,0,0.4c3.6,12,13.6,23.9,23.9,31.1C33.3,184.1,34,183.3,33.4,182.9L33.4,182.9z"/>
<path class="st0" d="M230,119.2c0-0.1-0.1-0.2-0.2-0.3c-0.1-0.1-0.2-0.1-0.3-0.1c-0.1,0-0.2,0-0.3,0.1c-0.1,0.1-0.2,0.2-0.2,0.3
	c-0.4,3.1-0.3,4.8-2,7.7c-0.3,0.5,0.7,1.1,1,0.5C229.2,125.3,230.6,121.7,230,119.2z"/>
<path class="st0" d="M223.5,118.1c-0.8,1.4-2.8,8.9-3.2,10.6c-0.2,0.7,0.9,0.9,1.1,0.2c0.5-1.6,3-8.8,3.1-10.4c0-0.1,0-0.2-0.1-0.4
	c-0.1-0.1-0.2-0.2-0.3-0.2c-0.1,0-0.2,0-0.4,0C223.7,117.9,223.6,118,223.5,118.1z"/>
<path class="st0" d="M196.3,166.7c-0.1,0.1-0.1,0.2-0.1,0.3c0,0.1,0,0.3,0.1,0.4c0.1,0.1,0.2,0.2,0.3,0.2c0.1,0,0.3,0,0.4,0
	c3-2,8.3-7.3,9.4-10.9c0.2-0.5-0.6-1.1-0.9-0.5C205.1,156.3,203.1,161.6,196.3,166.7z"/>
<path class="st0" d="M201.7,151.3c-0.6,2.3-4.6,5.9-6.4,7.2c-0.6,0.4-1.1-0.5-0.5-0.9c4.2-3,4.8-5.5,6.1-6.8
	C200.9,150.5,201.8,150.6,201.7,151.3z"/>
<path class="st0" d="M164.6,194.9c-0.1,0-0.3,0.1-0.3,0.3c-0.1,0.1-0.1,0.3,0,0.4c0,0.1,0.1,0.3,0.3,0.3c0.1,0.1,0.3,0.1,0.4,0.1
	c2.7-0.8,10.2-3.6,12.3-5.7c0.4-0.4-0.1-1.1-0.5-0.9C176.4,189.2,170.4,193.1,164.6,194.9z"/>
<path class="st0" d="M160.3,188.4c-3.8,1.5-5,3.1-9.8,2.9c-0.1,0-0.3,0.1-0.4,0.2c-0.1,0.1-0.2,0.2-0.2,0.4c0,0.1,0,0.3,0.1,0.4
	c0.1,0.1,0.2,0.2,0.3,0.2c2.8,0.2,5.7-0.4,8.2-1.6C162.3,188.9,160.8,188.2,160.3,188.4z"/>
<path class="st0" d="M168.9,175.2c-5.1,2-10.4,3.2-15.9,3.4c-0.6,0-0.6,1,0.1,1c4.2-0.1,12.5-1.2,16.2-3.4
	C169.9,175.9,169.4,175.1,168.9,175.2L168.9,175.2z"/>
<path class="st0" d="M118.6,183.5c-5.5-0.3-7.5,0.3-13.2-1.6c-0.7-0.2-0.9,0.8-0.3,1c3.8,1.4,9.6,2.6,13.6,1.5
	c0.1,0,0.2-0.1,0.2-0.2c0.1-0.1,0.1-0.2,0.1-0.3c0-0.1-0.1-0.2-0.1-0.3C118.8,183.6,118.7,183.6,118.6,183.5z"/>
<path class="st0" d="M115.9,194.5c-7.7-0.4-12.1-0.2-19.6-3.1c-0.6-0.2-1.2,0.7-0.5,1c5.6,2.3,14.2,4.3,20.3,3.2
	C116.7,195.4,116.5,194.6,115.9,194.5z"/>
<path class="st0" d="M48.5,176.7c-5.1-2.4-8.3-3.5-11.8-8.3c-0.4-0.6-1.3,0.1-0.9,0.7c2.6,3.8,7.7,8.1,12.4,8.6c0.1,0,0.2,0,0.3-0.1
	c0.1-0.1,0.2-0.2,0.2-0.3c0-0.1,0-0.2,0-0.3C48.7,176.9,48.6,176.8,48.5,176.7z"/>
<path class="st0" d="M59.3,170.5c0.1,0,1.6,2.1-3.7-0.2c-3.3-1.4-6.3-3.4-9-5.8c-0.5-0.5,0.3-1.2,0.9-0.8
	C51.8,167.4,54.7,168.1,59.3,170.5L59.3,170.5z"/>
<path class="st0" d="M65.1,163c-1.8-1.4-3.7-2.7-5.6-4.1c-0.6-0.4-1.1,0.5-0.6,1c1.8,1.3,3.6,2.7,5.5,3.9
	C65,164.2,65.6,163.4,65.1,163L65.1,163z"/>
<path class="st0" d="M18.5,136.3c-1.9-3.1-2.7-6.8-2.2-10.5c0.1-0.6-0.8-0.7-1-0.1c-1.2,3.3,0.4,8.3,2.2,11.2
	C17.9,137.4,18.9,136.9,18.5,136.3z"/>
<path class="st0" d="M29.2,134.3c-1.5-2.3-2.6-4.9-3.4-7.6c-0.1-0.6-0.9,0-0.9,0.5c-0.1,1.4,2.6,6.9,3.3,7.6
	C28.7,135.4,29.6,134.9,29.2,134.3z"/>
<path class="st0" d="M239.4,81.2c0.5,9.7-0.5,19.4-3,28.8c0,0.1,0,0.3,0.1,0.4c0.1,0.1,0.2,0.2,0.3,0.2c0.1,0,0.3,0,0.4,0
	c0.1-0.1,0.2-0.2,0.2-0.3c2.2-8,4.2-20.8,3-29.2C240.4,80.5,239.3,80.6,239.4,81.2z"/>
<path class="st0" d="M199.1,13.8c-0.5-0.5-1.4,0.2-0.9,0.7c3.7,3.8,7.1,8,10,12.4c0.3,0.5,1.1,0,0.9-0.5
	C209.4,26.4,205.8,20.5,199.1,13.8z"/>
<path class="st0" d="M199.8,24.3c0.3,0.5-0.4,0.9-0.8,0.6c-2.6-2.3-9.1-10-11.7-13c-0.4-0.5,0.3-1.1,0.7-0.7
	C190.7,14.1,197.8,21.4,199.8,24.3z"/>
<path class="st0" d="M220.9,46.7c0-0.1-0.1-0.1-0.1-0.1c-0.1,0-0.1-0.1-0.2-0.1c-0.1,0-0.1,0-0.2,0c-0.1,0-0.1,0-0.2,0.1
	c-0.1,0-0.1,0.1-0.1,0.1s-0.1,0.1-0.1,0.2c0,0.1,0,0.1,0,0.2c0,0.1,0,0.1,0.1,0.2c3.8,5.9,4.6,9.8,5.8,14.5c0.1,0.6,1,0.4,1-0.2
	C227,57.2,221.3,46.7,220.9,46.7z"/>
<path class="st0" d="M215.5,46.9c-0.2-0.7-1.3-0.4-1.1,0.3c0.5,1.3,2.7,7.9,3.4,8.9c0.3,0.4,1,0.3,0.9-0.3
	C218.5,54.1,216.2,48.7,215.5,46.9z"/>
<path class="st0" d="M231.3,86.1c-0.1-0.5-1-0.7-1-0.1c0.1,4.4-0.2,8.8-0.9,13.1c-0.1,0.7,0.9,0.7,1.1,0
	C231.3,94.8,231.6,90.4,231.3,86.1L231.3,86.1z"/>
<path class="st0" d="M93.5,10.1C91,8.4,85.4,9,82.6,10c-0.8,0.3-0.5,1.5,0.3,1.2c5.4-1.9,8.2-0.2,10.3-0.2c0.1,0,0.2,0,0.3-0.1
	c0.1-0.1,0.2-0.2,0.2-0.3c0-0.1,0-0.2,0-0.3C93.6,10.3,93.6,10.2,93.5,10.1z"/>
<path class="st0" d="M168.9,45.3c-0.1-0.7-1-0.4-1.1,0.1c-0.8,6.2-0.5,12.7-1.4,19.2c-0.1,0.6,1,0.8,1.1,0.2
	C168.4,59.6,169.6,50.3,168.9,45.3z"/>
<path class="st0" d="M132.2,2.7c-0.5-0.5-1.3,0.3-0.8,0.8c11.1,11.4,14.6,20.2,18,30.2c0.2,0.7,1.5,0.3,1.3-0.3
	C147.3,20.6,139.2,8.9,132.2,2.7z"/>
</svg>
