<svg width="330" height="185" viewBox="0 0 330 185" fill="none" xmlns="http://www.w3.org/2000/svg">
<path d="M2.77562 113.007C-1.08476 113.158 -0.850534 115.773 3.05148 115.957C8.6911 116.222 23.2432 116.205 49.3378 116.136L48.2606 112.421C25.8978 112.558 9.34138 112.756 2.77562 113.007Z" fill="#010614"/>
<path d="M311.179 116.519C321.1 116.58 334.091 115.549 327.568 113.903C325.543 113.393 306.527 113.004 278.58 112.727L277.496 116.334C288.343 116.387 299.568 116.45 311.179 116.519Z" fill="#010614"/>
<path d="M278.375 135.074C279.116 134.836 279.394 134.281 277.442 134.628C266.409 136.595 192.878 155.77 160.717 164.647V166.066C193.43 157.941 267.941 138.422 278.375 135.074Z" fill="#010614"/>
<path fill-rule="evenodd" clip-rule="evenodd" d="M161.388 38.322C161.131 37.8104 160.878 37.2966 160.629 36.7812C153.378 37.4981 143.527 38.4423 130.138 39.6422C126.238 39.9914 123.376 40.2728 121.275 40.4797C116.596 40.9399 115.681 41.0298 115.446 40.6726C115.389 40.5857 115.372 40.4724 115.351 40.3315L115.349 40.3206C115.277 39.8424 115.212 39.4088 115.154 39.016L115.154 39.0136C114.652 35.6371 114.598 35.2726 113.852 35.473C113.832 35.4783 113.812 35.4837 113.793 35.4889C113.462 35.5776 113.233 35.639 113.095 35.7856C112.783 36.1151 112.925 36.8747 113.388 39.3401C113.454 39.6923 113.527 40.079 113.606 40.5045C113.61 40.5315 113.615 40.5574 113.62 40.5824C113.646 40.7238 113.666 40.8322 113.632 40.919C113.52 41.2037 112.824 41.2583 109.847 41.4915C108.047 41.6326 105.412 41.839 101.566 42.2013C96.5182 42.6789 92.9574 43.062 90.4413 43.3329C85.6985 43.8431 84.6676 43.954 84.3845 43.5461C84.3059 43.4328 84.285 43.2794 84.2582 43.0835L84.2562 43.0688C83.5484 37.8464 83.4686 37.2843 82.5212 37.4196C81.6739 37.5407 81.7205 37.8199 82.3765 41.7557C82.4541 42.2204 82.54 42.736 82.634 43.3082C82.6415 43.3537 82.6498 43.396 82.6578 43.4357C82.6816 43.5555 82.7005 43.6505 82.6731 43.7295C82.5681 44.0329 81.7813 44.1003 77.9726 44.4268C76.0728 44.5895 73.4212 44.8168 69.7274 45.1699C67.5215 45.381 65.8559 45.5662 64.5959 45.7062C61.8033 46.0164 61.0024 46.1054 60.727 45.7669C60.6163 45.6307 60.5907 45.4255 60.5546 45.1378C59.8387 39.3989 59.83 39.3988 58.8374 39.4845C58.8121 39.4865 58.7863 39.4888 58.7595 39.4911C58.7372 39.493 58.7143 39.4947 58.691 39.4964C58.6468 39.4997 58.6051 39.5011 58.5661 39.5022C58.466 39.5051 58.3836 39.5075 58.3215 39.5443C58.0347 39.714 58.1802 40.615 58.9986 45.6781C59.5384 49.0171 60.3707 54.166 61.5644 62.1092C62.211 62.125 62.7129 62.2829 63.113 62.561C63.0072 61.8831 62.8996 61.1524 62.7939 60.4365C62.5696 58.9142 62.3552 57.4587 62.1905 56.7215C62.017 55.9599 62.3241 55.7968 62.9244 55.7378V55.7412C68.8559 55.1562 73.1408 54.7004 76.24 54.3708C82.938 53.6584 84.0978 53.535 84.3687 53.9681C84.4256 54.0586 84.4433 54.1737 84.4648 54.313L84.4662 54.322C84.8645 56.9059 85.1859 58.6881 85.4081 59.9207C85.9061 62.6819 85.9062 62.6838 85.1602 62.7593C75.8797 63.7262 72.5304 64.2794 69.6552 64.7542C68.1227 65.0072 66.7248 65.2381 64.6351 65.4975C64.7453 65.9479 64.8484 66.4327 64.9571 66.9452C65.5056 66.8678 66.2235 66.7632 67.0629 66.6409C73.264 65.7373 86.0992 63.8671 86.2636 64.9194C86.7343 67.9265 87.1006 70.054 87.3603 71.5617C87.8371 74.33 87.9541 75.0095 87.6969 75.2104C87.6133 75.2758 87.4903 75.2905 87.327 75.3101C82.1607 75.93 77.6653 76.5128 73.7838 77.016C71.4509 77.3184 69.3384 77.5922 67.4345 77.8281L67.6008 78.5308L67.7883 79.3227C74.1153 78.5789 78.478 78.012 81.4917 77.6205C86.8764 76.9209 87.9551 76.7807 88.2386 77.1905C88.3095 77.2932 88.3305 77.4305 88.3569 77.6019L88.3578 77.6074C88.9215 81.2386 89.3551 83.6591 89.645 85.2772C90.0744 87.6729 90.1884 88.3098 89.9427 88.5143C89.8537 88.5884 89.7173 88.6059 89.5319 88.6295L89.5289 88.6299C82.747 89.4971 78.0736 90.0988 74.8475 90.5139C67.8057 91.4205 67.6608 91.439 67.5399 91.3937L67.5308 91.3903H67.5256L67.4673 91.0181C67.1776 91.124 66.8535 91.2208 66.4937 91.316L65.7773 91.5058L65.8288 91.8796C66.0184 93.2563 66.1781 94.4447 66.3158 95.4705C67.1608 101.762 67.1826 101.924 68.2717 101.811C87.2248 99.7912 189.895 85.8591 192.935 85.434C193.45 85.3606 193.464 85.424 193.808 86.9593C193.919 87.4565 194.065 88.1082 194.273 88.9595C194.318 89.1417 194.37 89.3033 194.419 89.4476C194.51 89.7247 194.582 89.9393 194.53 90.1187C194.351 90.7352 192.723 90.9338 185.497 91.8152C182.568 92.1724 178.718 92.6419 173.673 93.297L173.128 93.3677C164.753 94.452 63.3585 107.58 63.2801 108.348C63.2194 108.95 64.2829 109.472 65.572 109.279C69.7447 108.653 69.7584 108.776 69.8629 109.722C69.8724 109.809 69.8828 109.902 69.8974 110.003C70.0983 111.417 70.2513 112.562 70.3752 113.487C70.7588 116.355 70.8613 117.122 71.2333 117.288C71.3694 117.351 71.5413 117.33 71.776 117.304L71.8059 117.3C72.2448 117.252 72.2674 116.922 72.1876 116.54C71.8729 115.066 71.685 113.57 71.4971 112.074C71.3742 111.096 71.2512 110.117 71.0928 109.144C70.9982 108.554 71.2975 108.528 72.3904 108.428C72.7608 108.394 73.2225 108.352 73.7907 108.277C77.4642 107.78 80.1497 107.384 82.1159 107.094C86.2505 106.485 87.2047 106.345 87.4792 106.712C87.5614 106.822 87.5826 106.978 87.61 107.181L87.6117 107.193C87.7547 108.239 87.8746 109.144 87.9778 109.925C88.5806 114.476 88.6274 114.83 89.4907 114.653L89.5197 114.647C89.7744 114.594 89.9578 114.555 90.0756 114.446C90.3785 114.165 90.2479 113.417 89.781 110.742C89.6113 109.77 89.3974 108.545 89.1437 106.995C89.0041 106.134 89.0589 106.128 92.498 105.722C93.6284 105.589 95.1241 105.413 97.0987 105.149C100.772 104.657 103.481 104.258 105.482 103.964C109.724 103.339 110.786 103.183 111.122 103.605C111.234 103.746 111.266 103.951 111.308 104.225L111.312 104.252C111.474 105.308 111.607 106.206 111.72 106.967C112.185 110.097 112.309 110.938 112.726 111.122C112.879 111.19 113.071 111.169 113.333 111.141L113.349 111.139H113.351C113.472 111.127 113.568 111.117 113.637 111.068C113.893 110.889 113.78 110.18 113.243 106.83C113.102 105.949 112.932 104.885 112.731 103.599C112.639 103.01 112.666 103.007 115.754 102.616C116.347 102.541 117.053 102.452 117.893 102.342C122.243 101.77 125.373 101.327 127.628 101.008C132.271 100.35 133.206 100.218 133.452 100.569C133.514 100.657 133.532 100.776 133.555 100.925L133.556 100.933L133.596 101.194C134.557 107.453 134.627 107.905 135.638 107.619C136.6 107.348 136.505 106.909 135.399 101.809C135.326 101.475 135.249 101.121 135.168 100.745C135.014 100.032 135.04 100.029 136.964 99.8009C137.51 99.7362 138.21 99.6532 139.101 99.5309C161.138 96.525 175.278 94.6719 184.333 93.4849C198.499 91.6287 200.229 91.4017 200.293 90.9421C200.302 90.8781 200.279 90.8096 200.253 90.7315C200.238 90.6854 200.22 90.6357 200.208 90.5818C200.045 89.8512 199.677 89.906 197.797 90.1876L197.795 90.1878C197.399 90.2471 196.934 90.3167 196.391 90.3909L196.374 90.3933C196.226 90.414 196.11 90.43 196.011 90.3972C195.663 90.2815 195.513 89.5599 194.842 86.2994C194.477 84.5294 193.959 82.0111 193.171 78.435C191.327 70.0704 189.862 63.3647 188.688 57.9907C184.482 38.7337 184.01 36.5745 183.216 36.4484C183.117 36.4326 183.011 36.4491 182.891 36.4676L182.884 36.4689C182.291 36.5605 182.409 36.9175 182.513 37.2297C182.537 37.3018 182.56 37.3717 182.574 37.4353C182.874 38.8786 183.124 39.8903 183.301 40.6018C183.71 42.2608 183.717 42.2884 183.018 42.354C157.181 44.7481 141.43 46.4154 131.817 47.4328C117.891 48.9069 116.85 49.0173 116.689 47.9979C116.451 46.4803 116.243 45.3666 116.089 44.5474C115.685 42.3807 115.665 42.274 116.494 42.2048C137.542 40.4538 151.777 39.2166 161.388 38.322ZM187.723 59.9854C188.438 63.0242 188.592 63.682 188.379 63.839C188.32 63.8824 188.231 63.8876 188.12 63.894C188.084 63.8963 188.044 63.8987 188.001 63.9027C180.108 64.6938 147.253 68.4501 130.787 70.3328L130.785 70.3329C124.862 71.0101 121.06 71.4449 121.304 71.4118L121.295 71.4128C121.136 71.434 121.012 71.4503 120.908 71.4125C120.549 71.2818 120.425 70.5042 119.873 67.0368C119.647 65.6191 119.35 63.7517 118.935 61.295C118.689 60.7793 118.9 60.7583 123.286 60.3251C125.068 60.1492 127.538 59.9051 130.947 59.5322C149.052 57.5534 161.217 56.1778 169.398 55.2527C184.722 53.5201 186.068 53.3679 186.285 53.7928C186.306 53.8345 186.316 53.8817 186.328 53.9334C186.93 56.6058 187.388 58.5582 187.723 59.9854ZM161.274 46.0042L161.285 46.0032C172.211 44.9247 181.354 44.0224 183.356 43.8322C184.033 43.6476 184.052 43.7368 184.562 46.159C184.8 47.2864 185.143 48.9192 185.709 51.2649C185.929 52.18 163.777 54.4197 144.137 56.4056C134.318 57.3983 125.128 58.3276 119.675 58.9961C119.641 59.0003 119.609 59.0042 119.578 59.0081C119.237 59.0506 119.006 59.0794 118.833 58.9926C118.469 58.8092 118.363 58.1109 118.033 55.9387C117.858 54.7833 117.62 53.2111 117.246 51.0776C117.152 50.5362 117.275 50.3176 117.828 50.2656C123.731 49.7099 144.581 47.652 161.274 46.0042ZM118.474 68.0837C118.969 70.6884 119.104 71.4017 118.833 71.6272C118.731 71.7124 118.571 71.7281 118.351 71.7497L118.347 71.7501C106.684 72.9908 99.7744 73.8812 95.6656 74.4105C90.8772 75.0273 89.8933 75.1542 89.6242 74.7744C89.5546 74.6762 89.5327 74.5441 89.5053 74.3777L89.5046 74.3734C89.1777 72.4004 88.9997 71.3627 88.8588 70.5413C88.6189 69.1432 88.4867 68.3727 87.9119 64.6852C87.9069 64.6531 87.8971 64.6234 87.8881 64.5953C87.8755 64.5564 87.8638 64.5209 87.8673 64.4867C87.9046 64.1163 89.7168 63.9249 111.218 61.6543C112.529 61.5158 113.913 61.3696 115.375 61.2152C117.196 61.024 117.214 61.1298 117.474 62.6131L117.494 62.7281C117.903 65.0774 118.232 66.8076 118.474 68.0837ZM115.41 51.0203C115.821 53.4065 116.144 55.1019 116.374 56.3091C116.943 59.2935 116.943 59.2935 116.29 59.3639C108.402 60.2125 102.684 60.8661 98.5332 61.3406C89.333 62.3924 87.8395 62.5631 87.5076 62.0216C87.4433 61.9166 87.4226 61.7851 87.398 61.6279L87.3966 61.6194C87.0218 59.2524 86.7186 57.5694 86.5024 56.3705C85.9741 53.4396 85.9673 53.4021 86.7147 53.3331C98.3002 52.2645 105.179 51.5153 109.276 51.0691C114.261 50.5262 115.124 50.4321 115.333 50.7576C115.376 50.8258 115.391 50.9126 115.409 51.0174L115.41 51.0203ZM85.2643 44.9842L113.215 42.5153C113.949 42.448 113.963 42.5351 114.298 44.6093C114.439 45.4782 114.636 46.696 114.966 48.397C114.978 48.4605 114.998 48.5177 115.017 48.5703C115.043 48.6447 115.067 48.7096 115.057 48.7688C114.99 49.1645 113.443 49.3105 101.557 50.4311C98.1036 50.7568 93.7774 51.1647 88.3612 51.6848C87.8824 51.7306 87.4925 51.7816 87.1736 51.8233C85.8956 51.9905 85.7567 52.0086 85.6026 50.9422C85.3323 49.0657 85.1034 47.7883 84.9471 46.9163C84.7228 45.6642 84.6482 45.2476 84.8156 45.0927C84.8992 45.0155 85.0429 45.0032 85.2582 44.9848L85.2643 44.9842ZM61.7342 53.8327C61.4773 52.0355 61.2654 50.7162 61.1096 49.7463C60.6873 47.1159 60.6779 47.0581 61.3005 47.0125C69.6378 46.3866 74.7542 45.901 77.9039 45.6021C81.9289 45.22 82.7423 45.1428 82.9616 45.4673C83.0171 45.5495 83.0346 45.6574 83.0565 45.7926L83.0574 45.7979C83.316 47.3968 83.527 48.5897 83.6849 49.4812C84.0212 51.3824 84.115 51.9121 83.9101 52.0823C83.8308 52.1481 83.7073 52.1602 83.5359 52.177L83.531 52.1775C76.6117 52.8551 71.9017 53.3586 68.6914 53.7017C62.9327 54.3173 62.0005 54.4169 61.7991 54.08C61.7602 54.0147 61.7486 53.9334 61.7347 53.8364L61.7342 53.8327ZM77.9566 99.2852C69.9607 100.452 68.8269 100.617 68.6081 100.245C68.572 100.183 68.5607 100.107 68.5477 100.018L68.5476 100.017C68.3079 98.4019 68.1093 97.1628 67.9566 96.2105C67.5855 93.8968 67.4861 93.2764 67.7312 93.0748C67.8209 93.0009 67.9571 92.9832 68.1431 92.9591L68.1589 92.957C82.5655 91.0478 84.9693 90.7754 86.6132 90.5891C87.4044 90.4994 88.02 90.4298 89.7128 90.207L89.7255 90.2053C89.951 90.1753 90.106 90.1546 90.2236 90.2114C90.4811 90.3356 90.5593 90.8316 90.809 92.4141C90.9629 93.3899 91.182 94.7786 91.5484 96.748C91.6517 97.315 91.3191 97.3618 90.9742 97.4106L90.9481 97.4142C85.313 98.2118 81.1034 98.826 77.9566 99.2852ZM90.6948 81.5133C90.3799 79.5316 90.136 77.9971 90.013 77.4027C90.006 77.3694 89.9989 77.3377 89.9922 77.3071C89.9604 77.1645 89.9351 77.0515 89.9661 76.9568C90.0834 76.5978 91.0082 76.5026 95.4414 76.0463C97.598 75.8242 100.585 75.5168 104.714 75.0518C107.994 74.6843 110.548 74.3829 112.54 74.1482L112.543 74.1479C115.251 73.8286 116.918 73.6319 117.955 73.558C118.012 73.554 118.067 73.5498 118.12 73.5458C118.541 73.5142 118.831 73.4925 119.05 73.606C119.532 73.856 119.675 74.7612 120.132 77.6581C120.361 79.1136 120.67 81.0719 121.141 83.7025C121.185 83.9508 121.219 84.1411 121.161 84.2964C120.97 84.8035 119.791 84.9389 114.764 85.5166C112.32 85.7975 108.966 86.183 104.374 86.7665C101.403 87.1437 99.1391 87.4543 97.4101 87.6914C93.1606 88.2744 92.1451 88.4135 91.829 88.0079C91.7298 87.8805 91.6994 87.6994 91.6597 87.4614L91.6543 87.4293C91.3017 85.3324 90.9709 83.2504 90.6948 81.5133ZM98.935 96.335C94.2819 96.9961 93.4693 97.1116 93.2748 96.8177C93.2337 96.7556 93.2201 96.6751 93.2038 96.5776C92.955 95.0824 92.7494 93.9197 92.5898 93.0168C92.1783 90.6904 92.0702 90.079 92.3051 89.8864C92.3889 89.8179 92.5162 89.8024 92.6889 89.7814L92.6987 89.7802C103.061 88.5379 109.694 87.6611 113.951 87.0988C120.287 86.2613 121.353 86.1204 121.602 86.5066C121.652 86.5849 121.669 86.6844 121.69 86.8042L121.691 86.8081C121.987 88.6028 122.229 89.8883 122.403 90.8118C122.836 93.1095 122.847 93.1659 122.209 93.245C110.049 94.756 103.015 95.7554 98.935 96.335ZM122.799 83.8396C121.863 78.5319 121.543 76.4866 121.39 75.5065C121.268 74.7246 121.251 74.6205 121.113 74.0785C120.872 73.1351 120.992 73.1232 124.228 72.8029C125.181 72.7085 126.406 72.5874 127.971 72.4077C144.68 70.4913 156.802 69.0688 165.602 68.0363C186.828 65.5456 188.717 65.3236 189.017 65.9116C189.047 65.9701 189.061 66.0366 189.076 66.1096C189.744 69.212 190.237 71.312 190.572 72.7361C191.099 74.9886 191.231 75.5504 191.034 75.7132C190.969 75.7673 190.867 75.7774 190.732 75.7907C190.69 75.7947 190.648 75.799 190.602 75.8048C168.751 78.5532 153.958 80.4605 143.94 81.7522C124.678 84.2357 123.058 84.4446 122.837 83.9834C122.817 83.9407 122.809 83.8923 122.799 83.8396ZM137.283 91.2938C126.494 92.8262 124.704 93.0805 124.296 92.4457C124.215 92.3195 124.188 92.1582 124.156 91.9646L124.156 91.9628C123.925 90.553 123.735 89.4783 123.59 88.6577C123.128 86.0451 123.122 86.0085 123.696 85.9372C148.042 82.9065 163.645 80.8764 173.656 79.5737C189.739 77.481 191.389 77.2662 191.681 77.7973C191.715 77.8589 191.731 77.9303 191.748 78.01C192.095 79.5782 192.369 80.724 192.569 81.5632C192.963 83.2091 193.074 83.6746 192.902 83.8309C192.834 83.8925 192.723 83.9062 192.567 83.9249C192.552 83.927 192.533 83.9293 192.515 83.9315C163.49 87.5714 146.849 89.9351 137.283 91.2938Z" fill="#0705CB"/>
<path fill-rule="evenodd" clip-rule="evenodd" d="M154.447 21.789C154.025 21.7713 153.509 21.7748 152.875 21.7779C117.823 24.5494 112.769 23.5926 112.037 24.9557C111.912 25.1884 111.913 25.4886 111.912 25.8864C112.13 28.3147 112.563 30.7191 113.205 33.071C113.253 33.2131 113.293 33.3362 113.362 33.4401C114.009 34.4219 117.231 33.7061 154.895 31.2961C157.172 31.1494 157.098 30.0806 156.859 28.0437C156.18 26.2322 155.571 24.6717 155.044 23.3221C154.831 22.7776 154.632 22.2675 154.447 21.789Z" fill="#0705CB"/>
<path d="M84.7526 35.9626C82.4607 36.0927 82.7973 34.8609 81.6747 27.4195C81.4526 25.9465 81.7233 26.3004 89.9316 25.7903C98.9345 25.2334 101.285 25.0686 107.894 24.7667C110.165 24.6643 109.645 24.0727 111.142 32.9437C111.453 34.7828 112.52 34.3734 84.7526 35.9626Z" fill="#0705CB"/>
<path d="M158.298 25.7822C158.799 30.3876 158.875 31.1283 160.336 31.0202L160.822 30.9843L158.298 25.7822Z" fill="#0705CB"/>
<path d="M62.6662 37.4848C59.479 37.6583 59.9475 38.406 58.7364 29.2973C58.4519 27.1442 61.0926 27.5536 67.8591 27.1164C78.2326 26.445 79.8878 25.685 80.1134 28.4714C80.6113 34.5925 82.2249 36.1401 79.0342 36.3553C62.72 37.4518 68.1453 37.1915 62.6662 37.4848Z" fill="#0705CB"/>
<path d="M54.7683 27.9492C54.9055 27.9334 55.0447 27.9454 55.1772 27.9846C55.3098 28.0238 55.433 28.0894 55.5395 28.1774C55.6462 28.2654 55.7338 28.374 55.7975 28.4966C55.8612 28.6193 55.8993 28.7534 55.9099 28.8913C57.6987 38.1163 57.9364 37.9775 53.5434 37.9897C53.2616 38.0298 52.9753 37.9564 52.7477 37.7856C52.5199 37.6147 52.3693 37.3606 52.3289 37.0788C50.8333 28.5842 50.1445 27.8226 54.7683 27.9492Z" fill="#0705CB"/>
<path d="M96.4031 111.682C95.6796 111.524 94.7913 111.746 94.6559 110.874C94.5119 109.959 95.4523 109.98 96.0005 109.85C99.4721 109.106 102.98 108.543 106.511 108.167C106.938 108.124 107.53 107.898 107.682 108.59C107.988 109.975 107.262 109.836 96.4031 111.682Z" fill="#0705CB"/>
<path d="M103.301 22C103.199 20.8844 105.304 20.9416 112.953 20.3899C115.354 20.2164 115.184 21.9826 113.861 22.1735C112.138 22.4199 103.459 23.7298 103.301 22Z" fill="#0705CB"/>
<path d="M119.336 107.871C118.771 107.899 118.295 107.765 118.156 107.165C117.893 105.938 121.679 105.584 128.619 104.817C129.186 104.755 129.762 104.784 129.861 105.338C130.022 106.223 129.561 106.367 119.336 107.871Z" fill="#0705CB"/>
<path d="M73.9989 40.1675C74.6929 40.1675 75.6194 40.0408 75.7009 40.917C75.8067 42.0534 74.2782 42.0187 71.641 42.2582C71.2836 42.2894 66.1619 42.7266 65.742 42.6503C64.5726 42.4334 64.668 41.4115 65.5511 41.0229C66.1116 40.7748 73.9954 40.112 73.9989 40.1675Z" fill="#0705CB"/>
<path d="M94.9565 40.1291C94.1515 40.1603 93.5494 40.0337 93.4869 39.2928C93.4245 38.552 94.0196 38.4114 94.6026 38.3351C103.375 37.1987 103.708 37.2264 103.807 38.1841C103.949 39.5427 102.991 39.2859 94.9565 40.1291Z" fill="#0705CB"/>
<path d="M80.8333 113.626C80.259 113.702 76.527 114.12 75.951 114.038C74.8146 113.875 74.4485 112.973 75.8209 112.597C86.0244 109.81 87.107 112.779 80.8333 113.626Z" fill="#0705CB"/>
<path d="M89.8953 22.9181C89.6992 22.2241 90.8166 21.7366 91.4794 21.6898C98.1175 21.223 98.5547 20.9697 98.6571 22.0853C98.7698 23.2998 97.8798 23.1159 92.4006 23.5462C92.3781 23.312 90.1781 23.9383 89.8953 22.9181Z" fill="#0705CB"/>
<path d="M79.4294 24.3059C76.7835 24.3371 77.1548 22.498 79.0997 22.3679C84.329 22.0209 85.089 21.9081 85.1826 22.9144C85.3214 24.3943 81.8688 23.9814 79.4294 24.3059Z" fill="#0705CB"/>
<path d="M72.0823 23.7192C72.1898 24.6128 71.3692 24.7169 70.7723 24.7776C65.5569 25.3189 65.5118 25.1558 64.9618 24.7672C64.8131 24.6867 64.695 24.5599 64.6256 24.4058C64.556 24.2517 64.5388 24.0791 64.577 23.9144C64.615 23.7498 64.7059 23.6021 64.836 23.4942C64.966 23.3861 65.1279 23.3238 65.2967 23.3167C71.3935 22.909 71.9782 22.85 72.0823 23.7192Z" fill="#0705CB"/>
<path d="M54.8479 26.3359C53.892 26.0982 53.538 24.9479 53.0869 25.8761C52.1084 27.8957 51.3519 26.3602 51.9175 25.7703C53.4894 24.1081 50.5052 24.0023 51.1559 23.0637C51.5029 22.5432 52.2576 23.2372 52.2923 23.2788C53.6907 24.8178 53.5918 21.6739 54.5842 22.2656C55.1915 22.6282 54.3014 23.9312 54.1557 24.0839C53.5762 24.6928 54.3517 24.9253 55.1967 25.569C55.4864 25.7876 55.5419 26.3463 54.8479 26.3359Z" fill="#0705CB"/>
<path d="M67.5134 114.8C66.9773 114.857 67.156 114.973 67.2375 116.535C67.2403 116.59 67.2323 116.644 67.2141 116.696C67.196 116.747 67.1678 116.795 67.1313 116.835C67.0949 116.875 67.0506 116.908 67.0015 116.932C66.9523 116.955 66.8988 116.969 66.8445 116.972C66.7345 116.977 66.6268 116.939 66.5449 116.866C66.463 116.792 66.4139 116.689 66.4082 116.578C66.2989 115.744 66.4082 114.689 65.0202 114.989C64.3175 115.14 64.0295 114.122 65.0063 113.986C66.5071 113.787 65.912 113.696 65.9137 112.09C65.914 111.986 65.9543 111.883 66.0265 111.807C66.0987 111.731 66.1972 111.684 66.3022 111.679C66.4071 111.672 66.5109 111.705 66.5919 111.772C66.6731 111.838 66.7259 111.934 66.7396 112.038C66.8662 112.747 66.5956 114.021 68.1276 113.665C68.7886 113.5 69.6873 114.573 67.5134 114.8Z" fill="#0705CB"/>
<path d="M59.4075 24.4083C59.4075 24.6738 59.302 24.9285 59.1142 25.1162C58.9265 25.3039 58.672 25.4094 58.4064 25.4094C58.1409 25.4094 57.8862 25.3039 57.6985 25.1162C57.5108 24.9285 57.4053 24.6738 57.4053 24.4083C57.4053 24.1427 57.5108 23.8882 57.6985 23.7004C57.8862 23.5127 58.1409 23.4072 58.4064 23.4072C58.672 23.4072 58.9265 23.5127 59.1142 23.7004C59.302 23.8882 59.4075 24.1427 59.4075 24.4083Z" fill="#0705CB"/>
<path fill-rule="evenodd" clip-rule="evenodd" d="M139.683 143.858C129.631 142.309 118.307 142.656 110.558 146.412C109.224 145.596 107.773 144.857 106.236 144.194C108.679 143.664 112.038 143.011 116.458 142.152C118.671 141.724 121.149 141.241 123.912 140.698C125.018 140.48 125.97 140.287 126.794 140.119C131.298 139.205 132.01 139.061 133.345 139.871C136.217 141.618 138.306 142.897 139.683 143.858Z" fill="#010614"/>
<path fill-rule="evenodd" clip-rule="evenodd" d="M154.277 147.868C157.683 149.368 160.208 151.105 161.341 152.922C161.679 153.208 161.965 153.415 162.211 153.661C162.459 153.911 162.666 154.199 162.845 154.655C177.887 151.128 178.637 150.795 176.385 149.285C175.394 148.622 174.546 148.046 173.808 147.548C169.82 144.844 169.155 144.393 167.649 144.753C162.355 146.02 157.928 147.033 154.277 147.868Z" fill="#010614"/>
<path d="M114.581 138.613C113.349 138.684 105.625 133.638 104.605 132.977C102.058 131.331 104.247 131.581 128.187 127.488C130.567 127.082 131.768 127.613 138.77 132.315C140.83 133.706 140.993 134.464 114.581 138.613Z" fill="#010614"/>
<path d="M147.799 145.085C146.178 145.048 145.15 144.129 138.026 139.026C136.332 137.812 138.007 137.985 162.347 133.056C163.374 132.848 163.041 132.858 171.329 138.051C174.468 140.019 171.456 139.92 147.799 145.085Z" fill="#010614"/>
<path d="M247.249 126.249C248.157 126.062 247.909 126.126 257.869 129.49C258.466 129.692 259.013 129.9 259.013 130.531C259.013 131.277 258.745 131.246 253.287 132.575C230.016 138.252 231.223 138.327 229.617 137.47C225.341 135.188 219.671 132.565 222.6 131.878C247.211 126.088 246.444 126.253 247.249 126.249Z" fill="#010614"/>
<path d="M196.674 123.577C193.74 122.371 190.962 120.816 188.398 118.948C186.58 117.451 190.09 117.124 192.366 116.734C192.906 116.642 209.468 113.795 211.095 113.582C212.194 113.437 221.471 116.909 222.487 117.345C222.845 117.497 223.331 117.6 223.254 118.08C223.095 119.068 196.709 123.573 196.674 123.577Z" fill="#010614"/>
<path d="M238.932 122.9C242.681 124.33 235.677 125.276 230.481 126.516C213.948 130.458 214.559 130.507 213.351 129.813C202.346 123.471 200.118 125.406 223.211 120.964C231.702 119.347 228.366 118.877 238.932 122.9Z" fill="#010614"/>
<path d="M158.4 123.485C169.678 130.993 166.851 128.864 147.452 132.646C146.8 132.794 146.116 132.691 145.535 132.36C142.742 130.816 140.035 129.121 137.426 127.283C135.361 125.812 138.382 125.821 155.353 122.973C156.398 122.803 157.469 122.984 158.4 123.485Z" fill="#010614"/>
<path d="M198.086 139.288C196.903 138.535 197.21 137.844 198.361 137.529C198.397 137.529 208.656 135.009 212.712 134.201C218.714 133.002 215.835 133.29 225.086 138.221C227.621 139.572 222.515 140.063 207.455 143.714C204.926 144.328 203.871 142.964 198.086 139.288Z" fill="#010614"/>
<path d="M171.18 128.234C169.351 128.019 163.777 124.195 162.493 123.24C160.258 121.585 163.638 121.615 181.231 118.57C182.05 118.429 182.524 118.702 187.689 122.305C191.332 124.85 191.853 124.519 184.455 125.871C171.194 128.296 171.94 128.152 171.18 128.234Z" fill="#010614"/>
<path d="M96.4778 132.897C99.2868 133.437 104.494 136.725 107.167 138.418C107.908 138.888 107.065 140.051 106.079 140.219C94.8174 142.138 95.3795 142.086 94.0193 142.301C93.0026 142.475 92.6799 142.613 82.5891 137.218C81.3746 136.572 81.4596 135.557 82.8823 135.297C83.0333 135.276 95.9157 132.963 96.4778 132.897Z" fill="#010614"/>
<path d="M208.155 129.893C210.584 131.439 209.296 131.716 194.929 134.595C193.341 134.914 193.418 134.634 185.969 129.419C184.498 128.388 187.382 128.08 189.875 127.57C202.62 124.965 199.62 124.462 208.155 129.893Z" fill="#010614"/>
<path d="M180.172 129.537C181.411 129.756 180.844 129.48 187.633 134.242C188.801 135.061 189.234 135.927 187.773 136.255C177.631 138.533 177.927 138.528 177.45 138.282C176.487 137.785 168.133 133.307 168.381 132.247C168.562 131.475 180.138 129.541 180.172 129.537Z" fill="#010614"/>
<path d="M127.4 11.076C127.409 11.3574 127.36 11.6376 127.257 11.8993C127.153 12.1609 126.996 12.3986 126.797 12.5973C126.597 12.7959 126.359 12.9514 126.097 13.0543C125.835 13.157 125.555 13.2047 125.273 13.1946C124.992 13.1846 124.716 13.1167 124.462 12.9953C124.208 12.874 123.981 12.7017 123.797 12.4892C123.612 12.2766 123.473 12.0285 123.388 11.76C123.304 11.4916 123.275 11.2086 123.304 10.9286C123.295 10.6471 123.344 10.3669 123.448 10.1053C123.552 9.84366 123.708 9.60597 123.908 9.40731C124.107 9.20865 124.345 9.05319 124.607 8.95031C124.869 8.84759 125.15 8.79971 125.431 8.80995C125.713 8.82001 125.989 8.88785 126.243 9.0093C126.497 9.13057 126.723 9.30286 126.908 9.51539C127.092 9.72793 127.232 9.97604 127.316 10.2446C127.401 10.513 127.43 10.796 127.4 11.076Z" fill="#010614"/>
<path fill-rule="evenodd" clip-rule="evenodd" d="M189.096 33.172C191.11 42.2493 193.69 53.8253 196.034 64.3411L196.039 64.3628L196.041 64.369C199.424 79.5435 202.313 92.5031 202.296 92.5485C202.594 93.901 202.842 94.9611 203.036 95.7937C203.723 98.731 203.748 98.8346 202.917 98.9455C195.56 99.9226 172.773 103.45 147.734 107.325C108.716 113.365 64.2291 120.251 64.133 119.654C62.7039 110.558 61.3329 101.733 60.0356 93.3413L58.0922 93.8822C62.4393 121.922 62.5793 121.922 63.7206 121.922H63.7357C65.9745 121.922 70.7836 121.162 83.1621 119.203C90.132 118.101 99.5013 116.62 112.163 114.68C134.368 111.279 151.334 108.726 164.287 106.776C200.875 101.267 205.441 100.579 205.628 99.268C205.655 99.081 205.592 98.8813 205.521 98.653C205.49 98.5539 205.457 98.4494 205.429 98.3382C204.862 96.0689 203.349 89.2427 201.393 80.4282L201.392 80.4254C198.182 65.9533 193.784 46.1231 190.435 32.3031C190.033 32.5849 189.583 32.8753 189.096 33.172ZM154.186 14.2787C153.233 14.7961 152.803 15.4058 152.807 16.4053C140.518 16.9275 126.216 17.4874 112.213 18.0355C79.4636 19.3173 48.3537 20.5349 48.4798 21.0579C49.149 23.8262 50.4305 31.4699 52.1867 42.5861H50.1053C49.7582 40.4281 49.4408 38.4693 49.1528 36.6914C46.4738 20.152 46.3296 19.2621 48.1415 19.2257L49.1743 19.175C57.718 18.7552 117.282 15.8279 154.281 14.2305C154.242 14.2494 154.211 14.2653 154.186 14.2787Z" fill="#010614"/>
<path d="M131.134 9.53013C131.306 9.51364 131.479 9.5329 131.643 9.58703C131.807 9.64116 131.957 9.72878 132.085 9.8445C132.213 9.96006 132.316 10.1011 132.386 10.2585C132.456 10.416 132.493 10.5864 132.494 10.7589C132.495 10.9313 132.46 11.102 132.391 11.2603C132.322 11.4183 132.221 11.5604 132.094 11.6772C131.968 11.7941 131.818 11.8833 131.655 11.939C131.491 11.9947 131.318 12.0157 131.146 12.0008C129.51 12.0199 129.642 9.54401 131.134 9.53013Z" fill="#010614"/>
<path d="M183.421 149.5C182.418 149.595 176.465 144.999 175.679 144.402C174.893 143.805 174.845 143.039 176.075 142.751C194.247 138.474 192.861 138.377 194.454 139.492C203.973 146.16 202.23 144.973 193.867 147.005C183.445 149.534 184.116 149.377 183.421 149.5Z" fill="#010614"/>
<path fill-rule="evenodd" clip-rule="evenodd" d="M233.56 112.551C254.54 118.686 287.062 128.199 289.543 133.868C291.405 138.12 285.239 139.673 279.944 141.005H279.94C279.232 141.184 278.54 141.358 277.884 141.535C277.478 141.644 277.09 141.795 276.701 141.947C276.238 142.126 275.776 142.307 275.282 142.418C272.301 143.089 259.613 146.519 259.578 146.53C214.239 159.532 182.7 167.532 164.219 171.954C164.177 170.866 164.137 169.845 164.098 168.887C167.519 167.957 171.334 166.914 175.596 165.746L175.63 165.738L175.639 165.736C188.166 162.308 204.541 157.826 226.042 152.113C239.013 148.667 249.67 145.978 258.23 143.818C278.105 138.804 286.681 136.638 286.682 134.468C286.684 132.818 281.745 131.164 273.054 128.257C271.007 127.571 268.753 126.818 266.305 125.977C257.427 122.928 220.952 110.412 212.745 109.024C212.626 109.003 212.572 109.014 210.401 109.375C204.587 110.344 183.594 113.847 105.522 126.102C91.9046 128.239 82.4249 129.672 75.7595 130.68L75.7498 130.682C60.1745 133.037 59.9752 133.066 58.2402 134.345C57.9216 134.546 57.6597 134.827 57.479 135.157C57.2983 135.488 57.2047 135.859 57.2072 136.238C57.2096 136.614 57.308 136.984 57.4929 137.313C57.6779 137.641 57.9433 137.917 58.2645 138.115C58.9984 138.62 61.2868 139.841 64.5018 141.5C65.0783 141.696 65.7323 141.941 66.4561 142.23C65.9384 142.544 65.492 142.881 65.1248 143.242L64.206 144.146L63.195 143.639L63.183 143.632C62.5827 143.332 62.2383 143.16 62.2012 143.141C61.5561 142.825 60.9478 142.532 60.3735 142.256L60.3701 142.255C56.9688 140.615 54.7629 139.55 53.187 137.889C50.2784 134.824 49.5159 129.721 47.3458 115.204C46.6114 110.292 45.7157 104.3 44.5212 96.9445C45.4078 96.7929 46.4148 96.5817 47.5616 96.314L47.6851 97.1298C53.1804 133.398 53.5928 136.121 55.249 133.578C57.0361 130.833 58.2983 130.647 78.6155 127.665C94.95 125.267 123.601 121.063 174.744 112.265C186.798 110.192 195.156 109.01 200.93 108.194C212.974 106.493 213.792 106.377 213.497 103.058C213.452 102.575 213.426 102.469 212.738 99.7063L212.737 99.703C211.67 95.4111 209.012 84.715 202.219 56.2699C200.177 47.7158 198.539 40.515 197.162 34.4611V34.4592C191.03 7.50927 190.071 3.2927 181.644 3.62131C145.945 5.01295 119.136 5.96304 98.9735 6.67751C43.929 8.62834 38.4126 8.82388 36.7479 11.4557C36.5626 11.7487 36.4248 12.0721 36.272 12.4315L36.2022 12.5947C34.9492 15.5151 35.2438 17.3396 37.6962 32.5235C38.1638 35.4185 38.71 38.7996 39.3388 42.7664C38.2053 42.8287 37.0881 42.8974 36.0178 42.969C34.2844 34.178 33.17 20.0641 32.8741 16.3158C32.8348 15.8173 32.8098 15.5021 32.7999 15.4072C31.7781 5.71025 34.876 5.6176 93.8181 3.85762C110.638 3.35551 132.006 2.71738 159.123 1.68158C163.169 1.52699 166.699 1.31931 169.794 1.13748C179.565 0.562848 184.991 0.243781 188.586 2.65404C193.074 5.66219 194.712 12.9218 198.393 29.2421C199.976 36.252 201.935 44.9336 204.659 55.6678C205.294 58.1706 205.934 60.6888 206.572 63.1943C211.952 84.3238 217.1 104.543 215.936 106.802C215.671 107.318 223.211 109.524 233.56 112.551Z" fill="#010614"/>
<path d="M256.259 43.7524C254.509 50.944 257.838 57.478 256.058 56.038C255.034 55.2086 254.798 54.735 253.848 51.1626C251.58 42.6351 258.338 36.7378 259.524 28.4341C260.978 18.2844 255.697 14.0336 253.509 4.31762C253.403 3.84396 253.018 1.44445 253.721 1.42884C254.618 1.40975 253.653 3.52992 256.497 8.15023C268.829 28.1947 258.895 32.9312 256.259 43.7524Z" fill="#010614"/>
<path d="M249.342 29.9332C249.177 35.787 246.333 38.537 244.914 44.3094C243.654 49.5621 244.376 55.0945 246.937 59.8498C248.672 62.7767 251.883 66.5122 251.522 66.9182C250.561 68.0043 243.64 62.7351 242.528 54.3568C240.717 40.7127 246.144 39.2987 247.693 31.2604C248.979 24.5842 244.378 22.0927 245.217 21.22C245.983 20.4184 249.479 24.808 249.342 29.9332Z" fill="#010614"/>
<path d="M262.363 45.3226C262.417 39.7064 268.739 36.7811 267.115 38.5942C262.446 43.7992 265.298 47.5833 263.385 54.7176C261.75 60.8005 255.999 61.7495 259.009 68.7711C259.877 70.8149 256.289 68.726 256.88 63.9634C257.609 58.113 262.215 60.9133 262.363 45.3226Z" fill="#010614"/>
<path fill-rule="evenodd" clip-rule="evenodd" d="M265.25 122.273C268.291 122.016 271.237 121.551 273.495 120.72C276.697 119.54 279.302 117.344 279.366 115.515C279.387 114.935 279.435 114.358 279.482 113.78C279.564 112.808 279.643 111.835 279.595 110.858C279.545 109.864 280.584 109.885 281.987 109.914C284.219 109.958 287.373 110.022 288.556 106.065C289.195 103.893 289.455 89.9675 289.247 87.5541C289.073 85.4877 287.236 84.9897 285.138 85.0678C283.414 85.013 281.686 85.0576 279.966 85.2014C279.848 83.7593 279.926 82.6558 279.987 81.7782C280.148 79.503 280.202 78.7479 276.435 77.5483C269.008 75.1818 246.885 74.4965 234.527 78.0688C233.862 78.2128 233.269 78.5845 232.851 79.1197C232.431 79.6548 232.212 80.3198 232.231 80.9992C232.28 84.3218 232.812 98.7292 232.885 99.477C233.161 102.307 233.289 104.829 233.404 107.067C233.51 109.158 233.604 111.001 233.794 112.618C234.291 112.763 234.794 112.909 235.304 113.058C234.815 109.602 234.676 104.114 234.448 95.0942C234.358 91.4634 234.252 87.2603 234.103 82.3872C241.368 85.427 267.544 85.885 277.411 82.415C277.648 82.3324 277.818 82.2542 277.935 82.3022C278.391 82.4915 278.039 84.6391 277.943 96.1926H277.95C277.841 109.963 278.625 114.533 276.699 116.896C275.554 118.303 273.451 118.928 269.633 120.245C269.025 120.451 265.927 120.873 261.809 121.133C262.972 121.513 264.12 121.893 265.25 122.273ZM269.343 80.2341C269.721 80.1977 269.823 79.7362 269.424 79.6373H269.417C258.601 76.9758 234.931 78.5911 238.191 80.6852C238.88 81.1292 240.186 81.018 242.941 80.7836C246.345 80.4938 251.96 80.0162 261.35 80.1647C264.011 80.3259 266.68 80.349 269.343 80.2341ZM282.621 107.392C286.701 107.223 286.734 107.221 287.12 94.1592H287.113C287.13 93.5752 287.154 93.0214 287.177 92.5016C287.307 89.4822 287.389 87.6092 285.759 87.6165C281.287 87.6363 280.221 87.5037 279.968 87.896C279.888 88.0199 279.888 88.1962 279.888 88.4459C280.01 104.882 279.409 107.258 279.923 107.53C280.013 107.578 280.138 107.561 280.308 107.543C281.196 107.451 281.961 107.419 282.621 107.392Z" fill="#010614"/>
<path fill-rule="evenodd" clip-rule="evenodd" d="M162.556 194.227C162.807 201.089 162.993 206.174 163.039 206.429C163.462 208.737 162.109 208.546 150.547 206.924C142.367 205.775 129.078 203.91 107.693 201.705C105.784 201.507 100.785 200.874 96.5587 200.338C93.0882 199.897 90.1389 199.524 89.8502 199.512C89.4518 199.496 89.122 199.722 88.7082 200.004C87.92 200.544 86.8274 201.293 84.378 200.978C83.74 200.896 83.5126 200.778 83.2171 200.626C82.558 200.285 81.5598 199.772 74.9101 199.081C74.8068 199.144 70.5167 198.708 64.3696 198.037C66.3449 197.195 68.4711 196.286 70.7161 195.327C74.2633 195.759 77.2069 196.118 79.1317 196.354C80.688 196.543 81.5782 196.652 81.5829 196.652C82.1976 196.727 83.5296 195.249 83.8216 194.926C83.8344 194.91 83.8453 194.898 83.8542 194.89C85.0375 194.177 83.5592 193.083 81.9145 192.518C81.0487 192.219 80.207 191.916 79.3833 191.612C80.0776 191.314 80.7782 191.012 81.4843 190.71C82.7405 191.38 83.9753 192.093 85.1865 192.848C85.9973 191.409 86.9395 189.744 87.9752 187.915C88.754 187.578 89.5368 187.24 90.3224 186.902C88.5732 190 87.4191 192.072 87.1576 192.622C90.6745 191.555 94.3025 190.899 97.97 190.665C117.466 188.781 140.215 192.039 157.609 203.075C157.609 194.583 157.473 192.088 157.097 185.179C156.884 181.27 156.594 175.947 156.209 167.326C155.637 154.502 155.811 152.674 155.015 152.013C154.832 151.86 154.598 151.77 154.292 151.622C136.459 143.015 112.428 147.739 110.261 151.622C105.301 160.504 99.8578 170.091 95.4957 177.774C95.2354 178.234 94.979 178.685 94.7267 179.129C93.9621 179.45 93.1888 179.776 92.407 180.104C98.6674 169.092 106.095 156.104 109.475 150.363C93.6413 141.289 71.2076 143.213 68.5461 145.815C54.7542 159.277 44.2932 169.243 37.0048 176.186C30.3029 182.571 26.2836 186.4 24.8241 188.042C26.1469 187.691 27.5291 187.261 29.0037 186.803C36.4522 184.487 46.2527 181.44 62.5777 184.209C66.7138 184.929 70.7579 186.058 74.6524 187.573C73.7341 187.958 72.8067 188.349 71.8705 188.741C63.4004 185.59 54.8216 183.374 38.2044 186.09C30.2062 187.396 28.5601 188.106 26.1776 189.133C25.669 189.351 25.127 189.586 24.4823 189.842C28.0876 190.177 44.9581 192.2 59.4344 193.954C57.2532 194.867 55.0301 195.797 52.7654 196.743C37.5049 195.008 19.9288 192.905 19.7232 192.662C19.5237 192.426 19.3621 192.235 19.3009 192.016C18.8187 190.301 24.5543 186.837 66.8649 145.227C71.5702 140.6 97.1165 140.392 110.112 149.011C110.205 149.089 110.322 149.134 110.444 149.139C110.566 149.145 110.686 149.11 110.787 149.04C114.042 147.477 117.54 146.48 121.13 146.091C139.06 142.874 156.97 148.995 157.104 152.622C157.648 167.333 158.095 177.491 158.417 184.816C158.88 195.36 159.086 200.032 158.952 203.967C158.924 204.779 161.271 206.089 160.897 204.826C160.861 204.703 160.829 204.599 160.801 204.495C160.449 203.174 160.658 201.705 159.233 162.792C159.003 156.499 158.7 154.528 159.088 154.381C159.325 154.291 159.822 154.887 160.755 155.594C161.154 155.892 162.009 179.278 162.556 194.227ZM91.3476 194.461C105.667 191.199 134.759 196.446 147.838 201.748H147.844C150.117 202.701 152.576 203.126 155.036 202.99C119.937 185.892 86.7933 192.381 86.9876 194.567C86.9944 194.643 86.9999 194.713 87.0221 194.775C87.293 195.533 90.0513 195.401 128.067 200.176C138.6 201.5 139.647 201.739 139.793 201.477C139.809 201.448 139.814 201.411 139.82 201.37C124.183 196.286 107.783 193.948 91.3476 194.461Z" fill="#010614"/>
<path d="M71.6083 158.087C84.4699 158.144 95.7717 162.119 95.2911 163.601C94.9198 164.746 86.0696 159.295 64.9615 159.753C61.0352 159.839 60.4263 160.41 60.2632 159.813C59.8433 158.295 69.9844 158.08 71.6083 158.087Z" fill="#0705CB"/>
<path d="M65.9001 154.744C65.2217 154.726 65.2859 154.223 65.7127 154.003C68.4696 152.537 85.8387 151.272 98.126 156.999C98.4296 157.141 99.6094 157.867 99.3994 158.25C99.1895 158.633 94.2309 157.06 92.2617 156.61C75.8277 152.868 67.6403 154.789 65.9001 154.744Z" fill="#0705CB"/>
<path d="M81.1594 147.051C91.9615 146.901 102.637 151.199 101.91 152.308C101.183 153.416 90.7887 146.976 71.3341 149.022C69.0213 149.273 69.4759 147.212 81.1594 147.051Z" fill="#0705CB"/>
<path fill-rule="evenodd" clip-rule="evenodd" d="M35.0298 74.3392C35.6348 77.212 36.5788 81.0986 37.6101 85.3436C38.3252 88.2874 39.0822 91.4034 39.7969 94.4733C40.2495 96.4191 42.22 95.8985 66.0669 89.5964L66.934 89.3672C68.1103 89.0567 68.2769 88.5691 64.6854 73.7314C64.0969 71.3 63.696 69.4574 63.3929 68.0642C62.5653 64.2614 62.4669 63.8088 61.2744 63.8749C61.0817 63.8856 60.0212 64.0796 58.4254 64.389C58.4502 64.9457 58.4726 65.4843 58.4918 65.9994C60.1076 65.681 60.5459 65.6784 60.717 65.8909C60.7767 65.9652 60.8039 66.0655 60.8372 66.1876C61.9861 70.4153 62.7136 73.8992 63.4062 77.2167C64.0648 80.3714 64.692 83.3759 65.6206 86.7266C65.9206 87.8068 65.5002 87.9048 55.8628 90.1523C52.513 90.9334 48.0499 91.9742 42.1166 93.4063C40.6975 93.7491 38.3667 82.1767 37.0023 75.4027C36.9201 74.9943 36.8413 74.6034 36.7665 74.2337C36.1544 74.2776 35.5761 74.313 35.0298 74.3392Z" fill="#010614"/>
<path d="M43.9524 85.4249C42.6737 85.4752 42.7067 84.5192 43.6696 84.2104C47.2992 83.0236 51.812 82.1284 56.6405 81.1013C57.2043 80.9798 57.7509 80.9035 57.907 81.4968C58.1256 82.321 57.0534 82.432 55.4433 82.8449C53.3318 83.3741 46.1194 85.1976 43.9524 85.4249Z" fill="#010614"/>
<path d="M41.407 78.5009C40.3088 78.5009 40.2168 77.5865 41.1207 77.2725C43.312 76.5143 51.0206 74.8782 53.4306 74.3386C54.1055 74.1877 54.7075 74.0384 54.8359 74.6856C55.0007 75.5253 54.2148 75.5861 51.234 76.2835C41.4885 78.5789 42.2467 78.3811 41.407 78.5009Z" fill="#010614"/>
<path d="M42.5296 82.2356C42.3924 82.2545 42.2529 82.2245 42.1356 82.1509C42.0183 82.0772 41.9305 81.9646 41.888 81.8327C41.8453 81.7011 41.8505 81.5584 41.9024 81.43C41.9545 81.3017 42.0499 81.1955 42.1722 81.1304C42.6927 80.7626 42.7552 80.7678 48.6958 79.5845C50.292 79.267 50.0456 80.6082 49.2822 80.8094C47.058 81.3976 44.799 81.8227 42.5296 82.2356Z" fill="#010614"/>
<path d="M47.0408 44.4144C52.199 44.7354 54.9489 43.5313 55.2422 45.3687C55.7627 48.5871 56.6839 66.2008 56.6857 66.239C56.9407 69.735 56.7846 70.3197 55.8529 70.4308C50.2644 71.0901 43.8276 71.9385 31.3581 72.4416C29.441 72.5197 28.053 72.485 27.8881 70.639C27.106 62.6254 26.7949 54.5727 26.9565 46.5225C27.0484 45.3219 27.7042 45.6324 33.52 45.1241C37.8627 44.7372 42.2158 44.5133 47.0408 44.4144ZM28.5804 48.4258C28.4234 55.6385 28.8296 62.8526 29.7949 70.0022C29.873 70.5991 30.1194 70.6494 30.6069 70.606C54.1456 68.5466 55.1172 69.2544 54.8847 67.5177C53.9131 60.2203 54.2428 45.9152 52.6397 46.0037C28.4763 47.4438 28.6186 46.6699 28.5735 48.4258H28.5804Z" fill="#010614"/>
<path d="M35.3453 49.9039C36.277 49.8206 36.0393 50.2682 36.5598 60.5412C36.6327 61.9916 35.1875 61.9396 35.1337 60.6088C34.7381 50.5718 34.549 49.975 35.3453 49.9039Z" fill="#010614"/>
<path d="M47.5804 49.4356C48.4358 49.3992 48.2397 49.7496 48.7498 60.1284C48.821 61.5615 47.3375 61.421 47.3306 60.1822C47.3098 56.36 46.3052 49.4876 47.5804 49.4356Z" fill="#010614"/>
<path d="M41.5546 49.8417C42.3701 49.814 42.1723 49.9545 42.698 60.5814C42.7622 61.8618 41.3447 61.834 41.2857 60.6681C40.7687 50.2043 40.7496 49.8677 41.5546 49.8417Z" fill="#010614"/>
<path d="M42.9567 64.6149C42.9451 64.8576 42.8401 65.0863 42.6638 65.2534C42.4874 65.4206 42.2533 65.5131 42.0104 65.5117C41.7675 65.5103 41.5345 65.4153 41.3601 65.2463C41.1856 65.0773 41.0832 64.8472 41.0742 64.6045C40.9892 63.39 42.7832 63.1037 42.9567 64.6149Z" fill="#010614"/>
<path d="M47.1295 64.1001C47.1297 63.9736 47.1553 63.8485 47.2051 63.7324C47.2547 63.6162 47.3274 63.5112 47.4189 63.424C47.5101 63.3365 47.6182 63.2685 47.7366 63.2241C47.8549 63.1795 47.9808 63.1595 48.1071 63.1649C48.2335 63.1705 48.3573 63.2015 48.4713 63.2562C48.5853 63.3107 48.687 63.3879 48.7704 63.4828C48.8537 63.5778 48.917 63.6887 48.9566 63.8088C48.996 63.9288 49.0107 64.0557 48.9998 64.1816C48.9996 64.3079 48.9739 64.433 48.9242 64.5491C48.8745 64.6653 48.8018 64.7703 48.7104 64.8576C48.6191 64.945 48.5111 65.013 48.3927 65.0575C48.2744 65.102 48.1484 65.122 48.0221 65.1166C47.8958 65.1111 47.7719 65.08 47.658 65.0255C47.544 64.9709 47.4423 64.8937 47.3588 64.7988C47.2756 64.7037 47.2122 64.5928 47.1727 64.4728C47.1333 64.3527 47.1185 64.2259 47.1295 64.1001Z" fill="#010614"/>
<path d="M35.5707 63.6973C37.2936 63.595 37.1062 65.4983 35.9177 65.559C34.7292 65.6197 34.6911 63.85 35.5707 63.6973Z" fill="#010614"/>
<path d="M190.902 29.8025C190.912 31.5739 168.248 40.7729 166.28 41.3038C166.117 41.3774 165.94 41.4171 165.76 41.4209C165.581 41.4246 165.402 41.3923 165.236 41.3258C165.069 41.2592 164.917 41.16 164.79 41.0337C164.662 40.9073 164.561 40.7568 164.493 40.5907C162.267 36.4795 160.306 32.2297 158.622 27.868C154.444 16.6842 154.009 16.3875 155.032 15.8323C156.897 14.8208 180.431 5.44135 181.435 7.30995C182.352 9.01198 188.395 22.9249 190.902 29.8025ZM188.762 28.935C182.796 15.5044 181.638 11.7724 180.07 8.99463C179.643 8.23817 179.876 8.42728 163.445 14.5831C156.67 17.1214 156.533 17.1283 156.956 18.4001C159.309 25.4613 162.205 32.3293 165.619 38.9425C165.905 39.4977 166.171 39.4057 166.584 39.2253C186.441 30.585 188.617 29.7921 188.762 28.9419V28.935Z" fill="#010614"/>
<path d="M178.481 19.7485C180.084 16.5422 176.187 16.2126 175.184 18.2096C175.011 18.5566 174.856 18.992 174.358 18.8029C173.861 18.6138 173.821 18.1592 173.949 17.6821C174.834 14.3613 181.063 14.8228 180.195 19.0285C179.867 20.5987 178.66 21.3083 179.171 23.4545C179.82 26.194 176.17 24.3705 178.481 19.7485Z" fill="#010614"/>
<path d="M169.133 16.9092C171.675 17.5685 164.568 20.0998 162.101 21.0003C161.153 21.3473 160.876 20.6533 161.58 20.086C163.956 18.7181 166.494 17.6511 169.133 16.9092Z" fill="#010614"/>
<path d="M163.787 25.0574C163.138 25.1147 160.838 24.32 169.86 21.6481C170.245 21.5336 170.815 21.3341 170.979 21.7071C171.365 22.5798 164.609 24.903 163.787 25.0574Z" fill="#010614"/>
<path d="M179.808 27.9193C179.697 27.9141 179.588 27.8865 179.489 27.8382C179.388 27.79 179.3 27.7222 179.227 27.6385C179.154 27.5551 179.099 27.4577 179.064 27.3523C179.029 27.2469 179.015 27.1356 179.024 27.025C179.034 26.9143 179.066 26.8068 179.118 26.7087C179.17 26.6105 179.241 26.5238 179.326 26.4539C179.413 26.3838 179.512 26.3317 179.619 26.301C179.725 26.2701 179.838 26.2613 179.947 26.2745C180.058 26.2799 180.167 26.3074 180.266 26.3557C180.367 26.4039 180.455 26.4717 180.528 26.5552C180.601 26.6388 180.657 26.7362 180.691 26.8416C180.726 26.947 180.74 27.0584 180.731 27.1689C180.721 27.2796 180.69 27.3871 180.638 27.4852C180.586 27.5834 180.514 27.6701 180.429 27.74C180.343 27.8101 180.244 27.8622 180.136 27.8929C180.03 27.9238 179.919 27.9326 179.808 27.9193Z" fill="#010614"/>
<path d="M48.1044 198.72C66.1866 191.152 160.458 150.463 147.258 160.302C139.742 165.904 144.616 163.48 109.744 178.578C61.535 199.454 52.513 203.366 50.6479 204.083C48.559 204.877 45.8853 199.643 48.1044 198.72ZM50.8804 198.956C51.3865 199.237 51.7972 199.662 52.0593 200.179C52.3215 200.694 52.4233 201.277 52.3517 201.852C52.6484 201.964 141.149 163.345 141.519 163.005C142.395 162.202 142.213 162.059 141.359 161.964C139.733 161.792 50.8717 198.951 50.8717 198.951L50.8804 198.956ZM49.0413 199.796C47.9465 200.193 48.7828 202.19 49.8463 202.729C51.8572 203.751 50.8821 199.121 49.0326 199.79L49.0413 199.796Z" fill="#0705CB"/>
</svg>
