<svg width="330" height="185" viewBox="0 0 330 185" fill="none" xmlns="http://www.w3.org/2000/svg">
<path d="M2.77562 113.008C-1.08476 113.158 -0.850534 115.773 3.05148 115.957C8.6911 116.222 23.2432 116.205 49.3378 116.136L48.2606 112.421C25.8978 112.558 9.34138 112.756 2.77562 113.008Z" fill="#180B02"/>
<path d="M311.179 116.519C321.1 116.58 334.091 115.549 327.568 113.903C325.543 113.393 306.527 113.004 278.58 112.726L277.496 116.334C288.343 116.387 299.568 116.45 311.179 116.519Z" fill="#180B02"/>
<path d="M278.375 135.073C279.116 134.836 279.394 134.28 277.442 134.627C266.409 136.595 192.878 155.77 160.717 164.646V166.066C193.43 157.941 267.941 138.422 278.375 135.073Z" fill="#180B02"/>
<path fill-rule="evenodd" clip-rule="evenodd" d="M161.388 38.3217C161.131 37.81 160.878 37.2963 160.629 36.7808C153.378 37.4977 143.527 38.4419 130.138 39.6418C126.238 39.9911 123.376 40.2725 121.275 40.4793C116.596 40.9396 115.681 41.0295 115.446 40.6723C115.389 40.5853 115.372 40.472 115.351 40.3312L115.349 40.3202C115.277 39.8421 115.212 39.4085 115.154 39.0157L115.154 39.0132C114.652 35.6368 114.598 35.2722 113.852 35.4726C113.832 35.478 113.812 35.4834 113.793 35.4886C113.462 35.5773 113.233 35.6387 113.095 35.7853C112.783 36.1148 112.925 36.8743 113.388 39.3398C113.454 39.692 113.527 40.0787 113.606 40.5041C113.61 40.5312 113.615 40.557 113.62 40.582C113.646 40.7234 113.666 40.8319 113.632 40.9186C113.52 41.2033 112.824 41.258 109.847 41.4912C108.047 41.6322 105.412 41.8387 101.566 42.201C96.5182 42.6786 92.9574 43.0617 90.4413 43.3325C85.6985 43.8428 84.6676 43.9537 84.3845 43.5458C84.3059 43.4325 84.285 43.2791 84.2582 43.0832L84.2562 43.0685C83.5484 37.8461 83.4686 37.284 82.5212 37.4193C81.6739 37.5404 81.7205 37.8196 82.3765 41.7554C82.4541 42.22 82.54 42.7357 82.634 43.3079C82.6415 43.3534 82.6498 43.3957 82.6578 43.4354C82.6816 43.5551 82.7005 43.6502 82.6731 43.7291C82.5681 44.0326 81.7813 44.0999 77.9726 44.4264C76.0728 44.5892 73.4212 44.8165 69.7274 45.1695C67.5215 45.3807 65.8559 45.5658 64.5959 45.7058C61.8033 46.0161 61.0024 46.1051 60.727 45.7666C60.6163 45.6304 60.5907 45.4251 60.5546 45.1375C59.8387 39.3986 59.83 39.3984 58.8374 39.4841C58.8121 39.4862 58.7863 39.4885 58.7595 39.4907C58.7372 39.4926 58.7143 39.4944 58.691 39.4961C58.6468 39.4994 58.6051 39.5008 58.5661 39.5018C58.466 39.5048 58.3836 39.5072 58.3215 39.544C58.0347 39.7137 58.1802 40.6146 58.9986 45.6777C59.5384 49.0167 60.3707 54.1657 61.5644 62.1089C62.211 62.1247 62.7129 62.2826 63.113 62.5607C63.0072 61.8828 62.8996 61.152 62.7939 60.4362C62.5696 58.9139 62.3552 57.4584 62.1905 56.7212C62.017 55.9595 62.3241 55.7964 62.9244 55.7374V55.7409C68.8559 55.1559 73.1408 54.7001 76.24 54.3704C82.938 53.658 84.0978 53.5347 84.3687 53.9677C84.4256 54.0583 84.4433 54.1733 84.4648 54.3126L84.4662 54.3217C84.8645 56.9056 85.1859 58.6878 85.4081 59.9203C85.9061 62.6816 85.9062 62.6835 85.1602 62.759C75.8797 63.7259 72.5304 64.279 69.6552 64.7539C68.1227 65.0068 66.7248 65.2378 64.6351 65.4972C64.7453 65.9476 64.8484 66.4323 64.9571 66.9448C65.5056 66.8675 66.2235 66.7628 67.0629 66.6405C73.264 65.7369 86.0992 63.8668 86.2636 64.9191C86.7343 67.9262 87.1006 70.0536 87.3603 71.5613C87.8371 74.3297 87.9541 75.0091 87.6969 75.21C87.6133 75.2754 87.4903 75.2902 87.327 75.3098C82.1607 75.9297 77.6653 76.5125 73.7838 77.0156C71.4509 77.3181 69.3384 77.5918 67.4345 77.8278L67.6008 78.5305L67.7883 79.3223C74.1153 78.5785 78.478 78.0117 81.4917 77.6201C86.8764 76.9206 87.9551 76.7804 88.2386 77.1902C88.3095 77.2929 88.3305 77.4301 88.3569 77.6016L88.3578 77.6071C88.9215 81.2383 89.3551 83.6588 89.645 85.2768C90.0744 87.6725 90.1884 88.3095 89.9427 88.514C89.8537 88.5881 89.7173 88.6056 89.5319 88.6292L89.5289 88.6296C82.747 89.4967 78.0736 90.0984 74.8475 90.5136C67.8057 91.4201 67.6608 91.4387 67.5399 91.3934L67.5308 91.3899H67.5256L67.4673 91.0178C67.1776 91.1236 66.8535 91.2204 66.4937 91.3157L65.7773 91.5055L65.8288 91.8792C66.0184 93.2559 66.1781 94.4444 66.3158 95.4701C67.1608 101.761 67.1826 101.924 68.2717 101.81C87.2248 99.7908 189.895 85.8588 192.935 85.4337C193.45 85.3603 193.464 85.4236 193.808 86.9589C193.919 87.4562 194.065 88.1078 194.273 88.9592C194.318 89.1414 194.37 89.3029 194.419 89.4473C194.51 89.7243 194.582 89.939 194.53 90.1184C194.351 90.7348 192.723 90.9335 185.497 91.8148C182.568 92.1721 178.718 92.6416 173.673 93.2967L173.128 93.3673C164.753 94.4517 63.3585 107.58 63.2801 108.348C63.2194 108.949 64.2829 109.472 65.572 109.279C69.7447 108.653 69.7584 108.776 69.8629 109.721C69.8724 109.808 69.8828 109.902 69.8974 110.003C70.0983 111.417 70.2513 112.562 70.3752 113.486C70.7588 116.354 70.8613 117.121 71.2333 117.288C71.3694 117.35 71.5413 117.329 71.776 117.303L71.8059 117.3C72.2448 117.251 72.2674 116.922 72.1876 116.54C71.8729 115.065 71.685 113.57 71.4971 112.074C71.3742 111.096 71.2512 110.117 71.0928 109.144C70.9982 108.554 71.2975 108.528 72.3904 108.428C72.7608 108.394 73.2225 108.352 73.7907 108.277C77.4642 107.779 80.1497 107.384 82.1159 107.094C86.2505 106.485 87.2047 106.344 87.4792 106.712C87.5614 106.822 87.5826 106.978 87.61 107.18L87.6117 107.192C87.7547 108.239 87.8746 109.144 87.9778 109.924C88.5806 114.475 88.6274 114.829 89.4907 114.652L89.5197 114.647C89.7744 114.593 89.9578 114.555 90.0756 114.446C90.3785 114.165 90.2479 113.417 89.781 110.742C89.6113 109.77 89.3974 108.545 89.1437 106.995C89.0041 106.134 89.0589 106.128 92.498 105.722C93.6284 105.589 95.1241 105.412 97.0987 105.148C100.772 104.657 103.481 104.258 105.482 103.963C109.724 103.339 110.786 103.182 111.122 103.604C111.234 103.745 111.266 103.95 111.308 104.224L111.312 104.252C111.474 105.308 111.607 106.205 111.72 106.967C112.185 110.096 112.309 110.938 112.726 111.122C112.879 111.189 113.071 111.168 113.333 111.141L113.349 111.139H113.351C113.472 111.127 113.568 111.116 113.637 111.068C113.893 110.889 113.78 110.179 113.243 106.83C113.102 105.949 112.932 104.885 112.731 103.599C112.639 103.01 112.666 103.006 115.754 102.616C116.347 102.541 117.053 102.452 117.893 102.341C122.243 101.77 125.373 101.326 127.628 101.007C132.271 100.35 133.206 100.217 133.452 100.568C133.514 100.657 133.532 100.776 133.555 100.925L133.556 100.932L133.596 101.193C134.557 107.453 134.627 107.905 135.638 107.619C136.6 107.347 136.505 106.909 135.399 101.809C135.326 101.475 135.249 101.121 135.168 100.745C135.014 100.032 135.04 100.029 136.964 99.8005C137.51 99.7358 138.21 99.6529 139.101 99.5306C161.138 96.5247 175.278 94.6715 184.333 93.4846C198.499 91.6283 200.229 91.4014 200.293 90.9418C200.302 90.8778 200.279 90.8092 200.253 90.7312C200.238 90.685 200.22 90.6354 200.208 90.5814C200.045 89.8508 199.677 89.9057 197.797 90.1872L197.795 90.1874C197.399 90.2468 196.934 90.3163 196.391 90.3906L196.374 90.393C196.226 90.4137 196.11 90.4296 196.011 90.3968C195.663 90.2811 195.513 89.5595 194.842 86.2991C194.477 84.5291 193.959 82.0107 193.171 78.4347C191.327 70.0701 189.862 63.3643 188.688 57.9903C184.482 38.7334 184.01 36.5742 183.216 36.4481C183.117 36.4323 183.011 36.4487 182.891 36.4673L182.884 36.4685C182.291 36.5601 182.409 36.9172 182.513 37.2293C182.537 37.3015 182.56 37.3714 182.574 37.4349C182.874 38.8783 183.124 39.8899 183.301 40.6015C183.71 42.2605 183.717 42.2881 183.018 42.3536C157.181 44.7478 141.43 46.4151 131.817 47.4325C117.891 48.9066 116.85 49.0169 116.689 47.9976C116.451 46.48 116.243 45.3663 116.089 44.547C115.685 42.3804 115.665 42.2737 116.494 42.2044C137.542 40.4535 151.777 39.2162 161.388 38.3217ZM187.723 59.9851C188.438 63.0239 188.592 63.6816 188.379 63.8387C188.32 63.882 188.231 63.8872 188.12 63.8937C188.084 63.8959 188.044 63.8984 188.001 63.9023C180.108 64.6935 147.253 68.4498 130.787 70.3324L130.785 70.3326C124.862 71.0098 121.06 71.4446 121.304 71.4114L121.295 71.4125C121.136 71.4336 121.012 71.4499 120.908 71.4121C120.549 71.2815 120.425 70.5038 119.873 67.0364C119.647 65.6188 119.35 63.7514 118.935 61.2946C118.689 60.779 118.9 60.758 123.286 60.3248C125.068 60.1488 127.538 59.9047 130.947 59.5319C149.052 57.5531 161.217 56.1774 169.398 55.2523C184.722 53.5198 186.068 53.3676 186.285 53.7925C186.306 53.8341 186.316 53.8813 186.328 53.933C186.93 56.6055 187.388 58.5578 187.723 59.9851ZM161.274 46.0039L161.285 46.0029C172.211 44.9244 181.354 44.022 183.356 43.8319C184.033 43.6473 184.052 43.7364 184.562 46.1587C184.8 47.2861 185.143 48.9189 185.709 51.2646C185.929 52.1796 163.777 54.4193 144.137 56.4052C134.318 57.398 125.128 58.3273 119.675 58.9958C119.641 58.9999 119.609 59.0039 119.578 59.0077C119.237 59.0502 119.006 59.079 118.833 58.9923C118.469 58.8089 118.363 58.1106 118.033 55.9383C117.858 54.783 117.62 53.2107 117.246 51.0772C117.152 50.5359 117.275 50.3173 117.828 50.2652C123.731 49.7095 144.581 47.6516 161.274 46.0039ZM118.474 68.0833C118.969 70.6881 119.104 71.4014 118.833 71.6269C118.731 71.7121 118.571 71.7277 118.351 71.7494L118.347 71.7497C106.684 72.9904 99.7744 73.8808 95.6656 74.4102C90.8772 75.027 89.8933 75.1538 89.6242 74.774C89.5546 74.6758 89.5327 74.5438 89.5053 74.3774L89.5046 74.3731C89.1777 72.4 88.9997 71.3623 88.8588 70.541C88.6189 69.1429 88.4867 68.3724 87.9119 64.6848C87.9069 64.6527 87.8971 64.6231 87.8881 64.595C87.8755 64.5561 87.8638 64.5205 87.8673 64.4863C87.9046 64.1159 89.7168 63.9245 111.218 61.654C112.529 61.5155 113.913 61.3692 115.375 61.2148C117.196 61.0236 117.214 61.1295 117.474 62.6127L117.494 62.7278C117.903 65.0771 118.232 66.8073 118.474 68.0833ZM115.41 51.02C115.821 53.4061 116.144 55.1016 116.374 56.3088C116.943 59.2931 116.943 59.2931 116.29 59.3636C108.402 60.2122 102.684 60.8658 98.5332 61.3403C89.333 62.392 87.8395 62.5627 87.5076 62.0213C87.4433 61.9163 87.4226 61.7848 87.398 61.6276L87.3966 61.6191C87.0218 59.252 86.7186 57.5691 86.5024 56.3702C85.9741 53.4393 85.9673 53.4018 86.7147 53.3327C98.3002 52.2641 105.179 51.515 109.276 51.0687C114.261 50.5258 115.124 50.4318 115.333 50.7573C115.376 50.8255 115.391 50.9122 115.409 51.017L115.41 51.02ZM85.2643 44.9839L113.215 42.515C113.949 42.4477 113.963 42.5348 114.298 44.609C114.439 45.4779 114.636 46.6957 114.966 48.3966C114.978 48.4601 114.998 48.5174 115.017 48.57C115.043 48.6444 115.067 48.7093 115.057 48.7685C114.99 49.1642 113.443 49.3101 101.557 50.4308C98.1036 50.7564 93.7774 51.1643 88.3612 51.6845C87.8824 51.7303 87.4925 51.7813 87.1736 51.8229C85.8956 51.9902 85.7567 52.0082 85.6026 50.9419C85.3323 49.0653 85.1034 47.788 84.9471 46.916C84.7228 45.6638 84.6482 45.2473 84.8156 45.0923C84.8992 45.0151 85.0429 45.0028 85.2582 44.9844L85.2643 44.9839ZM61.7342 53.8324C61.4773 52.0351 61.2654 50.7158 61.1096 49.746C60.6873 47.1155 60.6779 47.0578 61.3005 47.0121C69.6378 46.3863 74.7542 45.9007 77.9039 45.6017C81.9289 45.2197 82.7423 45.1425 82.9616 45.4669C83.0171 45.5492 83.0346 45.6571 83.0565 45.7922L83.0574 45.7976C83.316 47.3964 83.527 48.5894 83.6849 49.4809C84.0212 51.3821 84.115 51.9118 83.9101 52.082C83.8308 52.1477 83.7073 52.1599 83.5359 52.1767L83.531 52.1772C76.6117 52.8547 71.9017 53.3582 68.6914 53.7014C62.9327 54.317 62.0005 54.4166 61.7991 54.0796C61.7602 54.0144 61.7486 53.933 61.7347 53.836L61.7342 53.8324ZM77.9566 99.2849C69.9607 100.451 68.8269 100.617 68.6081 100.245C68.572 100.183 68.5607 100.107 68.5477 100.018L68.5476 100.016C68.3079 98.4016 68.1093 97.1625 67.9566 96.2101C67.5855 93.8965 67.4861 93.2761 67.7312 93.0745C67.8209 93.0005 67.9571 92.9829 68.1431 92.9587L68.1589 92.9566C82.5655 91.0475 84.9693 90.7751 86.6132 90.5887C87.4044 90.499 88.02 90.4295 89.7128 90.2067L89.7255 90.2049C89.951 90.1749 90.106 90.1543 90.2236 90.211C90.4811 90.3352 90.5593 90.8313 90.809 92.4138C90.9629 93.3895 91.182 94.7782 91.5484 96.7476C91.6517 97.3146 91.3191 97.3615 90.9742 97.4102L90.9481 97.4139C85.313 98.2114 81.1034 98.8256 77.9566 99.2849ZM90.6948 81.5129C90.3799 79.5312 90.136 77.9968 90.013 77.4024C90.006 77.3691 89.9989 77.3373 89.9922 77.3068C89.9604 77.1642 89.9351 77.0512 89.9661 76.9565C90.0834 76.5975 91.0082 76.5023 95.4414 76.046C97.598 75.8239 100.585 75.5164 104.714 75.0514C107.994 74.684 110.548 74.3826 112.54 74.1479L112.543 74.1475C115.251 73.8283 116.918 73.6315 117.955 73.5576C118.012 73.5536 118.067 73.5495 118.12 73.5455C118.541 73.5139 118.831 73.4922 119.05 73.6057C119.532 73.8557 119.675 74.7608 120.132 77.6578C120.361 79.1133 120.67 81.0716 121.141 83.7022C121.185 83.9504 121.219 84.1408 121.161 84.2961C120.97 84.8032 119.791 84.9385 114.764 85.5163C112.32 85.7972 108.966 86.1827 104.374 86.7662C101.403 87.1434 99.1391 87.4539 97.4101 87.6911C93.1606 88.2741 92.1451 88.4132 91.829 88.0076C91.7298 87.8802 91.6994 87.6991 91.6597 87.461L91.6543 87.4289C91.3017 85.332 90.9709 83.25 90.6948 81.5129ZM98.935 96.3347C94.2819 96.9957 93.4693 97.1113 93.2748 96.8174C93.2337 96.7553 93.2201 96.6748 93.2038 96.5772C92.955 95.082 92.7494 93.9194 92.5898 93.0165C92.1783 90.69 92.0702 90.0786 92.3051 89.8861C92.3889 89.8175 92.5162 89.8021 92.6889 89.7811L92.6987 89.7799C103.061 88.5376 109.694 87.6607 113.951 87.0984C120.287 86.2609 121.353 86.1201 121.602 86.5063C121.652 86.5845 121.669 86.6841 121.69 86.8038L121.691 86.8078C121.987 88.6025 122.229 89.888 122.403 90.8115C122.836 93.1092 122.847 93.1655 122.209 93.2447C110.049 94.7557 103.015 95.755 98.935 96.3347ZM122.799 83.8392C121.863 78.5315 121.543 76.4863 121.39 75.5062C121.268 74.7242 121.251 74.6201 121.113 74.0781C120.872 73.1348 120.992 73.1228 124.228 72.8026C125.181 72.7082 126.406 72.5871 127.971 72.4073C144.68 70.491 156.802 69.0685 165.602 68.036C186.828 65.5452 188.717 65.3233 189.017 65.9113C189.047 65.9698 189.061 66.0362 189.076 66.1093C189.744 69.2116 190.237 71.3117 190.572 72.7357C191.099 74.9883 191.231 75.5501 191.034 75.7128C190.969 75.767 190.867 75.777 190.732 75.7904C190.69 75.7944 190.648 75.7987 190.602 75.8044C168.751 78.5529 153.958 80.4601 143.94 81.7518C124.678 84.2353 123.058 84.4442 122.837 83.9831C122.817 83.9404 122.809 83.892 122.799 83.8392ZM137.283 91.2935C126.494 92.8258 124.704 93.0802 124.296 92.4453C124.215 92.3192 124.188 92.1579 124.156 91.9642L124.156 91.9625C123.925 90.5526 123.735 89.478 123.59 88.6573C123.128 86.0448 123.122 86.0082 123.696 85.9368C148.042 82.9061 163.645 80.876 173.656 79.5734C189.739 77.4806 191.389 77.2658 191.681 77.7969C191.715 77.8585 191.731 77.93 191.748 78.0096C192.095 79.5779 192.369 80.7237 192.569 81.5629C192.963 83.2087 193.074 83.6742 192.902 83.8306C192.834 83.8922 192.723 83.9059 192.567 83.9246C192.552 83.9267 192.533 83.9289 192.515 83.9312C163.49 87.571 146.849 89.9348 137.283 91.2935Z" fill="#F07D29"/>
<path fill-rule="evenodd" clip-rule="evenodd" d="M154.447 21.789C154.025 21.7713 153.509 21.7748 152.875 21.7779C117.823 24.5494 112.769 23.5926 112.037 24.9557C111.912 25.1884 111.913 25.4886 111.912 25.8864C112.13 28.3147 112.563 30.7191 113.205 33.071C113.253 33.2131 113.293 33.3362 113.362 33.4401C114.009 34.4219 117.231 33.7061 154.895 31.2961C157.172 31.1494 157.098 30.0806 156.859 28.0437C156.18 26.2322 155.571 24.6717 155.044 23.3221C154.831 22.7776 154.632 22.2675 154.447 21.789Z" fill="#F07D29"/>
<path d="M84.7526 35.9629C82.4607 36.0931 82.7973 34.8612 81.6747 27.4198C81.4526 25.9468 81.7233 26.3007 89.9316 25.7906C98.9345 25.2337 101.285 25.0689 107.894 24.767C110.165 24.6646 109.645 24.073 111.142 32.944C111.453 34.7831 112.52 34.3737 84.7526 35.9629Z" fill="#F07D29"/>
<path d="M158.298 25.7825C158.799 30.3879 158.875 31.1285 160.336 31.0205L160.822 30.9845L158.298 25.7825Z" fill="#F07D29"/>
<path d="M62.6662 37.4849C59.479 37.6584 59.9475 38.4062 58.7364 29.2974C58.4519 27.1443 61.0926 27.5537 67.8591 27.1165C78.2326 26.4451 79.8878 25.6851 80.1134 28.4716C80.6113 34.5926 82.2249 36.1402 79.0342 36.3554C62.72 37.4519 68.1453 37.1917 62.6662 37.4849Z" fill="#F07D29"/>
<path d="M54.7683 27.9495C54.9055 27.9337 55.0447 27.9457 55.1772 27.9849C55.3098 28.0241 55.433 28.0897 55.5395 28.1777C55.6462 28.2656 55.7338 28.3742 55.7975 28.4969C55.8612 28.6196 55.8993 28.7537 55.9099 28.8916C57.6987 38.1166 57.9364 37.9778 53.5434 37.9899C53.2616 38.03 52.9753 37.9566 52.7477 37.7859C52.5199 37.615 52.3693 37.3608 52.3289 37.0791C50.8333 28.5845 50.1445 27.8228 54.7683 27.9495Z" fill="#F07D29"/>
<path d="M96.4031 111.682C95.6796 111.524 94.7913 111.746 94.6559 110.873C94.5119 109.959 95.4523 109.98 96.0005 109.85C99.4721 109.106 102.98 108.543 106.511 108.167C106.938 108.124 107.53 107.898 107.682 108.59C107.988 109.975 107.262 109.836 96.4031 111.682Z" fill="#F07D29"/>
<path d="M103.301 21.9997C103.199 20.8841 105.304 20.9413 112.953 20.3896C115.354 20.2161 115.184 21.9823 113.861 22.1732C112.138 22.4195 103.459 23.7295 103.301 21.9997Z" fill="#F07D29"/>
<path d="M119.336 107.871C118.771 107.898 118.295 107.765 118.156 107.164C117.893 105.938 121.679 105.584 128.619 104.817C129.186 104.754 129.762 104.784 129.861 105.337C130.022 106.222 129.561 106.366 119.336 107.871Z" fill="#F07D29"/>
<path d="M73.9989 40.167C74.6929 40.167 75.6194 40.0404 75.7009 40.9165C75.8067 42.053 74.2782 42.0183 71.641 42.2577C71.2836 42.2889 66.1619 42.7261 65.742 42.6498C64.5726 42.4329 64.668 41.411 65.5511 41.0224C66.1116 40.7743 73.9954 40.1115 73.9989 40.167Z" fill="#F07D29"/>
<path d="M94.9565 40.1288C94.1515 40.1601 93.5494 40.0334 93.4869 39.2926C93.4245 38.5517 94.0196 38.4112 94.6026 38.3349C103.375 37.1984 103.708 37.2262 103.807 38.1839C103.949 39.5424 102.991 39.2856 94.9565 40.1288Z" fill="#F07D29"/>
<path d="M80.8333 113.625C80.259 113.702 76.527 114.12 75.951 114.038C74.8146 113.875 74.4485 112.973 75.8209 112.596C86.0244 109.81 87.107 112.778 80.8333 113.625Z" fill="#F07D29"/>
<path d="M89.8953 22.9177C89.6992 22.2237 90.8166 21.7361 91.4794 21.6893C98.1175 21.2226 98.5547 20.9692 98.6571 22.0849C98.7698 23.2994 97.8798 23.1154 92.4006 23.5457C92.3781 23.3115 90.1781 23.9378 89.8953 22.9177Z" fill="#F07D29"/>
<path d="M79.4294 24.306C76.7835 24.3372 77.1548 22.4981 79.0997 22.368C84.329 22.021 85.089 21.9082 85.1826 22.9145C85.3214 24.3945 81.8688 23.9815 79.4294 24.306Z" fill="#F07D29"/>
<path d="M72.0823 23.719C72.1898 24.6126 71.3692 24.7167 70.7723 24.7774C65.5569 25.3187 65.5118 25.1556 64.9618 24.767C64.8131 24.6865 64.695 24.5597 64.6256 24.4056C64.556 24.2515 64.5388 24.0789 64.577 23.9142C64.615 23.7496 64.7059 23.6019 64.836 23.494C64.966 23.3859 65.1279 23.3236 65.2967 23.3165C71.3935 22.9088 71.9782 22.8498 72.0823 23.719Z" fill="#F07D29"/>
<path d="M54.8479 26.3359C53.892 26.0983 53.538 24.9479 53.0869 25.8762C52.1084 27.8957 51.3519 26.3602 51.9175 25.7703C53.4894 24.1082 50.5052 24.0024 51.1559 23.0637C51.5029 22.5432 52.2576 23.2372 52.2923 23.2789C53.6907 24.8178 53.5918 21.674 54.5842 22.2656C55.1915 22.6283 54.3014 23.9312 54.1557 24.0839C53.5762 24.6929 54.3517 24.9254 55.1967 25.5691C55.4864 25.7877 55.5419 26.3464 54.8479 26.3359Z" fill="#F07D29"/>
<path d="M67.5134 114.8C66.9773 114.857 67.156 114.973 67.2375 116.535C67.2403 116.59 67.2323 116.644 67.2141 116.696C67.196 116.746 67.1678 116.795 67.1313 116.835C67.0949 116.875 67.0506 116.908 67.0015 116.932C66.9523 116.955 66.8988 116.969 66.8445 116.972C66.7345 116.977 66.6268 116.939 66.5449 116.866C66.463 116.792 66.4139 116.689 66.4082 116.578C66.2989 115.744 66.4082 114.689 65.0202 114.989C64.3175 115.14 64.0295 114.121 65.0063 113.986C66.5071 113.787 65.912 113.696 65.9137 112.09C65.914 111.986 65.9543 111.883 66.0265 111.807C66.0987 111.731 66.1972 111.684 66.3022 111.679C66.4071 111.672 66.5109 111.705 66.5919 111.772C66.6731 111.838 66.7259 111.934 66.7396 112.038C66.8662 112.747 66.5956 114.021 68.1276 113.665C68.7886 113.5 69.6873 114.572 67.5134 114.8Z" fill="#F07D29"/>
<path d="M59.4075 24.4082C59.4075 24.6737 59.302 24.9284 59.1142 25.1161C58.9265 25.3038 58.672 25.4093 58.4064 25.4093C58.1409 25.4093 57.8862 25.3038 57.6985 25.1161C57.5108 24.9284 57.4053 24.6737 57.4053 24.4082C57.4053 24.1426 57.5108 23.888 57.6985 23.7003C57.8862 23.5126 58.1409 23.4071 58.4064 23.4071C58.672 23.4071 58.9265 23.5126 59.1142 23.7003C59.302 23.888 59.4075 24.1426 59.4075 24.4082Z" fill="#F07D29"/>
<path fill-rule="evenodd" clip-rule="evenodd" d="M139.683 143.858C129.631 142.308 118.307 142.655 110.558 146.411C109.224 145.596 107.773 144.857 106.236 144.194C108.679 143.663 112.038 143.011 116.458 142.152C118.671 141.724 121.149 141.241 123.912 140.698C125.018 140.48 125.97 140.287 126.794 140.119C131.298 139.204 132.01 139.06 133.345 139.871C136.217 141.618 138.306 142.896 139.683 143.858Z" fill="#180B02"/>
<path fill-rule="evenodd" clip-rule="evenodd" d="M154.277 147.867C157.683 149.368 160.208 151.105 161.341 152.921C161.679 153.207 161.965 153.414 162.211 153.66C162.459 153.91 162.666 154.198 162.845 154.654C177.887 151.127 178.637 150.794 176.385 149.285C175.394 148.622 174.546 148.046 173.808 147.548C169.82 144.843 169.155 144.392 167.649 144.753C162.355 146.019 157.928 147.033 154.277 147.867Z" fill="#180B02"/>
<path d="M114.581 138.613C113.349 138.684 105.625 133.638 104.605 132.977C102.058 131.331 104.247 131.581 128.187 127.488C130.567 127.082 131.768 127.613 138.77 132.315C140.83 133.706 140.993 134.464 114.581 138.613Z" fill="#180B02"/>
<path d="M147.799 145.084C146.178 145.048 145.15 144.128 138.026 139.026C136.332 137.811 138.007 137.985 162.347 133.055C163.374 132.847 163.041 132.858 171.329 138.051C174.468 140.018 171.456 139.919 147.799 145.084Z" fill="#180B02"/>
<path d="M247.249 126.249C248.157 126.062 247.909 126.126 257.869 129.49C258.466 129.691 259.013 129.9 259.013 130.531C259.013 131.277 258.745 131.246 253.287 132.575C230.016 138.252 231.223 138.326 229.617 137.469C225.341 135.188 219.671 132.564 222.6 131.877C247.211 126.088 246.444 126.253 247.249 126.249Z" fill="#180B02"/>
<path d="M196.674 123.577C193.74 122.371 190.962 120.817 188.398 118.948C186.58 117.451 190.09 117.125 192.366 116.734C192.906 116.642 209.468 113.795 211.095 113.582C212.194 113.438 221.471 116.91 222.487 117.345C222.845 117.498 223.331 117.6 223.254 118.081C223.095 119.068 196.709 123.574 196.674 123.577Z" fill="#180B02"/>
<path d="M238.932 122.9C242.681 124.33 235.677 125.276 230.481 126.516C213.948 130.458 214.559 130.507 213.351 129.813C202.346 123.471 200.118 125.406 223.211 120.964C231.702 119.347 228.366 118.877 238.932 122.9Z" fill="#180B02"/>
<path d="M158.4 123.485C169.678 130.993 166.851 128.864 147.452 132.646C146.8 132.793 146.116 132.691 145.535 132.36C142.742 130.816 140.035 129.12 137.426 127.283C135.361 125.812 138.382 125.821 155.353 122.973C156.398 122.803 157.469 122.984 158.4 123.485Z" fill="#180B02"/>
<path d="M198.086 139.288C196.903 138.535 197.21 137.844 198.361 137.528C198.397 137.528 208.656 135.009 212.712 134.201C218.714 133.002 215.835 133.29 225.086 138.221C227.621 139.572 222.515 140.063 207.455 143.714C204.926 144.328 203.871 142.964 198.086 139.288Z" fill="#180B02"/>
<path d="M171.18 128.234C169.351 128.019 163.777 124.195 162.493 123.241C160.258 121.585 163.638 121.615 181.231 118.57C182.05 118.429 182.524 118.702 187.689 122.305C191.332 124.851 191.853 124.519 184.455 125.871C171.194 128.296 171.94 128.152 171.18 128.234Z" fill="#180B02"/>
<path d="M96.4778 132.898C99.2868 133.437 104.494 136.725 107.167 138.418C107.908 138.889 107.065 140.051 106.079 140.219C94.8174 142.138 95.3795 142.086 94.0193 142.301C93.0026 142.475 92.6799 142.614 82.5891 137.218C81.3746 136.572 81.4596 135.557 82.8823 135.297C83.0333 135.276 95.9157 132.964 96.4778 132.898Z" fill="#180B02"/>
<path d="M208.155 129.893C210.584 131.438 209.296 131.716 194.929 134.594C193.341 134.914 193.418 134.634 185.969 129.419C184.498 128.388 187.382 128.079 189.875 127.569C202.62 124.965 199.62 124.462 208.155 129.893Z" fill="#180B02"/>
<path d="M180.172 129.537C181.411 129.755 180.844 129.48 187.633 134.242C188.801 135.061 189.234 135.927 187.773 136.255C177.631 138.533 177.927 138.528 177.45 138.281C176.487 137.785 168.133 133.307 168.381 132.247C168.562 131.475 180.138 129.54 180.172 129.537Z" fill="#180B02"/>
<path d="M127.4 11.0761C127.409 11.3575 127.36 11.6377 127.257 11.8994C127.153 12.161 126.996 12.3987 126.797 12.5974C126.597 12.796 126.359 12.9515 126.097 13.0543C125.835 13.1571 125.555 13.2048 125.273 13.1947C124.992 13.1847 124.716 13.1168 124.462 12.9954C124.208 12.8741 123.981 12.7018 123.797 12.4893C123.612 12.2767 123.473 12.0286 123.388 11.76C123.304 11.4916 123.275 11.2087 123.304 10.9286C123.295 10.6472 123.344 10.367 123.448 10.1054C123.552 9.84373 123.708 9.60604 123.908 9.40738C124.107 9.20873 124.345 9.05327 124.607 8.95038C124.869 8.84767 125.15 8.79979 125.431 8.81002C125.713 8.82009 125.989 8.88792 126.243 9.00937C126.497 9.13065 126.723 9.30293 126.908 9.51547C127.092 9.72801 127.232 9.97611 127.316 10.2447C127.401 10.5131 127.43 10.7961 127.4 11.0761Z" fill="#180B02"/>
<path fill-rule="evenodd" clip-rule="evenodd" d="M189.096 33.172C191.11 42.2494 193.69 53.8253 196.034 64.3411L196.039 64.3628L196.041 64.369C199.424 79.5435 202.313 92.5031 202.296 92.5486C202.594 93.901 202.842 94.9611 203.036 95.7937C203.723 98.7311 203.748 98.8347 202.917 98.9455C195.56 99.9227 172.773 103.45 147.734 107.325C108.716 113.365 64.2291 120.251 64.133 119.654C62.7039 110.558 61.3329 101.733 60.0356 93.3413L58.0922 93.8823C62.4393 121.922 62.5793 121.922 63.7206 121.922H63.7357C65.9745 121.922 70.7836 121.162 83.1621 119.203C90.132 118.101 99.5013 116.62 112.163 114.68C134.368 111.279 151.334 108.726 164.287 106.776C200.875 101.267 205.441 100.579 205.628 99.2681C205.655 99.081 205.592 98.8813 205.521 98.653C205.49 98.5539 205.457 98.4495 205.429 98.3383C204.862 96.0689 203.349 89.2427 201.393 80.4282L201.392 80.4254C198.182 65.9533 193.784 46.1231 190.435 32.3031C190.033 32.5849 189.583 32.8753 189.096 33.172ZM154.186 14.2787C153.233 14.7961 152.803 15.4058 152.807 16.4053C140.518 16.9276 126.216 17.4874 112.213 18.0355C79.4636 19.3173 48.3537 20.535 48.4798 21.0579C49.149 23.8263 50.4305 31.47 52.1867 42.5861H50.1053C49.7582 40.4281 49.4408 38.4693 49.1528 36.6915C46.4738 20.1521 46.3296 19.2622 48.1415 19.2257L49.1743 19.1751C57.718 18.7552 117.282 15.8279 154.281 14.2305C154.242 14.2494 154.211 14.2654 154.186 14.2787Z" fill="#180B02"/>
<path d="M131.134 9.53022C131.306 9.51373 131.479 9.53299 131.643 9.58712C131.807 9.64126 131.957 9.72887 132.085 9.8446C132.213 9.96015 132.316 10.1012 132.386 10.2586C132.456 10.4161 132.493 10.5865 132.494 10.7589C132.495 10.9314 132.46 11.1021 132.391 11.2604C132.322 11.4184 132.221 11.5605 132.094 11.6773C131.968 11.7942 131.818 11.8834 131.655 11.9391C131.491 11.9948 131.318 12.0158 131.146 12.0009C129.51 12.0199 129.642 9.5441 131.134 9.53022Z" fill="#180B02"/>
<path d="M183.421 149.5C182.418 149.595 176.465 144.999 175.679 144.402C174.893 143.806 174.845 143.039 176.075 142.751C194.247 138.474 192.861 138.377 194.454 139.492C203.973 146.16 202.23 144.973 193.867 147.005C183.445 149.534 184.116 149.377 183.421 149.5Z" fill="#180B02"/>
<path fill-rule="evenodd" clip-rule="evenodd" d="M233.56 112.551C254.54 118.686 287.062 128.199 289.543 133.867C291.405 138.12 285.239 139.673 279.944 141.005H279.94C279.232 141.184 278.54 141.357 277.884 141.534C277.478 141.644 277.09 141.795 276.701 141.947C276.238 142.126 275.776 142.306 275.282 142.418C272.301 143.089 259.613 146.519 259.578 146.529C214.239 159.532 182.7 167.532 164.219 171.954C164.177 170.866 164.137 169.844 164.098 168.887C167.519 167.957 171.334 166.914 175.596 165.746L175.63 165.738L175.639 165.736C188.166 162.308 204.541 157.826 226.042 152.113C239.013 148.667 249.67 145.978 258.23 143.818C278.105 138.804 286.681 136.638 286.682 134.468C286.684 132.818 281.745 131.164 273.054 128.256C271.007 127.571 268.753 126.818 266.305 125.977C257.427 122.928 220.952 110.412 212.745 109.024C212.626 109.003 212.572 109.014 210.401 109.374C204.587 110.344 183.594 113.847 105.522 126.102C91.9046 128.239 82.4249 129.672 75.7595 130.68L75.7498 130.682C60.1745 133.036 59.9752 133.066 58.2402 134.345C57.9216 134.546 57.6597 134.827 57.479 135.157C57.2983 135.488 57.2047 135.859 57.2072 136.237C57.2096 136.614 57.308 136.983 57.4929 137.313C57.6779 137.641 57.9433 137.917 58.2645 138.115C58.9984 138.62 61.2868 139.841 64.5018 141.5C65.0783 141.696 65.7323 141.94 66.4561 142.23C65.9384 142.544 65.492 142.881 65.1248 143.242L64.206 144.146L63.195 143.639L63.183 143.632C62.5827 143.332 62.2383 143.16 62.2012 143.141C61.5561 142.825 60.9478 142.532 60.3735 142.256L60.3701 142.254C56.9688 140.615 54.7629 139.55 53.187 137.889C50.2784 134.823 49.5159 129.721 47.3458 115.204C46.6114 110.292 45.7157 104.3 44.5212 96.9444C45.4078 96.7927 46.4148 96.5816 47.5616 96.3139L47.6851 97.1297C53.1804 133.398 53.5928 136.121 55.249 133.578C57.0361 130.833 58.2983 130.647 78.6155 127.665C94.95 125.267 123.601 121.063 174.744 112.265C186.798 110.192 195.156 109.01 200.93 108.194C212.974 106.493 213.792 106.377 213.497 103.057C213.452 102.575 213.426 102.469 212.738 99.7061L212.737 99.7029C211.67 95.411 209.012 84.7149 202.219 56.2697C200.177 47.7157 198.539 40.5149 197.162 34.4609V34.459C191.03 7.50911 190.071 3.29255 181.644 3.62116C145.945 5.0128 119.136 5.96288 98.9735 6.67736C43.929 8.62819 38.4126 8.82373 36.7479 11.4555C36.5626 11.7486 36.4248 12.072 36.272 12.4313L36.2022 12.5946C34.9492 15.5149 35.2438 17.3395 37.6962 32.5233C38.1638 35.4183 38.71 38.7995 39.3388 42.7662C38.2053 42.8285 37.0881 42.8972 36.0178 42.9689C34.2844 34.1778 33.17 20.0639 32.8741 16.3156C32.8348 15.8172 32.8098 15.5019 32.7999 15.407C31.7781 5.71009 34.876 5.61745 93.8181 3.85746C110.638 3.35536 132.006 2.71722 159.123 1.68143C163.169 1.52684 166.699 1.31916 169.794 1.13733C179.565 0.562696 184.991 0.243629 188.586 2.65389C193.074 5.66203 194.712 12.9216 198.393 29.2419C199.976 36.2518 201.935 44.9334 204.659 55.6677C205.294 58.1704 205.934 60.6886 206.572 63.1941C211.952 84.3236 217.1 104.543 215.936 106.802C215.671 107.318 223.211 109.524 233.56 112.551Z" fill="#180B02"/>
<path d="M256.259 43.7519C254.509 50.9435 257.838 57.4775 256.058 56.0374C255.034 55.2081 254.798 54.7344 253.848 51.1621C251.58 42.6345 258.338 36.7373 259.524 28.4336C260.978 18.2838 255.697 14.0331 253.509 4.31707C253.403 3.84341 253.018 1.4439 253.721 1.42829C254.618 1.4092 253.653 3.52938 256.497 8.14968C268.829 28.1941 258.895 32.9307 256.259 43.7519Z" fill="#180B02"/>
<path d="M249.342 29.9329C249.177 35.7868 246.333 38.5368 244.914 44.3092C243.654 49.5619 244.376 55.0943 246.937 59.8495C248.672 62.7765 251.883 66.512 251.522 66.9179C250.561 68.0041 243.64 62.7349 242.528 54.3565C240.717 40.7125 246.144 39.2985 247.693 31.2602C248.979 24.5839 244.378 22.0925 245.217 21.2198C245.983 20.4182 249.479 24.8078 249.342 29.9329Z" fill="#180B02"/>
<path d="M262.363 45.3219C262.417 39.7057 268.739 36.7805 267.115 38.5936C262.446 43.7986 265.298 47.5826 263.385 54.7169C261.75 60.7998 255.999 61.7489 259.009 68.7704C259.877 70.8142 256.289 68.7253 256.88 63.9627C257.609 58.1123 262.215 60.9126 262.363 45.3219Z" fill="#180B02"/>
<path fill-rule="evenodd" clip-rule="evenodd" d="M265.25 122.272C268.291 122.016 271.237 121.551 273.495 120.72C276.697 119.54 279.302 117.343 279.366 115.515C279.387 114.935 279.435 114.357 279.482 113.78C279.564 112.808 279.643 111.835 279.595 110.858C279.545 109.864 280.584 109.885 281.987 109.914C284.219 109.957 287.373 110.022 288.556 106.064C289.195 103.892 289.455 89.9671 289.247 87.5537C289.073 85.4873 287.236 84.9894 285.138 85.0674C283.414 85.0126 281.686 85.0572 279.966 85.201C279.848 83.7589 279.926 82.6554 279.987 81.7779C280.148 79.5026 280.202 78.7475 276.435 77.548C269.008 75.1814 246.885 74.4961 234.527 78.0685C233.862 78.2125 233.269 78.5841 232.851 79.1194C232.431 79.6544 232.212 80.3194 232.231 80.9989C232.28 84.3214 232.812 98.7288 232.885 99.4766C233.161 102.307 233.289 104.829 233.404 107.067C233.51 109.158 233.604 111 233.794 112.617C234.291 112.763 234.794 112.909 235.304 113.058C234.815 109.602 234.676 104.113 234.448 95.0938C234.358 91.463 234.252 87.26 234.103 82.3869C241.368 85.4266 267.544 85.8846 277.411 82.4146C277.648 82.332 277.818 82.2538 277.935 82.3019C278.391 82.4911 278.039 84.6387 277.943 96.1923H277.95C277.841 109.963 278.625 114.533 276.699 116.896C275.554 118.303 273.451 118.927 269.633 120.244C269.025 120.451 265.927 120.872 261.809 121.133C262.972 121.513 264.12 121.892 265.25 122.272ZM269.343 80.2337C269.721 80.1973 269.823 79.7358 269.424 79.6369H269.417C258.601 76.9754 234.931 78.5907 238.191 80.6848C238.88 81.1288 240.186 81.0176 242.941 80.7832C246.345 80.4935 251.96 80.0158 261.35 80.1643C264.011 80.3255 266.68 80.3486 269.343 80.2337ZM282.621 107.392C286.701 107.222 286.734 107.221 287.12 94.1588H287.113C287.13 93.5748 287.154 93.021 287.177 92.5012C287.307 89.4818 287.389 87.6089 285.759 87.6162C281.287 87.6359 280.221 87.5034 279.968 87.8957C279.888 88.0195 279.888 88.1958 279.888 88.4455C280.01 104.881 279.409 107.258 279.923 107.53C280.013 107.578 280.138 107.56 280.308 107.543C281.196 107.451 281.961 107.419 282.621 107.392Z" fill="#180B02"/>
<path fill-rule="evenodd" clip-rule="evenodd" d="M162.556 194.226C162.807 201.088 162.993 206.174 163.039 206.429C163.462 208.736 162.109 208.545 150.547 206.923C142.367 205.774 129.078 203.909 107.693 201.704C105.784 201.506 100.785 200.873 96.5587 200.337C93.0882 199.896 90.1389 199.523 89.8502 199.511C89.4518 199.496 89.122 199.721 88.7082 200.004C87.92 200.543 86.8274 201.293 84.378 200.977C83.74 200.896 83.5126 200.778 83.2171 200.625C82.558 200.285 81.5598 199.771 74.9101 199.081C74.8068 199.143 70.5167 198.708 64.3696 198.036C66.3449 197.195 68.4711 196.286 70.7161 195.326C74.2633 195.758 77.2069 196.117 79.1317 196.353C80.688 196.543 81.5782 196.652 81.5829 196.652C82.1976 196.726 83.5296 195.248 83.8216 194.926C83.8344 194.91 83.8453 194.898 83.8542 194.889C85.0375 194.176 83.5592 193.083 81.9145 192.517C81.0487 192.219 80.207 191.915 79.3833 191.612C80.0776 191.313 80.7782 191.011 81.4843 190.709C82.7405 191.379 83.9753 192.092 85.1865 192.847C85.9973 191.409 86.9395 189.743 87.9752 187.914C88.754 187.578 89.5368 187.239 90.3224 186.901C88.5732 190 87.4191 192.071 87.1576 192.621C90.6745 191.554 94.3025 190.899 97.97 190.664C117.466 188.78 140.215 192.038 157.609 203.075C157.609 194.582 157.473 192.087 157.097 185.178C156.884 181.269 156.594 175.946 156.209 167.325C155.637 154.502 155.811 152.673 155.015 152.012C154.832 151.859 154.598 151.769 154.292 151.622C136.459 143.014 112.428 147.739 110.261 151.622C105.301 160.503 99.8578 170.091 95.4957 177.773C95.2354 178.233 94.979 178.684 94.7267 179.128C93.9621 179.449 93.1888 179.776 92.407 180.103C98.6674 169.091 106.095 156.103 109.475 150.362C93.6413 141.288 71.2076 143.212 68.5461 145.815C54.7542 159.276 44.2932 169.242 37.0048 176.186C30.3029 182.571 26.2836 186.4 24.8241 188.041C26.1469 187.691 27.5291 187.26 29.0037 186.802C36.4522 184.486 46.2527 181.439 62.5777 184.208C66.7138 184.928 70.7579 186.058 74.6524 187.573C73.7341 187.958 72.8067 188.348 71.8705 188.74C63.4004 185.589 54.8216 183.374 38.2044 186.089C30.2062 187.396 28.5601 188.105 26.1776 189.132C25.669 189.351 25.127 189.585 24.4823 189.842C28.0876 190.177 44.9581 192.2 59.4344 193.954C57.2532 194.867 55.0301 195.797 52.7654 196.742C37.5049 195.007 19.9288 192.904 19.7232 192.661C19.5237 192.425 19.3621 192.235 19.3009 192.016C18.8187 190.3 24.5543 186.837 66.8649 145.226C71.5702 140.599 97.1165 140.391 110.112 149.01C110.205 149.089 110.322 149.134 110.444 149.139C110.566 149.144 110.686 149.109 110.787 149.04C114.042 147.477 117.54 146.479 121.13 146.09C139.06 142.874 156.97 148.995 157.104 152.621C157.648 167.332 158.095 177.491 158.417 184.816C158.88 195.359 159.086 200.032 158.952 203.967C158.924 204.779 161.271 206.089 160.897 204.825C160.861 204.702 160.829 204.598 160.801 204.494C160.449 203.174 160.658 201.704 159.233 162.792C159.003 156.499 158.7 154.528 159.088 154.38C159.325 154.29 159.822 154.887 160.755 155.593C161.154 155.891 162.009 179.278 162.556 194.226ZM91.3476 194.461C105.667 191.199 134.759 196.445 147.838 201.748H147.844C150.117 202.7 152.576 203.125 155.036 202.99C119.937 185.891 86.7933 192.38 86.9876 194.566C86.9944 194.643 86.9999 194.712 87.0221 194.775C87.293 195.533 90.0513 195.401 128.067 200.176C138.6 201.499 139.647 201.739 139.793 201.477C139.809 201.447 139.814 201.411 139.82 201.369C124.183 196.286 107.783 193.947 91.3476 194.461Z" fill="#180B02"/>
<path d="M71.6083 158.086C84.4699 158.144 95.7717 162.118 95.2911 163.6C94.9198 164.745 86.0696 159.294 64.9615 159.752C61.0352 159.839 60.4263 160.409 60.2632 159.813C59.8433 158.294 69.9844 158.079 71.6083 158.086Z" fill="#B2E5CC"/>
<path d="M65.9001 154.743C65.2217 154.726 65.2859 154.222 65.7127 154.002C68.4696 152.536 85.8387 151.271 98.126 156.998C98.4296 157.141 99.6094 157.866 99.3994 158.249C99.1895 158.633 94.2309 157.059 92.2617 156.61C75.8277 152.867 67.6403 154.788 65.9001 154.743Z" fill="#B2E5CC"/>
<path d="M81.1594 147.05C91.9615 146.901 102.637 151.198 101.91 152.307C101.183 153.416 90.7887 146.975 71.3341 149.021C69.0213 149.273 69.4759 147.211 81.1594 147.05Z" fill="#B2E5CC"/>
<path fill-rule="evenodd" clip-rule="evenodd" d="M35.0298 74.3387C35.6348 77.2115 36.5788 81.0981 37.6101 85.3431C38.3252 88.2869 39.0822 91.403 39.7969 94.4729C40.2495 96.4187 42.22 95.898 66.0669 89.596L66.934 89.3668C68.1103 89.0562 68.2769 88.5687 64.6854 73.7309C64.0969 71.2995 63.696 69.457 63.3929 68.0637C62.5653 64.261 62.4669 63.8083 61.2744 63.8744C61.0817 63.8852 60.0212 64.0791 58.4254 64.3885C58.4502 64.9453 58.4726 65.4838 58.4918 65.9989C60.1076 65.6806 60.5459 65.6779 60.717 65.8905C60.7767 65.9647 60.8039 66.065 60.8372 66.1872C61.9861 70.4148 62.7136 73.8987 63.4062 77.2162C64.0648 80.371 64.692 83.3755 65.6206 86.7261C65.9206 87.8063 65.5002 87.9043 55.8628 90.1519C52.513 90.933 48.0499 91.9738 42.1166 93.4059C40.6975 93.7487 38.3667 82.1762 37.0023 75.4023C36.9201 74.9939 36.8413 74.603 36.7665 74.2332C36.1544 74.2771 35.5761 74.3125 35.0298 74.3387Z" fill="#180B02"/>
<path d="M43.9524 85.4245C42.6737 85.4748 42.7067 84.5188 43.6696 84.21C47.2992 83.0232 51.812 82.128 56.6405 81.1009C57.2043 80.9794 57.7509 80.9031 57.907 81.4964C58.1256 82.3206 57.0534 82.4316 55.4433 82.8445C53.3318 83.3737 46.1194 85.1972 43.9524 85.4245Z" fill="#180B02"/>
<path d="M41.407 78.5003C40.3088 78.5003 40.2168 77.5859 41.1207 77.2719C43.312 76.5137 51.0206 74.8776 53.4306 74.338C54.1055 74.1871 54.7075 74.0379 54.8359 74.685C55.0007 75.5248 54.2148 75.5855 51.234 76.283C41.4885 78.5784 42.2467 78.3806 41.407 78.5003Z" fill="#180B02"/>
<path d="M42.5296 82.2356C42.3924 82.2545 42.2529 82.2245 42.1356 82.1509C42.0183 82.0772 41.9305 81.9646 41.888 81.8327C41.8453 81.701 41.8505 81.5584 41.9024 81.43C41.9545 81.3016 42.0499 81.1954 42.1722 81.1304C42.6927 80.7626 42.7552 80.7678 48.6958 79.5845C50.292 79.267 50.0456 80.6081 49.2822 80.8094C47.058 81.3976 44.799 81.8226 42.5296 82.2356Z" fill="#180B02"/>
<path d="M47.0408 44.4145C52.199 44.7355 54.9489 43.5314 55.2422 45.3687C55.7627 48.5872 56.6839 66.2009 56.6857 66.239C56.9407 69.7351 56.7846 70.3198 55.8529 70.4308C50.2644 71.0901 43.8276 71.9385 31.3581 72.4417C29.441 72.5198 28.053 72.485 27.8881 70.639C27.106 62.6254 26.7949 54.5727 26.9565 46.5225C27.0484 45.3219 27.7042 45.6324 33.52 45.1241C37.8627 44.7372 42.2158 44.5134 47.0408 44.4145ZM28.5804 48.4258C28.4234 55.6385 28.8296 62.8527 29.7949 70.0023C29.873 70.5991 30.1194 70.6494 30.6069 70.606C54.1456 68.5466 55.1172 69.2545 54.8847 67.5177C53.9131 60.2203 54.2428 45.9153 52.6397 46.0037C28.4763 47.4438 28.6186 46.67 28.5735 48.4258H28.5804Z" fill="#180B02"/>
<path d="M35.3453 49.9037C36.277 49.8204 36.0393 50.268 36.5598 60.541C36.6327 61.9914 35.1875 61.9394 35.1337 60.6086C34.7381 50.5716 34.549 49.9748 35.3453 49.9037Z" fill="#180B02"/>
<path d="M47.5804 49.4357C48.4358 49.3993 48.2397 49.7498 48.7498 60.1286C48.821 61.5617 47.3375 61.4211 47.3306 60.1823C47.3098 56.3601 46.3052 49.4878 47.5804 49.4357Z" fill="#180B02"/>
<path d="M41.5546 49.8414C42.3701 49.8136 42.1723 49.9542 42.698 60.581C42.7622 61.8615 41.3447 61.8337 41.2857 60.6678C40.7687 50.204 40.7496 49.8674 41.5546 49.8414Z" fill="#180B02"/>
<path d="M42.9567 64.6147C42.9451 64.8575 42.8401 65.0861 42.6638 65.2532C42.4874 65.4205 42.2533 65.5129 42.0104 65.5116C41.7675 65.5102 41.5345 65.4151 41.3601 65.2461C41.1856 65.0771 41.0832 64.847 41.0742 64.6043C40.9892 63.3898 42.7832 63.1036 42.9567 64.6147Z" fill="#180B02"/>
<path d="M47.1295 64.0998C47.1297 63.9733 47.1553 63.8482 47.2051 63.7321C47.2547 63.6159 47.3274 63.5109 47.4189 63.4237C47.5101 63.3362 47.6182 63.2682 47.7366 63.2238C47.8549 63.1792 47.9808 63.1593 48.1071 63.1646C48.2335 63.1702 48.3573 63.2012 48.4713 63.2559C48.5853 63.3104 48.687 63.3876 48.7704 63.4825C48.8537 63.5776 48.917 63.6884 48.9566 63.8085C48.996 63.9286 49.0107 64.0554 48.9998 64.1813C48.9996 64.3076 48.9739 64.4327 48.9242 64.5488C48.8745 64.6651 48.8018 64.77 48.7104 64.8573C48.6191 64.9447 48.5111 65.0127 48.3927 65.0572C48.2744 65.1018 48.1484 65.1217 48.0221 65.1163C47.8958 65.1108 47.7719 65.0797 47.658 65.0252C47.544 64.9706 47.4423 64.8934 47.3588 64.7985C47.2756 64.7034 47.2122 64.5925 47.1727 64.4725C47.1333 64.3524 47.1185 64.2256 47.1295 64.0998Z" fill="#180B02"/>
<path d="M35.5707 63.6973C37.2936 63.5949 37.1062 65.4982 35.9177 65.5589C34.7292 65.6196 34.6911 63.8499 35.5707 63.6973Z" fill="#180B02"/>
<path d="M190.902 29.8023C190.912 31.5737 168.248 40.7727 166.28 41.3036C166.117 41.3772 165.94 41.4169 165.76 41.4207C165.581 41.4244 165.402 41.3921 165.236 41.3256C165.069 41.259 164.917 41.1598 164.79 41.0335C164.662 40.9072 164.561 40.7566 164.493 40.5905C162.267 36.4793 160.306 32.2296 158.622 27.8678C154.444 16.684 154.009 16.3873 155.032 15.8321C156.897 14.8206 180.431 5.44117 181.435 7.30976C182.352 9.0118 188.395 22.9248 190.902 29.8023ZM188.762 28.9348C182.796 15.5042 181.638 11.7722 180.07 8.99445C179.643 8.23799 179.876 8.4271 163.445 14.5829C156.67 17.1212 156.533 17.1281 156.956 18.3999C159.309 25.4612 162.205 32.3292 165.619 38.9423C165.905 39.4975 166.171 39.4055 166.584 39.2251C186.441 30.5848 188.617 29.7919 188.762 28.9417V28.9348Z" fill="#180B02"/>
<path d="M178.481 19.7483C180.084 16.542 176.187 16.2124 175.184 18.2094C175.011 18.5564 174.856 18.9919 174.358 18.8027C173.861 18.6136 173.821 18.1591 173.949 17.6819C174.834 14.3611 181.063 14.8227 180.195 19.0283C179.867 20.5985 178.66 21.3081 179.171 23.4543C179.82 26.1938 176.17 24.3704 178.481 19.7483Z" fill="#180B02"/>
<path d="M169.133 16.9093C171.675 17.5686 164.568 20.1 162.101 21.0005C161.153 21.3475 160.876 20.6535 161.58 20.0861C163.956 18.7183 166.494 17.6512 169.133 16.9093Z" fill="#180B02"/>
<path d="M163.787 25.0569C163.138 25.1141 160.838 24.3195 169.86 21.6476C170.245 21.5331 170.815 21.3336 170.979 21.7066C171.365 22.5793 164.609 24.9025 163.787 25.0569Z" fill="#180B02"/>
<path d="M179.808 27.9195C179.697 27.9143 179.588 27.8867 179.489 27.8385C179.388 27.7902 179.3 27.7224 179.227 27.6388C179.154 27.5553 179.099 27.458 179.064 27.3525C179.029 27.2472 179.015 27.1358 179.024 27.0253C179.034 26.9146 179.066 26.807 179.118 26.709C179.17 26.6108 179.241 26.524 179.326 26.4541C179.413 26.384 179.512 26.332 179.619 26.3012C179.725 26.2704 179.838 26.2615 179.947 26.2747C180.058 26.2801 180.167 26.3077 180.266 26.3559C180.367 26.4041 180.455 26.472 180.528 26.5554C180.601 26.6391 180.657 26.7364 180.691 26.8419C180.726 26.9472 180.74 27.0586 180.731 27.1691C180.721 27.2798 180.69 27.3874 180.638 27.4854C180.586 27.5836 180.514 27.6703 180.429 27.7403C180.343 27.8103 180.244 27.8624 180.136 27.8931C180.03 27.924 179.919 27.9328 179.808 27.9195Z" fill="#180B02"/>
<path d="M48.1044 198.72C66.1866 191.152 160.458 150.463 147.258 160.302C139.742 165.904 144.616 163.48 109.744 178.578C61.535 199.454 52.513 203.366 50.6479 204.083C48.559 204.877 45.8853 199.643 48.1044 198.72ZM50.8804 198.956C51.3865 199.237 51.7972 199.662 52.0593 200.179C52.3215 200.694 52.4233 201.277 52.3517 201.852C52.6484 201.964 141.149 163.345 141.519 163.005C142.395 162.202 142.213 162.059 141.359 161.964C139.733 161.792 50.8717 198.951 50.8717 198.951L50.8804 198.956ZM49.0413 199.796C47.9465 200.193 48.7828 202.19 49.8463 202.73C51.8572 203.751 50.8821 199.121 49.0326 199.79L49.0413 199.796Z" fill="#B2E5CC"/>
</svg>
