<svg width="25" height="24" viewBox="0 0 25 24" fill="none" xmlns="http://www.w3.org/2000/svg">
<path d="M14.2998 18.6C14.2998 18.0399 14.2998 17.7599 14.4088 17.546C14.5047 17.3578 14.6577 17.2049 14.8458 17.109C15.0597 17 15.3398 17 15.8998 17H19.6998C20.2599 17 20.5399 17 20.7538 17.109C20.942 17.2049 21.0949 17.3578 21.1908 17.546C21.2998 17.7599 21.2998 18.0399 21.2998 18.6V19.4C21.2998 19.9601 21.2998 20.2401 21.1908 20.454C21.0949 20.6422 20.942 20.7951 20.7538 20.891C20.5399 21 20.2599 21 19.6998 21H15.8998C15.3398 21 15.0597 21 14.8458 20.891C14.6577 20.7951 14.5047 20.6422 14.4088 20.454C14.2998 20.2401 14.2998 19.9601 14.2998 19.4V18.6Z" fill="#15102B"/>
<path d="M20.2998 10V6.8C20.2998 5.11984 20.2998 4.27976 19.9728 3.63803C19.6852 3.07354 19.2263 2.6146 18.6618 2.32698C18.02 2 17.18 2 15.4998 2H9.0998C7.41965 2 6.57957 2 5.93783 2.32698C5.37335 2.6146 4.91441 3.07354 4.62679 3.63803C4.2998 4.27976 4.2998 5.11984 4.2998 6.8V17.2C4.2998 18.8802 4.2998 19.7202 4.62679 20.362C4.91441 20.9265 5.37335 21.3854 5.93783 21.673C6.57957 22 7.41965 22 9.0998 22H10.7998M13.2998 11H8.2998M11.2998 15H8.2998M16.2998 7H8.2998M19.5498 17V15.25C19.5498 14.2835 18.7663 13.5 17.7998 13.5C16.8333 13.5 16.0498 14.2835 16.0498 15.25V17M15.8998 21H19.6998C20.2599 21 20.5399 21 20.7538 20.891C20.942 20.7951 21.0949 20.6422 21.1908 20.454C21.2998 20.2401 21.2998 19.9601 21.2998 19.4V18.6C21.2998 18.0399 21.2998 17.7599 21.1908 17.546C21.0949 17.3578 20.942 17.2049 20.7538 17.109C20.5399 17 20.2599 17 19.6998 17H15.8998C15.3398 17 15.0597 17 14.8458 17.109C14.6577 17.2049 14.5047 17.3578 14.4088 17.546C14.2998 17.7599 14.2998 18.0399 14.2998 18.6V19.4C14.2998 19.9601 14.2998 20.2401 14.4088 20.454C14.5047 20.6422 14.6577 20.7951 14.8458 20.891C15.0597 21 15.3398 21 15.8998 21Z" stroke="white" stroke-width="1.5" stroke-linecap="round" stroke-linejoin="round"/>
</svg>
