<svg width="25" height="24" viewBox="0 0 25 24" fill="none" xmlns="http://www.w3.org/2000/svg">
<path d="M8.6001 14C5.6001 14 4.6001 15 4.6001 15V3C4.6001 3 5.6001 2 8.6001 2C11.6001 2 13.6001 4 16.6001 4C19.6001 4 20.6001 3 20.6001 3V15C20.6001 15 19.6001 16 16.6001 16C13.6001 16 11.6001 14 8.6001 14Z" fill="#15102B"/>
<path d="M4.6001 15C4.6001 15 5.6001 14 8.6001 14C11.6001 14 13.6001 16 16.6001 16C19.6001 16 20.6001 15 20.6001 15V3C20.6001 3 19.6001 4 16.6001 4C13.6001 4 11.6001 2 8.6001 2C5.6001 2 4.6001 3 4.6001 3L4.6001 22" stroke="white" stroke-width="1.5" stroke-linecap="round" stroke-linejoin="round"/>
</svg>
