<svg width="300" height="300" viewBox="0 0 300 300" fill="none" xmlns="http://www.w3.org/2000/svg">
<path d="M181.8 132.129C183.09 132.405 184.95 132.795 184.8 133.606C184.723 134.395 183.655 134.233 182.163 134.146C181.251 134.089 180.856 134.008 180.393 133.95C180.247 133.933 180.107 133.885 179.982 133.809C179.857 133.733 179.75 133.631 179.667 133.51C179.585 133.389 179.53 133.251 179.506 133.107C179.481 132.963 179.488 132.815 179.526 132.673C180.247 129.556 181.238 126.508 182.488 123.562C182.638 123.28 183.886 120.862 184.728 121.293C185.749 121.873 183.781 124.488 181.8 132.129Z" fill="#180B02"/>
<path d="M190.832 121.733C193.289 120.809 194.954 123.555 195.815 122.886C196.55 122.382 195.564 119.79 192.348 119.465C189.227 119.15 187.749 121.892 188.598 122.487C189.048 122.81 189.056 122.558 190.832 121.733Z" fill="#180B02"/>
<path d="M181.08 139.071C181.216 140.324 181.558 141.547 182.091 142.689C182.428 143.332 182.912 143.886 183.504 144.307C184.095 144.727 184.778 145.002 185.495 145.11C186.213 145.217 186.946 145.154 187.635 144.925C188.324 144.696 188.949 144.307 189.459 143.792C190.27 142.856 190.862 141.751 191.19 140.557C191.519 139.363 191.577 138.111 191.36 136.892C187.872 137.4 184.5 138.279 181.08 139.071Z" fill="#F07D29"/>
<path d="M190.65 136.272C190.678 136.131 190.754 136.004 190.865 135.912C190.976 135.821 191.115 135.77 191.258 135.768C191.402 135.767 191.542 135.815 191.655 135.905C191.767 135.994 191.846 136.12 191.877 136.26C193.428 141.27 190.5 146.838 185.34 146.145C182.568 145.775 181.131 143.847 180.427 141.195C180.238 140.542 180.105 139.873 180.031 139.197C180.004 138.943 180.07 138.688 180.215 138.479C180.361 138.27 180.578 138.12 180.825 138.057C184.042 137.179 187.329 136.581 190.65 136.272ZM190.722 137.73C188.352 138.302 188.682 138.33 182.269 139.857C182.312 140.124 182.373 140.387 182.451 140.646C182.913 142.418 183.688 143.807 185.629 144.072C188.928 144.53 190.57 141.015 190.722 137.73Z" fill="#180B02"/>
<path d="M117.085 222.065C112.239 220.593 106.539 222.882 106.539 227.915C106.436 227.978 106.353 228.069 106.298 228.176C106.243 228.283 106.218 228.403 106.225 228.523C106.232 228.644 106.272 228.76 106.34 228.859C106.408 228.959 106.501 229.038 106.611 229.089C107.953 229.954 109.563 230.303 111.144 230.073C112.724 229.843 114.167 229.048 115.207 227.837C116.277 226.536 117.131 225.072 117.735 223.5C117.794 223.364 117.825 223.217 117.824 223.068C117.823 222.92 117.791 222.773 117.729 222.638C117.668 222.502 117.579 222.381 117.468 222.283C117.357 222.184 117.227 222.11 117.085 222.065Z" fill="#F07D29"/>
<path d="M110.052 234.489C109.979 234.388 109.88 234.309 109.766 234.258C109.652 234.208 109.527 234.188 109.403 234.201C109.319 234.165 109.228 234.147 109.136 234.149C109.044 234.151 108.954 234.173 108.872 234.213C108.79 234.254 108.717 234.311 108.659 234.382C108.601 234.453 108.559 234.535 108.536 234.624C108.261 235.405 107.691 236.047 106.947 236.411C106.392 236.74 105.735 236.853 105.102 236.728C104.469 236.603 103.904 236.25 103.516 235.735C103.127 235.22 102.941 234.58 102.995 233.937C103.048 233.294 103.336 232.693 103.805 232.25C103.994 232.096 104.2 231.963 104.418 231.854C104.611 231.753 104.767 231.595 104.864 231.401C104.961 231.207 104.995 230.988 104.96 230.774C104.738 229.434 102.657 229.901 101.421 230.139C95.8096 231.303 92.4496 238.965 96.2551 243.939C97.0472 244.911 98.0468 245.694 99.1807 246.229C100.315 246.765 101.554 247.039 102.808 247.033C104.062 247.027 105.299 246.741 106.427 246.194C107.556 245.648 108.548 244.856 109.331 243.876C110.486 242.619 111.186 241.01 111.317 239.307C111.448 237.605 111.002 235.908 110.052 234.489Z" fill="#F07D29"/>
<path d="M134.571 93.768C134.122 93.5509 133.737 93.2218 133.452 92.8125C133.245 92.5108 133.128 92.1563 133.114 91.7905C133.101 91.4247 133.193 91.0627 133.378 90.747C133.595 90.3794 133.887 90.0622 134.236 89.8164C134.584 89.5707 134.981 89.4022 135.4 89.322C135.438 89.322 135.438 89.313 135.438 89.313V89.37C138.033 88.6454 140.751 88.4666 143.419 88.845C143.809 88.9207 144.172 89.0953 144.474 89.3519C144.776 89.6086 145.008 89.9387 145.145 90.3105C145.283 90.6823 145.323 91.0834 145.261 91.475C145.199 91.8667 145.038 92.2359 144.792 92.547C145.187 93.0362 145.392 93.6514 145.369 94.2795C145.12 97.6245 139.957 98.01 136.81 97.0905C136.445 97.0199 136.097 96.8779 135.786 96.6726C135.476 96.4673 135.209 96.2027 135.001 95.8941C134.793 95.5854 134.648 95.2388 134.574 94.8739C134.5 94.5091 134.499 94.1333 134.571 93.768ZM135.69 90.603C135.69 90.801 135.703 90.4365 135.004 91.1415C134.425 91.866 135.484 92.172 136.413 92.1795C136.631 92.1902 136.839 92.2708 137.008 92.4093C137.176 92.5478 137.296 92.7369 137.349 92.9486C137.401 93.1603 137.384 93.3834 137.3 93.5847C137.216 93.786 137.07 93.955 136.882 94.0665C136.629 94.2075 136.449 94.3155 136.521 94.479C136.992 95.763 143.082 95.817 143.271 94.179C143.271 93.9165 143.053 93.699 142.728 93.561C142.537 93.481 142.374 93.3464 142.26 93.1742C142.145 93.0019 142.084 92.7997 142.084 92.5928C142.084 92.3859 142.145 92.1837 142.26 92.0114C142.374 91.8392 142.537 91.7046 142.728 91.6245C142.981 91.518 143.199 91.3245 143.199 91.1085C143.203 90.3585 136.629 90.5775 135.69 90.6V90.603Z" fill="#180B02"/>
<path d="M137.27 100.058C137.405 100.251 137.563 100.427 137.741 100.583C138.981 101.095 140.363 101.152 141.641 100.743C141.941 100.611 142.221 100.436 142.472 100.224C142.562 100.206 142.647 100.169 142.722 100.117C142.797 100.065 142.861 99.998 142.91 99.9205C142.959 99.8431 142.992 99.7565 143.007 99.666C143.021 99.5756 143.018 99.4831 142.996 99.3942C142.974 99.3052 142.934 99.2215 142.879 99.1483C142.824 99.075 142.755 99.0135 142.676 98.9676C142.596 98.9217 142.508 98.8923 142.418 98.8811C142.327 98.8699 142.234 98.8772 142.146 98.9025C141.831 98.8035 141.501 98.7603 141.171 98.775C140.395 98.8975 139.607 98.9267 138.824 98.862C138.252 98.772 138.119 98.9535 137.849 98.9535C137.698 98.8765 137.524 98.8608 137.362 98.9098C137.201 98.9588 137.064 99.0685 136.982 99.216C136.909 99.3658 136.898 99.5385 136.952 99.6963C137.006 99.854 137.12 99.9839 137.27 100.058Z" fill="#180B02"/>
<path d="M132.684 88.5286C131.028 87.1842 129.799 85.388 129.144 83.358C128.539 81.6923 128.317 79.9119 128.493 78.1486C128.644 76.7117 129.092 75.322 129.81 74.0681C130.528 72.8143 131.499 71.7238 132.661 70.8664C133.824 70.0089 135.153 69.4033 136.563 69.0881C137.973 68.773 139.433 68.7553 140.85 69.036C143.169 69.5924 145.234 70.9116 146.713 72.7819C148.193 74.6522 149.001 76.9653 149.009 79.3501C148.911 81.3063 148.218 83.1858 147.021 84.7366C146.357 85.6875 145.581 86.5552 144.71 87.3211C144.58 87.4386 144.501 87.6015 144.489 87.7759C144.477 87.9502 144.533 88.1226 144.644 88.2569C144.756 88.3912 144.916 88.4771 145.089 88.4967C145.263 88.5163 145.438 88.4681 145.577 88.3621C148.494 86.0536 150.785 83.1376 151.031 79.4536C151.075 76.5738 150.132 73.7656 148.358 71.4967C146.584 69.2278 144.086 67.6352 141.281 66.984C138.448 66.4094 135.504 66.8397 132.954 68.201C130.404 69.5622 128.408 71.7694 127.31 74.4428C126.211 77.1163 126.079 80.089 126.935 82.8497C127.791 85.6104 129.582 87.9866 132 89.5696C132.138 89.6484 132.301 89.6717 132.455 89.6347C132.61 89.5977 132.744 89.5032 132.831 89.3705C132.919 89.2378 132.952 89.0768 132.925 88.9204C132.897 88.7639 132.811 88.6238 132.684 88.5286Z" fill="#180B02"/>
<path d="M138.534 78.3826L143.157 74.9011C143.326 74.776 143.527 74.7041 143.737 74.6947C143.946 74.6852 144.153 74.7386 144.332 74.848C144.511 74.9574 144.653 75.1177 144.74 75.3084C144.826 75.4991 144.854 75.7114 144.819 75.9181C143.663 82.2406 144.698 77.3116 142.833 85.9366C142.822 86.0246 142.794 86.1095 142.75 86.1864C142.705 86.2632 142.646 86.3304 142.575 86.3839C142.504 86.4375 142.424 86.4763 142.338 86.4981C142.252 86.52 142.162 86.5244 142.074 86.5111C141.984 86.5024 141.897 86.475 141.817 86.4307C141.738 86.3863 141.669 86.3259 141.615 86.2533C141.56 86.1808 141.522 86.0977 141.501 86.0093C141.48 85.9209 141.479 85.8292 141.495 85.7401C141.635 83.1959 141.913 80.6612 142.326 78.1471L139.257 80.4556C139.096 80.5842 138.899 80.6617 138.693 80.678C138.487 80.6943 138.281 80.6487 138.101 80.5471C137.226 80.0776 136.367 79.5976 135.501 79.1176C136.322 83.8906 135.854 80.4436 136.764 86.6611C136.8 86.8224 136.771 86.9914 136.684 87.1316C136.596 87.2718 136.457 87.3722 136.296 87.4111C136.133 87.4464 135.963 87.4168 135.821 87.3286C135.679 87.2404 135.578 87.1005 135.537 86.9386C134.356 83.8226 133.543 80.579 133.116 77.2741C133.092 77.0821 133.123 76.8872 133.204 76.7117C133.285 76.5361 133.414 76.387 133.576 76.2813C133.738 76.1755 133.927 76.1175 134.12 76.1137C134.314 76.11 134.504 76.1607 134.67 76.2601C135.776 76.9126 136.784 77.4526 138.534 78.3826Z" fill="#F07D29"/>
<path d="M117.009 85.6933C118.274 85.5508 119.537 85.4233 120.801 85.2163C121.562 85.0873 123.078 84.7243 123.005 83.9518C122.753 82.6468 118.836 83.3413 117.515 83.5243C116.622 83.6428 113.706 84.0298 113.939 85.1188C114.027 85.9498 116.183 85.7848 117.009 85.6933Z" fill="#F07D29"/>
<path d="M123.4 71.136C123.631 71.274 124.78 71.571 125.134 71.0595C125.601 70.2555 124.413 69.3285 123.618 68.8395C120.837 67.137 119.371 69.2145 123.4 71.136Z" fill="#F07D29"/>
<path d="M136.296 59.8709C136.446 60.9209 136.671 65.2409 137.956 65.0819C139.242 64.9229 138.478 60.2354 138.282 58.6934C138.172 57.8354 137.817 54.3059 136.656 54.4814C135.495 54.6569 136.129 58.6679 136.296 59.8709Z" fill="#F07D29"/>
<path d="M154.607 66.7831C155.357 66.1831 157.607 64.5061 156.845 63.6406C156.387 63.0286 155.129 63.8251 154.461 64.2721C153.222 65.1421 148.98 68.0701 149.948 69.2221C150.683 70.0921 153.585 67.5901 154.607 66.7831Z" fill="#F07D29"/>
<path d="M161.287 79.9501C162.3 79.8391 164.887 79.5766 164.791 78.5536C164.662 77.2291 159.775 77.9821 158.182 78.1891C157.392 78.2608 156.608 78.3871 155.835 78.5671C155.404 78.6886 153.697 79.2361 153.847 79.9336C154.08 81.0241 157.29 80.4151 161.287 79.9501Z" fill="#F07D29"/>
<path d="M175.264 236.39C175.52 235.593 175.821 234.811 176.164 234.048C176.754 232.281 177.862 230.731 179.343 229.601C180.053 229.176 180.847 228.91 181.67 228.82C182.492 228.73 183.325 228.819 184.11 229.08C184.275 229.163 184.466 229.178 184.641 229.122C184.817 229.066 184.964 228.943 185.05 228.78C185.127 228.615 185.136 228.427 185.075 228.256C185.014 228.085 184.889 227.944 184.725 227.865C179.7 224.198 173.409 230.553 174.034 236.286C174.021 236.449 174.072 236.611 174.178 236.736C174.284 236.861 174.435 236.939 174.598 236.953C174.761 236.967 174.923 236.915 175.048 236.809C175.173 236.704 175.251 236.553 175.264 236.39Z" fill="#180B02"/>
<path d="M181.839 239.949C182.047 239.31 182.746 237.682 182.812 237.532C183.237 236.075 183.96 234.722 184.937 233.56C185.913 232.398 187.121 231.452 188.484 230.782C189.138 230.484 189.831 230.277 190.542 230.166C190.722 230.171 190.897 230.104 191.028 229.98C191.158 229.855 191.234 229.685 191.239 229.504C191.244 229.324 191.177 229.149 191.053 229.019C190.929 228.888 190.758 228.812 190.578 228.807C189.443 228.619 188.278 228.726 187.197 229.118C186.115 229.511 185.153 230.175 184.402 231.046C183.199 232.158 182.241 233.509 181.588 235.012C180.935 236.514 180.602 238.136 180.61 239.775C180.595 239.857 180.596 239.942 180.614 240.024C180.633 240.106 180.667 240.183 180.716 240.251C180.765 240.319 180.827 240.377 180.899 240.42C180.971 240.464 181.05 240.492 181.134 240.504C181.217 240.516 181.301 240.511 181.382 240.489C181.463 240.467 181.539 240.429 181.605 240.377C181.671 240.325 181.725 240.261 181.766 240.187C181.806 240.113 181.831 240.032 181.839 239.949Z" fill="#180B02"/>
<path d="M188.772 240.837C188.914 240.558 189.553 239.557 189.672 239.377C190.668 237.544 191.976 235.899 193.537 234.514C194.872 233.521 196.464 232.933 198.124 232.821C198.303 232.847 198.486 232.804 198.634 232.699C198.781 232.595 198.883 232.438 198.918 232.26C198.937 232.081 198.888 231.901 198.781 231.757C198.674 231.612 198.517 231.513 198.34 231.478C197.758 231.291 197.152 231.19 196.54 231.178C193.338 231.096 188.193 235.306 187.584 240.451C187.558 240.529 187.548 240.611 187.555 240.692C187.561 240.774 187.583 240.853 187.62 240.926C187.657 240.999 187.708 241.064 187.77 241.117C187.832 241.17 187.904 241.211 187.981 241.236C188.139 241.285 188.31 241.271 188.457 241.197C188.605 241.122 188.718 240.993 188.772 240.837Z" fill="#180B02"/>
<path d="M196.25 244.424C197.327 242.724 198.559 241.128 199.932 239.657C200.71 238.788 201.68 238.112 202.765 237.685C203.85 237.257 205.02 237.089 206.181 237.194C209.313 237.233 215.592 238.865 222.036 236.594C224.373 235.811 226.423 234.348 227.924 232.394C228.03 232.25 228.078 232.071 228.058 231.893C228.038 231.715 227.95 231.551 227.814 231.435C227.747 231.378 227.669 231.335 227.585 231.309C227.501 231.283 227.412 231.274 227.325 231.283C227.237 231.292 227.152 231.318 227.075 231.36C226.997 231.403 226.93 231.46 226.875 231.53C224.91 233.358 222.469 234.595 219.833 235.101C208.313 237.732 201.419 229.641 195.165 243.833C195.126 243.904 195.102 243.982 195.093 244.063C195.085 244.143 195.092 244.225 195.115 244.303C195.138 244.38 195.176 244.453 195.227 244.516C195.278 244.579 195.341 244.632 195.412 244.67C195.483 244.709 195.561 244.734 195.642 244.742C195.723 244.751 195.804 244.743 195.882 244.72C195.96 244.698 196.032 244.66 196.095 244.609C196.158 244.558 196.211 244.495 196.25 244.424Z" fill="#180B02"/>
<path d="M195.309 214.336C196.584 214.993 197.783 215.788 198.885 216.705C199.613 217.155 200.535 217.933 201.125 217.381C201.608 216.865 200.6 215.598 200.475 215.443C199.428 214.352 198.192 213.459 196.827 212.808C195.95 212.419 194.318 212.098 194.082 212.808C193.95 213.22 194.081 213.481 195.309 214.336Z" fill="#180B02"/>
<path d="M201.666 210.75C204.043 213.501 204.933 216.362 206.001 215.864C207.534 215.22 204.651 210.894 203.328 209.531C202.597 208.781 201.114 207.803 200.619 208.401C200.212 208.898 201.213 210.3 201.666 210.75Z" fill="#180B02"/>
<path d="M193.613 195.369C196.463 195.819 196.392 195.613 202.064 195.202C204.317 195.257 206.57 195.063 208.781 194.623C208.949 194.596 209.101 194.506 209.206 194.372C209.311 194.237 209.362 194.069 209.348 193.899C209.334 193.729 209.257 193.57 209.132 193.454C209.007 193.339 208.843 193.274 208.673 193.273C206.433 193.011 204.173 192.958 201.923 193.114C199.114 193.152 196.316 193.492 193.58 194.128C193.416 194.136 193.261 194.205 193.146 194.323C193.032 194.441 192.967 194.599 192.965 194.763C192.967 194.845 192.985 194.927 193.019 195.002C193.053 195.078 193.101 195.146 193.161 195.202C193.222 195.258 193.293 195.302 193.37 195.331C193.448 195.36 193.53 195.373 193.613 195.369Z" fill="#180B02"/>
<path d="M168.801 250.603C168.798 253.295 169.028 255.981 169.486 258.633C169.924 260.059 169.911 260.679 170.641 260.622C170.82 260.605 170.985 260.519 171.1 260.381C171.215 260.243 171.271 260.066 171.256 259.887C171.418 257.778 171.556 259.648 171.039 254.056C170.799 251.469 170.814 248.194 169.774 248.164C169.05 248.143 168.801 250.189 168.801 250.603Z" fill="#180B02"/>
<path d="M191.331 129.27C191.557 129.284 191.786 129.237 192.002 129.13C192.219 129.023 192.421 128.859 192.595 128.647C192.769 128.436 192.913 128.18 193.018 127.896C193.123 127.612 193.187 127.304 193.207 126.99C193.227 126.676 193.202 126.363 193.134 126.067C193.066 125.772 192.955 125.5 192.809 125.268C192.663 125.036 192.484 124.848 192.282 124.715C192.081 124.581 191.86 124.505 191.634 124.491C191.405 124.47 191.174 124.513 190.953 124.617C190.733 124.72 190.527 124.883 190.35 125.095C190.172 125.307 190.025 125.564 189.918 125.852C189.81 126.139 189.745 126.45 189.724 126.768C189.704 127.086 189.73 127.403 189.8 127.702C189.87 128 189.984 128.274 190.133 128.507C190.283 128.739 190.466 128.927 190.671 129.058C190.877 129.188 191.101 129.262 191.331 129.27Z" fill="#180B02"/>
<path d="M177.42 192.432C177.42 192.716 177.469 192.997 177.564 193.26C177.659 193.522 177.798 193.761 177.973 193.962C178.149 194.162 178.357 194.322 178.587 194.43C178.816 194.539 179.062 194.595 179.31 194.595C179.558 194.595 179.804 194.539 180.033 194.43C180.262 194.322 180.471 194.162 180.646 193.962C180.822 193.761 180.961 193.522 181.056 193.26C181.151 192.997 181.2 192.716 181.2 192.432C181.2 192.148 181.151 191.867 181.056 191.604C180.961 191.342 180.822 191.103 180.646 190.903C180.471 190.702 180.262 190.542 180.033 190.434C179.804 190.325 179.558 190.269 179.31 190.269C179.062 190.269 178.816 190.325 178.587 190.434C178.357 190.542 178.149 190.702 177.973 190.903C177.798 191.103 177.659 191.342 177.564 191.604C177.469 191.867 177.42 192.148 177.42 192.432Z" fill="#180B02"/>
<path d="M175.722 210.618C175.722 211.192 175.921 211.742 176.275 212.148C176.63 212.553 177.11 212.781 177.612 212.781C178.113 212.781 178.594 212.553 178.948 212.148C179.303 211.742 179.502 211.192 179.502 210.618C179.502 210.044 179.303 209.494 178.948 209.089C178.594 208.683 178.113 208.455 177.612 208.455C177.11 208.455 176.63 208.683 176.275 209.089C175.921 209.494 175.722 210.044 175.722 210.618Z" fill="#180B02"/>
<path d="M132.466 202.35C127.942 194.58 125.016 182.832 114.805 180.411C113.486 180.108 112.116 180.099 110.793 180.386C108.736 180.185 108.582 180.086 96.3134 180.824C93.8264 180.986 91.6904 181.124 91.6904 181.919C91.6904 182.745 93.4394 182.793 95.2304 182.858C97.3694 182.928 104.014 182.51 106.123 182.373C100.315 186.024 97.1234 192.455 90.1019 183.194C88.8441 181.43 87.6983 179.589 86.6714 177.681C86.5763 177.509 86.4337 177.367 86.2606 177.274C86.0875 177.18 85.8912 177.138 85.6949 177.153C70.8059 178.343 61.8839 180.303 44.5214 180.377C26.0054 180.45 25.8719 179.742 25.3079 180.791C25.2162 180.954 25.171 181.14 25.1773 181.328C25.1837 181.516 25.2413 181.698 25.3439 181.856C29.4779 188.324 32.8544 192.105 42.0314 193.506C46.9574 194.256 52.8404 194.091 65.5094 193.536C66.883 194.497 68.1003 195.665 69.1184 196.997C70.0892 198.498 70.8431 200.128 71.3579 201.84C71.7959 203.222 71.9084 203.15 72.2234 204.071C72.2586 204.246 72.362 204.401 72.511 204.501C72.66 204.601 72.8424 204.637 73.0184 204.603C73.1953 204.566 73.3508 204.462 73.452 204.313C73.5531 204.163 73.5918 203.98 73.5599 203.802C73.5417 202.955 73.4453 202.111 73.2719 201.282C72.6017 198.202 70.934 195.43 68.5274 193.395C69.5924 193.343 85.6589 192.345 92.6294 191.888C92.7212 191.886 92.8117 191.867 92.8956 191.83C92.9795 191.793 93.0551 191.739 93.1178 191.672C93.1805 191.605 93.229 191.526 93.2605 191.44C93.2919 191.354 93.3056 191.262 93.3007 191.171C93.2959 191.079 93.2726 190.989 93.2322 190.907C93.1919 190.825 93.1353 190.751 93.0658 190.691C92.9964 190.631 92.9156 190.586 92.8282 190.558C92.7409 190.53 92.6488 190.52 92.5574 190.529C85.5869 190.829 62.3639 191.729 57.7049 191.807C49.5689 191.987 39.7589 192.81 33.1454 187.998C31.1748 186.408 29.4897 184.493 28.1624 182.337C36.2369 182.385 44.3294 182.637 52.3964 182.327C63.4394 181.899 74.1914 180.207 85.1894 179.288C87.7934 184.013 92.1239 190.571 97.4699 189.995C99.9975 189.72 102.309 187.863 104.766 185.877C107.5 183.6 110.935 181.547 114.408 182.309C123.58 184.308 126.786 195.56 131.419 202.991C131.458 203.061 131.511 203.123 131.574 203.172C131.638 203.221 131.711 203.257 131.789 203.277C131.866 203.297 131.948 203.301 132.027 203.289C132.106 203.276 132.182 203.248 132.25 203.205C132.392 203.12 132.494 202.982 132.534 202.822C132.575 202.662 132.55 202.492 132.466 202.35Z" fill="#180B02"/>
<path d="M257.286 241.779C257.936 238.57 259.056 235.353 259.526 232.116C261.148 221.345 260.371 210.348 257.25 199.912C252.204 183.412 241.457 170.962 224.384 165.4C216.62 162.862 208.242 161.887 200.426 160.642C200.534 159.547 195.993 155.674 194.48 155.047C194.319 154.975 194.144 154.94 193.969 154.947C193.793 154.954 193.621 155.001 193.467 155.086C182.667 160.936 180.005 162.39 178.529 163.372C178.238 161.136 178.217 159.541 178.01 157.297C178.011 157.207 177.993 157.118 177.956 157.036C177.918 156.954 177.863 156.881 177.794 156.823C177.729 156.676 177.611 156.56 177.462 156.499C177.314 156.437 177.148 156.436 176.999 156.495C174.575 157.309 170.126 157.545 168.929 160.918C163.909 161.181 158.935 162.01 154.101 163.39C143.739 166.257 131.12 172.824 127.374 182.844C127.316 182.991 127.317 183.154 127.376 183.301C127.435 183.447 127.548 183.565 127.692 183.63C127.836 183.695 127.999 183.702 128.148 183.651C128.297 183.599 128.421 183.491 128.493 183.351C129.855 180.881 131.612 178.652 133.695 176.751C142.805 167.728 155.913 164.541 168.513 162.454C167.656 166.323 167.016 170.236 166.596 174.175C166.574 174.382 166.612 174.59 166.706 174.775C166.801 174.96 166.946 175.114 167.126 175.218C167.306 175.321 167.512 175.37 167.72 175.359C167.927 175.348 168.127 175.276 168.294 175.153C171.267 172.749 174.11 170.188 176.813 167.482C172.29 183.762 170.052 203.674 169.125 220.411C168.771 227.554 169.211 229.206 169.089 234.811C169.083 234.992 169.149 235.167 169.272 235.3C169.395 235.432 169.564 235.511 169.745 235.519C169.925 235.527 170.102 235.464 170.236 235.343C170.37 235.222 170.451 235.053 170.462 234.873C171.375 222.685 170.406 207.307 178.239 167.323C180.452 170.254 183.519 173.799 185.775 176.497C185.869 176.61 185.986 176.702 186.118 176.766C186.251 176.83 186.395 176.865 186.542 176.869C186.689 176.873 186.835 176.845 186.971 176.788C187.106 176.731 187.228 176.646 187.328 176.538C188.865 174.921 192.56 170.529 193.577 169.288C197.871 163.839 199.046 162.556 199.637 161.788C208.223 163.473 216.21 164.659 223.77 167.263C240.368 172.972 250.365 184.615 255.27 200.538C258.295 210.677 259.048 221.358 257.474 231.82C256.847 236.085 254.571 242.338 254.801 245.278C254.894 247.333 255.818 250.123 254.691 252.063C254.169 252.937 253.569 252.963 253.103 252.577C252.516 252.024 252.212 250.716 250.935 247.318C250.069 245.178 249.018 243.117 247.794 241.159C243.315 233.737 236.904 225.093 228.761 228.154C228.674 228.181 228.593 228.224 228.524 228.282C228.454 228.341 228.397 228.412 228.356 228.493C228.314 228.573 228.29 228.661 228.283 228.752C228.276 228.842 228.288 228.933 228.317 229.018C228.346 229.104 228.392 229.183 228.452 229.251C228.512 229.319 228.585 229.374 228.667 229.413C228.749 229.451 228.838 229.474 228.928 229.477C229.019 229.481 229.109 229.467 229.194 229.435C236.426 226.797 242.303 235.585 246.132 242.152C248.489 246.21 248.532 246.79 250.791 252.744C252.453 256.266 256.941 255.411 257.292 250.167C257.474 247.261 256.233 246.333 257.286 241.779ZM170.1 170.916C169.739 171.231 169.379 171.541 169.05 171.847C169.397 168.372 169.999 164.926 170.85 161.538C171.375 159.772 174.374 158.92 176.628 157.996C176.473 160.261 176.497 162.535 176.7 164.796C174.507 166.786 172.34 168.924 170.1 170.916ZM192.204 167.782C190.962 169.242 187.254 173.539 186.606 174.243C184.437 171.663 181.377 168.048 179.382 165.336C181.743 163.674 186.464 161.382 191.843 158.251C194.393 156.816 193.953 156.859 194.19 156.96C195.916 157.887 197.497 159.061 198.885 160.444C196.725 163.003 196.626 162.585 192.204 167.782Z" fill="#180B02"/>
<path d="M224.637 222.104C225.179 217.499 224.493 212.833 222.65 208.578C222.597 208.505 222.56 208.423 222.541 208.335C222.521 208.247 222.52 208.157 222.537 208.069C222.554 207.98 222.589 207.897 222.639 207.823C222.69 207.749 222.755 207.686 222.831 207.638C222.906 207.589 222.99 207.555 223.078 207.539C223.166 207.522 223.256 207.524 223.343 207.543C223.431 207.562 223.514 207.598 223.587 207.649C223.66 207.701 223.722 207.766 223.77 207.842C226.911 211.892 227.34 217.826 226.62 222.926C226.595 223.08 226.537 223.227 226.45 223.356C226.363 223.486 226.248 223.595 226.115 223.676C223.217 225.213 222.572 228.165 223.044 231.443C223.067 231.521 223.075 231.604 223.065 231.685C223.056 231.766 223.03 231.845 222.99 231.916C222.949 231.987 222.895 232.049 222.83 232.099C222.765 232.149 222.69 232.185 222.611 232.205C222.532 232.226 222.45 232.232 222.368 232.222C222.287 232.211 222.209 232.184 222.139 232.143C222.068 232.102 222.006 232.048 221.957 231.982C221.908 231.917 221.872 231.843 221.852 231.764C220.389 228.044 221.031 224.381 224.637 222.104Z" fill="#180B02"/>
<path d="M233.052 222.45C234.452 222.418 235.85 222.58 237.205 222.932C240.756 223.91 242.847 226.358 243.598 225.545C244.198 224.898 242.82 223.605 242.152 223.047C239.513 221.073 236.228 220.164 232.95 220.5C232.389 220.586 230.37 221.027 230.457 221.85C230.571 222.41 230.964 222.39 233.052 222.45Z" fill="#180B02"/>
<path d="M82.6978 198.792C83.6983 198.72 86.1988 198.623 87.2848 198.551C103.507 197.478 103.201 198.363 111.447 197.163C111.626 197.144 111.792 197.059 111.912 196.925C112.032 196.79 112.098 196.616 112.096 196.436C112.078 196.252 111.988 196.083 111.846 195.965C111.704 195.847 111.521 195.79 111.337 195.806C109.023 195.806 109.099 195.696 105.307 195.759C92.0203 195.981 88.1068 196.077 82.4818 197.559C82.3183 197.588 82.1728 197.68 82.0775 197.816C81.9821 197.952 81.9446 198.12 81.9733 198.284C82.0019 198.447 82.0943 198.592 82.2302 198.688C82.3661 198.783 82.5343 198.821 82.6978 198.792Z" fill="#F07D29"/>
<path d="M88.2603 204.431C90.9886 204.44 93.7149 204.28 96.4233 203.95C98.9379 203.905 101.447 203.694 103.934 203.319C104.026 203.323 104.118 203.309 104.204 203.277C104.29 203.244 104.369 203.195 104.436 203.131C104.502 203.068 104.556 202.991 104.592 202.907C104.628 202.822 104.647 202.731 104.647 202.639C104.647 202.547 104.628 202.455 104.592 202.371C104.556 202.286 104.502 202.21 104.436 202.146C104.369 202.082 104.29 202.033 104.204 202.001C104.118 201.969 104.026 201.954 103.934 201.959C101.291 201.546 98.6028 201.518 95.9523 201.876C94.4838 201.975 91.5918 202.248 90.3903 202.503C89.6061 202.685 88.8345 202.918 88.0803 203.199C87.9143 203.223 87.7644 203.312 87.6629 203.445C87.5614 203.579 87.5163 203.747 87.5373 203.913C87.5697 204.075 87.6624 204.218 87.7967 204.314C87.9309 204.41 88.0966 204.452 88.2603 204.431Z" fill="#F07D29"/>
<path d="M78.6167 81.9002C78.7589 81.9042 78.8988 81.8627 79.0158 81.7818C79.1329 81.7008 79.2211 81.5847 79.2677 81.4502H79.2002C82.5992 70.2452 92.6447 63.1292 96.4652 52.9502C97.7955 49.2783 98.2337 45.3428 97.7437 41.4682C97.2536 37.5937 95.8493 33.8912 93.6467 30.6662C93.5604 30.522 93.4392 30.4018 93.2942 30.3168C93.1492 30.2319 92.9851 30.1849 92.8172 30.1802C83.2532 29.8022 40.6172 30.2192 31.7792 32.4212C31.6436 32.4559 31.5162 32.5175 31.4048 32.6021C31.2933 32.6868 31.1998 32.7929 31.1299 32.9142C31.0601 33.0355 31.0152 33.1696 30.9978 33.3085C30.9805 33.4475 30.9912 33.5884 31.0292 33.7232C34.5197 46.6892 27.2897 51.5732 19.9412 62.1272C15.8426 67.7256 13.3341 74.3281 12.6812 81.2357C12.6595 81.5002 12.7411 81.7628 12.9089 81.9683C13.0768 82.1739 13.3177 82.3065 13.5812 82.3382C20.0912 82.9592 26.6162 82.3847 33.1922 82.2842C45.3002 82.0907 78.6167 82.0502 78.6167 81.9002ZM92.1962 32.2082C81.3077 31.8377 43.6172 32.4032 33.3257 34.2482C36.4757 47.4482 28.5557 53.3552 21.6257 63.3092C17.9942 68.3529 15.6507 74.2078 14.7992 80.3642C20.8637 80.8382 27.1667 80.3057 33.1457 80.2502C38.2022 80.2037 75.6917 80.5412 78.1457 80.5847C82.9202 64.5647 99.8537 56.8712 95.0852 38.7677C94.4602 36.446 93.4861 34.2327 92.1962 32.2037V32.2082Z" fill="#F07D29"/>
<path d="M88.0494 163.534C88.16 163.54 88.2701 163.516 88.3683 163.465C88.4666 163.414 88.5495 163.338 88.6085 163.245C88.6675 163.151 88.7005 163.043 88.704 162.932C88.7075 162.822 88.6814 162.712 88.6284 162.615H88.5909C85.1094 156.114 83.5494 147.783 81.8994 140.478C78.9474 127.413 75.9879 109.185 78.8289 96.045C78.8586 95.8989 78.8558 95.7482 78.8209 95.6034C78.7859 95.4585 78.7197 95.3231 78.6267 95.2067C78.5337 95.0902 78.4163 94.9956 78.2828 94.9295C78.1493 94.8634 78.0029 94.8273 77.8539 94.824C71.0289 94.7565 43.8039 95.031 37.0074 95.1855C27.9519 95.3925 18.5904 96.03 9.55741 95.271C9.29011 95.251 9.0253 95.3341 8.81725 95.5031C8.6092 95.6721 8.47366 95.9143 8.43841 96.18C5.31841 120.106 10.1994 142.858 20.5044 165.205C20.5911 165.397 20.7346 165.557 20.9154 165.665C21.0963 165.772 21.3057 165.821 21.5154 165.805C44.7069 164.088 88.0494 163.737 88.0494 163.534ZM76.5939 96.873C70.2369 96.8265 26.0304 97.686 20.5044 97.728C17.1099 97.7535 13.7544 97.689 10.3914 97.446C7.58791 120.366 12.3939 142.432 22.0569 163.704C40.5594 162.432 68.5209 162.174 86.9589 162.228C83.4774 155.445 82.1229 148.666 80.2419 140.865C76.8729 126.9 74.2719 110.988 76.5939 96.873Z" fill="#F07D29"/>
<path d="M30.7252 67.0217C36.7717 67.6952 35.3302 67.2602 42.2467 67.7717C46.0372 68.0492 47.9782 68.7032 51.7087 68.1707C51.8927 68.1671 52.0679 68.0914 52.1964 67.9597C52.3249 67.8281 52.3965 67.6512 52.3957 67.4672C52.3792 67.2872 52.2957 67.12 52.1619 66.9986C52.028 66.8773 51.8534 66.8105 51.6727 66.8117C49.2817 66.6722 39.5227 64.5842 30.6892 65.7842C30.5251 65.7914 30.3699 65.8612 30.2556 65.9792C30.1412 66.0972 30.0764 66.2544 30.0742 66.4187C30.0765 66.5013 30.0953 66.5826 30.1294 66.6579C30.1635 66.7331 30.2124 66.8008 30.273 66.857C30.3336 66.9132 30.4048 66.9567 30.4825 66.9849C30.5602 67.0132 30.6427 67.0257 30.7252 67.0217Z" fill="white"/>
<path d="M27.5119 72.1215C29.2099 72.1815 30.9064 72.303 32.6044 72.3855C33.2179 72.414 60.2329 73.3425 60.7744 73.3515C62.5101 73.3804 64.2461 73.3253 65.9764 73.1865C66.0681 73.1876 66.159 73.1702 66.2438 73.1354C66.3285 73.1005 66.4054 73.0489 66.4697 72.9836C66.5341 72.9184 66.5846 72.8408 66.6182 72.7555C66.6519 72.6703 66.668 72.5791 66.6656 72.4875C66.6631 72.3959 66.6422 72.3057 66.6041 72.2223C66.566 72.139 66.5115 72.0642 66.4438 72.0024C66.3761 71.9406 66.2966 71.8932 66.2101 71.8629C66.1236 71.8325 66.0319 71.82 65.9404 71.826C64.1689 71.826 62.4004 71.5755 60.6319 71.4075C53.4019 70.749 36.4279 70.2915 32.0989 70.5075C30.5464 70.5825 28.9924 70.7325 27.4759 70.8795C27.3892 70.8738 27.3023 70.8864 27.2207 70.9163C27.1392 70.9462 27.0648 70.9928 27.0023 71.0531C26.9397 71.1134 26.8905 71.1861 26.8577 71.2666C26.8249 71.347 26.8093 71.4334 26.8118 71.5202C26.8143 71.6071 26.8349 71.6924 26.8723 71.7708C26.9097 71.8492 26.9631 71.919 27.029 71.9755C27.0949 72.0321 27.1719 72.0744 27.255 72.0995C27.3382 72.1246 27.4257 72.1321 27.5119 72.1215Z" fill="white"/>
<path d="M19.3497 106.303C24.4737 106.291 48.2082 106.72 53.3367 106.44C54.9252 106.357 56.4417 106.209 57.9957 106.059C58.1759 106.054 58.3469 105.978 58.4709 105.847C58.595 105.716 58.662 105.541 58.6572 105.361C58.6524 105.181 58.5763 105.01 58.4455 104.886C58.3147 104.762 58.1399 104.695 57.9597 104.7C57.8097 104.7 39.8097 104.208 30.9072 104.262C27.0031 104.194 23.1003 104.461 19.2417 105.06C19.0799 105.08 18.9313 105.159 18.8246 105.282C18.7179 105.406 18.6607 105.564 18.6642 105.727C18.6795 105.894 18.7601 106.048 18.8884 106.156C19.0168 106.264 19.1826 106.317 19.3497 106.303Z" fill="white"/>
<path d="M49.1093 120.6C54.8468 120.529 52.9418 120.387 57.6323 120.129C67.1243 119.604 62.9498 120.01 66.9143 119.491C67.0949 119.486 67.2666 119.411 67.3941 119.283C67.5217 119.155 67.5952 118.983 67.5998 118.803C67.5962 118.623 67.5225 118.452 67.3943 118.327C67.2661 118.201 67.0938 118.131 66.9143 118.131C63.3036 117.691 59.6529 117.691 56.0423 118.131C53.6096 118.179 51.1985 118.598 48.8918 119.373C48.7364 119.409 48.6009 119.504 48.5131 119.637C48.4253 119.77 48.3919 119.932 48.4197 120.089C48.4476 120.246 48.5346 120.387 48.6628 120.482C48.7911 120.577 48.9509 120.619 49.1093 120.6Z" fill="white"/>
<path d="M49.4992 127.685C50.5912 128.006 50.0992 128.064 53.2567 128.058C54.5186 128.221 55.8012 128.095 57.0067 127.688C57.1816 127.679 57.3466 127.604 57.4675 127.477C57.5883 127.351 57.6558 127.182 57.6558 127.007C57.6558 126.832 57.5883 126.664 57.4675 126.537C57.3466 126.41 57.1816 126.335 57.0067 126.327C56.5002 126.139 55.9682 126.029 55.4287 126C53.8165 125.911 52.2002 125.925 50.5897 126.042C50.1916 126.134 49.8041 126.267 49.4332 126.438C49.2721 126.453 49.1228 126.529 49.0156 126.65C48.9084 126.771 48.8512 126.929 48.8557 127.091C48.8631 127.254 48.9349 127.409 49.0554 127.52C49.1758 127.631 49.3353 127.69 49.4992 127.685Z" fill="white"/>
<path d="M23.322 145.596C24.453 145.687 26.139 145.839 27.801 145.855C31.167 145.888 48.4245 145.033 49.251 144.973C50.478 144.882 51.7065 144.745 52.971 144.649C53.1513 144.645 53.3232 144.572 53.4509 144.445C53.5786 144.317 53.6523 144.146 53.6565 143.965C53.6476 143.787 53.5722 143.619 53.4453 143.494C53.3184 143.368 53.1492 143.295 52.971 143.289C51.4545 143.196 49.971 143.079 48.492 143.058C44.862 143.007 27.8895 143.884 27.042 143.958C25.7775 144.064 24.5505 144.231 23.322 144.351C23.1643 144.362 23.0167 144.432 22.9089 144.548C22.8012 144.663 22.7412 144.815 22.7412 144.973C22.7412 145.131 22.8012 145.283 22.9089 145.399C23.0167 145.515 23.1643 145.585 23.322 145.596Z" fill="white"/>
<path d="M25.9209 153.431C28.9914 153.707 27.5454 153.698 34.6974 153.296C37.3782 153.254 40.0549 153.07 42.7164 152.747C42.8084 152.751 42.9003 152.737 42.9866 152.704C43.0729 152.672 43.1518 152.623 43.2184 152.559C43.2851 152.495 43.3381 152.419 43.3744 152.334C43.4106 152.25 43.4293 152.158 43.4293 152.066C43.4293 151.974 43.4106 151.883 43.3744 151.798C43.3381 151.714 43.2851 151.637 43.2184 151.574C43.1518 151.51 43.0729 151.461 42.9866 151.428C42.9003 151.396 42.8084 151.382 42.7164 151.386C41.8202 151.227 40.9158 151.118 40.0074 151.061C38.2554 150.987 32.0349 151.247 28.8474 151.607C27.8377 151.746 26.8362 151.94 25.8474 152.187C25.6834 152.198 25.5305 152.274 25.4222 152.398C25.314 152.521 25.2592 152.683 25.2699 152.847C25.2832 153.009 25.3582 153.16 25.4792 153.268C25.6003 153.377 25.7583 153.435 25.9209 153.431Z" fill="white"/>
<path d="M43.619 134.088C42.193 128.346 41.2498 122.495 40.799 116.596C40.7859 116.338 40.6731 116.094 40.4844 115.916C40.2957 115.739 40.0456 115.641 39.7865 115.644C35.453 115.698 21.0785 115.932 18.1865 116.02C17.9234 116.03 17.6735 116.138 17.4863 116.323C17.299 116.508 17.1881 116.756 17.1755 117.019C17.0643 123.216 18.1834 129.373 20.468 135.135C20.885 136.213 22.2065 135.775 25.778 135.801C27.365 135.801 28.991 135.835 30.578 135.822C30.9335 135.822 38.9885 135.591 39.1385 135.582C40.4602 135.536 41.7707 135.322 43.0385 134.946C43.1366 134.935 43.2312 134.904 43.3157 134.853C43.4003 134.802 43.4727 134.733 43.528 134.652C43.5832 134.57 43.62 134.477 43.6357 134.38C43.6515 134.282 43.6458 134.183 43.619 134.088ZM41.9195 133.188C38.264 130.923 34.463 128.445 30.989 125.856C36.839 120.259 36.089 121.281 38.903 118.266C39.4016 123.333 40.4123 128.336 41.9195 133.2V133.188ZM37.049 117.732C34.3408 119.871 31.7487 122.153 29.2835 124.569C25.2335 121.471 26.5325 122.292 20.516 118.056C25.994 117.9 31.9235 117.811 37.049 117.732ZM19.2695 119.082C20.6375 120.489 20.714 120.568 27.794 126.046C25.548 128.188 23.5959 130.617 21.989 133.272C20.3236 128.719 19.4038 123.927 19.265 119.08L19.2695 119.082ZM23.654 133.792C25.904 131.208 27.6785 129.13 29.4815 127.342C32.806 129.977 36.4108 132.236 40.2305 134.08C39.71 134.086 28.217 133.705 23.6495 133.791L23.654 133.792Z" fill="white"/>
<path d="M88.7991 41.0878C88.7793 40.8349 88.6636 40.5991 88.4756 40.4288C88.2877 40.2584 88.0417 40.1663 87.7881 40.1713C77.9691 40.1353 46.5996 39.0463 41.4501 40.0213C41.2411 40.0608 41.0479 40.16 40.894 40.3069C40.7402 40.4539 40.6322 40.6422 40.5831 40.8493C39.4944 46.8574 37.0623 52.5419 33.4686 57.4783C33.3573 57.6312 33.2894 57.8113 33.272 57.9997C33.2546 58.188 33.2885 58.3775 33.3699 58.5483C33.4513 58.719 33.5774 58.8645 33.7347 58.9695C33.892 59.0745 34.0747 59.1351 34.2636 59.1448C42.5916 59.6713 50.7411 59.6068 59.0031 59.9518C68.9571 60.2518 80.3511 61.5508 81.1776 60.6913C83.7606 58.1474 85.7752 55.0851 87.0889 51.7062C88.4026 48.3272 88.9855 44.7083 88.7991 41.0878ZM82.5456 42.1018C71.6166 45.0703 71.0616 44.9878 60.1956 48.6403C50.0991 43.7698 57.3396 47.0998 45.8376 41.7898C54.1266 41.5318 73.0956 41.9728 82.5471 42.1018H82.5456ZM42.4716 42.1018C43.8508 42.7214 45.1868 43.433 46.4706 44.2318L57.3756 49.5898C45.1056 53.7163 43.4586 53.6608 36.8016 56.3293C39.5178 51.9585 41.438 47.1411 42.4731 42.1003L42.4716 42.1018ZM59.0766 57.9568C53.2971 57.6883 39.6561 57.3313 38.5956 57.2848C46.1481 55.2418 46.3431 55.4848 60.0456 50.8948C66.0464 53.7801 72.0575 56.6441 78.0786 59.4868C71.6841 59.0773 65.3991 58.3228 59.0766 57.9568ZM80.7966 59.2393C74.9016 55.6693 68.5836 52.6633 62.9091 49.9393C76.5771 45.4108 79.2096 45.4798 86.8896 42.2383C87.0776 48.4712 84.9009 54.5446 80.7966 59.2393Z" fill="white"/>
<path d="M227.959 267.823C227.959 267.823 236.266 267.79 238.216 267.735C238.995 267.714 281.181 265.762 291.849 265.035C292.027 265.021 292.193 264.939 292.313 264.808C292.434 264.676 292.501 264.504 292.5 264.325C292.488 264.144 292.406 263.975 292.271 263.853C292.136 263.732 291.958 263.668 291.777 263.676C270.72 264.261 232.827 266.085 227.923 266.572C227.756 266.579 227.598 266.65 227.483 266.772C227.368 266.894 227.306 267.056 227.31 267.223C227.322 267.387 227.396 267.54 227.516 267.651C227.637 267.763 227.795 267.824 227.959 267.823Z" fill="#180B02"/>
<path d="M249.34 255.082C246.469 257.324 243.425 259.335 240.238 261.099C231.969 265.716 223.186 268.543 213.688 267.469C202.09 266.152 191.952 259.174 184.506 250.285C183.423 249 182.664 248.035 182.34 247.558C182.147 247.276 181.886 247.048 181.581 246.895C175.851 245.272 173.797 244.92 170.854 244.251C170.692 244.214 170.523 244.241 170.381 244.327C170.239 244.413 170.137 244.551 170.095 244.711C170.063 244.873 170.093 245.04 170.18 245.18C170.268 245.319 170.405 245.42 170.565 245.461C173.301 246.211 176.775 247.249 180.75 248.611C185.496 255.398 191.742 260.998 199.005 264.978C197.982 264.946 190.41 264.739 187.261 264.891C186.834 262.791 184.261 262.135 182.122 262.183L162.222 261.798C161.172 258.12 149.04 216.274 148.422 214.306C147.916 212.423 146.795 210.764 145.237 209.591C143.68 208.418 141.774 207.8 139.825 207.835C138.775 207.862 60.4046 208.356 58.4906 208.344C55.4561 208.327 53.8871 209.359 53.0726 210.565C52.5861 211.462 52.3135 212.459 52.2761 213.479C52.2386 214.498 52.4373 215.512 52.8566 216.442C52.8566 216.292 54.7916 221.592 72.0131 264.936C67.2956 264.759 37.1576 265.057 28.4411 265.947C28.2811 265.955 28.1302 266.024 28.0197 266.14C27.9093 266.256 27.8477 266.41 27.8477 266.57C27.8477 266.73 27.9093 266.884 28.0197 267C28.1302 267.116 28.2811 267.186 28.4411 267.193C37.8236 267.727 66.6911 266.832 72.5576 266.332C73.1742 267.359 74.0528 268.203 75.1032 268.778C76.1536 269.353 77.3381 269.638 78.5351 269.604H182.235C183.508 269.327 184.727 268.846 185.847 268.179C186.411 267.818 186.852 267.295 187.113 266.679C190.243 266.908 200.185 267.238 203.298 266.979C216.004 272.055 229.38 269.994 241.177 262.728C244.345 260.759 247.363 258.558 250.206 256.143C250.335 256.025 250.414 255.862 250.427 255.687C250.44 255.512 250.385 255.339 250.274 255.203C250.163 255.068 250.005 254.98 249.831 254.957C249.658 254.935 249.482 254.979 249.34 255.082ZM184.366 266.65C182.761 267.42 189.166 267.072 78.5441 268.509C77.4061 268.446 76.307 268.073 75.3656 267.43C73.2521 265.944 74.9636 268.93 54.7076 215.719C54.6716 215.719 54.6716 215.7 54.6716 215.7C54.4739 215.144 54.3401 214.568 54.2726 213.982C54.0551 211.761 55.0571 210.328 58.4636 210.363C60.9911 210.385 139.87 209.934 139.87 209.934C141.353 209.912 142.801 210.382 143.988 211.27C145.164 212.204 146.012 213.49 146.407 214.939C147.021 216.901 160.456 263.122 160.456 263.122C160.513 263.338 160.64 263.528 160.817 263.663C160.993 263.799 161.21 263.873 161.433 263.872C161.433 263.872 182.133 264.264 182.163 264.262C182.878 264.228 185.233 264.352 185.233 265.531C185.269 266.119 184.8 266.431 184.366 266.65Z" fill="#180B02"/>
<path d="M208.962 105.6C207.892 103.294 206.266 101.29 204.231 99.7665C201.574 98.3075 198.594 97.5395 195.563 97.533C191.598 97.259 187.621 97.8534 183.909 99.275C180.198 100.697 176.841 102.911 174.074 105.764C167.192 112.682 165.279 122.672 162.732 132.048C160.731 139.978 157.772 147.634 153.92 154.848C153.84 154.993 153.796 155.155 153.791 155.32C153.787 155.485 153.821 155.649 153.891 155.799C153.962 155.949 154.066 156.079 154.197 156.181C154.328 156.282 154.48 156.351 154.643 156.383C162.672 158.123 173.043 155.859 180.033 151.104C180.033 155.025 180.105 155.927 180.105 157.904C180.094 158.086 180.156 158.264 180.277 158.401C180.399 158.537 180.569 158.62 180.751 158.63C180.933 158.641 181.112 158.579 181.248 158.458C181.384 158.337 181.467 158.167 181.478 157.985C181.814 155.027 181.892 153.242 181.971 151.827C182.328 151.953 182.694 152.053 183.066 152.127C184.892 152.511 187.968 152.277 187.725 151.038C187.631 150.074 185.078 150.426 183.5 150.069C178.665 149.03 176.507 144.51 176.204 139.559C175.857 132.549 178.185 125.978 179.636 119.759C184.485 118.917 189.807 119.354 194.732 119.534C194.977 119.541 195.216 119.461 195.409 119.309C195.601 119.157 195.733 118.941 195.782 118.701C196.356 116.279 197.467 114.016 199.032 112.08C198.884 114.708 199.72 117.296 201.378 119.34C201.277 121.861 201.35 124.386 201.596 126.897C201.58 127.045 201.593 127.194 201.636 127.336C201.678 127.478 201.748 127.61 201.843 127.725C201.937 127.84 202.053 127.934 202.184 128.004C202.315 128.073 202.459 128.115 202.607 128.129C203.657 128.156 204.846 127.952 205.965 128.013C209.91 128.246 208.911 133.871 204.594 134.496C202.584 134.796 202.085 134.262 201.452 134.807C201.343 134.897 201.255 135.009 201.193 135.136C201.131 135.262 201.096 135.401 201.09 135.542C200.965 138.41 200.093 141.196 198.56 143.624C197.027 146.052 194.886 148.037 192.35 149.384C192.195 149.435 192.059 149.534 191.963 149.665C191.866 149.797 191.812 149.955 191.808 150.119L191.7 154.029C191.687 154.197 191.741 154.362 191.85 154.49C191.959 154.618 192.115 154.697 192.282 154.71C192.45 154.723 192.615 154.669 192.743 154.56C192.871 154.451 192.95 154.296 192.963 154.128L193.397 150.774C195.817 149.79 197.91 148.143 199.437 146.022C200.301 146.109 200.798 146.172 205.137 146.372C207.014 146.459 210.12 146.838 212.108 145.908C212.656 145.67 213.134 145.294 213.494 144.817C213.855 144.34 214.086 143.778 214.166 143.186C214.172 143.069 214.16 142.953 214.13 142.841C215.018 139.007 214.772 135.221 214.961 131.219C215.348 122.63 218.12 107.187 208.962 105.6ZM176.204 113.07C170.135 122 167.907 135.708 165.554 143.93C165.084 145.524 164.504 147.038 164.001 148.497C163.952 148.656 163.842 148.79 163.695 148.869C163.548 148.949 163.376 148.968 163.215 148.922C163.055 148.876 162.919 148.769 162.836 148.624C162.753 148.479 162.73 148.308 162.773 148.146C164.183 140.665 165.968 133.259 168.119 125.957C169.797 120.741 171.594 116.268 175.169 112.238C175.279 112.098 175.44 112.009 175.617 111.988C175.793 111.968 175.971 112.018 176.11 112.129C176.249 112.239 176.339 112.4 176.359 112.577C176.38 112.753 176.329 112.931 176.219 113.07H176.204ZM185.234 105.657C184.045 106.674 182.777 107.593 181.442 108.407C181.317 108.513 181.158 108.573 180.994 108.575C180.83 108.578 180.67 108.523 180.542 108.42C179.642 107.505 182.823 105.12 184.514 104.499C185.391 104.178 185.913 105.039 185.234 105.657Z" fill="#180B02"/>
</svg>
