<svg width="237" height="259" viewBox="0 0 237 259" fill="none" xmlns="http://www.w3.org/2000/svg">
<path fill-rule="evenodd" clip-rule="evenodd" d="M65.1691 178.196C63.8251 176.09 62.5343 173.95 61.2979 171.779V171.777L61.1839 171.577C64.4407 159.281 64.3267 145.394 64.2086 131.111C64.0445 111.077 63.8722 90.262 72.9934 71.9668C78.4561 61.008 87.5272 60.2171 97.5866 59.3414C106.195 58.5908 115.527 57.7777 123.942 50.476C126.293 48.4369 127.474 45.9627 127.657 43.533C128.247 43.9986 128.866 44.4559 129.512 44.8965C146.351 56.3668 173.222 61.5126 202.733 52.2705C203.83 51.9272 204.597 51.4851 205.142 51.1724C205.975 50.6915 206.289 50.5108 206.472 51.4351C208.347 60.9372 204.155 130.774 177.628 171.62H177.626C177.599 171.662 177.531 171.79 177.421 171.998C177.402 172.035 177.383 172.071 177.363 172.107C174.291 170.913 171.133 169.956 167.915 169.246C144.897 164.102 93.2012 171.745 65.1691 178.196ZM47.3868 54.9629C45.3059 59.1086 43.2116 63.2476 41.104 67.3798C38.5613 72.3629 36.0379 77.3558 33.534 82.3584C31.6965 66.6834 31.5422 54.7669 32.2413 51.2266C32.4234 50.3009 32.7376 50.483 33.5702 50.9625C34.1165 51.2767 34.8823 51.7187 35.9804 52.062C39.8335 53.2685 43.6393 54.2304 47.3868 54.9629ZM133.778 132.469C136.223 132.497 138.387 132.53 140.306 132.56C154.281 132.774 155.096 132.786 155.062 129.317C155.023 125.318 155.014 122.036 155.006 119.344C154.983 110.303 154.976 107.897 153.908 107.255C153.522 107.023 152.995 107.021 152.278 107.02H152.225L149.692 107.014H149.691C144.488 107.003 139.282 106.992 134.08 107.056H134.077C133.56 107.063 133.185 107.067 132.913 106.9C132.193 106.46 132.21 104.815 132.273 98.8035C132.302 96.0513 132.339 92.3845 132.321 87.4973C132.313 85.3303 132.039 83.6567 129.904 83.6664C126.45 83.6803 123.502 83.6803 120.985 83.6775C107.46 83.6664 106.403 83.665 106.448 86.4367C106.501 89.6935 106.501 92.9502 106.499 96.207C106.499 99.29 106.497 102.372 106.542 105.453V105.51C106.552 106.084 106.558 106.5 106.374 106.799C105.892 107.581 104.1 107.556 97.6061 107.466C93.4957 107.403 89.3849 107.371 85.274 107.371C84.4706 107.37 83.9118 107.369 83.5198 107.624C82.6191 108.212 82.608 110.16 82.5719 116.58C82.5573 120.227 82.5133 123.874 82.4398 127.521C82.3314 132.711 82.4815 132.714 87.7649 132.829L87.8177 132.831C94.0171 132.967 98.1315 132.889 100.86 132.836C106.057 132.738 106.228 132.733 106.209 134.495C106.149 139.674 106.153 144.854 106.155 150.035L106.156 153.863V154.035C106.155 154.801 106.153 155.364 106.402 155.778C107.09 156.928 109.696 156.929 119.542 156.931C122.19 156.931 125.363 156.931 129.165 156.954C132.152 156.972 132.128 155.44 132.029 148.916C132.009 147.542 131.985 145.947 131.985 144.099C132.021 144.099 132.056 137.01 131.963 134.331C131.913 132.882 132.317 132.451 133.781 132.468L133.778 132.469Z" fill="#F07D29"/>
<path fill-rule="evenodd" clip-rule="evenodd" d="M234.296 20.0406C235.412 19.3984 235.832 19.1566 236.076 20.3951H236.075C238.589 33.1275 232.931 126.676 197.427 181.428C197.391 181.484 197.302 181.653 197.156 181.93C196.942 182.334 196.607 182.968 196.142 183.812C192.647 180.723 189.022 178.049 185.094 175.804C214.597 129.856 219.292 51.9314 217.186 41.2979C216.981 40.2595 216.627 40.4639 215.692 41.0018C215.08 41.3535 214.219 41.8497 212.987 42.2361C179.848 52.6264 149.671 46.8342 130.759 33.9545C128.255 32.2504 126.116 30.3058 124.35 28.603C124.285 28.1269 124.187 27.656 124.056 27.1935C122.561 21.9616 116.343 14.2846 109.258 8.80523C112.71 6.15033 115.787 3.28276 118.448 0.252559C119.265 -0.678741 121.051 1.07266 123.777 3.74841C126.138 6.06554 129.206 9.07489 132.961 11.6325C155.524 27.0017 191.527 33.9003 231.067 21.514C232.537 21.0525 233.566 20.4618 234.296 20.0406ZM60.2052 27.0184C44.1646 28.628 26.2976 27.0796 7.64098 21.2346C6.17036 20.7745 5.14315 20.1824 4.4134 19.7612C3.29723 19.119 2.87606 18.8758 2.63142 20.1157C0.916156 28.7948 3.00116 75.0387 15.753 120.943C19.0292 112.94 22.5473 105.114 26.146 97.5123C21.1559 69.8846 20.4359 46.5437 21.5201 41.0644C21.7258 40.0274 22.0775 40.2304 23.0116 40.7683C23.6232 41.12 24.485 41.6162 25.7193 42.0026C34.5083 44.7534 43.0888 46.3672 51.3064 47.0149C54.6007 40.2192 57.5211 33.8224 59.8577 27.883C59.9703 27.5952 60.0871 27.3061 60.2052 27.0184ZM104.799 231.514L98.0035 231.458C92.4615 231.414 87.0267 231.371 81.7308 231.298C82.7626 232.126 83.7912 232.957 84.8166 233.792C93.6987 240.998 117.461 260.274 120.812 258.364C132.478 251.713 145.961 241.47 155.976 232.416L154.892 232.441C152.593 232.492 150.45 232.54 148.53 232.629L148.397 232.634L148.27 232.629C143.494 232.378 138.714 232.179 133.934 232.031C129.437 235.293 124.861 238.314 120.576 240.756C118.991 241.658 111.962 236.91 104.799 231.514Z" fill="#F07D29"/>
<path d="M148.424 229.833C72.194 225.811 -1.2786 236.817 0.0168819 197.61C2.1547 132.973 46.1107 70.4518 62.4599 28.9019C66.3713 18.962 73.5298 8.68572 84.212 7.19703C90.4155 6.33245 93.4235 2.19303 102.841 7.79195C109.251 11.6033 119.355 20.8844 121.376 27.9581C122.772 32.8439 120.053 34.8594 119.234 32.3338C116.126 22.7317 109.043 16.4211 101.209 10.8263C98.0035 8.53699 94.4076 7.56399 90.3697 9.20697C80.9149 13.0531 73.5298 9.37794 64.7117 32.666C50.3877 70.4907 8.01355 129.678 3.67258 197.776C1.79886 227.162 63.8012 223.834 122.833 225.501C140.817 226.008 181.807 228.796 193.934 215.924C199.756 209.745 200.772 200.151 194.571 193.386C174.707 171.716 148.215 173.934 118.346 175.875C85.8549 177.986 57.7756 186.225 57.075 184.179C54.8996 177.822 135.648 164.89 167.308 171.966C181.259 175.085 191.66 182.81 194.681 186.141C197.376 189.115 205.198 193.853 202.96 206.959C198.776 231.449 165.82 229.126 148.423 229.835L148.424 229.833Z" fill="#191919"/>
<path d="M87.3566 54.3431C100.942 52.4902 109.648 53.4382 119.093 47.1234C120.693 46.0545 122.636 43.8736 121.731 41.9526C120.123 38.5402 117.424 39.4979 110.906 39.395C105.716 39.313 102.719 36.2481 102.706 31.0773C102.695 26.6543 102.759 22.2202 100.314 18.2392C98.6365 15.5079 105.639 13.6661 105.613 30.8285C105.602 38.0314 112.275 36.2481 117.283 36.2092C124.118 36.1563 127.763 43.4691 122.114 48.3717C104.79 63.4073 81.5089 48.6316 70.4945 70.7215C54.4317 102.939 66.2634 142.697 58.3432 171.637C55.8412 180.78 48.4255 193.283 47.0689 192.547C44.8657 191.35 54.7236 177.657 56.9017 158.847C59.7679 134.093 49.6876 59.4833 87.3538 54.3445L87.3566 54.3431Z" fill="#191919"/>
<path d="M150.9 215.55C147.326 212.95 150.469 205.607 158.659 186.845C160.881 181.755 163.464 180.54 168.768 182.277C173.305 183.763 176.954 187.65 175.154 193.429C171.96 203.685 170.175 209.972 164.427 217.362C161.451 221.19 154.526 218.187 150.9 215.55ZM152.669 211.498C152.251 214.541 160.265 218.349 162.346 215.797C164.409 213.27 166.051 210.486 167.398 207.515C167.685 206.882 167.591 206.586 166.985 206.32C155.314 201.212 155.375 201.426 154.907 202.492C153.688 205.269 152.95 208.163 152.671 211.496L152.669 211.498ZM165.015 184.578C162.072 184.408 161.725 187.379 159.526 191.675C159.019 192.666 159.504 192.968 160.302 193.214C170.09 196.223 170.091 200.087 171.861 194.761C172.385 193.183 173.063 191.611 172.707 189.864C172.055 186.675 168.799 184.797 165.015 184.579V184.578ZM170.055 200.431C170.178 199.68 170.365 199.807 162.152 196.181C158.146 194.413 157.701 194.67 156.319 198.993C155.691 200.959 157.598 199.308 167.518 204.324C168.744 204.944 168.393 204.886 170.057 200.432L170.055 200.431Z" fill="#191919"/>
<path d="M160.314 211.899C162.014 212.082 161.956 214.426 160.197 214.326C158.757 214.243 158.653 212.087 160.314 211.899Z" fill="#191919"/>
<path d="M155.774 207.991C157.223 208.251 156.911 210.048 155.705 209.976C154.498 209.903 154.376 208.169 155.774 207.991Z" fill="#191919"/>
<path d="M163.462 207.464C163.325 208.668 161.693 208.508 161.671 207.461C161.645 206.207 163.368 206.169 163.462 207.464Z" fill="#191919"/>
<path d="M165.221 190.673C165.02 192.42 162.78 192.195 162.851 190.831C162.922 189.468 165.132 189.279 165.221 190.673Z" fill="#191919"/>
<path d="M168.789 188.447C168.789 189.829 166.895 189.821 166.893 188.539C166.89 187.31 168.697 187.272 168.789 188.447Z" fill="#191919"/>
<path d="M170.776 192.888C170.726 194.192 168.971 194.231 168.958 192.936C168.948 191.85 170.522 191.749 170.776 192.888Z" fill="#191919"/>
</svg>
