<svg width="222" height="242" viewBox="0 0 222 242" fill="none" xmlns="http://www.w3.org/2000/svg">
<path fill-rule="evenodd" clip-rule="evenodd" d="M61.3178 166.795C60.0609 164.825 58.8536 162.823 57.6973 160.792V160.791L57.5907 160.604C60.6366 149.104 60.53 136.116 60.4195 122.758C60.2661 104.021 60.1049 84.554 68.6355 67.4434C73.7445 57.1942 82.2283 56.4545 91.6364 55.6355C99.6873 54.9335 108.415 54.173 116.286 47.3441C118.484 45.437 119.589 43.123 119.759 40.8506C120.312 41.2861 120.89 41.7138 121.495 42.1259C137.243 52.8535 162.375 57.6661 189.975 49.0224C191.001 48.7013 191.718 48.2879 192.228 47.9954C193.006 47.5456 193.3 47.3766 193.472 48.2411C195.226 57.1279 191.305 122.442 166.496 160.644H166.493C166.468 160.683 166.405 160.803 166.302 160.998C166.284 161.032 166.266 161.066 166.247 161.099C163.375 159.983 160.421 159.088 157.411 158.424C135.883 153.613 87.5349 160.761 61.3178 166.795ZM44.6869 51.5405C42.7407 55.4178 40.782 59.2887 38.8109 63.1534C36.4328 67.8138 34.0729 72.4834 31.7311 77.1622C30.0125 62.5021 29.8682 51.3572 30.5221 48.0461C30.6924 47.1803 30.9862 47.3506 31.7649 47.7991C32.2758 48.0929 32.9921 48.5063 34.0191 48.8274C37.6227 49.9558 41.1821 50.8554 44.6869 51.5405ZM125.484 124.028C127.771 124.054 129.795 124.086 131.589 124.113C144.659 124.313 145.423 124.325 145.39 121.08C145.354 117.34 145.346 114.271 145.338 111.753C145.316 103.297 145.309 101.047 144.311 100.446C143.95 100.229 143.457 100.228 142.786 100.227H142.737L140.368 100.222H140.367C135.501 100.211 130.632 100.201 125.767 100.261H125.764C125.28 100.267 124.929 100.271 124.676 100.115C124.002 99.7029 124.018 98.165 124.077 92.5425C124.104 89.9685 124.139 86.5391 124.122 81.9683C124.114 79.9416 123.858 78.3764 121.861 78.3855C118.631 78.3985 115.874 78.3985 113.519 78.3959C100.87 78.3855 99.8823 78.3842 99.9239 80.9764C99.9733 84.0223 99.9733 87.0682 99.972 90.1141C99.972 92.9975 99.9694 95.8796 100.012 98.7617V98.815C100.021 99.3519 100.027 99.7406 99.855 100.02C99.4039 100.752 97.7282 100.729 91.6546 100.644C87.8103 100.585 83.9657 100.555 80.121 100.556C79.3696 100.554 78.847 100.553 78.4804 100.792C77.638 101.342 77.6276 103.163 77.5938 109.168C77.5802 112.579 77.539 115.99 77.4703 119.4C77.3689 124.255 77.5093 124.257 82.4506 124.365L82.5 124.366C88.298 124.494 92.146 124.421 94.6979 124.372C99.5586 124.279 99.7185 124.275 99.7003 125.923C99.6444 130.766 99.6483 135.611 99.6496 140.457L99.6509 144.037V144.198C99.6496 144.914 99.6483 145.441 99.881 145.828C100.524 146.903 102.962 146.905 112.17 146.906C114.646 146.906 117.614 146.906 121.17 146.928C123.963 146.945 123.941 145.512 123.849 139.41C123.83 138.126 123.807 136.633 123.807 134.906C123.841 134.906 123.874 128.276 123.787 125.769C123.74 124.415 124.118 124.012 125.487 124.027L125.484 124.028Z" fill="#0705CB"/>
<path fill-rule="evenodd" clip-rule="evenodd" d="M219.494 18.8797C220.538 18.2791 220.93 18.0529 221.159 19.2112H221.158C223.509 31.1192 218.217 118.611 185.013 169.818C184.979 169.87 184.896 170.028 184.759 170.287C184.559 170.665 184.246 171.258 183.81 172.047C180.542 169.158 177.151 166.657 173.478 164.558C201.07 121.585 205.462 48.7056 203.492 38.7606C203.3 37.7895 202.969 37.9806 202.095 38.4837C201.523 38.8126 200.717 39.2767 199.565 39.6381C168.571 49.3556 140.348 43.9385 122.661 31.8927C120.319 30.2989 118.319 28.4802 116.666 26.8877C116.606 26.4425 116.514 26.002 116.392 25.5695C114.993 20.6763 109.178 13.4964 102.552 8.37183C105.78 5.88882 108.658 3.20693 111.147 0.372925C111.911 -0.498075 113.581 1.13993 116.131 3.64243C118.339 5.80953 121.209 8.62403 124.72 11.016C145.823 25.3901 179.494 31.842 216.474 20.2577C217.849 19.8261 218.811 19.2736 219.494 18.8797ZM56.6753 25.4057C41.6733 26.9111 24.963 25.4629 7.51445 19.9964C6.13905 19.5661 5.17835 19.0123 4.49585 18.6184C3.45195 18.0178 3.05805 17.7903 2.82925 18.9499C1.22505 27.0671 3.17505 70.3168 15.1013 113.249C18.1654 105.764 21.4556 98.4449 24.8213 91.3352C20.1543 65.4964 19.481 43.6668 20.495 38.5422C20.6874 37.5724 21.0163 37.7622 21.8899 38.2653C22.4619 38.5942 23.2678 39.0583 24.4222 39.4197C32.6421 41.9924 40.6671 43.5017 48.3527 44.1075C51.4337 37.7518 54.165 31.7692 56.3503 26.2143C56.4556 25.9452 56.5648 25.6748 56.6753 25.4057ZM98.3818 216.66L92.0261 216.608C86.843 216.567 81.76 216.527 76.807 216.459C77.7721 217.233 78.7341 218.01 79.693 218.791C88 225.53 110.224 243.559 113.358 241.773C124.269 235.552 136.879 225.972 146.245 217.504L145.231 217.528C143.081 217.576 141.076 217.62 139.281 217.703L139.156 217.708L139.038 217.703C134.571 217.469 130.101 217.282 125.63 217.144C121.424 220.195 117.145 223.02 113.137 225.304C111.655 226.148 105.081 221.707 98.3818 216.66Z" fill="#0705CB"/>
<path d="M139.182 215.089C67.8877 211.327 -0.827647 221.62 0.383953 184.952C2.38335 124.5 43.4933 66.0268 58.7839 27.1672C62.4421 17.8709 69.1371 8.26004 79.1276 6.86774C84.9295 6.05914 87.7427 2.18774 96.5501 7.42414C102.546 10.9887 111.995 19.6688 113.886 26.2845C115.191 30.854 112.648 32.739 111.882 30.3769C108.976 21.3965 102.351 15.4945 95.0239 10.262C92.0261 8.12094 88.663 7.21094 84.8866 8.74754C76.044 12.3446 69.137 8.90744 60.8899 30.6876C47.4934 66.0632 7.86285 121.419 3.80295 185.107C2.05055 212.59 60.0383 209.478 115.248 211.037C132.067 211.511 170.403 214.119 181.746 202.08C187.19 196.301 188.14 187.329 182.341 181.001C163.763 160.734 138.986 162.809 111.052 164.624C80.6641 166.599 54.4029 174.304 53.7477 172.39C51.7132 166.445 127.233 154.35 156.843 160.968C169.891 163.886 179.619 171.11 182.444 174.226C184.964 177.007 192.28 181.438 190.187 193.696C186.274 216.599 155.452 214.427 139.181 215.09L139.182 215.089Z" fill="#010614"/>
<path d="M82.0682 50.9614C94.7744 49.2285 102.916 50.1151 111.75 44.2092C113.246 43.2095 115.064 41.1698 114.217 39.3732C112.713 36.1817 110.189 37.0774 104.093 36.9812C99.2386 36.9045 96.4358 34.038 96.4241 29.202C96.4137 25.0654 96.4735 20.9184 94.1868 17.1952C92.6177 14.6407 99.1671 12.9182 99.1424 28.9693C99.132 35.7059 105.373 34.038 110.057 34.0016C116.449 33.9522 119.858 40.7915 114.575 45.3766C98.3728 59.4387 76.5991 45.6197 66.2979 66.2793C51.2751 96.4107 62.3407 133.595 54.9333 160.661C52.5933 169.212 45.6578 180.906 44.389 180.216C42.3285 179.097 51.5481 166.291 53.5852 148.699C56.2658 125.548 46.8382 55.7688 82.0656 50.9627L82.0682 50.9614Z" fill="#010614"/>
<path d="M141.498 201.73C138.155 199.299 141.095 192.431 148.754 174.883C150.833 170.123 153.248 168.987 158.209 170.612C162.452 172.001 165.865 175.636 164.181 181.042C161.194 190.633 159.525 196.513 154.149 203.425C151.366 207.005 144.889 204.196 141.498 201.73ZM143.152 197.94C142.761 200.786 150.257 204.348 152.203 201.961C154.132 199.598 155.668 196.994 156.927 194.216C157.196 193.623 157.108 193.346 156.541 193.098C145.626 188.32 145.684 188.52 145.245 189.518C144.105 192.115 143.415 194.822 143.154 197.939L143.152 197.94ZM154.699 172.763C151.947 172.605 151.622 175.383 149.565 179.401C149.091 180.328 149.545 180.61 150.291 180.84C159.445 183.655 159.447 187.269 161.102 182.287C161.592 180.811 162.226 179.341 161.893 177.707C161.284 174.725 158.238 172.969 154.699 172.764V172.763ZM159.413 187.59C159.527 186.888 159.703 187.006 152.021 183.616C148.274 181.962 147.858 182.202 146.566 186.245C145.979 188.084 147.762 186.539 157.04 191.231C158.187 191.811 157.858 191.756 159.414 187.591L159.413 187.59Z" fill="#010614"/>
<path d="M150.302 198.316C151.892 198.487 151.838 200.68 150.193 200.586C148.846 200.508 148.749 198.492 150.302 198.316Z" fill="#010614"/>
<path d="M146.057 194.66C147.411 194.903 147.12 196.584 145.992 196.517C144.863 196.449 144.749 194.827 146.057 194.66Z" fill="#010614"/>
<path d="M153.246 194.168C153.119 195.294 151.592 195.144 151.572 194.165C151.547 192.993 153.159 192.956 153.246 194.168Z" fill="#010614"/>
<path d="M154.892 178.463C154.703 180.097 152.609 179.887 152.675 178.612C152.742 177.336 154.809 177.159 154.892 178.463Z" fill="#010614"/>
<path d="M158.228 176.382C158.228 177.674 156.458 177.667 156.455 176.468C156.452 175.319 158.142 175.282 158.228 176.382Z" fill="#010614"/>
<path d="M160.087 180.536C160.04 181.755 158.398 181.791 158.387 180.58C158.378 179.565 159.849 179.47 160.087 180.536Z" fill="#010614"/>
</svg>
