<svg width="260" height="182" viewBox="0 0 260 182" fill="none" xmlns="http://www.w3.org/2000/svg">
<path fill-rule="evenodd" clip-rule="evenodd" d="M31.2381 47.3379C3.43339 63.5 -0.253199 65.7687 0.0127365 67.3892C0.0546907 67.6448 0.194999 67.8843 0.3545 68.1597L65.6699 179.476C66.6213 181.089 67.0183 181.838 67.5686 181.977C68.1181 182.114 68.8205 181.642 70.3801 180.812C79.8184 175.79 89.1654 170.599 98.4791 165.35C119.679 153.405 133.282 145.945 141.954 141.188C144.24 139.934 146.184 138.868 147.833 137.957C144.514 139.122 140.79 140.434 136.618 141.914C136.616 141.915 136.526 141.947 136.353 142.009C135.801 142.207 134.414 142.702 132.386 143.426C117.891 151.462 100.213 161.278 94.2311 164.599C92.8892 165.343 92.1359 165.763 92.139 165.76C71.8347 176.889 69.0002 179.537 67.9303 178.953C67.7179 178.838 67.5751 178.594 67.3788 178.264C67.3539 178.221 2.63071 68.3382 2.65008 68.3714C2.11977 67.4744 2.29523 67.3734 7.76063 64.2269C9.32575 63.3257 11.3247 62.1749 13.865 60.6841C13.8826 60.674 21.6876 56.1328 32.2452 49.9704L31.2381 47.3379Z" fill="#180B02"/>
<path d="M103.597 32.9321C103.583 34.0775 103.928 33.6944 89.4623 39.5362C80.9165 42.9877 60.111 51.3458 51.4088 54.3892C49.6266 55.0131 49.9282 54.6838 45.737 44.3364C45.0742 42.7013 45.254 42.4288 46.9353 41.7482C58.1918 37.1901 82.7292 27.046 96.9565 21.9525C98.8232 21.2844 98.9408 21.3964 99.67 23.2321C101.553 27.9687 102.641 30.2028 103.597 32.9321ZM97.2499 23.9335C93.8349 25.1328 89.0873 27.5426 48.0229 43.3349C46.8716 43.7775 47.432 43.5244 50.6741 51.7332C51.1002 52.8136 51.3286 52.3238 53.7846 51.3417C103.578 31.4298 101.477 33.1134 101.051 32.127C97.4726 23.8311 97.7535 23.7578 97.2485 23.9349L97.2499 23.9335Z" fill="#180B02"/>
<path d="M56.3805 65.4307C55.1587 65.3324 55.2182 64.3143 56.1411 63.8744C60.2134 61.9336 57.915 62.8341 81.434 53.224C100.668 45.3653 100.366 45.1287 101.05 46.4304C101.835 47.9286 100.293 47.9991 77.0172 57.4169C64.251 62.5823 58.7674 64.9797 56.3805 65.4307Z" fill="#180B02"/>
<path d="M62.9846 79.6126C61.5345 79.6652 61.4169 78.268 62.344 77.7687C63.6612 77.0604 62.3426 77.5874 97.3602 64.2728C101.233 62.8009 102.16 62.4744 102.537 63.5963C102.928 64.7638 102.4 64.8773 90.5039 69.3939C89.7 69.6996 63.8453 79.5822 62.986 79.6126H62.9846Z" fill="#180B02"/>
<path d="M82.7129 137.621C81.3527 137.514 81.3707 136.597 82.295 136.112C86.3368 133.992 100.221 129.236 104.917 127.677C108.609 126.45 109.413 126.282 109.738 127.265C110.169 128.571 109.366 128.802 94.9836 133.81C92.0668 134.825 85.7377 136.987 82.7142 137.619L82.7129 137.621Z" fill="#180B02"/>
<path d="M60.0691 72.1233C58.7297 72.2132 58.5415 71.1453 59.1919 70.657C60.047 70.0151 59.1656 70.4564 79.1035 62.3071C79.9586 61.9571 80.8124 61.6804 81.1971 62.6087C81.7353 63.9118 80.0403 64.2189 77.6714 65.1748C60.1273 72.2533 62.2609 71.4469 60.0691 72.1233Z" fill="#180B02"/>
<path d="M86.5889 143.761C84.9451 143.718 84.8593 142.284 86.1115 141.773C90.5851 139.95 92.5846 139.335 99.0188 137.157C100.671 136.598 101.422 138.43 99.6512 139.145C96.7551 140.315 88.8084 143.251 86.5889 143.761Z" fill="#180B02"/>
<path fill-rule="evenodd" clip-rule="evenodd" d="M116.733 100.927C114.755 104.108 113.611 107.86 113.611 111.875C113.611 123.344 122.946 132.672 134.414 132.672C145.886 132.672 155.217 123.344 155.217 111.875C155.217 109.787 154.908 107.77 154.333 105.868C153.751 106.17 153.148 106.452 152.523 106.715C152.992 108.355 153.242 110.087 153.242 111.877C153.242 122.258 144.797 130.7 134.414 130.7C124.031 130.7 115.586 122.258 115.586 111.877C115.586 108.325 116.575 104.999 118.293 102.161C117.758 101.764 117.237 101.351 116.733 100.927Z" fill="#0705CB"/>
<path fill-rule="evenodd" clip-rule="evenodd" d="M172.729 126.041L162.275 98.9814C161.818 99.6468 161.317 100.29 160.774 100.907C163.639 108.33 166.728 116.309 170.054 124.889C170.296 125.514 170.184 125.666 169.587 125.864C167.429 126.576 123.101 142.342 108.356 147.587L108.347 147.589L108.34 147.592C105.39 148.641 103.629 149.267 103.633 149.266C93.8422 152.688 87.7864 155.01 83.9983 156.462C79.333 158.251 78.1077 158.721 77.5814 158.305C77.3939 158.157 77.2949 157.897 77.1609 157.544L77.1559 157.531C77.1393 157.486 31.3536 38.4627 31.3674 38.5C31.0089 37.5779 31.1798 37.5135 36.2523 35.6053C38.0513 34.9286 40.4667 34.02 43.6935 32.7591L43.9657 32.6559C48.5095 30.9348 108.564 8.1861 121.965 2.74611C121.993 2.73449 122.021 2.72287 122.047 2.71152C122.164 2.66228 122.267 2.61843 122.372 2.61414C122.795 2.59671 123.245 3.21962 124.672 6.70191C125.157 6.22148 125.65 5.81035 126.148 5.46106L124.406 0.951913L124.383 0.909444C124.232 0.623922 124.108 0.389444 123.92 0.230083C123.056 -0.50295 120.842 0.354861 108.443 5.15824C103.014 7.26134 95.6323 10.1208 85.5564 13.9346C79.9221 16.0671 74.8409 17.9874 70.2594 19.7186C33.5734 33.5822 28.9361 35.3346 28.9316 37.0988C28.931 37.354 29.0274 37.6095 29.1377 37.902L29.1424 37.9148L75.274 158.45C75.331 158.598 75.385 158.739 75.4365 158.873C75.9941 160.33 76.2589 161.022 76.7351 161.229C77.1657 161.417 77.7693 161.208 78.9186 160.81C79.1555 160.728 79.4155 160.638 79.7019 160.543C89.8376 157.143 99.9097 153.554 109.962 149.906C132.904 141.58 147.566 136.449 156.899 133.185C170.54 128.411 172.794 127.622 172.869 126.664C172.884 126.474 172.813 126.276 172.729 126.041Z" fill="#180B02"/>
<path fill-rule="evenodd" clip-rule="evenodd" d="M121.43 102.625C99.6086 88.7277 107.83 62.3115 128.56 59.6104C129.469 60.2896 130.454 60.9901 131.527 61.7233C129.283 61.8054 127.043 62.2081 124.855 62.9839C101.064 71.4177 109.376 100.702 134.081 104.792C133.792 105.599 133.519 106.382 133.263 107.136C129.064 106.389 124.984 104.889 121.43 102.625ZM145.682 107.157C155.906 105.311 164.33 98.7209 164.378 87.5726C164.38 87.0704 164.364 86.5696 164.33 86.073C163.485 85.6442 162.676 85.2126 161.898 84.7754C163.417 92.3728 159.993 99.9023 148.385 103.929C147.702 104.166 146.976 104.354 146.226 104.505C146.043 105.396 145.862 106.281 145.682 107.157ZM147.11 100.169C153.699 98.0804 158.715 93.182 158.749 85.5736C158.753 84.6094 158.672 83.658 158.513 82.7226C157.705 82.1955 156.928 81.6602 156.169 81.1154C158.461 87.4826 156.647 94.1822 147.575 97.8716C147.422 98.6338 147.265 99.4001 147.11 100.169ZM143.584 82.9752C135.167 84.6717 122.225 78.3053 129.971 65.7091C109.059 70.1488 114.282 96.5837 136.19 99.2245C135.944 99.8442 135.704 100.458 135.47 101.064C131.801 100.559 128.204 99.3282 125.115 97.3611C107.619 86.2197 114.859 64.9911 131.549 63.5787C131.909 63.1877 132.281 62.8305 132.657 62.4956C133.269 62.9165 133.862 63.3322 134.441 63.7427C133.305 64.7596 131.849 66.7592 130.025 70.9326C126.986 77.8851 139.289 83.1338 145.165 80.1266C144.643 81.0242 144.114 81.9779 143.584 82.9752ZM148.747 75.1735C148.685 75.1197 148.621 75.0656 148.558 75.0115C148.531 75.1233 148.502 75.2348 148.473 75.3456C148.564 75.2798 148.656 75.2225 148.747 75.1735Z" fill="#180B02"/>
<path d="M153.491 77.3637C142.95 68.9073 146.298 70.032 132.62 60.7594C124.167 55.0296 121.313 51.4536 117.896 44.4373C116.248 41.0537 114.776 37.5676 114.023 33.834C113.687 32.1643 114.252 30.8211 115.789 30.1253C125.425 25.7663 133.142 44.7887 143.77 45.9479C147.389 46.3422 145.186 42.3927 143.007 39.55C135.024 29.1417 132.962 23.838 126.873 22.3453C125.849 22.095 125.24 21.9871 125.287 21.4904C125.397 20.334 128.807 19.8429 132.683 22.9208C134.619 24.4577 135.334 25.3652 145.387 39.3079C150.308 46.1347 146.636 48.5708 143.784 47.9994C137.61 46.7614 133.323 42.8161 124.891 34.2296C119.854 29.1002 114.606 31.3136 115.55 33.8797C124.722 58.8435 130.036 53.584 148.125 69.1535C152.593 72.9992 159.972 80.5924 175.235 86.2797C182.256 88.8956 189.451 89.348 191.55 90.5861C195.945 93.1799 172.812 92.8644 153.491 77.3637Z" fill="#180B02"/>
<path d="M214.234 59.7852C218.953 60.575 254.079 87.1511 257.904 90.0257C261.082 92.4148 261.171 94.9836 254.471 90.5639C243.327 83.2135 231.932 73.786 215.94 62.6445C213.325 60.8227 216.203 65.6395 206.474 81.0817C202.478 87.4237 193.891 95.7638 192.407 96.8843C191.519 97.5553 189.597 96.3753 228.614 142.849C231.485 146.27 230.76 148.035 226.62 143.729C219.762 136.595 200.065 112.422 197.048 108.279C188.864 97.0407 189.419 97.4654 191.291 95.4C200.124 85.6613 203.258 82.6325 208.24 72.1841C213.474 61.2058 212.417 60.0023 214.234 59.7852Z" fill="#180B02"/>
<path d="M142.523 9.08516C151.16 14.7845 155.927 17.406 159.221 22.5243C161.128 25.4875 159.848 26.6841 157.157 23.1413C153.891 18.8433 140.196 8.49032 131.695 7.12634C127.616 6.47202 122.074 14.862 120.22 18.5528C118.147 22.6807 121.176 27.6413 119.921 27.8723C119.603 27.9304 119.48 27.6814 119.37 27.4435C115.797 19.6885 118.645 15.4817 125.186 8.19981C131.727 0.919274 139.399 8.55395 141.038 7.8277C152.571 2.71624 170.479 18.0299 169.253 19.3703C168.027 20.7108 160.768 10.4228 147.675 8.251C145.91 7.95773 144.285 8.38933 142.523 9.08239V9.08516Z" fill="#180B02"/>
<path d="M177.779 13.1031C188.366 13.3632 194.107 24.8435 197.634 34.8244C200.979 44.2878 203.486 49.9859 209.461 59.6541C211.696 63.2688 209.912 64.3091 207.022 59.1326C193.063 34.137 193.854 18.0582 178.222 14.4615C176.679 14.106 176.346 13.9566 176.364 13.5568C176.389 13.0007 177.064 13.0851 177.779 13.1031Z" fill="#180B02"/>
<path d="M162.014 8.52663C170.518 8.40628 179.485 17.0771 178.783 18.015C177.968 19.1064 175.159 14.6161 167.405 11.0471C163.292 9.15467 158.203 10.2738 158.203 9.18925C158.203 8.44225 158.979 8.56952 162.014 8.52663Z" fill="#180B02"/>
<path d="M150.132 77.4813C149.486 82.3424 140.753 123.745 140.745 123.79C139.289 131.219 133.41 123.988 117.212 108.171C113.545 104.589 116.185 105.199 120.958 107.066C132.891 111.732 132.427 114.807 133.191 112.084C136.594 99.9732 149.635 70.8177 150.132 77.4813Z" fill="#0705CB"/>
</svg>
