<svg width="486" height="224" viewBox="0 0 486 224" fill="none" xmlns="http://www.w3.org/2000/svg">
<path fill-rule="evenodd" clip-rule="evenodd" d="M106.509 53.2939C127.418 41.1366 130.19 39.43 129.99 38.2111C129.959 38.0188 129.853 37.8387 129.733 37.6315L80.6155 -46.1018C79.9 -47.3151 79.6015 -47.8791 79.1876 -47.9831C78.7744 -48.0861 78.2463 -47.7313 77.0734 -47.1069C69.9757 -43.3297 62.9467 -39.4244 55.9426 -35.4765C39.9999 -26.4912 29.7702 -20.8794 23.249 -17.3009C21.53 -16.3582 20.068 -15.5559 18.8276 -14.8712C21.3239 -15.7474 24.1241 -16.7338 27.2614 -17.8472C27.2635 -17.8483 27.3311 -17.8722 27.4612 -17.919C27.8764 -18.0678 28.9191 -18.4403 30.4445 -18.9846C41.3447 -25.0292 54.6387 -32.4131 59.1372 -34.9115C60.1463 -35.4713 60.7128 -35.7866 60.7105 -35.7845C75.9795 -44.1559 78.1111 -46.1475 78.9156 -45.7084C79.0754 -45.6221 79.1828 -45.4389 79.3304 -45.1902C79.3491 -45.158 128.022 37.4973 128.007 37.4723C128.406 38.147 128.274 38.223 124.164 40.5899C122.987 41.2677 121.484 42.1333 119.573 43.2547C119.56 43.2623 113.691 46.6783 105.751 51.3137L106.509 53.2939Z" fill="#180B02"/>
<path d="M52.0954 64.1303C52.1058 63.2687 51.8467 63.5569 62.7248 59.1626C69.1513 56.5664 84.7973 50.2793 91.3414 47.99C92.6817 47.5207 92.4548 47.7684 95.6067 55.5518C96.1051 56.7818 95.9699 56.9868 94.7056 57.4987C86.2406 60.9274 67.7882 68.5579 57.089 72.3893C55.6853 72.8918 55.5969 72.8076 55.0485 71.4267C53.6323 67.8638 52.8144 66.1833 52.0954 64.1303ZM56.8684 70.8992C59.4366 69.997 63.0068 68.1843 93.8877 56.3052C94.7534 55.9722 94.332 56.1626 91.894 49.9879C91.5735 49.1752 91.4018 49.5436 89.5548 50.2824C52.1099 65.2603 53.6895 63.994 54.01 64.7359C56.7009 70.9762 56.4897 71.0313 56.8695 70.8981L56.8684 70.8992Z" fill="#180B02"/>
<path d="M87.6039 39.6834C88.5227 39.7573 88.478 40.5232 87.7839 40.8541C84.7215 42.314 86.4499 41.6366 68.7634 48.8654C54.2995 54.7769 54.5263 54.9548 54.0123 53.9756C53.4212 52.8487 54.5815 52.7957 72.0849 45.7115C81.6851 41.826 85.8089 40.0227 87.6039 39.6834Z" fill="#180B02"/>
<path d="M82.637 29.0153C83.7275 28.9758 83.816 30.0267 83.1188 30.4024C82.1282 30.9352 83.1198 30.5387 56.7861 40.5542C53.8736 41.6613 53.1764 41.9069 52.8934 41.063C52.5989 40.1848 52.9964 40.0994 61.9422 36.702C62.5467 36.472 81.9898 29.0382 82.6359 29.0153L82.637 29.0153Z" fill="#180B02"/>
<path d="M84.8299 34.6492C85.8372 34.5816 85.9787 35.3849 85.4896 35.7522C84.8466 36.2351 85.5094 35.9031 70.5159 42.0331C69.8728 42.2964 69.2308 42.5045 68.9415 41.8063C68.5367 40.826 69.8114 40.595 71.5929 39.876C84.7862 34.5514 83.1817 35.1581 84.8299 34.6492Z" fill="#180B02"/>
<path d="M80.3051 19.2567C81.2239 19.3306 81.1791 20.0964 80.4851 20.4273C77.4227 21.8872 79.1511 21.2098 61.4645 28.4387C47.0006 34.3501 47.2275 34.5281 46.7134 33.5489C46.1224 32.422 47.2826 32.3689 64.786 25.2847C74.3863 21.3992 78.5101 19.5959 80.3051 19.2567Z" fill="#180B02"/>
<path d="M75.3382 8.58855C76.4287 8.54901 76.5171 9.59999 75.8199 9.97563C74.8293 10.5084 75.821 10.1119 49.4873 20.1274C46.5748 21.2346 45.8776 21.4801 45.5946 20.6362C45.3001 19.758 45.6976 19.6727 54.6433 16.2752C55.2479 16.0453 74.6909 8.61145 75.3371 8.58855L75.3382 8.58855Z" fill="#180B02"/>
<path d="M77.5311 14.2225C78.5384 14.1548 78.6799 14.9582 78.1908 15.3255C77.5477 15.8083 78.2106 15.4764 63.217 21.6063C62.574 21.8696 61.9319 22.0777 61.6427 21.3795C61.2379 20.3993 62.5126 20.1683 64.294 19.4492C77.4874 14.1247 75.8828 14.7313 77.5311 14.2225Z" fill="#180B02"/>
<path fill-rule="evenodd" clip-rule="evenodd" d="M0.10695 -5.9073L7.96844 14.4473C8.31182 13.9468 8.68851 13.4629 9.09746 12.9988C6.94244 7.41511 4.6199 1.41311 2.11837 -5.0405C1.93627 -5.51084 2.02055 -5.6253 2.47008 -5.7741C4.09232 -6.31 37.4281 -18.1693 48.5163 -22.1141L48.5228 -22.1162L48.5285 -22.1183C50.7467 -22.907 52.0712 -23.3784 52.0677 -23.3774C59.4307 -25.9517 63.9847 -27.6978 66.8334 -28.7904C70.3418 -30.1359 71.2632 -30.4897 71.659 -30.1765C71.8 -30.0651 71.8744 -29.8695 71.9752 -29.6042L71.979 -29.5948C71.9915 -29.5604 106.423 59.9703 106.412 59.9422C106.682 60.6358 106.554 60.6842 102.739 62.1196C101.386 62.6286 99.5697 63.312 97.143 64.2605L96.9384 64.3381C93.5214 65.6328 48.3599 82.7446 38.2823 86.8367C38.2609 86.8454 38.2402 86.8542 38.2201 86.8627C38.1325 86.8997 38.0547 86.9327 37.9757 86.936C37.6575 86.9491 37.3195 86.4805 36.246 83.8611C35.8814 84.2225 35.5108 84.5317 35.1367 84.7945L36.4467 88.1863L36.4636 88.2182C36.5771 88.433 36.6703 88.6094 36.8116 88.7293C37.4614 89.2807 39.1265 88.6354 48.4508 85.0222C52.5335 83.4403 58.0845 81.2893 65.6617 78.4206C69.8988 76.8164 73.7199 75.372 77.1652 74.0697C104.753 63.6414 108.241 62.3232 108.244 60.9961C108.245 60.8042 108.172 60.612 108.089 60.392L108.086 60.3823L73.3942 -30.2857C73.3513 -30.3971 73.3107 -30.5032 73.272 -30.6041C72.8527 -31.6998 72.6535 -32.2201 72.2954 -32.3762C71.9716 -32.5177 71.5177 -32.3606 70.6534 -32.0609C70.4753 -31.9995 70.2797 -31.9319 70.0643 -31.8601C62.4422 -29.3024 54.8679 -26.6032 47.3082 -23.8592C30.0555 -17.596 19.0297 -13.7365 12.011 -11.2808C1.75313 -7.68978 0.0580452 -7.09667 0.00185464 -6.37555C-0.00958946 -6.233 0.043473 -6.08419 0.10695 -5.9073Z" fill="#180B02"/>
<path d="M9.09746 12.9988C8.68851 13.4629 8.31182 13.9468 7.96844 14.4473L35.1367 84.7945C35.5108 84.5317 35.8814 84.2225 36.246 83.8611L9.09746 12.9988Z" fill="#180B02"/>
<path fill-rule="evenodd" clip-rule="evenodd" d="M435.5 48.9511C412.405 56.1369 409.322 57.1819 409.245 58.4147C409.233 58.6092 409.295 58.8084 409.366 59.0371L438.564 151.618C438.991 152.961 439.156 153.577 439.536 153.771C439.916 153.963 440.51 153.735 441.793 153.388C449.554 151.29 457.277 149.051 464.986 146.766C482.531 141.564 493.755 138.376 500.91 136.342C502.796 135.807 504.401 135.351 505.762 134.96C503.134 135.258 500.184 135.594 496.877 135.98C496.875 135.98 496.804 135.989 496.666 136.005C496.229 136.058 495.129 136.188 493.521 136.378C481.547 139.839 466.94 144.07 461.998 145.502C460.889 145.823 460.267 146.004 460.269 146.002C443.518 150.756 440.995 152.222 440.309 151.614C440.173 151.494 440.109 151.292 440.02 151.017C440.009 150.981 411.005 59.5498 411.013 59.5774C410.775 58.8307 410.921 58.7861 415.455 57.3959C416.754 56.9978 418.412 56.4893 420.525 55.8224C420.539 55.8179 427.023 53.7976 435.796 51.0504L435.5 48.9511Z" fill="#180B02"/>
<path d="M490.96 50.5287C490.758 51.3663 491.075 51.1431 479.49 52.9997C472.646 54.0966 455.992 56.7345 449.102 57.506C447.691 57.6645 447.967 57.4737 446.632 49.1832C446.42 47.873 446.598 47.7034 447.944 47.4864C456.961 46.0328 476.651 42.7115 487.935 41.3638C489.415 41.1871 489.483 41.289 489.709 42.7573C490.295 46.5464 490.717 48.367 490.96 50.5287ZM487.817 42.8656C485.113 43.172 481.228 44.1424 448.475 48.8323C447.557 48.9638 448.01 48.8722 449.009 55.4352C449.14 56.2989 449.39 55.9781 451.355 55.67C491.198 49.4239 489.376 50.306 489.229 49.5112C487.998 42.8279 488.216 42.8212 487.816 42.8663L487.817 42.8656Z" fill="#180B02"/>
<path d="M458.081 123.788C457.102 123.482 457.269 122.812 458.028 122.612C461.346 121.736 472.322 120.578 476.027 120.223C478.939 119.942 479.556 119.954 479.63 120.729C479.726 121.759 479.099 121.794 467.716 123.053C465.407 123.308 460.404 123.831 458.082 123.787L458.081 123.788Z" fill="#180B02"/>
<path d="M450.892 66.4361C450.013 66.1591 450.227 65.4226 450.978 65.2549C454.289 64.515 452.453 64.7897 471.306 61.6891C486.725 59.1537 486.543 58.9296 486.826 59.9988C487.15 61.2292 486.008 61.0221 467.365 64.0225C457.14 65.6681 452.718 66.506 450.892 66.4361Z" fill="#180B02"/>
<path d="M453.355 77.9428C452.283 77.7381 452.431 76.6938 453.194 76.4832C454.279 76.1849 453.224 76.3501 481.128 72.4624C484.214 72.0329 484.949 71.9491 485.036 72.8349C485.127 73.7567 484.721 73.7512 475.243 75.0671C474.602 75.1564 453.991 78.0649 453.356 77.9431L453.355 77.9428Z" fill="#180B02"/>
<path d="M452.473 71.962C451.476 71.8032 451.518 70.9886 452.076 70.7396C452.811 70.4124 452.091 70.5881 468.074 67.9579C468.76 67.8447 469.432 67.7851 469.558 68.5302C469.734 69.5761 468.44 69.5168 466.543 69.8203C452.494 72.0671 454.194 71.8337 452.473 71.962Z" fill="#180B02"/>
<path d="M453.45 87.9772C452.571 87.7001 452.785 86.9636 453.535 86.7959C456.846 86.056 455.01 86.3307 473.864 83.2301C489.282 80.6947 489.101 80.4706 489.383 81.5398C489.708 82.7702 488.565 82.5631 469.923 85.5635C459.697 87.2092 455.275 88.047 453.45 87.9772Z" fill="#180B02"/>
<path d="M455.912 99.4838C454.84 99.2791 454.989 98.2349 455.752 98.0242C456.837 97.7259 455.781 97.8911 483.686 94.0034C486.772 93.5739 487.506 93.4901 487.594 94.3759C487.685 95.2977 487.279 95.2922 477.8 96.6081C477.16 96.6974 456.548 99.6059 455.913 99.4841L455.912 99.4838Z" fill="#180B02"/>
<path d="M455.031 93.503C454.034 93.3442 454.075 92.5296 454.634 92.2806C455.369 91.9535 454.648 92.1291 470.632 89.4989C471.317 89.3857 471.989 89.3261 472.116 90.0713C472.292 91.1171 470.997 91.0579 469.1 91.3613C455.052 93.6081 456.751 93.3748 455.031 93.503Z" fill="#180B02"/>
<path d="M459.891 128.941C458.693 128.634 458.871 127.567 459.875 127.403C463.46 126.817 465.029 126.701 470.111 126.184C471.416 126.051 471.659 127.52 470.241 127.748C467.922 128.12 461.604 128.939 459.891 128.941Z" fill="#180B02"/>
<path fill-rule="evenodd" clip-rule="evenodd" d="M526.011 130.4L522.889 108.804C522.443 109.216 521.968 109.603 521.466 109.964C522.321 115.888 523.246 122.257 524.244 129.106C524.317 129.605 524.209 129.698 523.738 129.743C522.037 129.903 486.895 134.026 475.207 135.397L475.2 135.398L475.194 135.399C472.855 135.673 471.459 135.837 471.463 135.837C463.711 136.703 458.882 137.389 455.862 137.819C452.141 138.348 451.164 138.487 450.848 138.093C450.736 137.953 450.707 137.746 450.668 137.465L450.666 137.455C450.662 137.419 437.073 42.4627 437.077 42.4924C436.969 41.7561 437.105 41.7376 441.144 41.1895C442.576 40.9951 444.499 40.7341 447.076 40.351L447.293 40.321C450.913 39.8213 498.754 33.2167 509.49 31.4762C509.513 31.4725 509.535 31.4686 509.557 31.4647C509.65 31.4482 509.734 31.4334 509.811 31.4479C510.125 31.5061 510.349 32.0382 510.812 34.8311C511.248 34.5602 511.678 34.3414 512.101 34.1688L511.581 30.5702L511.572 30.5353C511.509 30.3006 511.457 30.1078 511.346 29.9595C510.836 29.277 509.069 29.5345 499.173 30.9762C494.841 31.6075 488.95 32.4657 480.923 33.5716C476.435 34.19 472.388 34.7455 468.739 35.2462C439.52 39.2565 435.826 39.7635 435.527 41.0563C435.483 41.2433 435.511 41.4468 435.543 41.6798L435.544 41.69L449.133 137.813C449.149 137.931 449.165 138.043 449.181 138.15C449.345 139.312 449.423 139.864 449.737 140.096C450.021 140.306 450.499 140.254 451.408 140.155C451.595 140.134 451.801 140.112 452.027 140.09C460.028 139.298 468.013 138.356 475.995 137.368C494.21 135.112 505.819 133.81 513.209 132.982C524.009 131.77 525.794 131.57 526.009 130.88C526.052 130.743 526.034 130.586 526.011 130.4Z" fill="#180B02"/>
<path d="M521.466 109.964C521.968 109.603 522.443 109.216 522.889 108.804L512.101 34.1688C511.678 34.3414 511.248 34.5602 510.812 34.8311L521.466 109.964Z" fill="#180B02"/>
<path fill-rule="evenodd" clip-rule="evenodd" d="M62.888 156.6C59.9461 156.504 56.9443 157.2 54.2127 158.777C46.4084 163.283 43.7274 173.298 48.2316 181.099C52.7374 188.903 62.7491 191.586 70.5533 187.08C71.9738 186.26 73.225 185.258 74.2932 184.119C73.8597 183.842 73.4308 183.543 73.0063 183.221C72.0741 184.184 70.994 185.035 69.776 185.738C62.7125 189.816 53.6511 187.388 49.573 180.325C45.4949 173.261 47.9229 164.2 54.9863 160.122C57.4036 158.726 60.0551 158.093 62.6613 158.146C62.7213 157.626 62.7973 157.11 62.888 156.6Z" fill="#0705CB"/>
<path fill-rule="evenodd" clip-rule="evenodd" d="M48.2151 165.071C49.6032 162.475 51.707 160.223 54.4387 158.646C62.2429 154.141 72.2562 156.826 76.7604 164.627C81.2662 172.432 78.5836 182.443 70.7793 186.949C69.3589 187.769 67.8653 188.352 66.3449 188.707C66.3219 188.194 66.277 187.672 66.2102 187.144C67.5108 186.818 68.7876 186.308 70.0057 185.605C77.0691 181.527 79.4971 172.465 75.419 165.402C71.3409 158.338 62.2795 155.91 55.216 159.988C52.7988 161.384 50.9246 163.364 49.6677 165.647C49.1874 165.439 48.7024 165.247 48.2151 165.071Z" fill="#0705CB"/>
<path d="M91.9594 170.11C88.3979 171.581 56.796 181.905 56.7617 181.917C51.1353 183.846 53.7462 177.005 58.1473 159.773C59.1441 155.871 59.766 157.907 60.3705 161.887C61.8823 171.837 59.6078 172.73 61.7602 172.18C71.3376 169.737 96.2985 167.155 91.9594 170.11Z" fill="#0705CB"/>
<path fill-rule="evenodd" clip-rule="evenodd" d="M383.533 17.9292C386.184 16.6488 388.52 14.6393 390.208 11.9747C395.03 4.36206 392.758 -5.75308 385.148 -10.5738C377.536 -15.3963 367.422 -13.127 362.6 -5.51439C361.722 -4.12885 361.079 -2.66043 360.661 -1.15596C361.173 -1.11183 361.692 -1.04554 362.218 -0.957093C362.596 -2.24324 363.159 -3.49809 363.911 -4.68621C368.276 -11.5763 377.429 -13.6301 384.319 -9.26539C391.209 -4.90068 393.263 4.25282 388.899 11.1429C387.405 13.5008 385.35 15.2921 383.017 16.4541C383.205 16.9426 383.377 17.4351 383.533 17.9292Z" fill="#0705CB"/>
<path fill-rule="evenodd" clip-rule="evenodd" d="M392.601 3.61668C392.575 6.55997 391.757 9.53064 390.069 12.1952C385.246 19.8079 375.13 22.0754 367.52 17.2546C359.908 12.4321 357.638 2.31876 362.461 -5.29389C363.338 -6.67943 364.391 -7.88843 365.573 -8.90897C365.832 -8.46451 366.114 -8.0236 366.418 -7.58624C365.417 -6.69446 364.523 -5.65017 363.77 -4.46204C359.405 2.428 361.459 11.5815 368.349 15.9462C375.239 20.3109 384.393 18.2571 388.757 11.367C390.251 9.00914 390.993 6.38588 391.046 3.77965C391.568 3.74112 392.087 3.68632 392.601 3.61668Z" fill="#0705CB"/>
<path d="M351.512 19.4504C353.985 16.4955 377.188 -7.31408 377.212 -7.34089C381.302 -11.6596 382.163 -4.38887 386.261 12.9185C387.188 16.837 385.692 15.3223 383.31 12.0776C377.354 3.96436 378.954 2.11809 377.303 3.604C369.953 10.2124 349.04 24.0821 351.512 19.4504Z" fill="#0705CB"/>
<path fill-rule="evenodd" clip-rule="evenodd" d="M347.279 219.595C347.422 222.535 348.359 225.471 350.152 228.066C355.275 235.479 365.474 237.34 372.885 232.219C380.298 227.096 382.161 216.9 377.038 209.486C376.106 208.137 375.005 206.971 373.784 205.998C373.543 206.453 373.279 206.905 372.992 207.354C374.028 208.205 374.964 209.213 375.763 210.37C380.4 217.08 378.714 226.308 372.004 230.945C365.294 235.582 356.066 233.896 351.429 227.186C349.842 224.89 348.996 222.298 348.838 219.696C348.315 219.678 347.795 219.644 347.279 219.595Z" fill="#0705CB"/>
<path fill-rule="evenodd" clip-rule="evenodd" d="M356.911 233.534C354.211 232.361 351.797 230.446 350.003 227.851C344.88 220.438 346.746 210.24 354.157 205.118C361.57 199.995 371.766 201.858 376.889 209.272C377.822 210.621 378.523 212.062 379.001 213.549C378.491 213.614 377.975 213.701 377.453 213.81C377.024 212.54 376.412 211.309 375.612 210.152C370.975 203.442 361.747 201.756 355.037 206.393C348.327 211.029 346.641 220.258 351.278 226.968C352.865 229.264 354.99 230.972 357.368 232.039C357.199 232.535 357.047 233.034 356.911 233.534Z" fill="#0705CB"/>
<path d="M358.391 189.525C360.145 192.956 372.995 223.617 373.01 223.651C375.388 229.102 368.359 227.054 350.826 224.063C346.857 223.386 348.835 222.601 352.753 221.676C362.548 219.363 363.623 221.558 362.9 219.457C359.689 210.109 355.093 185.44 358.391 189.525Z" fill="#0705CB"/>
<path fill-rule="evenodd" clip-rule="evenodd" d="M203.538 77.1934C181.697 89.8922 178.801 91.6747 179.01 92.9479C179.043 93.1488 179.153 93.3369 179.278 93.5534L230.584 181.016C231.331 182.283 231.643 182.872 232.075 182.981C232.507 183.089 233.059 182.718 234.284 182.066C241.698 178.12 249.04 174.041 256.356 169.917C273.009 160.532 283.694 154.67 290.505 150.932C292.301 149.948 293.828 149.11 295.124 148.394C292.516 149.31 289.591 150.34 286.314 151.503C286.312 151.504 286.241 151.529 286.106 151.578C285.672 151.733 284.583 152.122 282.989 152.691C271.604 159.005 257.718 166.718 253.019 169.327C251.965 169.912 251.373 170.241 251.375 170.239C235.426 178.983 233.2 181.064 232.36 180.605C232.193 180.515 232.081 180.324 231.926 180.064C231.907 180.03 181.066 93.6936 181.082 93.7196C180.665 93.0149 180.803 92.9355 185.096 90.4633C186.325 89.7552 187.896 88.851 189.891 87.6797C189.905 87.6717 196.036 84.1036 204.329 79.2618L203.538 77.1934Z" fill="#180B02"/>
<path d="M260.374 65.8751C260.363 66.7751 260.634 66.474 249.271 71.064C242.558 73.7759 226.216 80.343 219.38 82.7342C217.98 83.2244 218.217 82.9657 214.925 74.8356C214.404 73.5509 214.545 73.3368 215.866 72.802C224.708 69.2206 243.982 61.2503 255.158 57.2483C256.624 56.7233 256.717 56.8113 257.289 58.2537C258.769 61.9753 259.623 63.7306 260.374 65.8751ZM255.388 58.8047C252.706 59.7471 248.977 61.6405 216.72 74.0487C215.816 74.3965 216.256 74.1976 218.803 80.6473C219.138 81.4962 219.317 81.1114 221.246 80.3397C260.359 64.6947 258.709 66.0175 258.374 65.2425C255.563 58.7243 255.784 58.6667 255.387 58.8058L255.388 58.8047Z" fill="#180B02"/>
<path d="M223.285 91.4106C222.325 91.3335 222.372 90.5335 223.096 90.1879C226.295 88.6629 224.49 89.3705 242.964 81.8197C258.072 75.645 257.835 75.4591 258.372 76.4819C258.99 77.659 257.778 77.7144 239.495 85.1141C229.467 89.1727 225.159 91.0563 223.285 91.4106Z" fill="#180B02"/>
<path d="M228.474 102.553C227.335 102.595 227.242 101.497 227.97 101.105C229.005 100.548 227.969 100.962 255.476 90.5007C258.518 89.3442 259.246 89.0877 259.542 89.9692C259.85 90.8866 259.434 90.9757 250.09 94.5245C249.459 94.7647 229.15 102.53 228.475 102.553H228.474Z" fill="#180B02"/>
<path d="M243.97 148.13C242.902 148.047 242.916 147.326 243.642 146.945C246.817 145.279 257.723 141.543 261.412 140.318C264.312 139.354 264.943 139.221 265.199 139.994C265.537 141.02 264.906 141.201 253.609 145.136C251.318 145.934 246.346 147.633 243.971 148.129L243.97 148.13Z" fill="#180B02"/>
<path d="M226.183 96.6682C225.131 96.7388 224.983 95.8997 225.494 95.516C226.166 95.0117 225.473 95.3584 241.135 88.9554C241.807 88.6805 242.477 88.4631 242.779 89.1924C243.202 90.2163 241.871 90.4576 240.01 91.2086C226.229 96.7703 227.905 96.1367 226.183 96.6682Z" fill="#180B02"/>
<path d="M247.014 152.956C245.723 152.922 245.656 151.795 246.64 151.394C250.153 149.961 251.724 149.477 256.778 147.767C258.076 147.328 258.666 148.767 257.275 149.329C255 150.248 248.758 152.555 247.014 152.956Z" fill="#180B02"/>
<path fill-rule="evenodd" clip-rule="evenodd" d="M270.695 119.3C269.141 121.8 268.243 124.747 268.243 127.902C268.243 136.913 275.575 144.242 284.584 144.242C293.595 144.242 300.924 136.913 300.924 127.902C300.924 126.261 300.682 124.677 300.23 123.182C299.773 123.419 299.3 123.641 298.808 123.847C299.177 125.137 299.373 126.497 299.373 127.904C299.373 136.06 292.74 142.693 284.584 142.693C276.428 142.693 269.794 136.06 269.794 127.904C269.794 125.113 270.571 122.5 271.921 120.269C271.5 119.957 271.092 119.633 270.695 119.3Z" fill="#0705CB"/>
<path fill-rule="evenodd" clip-rule="evenodd" d="M314.678 139.032L306.466 117.771C306.108 118.294 305.714 118.799 305.287 119.284C307.538 125.116 309.964 131.386 312.577 138.127C312.767 138.618 312.679 138.738 312.21 138.893C310.515 139.453 275.695 151.84 264.113 155.961L264.106 155.963L264.1 155.965C261.783 156.789 260.399 157.281 260.403 157.28C252.712 159.969 247.955 161.793 244.98 162.934C241.315 164.34 240.353 164.709 239.939 164.382C239.792 164.266 239.714 164.062 239.609 163.784L239.605 163.775C239.592 163.739 203.627 70.2206 203.638 70.25C203.356 69.5255 203.491 69.4749 207.475 67.9756C208.888 67.4439 210.785 66.73 213.32 65.7393L213.534 65.6582C217.103 64.3059 264.276 46.4319 274.802 42.1577C274.825 42.1485 274.846 42.1394 274.867 42.1305C274.959 42.0918 275.04 42.0573 275.123 42.054C275.455 42.0403 275.808 42.5297 276.929 45.2658C277.31 44.8883 277.697 44.5653 278.088 44.2908L276.72 40.7479L276.702 40.7146C276.584 40.4902 276.486 40.306 276.339 40.1808C275.66 39.6048 273.921 40.2788 264.181 44.0529C259.916 45.7053 254.118 47.9521 246.204 50.9486C241.778 52.6242 237.787 54.1329 234.188 55.4932C205.371 66.386 201.728 67.7629 201.725 69.1491C201.724 69.3496 201.8 69.5503 201.886 69.7801L201.89 69.7902L238.127 164.496C238.172 164.613 238.214 164.724 238.254 164.829C238.692 165.973 238.9 166.517 239.274 166.68C239.613 166.828 240.087 166.664 240.99 166.351C241.176 166.287 241.38 166.216 241.605 166.141C249.566 163.469 257.478 160.65 265.375 157.784C283.396 151.241 294.912 147.21 302.244 144.645C312.958 140.894 314.729 140.275 314.788 139.521C314.8 139.372 314.744 139.217 314.678 139.032Z" fill="#180B02"/>
<path fill-rule="evenodd" clip-rule="evenodd" d="M274.383 120.633C257.242 109.714 263.7 88.9582 279.984 86.8359C280.698 87.3696 281.472 87.92 282.314 88.4961C280.552 88.5606 278.792 88.877 277.073 89.4866C258.386 96.1132 264.915 119.122 284.32 122.336C284.093 122.97 283.879 123.585 283.678 124.177C280.379 123.59 277.175 122.412 274.383 120.633ZM293.433 124.194C301.464 122.744 308.081 117.566 308.118 108.806C308.121 108.412 308.108 108.018 308.081 107.628C307.417 107.291 306.782 106.952 306.171 106.609C307.364 112.578 304.674 118.494 295.556 121.658C295.02 121.844 294.449 121.992 293.86 122.11C293.717 122.81 293.574 123.506 293.433 124.194ZM294.555 118.704C299.731 117.062 303.671 113.214 303.697 107.236C303.7 106.478 303.637 105.73 303.512 104.996C302.877 104.581 302.267 104.161 301.671 103.733C303.471 108.736 302.046 114 294.92 116.898C294.799 117.497 294.677 118.099 294.555 118.704ZM291.785 105.194C285.174 106.527 275.008 101.525 281.092 91.6278C264.665 95.1161 268.768 115.886 285.977 117.961C285.783 118.448 285.595 118.931 285.412 119.407C282.529 119.01 279.704 118.043 277.277 116.497C263.534 107.743 269.221 91.0637 282.331 89.954C282.614 89.6467 282.906 89.3661 283.202 89.1029C283.682 89.4337 284.149 89.7603 284.603 90.0828C283.711 90.8817 282.567 92.4529 281.135 95.732C278.747 101.195 288.412 105.319 293.027 102.956C292.617 103.661 292.202 104.41 291.785 105.194ZM295.841 99.0641C295.792 99.0219 295.742 98.9794 295.692 98.9369C295.671 99.0247 295.648 99.1123 295.625 99.1994C295.697 99.1476 295.769 99.1026 295.841 99.0641Z" fill="#180B02"/>
<path d="M299.568 100.784C291.288 94.1402 293.918 95.0238 283.174 87.7383C276.534 83.2363 274.292 80.4266 271.608 74.9138C270.314 72.2552 269.157 69.5162 268.566 66.5826C268.302 65.2707 268.745 64.2153 269.953 63.6686C277.522 60.2437 283.584 75.1899 291.932 76.1007C294.774 76.4105 293.044 73.3073 291.332 71.0737C285.062 62.8958 283.442 58.7286 278.659 57.5558C277.855 57.3591 277.376 57.2743 277.413 56.8841C277.5 55.9754 280.178 55.5896 283.223 58.008C284.743 59.2155 285.305 59.9285 293.202 70.8835C297.068 76.2474 294.183 78.1615 291.943 77.7126C287.093 76.7398 283.726 73.6399 277.102 66.8935C273.146 62.8632 269.023 64.6023 269.765 66.6185C276.97 86.2329 281.144 82.1005 295.353 94.3337C298.862 97.3553 304.659 103.321 316.648 107.79C322.163 109.845 327.814 110.201 329.463 111.174C332.915 113.211 314.744 112.964 299.568 100.784Z" fill="#180B02"/>
<path d="M347.283 86.9736C350.989 87.5943 378.582 108.475 381.586 110.734C384.083 112.611 384.152 114.63 378.889 111.157C370.135 105.382 361.185 97.9743 348.623 89.2203C346.569 87.7888 348.83 91.5734 341.188 103.707C338.049 108.69 331.303 115.243 330.138 116.123C329.44 116.65 327.93 115.723 358.578 152.238C360.833 154.926 360.264 156.313 357.012 152.929C351.625 147.324 336.153 128.331 333.783 125.076C327.354 116.246 327.79 116.579 329.261 114.957C336.2 107.305 338.662 104.925 342.574 96.7156C346.686 88.0899 345.856 87.1443 347.283 86.9736Z" fill="#180B02"/>
<path d="M290.951 47.1377C297.736 51.6158 301.48 53.6755 304.068 57.6971C305.566 60.0252 304.56 60.9654 302.446 58.1818C299.881 54.8048 289.124 46.6703 282.446 45.5986C279.242 45.0845 274.889 51.6767 273.432 54.5765C271.804 57.8199 274.183 61.7176 273.198 61.8991C272.948 61.9447 272.851 61.7491 272.765 61.5621C269.959 55.4689 272.195 52.1636 277.333 46.4421C282.471 40.7217 288.498 46.7203 289.785 46.1497C298.844 42.1336 312.911 54.1657 311.948 55.2189C310.985 56.2721 305.283 48.1888 294.999 46.4823C293.612 46.2519 292.336 46.591 290.951 47.1355V47.1377Z" fill="#180B02"/>
<path d="M318.645 50.2942C326.961 50.4985 331.47 59.5188 334.241 67.3609C336.868 74.7964 338.837 79.2735 343.531 86.87C345.286 89.7101 343.885 90.5274 341.614 86.4602C330.65 66.8208 331.271 54.1875 318.992 51.3615C317.781 51.0822 317.519 50.9648 317.533 50.6507C317.552 50.2137 318.083 50.28 318.645 50.2942Z" fill="#180B02"/>
<path d="M306.264 46.6992C312.944 46.6047 319.987 53.4174 319.436 54.1543C318.796 55.0119 316.59 51.4838 310.498 48.6796C307.268 47.1927 303.271 48.072 303.271 47.2198C303.271 46.6329 303.88 46.7329 306.264 46.6992Z" fill="#180B02"/>
<path d="M296.931 100.878C296.424 104.698 289.564 137.228 289.558 137.264C288.414 143.101 283.796 137.419 271.073 124.992C268.192 122.178 270.266 122.657 274.015 124.123C283.389 127.789 283.024 130.205 283.624 128.066C286.297 118.551 296.541 95.6426 296.931 100.878Z" fill="#0705CB"/>
</svg>
