<svg width="600" height="210" viewBox="0 0 600 210" fill="none" xmlns="http://www.w3.org/2000/svg">
<g clip-path="url(#clip0_524_977)">
<path fill-rule="evenodd" clip-rule="evenodd" d="M354.971 134.562C354.173 133.312 353.407 132.042 352.673 130.753V130.752L352.606 130.634C354.539 123.336 354.471 115.093 354.401 106.616C354.304 94.7255 354.201 82.3711 359.615 71.5124C362.857 65.0081 368.241 64.5387 374.212 64.019C379.321 63.5735 384.86 63.0908 389.855 58.7571C391.25 57.5468 391.951 56.0783 392.059 54.6362C392.41 54.9126 392.777 55.184 393.16 55.4456C403.154 62.2535 419.103 65.3076 436.619 59.8222C437.27 59.6184 437.725 59.3561 438.049 59.1704C438.543 58.885 438.729 58.7777 438.838 59.3264C439.951 64.9661 437.463 106.416 421.719 130.659H421.717C421.701 130.684 421.661 130.76 421.596 130.884C421.584 130.905 421.573 130.927 421.561 130.948C419.738 130.239 417.863 129.672 415.953 129.25C402.291 126.197 371.609 130.733 354.971 134.562ZM344.417 61.4202C343.182 63.8808 341.939 66.3374 340.688 68.7899C339.179 71.7475 337.681 74.7109 336.195 77.6801C335.104 68.3766 335.013 61.3039 335.428 59.2026C335.536 58.6532 335.722 58.7612 336.216 59.0459C336.541 59.2323 336.995 59.4947 337.647 59.6984C339.934 60.4145 342.193 60.9854 344.417 61.4202ZM395.692 107.422C397.143 107.439 398.428 107.459 399.566 107.476C407.861 107.603 408.345 107.61 408.325 105.551C408.302 103.178 408.297 101.23 408.292 99.6317C408.278 94.2659 408.274 92.8379 407.64 92.4567C407.411 92.3189 407.098 92.3181 406.672 92.3173H406.641L405.138 92.314H405.137C402.049 92.3074 398.959 92.3008 395.871 92.3387H395.87C395.563 92.3429 395.34 92.3453 395.179 92.2463C394.752 91.9848 394.762 91.0088 394.799 87.4407C394.816 85.8072 394.838 83.6309 394.828 80.7302C394.823 79.444 394.66 78.4507 393.393 78.4565C391.343 78.4647 389.593 78.4647 388.099 78.4631C380.072 78.4565 379.445 78.4556 379.471 80.1007C379.502 82.0337 379.502 83.9666 379.502 85.8996C379.502 87.7295 379.5 89.5585 379.527 91.3875V91.4213C379.533 91.7621 379.536 92.0087 379.427 92.1861C379.141 92.6506 378.078 92.6357 374.223 92.5821C371.784 92.5444 369.344 92.5257 366.904 92.526C366.427 92.5252 366.095 92.5244 365.863 92.6762C365.328 93.0251 365.322 94.181 365.3 97.9916C365.291 100.156 365.265 102.321 365.222 104.485C365.157 107.566 365.246 107.567 368.382 107.636L368.414 107.637C372.093 107.718 374.535 107.671 376.155 107.64C379.239 107.581 379.341 107.579 379.329 108.624C379.294 111.698 379.296 114.773 379.297 117.848L379.298 120.12V120.222C379.297 120.677 379.296 121.011 379.444 121.257C379.852 121.939 381.399 121.94 387.243 121.941C388.814 121.941 390.698 121.941 392.954 121.955C394.727 121.965 394.713 121.056 394.654 117.184C394.642 116.369 394.628 115.421 394.628 114.325C394.649 114.325 394.67 110.117 394.615 108.527C394.585 107.667 394.825 107.411 395.694 107.421L395.692 107.422Z" fill="#F07D29"/>
<path fill-rule="evenodd" clip-rule="evenodd" d="M455.353 40.6929C456.015 40.3118 456.264 40.1682 456.409 40.9033H456.409C457.901 48.4603 454.542 103.984 433.47 136.48C433.449 136.513 433.396 136.614 433.309 136.778C433.182 137.018 432.984 137.394 432.707 137.895C430.633 136.062 428.482 134.475 426.15 133.142C443.661 105.871 446.448 59.6209 445.198 53.3097C445.076 52.6934 444.866 52.8147 444.311 53.1339C443.948 53.3427 443.436 53.6372 442.705 53.8665C423.037 60.0334 405.126 56.5956 393.901 48.9512C392.415 47.9397 391.145 46.7856 390.097 45.7749C390.058 45.4924 390 45.2128 389.923 44.9384C389.035 41.8331 385.345 37.2766 381.14 34.0245C383.188 32.4487 385.015 30.7467 386.594 28.9482C387.079 28.3955 388.139 29.435 389.757 31.0231C391.159 32.3984 392.979 34.1845 395.208 35.7025C408.6 44.8245 429.968 48.919 453.436 41.5674C454.309 41.2935 454.92 40.9429 455.353 40.6929ZM352.026 44.8344C342.505 45.7898 331.9 44.8707 320.827 41.4016C319.954 41.1285 319.345 40.7771 318.912 40.5271C318.249 40.146 317.999 40.0016 317.854 40.7375C316.836 45.8888 318.073 73.3357 325.642 100.581C327.587 95.831 329.675 91.1862 331.811 86.6743C328.849 70.2766 328.421 56.4232 329.065 53.1711C329.187 52.5556 329.396 52.6761 329.95 52.9953C330.313 53.2041 330.825 53.4986 331.557 53.7279C336.774 55.3606 341.866 56.3184 346.744 56.7029C348.699 52.6695 350.432 48.8728 351.819 45.3476C351.886 45.1768 351.955 45.0052 352.026 44.8344ZM378.493 166.208L374.46 166.175C371.17 166.148 367.945 166.123 364.801 166.08C365.414 166.571 366.024 167.064 366.633 167.56C371.905 171.837 386.008 183.278 387.997 182.144C394.921 178.197 402.924 172.117 408.868 166.743L408.225 166.758C406.86 166.788 405.588 166.816 404.448 166.869L404.369 166.873L404.294 166.869C401.459 166.721 398.623 166.602 395.785 166.515C393.116 168.451 390.4 170.243 387.857 171.693C386.916 172.228 382.744 169.41 378.493 166.208Z" fill="#F07D29"/>
<path d="M404.386 165.21C359.141 162.823 315.533 169.355 316.302 146.085C317.571 107.721 343.66 70.6132 353.363 45.9523C355.685 40.0528 359.934 33.9535 366.274 33.07C369.956 32.5568 371.741 30.1 377.331 33.4231C381.135 35.6852 387.132 41.1937 388.332 45.3922C389.16 48.292 387.547 49.4883 387.061 47.9893C385.216 42.2902 381.012 38.5447 376.362 35.224C374.46 33.8653 372.325 33.2878 369.929 34.2629C364.317 36.5457 359.934 34.3644 354.7 48.1864C346.198 70.6363 321.048 105.766 318.472 146.183C317.36 163.625 354.16 161.65 389.197 162.639C399.87 162.94 424.199 164.595 431.397 156.954C434.852 153.287 435.455 147.593 431.775 143.578C419.985 130.716 404.261 132.033 386.533 133.185C367.249 134.438 350.583 139.327 350.167 138.113C348.876 134.34 396.802 126.665 415.593 130.865C423.874 132.716 430.047 137.3 431.84 139.278C433.44 141.043 438.082 143.855 436.754 151.634C434.27 166.169 414.71 164.79 404.385 165.211L404.386 165.21Z" fill="#191919"/>
<path d="M368.14 61.0523C376.204 59.9526 381.371 60.5152 386.977 56.7672C387.926 56.1328 389.079 54.8384 388.542 53.6982C387.588 51.6729 385.986 52.2413 382.117 52.1802C379.037 52.1316 377.258 50.3124 377.251 47.2434C377.244 44.6183 377.282 41.9865 375.831 39.6237C374.835 38.0026 378.991 36.9095 378.976 47.0958C378.969 51.3709 382.93 50.3124 385.902 50.2893C389.959 50.258 392.122 54.5983 388.769 57.5081C378.487 66.4321 364.669 57.6624 358.132 70.7733C348.598 89.8951 355.621 113.493 350.92 130.669C349.435 136.096 345.034 143.517 344.228 143.08C342.921 142.369 348.772 134.242 350.064 123.078C351.766 108.386 345.783 64.1031 368.138 61.0531L368.14 61.0523Z" fill="#191919"/>
<path d="M405.855 156.732C403.734 155.19 405.6 150.831 410.46 139.695C411.78 136.674 413.313 135.953 416.461 136.984C419.154 137.866 421.319 140.173 420.251 143.603C418.355 149.69 417.296 153.422 413.884 157.808C412.118 160.08 408.008 158.298 405.855 156.732ZM406.906 154.328C406.657 156.134 411.414 158.394 412.649 156.879C413.874 155.379 414.848 153.727 415.647 151.964C415.818 151.588 415.762 151.412 415.402 151.254C408.476 148.223 408.512 148.35 408.234 148.982C407.51 150.631 407.072 152.348 406.906 154.327L406.906 154.328ZM414.233 138.35C412.487 138.249 412.28 140.012 410.975 142.562C410.674 143.151 410.962 143.33 411.436 143.476C417.245 145.262 417.246 147.555 418.296 144.394C418.607 143.457 419.01 142.524 418.799 141.487C418.412 139.595 416.479 138.48 414.233 138.351V138.35ZM417.225 147.759C417.297 147.313 417.409 147.389 412.534 145.237C410.156 144.188 409.892 144.34 409.072 146.906C408.699 148.072 409.831 147.092 415.719 150.07C416.447 150.438 416.238 150.403 417.225 147.76L417.225 147.759Z" fill="#191919"/>
<path d="M411.443 154.566C412.452 154.674 412.417 156.066 411.373 156.006C410.519 155.957 410.457 154.677 411.443 154.566Z" fill="#191919"/>
<path d="M408.749 152.246C409.609 152.4 409.424 153.467 408.708 153.424C407.992 153.381 407.919 152.352 408.749 152.246Z" fill="#191919"/>
<path d="M413.311 151.933C413.23 152.648 412.261 152.553 412.248 151.932C412.233 151.188 413.256 151.165 413.311 151.933Z" fill="#191919"/>
<path d="M414.355 141.967C414.235 143.004 412.906 142.871 412.948 142.061C412.99 141.252 414.302 141.14 414.355 141.967Z" fill="#191919"/>
<path d="M416.473 140.647C416.473 141.467 415.349 141.462 415.348 140.701C415.346 139.972 416.419 139.949 416.473 140.647Z" fill="#191919"/>
<path d="M417.652 143.282C417.623 144.056 416.581 144.079 416.573 143.311C416.567 142.666 417.501 142.606 417.652 143.282Z" fill="#191919"/>
<path d="M94.1247 -7.71399C92.6874 -11.2874 91.4612 -14.7547 91.4739 -16.1994C92.1853 -17.4568 94.9809 -19.8465 98.0123 -22.2225L98.9868 -25.7442C99.7355 -28.4516 100.47 -31.1072 101.2 -33.6922C100.952 -33.5091 100.703 -33.3264 100.453 -33.1442L100.512 -33.3432C94.6741 -29.557 87.7828 -24.2005 82.9191 -19.2711C82.7877 -19.1379 82.7253 -18.8895 82.7223 -18.5443C82.5523 -18.2439 82.4821 -17.9977 82.5294 -17.8165C84.2767 -11.1158 87.5665 -3.03118 90.7288 3.1665L90.7779 2.96497C90.9027 3.24747 91.027 3.53019 91.1508 3.81312C91.1705 3.73557 91.1902 3.65795 91.2099 3.58028C91.8519 1.0503 92.5235 -1.53882 93.2078 -4.1768L94.1247 -7.71399Z" fill="#F07D29"/>
<path fill-rule="evenodd" clip-rule="evenodd" d="M186.654 6.85221C185.805 7.42796 185.054 8.04589 184.386 8.69646C184.64 9.59393 184.98 10.5042 185.428 11.4274C186.127 12.8705 187.199 13.7889 188.383 14.2033C188.072 14.4357 187.762 14.6831 187.457 14.9466C180.537 20.9231 174.984 31.3271 174.091 44.4362L174.199 44.4137C174.063 46.3792 174.033 48.4043 174.118 50.4855C174.141 51.0754 174.258 51.5144 174.341 51.8282L174.343 51.8349C174.469 52.3126 174.517 52.493 174.033 52.4605C173.623 52.4333 173.014 52.3304 172.232 52.1541C163.681 50.2653 133.488 39.2456 118.051 22.0548L118.052 22.0535C118.035 22.0347 117.98 21.9837 117.891 21.9013C117.876 21.887 117.86 21.8724 117.845 21.8577L117.883 21.8057C117.011 20.9377 116.159 20.0488 115.33 19.1397C118.86 12.4775 123.36 2.81201 127.001 -6.68001C128.594 -16.7206 129.53 -27.341 129.803 -34.876C130.976 -35.2485 132.158 -35.5927 133.347 -35.9082L133.341 -35.9722C133.361 -35.9773 133.382 -35.9822 133.402 -35.9868C133.52 -36.0138 133.593 -36.0307 133.617 -36.0383L133.618 -36.0397C155.581 -43.2091 187.239 -37.656 195.589 -35.0163C196.354 -34.778 196.933 -34.5625 197.302 -34.3808C197.738 -34.167 197.606 -34.0347 197.257 -33.6845L197.252 -33.6795C197.024 -33.4493 196.703 -33.1272 196.388 -32.6283C195.274 -30.8684 194.287 -29.0995 193.423 -27.3291L193.34 -27.4028C187.559 -15.6036 187.166 -3.8167 190.171 4.81898C190.303 5.19983 190.448 5.56904 190.601 5.92551C189.369 5.69271 187.981 5.95215 186.654 6.85221ZM142.483 8.53187C142.745 7.60983 143.039 6.57509 143.365 5.41125L143.365 5.41282C143.569 4.68547 143.409 4.42648 142.683 4.25855C141.338 3.9481 137.82 2.98676 137.825 2.96875C136.907 2.72275 136.11 2.52204 135.425 2.34955L135.424 2.34916C133.076 1.75822 132.024 1.49341 131.774 0.834088C131.794 -0.0191525 132.232 -1.66378 133.135 -5.0363C134.039 -8.40856 134.482 -10.052 134.891 -10.8009C135.438 -11.2464 136.481 -10.9499 138.81 -10.288L138.811 -10.2876C139.491 -10.0943 140.281 -9.87002 141.199 -9.62402C141.204 -9.64203 144.731 -8.71535 146.051 -8.31205C146.764 -8.09423 147.032 -8.23847 147.219 -8.97025L147.218 -8.96906C147.518 -10.141 147.781 -11.185 148.015 -12.1151L148.016 -12.1166L148.045 -12.2347C149.805 -19.229 149.908 -19.6374 151.628 -19.1581C153.492 -18.639 155.045 -18.2179 156.335 -17.8678L156.577 -17.8023C160.821 -16.653 162.121 -16.3008 162.4 -15.7439C162.377 -15.6468 162.348 -15.5411 162.317 -15.4253L162.316 -15.4233C161.768 -13.3742 161.203 -11.3294 160.622 -9.28902L160.622 -9.28794C159.71 -6.06396 159.459 -5.1743 159.783 -4.82971C159.907 -4.69846 160.114 -4.64589 160.401 -4.5743L160.429 -4.56671C161.884 -4.20018 163.332 -3.81196 164.781 -3.42359L165.03 -3.3569C166.649 -2.92251 168.267 -2.48882 169.893 -2.08146C169.946 -2.06801 169.998 -2.0543 170.047 -2.03997C170.255 -1.95886 170.439 -1.86678 170.589 -1.75613C171.049 -1.27637 170.829 -0.131911 169.889 3.41573L169.541 4.71864L169.191 6.021C168.232 9.5636 167.849 10.6644 167.211 10.8498C167.026 10.8706 166.82 10.8584 166.6 10.8246C166.55 10.8125 166.499 10.7988 166.446 10.7836C164.834 10.3236 163.216 9.88989 161.597 9.4569L161.349 9.3904C159.899 9.00211 158.45 8.61396 157.007 8.20413L156.979 8.19654C156.695 8.11524 156.489 8.05712 156.316 8.10878C155.863 8.24498 155.636 9.14118 154.814 12.3892L154.813 12.3904C154.296 14.4477 153.763 16.5009 153.213 18.5499L153.213 18.5519C153.182 18.6678 153.154 18.7735 153.125 18.8691C152.605 19.2121 151.304 18.8672 147.053 17.7403L146.81 17.6759C145.518 17.3339 143.963 16.9224 142.089 16.4399C140.36 15.9952 140.476 15.5902 142.448 8.65287L142.483 8.53187Z" fill="#F07D29"/>
<path d="M205.467 -17.3182C205.511 -17.2851 205.555 -17.2518 205.599 -17.2185C206.941 -25.4282 210.097 -34.1278 215.494 -42.6488C215.919 -43.3206 216.35 -43.7538 216.657 -44.0614L216.658 -44.0624C217.125 -44.5325 217.302 -44.71 216.719 -44.9968C215.934 -45.3831 214.442 -45.8841 212.369 -46.4397C198.741 -50.1223 159.25 -56.288 131.388 -47.2147C131.358 -47.2048 131.272 -47.1852 131.133 -47.1535L131.102 -47.1464L131.087 -47.143C130.857 -47.09 130.503 -47.0084 130.031 -46.8912C131.1 -44.7381 131.945 -42.5751 132.536 -40.3181C145.543 -44.4897 161.519 -44.738 175.084 -43.6078L175.113 -43.5826C185.971 -42.6838 195.292 -40.8992 200.325 -39.5313C201.906 -39.0979 203.05 -38.7078 203.669 -38.4029C204.157 -38.1624 204.009 -38.0136 203.618 -37.62L203.615 -37.617C203.358 -37.3591 202.997 -36.996 202.642 -36.4348C193.052 -21.3003 191.9 -5.48736 195.775 5.65461C196.288 7.12936 196.969 8.45459 197.579 9.56194L199.004 12.5365L196.244 14.5431C195.162 15.197 193.91 16.0043 192.728 17.0252C183.802 24.7369 176.893 39.0072 177.63 56.9089C177.658 57.5728 177.789 58.0677 177.882 58.4193L177.883 58.4216L177.883 58.4234C178.025 58.9599 178.079 59.1626 177.536 59.1269C176.848 59.0817 175.664 58.848 174.082 58.4339C169.04 57.1029 160.072 53.9871 150.216 49.335L150.178 49.342C137.866 43.5386 124.154 35.3354 114.975 25.219C113.335 26.878 111.521 28.3288 109.52 29.6593C109.869 29.9959 110.135 30.2436 110.308 30.4046L110.343 30.4373C110.447 30.534 110.511 30.594 110.533 30.6176C130.125 52.4067 167.41 66.8128 181.052 70.4372C183.125 70.9924 184.668 71.3046 185.54 71.3624C186.189 71.4055 186.125 71.1635 185.955 70.5227L185.954 70.5214C185.843 70.1015 185.686 69.5107 185.653 68.7164C185.24 58.6387 186.857 49.5267 189.799 41.7456C189.745 41.7527 189.69 41.7596 189.636 41.7664C192.928 33.0286 197.889 25.9654 203.528 21.0952C204.136 20.5702 204.759 20.0926 205.376 19.6565L205.402 19.7205C205.837 19.3869 206.275 19.066 206.716 18.7582C207.415 18.3125 208.08 17.9187 208.673 17.5675C209.282 17.2071 209.815 16.8914 210.232 16.6101C210.448 16.4967 210.664 16.3863 210.88 16.2791C211.039 16.2003 211.105 16.0567 211.097 15.8535C211.206 15.6817 211.22 15.5243 211.122 15.3766C210.988 15.1756 210.856 14.9719 210.726 14.7659C210.506 14.3138 210.202 13.7737 209.855 13.1572C209.516 12.5563 209.137 11.8829 208.755 11.1474C208.527 10.6604 208.308 10.1636 208.099 9.65733L208.044 9.69941C207.728 9.0137 207.427 8.28827 207.163 7.52967C204.715 0.492716 203.949 -8.10513 205.467 -17.3182Z" fill="#F07D29"/>
<path d="M186.654 6.85221C185.805 7.42796 185.054 8.04589 184.386 8.69646C184.64 9.59393 184.98 10.5042 185.428 11.4274C186.127 12.8705 187.199 13.7889 188.383 14.2033L193.143 10.9659L190.601 5.92551C189.369 5.69271 187.981 5.95215 186.654 6.85221Z" fill="#F07D29"/>
<path d="M132.536 -40.3181C131.945 -42.5751 131.1 -44.7381 130.031 -46.8912L101.2 -33.6922C100.47 -31.1072 99.7355 -28.4516 98.9868 -25.7442L98.0123 -22.2225L132.536 -40.3181Z" fill="#F07D29"/>
<path d="M109.52 29.6593C111.521 28.3288 113.335 26.878 114.975 25.219L94.1247 -7.71399L93.2078 -4.1768C92.5235 -1.53882 91.8519 1.0503 91.2099 3.58028L109.52 29.6593Z" fill="#F07D29"/>
<path d="M115.33 19.1397C118.86 12.4775 123.36 2.81201 127.001 -6.68001C128.594 -16.7206 129.53 -27.341 129.803 -34.876L96.1756 -14.9396L115.33 19.1397Z" fill="#F07D29"/>
<path d="M579.984 253.845C577.092 256.388 574.229 258.698 572.862 259.166C571.44 258.913 568.257 257.071 565.008 255.002L561.363 255.254C558.56 255.448 555.812 255.638 553.131 255.808C553.386 255.982 553.641 256.156 553.896 256.331L553.689 256.342C559.201 260.589 566.544 265.307 572.809 268.255C572.979 268.335 573.234 268.311 573.56 268.199C573.9 268.26 574.156 268.244 574.311 268.139C580.05 264.264 586.581 258.473 591.374 253.43L591.168 253.451C591.393 253.239 591.618 253.028 591.844 252.817C591.764 252.825 591.685 252.832 591.605 252.839C589.005 253.075 586.34 253.302 583.625 253.534L579.984 253.845Z" fill="#F07D29"/>
<path fill-rule="evenodd" clip-rule="evenodd" d="M562.96 161.736C563.785 162.346 564.617 162.848 565.453 163.262C566.215 162.724 566.96 162.1 567.682 161.371C568.811 160.232 569.32 158.916 569.318 157.662C569.64 157.877 569.977 158.087 570.327 158.288C578.264 162.827 589.922 164.606 602.582 161.09L602.525 160.995C604.424 160.47 606.344 159.825 608.279 159.053C608.827 158.835 609.202 158.579 609.471 158.396L609.477 158.393C609.885 158.114 610.039 158.009 610.169 158.476C610.28 158.872 610.386 159.481 610.479 160.277C611.541 168.969 611.186 201.109 600.105 221.382L600.103 221.382C600.091 221.405 600.061 221.473 600.013 221.585C600.005 221.604 599.996 221.623 599.987 221.642L599.926 221.624C599.397 222.735 598.842 223.834 598.26 224.918C590.803 223.803 580.192 222.773 570.029 222.495C560.03 224.331 549.703 226.979 542.505 229.226C541.764 228.244 541.047 227.243 540.354 226.227L540.295 226.254C540.284 226.237 540.272 226.219 540.261 226.201C540.196 226.098 540.156 226.036 540.141 226.015L540.14 226.015C526.076 207.685 520.789 175.982 520.502 167.229C520.472 166.428 520.483 165.81 520.532 165.402C520.589 164.92 520.757 165 521.203 165.213L521.21 165.216C521.503 165.355 521.913 165.55 522.489 165.682C524.519 166.147 526.515 166.489 528.472 166.716L528.43 166.819C541.48 168.349 552.727 164.8 559.873 159.095C560.188 158.844 560.488 158.585 560.773 158.322C560.963 159.561 561.669 160.784 562.96 161.736ZM579.229 202.836C578.272 202.896 577.198 202.962 575.992 203.042L575.994 203.041C575.24 203.091 575.049 203.328 575.132 204.069C575.286 205.44 575.549 209.078 575.531 209.079C575.604 210.027 575.679 210.844 575.744 211.548L575.744 211.55C575.968 213.96 576.067 215.04 575.529 215.496C574.718 215.76 573.021 215.894 569.54 216.163C566.059 216.432 564.362 216.561 563.519 216.424C562.917 216.056 562.85 214.973 562.7 212.557L562.7 212.556C562.657 211.85 562.606 211.031 562.532 210.083C562.514 210.085 562.215 206.45 562.157 205.071C562.125 204.326 561.9 204.121 561.147 204.188L561.149 204.189C559.944 204.295 558.872 204.395 557.917 204.483L557.915 204.483L557.794 204.494C550.612 205.16 550.193 205.199 550.073 203.417C549.943 201.487 549.824 199.882 549.725 198.549L549.707 198.299C549.38 193.914 549.28 192.571 549.712 192.123C549.811 192.112 549.921 192.104 550.04 192.095L550.042 192.095C552.157 191.931 554.273 191.784 556.391 191.653L556.392 191.653C559.736 191.441 560.658 191.383 560.876 190.962C560.958 190.802 560.939 190.589 560.911 190.295L560.909 190.266C560.771 188.772 560.655 187.277 560.54 185.781L560.52 185.524C560.392 183.853 560.263 182.183 560.106 180.514C560.101 180.459 560.097 180.406 560.094 180.355C560.102 180.132 560.127 179.928 560.182 179.75C560.481 179.156 561.634 178.983 565.292 178.69L566.637 178.585L567.981 178.482C571.641 178.209 572.807 178.204 573.194 178.744C573.275 178.912 573.332 179.11 573.373 179.329C573.378 179.38 573.382 179.433 573.386 179.488C573.488 181.161 573.617 182.832 573.746 184.502L573.766 184.758C573.882 186.254 573.998 187.75 574.091 189.247L574.093 189.276C574.111 189.571 574.124 189.785 574.231 189.931C574.51 190.313 575.43 190.229 578.767 189.924L578.768 189.924C580.881 189.728 582.994 189.549 585.109 189.386L585.111 189.385C585.231 189.376 585.34 189.367 585.44 189.363C585.936 189.739 586.044 191.081 586.394 195.465L586.414 195.715C586.521 197.048 586.65 198.651 586.818 200.578C586.973 202.357 586.553 202.383 579.354 202.829L579.229 202.836Z" fill="#F07D29"/>
<path d="M533.909 152.028C533.926 151.976 533.943 151.924 533.96 151.872C525.771 153.335 516.517 153.251 506.686 150.994C505.911 150.816 505.359 150.554 504.967 150.367L504.966 150.366C504.367 150.081 504.141 149.974 504.064 150.619C503.961 151.488 503.985 153.062 504.15 155.201C505.207 169.278 512.522 208.573 530.342 231.834C530.361 231.859 530.408 231.933 530.484 232.053L530.501 232.08L530.509 232.093C530.636 232.292 530.83 232.6 531.098 233.005C532.773 231.282 534.532 229.766 536.464 228.458C528.206 217.577 522.66 202.593 519.216 189.424L519.23 189.388C516.468 178.849 515.052 169.464 514.669 164.263C514.552 162.628 514.54 161.419 514.622 160.735C514.686 160.194 514.876 160.284 515.377 160.522L515.381 160.524C515.71 160.68 516.172 160.9 516.82 161.049C534.281 165.062 549.578 160.891 558.798 153.532C560.018 152.558 561.042 151.476 561.883 150.532L564.214 148.198L567.025 150.135C568.001 150.938 569.179 151.85 570.534 152.625C580.775 158.48 596.531 160.252 613.169 153.605C613.786 153.358 614.209 153.07 614.51 152.865L614.512 152.864L614.513 152.863C614.972 152.551 615.145 152.433 615.292 152.957C615.478 153.62 615.651 154.814 615.787 156.445C616.208 161.642 616.251 171.136 615.14 181.978L615.159 182.011C613.779 195.553 610.601 211.212 604.112 223.232C606.222 224.227 608.193 225.455 610.113 226.901C610.315 226.46 610.46 226.126 610.554 225.91L610.573 225.866C610.63 225.735 610.665 225.655 610.68 225.627C624.716 199.904 625.907 159.951 624.79 145.88C624.624 143.74 624.406 142.182 624.17 141.34C623.996 140.714 623.789 140.855 623.241 141.228L623.24 141.229C622.881 141.474 622.376 141.818 621.637 142.113C612.27 145.853 603.139 147.357 594.822 147.169C594.847 147.218 594.872 147.267 594.896 147.317C585.561 147.117 577.25 144.785 570.782 141.087C570.085 140.688 569.427 140.259 568.811 139.823L568.863 139.776C568.404 139.477 567.955 139.171 567.519 138.857C566.866 138.346 566.273 137.85 565.745 137.407C565.203 136.953 564.728 136.555 564.324 136.255C564.145 136.089 563.969 135.922 563.796 135.754C563.669 135.63 563.511 135.616 563.323 135.691C563.124 135.646 562.971 135.684 562.864 135.826C562.719 136.019 562.571 136.211 562.42 136.402C562.067 136.76 561.659 137.227 561.193 137.759C560.738 138.278 560.229 138.859 559.663 139.464C559.279 139.841 558.883 140.213 558.476 140.579L558.534 140.617C557.992 141.142 557.408 141.667 556.78 142.169C550.957 146.817 543.103 150.397 533.909 152.028Z" fill="#F07D29"/>
<path d="M562.96 161.736C563.785 162.346 564.617 162.848 565.453 163.262C566.215 162.724 566.96 162.1 567.682 161.371C568.811 160.232 569.32 158.916 569.318 157.662L564.682 154.249L560.773 158.322C560.963 159.561 561.669 160.784 562.96 161.736Z" fill="#F07D29"/>
<path d="M536.464 228.458C534.532 229.766 532.773 231.282 531.098 233.005L553.131 255.808C555.812 255.638 558.56 255.448 561.363 255.254L565.008 255.002L536.464 228.458Z" fill="#F07D29"/>
<path d="M610.113 226.901C608.193 225.455 606.222 224.227 604.112 223.232L579.984 253.845L583.625 253.534C586.34 253.302 589.005 253.075 591.605 252.839L610.113 226.901Z" fill="#F07D29"/>
<path d="M598.26 224.918C590.803 223.803 580.192 222.773 570.029 222.495C560.03 224.331 549.703 226.979 542.505 229.226L572.487 254.313L598.26 224.918Z" fill="#F07D29"/>
<path d="M260.781 232.458C260.343 234.799 259.83 237.015 259.344 237.765C258.555 238.184 256.302 238.502 253.932 238.733L252.253 240.247C250.963 241.41 249.697 242.551 248.457 243.656C248.648 243.644 248.838 243.631 249.029 243.619L248.932 243.703C253.235 243.669 258.61 243.165 262.785 242.21C262.898 242.184 263.013 242.075 263.129 241.896C263.318 241.796 263.436 241.691 263.472 241.581C264.787 237.505 265.758 232.195 266.168 227.911L266.076 228C266.105 227.811 266.134 227.622 266.163 227.434C266.127 227.468 266.091 227.502 266.055 227.536C264.879 228.642 263.669 229.769 262.435 230.918L260.781 232.458Z" fill="#F07D29"/>
<path fill-rule="evenodd" clip-rule="evenodd" d="M217.359 194.11C217.994 194.091 218.59 194.019 219.155 193.901C219.321 193.349 219.446 192.761 219.519 192.131C219.634 191.145 219.38 190.31 218.901 189.701C219.14 189.683 219.384 189.657 219.63 189.621C225.226 188.803 231.58 185.222 236.402 178.681L236.339 178.657C237.063 177.677 237.752 176.631 238.399 175.517C238.583 175.201 238.668 174.934 238.729 174.742L238.73 174.738C238.823 174.447 238.858 174.337 239.099 174.515C239.304 174.665 239.588 174.922 239.937 175.273C243.769 179.1 255.856 194.882 258.194 208.979L258.194 208.98C258.196 208.995 258.208 209.04 258.227 209.112C258.23 209.125 258.233 209.138 258.236 209.15L258.199 209.165C258.366 209.907 258.515 210.654 258.645 211.404C254.589 213.706 249.03 217.252 243.977 220.993C239.809 225.7 235.791 230.929 233.145 234.768C232.409 234.573 231.678 234.359 230.953 234.129L230.935 234.164C230.923 234.16 230.91 234.156 230.898 234.152C230.827 234.126 230.784 234.111 230.769 234.107L230.768 234.107C216.93 230.548 202.263 217.13 198.785 212.979C198.464 212.6 198.234 212.295 198.102 212.078C197.946 211.821 198.059 211.796 198.357 211.729L198.361 211.728C198.557 211.684 198.831 211.623 199.161 211.467C200.327 210.92 201.43 210.325 202.469 209.689L202.488 209.755C209.425 205.522 213.546 199.504 214.849 194.001C214.907 193.759 214.954 193.518 214.993 193.281C215.558 193.812 216.368 194.138 217.359 194.11ZM240.957 207.913C240.514 208.307 240.016 208.749 239.46 209.248L239.46 209.247C239.112 209.558 239.109 209.747 239.432 210.076C240.03 210.684 241.546 212.355 241.538 212.363C241.935 212.796 242.283 213.166 242.584 213.483L242.584 213.484C243.612 214.572 244.073 215.06 243.985 215.487C243.69 215.926 242.915 216.638 241.323 218.097C239.731 219.555 238.954 220.265 238.492 220.52C238.058 220.57 237.613 220.069 236.618 218.95L236.618 218.949C236.327 218.623 235.99 218.243 235.593 217.81C235.584 217.818 234.052 216.162 233.498 215.513C233.198 215.162 233.011 215.148 232.67 215.468L232.671 215.468C232.125 215.979 231.641 216.436 231.21 216.844L231.209 216.844L231.154 216.896C227.912 219.959 227.722 220.138 226.985 219.317C226.185 218.426 225.515 217.691 224.958 217.079L224.854 216.965C223.022 214.955 222.461 214.339 222.501 213.956C222.545 213.913 222.595 213.867 222.65 213.817L222.651 213.817C223.618 212.93 224.592 212.051 225.573 211.18L225.573 211.179C227.12 209.801 227.547 209.42 227.493 209.133C227.472 209.023 227.381 208.927 227.255 208.794L227.243 208.781C226.606 208.106 225.98 207.423 225.353 206.738L225.245 206.621C224.545 205.856 223.845 205.092 223.133 204.34C223.109 204.315 223.087 204.291 223.066 204.267C222.985 204.155 222.919 204.046 222.878 203.939C222.797 203.536 223.292 203.011 224.962 201.474L225.576 200.91L226.192 200.347C227.869 198.818 228.435 198.371 228.829 198.486C228.933 198.537 229.036 198.611 229.14 198.702C229.162 198.725 229.184 198.749 229.206 198.775C229.894 199.55 230.594 200.315 231.295 201.078L231.402 201.196C232.029 201.88 232.656 202.564 233.272 203.257L233.284 203.27C233.405 203.407 233.493 203.506 233.601 203.536C233.883 203.616 234.299 203.224 235.807 201.803L235.808 201.803C236.761 200.901 237.722 200.008 238.689 199.122L238.69 199.121C238.745 199.07 238.795 199.025 238.841 198.984C239.226 198.978 239.791 199.591 241.633 201.591L241.739 201.705C242.299 202.313 242.973 203.045 243.79 203.919C244.544 204.726 244.35 204.899 241.015 207.861L240.957 207.913Z" fill="#F07D29"/>
<path d="M199.514 200.464C199.502 200.432 199.49 200.401 199.478 200.369C196.05 204.205 191.512 207.694 185.866 210.345C185.421 210.554 185.052 210.636 184.79 210.695L184.789 210.695C184.389 210.785 184.238 210.819 184.446 211.162C184.727 211.624 185.339 212.382 186.236 213.36C192.12 219.81 210.669 236.15 228.217 240.677C228.237 240.682 228.288 240.701 228.37 240.73L228.389 240.737L228.398 240.74C228.536 240.789 228.748 240.864 229.032 240.959C229.191 239.481 229.469 238.072 229.911 236.699C221.74 234.552 213.324 229.372 206.625 224.274L206.617 224.251C201.253 220.174 196.984 216.146 194.813 213.759C194.133 213.008 193.666 212.424 193.445 212.06C193.27 211.772 193.396 211.744 193.731 211.668L193.734 211.668C193.953 211.618 194.262 211.549 194.634 211.374C204.666 206.667 210.522 198.802 212.204 191.703C212.426 190.763 212.512 189.846 212.561 189.065L212.806 187.04L214.913 186.911C215.695 186.929 216.616 186.925 217.572 186.785C224.791 185.729 233.137 180.582 238.701 170.999C238.908 170.644 239.004 170.342 239.072 170.128L239.073 170.126L239.073 170.125C239.177 169.798 239.217 169.675 239.488 169.874C239.831 170.126 240.371 170.641 241.059 171.383C243.247 173.753 246.889 178.358 250.483 184.06L250.506 184.069C254.999 191.188 259.425 200.024 260.85 208.351C262.257 208.031 263.685 207.877 265.172 207.848C265.101 207.556 265.045 207.339 265.008 207.197L265.001 207.169C264.979 207.084 264.965 207.031 264.962 207.011C261.984 189.135 247.324 169.23 241.412 162.806C240.516 161.827 239.815 161.152 239.379 160.832C239.055 160.594 239.008 160.741 238.884 161.132L238.884 161.133C238.802 161.389 238.688 161.749 238.441 162.174C235.307 167.568 231.436 171.783 227.315 174.864C227.346 174.878 227.376 174.893 227.407 174.908C222.786 178.371 217.851 180.406 213.291 181.073C212.8 181.144 212.316 181.186 211.849 181.209L211.857 181.167C211.519 181.196 211.184 181.218 210.852 181.232C210.339 181.232 209.862 181.217 209.435 181.203C208.998 181.188 208.615 181.176 208.304 181.184C208.154 181.172 208.004 181.157 207.856 181.141C207.747 181.13 207.665 181.183 207.601 181.291C207.488 181.345 207.428 181.422 207.43 181.532C207.433 181.681 207.434 181.831 207.433 181.982C207.398 182.291 207.377 182.674 207.353 183.111C207.33 183.536 207.304 184.014 207.259 184.524C207.216 184.854 207.165 185.186 207.106 185.52L207.149 185.516C207.085 185.978 207.001 186.457 206.887 186.94C205.825 191.424 203.367 196.163 199.514 200.464Z" fill="#F07D29"/>
<path d="M217.359 194.11C217.994 194.091 218.59 194.019 219.155 193.901C219.321 193.349 219.446 192.761 219.519 192.131C219.634 191.145 219.38 190.31 218.901 189.701L215.342 189.807L214.993 193.281C215.558 193.812 216.368 194.138 217.359 194.11Z" fill="#F07D29"/>
<path d="M229.911 236.699C229.469 238.072 229.191 239.481 229.032 240.959L248.457 243.656C249.697 242.551 250.963 241.41 252.253 240.247L253.932 238.733L229.911 236.699Z" fill="#F07D29"/>
<path d="M265.172 207.848C263.685 207.877 262.257 208.031 260.85 208.351L260.781 232.458L262.435 230.918C263.669 229.769 264.879 228.642 266.055 227.536L265.172 207.848Z" fill="#F07D29"/>
<path d="M258.645 211.404C254.589 213.706 249.03 217.252 243.977 220.993C239.809 225.7 235.791 230.929 233.145 234.768L257.31 235.545L258.645 211.404Z" fill="#F07D29"/>
<path d="M572.516 -25.9918C574.483 -25.303 576.331 -24.566 576.915 -24.0459C577.173 -23.308 577.149 -21.318 577.036 -19.2369L578.122 -17.5847C578.957 -16.3148 579.776 -15.0691 580.568 -13.8502C580.582 -14.0167 580.597 -14.1832 580.612 -14.3497L580.672 -14.255C581.212 -17.9811 581.488 -22.696 581.215 -26.4332C581.208 -26.5343 581.129 -26.6482 580.989 -26.7725C580.928 -26.9487 580.852 -27.0651 580.762 -27.1105C577.411 -28.788 572.947 -30.3309 569.297 -31.2531L569.362 -31.1613C569.202 -31.2112 569.043 -31.2614 568.883 -31.3118C568.908 -31.2762 568.932 -31.2405 568.957 -31.2048C569.758 -30.0415 570.573 -28.8451 571.403 -27.6261L572.516 -25.9918Z" fill="#F07D29"/>
<path fill-rule="evenodd" clip-rule="evenodd" d="M533.599 6.4822C533.668 5.93124 533.683 5.40555 533.657 4.90165C533.201 4.68482 532.709 4.49901 532.174 4.35209C531.337 4.12235 530.581 4.23127 529.99 4.56522C530.006 4.35603 530.016 4.14167 530.018 3.92345C530.052 -1.0241 527.796 -6.99389 522.778 -12.0307L522.749 -11.9786C521.997 -12.7348 521.184 -13.4691 520.306 -14.1764C520.058 -14.377 519.837 -14.4862 519.68 -14.5642L519.677 -14.5659C519.437 -14.6846 519.346 -14.7294 519.532 -14.9148C519.69 -15.0722 519.949 -15.2835 520.299 -15.5389C524.116 -18.3464 539.366 -26.709 551.867 -26.8643L551.868 -26.8637C551.882 -26.864 551.922 -26.868 551.987 -26.8748C551.998 -26.876 552.01 -26.8771 552.021 -26.878L552.029 -26.8441C552.693 -26.8897 553.359 -26.9194 554.024 -26.9331C555.478 -23.1206 557.808 -17.8432 560.374 -12.9773C563.894 -8.74921 567.883 -4.582 570.853 -1.7845C570.587 -1.17418 570.306 -0.570422 570.01 0.0262682L570.038 0.046288C570.033 0.0564724 570.028 0.0665799 570.022 0.0766188C569.991 0.134385 569.972 0.169995 569.967 0.182579L569.967 0.183224C565.056 11.6799 551.509 22.5875 547.458 25.0456C547.088 25.2722 546.794 25.4311 546.588 25.5166C546.346 25.6176 546.339 25.5168 546.321 25.25L546.32 25.2463C546.308 25.0711 546.291 24.8259 546.201 24.5196C545.882 23.4386 545.513 22.4064 545.101 21.4233L545.16 21.416C542.418 14.856 537.76 10.4942 533.173 8.63865C532.971 8.55688 532.769 8.48415 532.569 8.41916C533.103 8.00069 533.492 7.3434 533.599 6.4822ZM548.662 -12.0978C548.944 -11.6624 549.261 -11.1737 549.618 -10.6261L549.618 -10.6265C549.841 -10.2843 550.003 -10.2571 550.331 -10.493C550.936 -10.9296 552.582 -12.0192 552.588 -12.0108C553.015 -12.2968 553.381 -12.5494 553.695 -12.7669L553.696 -12.7673C554.773 -13.5122 555.256 -13.846 555.614 -13.7131C555.954 -13.4007 556.467 -12.636 557.518 -11.0661C558.569 -9.49579 559.08 -8.72967 559.239 -8.29608C559.225 -7.91457 558.733 -7.59559 557.633 -6.88375L557.632 -6.88329C557.311 -6.67549 556.939 -6.43389 556.511 -6.14786C556.517 -6.13947 554.882 -5.03376 554.247 -4.64042C553.904 -4.42777 553.867 -4.26718 554.099 -3.9301L554.099 -3.93096C554.469 -3.3911 554.8 -2.91194 555.095 -2.48501L555.096 -2.48434L555.133 -2.43014C557.353 0.77983 557.483 0.967274 556.674 1.49641C555.798 2.07026 555.073 2.55217 554.471 2.95269L554.358 3.02774C552.377 4.34587 551.77 4.74941 551.444 4.6643C551.413 4.62034 551.38 4.57109 551.344 4.51707L551.343 4.51616C550.705 3.56223 550.074 2.60337 549.45 1.63965L549.45 1.63914C548.463 0.118549 548.19 -0.301061 547.934 -0.291824C547.837 -0.288131 547.741 -0.222485 547.61 -0.131338L547.597 -0.122513C546.929 0.338873 546.255 0.790157 545.58 1.24163L545.464 1.31916C544.71 1.82311 543.957 2.32738 543.211 2.84391C543.187 2.86093 543.163 2.87694 543.14 2.89178C543.032 2.94753 542.929 2.98956 542.831 3.01122C542.471 3.02748 542.084 2.53021 540.975 0.882627L540.569 0.276464L540.163 -0.33033C539.063 -1.98381 538.751 -2.53188 538.903 -2.85784C538.961 -2.94068 539.039 -3.0199 539.131 -3.0977C539.154 -3.11358 539.178 -3.12955 539.203 -3.14578C539.965 -3.63779 540.718 -4.14207 541.472 -4.64666L541.587 -4.724C542.262 -5.1756 542.937 -5.62702 543.618 -6.06834L543.631 -6.07716C543.765 -6.16379 543.862 -6.22685 543.903 -6.3157C544.009 -6.54878 543.725 -6.96063 542.696 -8.45327L542.696 -8.4538C542.043 -9.39785 541.397 -10.347 540.759 -11.301L540.758 -11.3019C540.722 -11.3558 540.689 -11.405 540.66 -11.4508C540.706 -11.7846 541.311 -12.1916 543.285 -13.5201L543.397 -13.5961C543.997 -14.0002 544.719 -14.4865 545.584 -15.0772C546.381 -15.6225 546.505 -15.4312 548.625 -12.1549L548.662 -12.0978Z" fill="#F07D29"/>
<path d="M536.731 22.7576C536.702 22.7636 536.673 22.7696 536.644 22.7755C539.508 26.2487 541.924 30.6348 543.469 35.8694C543.591 36.2819 543.613 36.612 543.629 36.8466L543.629 36.8473C543.654 37.2052 543.663 37.3403 543.988 37.2052C544.425 37.0235 545.161 36.5946 546.126 35.9488C552.483 31.7141 569.072 17.836 575.311 3.25933C575.318 3.24349 575.341 3.20167 575.377 3.13396L575.385 3.11873L575.389 3.11151C575.45 2.99895 575.543 2.82549 575.663 2.59184C574.406 2.25912 573.224 1.83194 572.095 1.26794C569.156 8.05025 563.561 14.6424 558.265 19.7613L558.244 19.7643C554.008 23.8638 549.958 27.0222 547.607 28.5833C546.867 29.0723 546.301 29.399 545.956 29.5421C545.684 29.655 545.676 29.5419 545.655 29.2422L545.655 29.24C545.642 29.0436 545.622 28.7673 545.521 28.4224C542.779 19.1231 536.752 13.0169 530.835 10.6223C530.052 10.3052 529.27 10.1098 528.601 9.96349L526.882 9.48339L527.049 7.64435C527.169 6.97071 527.287 6.17317 527.292 5.32835C527.336 -1.05484 523.989 -8.95474 516.439 -15.0364C516.159 -15.2619 515.911 -15.385 515.734 -15.4724L515.733 -15.473L515.732 -15.4734C515.463 -15.6069 515.362 -15.6573 515.57 -15.8656C515.833 -16.1293 516.35 -16.528 517.083 -17.0246C519.422 -18.6025 523.888 -21.1424 529.295 -23.496L529.306 -23.5141C536.058 -26.4573 544.285 -29.1146 551.676 -29.2447C551.585 -30.5039 551.641 -31.7592 551.813 -33.0484C551.552 -33.0263 551.356 -33.0064 551.229 -32.9934L551.203 -32.9907C551.127 -32.9828 551.079 -32.9779 551.062 -32.9777C535.207 -32.7697 516.051 -22.7277 509.712 -18.4662C508.747 -17.8203 508.07 -17.3037 507.735 -16.9691C507.487 -16.7205 507.608 -16.6603 507.929 -16.501L507.93 -16.5007C508.141 -16.3965 508.437 -16.2498 508.772 -15.9798C513.022 -12.5552 516.155 -8.64863 518.273 -4.67692C518.29 -4.70159 518.307 -4.72626 518.323 -4.75088C520.707 -0.295786 521.813 4.24213 521.786 8.27369C521.783 8.70831 521.755 9.13242 521.713 9.53868L521.677 9.52676C521.658 9.82263 521.632 10.1153 521.6 10.4045C521.533 10.8479 521.456 11.2589 521.387 11.6257C521.317 12.002 521.255 12.3317 521.221 12.6017C521.191 12.73 521.158 12.8572 521.125 12.9836C521.1 13.0763 521.135 13.1544 521.221 13.2235C521.252 13.329 521.311 13.3911 521.406 13.4037C521.536 13.4209 521.666 13.4398 521.796 13.4604C522.059 13.5318 522.387 13.6006 522.762 13.679C523.127 13.7556 523.536 13.8414 523.972 13.9479C524.251 14.0288 524.531 14.1168 524.812 14.212L524.815 14.1745C525.206 14.2905 525.609 14.4265 526.012 14.5895C529.749 16.1016 533.522 18.8552 536.731 22.7576Z" fill="#F07D29"/>
<path d="M533.599 6.4822C533.668 5.93124 533.683 5.40555 533.657 4.90165C533.201 4.68482 532.709 4.49901 532.174 4.35209C531.337 4.12235 530.581 4.23127 529.99 4.56522L529.611 7.65725L532.569 8.41916C533.103 8.00069 533.492 7.3434 533.599 6.4822Z" fill="#F07D29"/>
<path d="M572.095 1.26794C573.224 1.83194 574.406 2.25912 575.663 2.59184L580.568 -13.8502C579.776 -15.0691 578.957 -16.3148 578.122 -17.5847L577.036 -19.2369L572.095 1.26794Z" fill="#F07D29"/>
<path d="M551.813 -33.0484C551.641 -31.7592 551.585 -30.5039 551.676 -29.2447L572.516 -25.9918L571.403 -27.6261C570.573 -28.8451 569.758 -30.0415 568.957 -31.2048L551.813 -33.0484Z" fill="#F07D29"/>
<path d="M554.024 -26.9331C555.478 -23.1206 557.808 -17.8432 560.374 -12.9773C563.894 -8.74921 567.883 -4.582 570.853 -1.7845L574.726 -22.581L554.024 -26.9331Z" fill="#F07D29"/>
</g>
<defs>
<clipPath id="clip0_524_977">
<rect width="600" height="210" fill="white"/>
</clipPath>
</defs>
</svg>
