<svg width="290" height="203" viewBox="0 0 290 203" fill="none" xmlns="http://www.w3.org/2000/svg">
<path fill-rule="evenodd" clip-rule="evenodd" d="M34.8332 52.7997C3.82852 70.8267 -0.282339 73.3572 0.0142023 75.1646C0.0609849 75.4497 0.217441 75.7168 0.395298 76.024L73.2276 200.184C74.2885 201.983 74.7312 202.82 75.3448 202.974C75.9575 203.127 76.7407 202.6 78.4798 201.675C89.0043 196.074 99.427 190.283 109.813 184.429C133.453 171.106 148.621 162.784 158.291 157.478C160.84 156.08 163.008 154.891 164.847 153.875C161.145 155.174 156.993 156.637 152.341 158.288C152.338 158.29 152.238 158.325 152.045 158.395C151.429 158.615 149.883 159.168 147.621 159.975C131.459 168.938 111.746 179.886 105.076 183.591C103.579 184.421 102.739 184.889 102.743 184.886C80.1019 197.299 76.9412 200.252 75.7482 199.601C75.5113 199.473 75.3521 199.201 75.1331 198.833C75.1054 198.785 2.93347 76.2231 2.95507 76.2601C2.36373 75.2596 2.55938 75.147 8.65377 71.6374C10.399 70.6323 12.628 69.3487 15.4607 67.6859C15.4803 67.6746 24.1835 62.6094 35.9561 55.7359L34.8332 52.7997Z" fill="#180B02"/>
<path d="M115.518 36.732C115.502 38.0095 115.887 37.5821 99.7564 44.0981C90.2271 47.9477 67.0271 57.2703 57.3235 60.6648C55.3361 61.3607 55.6725 60.9935 50.9989 49.4521C50.2598 47.6283 50.4604 47.3244 52.3351 46.5652C64.8871 41.4812 92.2484 30.1667 108.113 24.4855C110.195 23.7402 110.326 23.8652 111.139 25.9127C113.239 31.1958 114.452 33.6877 115.518 36.732ZM108.44 26.695C104.632 28.0328 99.3383 30.7206 53.5478 48.335C52.2641 48.8288 52.889 48.5464 56.5042 57.7023C56.9794 58.9074 57.234 58.3612 59.9727 57.2657C115.496 35.0563 113.154 36.9341 112.679 35.834C108.689 26.5808 109.002 26.499 108.439 26.6965L108.44 26.695Z" fill="#180B02"/>
<path d="M62.8659 72.981C61.5034 72.8714 61.5698 71.7358 62.5989 71.2451C67.1399 69.0804 64.577 70.0848 90.8027 59.3659C112.25 50.6003 111.913 50.3365 112.676 51.7884C113.552 53.4594 111.832 53.5381 85.8776 64.0426C71.6422 69.804 65.5275 72.478 62.8659 72.981Z" fill="#180B02"/>
<path d="M70.2322 88.7992C68.6151 88.8578 68.484 87.2994 69.5178 86.7424C70.9867 85.9524 69.5162 86.5403 108.564 71.6893C112.883 70.0476 113.916 69.6834 114.336 70.9348C114.773 72.237 114.183 72.3636 100.919 77.4013C100.022 77.7423 71.1919 88.7652 70.2337 88.7992H70.2322Z" fill="#180B02"/>
<path d="M92.2308 153.5C90.7141 153.382 90.7341 152.359 91.7648 151.817C96.2718 149.453 111.754 144.149 116.991 142.41C121.107 141.041 122.004 140.853 122.366 141.95C122.846 143.406 121.951 143.664 105.914 149.25C102.661 150.382 95.6037 152.794 92.2323 153.499L92.2308 153.5Z" fill="#180B02"/>
<path d="M66.9803 80.4457C65.4867 80.546 65.2769 79.3548 66.0021 78.8102C66.9556 78.0942 65.9727 78.5865 88.2053 69.4969C89.1588 69.1065 90.1108 68.7979 90.5398 69.8332C91.14 71.2867 89.2498 71.6292 86.6083 72.6954C67.0451 80.5908 69.4243 79.6912 66.9803 80.4457Z" fill="#180B02"/>
<path d="M96.5521 160.35C94.7191 160.302 94.6234 158.702 96.0198 158.132C101.008 156.099 103.238 155.412 110.413 152.983C112.255 152.36 113.093 154.403 111.118 155.201C107.888 156.506 99.0271 159.78 96.5521 160.35Z" fill="#180B02"/>
<path fill-rule="evenodd" clip-rule="evenodd" d="M130.169 112.572C127.963 116.121 126.688 120.305 126.688 124.783C126.688 137.575 137.097 147.98 149.885 147.98C162.678 147.98 173.082 137.575 173.082 124.783C173.082 122.454 172.738 120.205 172.096 118.083C171.448 118.42 170.775 118.734 170.078 119.028C170.601 120.857 170.88 122.789 170.88 124.786C170.88 136.364 161.464 145.781 149.885 145.781C138.307 145.781 128.89 136.364 128.89 124.786C128.89 120.824 129.994 117.114 131.909 113.948C131.312 113.505 130.732 113.045 130.169 112.572Z" fill="#F07D29"/>
<path fill-rule="evenodd" clip-rule="evenodd" d="M192.606 140.584L180.949 110.402C180.44 111.145 179.881 111.862 179.275 112.55C182.47 120.83 185.914 129.729 189.624 139.299C189.894 139.996 189.769 140.166 189.102 140.387C186.697 141.181 137.266 158.766 120.825 164.616L120.815 164.619L120.806 164.622C117.517 165.792 115.553 166.49 115.558 166.489C104.641 170.306 97.8879 172.895 93.6639 174.515C88.4616 176.51 87.0953 177.035 86.5084 176.571C86.2993 176.406 86.189 176.115 86.0395 175.722L86.0339 175.708C86.0154 175.657 34.9604 42.9007 34.9758 42.9423C34.5761 41.9138 34.7666 41.842 40.423 39.7137C42.429 38.9588 45.1223 37.9454 48.7205 36.539L49.024 36.4239C54.0908 34.5042 121.056 9.13065 136 3.06296C136.031 3.05 136.062 3.03705 136.092 3.02439C136.222 2.96946 136.337 2.92055 136.454 2.91577C136.926 2.89633 137.427 3.59112 139.019 7.47521C139.56 6.93934 140.109 6.48078 140.664 6.09118L138.721 1.06175L138.696 1.01438C138.528 0.695913 138.39 0.43438 138.18 0.256631C137.217 -0.560983 134.748 0.395806 120.922 5.75343C114.868 8.09919 106.637 11.2886 95.4012 15.5424C89.1185 17.9211 83.4526 20.0628 78.3438 21.9938C37.4358 37.4571 32.2647 39.4117 32.2598 41.3794C32.259 41.6641 32.3665 41.9491 32.4895 42.2753L32.4948 42.2896L83.9355 176.733C83.9991 176.898 84.0592 177.055 84.1166 177.205C84.7385 178.83 85.0338 179.601 85.5647 179.832C86.0449 180.042 86.7179 179.809 87.9995 179.365C88.2637 179.274 88.5536 179.174 88.873 179.067C100.175 175.275 111.406 171.272 122.616 167.203C148.198 157.916 164.547 152.193 174.955 148.552C190.165 143.227 192.679 142.348 192.762 141.279C192.779 141.067 192.7 140.847 192.606 140.584Z" fill="#180B02"/>
<path fill-rule="evenodd" clip-rule="evenodd" d="M135.404 114.465C111.071 98.9645 120.239 69.5003 143.355 66.4875C144.368 67.2451 145.467 68.0265 146.663 68.8443C144.161 68.9359 141.663 69.3851 139.222 70.2504C112.694 79.6573 121.963 112.32 149.511 116.883C149.188 117.782 148.884 118.656 148.599 119.497C143.916 118.664 139.367 116.991 135.404 114.465ZM162.447 119.52C173.848 117.462 183.241 110.111 183.294 97.6762C183.297 97.1161 183.278 96.5575 183.241 96.0036C182.299 95.5253 181.396 95.0439 180.529 94.5563C182.223 103.03 178.404 111.429 165.46 115.92C164.7 116.184 163.89 116.394 163.053 116.562C162.85 117.556 162.648 118.543 162.447 119.52ZM164.039 111.726C171.387 109.396 176.98 103.933 177.017 95.4466C177.022 94.3712 176.932 93.3099 176.755 92.2665C175.854 91.6787 174.987 91.0816 174.141 90.4739C176.696 97.5759 174.673 105.048 164.558 109.164C164.386 110.014 164.212 110.868 164.039 111.726ZM160.108 92.5483C150.722 94.4406 136.291 87.3396 144.928 73.29C121.609 78.242 127.433 107.727 151.862 110.673C151.588 111.364 151.321 112.049 151.06 112.725C146.968 112.161 142.958 110.788 139.512 108.594C120.003 96.1672 128.076 72.4892 146.687 70.9138C147.088 70.4776 147.503 70.0793 147.923 69.7057C148.605 70.1752 149.267 70.6389 149.912 71.0967C148.645 72.2309 147.022 74.4613 144.988 79.1162C141.599 86.871 155.319 92.7253 161.87 89.371C161.288 90.3723 160.699 91.436 160.108 92.5483ZM165.865 83.8465C165.795 83.7864 165.724 83.7261 165.653 83.6658C165.624 83.7905 165.592 83.9148 165.559 84.0384C165.661 83.965 165.763 83.9011 165.865 83.8465Z" fill="#180B02"/>
<path d="M171.155 86.2888C159.401 76.8567 163.135 78.1112 147.883 67.7687C138.457 61.3778 135.274 57.3892 131.464 49.5633C129.627 45.7892 127.985 41.901 127.145 37.7365C126.771 35.8742 127.4 34.376 129.114 33.5998C139.859 28.738 148.465 49.9552 160.316 51.2482C164.351 51.688 161.894 47.2828 159.464 44.112C150.563 32.5028 148.264 26.5871 141.473 24.9222C140.332 24.643 139.653 24.5226 139.705 23.9687C139.829 22.6788 143.63 22.131 147.952 25.5641C150.111 27.2783 150.909 28.2905 162.118 43.842C167.607 51.4565 163.511 54.1737 160.331 53.5364C153.447 52.1555 148.667 47.755 139.264 38.1778C133.647 32.4565 127.795 34.9252 128.847 37.7874C139.076 65.6317 145.001 59.7654 165.172 77.1314C170.154 81.4208 178.383 89.8901 195.401 96.2337C203.23 99.1514 211.254 99.656 213.594 101.037C218.495 103.93 192.7 103.578 171.155 86.2888Z" fill="#180B02"/>
<path d="M238.891 66.6821C244.153 67.5632 283.322 97.2057 287.587 100.412C291.131 103.077 291.23 105.942 283.759 101.012C271.332 92.8137 258.626 82.2984 240.794 69.8714C237.878 67.8394 241.087 73.2119 230.238 90.436C225.782 97.5097 216.207 106.812 214.553 108.062C213.562 108.81 211.419 107.494 254.926 159.33C258.127 163.146 257.319 165.114 252.702 160.311C245.055 152.354 223.091 125.393 219.728 120.771C210.601 108.236 211.22 108.71 213.307 106.406C223.158 95.544 226.653 92.1657 232.207 80.5117C238.044 68.2667 236.865 66.9244 238.891 66.6821Z" fill="#180B02"/>
<path d="M158.924 10.1322C168.555 16.4892 173.87 19.4131 177.544 25.1221C179.67 28.4271 178.243 29.7618 175.242 25.8102C171.601 21.0163 156.33 9.46876 146.85 7.9474C142.301 7.21758 136.122 16.5756 134.054 20.6922C131.743 25.2964 135.12 30.8295 133.721 31.0872C133.366 31.152 133.229 30.8742 133.107 30.6089C129.123 21.959 132.298 17.2669 139.592 9.14473C146.886 1.02413 155.441 9.53973 157.268 8.72968C170.129 3.02844 190.098 20.109 188.731 21.6041C187.364 23.0993 179.269 11.6243 164.67 9.20183C162.701 8.87472 160.889 9.35612 158.924 10.1291V10.1322Z" fill="#180B02"/>
<path d="M198.236 14.6136C210.042 14.9037 216.443 27.7087 220.376 38.8412C224.106 49.3966 226.902 55.7522 233.564 66.5359C236.056 70.5677 234.067 71.728 230.844 65.9542C215.278 38.0745 216.161 20.1405 198.73 16.1288C197.01 15.7323 196.638 15.5656 196.658 15.1197C196.686 14.4995 197.439 14.5936 198.236 14.6136Z" fill="#180B02"/>
<path d="M180.661 9.50969C190.144 9.37545 200.143 19.0467 199.361 20.0928C198.452 21.3102 195.32 16.3018 186.673 12.321C182.087 10.2102 176.412 11.4584 176.412 10.2488C176.412 9.41556 177.278 9.55752 180.661 9.50969Z" fill="#180B02"/>
<path d="M167.414 86.4212C166.693 91.8432 156.955 138.023 156.946 138.073C155.323 146.359 148.767 138.294 130.705 120.652C126.616 116.657 129.56 117.338 134.882 119.419C148.188 124.624 147.671 128.054 148.523 125.017C152.317 111.508 166.86 78.9888 167.414 86.4212Z" fill="#F07D29"/>
</svg>
