<svg width="400" height="400" viewBox="0 0 400 400" fill="none" xmlns="http://www.w3.org/2000/svg">
<path fill-rule="evenodd" clip-rule="evenodd" d="M164.334 255.399C160.81 253.008 157.541 250.267 154.577 247.224L154.577 247.223C157.541 250.266 160.81 253.008 164.334 255.399Z" fill="#F07D29"/>
<path d="M199.362 140.269C164.758 140.269 136.705 168.447 136.705 203.207C136.705 220.34 143.521 235.874 154.577 247.223C157.541 250.266 160.81 253.008 164.334 255.399C165.679 256.312 167.061 257.173 168.478 257.981C169.21 258.398 169.952 258.802 170.703 259.19C179.291 263.635 189.035 266.145 199.362 266.145C233.967 266.145 262.02 237.967 262.02 203.207C262.02 201.862 261.978 200.527 261.895 199.203C261.875 198.883 261.852 198.564 261.828 198.246C261.812 198.04 261.795 197.835 261.777 197.63C258.967 165.483 232.096 140.269 199.362 140.269Z" fill="#F07D29"/>
<path d="M153.347 248.11L153.348 248.112L153.503 248.271C155.989 250.823 158.684 253.168 161.562 255.278C161.977 255.583 162.396 255.882 162.819 256.177C163.042 256.333 163.267 256.487 163.492 256.64C164.869 257.575 166.284 258.457 167.735 259.284L168.478 257.981L167.735 259.284C168.485 259.711 169.245 260.124 170.013 260.522C178.81 265.075 188.789 267.645 199.362 267.645C234.802 267.645 263.52 238.789 263.52 203.207C263.52 201.831 263.477 200.464 263.392 199.109C263.371 198.782 263.349 198.456 263.323 198.13L263.323 198.13C263.307 197.919 263.29 197.709 263.271 197.5C260.395 164.59 232.886 138.769 199.362 138.769C163.923 138.769 135.205 167.625 135.205 203.207C135.205 220.665 142.12 236.506 153.347 248.11ZM260.283 197.761L260.283 197.761C260.3 197.961 260.317 198.162 260.332 198.362C260.356 198.673 260.378 198.984 260.398 199.296C260.479 200.589 260.52 201.893 260.52 203.207C260.52 237.145 233.132 264.645 199.362 264.645C189.281 264.645 179.773 262.196 171.392 257.858C170.66 257.479 169.936 257.085 169.221 256.678C167.838 255.889 166.489 255.049 165.177 254.158C164.747 253.866 164.32 253.569 163.898 253.267C160.943 251.15 158.183 248.776 155.651 246.176C144.857 235.097 138.205 219.934 138.205 203.207C138.205 169.27 165.592 141.769 199.362 141.769C231.306 141.769 257.539 166.376 260.283 197.761Z" stroke="#F07D29" stroke-width="3"/>
<path fill-rule="evenodd" clip-rule="evenodd" d="M168.478 257.98C163.35 255.057 158.673 251.428 154.578 247.224L154.577 247.223C158.672 251.427 163.35 255.057 168.478 257.98Z" fill="#F07D29"/>
<path d="M199.363 266.145C233.967 266.145 262.02 237.967 262.02 203.207C262.02 201.862 261.978 200.527 261.895 199.203C261.875 198.883 261.853 198.564 261.828 198.246C261.7 196.602 261.51 194.976 261.259 193.37C260.204 200.137 256.854 208.284 244.559 211.945C231.373 215.872 221.521 211.681 214.772 208.809C213.086 208.092 211.594 207.457 210.292 207.051C210.29 207.233 210.286 207.412 210.281 207.59C210.251 208.633 210.177 209.62 210.111 210.516L210.103 210.625C210.034 211.561 209.976 212.379 209.976 213.096C209.976 214.487 210.334 216.363 210.869 218.308C211.399 220.237 212.084 222.169 212.698 223.647C212.987 224.342 213.322 224.925 213.679 225.533L213.749 225.653C214.081 226.217 214.436 226.82 214.74 227.512C215.411 229.04 215.806 230.929 215.552 234.03C215.262 237.574 212.226 239.454 209.424 240.291C207.991 240.72 206.522 240.911 205.294 240.916C204.679 240.918 204.108 240.874 203.619 240.782C203.155 240.694 202.672 240.547 202.312 240.279C201.379 239.584 200.558 238.525 199.866 237.342C199.168 236.149 198.57 234.776 198.102 233.397C197.742 232.339 196.789 231.403 195.582 230.592C194.541 229.894 193.425 229.36 192.56 228.947L192.559 228.946C192.434 228.886 192.314 228.829 192.201 228.774C192.021 228.687 191.767 228.575 191.458 228.439C190.424 227.984 188.773 227.257 187.21 226.279C185.186 225.013 183.034 223.171 182.389 220.616C181.894 218.652 182.121 216.658 182.573 214.997C183.026 213.336 183.724 211.942 184.25 211.14C183.907 212.12 183.559 213.255 183.472 215.524C183.472 217.27 183.677 218.61 184.075 220.187C184.546 222.057 186.195 223.587 188.129 224.797C189.569 225.697 191.014 226.335 192.053 226.793C192.405 226.948 192.711 227.083 192.954 227.201C193.058 227.251 193.171 227.305 193.291 227.362L193.296 227.365C194.154 227.774 195.393 228.365 196.548 229.141C197.851 230.016 199.2 231.222 199.747 232.833C200.185 234.124 200.738 235.385 201.365 236.457C201.998 237.54 202.677 238.377 203.347 238.876C203.389 238.907 203.561 238.994 203.94 239.066C204.295 239.133 204.753 239.172 205.287 239.17C206.356 239.166 207.659 238.997 208.929 238.618C211.532 237.84 213.622 236.312 213.82 233.887C214.055 231.017 213.682 229.429 213.15 228.217C212.889 227.623 212.583 227.102 212.241 226.522L212.182 226.421C211.822 225.808 211.433 225.135 211.094 224.32C210.453 222.778 209.744 220.777 209.193 218.772C208.646 216.783 208.238 214.725 208.238 213.096C208.238 212.303 208.301 211.418 208.37 210.496L208.377 210.397C208.444 209.494 208.514 208.542 208.543 207.539C208.603 205.465 208.481 203.215 207.787 200.917C207.076 198.564 206.097 196.398 204.385 194.518L204.161 194.27C203.957 194.046 203.747 193.815 203.53 193.58L217.529 162.312L198.247 189.552C197.847 189.371 197.425 189.204 196.979 189.053L196.929 189.037L196.848 189.01L196.818 189C196.802 188.995 196.786 188.989 196.77 188.984L196.69 188.958L196.61 188.933C188.729 186.404 180.632 187.12 168.009 193.863C157.966 199.228 151.743 211.621 150.301 221.525C149.801 224.956 149.79 237.987 154.577 247.223C158.672 251.427 163.35 255.057 168.478 257.98C169.211 258.398 169.952 258.801 170.703 259.19C179.292 263.635 189.035 266.145 199.363 266.145Z" fill="white"/>
<path d="M272.618 61.5751C252.648 46.6661 225.735 35.3511 201.339 38.7861C201.279 38.7933 201.222 38.8158 201.173 38.8514C201.124 38.887 201.085 38.9345 201.06 38.9893C201.035 39.0442 201.024 39.1046 201.029 39.1648C201.034 39.225 201.054 39.2829 201.088 39.3331C186.949 44.9191 188.986 44.1931 188.561 44.0971C174.913 41.2193 160.743 42.062 147.532 46.5371C146.534 46.8721 145.517 47.1931 144.555 47.6181C144.157 47.7676 143.806 48.0202 143.539 48.3501C143.271 48.6799 143.096 49.0751 143.031 49.4951C142.859 50.5661 142.927 48.5151 144.428 73.9321C144.428 74.0316 144.467 74.1273 144.536 74.1988C144.605 74.2702 144.699 74.312 144.799 74.3151C154.583 74.7684 164.158 77.3031 172.885 81.7501C181.892 86.3381 188.58 93.4791 197.467 93.2411C202.5 93.1071 207.322 91.1301 212.388 92.1461C214.798 92.6291 217.11 93.5011 219.5 94.0591C231.883 96.9541 238.175 86.4061 252.098 84.7101C258.755 83.8981 260.643 85.6321 262.019 83.7301C262.418 83.1831 270.41 66.7731 272.76 62.1041C272.809 62.0142 272.821 61.9091 272.795 61.8102C272.769 61.7114 272.705 61.6265 272.618 61.5731V61.5751ZM229.765 64.8151C229.708 65.3096 229.543 65.7856 229.281 66.2092C229.02 66.6328 228.668 66.9936 228.252 67.2661C227.835 67.5386 227.364 67.716 226.871 67.7858C226.378 67.8557 225.876 67.8161 225.4 67.6701C222.944 73.1941 219.814 79.0221 214.427 81.8351C213.049 82.7286 211.426 83.169 209.786 83.0946C208.145 83.0201 206.569 82.4347 205.278 81.4201C204.014 80.3172 202.815 79.1423 201.687 77.9011C199.325 75.2681 198.363 72.7481 194.084 63.8661C191.678 64.1031 189.344 61.9031 189.627 58.4641C189.625 57.5356 189.983 56.6425 190.625 55.9721C190.989 55.6611 191.444 55.4763 191.922 55.4451C193.221 53.4981 203.693 51.2711 210.021 39.4851C210.066 39.4112 210.127 39.3485 210.199 39.3014C210.272 39.2543 210.354 39.2242 210.439 39.2132C210.525 39.2023 210.612 39.2108 210.694 39.2381C210.776 39.2655 210.851 39.3109 210.913 39.3711C222.107 49.6211 220.363 50.9921 225.135 55.6281C226.346 56.6084 227.313 57.8561 227.96 59.2731C228.347 59.9171 229.337 59.5701 229.712 60.9671C229.976 62.2345 229.994 63.5408 229.766 64.8151H229.765Z" fill="#F07D29"/>
<path d="M212.816 23.883C211.344 24.426 210.847 25.04 210.422 25.126C210.341 25.09 210.261 25.052 210.181 25.012C208.845 24.2741 207.357 23.8518 205.832 23.7774C204.307 23.703 202.785 23.9786 201.383 24.583C193.65 27.701 186.263 38.374 187.659 47.813C187.794 48.8858 188.037 49.942 188.387 50.965C188.742 51.799 188.846 53.973 189.762 55.001C189.021 55.6798 188.491 56.5573 188.235 57.5289C187.979 58.5005 188.008 59.5253 188.318 60.481C188.411 61.5346 188.843 62.5297 189.549 63.3174C190.255 64.105 191.197 64.6427 192.234 64.85C194.688 65.099 192.964 62.693 194.814 67.643C197.244 74.135 202.724 83.958 209.691 84.555C212.449 84.5008 215.09 83.4357 217.114 81.562C221.019 78.1544 223.975 73.7935 225.693 68.904C226.167 69.048 226.668 69.0852 227.158 69.0127C227.648 68.9403 228.116 68.76 228.528 68.485C229.745 67.5403 230.6 66.2053 230.949 64.7045C231.298 63.2037 231.119 61.6286 230.443 60.244C230.008 59.645 230.058 60.16 230.688 59.358C231.893 57.5651 232.822 55.6016 233.443 53.533C239.089 35.375 222.04 20.478 212.817 23.883H212.816ZM192.724 63.081C191.655 63.267 190.801 62.283 190.384 61.182C189.658 59.261 189.586 56.506 191.571 55.967C192.728 56.149 191.834 55.237 192.742 60.174C192.922 61.1487 193.134 62.1163 193.378 63.077C193.162 63.0345 192.94 63.0358 192.724 63.081ZM224.079 68.011C221.91 73.306 219.427 78.088 214.716 81.146C213.503 82.0237 212.099 82.6027 210.62 82.836C204.635 83.261 199.248 74.02 196.908 68.566C195.233 64.5142 194.124 60.2507 193.614 55.896C200.211 54.831 204.854 49.313 208.989 44.56C209.514 43.961 211.004 42.236 211.219 41.966C215.46 51.277 221.302 56.942 226.744 59.733C226.089 62.562 225.197 65.3307 224.077 68.01L224.079 68.011ZM226.309 67.355C227.172 65.1392 227.882 62.8669 228.434 60.554C231.002 60.777 229.172 68.107 226.309 67.355Z" fill="#180B02"/>
<path d="M199.723 58.798C200.066 57.132 202.474 57.08 203.35 59.945C203.456 60.3111 203.582 60.6713 203.727 61.024C203.804 61.1538 203.922 61.2549 204.062 61.3117C204.202 61.3686 204.357 61.3781 204.503 61.339C205.558 61.054 204.703 58.945 204.174 58.091C202.141 54.827 198.293 56.397 198.676 58.799C198.76 59.328 199.618 59.305 199.723 58.798Z" fill="#180B02"/>
<path d="M215.727 60.512C215.875 60.219 216.044 59.939 216.212 59.656C216.38 59.373 216.493 59.057 216.671 58.768C217.307 57.749 218.49 57.07 219.45 57.8C219.732 58.0252 220.046 58.2063 220.382 58.337C220.909 58.525 221.497 57.038 219.845 56.258C219.07 55.9523 218.208 55.9465 217.428 56.2415C216.648 56.5365 216.006 57.1114 215.626 57.854C215.134 58.5705 214.888 59.4275 214.924 60.296C214.928 60.3892 214.961 60.4789 215.019 60.5519C215.077 60.6248 215.157 60.6772 215.247 60.7013C215.337 60.7254 215.432 60.7199 215.519 60.6856C215.606 60.6514 215.679 60.5902 215.728 60.511L215.727 60.512Z" fill="#180B02"/>
<path d="M210.843 67.2709C210.079 66.5389 209.494 66.9499 208.579 66.0939C208.439 65.9666 208.318 65.8209 208.218 65.6609C208.316 65.5069 208.427 65.3619 208.527 65.2099C210.051 62.9702 210.655 60.2298 210.213 57.5569C210.089 56.9779 209.253 57.1479 209.215 57.6909C209.198 60.3154 208.355 62.8679 206.807 64.9869C205.883 66.7829 209.612 69.2939 210.837 67.8759C210.916 67.7956 210.961 67.6878 210.962 67.5751C210.963 67.4625 210.92 67.3528 210.843 67.2709Z" fill="#180B02"/>
<path d="M209.726 75.7849C210.897 78.5579 215.964 78.2609 215.695 72.8679C215.669 72.3849 215.695 71.8699 215.268 71.5629C215.169 71.5048 215.053 71.4811 214.939 71.4956C214.824 71.5101 214.718 71.5618 214.636 71.6429C214.221 72.0939 214.534 72.5329 214.436 73.9509C214.236 76.7919 211.569 77.0129 210.484 75.3479C210.422 75.2575 210.327 75.1939 210.22 75.1698C210.112 75.1457 210 75.1628 209.904 75.2178C209.809 75.2728 209.738 75.3616 209.705 75.4666C209.672 75.5717 209.679 75.6853 209.726 75.7849Z" fill="#180B02"/>
<path d="M138.863 49.5769C120.784 48.8549 100.04 50.6119 85.5712 61.6009C76.5002 68.4899 68.6912 79.7549 63.8892 90.1299C63.559 90.8433 63.2978 91.5867 63.1092 92.3499C63.0786 92.528 63.1092 92.7113 63.1963 92.8697C63.2834 93.0281 63.4216 93.1523 63.5884 93.2219C63.7553 93.2915 63.9408 93.3024 64.1146 93.2528C64.2884 93.2032 64.4403 93.096 64.5452 92.9489C65.8122 91.0419 72.4552 75.0219 85.1392 64.4519C100.53 51.6259 120.273 51.9509 138.862 50.3409C138.955 50.3292 139.041 50.284 139.103 50.2136C139.165 50.1433 139.199 50.0527 139.199 49.9589C139.199 49.8651 139.165 49.7745 139.103 49.7042C139.041 49.6339 138.955 49.5886 138.862 49.5769H138.863Z" fill="#180B02"/>
<path d="M67.285 98.3911C67.485 98.2231 90.465 78.3471 98.373 74.7781C103.058 73.0569 107.985 72.086 112.972 71.9011C135.48 69.6191 135.621 70.7581 139.647 69.8661C139.737 69.8393 139.817 69.784 139.873 69.7085C139.929 69.633 139.96 69.5413 139.96 69.4471C139.96 69.3528 139.929 69.2611 139.873 69.1856C139.817 69.1101 139.737 69.0548 139.647 69.0281C135.3 67.9691 119.268 69.5911 114.759 70.0371C103.781 71.1231 99.632 71.3231 92.645 76.3101C83.4528 82.798 74.7362 89.9349 66.562 97.6661C66.091 98.1451 66.785 98.7951 67.284 98.3901L67.285 98.3911Z" fill="#180B02"/>
<path d="M85.2875 128.473C83.8195 124.06 79.5255 121.596 75.5115 119.192C73.0275 117.706 73.2635 117.973 73.5165 117.879C73.9526 117.725 74.3411 117.46 74.6437 117.11C74.9463 116.76 75.1527 116.338 75.2425 115.884C75.4183 114.181 75.0429 112.466 74.1715 110.992C68.9665 99.8381 51.3425 92.4381 37.7945 98.9201C12.1045 111.223 18.8535 155.442 47.7055 154.474C51.9805 154.33 56.5875 153.654 59.9345 150.961C60.4978 150.424 60.9947 149.821 61.4145 149.165C71.1025 151.012 78.0805 150.943 82.6475 142.336C84.9355 138.033 86.8245 133.123 85.2875 128.473ZM83.9455 132.321C83.4626 136.647 81.8606 140.773 79.2975 144.291C76.3985 147.9 72.3055 148.726 67.7005 148.399C61.1175 147.93 49.9785 144.676 49.6655 144.726C47.1555 143.505 45.0214 141.629 43.4881 139.297C41.9549 136.964 41.0792 134.262 40.9535 131.473C40.5705 124.004 43.2955 117.522 50.6055 115.248C57.7735 113.02 64.7815 115.709 71.3735 119.3C74.347 120.876 77.213 122.647 79.9525 124.601C81.2337 125.428 82.2764 126.576 82.977 127.93C83.6776 129.285 84.0118 130.799 83.9465 132.322L83.9455 132.321Z" fill="#180B02"/>
<path d="M48.7966 132.328C49.1516 131.729 48.4676 131.171 47.9046 131.436C47.2831 131.695 46.7575 132.14 46.4006 132.711C45.9698 133.475 45.7568 134.343 45.7846 135.22C45.8125 136.097 46.0802 136.95 46.5586 137.685C46.6811 137.902 46.8453 138.094 47.0417 138.247C47.2382 138.401 47.4632 138.514 47.7036 138.581C47.8786 138.627 48.0628 138.627 48.2376 138.58C48.4124 138.533 48.5717 138.44 48.6998 138.312C48.8278 138.184 48.92 138.025 48.9672 137.85C49.0143 137.675 49.0148 137.491 48.9686 137.316C48.4261 136.605 48.1182 135.743 48.0874 134.85C48.0565 133.956 48.3044 133.075 48.7966 132.328Z" fill="#180B02"/>
<path d="M53.4267 121.569C53.4752 121.74 53.5838 121.887 53.7325 121.984C53.8812 122.081 54.0599 122.121 54.2357 122.097C54.4116 122.073 54.5727 121.985 54.6894 121.852C54.8061 121.718 54.8705 121.546 54.8707 121.369C54.8971 120.869 55.0271 120.381 55.2525 119.934C55.4778 119.488 55.7936 119.093 56.1797 118.775C57.2407 118.081 57.7177 118.326 58.2547 117.857C58.7057 117.458 58.7277 117.087 58.5477 116.81C57.2407 114.797 52.1077 117.878 53.4267 121.569Z" fill="#180B02"/>
<path d="M56.8346 137.413C56.4116 137.144 56.1366 137.385 55.3946 136.892C55.1096 136.605 54.9956 136.345 55.4906 135.885C55.7576 135.703 55.7836 135.719 56.3986 135.598C56.5181 135.604 56.6361 135.57 56.7342 135.502C56.8323 135.433 56.9051 135.334 56.9411 135.22C56.977 135.106 56.9742 134.984 56.9331 134.871C56.892 134.759 56.8148 134.664 56.7136 134.6C56.4827 134.477 56.2269 134.409 55.9656 134.4C55.5871 134.422 55.2189 134.531 54.8901 134.72C54.5612 134.909 54.2807 135.171 54.0706 135.487C53.9296 135.72 53.836 135.978 53.795 136.247C53.7541 136.517 53.7667 136.791 53.8321 137.056C53.8975 137.32 54.0144 137.569 54.1761 137.788C54.3379 138.007 54.5413 138.192 54.7746 138.332C55.3289 138.697 55.9847 138.877 56.6476 138.845C56.7919 138.799 56.9201 138.713 57.0173 138.596C57.1144 138.48 57.1765 138.339 57.1962 138.189C57.2159 138.038 57.1925 137.886 57.1286 137.748C57.0648 137.611 56.9622 137.495 56.8346 137.413Z" fill="#180B02"/>
<path d="M61.3929 126.097C61.4998 126.096 61.6038 126.063 61.6923 126.003C61.7808 125.943 61.8497 125.858 61.8907 125.76C61.9316 125.661 61.9428 125.553 61.9227 125.448C61.9027 125.343 61.8523 125.246 61.7779 125.169C60.9799 124.507 60.6389 123.647 61.1789 123.138C62.0029 122.635 63.1339 123.294 63.3579 122.302C63.39 122.198 63.4005 122.088 63.3887 121.98C63.3768 121.872 63.3429 121.767 63.289 121.672C63.2352 121.578 63.1625 121.495 63.0754 121.429C62.9884 121.364 62.8888 121.317 62.7829 121.291C62.0322 121.161 61.2594 121.266 60.5709 121.592C60.1571 121.857 59.8315 122.238 59.6354 122.689C59.4393 123.139 59.3817 123.637 59.4699 124.12C59.558 124.604 59.788 125.05 60.1304 125.402C60.4729 125.754 60.9124 125.996 61.3929 126.097Z" fill="#180B02"/>
<path d="M68.4064 134.045C68.8781 133.317 69.0919 132.453 69.0134 131.589C68.9349 130.726 68.5686 129.914 67.9734 129.283C67.8773 129.193 67.7572 129.132 67.6275 129.108C67.4978 129.085 67.364 129.099 67.2422 129.149C67.1203 129.2 67.0155 129.284 66.9404 129.392C66.8652 129.501 66.8229 129.628 66.8184 129.76C66.8284 130.917 67.8934 131.945 67.0854 133.012C66.8974 133.18 66.8954 133.235 66.6364 133.297C66.1054 133.269 65.9764 133.028 64.7534 132.19C61.353 129.788 57.3713 128.342 53.2224 128C53.0883 128.006 52.9605 128.058 52.8612 128.149C52.7619 128.239 52.6975 128.361 52.6792 128.494C52.6609 128.627 52.6898 128.762 52.7609 128.876C52.8321 128.99 52.9409 129.075 53.0684 129.117C55.7767 129.777 58.4124 130.705 60.9364 131.888C64.5074 133.719 65.1264 134.998 66.5864 134.984C66.9407 134.974 67.2881 134.884 67.603 134.721C67.9178 134.558 68.1921 134.327 68.4054 134.044L68.4064 134.045Z" fill="#180B02"/>
<path d="M73.3181 127.907C72.8991 127.835 71.5521 128.182 71.4871 128.773C71.0761 132.407 69.9851 135.932 68.2711 139.163C68.1569 139.364 68.1256 139.602 68.1841 139.825C68.2426 140.049 68.3861 140.241 68.5841 140.36C70.0691 141.275 71.8177 141.665 73.5506 141.469C75.2836 141.273 76.9009 140.502 78.1441 139.279C82.0961 134.95 79.1591 128.921 73.3181 127.907ZM78.1321 135.362C77.975 136.203 77.6231 136.996 77.1046 137.676C76.586 138.356 75.9154 138.906 75.1463 139.281C74.3771 139.655 73.531 139.845 72.6755 139.833C71.8201 139.822 70.9792 139.611 70.2201 139.216C71.4595 136.865 72.2637 134.309 72.5941 131.671C72.6659 130.941 72.6558 130.204 72.5641 129.476C72.8191 129.622 78.4631 130.426 78.1321 135.361V135.362Z" fill="#180B02"/>
<path d="M136.389 38.3011C139.382 37.9381 147.12 35.4661 155.202 37.5871C155.966 37.8938 156.789 38.0254 157.61 37.9721C157.704 37.9686 157.796 37.9381 157.873 37.8842C157.951 37.8303 158.011 37.7553 158.047 37.6681C158.083 37.5809 158.093 37.4852 158.077 37.3923C158.06 37.2994 158.017 37.2133 157.953 37.1441C157.74 36.8442 157.429 36.6284 157.073 36.5341C151.986 34.2901 140.878 35.0761 136.114 37.2841C136.014 37.3469 135.937 37.4401 135.894 37.5499C135.851 37.6597 135.845 37.7804 135.876 37.8943C135.906 38.0081 135.973 38.109 136.065 38.1823C136.158 38.2555 136.271 38.2971 136.389 38.3011Z" fill="#180B02"/>
<path d="M102.385 167.482C98.7162 162.656 90.5992 159.428 84.6472 158.189C84.4056 158.133 84.1519 158.173 83.939 158.301C83.7262 158.428 83.5706 158.632 83.5047 158.871C83.4388 159.11 83.4677 159.365 83.5854 159.583C83.703 159.801 83.9003 159.966 84.1362 160.042C89.2172 161.046 94.035 163.093 98.2852 166.053C105.495 171.44 103.211 179.619 95.6642 179.439C90.0782 179.301 85.5932 174.052 79.2112 168.736C79.087 168.612 78.9188 168.543 78.7434 168.543C78.5681 168.543 78.4 168.613 78.2762 168.737C78.1523 168.861 78.0828 169.029 78.083 169.205C78.0832 169.38 78.153 169.548 78.2772 169.672C79.7151 171.401 81.2982 173.004 83.0092 174.464C85.8767 177.455 89.4288 179.704 93.3592 181.016C95.0272 181.476 96.789 181.474 98.4558 181.009C100.123 180.545 101.632 179.636 102.821 178.379C103.973 176.774 104.555 174.829 104.476 172.855C104.397 170.881 103.662 168.99 102.385 167.482ZM94.6762 179.372C94.7462 179.372 94.7462 179.372 94.6762 179.372V179.372Z" fill="#180B02"/>
<path d="M111.637 132.369C107.55 130.515 103.06 129.726 98.586 130.075C98.4532 130.068 98.3204 130.087 98.1955 130.133C98.0706 130.179 97.9564 130.25 97.8598 130.341C97.7631 130.432 97.6862 130.543 97.6336 130.665C97.581 130.787 97.5539 130.918 97.5539 131.051C97.5539 131.184 97.581 131.316 97.6336 131.438C97.6862 131.56 97.7631 131.671 97.8598 131.762C97.9564 131.853 98.0706 131.924 98.1955 131.97C98.3204 132.016 98.4532 132.035 98.586 132.028C103.574 131.904 108.675 132.11 112.611 135.182C117.527 139.022 117.094 144.489 114.249 146.246C108.663 149.697 97.148 139.449 95.255 138.25C95.1132 138.167 94.946 138.138 94.7847 138.17C94.6234 138.201 94.4789 138.29 94.3784 138.42C94.2779 138.55 94.2282 138.712 94.2387 138.876C94.2491 139.04 94.3189 139.195 94.435 139.311C95.0468 140.046 95.7448 140.704 96.514 141.272C100.919 144.923 108.863 150.411 114.184 148.296C119.862 146.032 119.904 136.757 111.638 132.368L111.637 132.369Z" fill="#180B02"/>
<path d="M102.784 135.961C102.584 137.557 102.339 139.143 102.209 140.749C102.212 140.932 102.269 141.111 102.373 141.262C102.476 141.414 102.621 141.532 102.791 141.602C102.96 141.672 103.147 141.691 103.327 141.657C103.507 141.622 103.673 141.536 103.805 141.409C104.603 140.537 105.379 139.669 106.163 138.796C106.217 140.472 105.882 142.172 106.594 143.001C106.703 143.127 106.836 143.23 106.986 143.303C107.136 143.376 107.299 143.418 107.465 143.426C107.632 143.433 107.798 143.407 107.954 143.348C108.11 143.289 108.252 143.199 108.372 143.083C109.054 142.21 109.647 141.271 110.142 140.28C110.493 139.757 110.805 139.209 111.074 138.64C111.126 138.451 111.114 138.25 111.039 138.068C110.965 137.887 110.833 137.735 110.664 137.636C110.494 137.537 110.297 137.497 110.102 137.522C109.908 137.547 109.727 137.636 109.588 137.774C109.014 138.551 108.491 139.365 108.022 140.21C108.173 138.885 108.002 137.544 107.523 136.3C107.45 136.175 107.349 136.068 107.229 135.988C107.108 135.908 106.971 135.856 106.828 135.837C106.684 135.817 106.538 135.831 106.401 135.877C106.264 135.922 106.138 135.999 106.035 136.1C105.414 136.786 104.797 137.475 104.184 138.167C104.2 137.431 104.206 136.697 104.224 135.959C104.224 135.768 104.148 135.586 104.013 135.451C103.946 135.384 103.866 135.331 103.779 135.295C103.692 135.259 103.598 135.241 103.504 135.241C103.313 135.241 103.131 135.317 102.996 135.452C102.861 135.587 102.786 135.77 102.786 135.961H102.784Z" fill="#180B02"/>
<path d="M89.4225 167.765C89.4204 167.592 89.3565 167.426 89.2423 167.297C89.1282 167.167 88.9715 167.083 88.8006 167.059C88.6274 167.031 88.4501 167.068 88.3028 167.163C88.1554 167.259 88.0485 167.405 88.0025 167.574C87.7056 169.218 87.5162 170.88 87.4355 172.548C87.4404 172.726 87.4967 172.899 87.5977 173.046C87.6987 173.192 87.84 173.307 88.0046 173.375C88.1692 173.443 88.35 173.462 88.5251 173.43C88.7003 173.397 88.8623 173.315 88.9915 173.192C89.6695 172.452 90.3466 171.706 91.0206 170.962L91.2915 174.707C91.2953 174.873 91.3417 175.035 91.4264 175.177C91.5111 175.32 91.6311 175.438 91.7749 175.521C91.9187 175.604 92.0813 175.648 92.2472 175.649C92.413 175.651 92.5764 175.609 92.7215 175.529C94.2875 174.669 94.7946 172.88 95.6606 171.713C96.0296 171.28 96.3465 171.063 96.1835 171.182C96.375 171.048 96.509 170.848 96.559 170.62C96.6089 170.391 96.571 170.153 96.4529 169.952C96.3348 169.75 96.1452 169.601 95.9218 169.533C95.6983 169.465 95.4576 169.484 95.2476 169.586C94.2779 170.33 93.5116 171.306 93.0195 172.425L92.7446 168.694C92.7413 168.508 92.6839 168.328 92.5793 168.174C92.4748 168.02 92.3277 167.901 92.1561 167.83C91.9845 167.758 91.7958 167.739 91.6133 167.773C91.4308 167.808 91.2623 167.895 91.1285 168.024C90.5515 168.666 89.9795 169.315 89.4085 169.961C89.4585 169.225 89.4365 168.499 89.4225 167.766V167.765Z" fill="#180B02"/>
<path d="M190.624 94.4231C190.67 94.2548 190.653 94.0756 190.577 93.9187C190.501 93.7618 190.37 93.6379 190.209 93.5701C190.048 93.5023 189.869 93.4951 189.703 93.5499C189.537 93.6047 189.397 93.7178 189.309 93.8681C186.829 98.7861 185.219 112.88 186.648 115.159C186.695 115.237 186.762 115.302 186.841 115.346C186.921 115.391 187.011 115.415 187.102 115.415C187.193 115.415 187.283 115.391 187.362 115.346C187.442 115.302 187.508 115.237 187.556 115.159C187.65 114.994 187.729 114.822 187.795 114.644C187.835 114.49 187.865 113.212 187.861 113.048C187.764 106.731 188.697 100.44 190.624 94.4231Z" fill="#180B02"/>
<path d="M200.798 95.0631C200.848 94.4091 199.822 94.2851 199.667 94.9091C197.901 101.987 202.061 110.827 200.962 118.406C200.798 119.539 200.391 120.515 200.762 121.115C200.849 121.254 200.985 121.354 201.143 121.396C201.301 121.437 201.469 121.416 201.612 121.338C202.292 121.015 202.502 119.6 202.61 118.86C203.775 111.078 200.106 104.161 200.799 95.0621L200.798 95.0631Z" fill="#180B02"/>
<path d="M197.021 115.506C197.06 116.645 196.955 117.785 196.708 118.898C196.594 119.317 196.547 119.751 196.57 120.185C196.712 121.278 198.818 121.815 198.204 115.513C198.182 115.372 198.111 115.244 198.003 115.151C197.895 115.058 197.758 115.006 197.615 115.005C197.473 115.005 197.335 115.055 197.226 115.147C197.117 115.239 197.044 115.366 197.021 115.507V115.506Z" fill="#180B02"/>
<path d="M194.143 115.731C193.295 118.855 193.287 118.724 193.397 119.502C193.432 119.609 193.497 119.703 193.584 119.775C193.671 119.847 193.776 119.892 193.887 119.907C193.999 119.922 194.112 119.904 194.215 119.858C194.317 119.811 194.404 119.736 194.466 119.642C194.825 119.131 194.817 119.028 195.42 116.081C195.463 115.913 195.438 115.734 195.351 115.584C195.264 115.434 195.121 115.324 194.953 115.278C194.785 115.232 194.607 115.254 194.455 115.339C194.303 115.424 194.191 115.564 194.143 115.731Z" fill="#180B02"/>
<path d="M190.47 114.566C190.29 114.54 190.107 114.58 189.955 114.679C189.804 114.778 189.693 114.93 189.646 115.105C189.247 117.389 189.02 118.107 189.435 119.083C189.465 119.177 189.521 119.261 189.596 119.324C189.672 119.387 189.764 119.428 189.862 119.44C189.96 119.453 190.059 119.438 190.149 119.396C190.238 119.354 190.314 119.288 190.367 119.205C191.005 118.355 190.977 117.392 191.125 115.307C191.124 115.125 191.057 114.95 190.937 114.814C190.816 114.678 190.651 114.59 190.471 114.567L190.47 114.566Z" fill="#180B02"/>
<path d="M222.685 117.375C220.706 110.379 222.649 101.718 221.089 95.4619C220.927 94.8099 219.822 94.9249 219.892 95.6239C220.764 104.5 218.679 112.695 221.731 120.023C222.003 121.03 222.593 121.922 223.413 122.567C223.51 122.622 223.619 122.651 223.731 122.65C223.842 122.65 223.952 122.621 224.048 122.565C224.145 122.509 224.225 122.429 224.282 122.333C224.338 122.237 224.368 122.127 224.369 122.016C224.283 120.681 223.541 120.373 222.685 117.375Z" fill="#180B02"/>
<path d="M227.908 118.466C227.77 118.135 227.236 116.495 227.202 116.391C227.168 116.279 227.095 116.182 226.996 116.119C226.897 116.056 226.779 116.03 226.662 116.046C226.546 116.062 226.439 116.118 226.361 116.206C226.282 116.293 226.238 116.406 226.234 116.523C226.285 118.179 226.876 119.773 227.916 121.062C228.02 121.167 228.159 121.23 228.306 121.239C228.453 121.247 228.599 121.202 228.714 121.11C229.37 120.599 228.552 120.018 227.908 118.466Z" fill="#180B02"/>
<path d="M231.994 118.139C231.516 117.244 231.116 116.309 230.797 115.346C230.75 115.209 230.652 115.096 230.525 115.028C230.397 114.961 230.248 114.945 230.109 114.983C229.969 115.022 229.85 115.111 229.774 115.235C229.699 115.358 229.673 115.505 229.702 115.647C229.896 116.745 230.341 117.784 231.001 118.683C231.619 119.327 232.32 118.94 231.995 118.138L231.994 118.139Z" fill="#180B02"/>
<path d="M234.713 116.326C234.324 115.708 234.029 115.036 233.837 114.331C233.816 114.252 233.779 114.179 233.729 114.114C233.679 114.05 233.617 113.996 233.546 113.956C233.475 113.916 233.397 113.89 233.316 113.88C233.235 113.869 233.153 113.875 233.074 113.897C232.996 113.919 232.922 113.955 232.858 114.005C232.793 114.055 232.74 114.118 232.699 114.189C232.659 114.259 232.633 114.338 232.623 114.418C232.613 114.499 232.619 114.581 232.64 114.66C233.434 118.542 235.399 117.621 234.713 116.326Z" fill="#180B02"/>
<path d="M237.488 113.267C235.768 107.424 235.848 99.9299 232.301 94.5139C232.231 94.4129 232.125 94.342 232.005 94.3155C231.885 94.2889 231.76 94.3087 231.654 94.3708C231.548 94.4329 231.469 94.5327 231.434 94.6503C231.398 94.7679 231.409 94.8946 231.463 95.0049C234.456 100.687 233.945 107.234 235.768 113.588C235.997 114.386 236.189 115.475 236.925 115.956C237.017 116.009 237.119 116.04 237.225 116.047C237.331 116.054 237.437 116.037 237.536 115.998C237.634 115.958 237.722 115.896 237.793 115.818C237.864 115.739 237.916 115.645 237.946 115.543C237.993 114.757 237.835 113.973 237.487 113.267H237.488Z" fill="#180B02"/>
<path d="M85.6154 332.354C84.2344 340.789 83.6964 350.056 88.2824 357.268C98.3754 373.138 127.923 371.945 140.084 339.894C144.381 328.566 148.463 322.635 149.628 316.608C150.416 313.223 149.897 309.666 148.174 306.647C146.369 304.227 144.053 302.234 141.391 300.808C132.118 294.937 124.328 290.105 113.499 288.349C103.723 286.763 102.726 290.909 98.7604 293.648C96.5484 295.178 93.8444 295.843 91.5564 297.239C89.8639 298.303 88.4449 299.75 87.4137 301.463C86.3825 303.175 85.7679 305.106 85.6194 307.1C85.7424 310.447 86.1732 313.775 86.9064 317.043C87.1954 322.182 86.7608 327.337 85.6154 332.355V332.354ZM95.0514 322.9C95.8931 320.829 97.0916 318.921 98.5924 317.264C103.645 311.235 110.388 306.092 118.201 305.156C126.014 304.22 128.974 309.084 130.49 316.94C132.16 325.606 132.8 334.839 127.567 341.993C124.74 343.493 123.052 345.039 119.773 344.449C116.922 343.638 114.279 342.22 112.026 340.293C102.562 333.638 97.4624 333.859 95.1984 329.408C94.736 328.388 94.4846 327.284 94.4591 326.164C94.4337 325.044 94.6348 323.93 95.0504 322.89L95.0514 322.9Z" fill="#F07D29"/>
<path d="M124.048 332.911C123.398 334.244 121.488 334.407 121.111 332.993C120.911 332.275 121.111 331.281 120.465 330.892C120.341 330.821 120.203 330.78 120.06 330.773C119.917 330.766 119.775 330.793 119.644 330.851C119.514 330.91 119.399 330.998 119.31 331.109C119.22 331.22 119.158 331.351 119.128 331.491C118.975 332.209 119.029 332.955 119.282 333.644C119.457 334.32 119.864 334.913 120.432 335.319C121 335.725 121.693 335.918 122.389 335.865C123.085 335.811 123.74 335.514 124.24 335.026C124.739 334.538 125.05 333.89 125.119 333.195C125.115 333.071 125.07 332.952 124.993 332.855C124.915 332.758 124.809 332.688 124.689 332.657C124.569 332.625 124.442 332.633 124.326 332.679C124.211 332.725 124.114 332.805 124.048 332.911Z" fill="#180B02"/>
<path d="M106.472 326.136C106.333 326.077 106.176 326.07 106.032 326.117C105.888 326.164 105.766 326.262 105.688 326.393C105.597 326.527 105.477 326.638 105.336 326.718C105.195 326.798 105.037 326.843 104.875 326.852C104.713 326.861 104.552 326.831 104.403 326.767C104.254 326.703 104.123 326.605 104.018 326.481C103.264 325.39 103.914 324.991 103.954 323.674C103.976 322.876 103.312 322.657 102.811 323.046C102.551 323.216 102.333 323.443 102.175 323.71C102.017 323.978 101.923 324.278 101.899 324.588C101.406 327.329 103.571 329.095 105.432 328.46C106.573 328.079 107.344 326.483 106.472 326.136Z" fill="#180B02"/>
<path d="M120.799 323.465L119.339 322.16C118.852 321.727 118.028 320.799 117.344 321.486C117.203 321.658 117.128 321.875 117.135 322.098C117.142 322.32 117.23 322.532 117.382 322.695C117.51 322.839 118.206 323.415 118.926 324.036C116.528 325.937 114.578 328.345 113.216 331.086C113.149 331.214 113.134 331.363 113.174 331.501C113.214 331.64 113.306 331.758 113.431 331.831C113.555 331.904 113.703 331.926 113.844 331.892C113.984 331.859 114.106 331.772 114.184 331.651C114.643 330.991 115.162 330.382 115.646 329.74C117.051 327.842 118.732 326.166 120.634 324.768C120.742 324.702 120.833 324.613 120.902 324.507C120.97 324.401 121.014 324.281 121.03 324.156C121.046 324.031 121.034 323.904 120.994 323.785C120.954 323.665 120.887 323.556 120.799 323.465Z" fill="#180B02"/>
<path d="M115.612 318.677C116.608 318.3 117.67 318.123 118.735 318.157C119.801 318.192 120.849 318.436 121.82 318.877C121.775 319.092 121.808 319.316 121.913 319.509C122.018 319.702 122.189 319.852 122.394 319.931C122.599 320.01 122.825 320.014 123.033 319.942C123.241 319.87 123.416 319.726 123.528 319.537C126.243 313.915 122.77 308.05 119.013 309.582C116.244 310.709 114.59 314.743 114.395 317.761C114.397 317.908 114.433 318.052 114.5 318.183C114.566 318.314 114.662 318.428 114.779 318.516C114.897 318.604 115.033 318.665 115.177 318.693C115.321 318.72 115.47 318.715 115.612 318.677ZM120.438 311.234C122.483 311.747 122.878 315.4 122.323 317.448C120.58 316.384 118.498 316.02 116.498 316.429C116.901 314.45 118.405 311.234 120.438 311.234Z" fill="#180B02"/>
<path d="M150.285 306.888C152.272 304.232 154.124 301.478 155.835 298.635C156.844 296.664 157.682 294.172 155.799 292.953C155.337 292.722 154.833 292.589 154.317 292.565C153.801 292.541 153.286 292.626 152.806 292.813C149.323 293.782 146.115 295.553 143.439 297.984C143.212 298.186 143.029 298.431 142.899 298.705C142.77 298.98 142.697 299.277 142.685 299.58C142.686 299.704 142.735 299.823 142.823 299.911C142.911 299.998 143.03 300.048 143.154 300.049C143.847 299.991 144.496 299.68 144.977 299.177C146.726 297.65 148.708 296.411 150.848 295.506C151.958 295.042 153.113 294.694 154.295 294.467C154.838 294.441 154.955 294.688 155.001 295.036C155.236 296.778 152.322 300.498 149.096 306.192C149.003 306.349 148.977 306.537 149.023 306.714C149.069 306.89 149.184 307.041 149.341 307.134C149.498 307.226 149.686 307.252 149.863 307.206C150.039 307.16 150.19 307.045 150.283 306.888H150.285Z" fill="#180B02"/>
<path d="M118.778 288.269C120.773 274.561 115.386 272.698 112.645 274.817C111.246 276.161 110.337 277.935 110.063 279.856C108.267 287.07 108.293 286.693 108.467 287.311C108.51 287.461 108.591 287.597 108.702 287.706C108.814 287.815 108.951 287.893 109.101 287.933C109.252 287.973 109.41 287.974 109.561 287.935C109.711 287.896 109.849 287.818 109.961 287.71C110.51 287.147 110.36 287.233 111.721 281.785C111.955 279.878 112.683 278.065 113.832 276.526C115.598 274.97 116.982 278.363 117.224 281.484C117.713 287.611 116.853 288.638 117.972 288.784C118.147 288.816 118.327 288.781 118.477 288.685C118.626 288.589 118.734 288.441 118.778 288.269Z" fill="#180B02"/>
<path d="M49.5068 278.974C49.5643 279.03 49.6338 279.073 49.71 279.098C49.7863 279.124 49.8674 279.132 49.9471 279.121C50.0268 279.111 50.1032 279.082 50.1703 279.038C50.2375 278.994 50.2938 278.935 50.3348 278.866C50.9218 277.825 50.4788 276.975 50.9338 271.909C51.3274 268.941 51.3307 265.934 50.9438 262.965C50.7785 262.335 50.5672 261.717 50.3118 261.118C50.2588 260.957 50.1457 260.822 49.9959 260.741C49.8461 260.661 49.6711 260.641 49.5072 260.686C49.3433 260.731 49.203 260.838 49.1155 260.984C49.0279 261.129 48.9998 261.303 49.0368 261.469C49.0948 261.768 49.3238 264.452 49.3438 264.755C49.6628 269.864 47.9378 277.164 49.5078 278.973L49.5068 278.974Z" fill="#180B02"/>
<path d="M48.6113 294.713C48.8863 295.687 49.4215 296.568 50.1593 297.261C50.5583 297.552 51.0393 297.153 51.0653 296.74C51.1753 294.96 46.2773 287.98 46.8623 273.095C46.8557 272.922 46.7824 272.759 46.658 272.639C46.5335 272.52 46.3675 272.453 46.1948 272.453C46.0221 272.453 45.8562 272.52 45.7317 272.639C45.6073 272.759 45.534 272.922 45.5273 273.095C44.7046 280.446 45.7659 287.885 48.6113 294.713Z" fill="#180B02"/>
<path d="M36.8291 287.16C36.9132 288.16 37.2185 289.128 37.7231 289.995C37.9341 290.314 38.5431 290.324 38.6231 289.875C38.7532 288.132 38.6722 286.38 38.3821 284.656C37.8611 276.756 39.6111 270.21 40.6281 263.31C40.6723 263.15 40.651 262.979 40.5691 262.835C40.4871 262.69 40.3512 262.584 40.1911 262.54C40.031 262.496 39.86 262.517 39.7156 262.599C39.5712 262.681 39.4653 262.817 39.4211 262.977C37.4461 269.914 35.7821 280.024 36.8291 287.16Z" fill="#180B02"/>
<path d="M43.7906 292.047C44.4066 293.94 45.1596 293.978 45.3286 293.444C45.8396 291.824 44.4606 290.936 43.1696 278.366C43.1696 278.204 43.1052 278.049 42.9907 277.934C42.8763 277.82 42.721 277.755 42.5591 277.755C42.3971 277.755 42.2419 277.82 42.1274 277.934C42.0129 278.049 41.9486 278.204 41.9486 278.366C41.915 282.99 42.5347 287.597 43.7896 292.048L43.7906 292.047Z" fill="#180B02"/>
<path d="M40.3759 279.365C40.3701 279.231 40.3129 279.105 40.2163 279.013C40.1197 278.92 39.9912 278.869 39.8574 278.869C39.7237 278.869 39.5952 278.92 39.4986 279.013C39.402 279.105 39.3448 279.231 39.3389 279.365C38.8842 282.661 39.2465 286.018 40.3939 289.141C40.503 289.63 40.7583 290.075 41.1259 290.416C41.1909 290.478 41.2726 290.521 41.3611 290.537C41.4496 290.554 41.5411 290.545 41.6243 290.51C41.7076 290.476 41.7789 290.417 41.8296 290.343C41.8804 290.269 41.9083 290.181 41.9099 290.091C41.8979 288.894 41.8579 289.68 41.3109 287.41C40.6237 284.786 40.3086 282.078 40.3749 279.366L40.3759 279.365Z" fill="#180B02"/>
<path d="M83.6924 329.338C67.8944 321.262 55.0304 312.678 43.4054 299.636C34.9809 290.301 28.4499 279.419 24.1754 267.594C20.9834 258.567 14.0164 232.58 12.8134 218.274C16.5884 217.959 25.1484 217.113 29.2304 216.241C30.3114 216.01 30.0904 214.192 28.9654 214.286C24.7584 214.643 22.0884 215.284 11.6084 216.119C11.3108 216.123 11.0266 216.243 10.8161 216.454C10.6056 216.664 10.4856 216.948 10.4814 217.246C11.5793 228.026 13.6324 238.687 16.6164 249.104C21.6874 268.601 25.7014 281.978 39.8384 298.768C51.5869 312.633 66.4203 323.553 83.1494 330.652C83.8914 330.955 84.4144 329.706 83.6924 329.337V329.338Z" fill="#180B02"/>
<path d="M87.3416 296.714C85.0256 294.835 77.5836 291.359 71.3476 286.44C60.8996 278.201 57.0336 269.395 56.8156 256.337C56.901 246.674 58.0509 237.05 60.2446 227.639C61.6176 221.584 62.1116 221.223 61.5736 220.224C61.0766 219.549 60.3342 219.097 59.5066 218.965C58.7086 218.7 57.9366 218.446 57.1246 218.249C56.8926 218.188 56.6464 218.212 56.431 218.318C56.2155 218.424 56.0454 218.603 55.9516 218.824C55.8557 219.044 55.8433 219.291 55.9168 219.52C55.9902 219.748 56.1445 219.942 56.3506 220.065C57.5476 220.596 58.6346 220.953 59.5806 221.278C56.5029 232.362 54.8707 243.798 54.7246 255.301C54.7966 277.28 65.4056 287.189 85.4816 297.396C85.8681 297.572 86.2685 297.716 86.6786 297.827C87.3006 298.013 87.8616 297.139 87.3406 296.716L87.3416 296.714Z" fill="#180B02"/>
<path d="M21.4478 214.364C20.8051 204.359 22.8144 194.361 27.2728 185.381C27.4628 185.008 27.8118 184.142 27.6998 184.413C28.3938 182.805 26.9678 182.101 26.0518 183.513C24.1234 187.019 22.6224 190.743 21.5808 194.607C19.7849 201.027 19.2344 207.731 19.9588 214.358C19.958 214.555 20.0357 214.745 20.1746 214.885C20.3136 215.025 20.5025 215.104 20.6998 215.105C20.8972 215.106 21.0867 215.028 21.2268 214.889C21.3669 214.75 21.447 214.561 21.4478 214.364Z" fill="#180B02"/>
<path d="M27.3555 197.119C27.3571 197.272 27.414 197.419 27.5156 197.533C27.6172 197.648 27.7568 197.721 27.9085 197.741C28.0598 197.764 28.2142 197.73 28.3424 197.646C28.4706 197.563 28.5639 197.435 28.6045 197.288C30.0015 187.495 33.2505 183.493 33.1055 182.168C33.1025 182.082 33.0777 181.999 33.0335 181.926C32.9893 181.852 32.9271 181.791 32.8528 181.749C32.7785 181.706 32.6945 181.683 32.6089 181.682C32.5233 181.681 32.4388 181.702 32.3635 181.743C30.9965 182.385 27.6335 189.767 27.3565 197.118L27.3555 197.119Z" fill="#180B02"/>
<path d="M139.813 46.9719C139.358 43.1104 138.098 39.3873 136.114 36.0429C136.009 35.8678 135.849 35.7315 135.66 35.6542C135.471 35.5769 135.261 35.5628 135.063 35.6139C123.609 38.4537 112.895 43.7132 103.642 51.0389C103.281 51.3439 103.754 51.9549 104.147 51.6949C105.563 50.7669 106.968 49.9749 107.062 49.9109C111.792 46.7733 116.801 44.0786 122.025 41.8609C122.276 42.1599 122.997 42.7389 124.533 44.2069C126.009 45.5984 127.23 47.2379 128.14 49.0509C128.248 49.2237 128.414 49.3525 128.608 49.4141C128.802 49.4757 129.011 49.4661 129.199 49.3871C129.387 49.3081 129.54 49.1649 129.631 48.983C129.723 48.8012 129.747 48.5927 129.698 48.3949C128.473 44.7539 125.309 41.0269 123.938 41.0809C127.49 39.665 131.137 38.4998 134.851 37.5939C136.462 40.9135 137.653 44.4204 138.398 48.0339C138.472 48.1548 138.58 48.2515 138.708 48.3126C138.836 48.3736 138.979 48.3963 139.119 48.3779C139.26 48.3595 139.392 48.3008 139.5 48.2089C139.608 48.117 139.687 47.9958 139.727 47.8599C139.807 47.5704 139.836 47.2694 139.815 46.9699L139.813 46.9719Z" fill="#F07D29"/>
<path d="M117.263 72.8109C114.811 78.5354 112.564 84.3451 110.526 90.2289C107.29 87.1129 99.3255 80.7089 95.0005 79.8069C94.7702 79.7137 94.5234 79.6679 94.2749 79.6723C94.0264 79.6768 93.7814 79.7314 93.5545 79.8329C93.3788 79.9419 93.2514 80.1141 93.1988 80.314C93.1461 80.514 93.1722 80.7266 93.2715 80.9079C93.5585 81.5739 95.9165 82.5439 96.6885 82.9309C103.147 86.1589 109.102 91.6069 110.006 91.7289C107.464 99.1539 105.844 104.655 104.484 109.323C98.0115 102.59 97.2475 101.415 95.7455 100.094C92.0345 96.7378 87.9901 93.7697 83.6755 91.2359C82.6762 90.5584 81.5376 90.1138 80.3435 89.9349C80.1963 89.9385 80.0525 89.9799 79.9259 90.0553C79.7994 90.1307 79.6945 90.2374 79.6213 90.3652C79.5481 90.493 79.5091 90.6376 79.5081 90.7848C79.5071 90.9321 79.5441 91.0772 79.6155 91.2059C80.4135 92.5229 83.9585 93.2849 91.4755 99.3849C95.905 102.986 100.082 106.887 103.979 111.06C102.698 115.732 101.167 120.332 99.3905 124.839C97.5945 123.343 95.1755 121.284 94.0375 120.384C90.7735 117.806 77.4245 108.23 75.3025 107.334C74.5045 106.999 74.2575 106.801 73.6685 106.917C73.5396 106.955 73.4305 107.041 73.3642 107.158C73.298 107.275 73.2798 107.413 73.3135 107.543C73.5425 108.618 76.7625 110.623 77.8805 111.375C92.5695 121.26 95.2685 123.664 98.7785 126.288C97.3932 129.508 95.8817 132.671 94.2475 135.772C94.2535 135.642 94.2233 135.513 94.1602 135.399C94.0972 135.286 94.0038 135.192 93.8905 135.128C89.8525 133.041 89.8045 132.953 88.8635 133.133C88.7654 133.161 88.6749 133.212 88.5991 133.28C88.5232 133.349 88.4638 133.433 88.4254 133.528C88.387 133.623 88.3705 133.725 88.3773 133.827C88.3841 133.929 88.4139 134.028 88.4645 134.117C88.9295 134.889 89.0255 134.877 93.3285 136.463C93.4326 136.497 93.5434 136.504 93.651 136.484C93.7586 136.464 93.8595 136.418 93.9445 136.349C92.2145 139.641 86.9625 149.271 86.1105 150.823C86.0653 150.722 86.0001 150.631 85.9188 150.555C85.8375 150.48 85.7419 150.422 85.6375 150.384C81.6935 148.736 82.2455 148.926 81.1765 148.774C80.9953 148.716 80.7987 148.727 80.6257 148.807C80.4527 148.886 80.3159 149.028 80.2424 149.204C80.1688 149.379 80.1639 149.576 80.2285 149.755C80.2932 149.934 80.4228 150.083 80.5915 150.171C81.6105 150.77 81.1905 150.612 85.2575 151.779C85.3683 151.806 85.4838 151.806 85.5945 151.779C83.2005 156.19 80.8065 160.621 78.4725 165.078C70.8755 160.789 76.0225 162.911 59.4225 156.545C58.6809 156.229 57.8687 156.114 57.0685 156.214C56.9698 156.244 56.8789 156.296 56.8026 156.365C56.7262 156.435 56.6663 156.52 56.6272 156.616C56.588 156.711 56.5706 156.814 56.5762 156.918C56.5818 157.021 56.6103 157.121 56.6595 157.212C57.0965 157.982 58.3755 158.654 71.1635 163.229C72.2465 163.628 75.6705 165.487 77.7465 166.465C75.7632 170.26 73.8269 174.074 71.9375 177.908C67.7835 176.565 58.8885 174.293 55.7775 173.407C43.4085 169.878 42.7625 169.303 38.7625 168.098C39.5125 164.906 40.3045 161.714 41.0965 158.522C41.1476 158.294 41.1088 158.054 40.9883 157.854C40.8679 157.653 40.6749 157.506 40.4493 157.444C40.2237 157.382 39.9828 157.409 39.7764 157.519C39.57 157.629 39.414 157.815 39.3405 158.037C37.2545 164.68 35.6345 171.46 34.4925 178.328C29.4447 206.598 30.4004 235.614 37.2975 263.491C37.3766 263.762 37.5585 263.992 37.8045 264.132C38.0504 264.271 38.3411 264.309 38.6145 264.237L51.4005 260.562C51.6237 260.496 51.8201 260.361 51.9611 260.176C52.1021 259.991 52.1804 259.766 52.1845 259.533C51.1415 210.167 81.6105 165.738 97.6845 133.551C107.169 114.557 106.008 104.025 118.754 73.4139C119.095 72.5979 117.625 71.9719 117.264 72.8119L117.263 72.8109ZM39.1005 261.887C37.7919 256.515 36.7045 251.096 35.8385 245.63C38.1505 245.716 37.9215 245.594 46.2645 244.467C47.7935 244.311 49.2969 243.964 50.7395 243.434C50.1892 248.519 49.9528 253.634 50.0315 258.748L39.1005 261.887ZM50.9285 241.763C49.7635 242.006 47.3375 242.451 46.0785 242.561C42.5887 243.145 39.0633 243.492 35.5265 243.6C34.6752 237.848 34.0735 232.062 33.7215 226.243C34.021 226.358 34.3303 226.445 34.6455 226.504C40.0136 226.946 45.4058 227.016 50.7835 226.713C50.9371 226.665 51.0715 226.57 51.1668 226.44C51.2622 226.31 51.3137 226.154 51.3137 225.993C51.3137 225.832 51.2622 225.675 51.1668 225.546C51.0715 225.416 50.9371 225.321 50.7835 225.273C49.5965 224.956 37.7345 224.663 35.8205 224.505C35.0391 224.422 34.2812 224.188 33.5885 223.817C33.2852 217.528 33.2792 211.219 33.5705 204.89C36.3735 207.589 50.6255 209.969 53.7435 210.326C54.6397 210.5 55.5606 210.505 56.4585 210.34C56.61 210.295 56.7454 210.208 56.8482 210.088C56.9511 209.968 57.0171 209.821 57.0382 209.665C57.0594 209.508 57.0348 209.349 56.9674 209.206C56.9 209.063 56.7928 208.943 56.6585 208.86C55.5235 208.261 53.2665 208.281 47.6095 207.084C44.277 206.402 40.9838 205.54 37.7445 204.502C36.2645 203.973 34.6105 202.706 33.7005 202.563C33.9879 197.602 34.4639 192.644 35.1285 187.688C35.4281 187.83 35.736 187.954 36.0505 188.059C43.7975 190.736 51.4775 193.446 60.3075 194.184C60.5103 194.18 60.7049 194.104 60.8561 193.969C61.0074 193.834 61.1052 193.649 61.132 193.448C61.1587 193.247 61.1125 193.043 61.0018 192.873C60.8911 192.703 60.7232 192.579 60.5285 192.522C53.4325 190.78 50.1365 190.312 42.4375 187.894C40.8195 187.387 37.4145 185.971 35.4555 185.42C36.1962 180.351 37.1359 175.297 38.2745 170.258C46.7034 173.345 55.3323 175.856 64.1015 177.773C65.0215 177.949 70.0625 179.381 71.1675 179.501C61.4595 199.469 53.5375 220.063 50.9285 241.761V241.763Z" fill="#F07D29"/>
<path d="M346.457 148.232C346.418 148.462 346.429 148.698 346.49 148.923C346.551 149.149 346.661 149.358 346.81 149.537C346.971 149.692 347.186 149.778 347.409 149.778C347.632 149.778 347.846 149.692 348.007 149.537C348.158 149.358 348.267 149.149 348.329 148.924C348.39 148.698 348.401 148.462 348.362 148.232C348.657 145.82 348.024 143.386 346.59 141.423C346.508 141.301 346.383 141.214 346.239 141.181C346.095 141.148 345.944 141.171 345.817 141.245C345.69 141.32 345.596 141.44 345.554 141.581C345.512 141.722 345.526 141.874 345.592 142.006C346.258 144.011 346.551 146.121 346.456 148.232H346.457Z" fill="#180B02"/>
<path d="M354.912 160.248C354.117 158.938 352.901 157.937 351.463 157.409C351.337 157.328 351.185 157.297 351.038 157.323C350.89 157.349 350.758 157.428 350.666 157.547C350.575 157.665 350.531 157.814 350.543 157.963C350.555 158.112 350.623 158.251 350.733 158.353C351.473 159.017 351.298 159.055 352.068 159.841C353.169 160.951 354.018 162.285 354.556 163.753C354.656 164.14 354.81 164.512 355.013 164.856C355.109 165.023 355.258 165.153 355.435 165.227C355.613 165.301 355.81 165.313 355.996 165.263C356.182 165.213 356.346 165.103 356.463 164.95C356.579 164.797 356.642 164.609 356.641 164.417C356.44 162.9 355.844 161.462 354.913 160.247L354.912 160.248Z" fill="#180B02"/>
<path d="M351.087 150.873C344.629 152.728 341.81 152.423 337.844 153.55C337.579 153.626 337.354 153.803 337.218 154.043C337.083 154.283 337.046 154.567 337.118 154.833C337.68 156.331 338.435 157.749 339.364 159.052C339.509 159.254 339.723 159.394 339.966 159.446C340.208 159.498 340.462 159.458 340.676 159.333C340.891 159.209 341.051 159.009 341.126 158.772C341.201 158.536 341.186 158.28 341.082 158.054C340.495 157.172 339.978 156.245 339.536 155.281C343.925 154.256 348.575 153.91 351.53 151.935C351.656 151.866 351.751 151.754 351.799 151.619C351.846 151.484 351.842 151.336 351.787 151.204C351.732 151.072 351.63 150.965 351.501 150.904C351.371 150.842 351.224 150.831 351.087 150.872V150.873Z" fill="#180B02"/>
<path d="M336.857 162.442C335.987 162.161 335.496 162.959 334.248 162.929C333.832 162.908 333.439 162.732 333.145 162.436C332.963 162.225 332.846 161.965 332.808 161.688C332.793 160.815 333.098 159.966 333.665 159.302C333.804 159.223 333.909 159.095 333.96 158.944C334.012 158.793 334.006 158.628 333.944 158.481C333.882 158.333 333.768 158.214 333.624 158.145C333.48 158.075 333.316 158.061 333.162 158.105C332.398 158.495 331.776 159.117 331.385 159.882C330.995 160.647 330.857 161.516 330.989 162.364C331.206 163.174 331.711 163.878 332.408 164.343C333.106 164.809 333.949 165.005 334.78 164.894C337.685 164.577 337.828 162.759 336.857 162.442ZM334.124 162.923H334.168C334.151 162.927 334.134 162.927 334.116 162.923H334.124Z" fill="#180B02"/>
<path d="M374.762 169.06C379.203 166.133 384.952 160.406 382.542 155.693C383.334 153.969 383.754 152.097 383.774 150.199C383.793 148.302 383.412 146.421 382.656 144.681C381.522 140.866 379.605 137.328 377.028 134.295C374.945 132.111 372.368 130.46 369.514 129.479C366.66 128.498 363.613 128.216 360.627 128.657C359.475 128.906 358.431 129.516 357.648 130.398C356.865 131.279 356.382 132.387 356.27 133.561C356.14 134.686 356.1 133.196 348.432 136.192C348.011 133.12 343.472 132.767 340.546 134.728C338.034 136.412 336.688 139.466 338.83 140.795C339.03 140.795 331.448 144.875 328.536 147.037C322.04 151.871 322.415 157.624 325.48 165.024C328.303 171.839 330.92 177.064 338.36 177.094C342.638 176.842 346.844 175.879 350.805 174.243C351.005 174.255 351.17 174.506 351.525 174.842C352.994 176.139 354.909 176.813 356.866 176.721C358.823 176.63 360.668 175.781 362.009 174.353C364.714 174.365 370.689 171.466 372.934 170.179C380.266 184.403 386.861 200 387.354 216.208C387.632 231.259 385.944 246.282 382.331 260.896C379.98 269.315 376.701 277.446 372.555 285.141C367.763 284.228 363.076 282.832 358.566 280.973C363.701 269.845 370.337 250.759 367.681 238.823C363.547 220.303 322.476 196.194 318.301 138.289C318.013 130.349 316.845 122.466 314.818 114.784C305.833 85.0129 292.769 77.8089 274.635 57.0089C277.329 52.5666 280.887 48.7104 285.099 45.6689C315.972 65.2519 334.84 96.6389 351.084 129.419C351.545 130.351 352.903 129.535 352.481 128.607C337.032 95.5659 316.391 62.6299 285.668 43.2489C285.49 43.1422 285.286 43.0859 285.078 43.0859C284.87 43.0859 284.666 43.1422 284.487 43.2489C284.014 43.5759 283.547 43.9149 283.09 44.2599C283.025 43.849 282.866 43.4586 282.625 43.1189C279.056 36.7449 271.652 31.0209 265.456 27.4499C264.842 27.0969 264.281 27.9749 264.758 28.3559C270.699 33.1079 276.949 36.6809 281.027 43.7179C281.284 44.1649 281.584 44.8749 282.042 45.0709C278.725 47.7256 275.837 50.8764 273.481 54.4119C272.184 53.9629 272.228 54.0869 270.887 53.5759C263.905 50.9309 262.017 46.3479 259.073 43.9879C257.663 42.8569 255.133 41.4419 253.613 42.4119C253.513 42.4729 253.43 42.5587 253.372 42.6611C253.315 42.7635 253.285 42.879 253.285 42.9964C253.285 43.1139 253.315 43.2293 253.372 43.3317C253.43 43.4341 253.513 43.5199 253.613 43.5809C254.958 44.3509 255.552 43.8439 257.501 45.2889C260.607 47.5929 262.752 52.9759 271.318 55.6309C271.717 55.7529 272.104 55.8739 272.505 55.9599C272.15 56.5589 271.659 57.1669 272.349 57.9649C289.388 77.6719 301.821 85.0229 310.547 109.28C315.83 123.963 315.078 129.459 316.749 148.741C312.805 150.209 308.659 152.005 306.062 155.456C305.259 156.306 304.823 157.438 304.847 158.608C304.871 159.777 305.354 160.89 306.192 161.706C307.995 162.767 310.112 163.164 312.177 162.829C314.307 162.882 316.429 162.573 318.455 161.915C319.434 167.16 321.253 172.212 323.842 176.878C320.285 178.597 317.005 180.838 314.11 183.527C311.361 186.553 313.27 189.809 316.42 190.581C321.183 191.121 326.001 190.299 330.315 188.211C337.174 199.265 350.794 217.324 354.083 221.328C353.085 222.495 350.478 234.633 337.989 248.46C330.965 256.265 322.463 262.601 312.974 267.099C308.784 269.068 304.395 270.445 300.088 272.124C299.611 270.602 296.591 262.023 296.18 260.952C295.432 258.999 294.642 258.622 292.731 257.76C284.117 253.904 284.52 253.954 283.953 254.189C283.143 254.53 283.59 254.772 282.012 260.086C280.582 264.9 279.843 265.496 280.645 266.771C280.892 267.17 289.481 277.215 289.864 277.646C283.953 282.488 283.979 287.455 281.036 292.028C267.394 280.277 271.596 279.43 266.415 279.459L257.799 279.507C257.525 279.513 257.263 279.624 257.069 279.818C256.875 280.012 256.764 280.274 256.758 280.548C256.746 280.748 256.056 291.941 256.066 292.207C256.144 294.003 256.752 293.789 267.322 300.506C260.126 306.022 260.26 315.081 254.522 324.723C251.555 329.711 249.377 331.306 246.195 335.087C246.071 334.718 244.767 330.54 243.979 327.863C243.9 327.583 243.714 327.345 243.46 327.201C243.207 327.057 242.907 327.019 242.626 327.095C230.63 331.866 218.039 334.98 205.202 336.35C186.648 338.313 173.681 336.372 154.445 322.461C153.765 321.968 152.939 321.633 152.282 321.118C152.127 320.963 151.917 320.876 151.698 320.876C151.479 320.876 151.268 320.963 151.113 321.118C150.958 321.273 150.871 321.483 150.871 321.702C150.871 321.922 150.958 322.132 151.113 322.287C152.202 323.375 153.382 324.369 154.638 325.258C172.194 337.888 186.434 340.157 202.59 338.742C216.157 337.558 229.492 334.48 242.205 329.599C242.983 332.24 243.788 334.874 244.619 337.499C227.386 352.827 207.512 354.199 187.111 360.396C186.341 360.598 185.584 360.848 184.845 361.146C183.167 361.9 183.5 363.901 183.576 365.447C167.338 364.425 151.601 359.429 137.747 350.897C136.897 350.366 136.215 351.641 136.979 352.21C147.154 359.771 162.515 366.097 183.646 367.805L183.798 373.227C183.822 374.075 183.686 375.007 184.375 375.621C184.848 376.034 185.373 376.044 187.126 376.22C199.323 377.439 211.68 375.49 223.786 372.916C249.342 367.484 273.096 361.708 297.058 334.412C298.626 332.616 298.636 332.507 298.943 332.261C298.989 332.8 299.482 333.211 300.427 332.846C299.856 333.067 302.975 331.2 315.246 332.192C317.539 332.387 319.796 332.888 321.955 333.682C322.025 333.723 322.103 333.75 322.183 333.761C322.264 333.772 322.346 333.767 322.424 333.747C322.503 333.727 322.577 333.691 322.641 333.642C322.706 333.593 322.761 333.531 322.802 333.461C322.843 333.391 322.87 333.314 322.881 333.233C322.892 333.153 322.887 333.071 322.867 332.992C322.846 332.914 322.811 332.84 322.762 332.775C322.713 332.711 322.651 332.656 322.581 332.615C319.903 330.972 316.824 330.097 313.681 330.087C311.253 329.897 306.142 329.997 303.842 330.087C302.402 330.141 303.196 330.267 302.767 329.688C299.176 324.828 291.443 312.93 290.055 307.111C288.176 299.223 294.245 294.343 303.481 297.976C311.531 301.563 318.905 306.508 325.28 312.593C325.46 312.763 325.647 312.922 325.837 313.08C323.499 319.386 321.773 326.195 323.684 332.615C323.725 332.76 323.818 332.885 323.944 332.967C324.07 333.05 324.221 333.084 324.37 333.064C324.521 333.046 324.659 332.974 324.76 332.861C324.86 332.748 324.916 332.601 324.915 332.45C323.365 320.39 329.773 310.479 329.781 307.884C347.736 290.482 359.522 266.44 365.904 242.673C366.882 253.105 360.811 270.858 356.019 280.977C355.871 281.246 355.832 281.562 355.911 281.859C355.989 282.156 356.179 282.412 356.44 282.573C359.163 283.77 358.166 283.044 357.837 283.662C356.31 287.106 354.578 290.456 352.65 293.693C351.349 295.744 351.138 295.608 351.313 296.737C351.361 297.048 351.694 297.154 352.045 297.106C352.909 296.988 353.366 296.073 354.084 294.959C356.309 291.651 357.993 288.01 359.072 284.172C359.094 284.079 359.096 283.983 359.08 283.889C359.063 283.795 359.028 283.705 358.976 283.625C363.112 285.254 367.391 286.495 371.756 287.332C371.175 287.835 371.239 290.484 371.074 292.052C370.46 297.911 367.83 303.9 365.658 309.468C365.379 310.182 366.55 310.665 366.893 309.989C369.989 303.848 372.89 297.059 373.129 290.211C373.156 289.288 372.999 288.368 372.668 287.506L372.891 287.55C373.137 287.611 373.397 287.592 373.632 287.497C373.867 287.401 374.065 287.233 374.198 287.017C385.969 264.629 389.184 243.634 389.528 218.808C389.755 201.839 382.544 184.139 374.763 169.057L374.762 169.06ZM346.818 136.559C346.818 136.597 346.838 136.639 346.818 136.559V136.559ZM339.704 138.931C339.371 138.105 341.192 136.439 342.27 135.907C343.667 135.223 346.41 135.023 346.801 136.521C347.052 137.07 345.159 137.319 340.616 139.817C340.55 139.438 339.876 139.368 339.704 138.939V138.931ZM354.283 174.348C352.651 173.64 352.288 172.367 350.905 172.291C349.776 172.229 349.375 172.848 345.868 173.887C341.91 175.06 336.615 176.054 333.212 173.709C332.192 172.967 331.314 172.048 330.618 170.996C328.415 167.395 326.735 163.499 325.63 159.425C323.757 151.16 329.022 148.67 336.128 144.447C342.343 140.433 349.129 137.382 356.256 135.398C356.793 143.629 362.173 152.739 366.113 159.354C366.434 159.915 366.801 160.448 367.208 160.95C364.608 162.193 362.245 163.881 360.226 165.938C360.111 166.058 360.025 166.202 359.972 166.359C359.92 166.517 359.904 166.684 359.925 166.849C359.946 167.014 360.004 167.172 360.094 167.311C360.184 167.451 360.304 167.569 360.445 167.656C363.633 170.848 359.827 176.354 354.282 174.357L354.283 174.348ZM282.337 265.661C282.337 265.703 282.337 265.803 282.337 265.661C282.229 265.45 283.628 262.513 285.036 256.496C293.615 260.253 293.734 260.033 294.317 261.368C294.74 262.529 298.058 271.594 298.528 272.74C296.062 273.719 293.704 274.953 291.492 276.421C290.487 275.212 282.526 265.963 282.337 265.67V265.661ZM258.164 292.256C258.116 291.977 258.28 289.704 258.763 281.585C268.443 281.531 267.665 281.501 268.04 281.631C268.756 282.03 273.083 288.737 280.068 293.324C277.331 296.516 272.924 297.124 269.283 299.195C268.419 298.666 257.945 292.264 258.165 292.264L258.164 292.256Z" fill="#180B02"/>
<path d="M246.683 39.801C259.73 38.869 262.142 42.712 264.951 42.594C265.032 42.5933 265.111 42.5715 265.18 42.531C265.25 42.4904 265.307 42.4325 265.348 42.3628C265.388 42.2932 265.409 42.2143 265.41 42.1338C265.41 42.0534 265.39 41.9742 265.35 41.904C265.009 41.3256 264.496 40.8675 263.882 40.593C258.478 38.0052 252.374 37.2656 246.508 38.488C245.786 38.688 245.906 39.867 246.684 39.801H246.683Z" fill="#180B02"/>
<path d="M250.288 35.0141C260.233 35.0141 263.9 38.0481 265.326 37.6081C265.403 37.5853 265.474 37.5456 265.533 37.4918C265.592 37.438 265.639 37.3716 265.669 37.2974C265.699 37.2233 265.712 37.1433 265.707 37.0634C265.702 36.9836 265.679 36.9059 265.639 36.8361C264.929 35.3301 256.538 33.0551 250.289 33.8631C250.144 33.8734 250.008 33.9383 249.908 34.0449C249.809 34.1515 249.753 34.2918 249.753 34.4377C249.753 34.5835 249.808 34.724 249.907 34.831C250.006 34.9379 250.143 35.0033 250.288 35.0141Z" fill="#180B02"/>
<path d="M256.488 30.489C262.77 31.658 265.34 34.268 267.048 34.543C267.12 34.5597 267.195 34.5554 267.264 34.5306C267.334 34.5059 267.394 34.4617 267.439 34.4034C267.484 34.345 267.511 34.275 267.517 34.2017C267.523 34.1284 267.508 34.0549 267.473 33.99C267.218 33.5517 266.879 33.168 266.475 32.861C263.582 30.8022 260.195 29.5485 256.658 29.228C255.944 29.15 255.776 30.357 256.488 30.489Z" fill="#180B02"/>
<path d="M314.93 312.809C314.194 312.496 313.881 312.081 313.308 312.011C313.174 311.982 313.034 311.99 312.903 312.034C312.773 312.078 312.657 312.157 312.567 312.262C312.478 312.367 312.419 312.494 312.396 312.63C312.373 312.766 312.388 312.906 312.438 313.034C312.618 313.472 312.955 313.828 313.382 314.032C313.72 314.318 314.115 314.53 314.54 314.653C314.965 314.777 315.411 314.811 315.85 314.751C316.289 314.691 316.71 314.54 317.087 314.308C317.463 314.075 317.787 313.766 318.036 313.4C318.327 312.759 318.447 312.053 318.384 311.352C318.321 310.65 318.078 309.977 317.677 309.398C317.602 309.273 317.489 309.175 317.353 309.121C317.218 309.066 317.068 309.057 316.927 309.095C316.786 309.133 316.662 309.216 316.572 309.332C316.483 309.447 316.434 309.589 316.432 309.735C316.677 311.963 317.086 313.436 314.93 312.809Z" fill="#180B02"/>
<path d="M305.982 321.344C305.495 322.258 304.51 321.831 303.5 322.002C303.369 322.041 303.252 322.117 303.163 322.221C303.074 322.325 303.018 322.453 303 322.588C302.982 322.724 303.005 322.862 303.064 322.985C303.123 323.109 303.217 323.212 303.334 323.283C305.345 324.372 308.08 322.651 307.44 320.638C307.37 320.415 307.023 319.766 307.001 319.64C307.072 319.511 307.094 319.362 307.065 319.218C307.036 319.074 306.956 318.945 306.841 318.854C306.272 318.417 305.694 319.093 305.708 319.796C305.722 320.499 306.133 320.921 305.981 321.344H305.982Z" fill="#180B02"/>
<path d="M310.8 319.121C310.926 319.247 311.096 319.317 311.273 319.317C311.451 319.317 311.621 319.247 311.746 319.121C311.872 318.996 311.942 318.826 311.942 318.648C311.942 318.471 311.872 318.301 311.746 318.175C309.329 315.821 307.631 312.828 306.848 309.545C306.664 309.244 306.38 309.016 306.046 308.901C305.712 308.786 305.349 308.79 305.017 308.913C302.096 309.693 301.911 311.542 302.781 311.738C303.651 311.934 304.776 310.717 305.323 310.717C306.209 314.03 308.128 316.974 310.801 319.122L310.8 319.121Z" fill="#180B02"/>
<path d="M300.013 300.404C299.463 300.096 298.846 299.927 298.215 299.912C297.585 299.898 296.961 300.038 296.397 300.32C295.833 300.602 295.347 301.018 294.981 301.531C294.615 302.045 294.38 302.64 294.297 303.265C294.105 304.422 294.357 305.609 295.002 306.589C295.647 307.568 296.637 308.269 297.776 308.55C298.387 308.536 298.969 308.288 299.403 307.858C299.838 307.428 300.091 306.849 300.112 306.238C300.51 306.145 300.879 305.956 301.185 305.685C301.492 305.415 301.726 305.073 301.868 304.69C302.01 304.307 302.055 303.895 301.998 303.49C301.942 303.086 301.786 302.702 301.544 302.372C301.272 301.561 300.732 300.867 300.012 300.405L300.013 300.404Z" fill="#180B02"/>
<path d="M346.76 293.53C344.964 302.39 347.025 325.113 334.499 339.084C333.31 340.413 331.926 341.553 330.393 342.464C329.717 342.847 330.168 344.01 330.936 343.747C336.458 341.848 341.089 333.373 343.167 327.921C345.552 321.089 346.98 313.96 347.408 306.736C347.598 304.569 348.232 295.893 348.238 295.351C348.244 294.809 348.2 294.268 348.186 293.729C348.184 293.555 348.119 293.387 348.004 293.256C347.889 293.126 347.731 293.041 347.558 293.017C347.386 292.993 347.21 293.031 347.064 293.126C346.917 293.22 346.809 293.364 346.76 293.531V293.53Z" fill="#180B02"/>
<path d="M325.779 345.719C315.469 353.033 302.803 354.87 291.405 349.362C290.057 348.551 288.644 347.855 287.18 347.281C287.043 347.246 286.898 347.252 286.764 347.298C286.631 347.345 286.513 347.429 286.427 347.541C286.34 347.653 286.288 347.788 286.277 347.929C286.267 348.071 286.298 348.212 286.366 348.336C287.359 349.425 288.579 350.282 289.939 350.848C295.753 353.894 302.347 355.126 308.868 354.384C315.389 353.642 321.538 350.96 326.519 346.686C327.038 346.233 326.359 345.307 325.779 345.718V345.719Z" fill="#180B02"/>
<path d="M361.703 292.885C361.786 292.73 361.805 292.549 361.757 292.38C361.71 292.211 361.598 292.067 361.446 291.979C361.295 291.891 361.114 291.865 360.944 291.906C360.773 291.948 360.626 292.054 360.532 292.203C352.883 303.197 350.573 302.561 349.945 304.987C349.928 305.053 349.926 305.122 349.94 305.188C349.953 305.255 349.982 305.318 350.023 305.372C350.064 305.426 350.117 305.47 350.178 305.5C350.239 305.531 350.306 305.547 350.374 305.548C351.517 305.315 352.543 304.693 353.279 303.788C356.681 300.654 359.529 296.968 361.704 292.885H361.703Z" fill="#180B02"/>
<path d="M364.965 297.881C365.086 297.727 365.174 297.55 365.225 297.362C365.277 297.173 365.29 296.976 365.264 296.782C365.261 296.69 365.234 296.6 365.187 296.521C365.14 296.442 365.073 296.376 364.993 296.33C364.913 296.284 364.823 296.259 364.731 296.257C364.639 296.256 364.547 296.278 364.466 296.321C364.347 296.36 364.232 296.411 364.123 296.473C363.56 296.854 362.493 298.839 360.009 301.746C358.525 303.48 354.154 308.1 352.071 309.006C351.403 309.295 351.871 310.403 352.568 310.181C356.464 308.928 363.552 300.49 364.965 297.881Z" fill="#180B02"/>
<path d="M367.055 298.304C367.04 298.248 367.009 298.197 366.968 298.156C366.926 298.115 366.874 298.086 366.818 298.071C366.761 298.056 366.702 298.056 366.646 298.072C366.589 298.087 366.538 298.117 366.496 298.158C364.932 299.822 364.102 305.324 356.988 310.884C356.465 311.293 357.144 312.159 357.696 311.804C364.076 307.708 367.404 300.628 367.055 298.304Z" fill="#180B02"/>
<path d="M180.848 373.707C177.528 374.349 174.129 374.474 170.771 374.076C168.425 373.775 166.123 373.196 163.914 372.352C157.69 369.998 155.136 366.622 153.51 365.994C153.402 365.965 153.288 365.965 153.179 365.994C153.071 366.023 152.972 366.08 152.893 366.159C152.814 366.238 152.757 366.337 152.728 366.445C152.699 366.554 152.699 366.668 152.728 366.776C152.826 367.058 152.974 367.32 153.165 367.55C157.785 373.264 169.488 377.511 177.879 375.664C178.976 375.423 180.074 375.143 181.151 374.81C181.289 374.763 181.404 374.665 181.472 374.536C181.54 374.407 181.557 374.257 181.518 374.116C181.48 373.975 181.389 373.855 181.264 373.779C181.14 373.703 180.991 373.677 180.848 373.707Z" fill="#180B02"/>
<path d="M163.312 368.685C163.911 368.885 164.341 367.911 163.749 367.646C156.198 364.254 154.64 361.567 153.584 362.226C153.185 362.479 153.311 363.066 153.584 363.367C156.456 365.747 159.758 367.553 163.312 368.686V368.685Z" fill="#180B02"/>
<path d="M295.572 104.114C301.066 108.326 305.919 113.315 309.978 118.923C310.128 119.071 310.326 119.159 310.536 119.172C310.746 119.184 310.953 119.121 311.12 118.992C311.286 118.864 311.401 118.679 311.442 118.473C311.483 118.267 311.447 118.053 311.343 117.87C310.429 116.184 309.332 114.603 308.073 113.156C299.83 103.065 287.933 95.9511 276.684 89.4491C272.633 86.8445 268.272 84.757 263.703 83.2351C263.49 83.1853 263.266 83.2199 263.078 83.3316C262.89 83.4433 262.753 83.6234 262.694 83.8342C262.636 84.045 262.662 84.2701 262.766 84.4623C262.871 84.6545 263.045 84.7989 263.254 84.8651C271.296 88.0391 288.754 98.7721 295.573 104.115L295.572 104.114Z" fill="#180B02"/>
<path d="M234.513 42.0079C234.436 41.8006 234.282 41.6311 234.082 41.5351C233.883 41.4391 233.654 41.424 233.444 41.4929C232.371 41.8359 231.9 43.9249 228.423 45.4829C226.114 46.4709 223.615 46.9323 221.106 46.8335C218.596 46.7347 216.141 46.0783 213.917 44.9119C216.075 45.1772 218.258 44.676 220.084 43.4959C224.746 40.5249 227.029 35.4799 228.363 30.1609C228.416 30.0064 228.436 29.8427 228.423 29.6799C228.411 29.5172 228.365 29.3588 228.288 29.2144C228.212 29.0701 228.107 28.943 227.979 28.8408C227.852 28.7386 227.705 28.6635 227.548 28.6202C227.39 28.5769 227.226 28.5662 227.064 28.5889C226.902 28.6115 226.747 28.667 226.608 28.752C226.468 28.8369 226.347 28.9495 226.253 29.0827C226.159 29.216 226.093 29.3672 226.059 29.5269C225.675 30.9984 225.191 32.442 224.611 33.8479C223.644 36.526 221.956 38.8851 219.733 40.6649C214.522 44.5729 211.234 40.9399 209.989 42.0459C209.345 42.1339 209.119 42.2609 208.156 42.3669C207.051 42.5042 205.93 42.4044 204.867 42.0741C203.804 41.7439 202.824 41.1909 201.991 40.4519C201.249 39.9599 200.61 39.3277 200.11 38.5909C198.753 36.5719 195.811 31.0959 195.707 28.7919C195.711 28.662 195.689 28.5325 195.642 28.4113C195.596 28.29 195.525 28.1794 195.434 28.086C195.344 27.9926 195.236 27.9183 195.116 27.8676C194.996 27.8169 194.868 27.7908 194.738 27.7908C194.608 27.7908 194.479 27.8169 194.359 27.8676C194.239 27.9183 194.131 27.9926 194.041 28.086C193.95 28.1794 193.88 28.29 193.833 28.4113C193.786 28.5325 193.764 28.662 193.768 28.7919C194.388 31.9155 195.552 34.9059 197.207 37.6269C198.062 39.5562 199.465 41.1918 201.241 42.3309C202.925 43.6284 204.981 44.3503 207.106 44.3899C208.836 44.3899 209.191 44.0109 208.933 44.2599C208.201 45.0308 207.308 45.6304 206.318 46.0159C200.872 48.0649 192.142 45.0979 188.173 37.9759C188.041 37.7518 187.825 37.5894 187.573 37.5246C187.321 37.4597 187.053 37.4976 186.829 37.6299C186.605 37.7623 186.443 37.9782 186.378 38.2303C186.313 38.4823 186.351 38.7498 186.483 38.9739C192.482 49.8689 207.187 51.2829 210.481 44.7909C211.648 46.1083 213.12 47.12 214.768 47.7379C223.582 51.4509 232.414 47.3949 234.149 43.8199C234.335 43.5615 234.464 43.2662 234.527 42.9538C234.589 42.6414 234.584 42.3192 234.512 42.0089L234.513 42.0079Z" fill="#F07D29"/>
<path d="M211.587 52.6591C211.516 52.413 211.369 52.1955 211.168 52.0375C210.966 51.8795 210.72 51.789 210.464 51.7788C210.208 51.7686 209.955 51.8393 209.742 51.9808C209.529 52.1223 209.365 52.3274 209.275 52.5671C209.197 52.8311 209.205 53.1131 209.298 53.3721C209.392 53.6311 209.565 53.8536 209.794 54.0071C210.001 54.1231 210.238 54.1764 210.475 54.1604C210.713 54.1444 210.94 54.0598 211.13 53.9169C211.32 53.7739 211.465 53.5789 211.546 53.3554C211.627 53.1319 211.642 52.8897 211.588 52.6581L211.587 52.6591Z" fill="#F07D29"/>
</svg>
