<?xml version="1.0" encoding="utf-8"?>
<!-- Generator: Adobe Illustrator 26.5.0, SVG Export Plug-In . SVG Version: 6.00 Build 0)  -->
<svg version="1.1" id="Layer_1" xmlns="http://www.w3.org/2000/svg" xmlns:xlink="http://www.w3.org/1999/xlink" x="0px" y="0px"
	 viewBox="0 0 255 213.3" style="enable-background:new 0 0 255 213.3;" xml:space="preserve">
<style type="text/css">
	.st0{fill:#F07D29;}
	.st1{fill:#180B02;}
</style>
<path class="st0" d="M192.1,81.7c2.2,0.6,6,2,8.1,2.4c-0.3,0.8-0.5,1.6-0.7,2.4c-2.7-0.4-5.3-1.1-7.8-2.2
	C191.7,84.4,192,83,192.1,81.7z"/>
<path class="st0" d="M85.2,84.1c-2.2,0.5-5.9,1.5-7.9,2.1c0-0.9,0-1.7-0.2-2.6c2.5-1.1,5.2-2,8-2.5C85,82.2,85.1,83.1,85.2,84.1z"/>
<path class="st0" d="M76.7,107.3c-2.3,0.4-5.6,1-7.7,1.5c-0.1-0.9-0.2-1.9-0.4-2.8c2.6-0.8,5.4-1.4,8.1-1.6
	C76.7,105.4,76.7,106.3,76.7,107.3z"/>
<path class="st0" d="M88.4,125.5c-2.3,0.2-6.1,0.5-8.3,0.8c0-0.9,0-1.9-0.1-2.8c2.7-0.6,5.5-0.9,8.2-0.9
	C88.3,122.5,88.4,124,88.4,125.5z"/>
<path class="st0" d="M182.7,97.2c2.3,0.3,6.1,1.3,8.3,1.5c-0.2,0.8-0.3,1.6-0.4,2.4c-2.7-0.1-5.4-0.5-8-1.2
	C182.7,99,182.7,98.1,182.7,97.2z"/>
<path class="st0" d="M128.4,69.4c3.7-0.3,10.1,0,13.7-0.5c0,1.5,0,2.9,0.1,4.4c-3.8-0.1-10.1,0.6-13.6,0.4
	C128.6,72.3,128.6,70.9,128.4,69.4z"/>
<path class="st0" d="M125.9,93.7c5.1-0.4,13.9-0.1,18.7-0.6c0,2,0,4,0.2,6c-5.2-0.2-13.8,0.9-18.5,0.6
	C126.3,97.7,126.2,95.7,125.9,93.7z"/>
<path class="st0" d="M130.3,115.9c3.7-0.3,10.1,0,13.7-0.5c0,1.5,0,2.9,0.1,4.4c-3.8-0.1-10.1,0.6-13.6,0.4
	C130.6,118.8,130.5,117.4,130.3,115.9z"/>
<path class="st0" d="M180.5,113.3c2.3,0.3,5.9,1.1,8.1,1.3c-0.2,0.9-0.3,1.7-0.3,2.6c-2.7-0.2-5.4-0.6-8-1.2
	C180.4,115.1,180.5,114.2,180.5,113.3z"/>
<path class="st0" d="M178.5,129.4c2.3,0.3,5.9,1.2,8.1,1.4c-0.1,0.9-0.1,1.8,0,2.7c-2.8-0.1-5.6-0.6-8.3-1.4
	C178.4,131.2,178.5,130.3,178.5,129.4z"/>
<path class="st0" d="M7.2,112.2c4.8-3.1,9.9-5.9,14.6-9c-0.3-0.8-0.4-1.7-0.4-2.6L7.2,112.2z"/>
<path class="st0" d="M6.4,112.2c0-0.4,5.6-13.5,7.3-20c0,0,2.1,1,3.3,1.7c-0.5,1.1-3.4,8.2-3.2,7.8c2.1-2.1,4.2-4.3,6.4-6.3
	c0.6,0,4.7,1.1,4.6,1.1C18.7,101.4,6.4,112.6,6.4,112.2z"/>
<path class="st0" d="M234.8,125.2c-3.4,3.4-7.7,6-12.3,7.3c-4.7,1.3-9.6,1.5-14.3,0.4l11.3,14.6c0.1,0,19.4,3.4,28.5-9.4
	C248,138.1,238.6,129.8,234.8,125.2z M228.7,142.6c-0.5-0.5-3.4-3.7-4.3-4.8c0,0.4,7.3-1.3,8.4-2.4
	C231.8,138,230.4,140.4,228.7,142.6L228.7,142.6z"/>
<path class="st0" d="M212.8,11.7c-1.3-2.5-4.4-7.5-4.6-7.7c-0.2-0.2-0.3-0.3-0.6-0.3c-3.8,0-7.9,1.4-11.3,2.7
	c-3.5,1.2-6.8,3.1-9.8,5.4c-0.1,0-0.1,0.1-0.1,0.2c0,0.1,0,0.1-0.1,0.2c0,0.1,0,0.1,0,0.2c0,0.1,0.1,0.1,0.1,0.2
	c3.7,4.4,6.1,9.9,8.5,15.2c0.1,0.2,0.3,0.4,0.5,0.5c0.2,0.1,0.5,0.1,0.7,0c4-1.5,16.3-7.8,19.4-8.6
	C216.1,19.6,213.9,13.9,212.8,11.7z M197.2,7.4c3.4-1.2,6.8-2,10.3-2.6c1.3,2.7,3.1,5.1,4.5,7.9c-1.7,0.2-3.2,1.9-4.9,3.3
	c-1.3,1.1-3.2,3.4-4.6,1.2c-1.2-1.9-2.7-2.8-4.7-1.2c-2.1,1.7-3.6,4.1-4.2,6.7c-1.6-3.8-3.8-7.3-6.4-10.4
	C190.4,10.5,193.7,8.9,197.2,7.4z"/>
<path class="st0" d="M203.1,11.4c0.3,0.1,0.7,0.1,1,0c0.3-0.1,0.6-0.2,0.9-0.4c0.3-0.2,0.5-0.4,0.6-0.7c0.2-0.3,0.3-0.6,0.3-0.9
	c0-0.5-0.1-0.9-0.3-1.4c-0.2-0.3-0.5-0.6-0.8-0.8s-0.7-0.3-1.1-0.4c-0.4,0-0.8,0.1-1.2,0.2c-0.4,0.2-0.7,0.4-0.9,0.7
	c-0.2,0.3-0.3,0.7-0.4,1.1c0,0.4,0,0.8,0.2,1.1c0.2,0.4,0.4,0.7,0.7,0.9C202.4,11.2,202.7,11.4,203.1,11.4z"/>
<path class="st1" d="M181.2,71c-2.1-1-4.3-1.7-6.5-2.2c-0.3,0-0.5,0.3-0.2,0.5c1.9,1,3.9,1.9,5.9,2.5c2,0.8,10,3.7,12,4.5
	c2.1,0.9,4.3,1.7,6.5,2.2c0.1,0,0.2,0,0.3,0c0.1,0,0.2-0.1,0.2-0.2c0-0.1,0-0.2,0-0.3c0-0.1-0.1-0.2-0.2-0.2
	C197.7,76.8,198.3,77.2,181.2,71z"/>
<path class="st1" d="M198.8,91.1c-0.1,0.2,0,0.5,0.3,0.5c0.6-0.2,1.2-0.5,1.6-1c0.4-0.4,0.3-0.7,0-0.8c-3.8-1-7.9-2.6-11.9-2.6
	c-0.3,0-0.9,0.8-0.9,1.1c0,0.1,0,0.2,0,0.2c0,0.1,0.1,0.1,0.1,0.2s0.1,0.1,0.2,0.1c0.1,0,0.2,0,0.2-0.1c0.3-0.2,0.5-0.4,0.7-0.7
	c3.4,0.9,6.8,1.6,10.1,2.5C199.1,90.7,198.9,90.9,198.8,91.1z"/>
<path class="st1" d="M182.2,76.1c-0.2,0.8-0.2,1.7,0,2.6c0,0,0.1,0.1,0.1,0.1s0.1,0,0.1,0.1c0.1,0,0.1,0,0.2,0c0,0,0.1,0,0.1-0.1
	c0.2-0.3,0.4-0.7,0.4-1.1c0.1-0.5,0.2-0.9,0.3-1.4c0-0.1,0-0.2,0-0.2c0-0.1,0-0.2-0.1-0.2c0-0.1-0.1-0.1-0.2-0.2
	c-0.1,0-0.1-0.1-0.2-0.1c-0.1,0-0.2,0-0.2,0c-0.1,0-0.2,0.1-0.2,0.1s-0.1,0.1-0.2,0.2C182.2,75.9,182.2,76,182.2,76.1z"/>
<path class="st1" d="M180.9,75.7c-0.2,0.5-0.3,1-0.4,1.5c-0.2,0.5-0.2,1-0.1,1.5c0.1,0.3,0.5,0.5,0.7,0.2c0.2-0.4,0.4-0.9,0.3-1.3
	c0.1-0.5,0.1-1.1,0.1-1.6C181.5,75.6,181,75.4,180.9,75.7z"/>
<path class="st1" d="M180,76.3c0-0.1,0-0.1-0.1-0.2c0-0.1-0.1-0.1-0.2-0.1c-0.1,0-0.1,0-0.2,0c-0.1,0-0.1,0.1-0.2,0.1
	c-0.3,0.6-0.5,1.2-0.6,1.8c-0.1,0.5-0.3,1.2,0,1.7c0,0.1,0.1,0.1,0.1,0.1c0.1,0,0.1,0.1,0.2,0.1s0.1,0,0.2-0.1
	c0.1,0,0.1-0.1,0.1-0.1c0.3-0.4,0.2-1,0.2-1.5C179.8,77.5,179.9,76.9,180,76.3z"/>
<path class="st1" d="M177.6,76.9c-0.3,0.9-0.4,1.8-0.4,2.7c0,0.6,0.9,0.6,1,0c0.1-0.5,0.1-0.9,0.1-1.4c0.1-0.4,0.1-0.9,0-1.3
	c0-0.1-0.1-0.1-0.1-0.2c-0.1,0-0.1-0.1-0.2-0.1c-0.1,0-0.1,0-0.2,0C177.7,76.8,177.6,76.9,177.6,76.9z"/>
<path class="st1" d="M176,77.5c-0.2,0.5-0.2,1-0.3,1.6c-0.2,0.5-0.1,1,0.1,1.5c0,0,0.1,0.1,0.1,0.1s0.1,0,0.1,0.1c0.1,0,0.1,0,0.1,0
	c0,0,0.1,0,0.1-0.1c0.4-0.4,0.3-0.9,0.3-1.4c0.1-0.6,0.1-1.1,0-1.7c0-0.1-0.1-0.1-0.1-0.2c-0.1,0-0.1-0.1-0.2-0.1
	c-0.1,0-0.1,0-0.2,0.1C176,77.3,176,77.4,176,77.5z"/>
<path class="st1" d="M174.6,78c-0.2,0.9-0.2,1.9-0.1,2.8c0,0.1,0,0.2,0.1,0.3c0.1,0.1,0.2,0.1,0.3,0.1c0.1,0,0.2,0,0.3-0.1
	c0.1-0.1,0.1-0.2,0.1-0.3c0.1-0.9,0.1-1.9-0.1-2.8c0-0.1-0.1-0.1-0.1-0.2c-0.1,0-0.1-0.1-0.2-0.1s-0.1,0-0.2,0.1
	C174.7,77.8,174.6,77.9,174.6,78z"/>
<path class="st1" d="M191,106.8c0,0.1,0.1,0.1,0.2,0.2c0.1,0,0.2,0,0.2,0c0.4-0.2,0.7-0.4,0.9-0.8c0.4-0.4-0.2-0.8-0.4-0.8
	c-2.1-0.4-4.3-0.6-6.5-0.8c-1.6-0.2-4.6-0.7-5.7-0.8c-0.2,0-0.3,0.1-0.5,0.1c-0.2,0.2-0.5,0.4-0.7,0.7c-0.2,0.3,0.2,0.6,0.4,0.4
	c0.3-0.2,0.6-0.4,0.8-0.6c2,0.5,4,0.7,6,1c1.8,0.3,3.5,0.6,5.3,0.9c-0.1,0.1-0.1,0.1-0.1,0.2C191,106.6,191,106.7,191,106.8z"/>
<path class="st1" d="M176,121.4c0.1,0,0.1,0.1,0.2,0.1c0.1,0,0.1,0,0.2,0c0.1,0,0.1,0,0.2-0.1c0.1,0,0.1-0.1,0.2-0.1
	c0.1-0.2,0.2-0.3,0.3-0.5c2,0.5,4.4,0.6,11.9,1.5c-0.1,0.1-0.2,0.2-0.2,0.3c0,0.1,0,0.2,0,0.3c0,0.1,0.1,0.2,0.2,0.2
	c0.1,0.1,0.2,0.1,0.3,0c0.7-0.2,1.3-0.7,1-1.4c0-0.1-0.1-0.2-0.2-0.3c-0.1-0.1-0.2-0.1-0.3-0.1c-9.8-1-13.1-1.7-13.5-1.1
	C176.2,120.6,176,121,176,121.4z"/>
<path class="st1" d="M110.2,62.9c-0.1,0-0.2,0-0.3,0.1c-0.1,0.1-0.1,0.2-0.1,0.3c0,0.1,0,0.2,0.1,0.3c0.1,0.1,0.2,0.1,0.3,0.1
	c1.7,0.1,36.4-0.3,48.3-1.3c0.7-0.1,0.7-1.2,0-1.1C104.5,63.1,113.3,62.4,110.2,62.9z"/>
<path class="st1" d="M119.2,108.6c2.8,0,30.5-0.2,32.7-0.4c0.1,0,0.3-0.1,0.4-0.2c0.1-0.1,0.1-0.2,0.1-0.4s-0.1-0.3-0.1-0.4
	c-0.1-0.1-0.2-0.2-0.4-0.2c-1.7-0.1-30.8,0.7-32.7,0.8c-0.1,0-0.2,0.1-0.2,0.1c-0.1,0.1-0.1,0.2-0.1,0.2c0,0.1,0,0.2,0.1,0.2
	C119,108.5,119.1,108.6,119.2,108.6z"/>
<path class="st1" d="M147.2,80.9c0.1,0,0.3-0.1,0.4-0.2c0.1-0.1,0.2-0.2,0.2-0.4c0-0.1-0.1-0.3-0.2-0.4c-0.1-0.1-0.2-0.2-0.4-0.2
	c-4.4-0.2-8.8,0.1-13.2,0.3c-1.9,0.1-3.8,0.1-5.8,0.2c-0.8-0.8-1.7-1.5-2.8-2c-0.4-0.2-0.7,0.4-0.3,0.6c0.8,0.4,1.4,0.9,2,1.5
	c-1.9,0.1-3.9,0.3-5.8,0.7c-0.4,0.1-0.3,0.6,0.1,0.7c2.2,0.1,4.5,0,6.7-0.1c0.8,1.3,1.4,2.7,1.8,4.2c0,0.1,0.1,0.1,0.1,0.2
	c0.1,0,0.1,0.1,0.2,0s0.2-0.1,0.2-0.1c0.1-0.1,0.1-0.1,0.1-0.2c0-1.5-0.5-3-1.4-4.2C141,80.8,140,81.2,147.2,80.9z"/>
<path class="st1" d="M67.3,113.4c2.1,0.4,11.4-1.3,12-1.2c0.5,0.1,0.7-0.9,0.1-0.9c-1.6,0-3.1,0.2-4.7,0.7c-2.4,0.4-5,0.5-7.4,0.9
	c-0.1,0-0.1,0.1-0.2,0.1c0,0.1-0.1,0.1-0.1,0.2c0,0.1,0,0.1,0.1,0.2C67.1,113.3,67.2,113.4,67.3,113.4z"/>
<path class="st1" d="M86.1,99.6c-0.2,0.6-0.3,1.3-0.2,2c0,0.7,0,1.5,0.2,2.2c0,0.1,0.1,0.1,0.1,0.2c0.1,0,0.1,0.1,0.2,0.1
	c0.1,0,0.2,0,0.2-0.1c0.1,0,0.1-0.1,0.1-0.2c0.1-0.7,0.2-1.5,0.1-2.2c0.1-0.7,0-1.4-0.2-2c0-0.1-0.1-0.1-0.1-0.1c-0.1,0-0.1,0-0.2,0
	c-0.1,0-0.1,0-0.2,0C86.2,99.5,86.1,99.6,86.1,99.6z"/>
<path class="st1" d="M88.3,99.5c-0.1,0-0.1,0-0.2,0c-0.1,0-0.1,0.1-0.1,0.1c-0.5,0.4-0.2,1.2-0.2,1.7c0,0.8-0.2,1.5-0.1,2.2
	c0,0.1,0,0.1,0.1,0.2c0,0.1,0.1,0.1,0.1,0.1c0.1,0,0.1,0,0.2,0c0.1,0,0.1,0,0.2-0.1c0.5-0.7,0.7-1.5,0.7-2.3
	C89,100.7,89,99.8,88.3,99.5z"/>
<path class="st1" d="M90.1,99.3c-0.4,0.7-0.2,1.3,0,4.4c0,0.1,0,0.2,0.1,0.3c0.1,0.1,0.2,0.1,0.3,0.1c0.1,0,0.2,0,0.3-0.1
	c0.1-0.1,0.1-0.2,0.1-0.3c0.1-3.2,0.3-3.7,0-4.4c0-0.1-0.1-0.1-0.1-0.1c-0.1,0-0.1,0-0.2,0c-0.1,0-0.1,0-0.2,0
	C90.2,99.2,90.1,99.2,90.1,99.3z"/>
<path class="st1" d="M92,99.4c-0.1,0.7-0.2,1.4-0.1,2.1c-0.1,0.7-0.1,1.4,0,2c0,0,0,0.1,0.1,0.1c0,0,0.1,0.1,0.1,0.1
	c0,0,0.1,0,0.1,0c0,0,0.1,0,0.1-0.1c0.4-0.6,0.6-1.2,0.6-1.8c0.2-0.8,0.2-1.6,0-2.4c0-0.1-0.1-0.2-0.2-0.3c-0.1-0.1-0.2-0.1-0.3-0.1
	c-0.1,0-0.2,0-0.3,0.1C92.1,99.3,92,99.4,92,99.4z"/>
<path class="st1" d="M93.9,99.3c-0.2,0.6-0.3,1.3-0.2,1.9c0,0.7,0.1,1.3,0.3,2c0,0.1,0.1,0.1,0.1,0.2s0.1,0.1,0.2,0.1
	c0.1,0,0.1,0,0.2-0.1s0.1-0.1,0.1-0.2c0.3-1.3,0.4-2.6,0.1-3.9c0-0.1-0.1-0.1-0.2-0.2c-0.1,0-0.2-0.1-0.2-0.1c-0.1,0-0.2,0-0.2,0.1
	C94,99.2,94,99.2,93.9,99.3z"/>
<path class="st1" d="M88.7,89c0.3,0.3,0.7,0.5,1.1,0.6c0.1,0,0.1,0,0.2,0c0.1,0,0.1-0.1,0.2-0.1c0-0.1,0-0.1,0-0.2
	c0-0.1,0-0.1-0.1-0.2c-0.3-0.3-0.6-0.7-0.9-1C89.1,88.1,89,88,88.9,88c-0.1,0-0.2,0-0.2,0c-2.2,0.8-12.7,2.3-14.9,3.6
	c-0.1,0-0.1,0.1-0.2,0.2c0,0.1-0.1,0.2-0.1,0.2s0,0.2,0.1,0.2c0,0.1,0.1,0.1,0.2,0.2c0.3,0.2,0.7,0.4,1,0.6c0.4,0.3,0.8-0.4,0.4-0.7
	c-0.1,0-0.2-0.1-0.2-0.1C80.6,90.7,88.5,89,88.7,89z"/>
<path class="st1" d="M92.3,129.9c0.3,0,0.5-0.5,0.2-0.6c-1.9-0.9-4.4-0.3-6.4-0.2c-2.9,0.2-5.8,0.4-8.7,0.8
	c-0.5,0.1-0.4,0.7-0.1,0.9c0.2,0.2,0.6,0.4,0.9,0.4c0.3,0.1,0.3-0.2,0.3-0.5C88.9,130,89.9,129.6,92.3,129.9z"/>
<path class="st1" d="M202.2,77.3c1.2-0.9,2.5-1.7,3.9-2.4c0.1,0,0.1-0.1,0.1-0.2c0-0.1,0-0.1,0-0.2c0-0.1-0.1-0.1-0.1-0.2
	c-0.1,0-0.1,0-0.2,0c-1.6,0.5-3,1.3-4.2,2.4C201.2,77.1,201.8,77.6,202.2,77.3z"/>
<path class="st1" d="M211.1,73.2c1.3-0.5,2.7-0.9,4.2-1.1c0.4-0.1,0.3-0.6-0.1-0.6c-1.5,0-3,0.5-4.4,1.2
	C210.4,72.9,210.7,73.4,211.1,73.2z"/>
<path class="st1" d="M220,72.5c1.7,0.1,3.3,0.6,4.8,1.4c0.4,0.2,0.8-0.3,0.5-0.6c-1.5-1.1-3.4-1.6-5.2-1.4c-0.1,0-0.2,0-0.2,0.1
	c-0.1,0.1-0.1,0.1-0.1,0.2c0,0.1,0,0.2,0.1,0.2C219.8,72.5,219.9,72.5,220,72.5z"/>
<path class="st1" d="M231.7,80.3c0,0.1,0.1,0.1,0.2,0.2c0.1,0,0.2,0,0.2,0c0.1,0,0.1-0.1,0.2-0.2c0-0.1,0.1-0.2,0-0.2
	c-0.6-1.7-1.8-3-3.4-3.8c-0.1,0-0.2,0-0.2,0c-0.1,0-0.1,0.1-0.2,0.1c0,0.1-0.1,0.2,0,0.2c0,0.1,0.1,0.2,0.1,0.2
	C229.9,77.8,230.9,79,231.7,80.3z"/>
<path class="st1" d="M234.6,90.7c0,0.3,0.5,0.3,0.6,0c0.3-1.6,0.2-3.3-0.5-4.8c0-0.1-0.1-0.1-0.2-0.2c-0.1,0-0.2,0-0.3,0
	c-0.1,0-0.2,0.1-0.2,0.2C234,86,234,86,234,86.1C234.3,87.6,234.5,89.2,234.6,90.7z"/>
<path class="st1" d="M227.5,100.3c-2.2,1-4.6,1.2-6.9,0.7c-0.4-0.1-0.7,0.5-0.3,0.7c2.3,1.2,5.3,0.5,7.5-0.8
	C228.1,100.7,227.9,100.1,227.5,100.3z"/>
<path class="st1" d="M217.5,99.6c-0.1-0.4-0.2-0.8-0.2-1.2c0-0.4,0.1-0.8,0.3-1.2c0.4-0.7,1-1.1,1.5-1.6c0,0,0.1-0.1,0.1-0.2
	c0-0.1,0-0.1,0-0.2c0-0.1-0.1-0.1-0.1-0.2c-0.1,0-0.1-0.1-0.2-0.1c-1.5,0-3.1,2.5-2,4.9C217,100.2,217.6,100,217.5,99.6z"/>
<path class="st1" d="M222.8,94.1c2.2-0.2,4.4-0.1,6.5,0.2c0.5,0,0.5-0.6,0.1-0.8c-2.2-0.7-4.6-0.7-6.8-0.1
	C222.2,93.5,222.4,94.1,222.8,94.1z"/>
<path class="st1" d="M232.1,95.2c-0.1,0-0.2,0-0.2,0c-0.1,0-0.1,0.1-0.2,0.2s0,0.2,0,0.2c0,0.1,0.1,0.1,0.2,0.2
	c0.3,0.1,0.6,0.2,1,0.4c-0.6,0.9-1.4,1.7-2.2,2.3c-0.3,0.2,0,0.7,0.3,0.6c1.2-0.5,2.1-1.4,2.6-2.5c0.9,0.6,1.8,1.3,2.7,2
	c0.1,0.1,0.2,0.1,0.2,0.1c0.1,0,0.2,0,0.2-0.1c0.1-0.1,0.1-0.1,0.1-0.2c0-0.1,0-0.2,0-0.3c-0.7-1.1-1.7-1.9-2.9-2.4
	c0.1-0.3,0.2-0.7,0.3-1c0-0.1,0-0.2,0-0.3c0-0.1-0.1-0.1-0.2-0.2s-0.2,0-0.3,0c-0.1,0-0.1,0.1-0.2,0.2c-0.1,0.3-0.2,0.6-0.4,0.9
	C232.9,95.4,232.5,95.3,232.1,95.2z"/>
<path class="st1" d="M241.7,107.5c0,0.1,0.1,0.2,0.2,0.2c0.1,0,0.2,0.1,0.2,0.1c0.1,0,0.2-0.1,0.2-0.1c0.1-0.1,0.1-0.1,0.1-0.2
	c-0.2-2.5-1.1-5-2.6-7c-0.1-0.1-0.1-0.1-0.2-0.1c-0.1,0-0.2,0-0.3,0c-0.1,0-0.1,0.1-0.2,0.2c0,0.1,0,0.2,0,0.3
	C240.2,103,241.1,105.2,241.7,107.5z"/>
<path class="st1" d="M243,119.4c0,0.1,0,0.2,0.1,0.2c0.1,0.1,0.1,0.1,0.2,0.1s0.2,0,0.2,0c0.1,0,0.1-0.1,0.1-0.2
	c0.5-2.5,0.5-5.1-0.1-7.6c-0.1-0.5-0.8-0.3-0.7,0.2C243.1,114.6,243.2,117,243,119.4z"/>
<path class="st1" d="M241.4,125.5c-0.3,0.4-0.6,0.9-0.9,1.3c-0.3,0.4-0.6,0.8-0.8,1.3c0,0.1-0.1,0.2,0,0.2c0,0.1,0.1,0.2,0.1,0.2
	c0.1,0.1,0.2,0.1,0.2,0.1c0.1,0,0.2,0,0.2-0.1c0.3-0.4,0.6-0.8,0.9-1.3c0.3-0.5,0.6-0.9,0.9-1.4
	C242.4,125.5,241.7,125.1,241.4,125.5z"/>
<path class="st1" d="M64,99.1c0.1,0,0.1,0.1,0.2,0c0.1,0,0.1,0,0.2-0.1c0.1,0,0.1-0.1,0.1-0.2c0-0.1,0-0.1,0-0.2
	c-0.2-0.9-1.3-1.8-1.9-2.3c-0.9-1-2-1.7-3.2-2.2c-0.3-0.1-0.6,0.2-0.4,0.5C60.5,96.2,62.2,97.7,64,99.1z"/>
<path class="st1" d="M51,90.3c-0.1,0-0.1,0-0.2,0.1c-0.1,0-0.1,0.1-0.1,0.2c0,0.1,0,0.1,0,0.2c0,0.1,0.1,0.1,0.1,0.2
	c1.2,0.6,2.5,1,3.9,1.3c-0.1,0.9-0.3,1.9-0.5,2.8c-0.1,0.5,0.5,0.6,0.7,0.2c0.4-0.8,0.6-1.7,0.8-2.6c0.5,0.2,1,0.5,1.5,0.8
	c0.2,0.1,0.5-0.2,0.3-0.4c-0.5-0.4-1.1-0.8-1.7-1.1c0.3-1.5,0.2-3.1-0.3-4.6c0-0.1-0.1-0.1-0.1-0.2c-0.1,0-0.1-0.1-0.2,0
	c-0.1,0-0.1,0.1-0.2,0.1c0,0.1-0.1,0.1-0.1,0.2c0,1.4,0,2.6-0.1,3.9C53.6,90.8,52.3,90.5,51,90.3z"/>
<path class="st1" d="M47.1,94.4c0-0.6,0.1-1.1,0.3-1.6c0.3-0.5,0.7-1,1.3-1.2c0.1,0,0.1-0.1,0.2-0.1c0-0.1,0-0.1,0-0.2
	S48.8,91,48.7,91c-0.1,0-0.1,0-0.2,0c-1.5,0.3-2.9,2.1-2.1,3.6c0,0.1,0.1,0.1,0.2,0.1s0.2,0,0.2,0c0.1,0,0.1-0.1,0.2-0.1
	C47.1,94.5,47.1,94.4,47.1,94.4z"/>
<path class="st1" d="M53.1,97.1c-0.9,0.3-1.8,0.3-2.6,0.2c-0.9-0.1-1.7-0.4-2.5-0.9c-0.3-0.2-0.7,0.1-0.4,0.4c1.5,1.5,4,2.2,5.8,0.9
	c0.1,0,0.1-0.1,0.2-0.2c0-0.1,0-0.2,0-0.2c0-0.1-0.1-0.1-0.2-0.2C53.2,97.1,53.2,97.1,53.1,97.1z"/>
<path class="st1" d="M53.3,84.6c0.2,0.4,0.8,0.1,0.7-0.3c-0.7-1.8-2.3-4.1-4.4-4.3c-0.4,0-0.4,0.5-0.2,0.7
	C50.4,81.4,52.3,82.1,53.3,84.6z"/>
<path class="st1" d="M37.7,79.5c2.4-0.4,4.9-0.3,7.3,0.2c0.1,0,0.2,0,0.2,0c0.1,0,0.1-0.1,0.1-0.2c0-0.1,0-0.2,0-0.2
	c0-0.1-0.1-0.1-0.2-0.1c-2.4-0.9-5-1-7.5-0.3C37.2,79,37.3,79.6,37.7,79.5z"/>
<path class="st1" d="M27,85.1c2-1.7,4.3-3.2,6.6-4.4c0.4-0.2,0.1-0.8-0.3-0.7c-2.6,0.9-5,2.5-6.8,4.6C26.3,84.9,26.6,85.3,27,85.1z"
	/>
<path class="st1" d="M20.6,92.3c0.8-0.8,1.5-1.7,2.1-2.5c0.7-0.9,1.5-1.7,2.3-2.4c0.3-0.3-0.2-0.8-0.5-0.5c-1.6,1.4-3.6,3-4.5,5
	C19.9,92.2,20.3,92.6,20.6,92.3z"/>
<path class="st1" d="M50,130.5c0.3-0.6,0.5-1.2,0.5-1.9c0-0.7-0.1-1.3-0.4-1.9c-0.3-0.6-0.7-1.2-1.2-1.6c-0.5-0.4-1.1-0.8-1.7-1
	c-0.6-0.2-1.3-0.3-2-0.2c-0.7,0.1-1.3,0.3-1.9,0.6c-0.8-1.6-2-2.9-3.5-3.8c-1.5-0.9-3.3-1.3-5-1.3c-1.7,0.2-3.3,0.8-4.6,1.8
	c-1.3,1-2.4,2.4-3,3.9c-2.3-1.5-5.4-2.1-7.7-0.5c-1.1,0.7-1.8,1.8-2.1,3c-0.3,1.2-0.2,2.5,0.4,3.6c0,0.1,0.1,0.1,0.1,0.1
	c0.1,0,0.1,0,0.2,0c0.1,0,0.1-0.1,0.1-0.1c0-0.1,0-0.1,0-0.2c-0.5-1.1-0.6-2.4-0.2-3.5c0.4-1.1,1.3-2.1,2.4-2.6
	c1.1-0.4,2.4-0.6,3.6-0.3c1.2,0.2,2.3,0.8,3.2,1.6c0.1,0.1,0.1,0.1,0.2,0.1c0.1,0,0.2,0,0.2,0c0.1,0,0.1-0.1,0.2-0.1
	c0.1-0.1,0.1-0.1,0.1-0.2c0.5-1.6,1.5-3,2.9-4c1.3-1,2.9-1.6,4.6-1.6c1.6,0,3.1,0.5,4.5,1.4c1.3,0.9,2.4,2.2,3,3.6
	c0.1,0.1,0.2,0.2,0.3,0.2c0.1,0,0.3,0,0.4-0.1c0.8-0.6,1.7-0.9,2.7-0.8c1,0.1,1.9,0.5,2.5,1.1c1.4,1.5,1.7,4.1-0.6,4.8
	c-3.1,0.5-6.2,0.8-9.3,1c-5.8,0.4-11.7,0.3-17.5-0.4c-0.6-0.1-0.6,0.8,0,0.9c8.6,1,17.3,0.9,25.8-0.3c0.6,0,1.2-0.1,1.7-0.3
	C49.2,131.2,49.7,130.9,50,130.5z"/>
<path class="st1" d="M9.9,67.1c6.4,0.6,27.2-0.6,37.1-0.7c0.4,0,0.4-0.5,0-0.6c-7.8-0.8-28.5,1.7-38.4,0c-2.8-0.5-3.6-2.1-3.8-3
	c-0.7-3,2.1-6.4,4.6-7.7c1.6-0.8,3.4-1,5.2-0.7c1.8,0.3,3.4,1.2,4.6,2.5c0.1,0.1,0.2,0.1,0.3,0.1c0.1,0,0.2,0,0.3-0.1
	c0.1-0.1,0.2-0.1,0.2-0.2c0-0.1,0.1-0.2,0-0.3c-0.9-5.4,5.6-8,10-8.1c2.2-0.1,4.4,0.6,6.2,2c1.7,1.4,2.9,3.4,3.3,5.6
	c0,0.1,0.1,0.2,0.2,0.2c0.1,0.1,0.2,0.1,0.3,0.1s0.2,0,0.3,0c0.1,0,0.2-0.1,0.2-0.2c1.9-3.7,6.5-2.8,9-0.3c2,2,3.8,5.8,2.4,8.7
	c-0.2,0.5,0.5,0.9,0.7,0.4c1.8-3.5-0.5-8.2-3.2-10.5c-2.6-2.2-6.9-2.6-9.1,0.2c-1.4-4.9-6.1-7.7-11.2-7.2c-4.5,0.4-9.9,3.1-10,8
	c-1-0.8-2.1-1.3-3.3-1.7c-1.2-0.3-2.4-0.4-3.7-0.3c-1.2,0.2-2.4,0.5-3.5,1.2c-1.1,0.6-2,1.4-2.8,2.4C4.2,58.8,3,61.5,4,63.8
	C5,66.1,7.5,66.9,9.9,67.1z"/>
<path class="st1" d="M247.1,198.2c-2.3-2.6-7.2-4.4-9.7-1.5c-0.4-2.2-1.6-4.3-3.3-5.7c-1.7-1.5-3.9-2.3-6.2-2.3
	c-2.3,0-4.5,0.8-6.2,2.2c-1.8,1.4-3,3.4-3.4,5.7c-2.2-1-4.7-1.4-7.2-1.1s-4.8,1.2-6.7,2.7c-5.2,3.9-4.9,9.2-2,9.9c0.1,0,0.1,0,0.2,0
	c0.1,0,0.1-0.1,0.1-0.2c0-0.1,0-0.1,0-0.2c0-0.1-0.1-0.1-0.2-0.1c-2.5-0.8-1.5-4.2-0.5-5.7c1.7-2.6,4.4-4.4,7.4-5.2
	c3-0.8,6.2-0.4,8.9,1.1c0.3,0.1,0.7,0,0.7-0.3c0.4-2.1,1.4-4.1,3.1-5.5c1.6-1.4,3.7-2.2,5.9-2.2c2.2,0.1,4.3,1.1,5.9,2.6
	c1.6,1.6,2.5,3.7,2.7,5.9c0,0.5,0.8,0.8,1,0.3c2.4-5.2,11.3-0.4,9.9,4.4c-1.5,4.9-8.9,4.7-12.9,5.1c-9.2,0.7-18.4,0.9-27.6,0.4
	c-0.1,0-0.3,0.1-0.4,0.1s-0.1,0.2-0.1,0.4c0,0.1,0.1,0.3,0.1,0.4s0.2,0.1,0.4,0.1c9.4,0.7,18.9,0.6,28.3-0.4
	c2.8-0.1,5.7-0.6,8.4-1.3C247.8,206.4,250.5,202,247.1,198.2z"/>
<path class="st1" d="M160.3,53.3c0.6-0.4,1.2-0.8,1.9-1c-0.6,1.6-0.7,3.2-0.4,4.9c0.1,0.4,0.7,0.3,0.6-0.1c-0.1-1.7,0.2-3.4,0.7-5
	c1.7,0,3.4-0.2,5.2-0.4c0.1,0,0.1-0.1,0.2-0.1s0.1-0.1,0-0.2c0-0.1-0.1-0.2-0.1-0.2c-0.1-0.1-0.1-0.1-0.2-0.1
	c-1.6,0-4.7,0.2-4.7,0.2l0.2-0.5c0-0.1,0-0.1,0-0.2c0-0.1-0.1-0.1-0.1-0.2c-0.1,0-0.1-0.1-0.2,0c-0.1,0-0.1,0.1-0.2,0.1
	c-0.2,0.3-0.4,0.6-0.6,0.9c-1,0.3-2,0.8-2.8,1.5C159.5,53.1,160,53.6,160.3,53.3z"/>
<path class="st1" d="M165.3,47.6c1.7-2.6,3.8-5.1,6.1-7.2c0.2-0.2-0.1-0.6-0.3-0.4c-2.6,1.9-4.7,4.4-6.3,7.3c0,0.1,0,0.1,0,0.2
	c0,0.1,0.1,0.1,0.1,0.2c0.1,0,0.1,0,0.2,0C165.2,47.6,165.3,47.6,165.3,47.6z"/>
<path class="st1" d="M174.2,37.8c1.2-1.2,2.7-2.2,4.3-3c-0.3,1.9,0,3.9,0.9,5.7c0.2,0.4,0.8,0.1,0.7-0.3c-0.7-1.9-0.9-3.9-0.5-5.9
	c1.3-0.5,2.5-1,3.9-1.3c0.4-0.1,0.3-0.7-0.1-0.7c-1.2,0.1-2.3,0.4-3.4,0.8c0.1-0.2,0.2-0.4,0.3-0.6c0-0.1,0.1-0.2,0-0.3
	c0-0.1-0.1-0.2-0.2-0.2c-0.1,0-0.2-0.1-0.3,0c-0.1,0-0.2,0.1-0.2,0.2c-0.3,0.4-0.6,0.9-0.8,1.5c-1.9,0.9-3.6,2.2-5,3.7
	c0,0-0.1,0.1-0.1,0.1c0,0,0,0.1,0,0.1c0,0,0,0.1,0,0.1c0,0,0,0.1,0.1,0.1c0,0,0.1,0.1,0.1,0.1c0,0,0.1,0,0.1,0
	C174,37.9,174.1,37.9,174.2,37.8C174.1,37.9,174.2,37.9,174.2,37.8z"/>
<path class="st1" d="M183.8,43c-0.1,0-0.2,0-0.2,0.1c-0.1,0.1-0.1,0.1-0.1,0.2c0,0.1,0,0.2,0.1,0.2c0,0.1,0.1,0.1,0.2,0.1
	c3.8,1.1,7.4-2.7,7.1-6.4c0-0.4-0.7-0.4-0.7,0C190.2,40.8,187,43.1,183.8,43z"/>
<path class="st1" d="M182.2,30.4c1.5-3.1,3.6-6,6-8.5c0.3-0.3-0.2-0.8-0.5-0.5c-2.8,2.3-4.9,5.4-6.1,8.8
	C181.4,30.5,182,30.7,182.2,30.4z"/>
<path class="st1" d="M186.2,32.3c-0.1,0-0.1,0.1-0.1,0.1c0,0-0.1,0.1-0.1,0.2c0,0.1,0,0.1,0,0.2c0,0.1,0.1,0.1,0.1,0.1
	c0.7,0.2,1.3,0.5,1.9,0.9c0.5,0.5,0.9,1.1,1.2,1.8c0.2,0.3,0.7,0.3,0.7-0.1C190.2,33.8,187.9,31.7,186.2,32.3z"/>
<path class="st1" d="M163,59.3c-0.1-0.3-0.6-0.1-0.6,0.2c0.1,0.9,0.5,1.8,1,2.5c0.6,0.7,1.4,1.3,2.2,1.6c0.3,0.1,0.7-0.4,0.4-0.6
	C164.6,62.1,163.5,60.8,163,59.3z"/>
<path class="st1" d="M172,59.5c-0.3,1.5-1.6,2.1-2.8,2.7c-0.3,0.2-0.1,0.6,0.2,0.6c1.7,0.1,3-1.7,3.3-3.1
	C172.8,59.2,172.1,59,172,59.5z"/>
<path class="st1" d="M170.9,52.6c0.5,0.4,1,0.9,1.3,1.5c0.3,0.6,0.5,1.2,0.5,1.9c0,0.1,0,0.2,0.1,0.2c0.1,0.1,0.2,0.1,0.2,0.1
	s0.2,0,0.3-0.1c0.1-0.1,0.1-0.2,0.1-0.2c0.1-0.8-0.1-1.6-0.5-2.3c-0.4-0.7-1-1.3-1.7-1.6C170.9,51.9,170.6,52.4,170.9,52.6z"/>
<path class="st1" d="M153.6,59.3c0.6-0.8,1.3-1.6,2-2.4c0.7-0.8,1.6-1.3,2.4-2c0.3-0.3-0.1-0.8-0.5-0.6c-2,1-3.5,2.7-4.4,4.7
	C153,59.3,153.4,59.5,153.6,59.3z"/>
<path class="st1" d="M150.3,65.1c-0.5,1.6-0.5,3.3-0.2,4.9c0.1,0.5,0.8,0.3,0.9-0.1c0-0.8,0-1.6-0.1-2.3c0-0.8,0-1.5,0.1-2.3
	C151.1,64.8,150.4,64.7,150.3,65.1z"/>
<path class="st1" d="M152,81.3c-0.5-2.4-0.8-4.9-0.9-7.3c0-0.1,0-0.2-0.1-0.2c-0.1-0.1-0.2-0.1-0.3-0.1s-0.2,0-0.2,0.1
	c-0.1,0.1-0.1,0.2-0.1,0.2c-0.2,2.5,0.1,5.1,0.9,7.5c0,0.1,0.1,0.2,0.2,0.2c0.1,0.1,0.2,0.1,0.3,0c0.1,0,0.2-0.1,0.2-0.2
	C152,81.5,152,81.4,152,81.3z"/>
<path class="st1" d="M101,140.7c-0.5,0.7-0.7,1.6-0.6,2.5c0,0.9,0.4,1.7,0.9,2.4c0.2,0.2,0.5-0.1,0.4-0.3c-0.4-0.7-0.6-1.4-0.6-2.2
	c-0.1-0.8,0.1-1.5,0.3-2.2C101.5,140.7,101.1,140.5,101,140.7z"/>
<path class="st1" d="M107.3,143c-0.2,0.9-0.7,1.7-1.5,2.2c-0.4,0.3-0.8,0.6-1.3,0.7c-0.5,0.1-1,0.2-1.5,0.1
	c-0.3-0.1-0.4,0.4-0.1,0.5c2.2,0.8,5.5-2.1,4.9-3.6c0-0.1-0.1-0.1-0.1-0.1c-0.1,0-0.1,0-0.2,0c-0.1,0-0.1,0-0.2,0.1
	C107.4,142.9,107.3,143,107.3,143z"/>
<path class="st1" d="M98.9,136.4c-3.3-0.7-7.2,1.2-7.7,4.8c0,0.4,0.5,0.5,0.6,0.2c0.4-1.5,1.3-2.8,2.6-3.6c1.3-0.8,2.8-1.2,4.3-0.9
	C99,136.8,99.2,136.4,98.9,136.4z"/>
<path class="st1" d="M89.9,146c-0.1,1.8,0.2,3.6,0.9,5.3c0.7,1.7,1.7,3.2,3.1,4.4c0,0,0.1,0.1,0.2,0.1c0.1,0,0.1,0,0.2-0.1
	c0,0,0.1-0.1,0.1-0.2c0-0.1,0-0.1-0.1-0.2c-2.3-2.6-3.7-5.9-3.8-9.3c0-0.1,0-0.1-0.1-0.2c-0.1-0.1-0.1-0.1-0.2-0.1
	c-0.1,0-0.1,0-0.2,0.1C89.9,145.8,89.9,145.9,89.9,146z"/>
<path class="st1" d="M109.8,135.1c-1.5,0.2-3,0.8-4.2,1.7c-0.9-0.7-2.1-1-3.2-0.9c-0.3,0.1-0.2,0.4,0,0.5c0.8,0.2,1.7,0.5,2.5,0.9
	c-0.7,0.5-1.3,1-1.9,1.6c-0.3,0.2,0.1,0.6,0.4,0.4c0.6-0.6,1.3-1.1,2.1-1.5c0.5,0.4,1,1,1.3,1.6c0.3,0.6,0.5,1.3,0.6,2
	c0,0.1,0,0.1,0.1,0.2c0,0,0.1,0.1,0.2,0.1c0.1,0,0.1,0,0.2-0.1c0,0,0.1-0.1,0.1-0.2c0-0.7-0.1-1.5-0.4-2.1c-0.3-0.7-0.7-1.3-1.3-1.8
	c1.2-0.6,2.4-1.2,3.7-1.6C110.1,135.6,110.1,135.1,109.8,135.1z"/>
<path class="st1" d="M118.5,128.8c-0.6,0.7-1.2,1.4-1.9,2c-0.8,0.6-1.6,1.2-2.4,1.7c-0.1,0-0.1,0.1-0.1,0.2c0,0.1,0,0.1,0,0.2
	c0,0.1,0.1,0.1,0.1,0.1c0.1,0,0.1,0,0.2,0c2-0.6,3.6-2,4.6-3.8C119.1,128.9,118.7,128.5,118.5,128.8z"/>
<path class="st1" d="M121.2,120.5c0.2,1.7-0.1,3.5-0.6,5.1c-0.1,0.3,0.4,0.4,0.5,0.1c0.7-1.7,0.9-3.5,0.6-5.3
	C121.6,120.2,121.2,120.3,121.2,120.5z"/>
<path class="st1" d="M111.2,106.6c0-0.1-0.1-0.1-0.1-0.1c-0.1,0-0.1,0-0.2,0c-0.1,0-0.1,0-0.2,0.1c0,0-0.1,0.1-0.1,0.2
	c0.1,1.1,0.4,2.1,1,3c0.6,0.9,1.4,1.7,2.3,2.2c0.1,0,0.1,0,0.2,0c0.1,0,0.1-0.1,0.1-0.1c0-0.1,0-0.1,0-0.2c0-0.1,0-0.1-0.1-0.2
	C112.6,110.3,111.5,108.6,111.2,106.6z"/>
<path class="st1" d="M110.5,104.7c0,0.1,0,0.1,0.1,0.2s0.1,0.1,0.1,0.1c0.1,0,0.1,0,0.2,0c0,0,0.1-0.1,0.1-0.1
	c0.4-2.1,1.2-4,2.2-5.9c0.1-0.2-0.2-0.5-0.4-0.3C111.3,100.3,110.5,102.4,110.5,104.7z"/>
<path class="st1" d="M114.9,97.9c2.4-1.1,4.5-0.5,6.7,0.6c0.3,0.1,0.5-0.2,0.3-0.4c-1-0.8-2.2-1.3-3.6-1.4c-1.3-0.1-2.6,0.2-3.8,0.8
	C114.4,97.6,114.6,98,114.9,97.9z"/>
<path class="st1" d="M118.5,105.1c-0.3,0-0.4,0.5-0.1,0.5c2.9,0.9,5.2-2,4.5-4.7c-0.1-0.3-0.5-0.2-0.4,0.1c0.1,0.6,0.1,1.1-0.1,1.7
	c-0.2,0.5-0.5,1-0.8,1.4c-0.4,0.4-0.9,0.7-1.4,0.9C119.6,105.1,119.1,105.2,118.5,105.1z"/>
<path class="st1" d="M116.3,104.6c0.1,0,0.1,0,0.2,0c0.1,0,0.1,0,0.1-0.1c0,0,0.1-0.1,0.1-0.2c0-0.1,0-0.1-0.1-0.2
	c-1.4-1.1-2.4-2.7-2.8-4.4c-0.1-0.2-0.5-0.2-0.5,0.1c0.1,1,0.5,1.9,1,2.7C114.8,103.4,115.5,104.1,116.3,104.6z"/>
<path class="st1" d="M112.9,96.2c0.1-1.9,0-3.8-0.2-5.7c0-0.1,0-0.2-0.1-0.2c-0.1-0.1-0.1-0.1-0.2-0.1s-0.2,0-0.2,0.1
	s-0.1,0.1-0.1,0.2c0,1.9,0,3.8,0.2,5.7C112.3,96.5,112.9,96.6,112.9,96.2z"/>
<path class="st1" d="M114.8,80.7c-1.1,1.4-1.8,3-2.1,4.8c0,0.1,0,0.1,0,0.2c0,0,0.1,0.1,0.1,0.1c0.1,0,0.1,0,0.2,0
	c0,0,0.1-0.1,0.1-0.1c0.5-1.6,1.2-3.1,2.1-4.5c0-0.1,0-0.1,0-0.2c0-0.1,0-0.1-0.1-0.2s-0.1-0.1-0.2-0.1
	C114.9,80.6,114.8,80.6,114.8,80.7z"/>
<path class="st1" d="M123.3,77c0.4,0,0.4-0.5,0.1-0.6c-1.1-0.3-2.3-0.2-3.3,0.1c-1.1,0.3-2,1-2.8,1.8c-0.2,0.2,0.1,0.6,0.3,0.3
	c0.8-0.7,1.7-1.2,2.7-1.5C121.3,76.9,122.3,76.9,123.3,77z"/>
<path class="st0" d="M119,184.3c-1.7-2,0.1-3.4,2.3-4.9c4.4-3,8-6.6,9-6.7c1.8-0.2,3.2,1.2,4.9,0.8c2-0.4,8.1-6.2,10-6
	c1.9,0.2,7.9,7.3,10,11c2.1,3.7-0.3,4.7-2.9,7c-5.2,4.3-10.5,8.3-16.1,11.9c-1.8,1.2-3.1,2.3-5.1,1.2C129.9,198,119.6,185,119,184.3
	z"/>
<path class="st1" d="M212.4,147.2c-3.3-1.5-6.8-2.2-10.4-1.9s-7,1.4-10.1,3.3c-1.4-4.6-4.3-8.7-8.3-11.5c-3.9-2.8-8.7-4.3-13.6-4.2
	c0.2-2.6,0.3-5.2,0.5-7.8c5.7,1.2,11.5,2.1,17.4,2.7c1.7,0.3,3.5,0.4,5.3,0.4c-0.4,4.9-0.7,9.7-1,14.6c0,0.7,1,0.7,1,0
	c0.9-20.8,3.4-38.2,4.4-46.9c0.2,0.1,0.4,0.1,0.7,0.2c1.7,0.5,3.4,0.9,5.1,1.2c0.2,0,0.3-0.3,0.3-0.3c1-4.8,1.7-9.6,2.1-14.4
	c0-0.6-0.3-0.6-0.4-0.6c-9.8-2.8-16-5.8-21-6.6c-0.1,0-0.2,0-0.3,0c-0.1,0-0.2,0.1-0.2,0.2c0,0-0.5,2.5-0.6,3.7
	c-3.2,0.7-6.3,1.5-9.4,2.6c-0.1,0-0.2,0.1-0.2,0.2c-0.1,0.1-0.1,0.2,0,0.3c0,0.1,0.1,0.2,0.2,0.3c0.1,0.1,0.2,0.1,0.3,0
	c3-0.8,6-1.6,9-2.4c-0.2,2.1-0.7,6.4-1,8.6c0,0-6.2,0.7-9.1,1.4c-0.1,0-0.2,0.1-0.2,0.2c-0.1,0.1-0.1,0.2-0.1,0.3
	c0,0.1,0.1,0.2,0.1,0.2c0.1,0.1,0.2,0.1,0.3,0.1c3-0.2,6-0.6,8.9-1.2c-0.1,0.7-0.1,1.3-0.2,2c-0.2,1.2,0.5,0.5,14.9,3.9
	c0,0.1,0,0.3-0.1,0.4c-7.7-2-15.5-3.7-23.3-4.9c-0.4,0-0.4,0.5-0.1,0.6c3.8,1,7.8,1.6,11.6,2.4c3.9,0.9,7.7,1.9,11.6,2.7
	c0.1,0-0.6,2.4-1.8,14.3c-1-0.4-21.2-3.6-23.2-3.7c0.6-10.1,2.1-35.9,2.3-38.6c0-0.7-9.6,2.5-13.7,4.1c0.2-3.5,0.1-7-0.1-10.5
	c0-0.1,0-0.2-0.1-0.3c-0.1-0.1-0.2-0.1-0.3-0.1c-0.1,0-0.2,0-0.3,0.1c-0.1,0.1-0.1,0.2-0.1,0.3c-0.3,5.4-0.1,10.9-0.2,16.3
	c-0.1,2.7-0.3,5.5-0.2,8.2c-7.4,0.1-43.7,0.4-47.7,0.6c-0.7-9.7-0.6-21.3-1.6-24.3c0-0.1,0-0.1-0.1-0.1c0,0-0.1,0-0.2,0
	c-0.1,0-0.1,0-0.1,0.1c0,0-0.1,0.1-0.1,0.1c0,4.3,0.5,13.7,0.6,14.2c-4.8-2.3-9.7-4.4-14.7-6.1c-0.1,0-0.1,0-0.2,0
	c-0.1,0-0.1,0-0.2,0.1c-0.1,0-0.1,0.1-0.1,0.2c0,0.1-0.1,0.1-0.1,0.2c0,7,0.4,14,0.8,21c-4,1.1-7.9,2.2-11.9,3
	c-2,0.4-10.3,1.6-12.4,2.2c-0.2-2.3-0.3-4.7-0.5-7c-0.2-2.7-0.7-8.6-0.7-8.6c1.2-0.8,19.8-7.8,24.1-10.1c0.1,0,0.2-0.1,0.2-0.2
	c0-0.1,0-0.2,0-0.3c0-0.1-0.1-0.2-0.2-0.2c-0.1,0-0.2,0-0.3,0c-3.7,1.2-7.3,3-10.8,4.5c-3.3,1.4-6.7,2.7-10,4.1
	c-0.9,0.4-3.5,0.9-3.8,2c-0.2,0.6,1.2,14.8,1.7,18.7c-2.8,0.5-5.6,1.1-8.4,1.7c-0.1,0-0.4,0.1-0.4,0.4c0.7,5.3,1,10.7,1.1,16
	c0,0.1,0,0.1,0.1,0.2s0.1,0.1,0.1,0.2c0.1,0,0.1,0.1,0.2,0.1c0.1,0,0.1,0,0.2,0c7.1-1.2,14.3-1.8,21.5-2.4c0.1,0,0.3-0.1,0.4-0.2
	s0.2-0.2,0.2-0.4c0-0.7,0-1.4,0-2c0,0,10.7,0.4,11.2-0.6c0-0.1,0.1-0.1,0-0.2c0-0.1,0-0.1-0.1-0.2c-0.4-0.5-1.2-0.2-1.8-0.2
	c-1.1,0.1-9.4,0.4-9.4,0.5c0-2.9,0-5.6-0.1-8.5c2,0,10.7-0.4,10.7-0.4c0.8,10.8,0.6,10.6,0.8,12.6c-0.1,0-8.2,1-12.1,1.2
	c-6.6,0.5-8.2,0.6-12.4,1.1c0,0-0.1-0.4-0.1-0.5c-0.1-0.3-0.6-0.3-0.6,0.1c0.2,4.2,0.8,8.4,1.1,12.6c0.3,4.2,0.2,8.4,0.4,12.6
	c0,0.1,0,0.2,0.1,0.3c0.1,0.1,0.2,0.1,0.3,0.1c0.1,0,0.2,0,0.3-0.1c0.1-0.1,0.1-0.2,0.1-0.3c0.1-2.3,0-4.7-0.1-7.1
	c3.5,0.4,7,0.3,10.5-0.4c0.6-0.1,0.4-1.1-0.3-1c-3.4,0.7-6.9,0.2-10.3,0.6c-0.2-5.4-0.7-10.9-1.5-16.2c4.5-0.4,19.3-1.6,24.4-2
	c0.2,4.1,0.4,8.2,0.8,12.3c-1,0.1-2,0.3-2.9,0.5c-8.4,2-14.1,10-16.5,17.9c-12.1-4.3-27.3-1.8-33.1,10.9
	c-5.5,12.1,2.2,23.4,14.8,26.7c12.6,3.3,27-1,27-1s6.8,3.1,10.6,3.6c3.7,0.5,7.4,0.5,11,0.1c2.8-0.1,5.5-0.8,8-1.9
	c0.3-0.2,0.2-0.7-0.2-0.6c-3.5,0.4-8.2,2.1-17,1.4c-6.1-0.5-12.7-2.3-16.5-7.5c-0.2-0.2-0.6,0-0.4,0.2c0.9,1.6,2.2,2.9,3.6,4
	c-12.5,2.1-28.1,4.3-37.5-6.4c-8.5-9.7-2.6-24.2,8.5-28.7c6.8-2.8,14.5-2.2,21.3,0.4c0.1,0,0.3,0,0.4-0.1c0.1-0.1,0.2-0.2,0.3-0.3
	c2.1-7.5,7.4-15.4,15.3-17.6c7.8-2.1,18,0.2,22.2,7.7c0.1,0.1,0.1,0.2,0.2,0.2c0.1,0,0.2,0.1,0.3,0c0.1,0,0.2-0.1,0.3-0.1
	c0.1-0.1,0.1-0.2,0.2-0.2c0.7-4.5,3-8.6,6.4-11.6c3.4-3,7.7-4.8,12.3-5c4.5-0.2,9,1.2,12.7,3.9c3.7,2.7,6.3,6.6,7.4,11
	c0,0.1,0.1,0.2,0.1,0.2c0.1,0.1,0.2,0.1,0.2,0.1c0.1,0,0.2,0,0.3,0c0.1,0,0.2-0.1,0.2-0.1c2.8-2.3,6.2-3.8,9.8-4.4
	c3.6-0.6,7.3-0.3,10.7,0.9c3.2,1.2,6,3.2,8.3,5.7c2.3,2.5,3.9,5.5,4.8,8.8c0,0.1,0.1,0.2,0.1,0.2c0.1,0.1,0.1,0.1,0.2,0.2
	c0.1,0,0.2,0,0.3,0c0.1,0,0.2,0,0.3-0.1c10.5-7.7,27.4-2.8,30.1,11.2c0.6,3.1,0.5,6.3-0.4,9.4c-0.9,3.1-2.5,5.9-4.6,8.2
	c-5.6,5.6-13.9,7-21.5,7.2c-8.2,0.2-15.7-1.9-23.2-4.7c1.5-1.1,4.7-3.6,5.5-5.4c0.1-0.3-0.2-0.7-0.5-0.5c-1.9,1.2-2.7,3.5-7.3,6.1
	c-4,2.3-8.2,2.8-12.7,2.9c-0.5,0-0.5,0.8,0,0.8c4.4,0.5,9.9-1.1,14-3.3c7.3,3.4,15.1,5.2,23.1,5.2c8,0,16.8-1.4,22.9-6.9
	C226.9,171.6,225.7,153.3,212.4,147.2z M193.2,93.8c-3.3-0.7-6.8-1.9-10.2-2c0-0.1,0.5-5.5,0.8-8.2c0.2-2.5,0.6-5,0.6-7.6
	c3.3,1.4,6.8,2.3,10.2,3.5c3.4,1.2,6.8,2.3,10.3,3.3c-0.8,4.4-1.2,8.8-2,13.2C201.7,95.4,195.1,94.2,193.2,93.8z M171.6,108.1
	c2.1,0.6,22.1,3.8,23.1,3.8c0.1,0-0.8,7.5-1.4,15.2c-1.8-0.4-1.8,0-10.8-1.1c-4-0.5-8-1.1-11.9-1.7
	C171.1,117.1,171.3,112.9,171.6,108.1z M84.3,115.9c-6.9,0.6-13.8,1.2-20.6,2.3c0.1-5-0.3-10.1-1.1-15c2.7-0.6,17.1-3.4,21.3-4.7
	C84.4,104.3,84.5,110.1,84.3,115.9z M91.1,104.2c-1.9,0-3.8,0.1-5.8,0.2c-0.1-2.2-0.2-4.4-0.5-6.5c0-0.1,0-0.2-0.1-0.2
	c0-0.1-0.1-0.1-0.1-0.2c-0.1,0-0.1-0.1-0.2-0.1c-0.1,0-0.2,0-0.2,0c-4.3,1.3-8.6,2.3-13,3.1c0-0.7-0.1-1.3-0.2-2
	c8.2-0.9,16.4-2.5,24.3-4.8c0.1,2.2,0.6,9.1,0.7,10.3C94.4,104,92.7,104,91.1,104.2z M157,136.4c-1.5-4.3-4.3-7.9-8.1-10.5
	c-3.8-2.5-8.2-3.8-12.8-3.5c-4.5,0.2-8.8,2-12.3,4.9c-3.5,2.9-5.9,6.9-6.9,11.3c-0.9-1.3-2-2.5-3.3-3.6c-0.5-6.2-1-12.3-1.5-18.5
	c2.2-0.1,4.4-0.1,6.7,0c0.3,0.5,0.6,1,0.8,1.5c0.1,0.3,0.6,0.2,0.5-0.1c-0.2-0.5-0.4-1-0.6-1.5c0.9,0,31.1-0.7,38.3-1
	C157.6,122.3,157.3,129.6,157,136.4z M162,114.7c-8.7,0.5-42,1-42.8,1c-0.8-1.2-1.9-2.1-3.1-2.6c-0.3-0.1-0.5,0.4-0.2,0.5
	c0.9,0.6,1.7,1.3,2.4,2c-2.7-0.1-8.6,0.2-8.9,0.2c-0.5-8.1-1.6-26.5-1.7-27.5c0.6,0,50.7-0.6,54.9-0.4
	C162.3,96.8,162.2,105.8,162,114.7z"/>
<path class="st1" d="M97.2,157.9c-0.1-0.1-0.1-0.1-0.2-0.1c-0.1,0-0.1,0-0.2,0.1c-0.1,0.1-0.1,0.1-0.1,0.2c0,0.1,0,0.2,0.1,0.2
	c1.8,1.8,3.9,3.3,6.3,4.3c0.4,0.1,0.6-0.4,0.3-0.6C101.1,160.8,99.1,159.4,97.2,157.9z"/>
<path class="st1" d="M105.7,163.4c-0.1,0-0.1,0-0.2,0c-0.1,0-0.1,0.1-0.1,0.2c0,0.1,0,0.1,0,0.2c0,0.1,0.1,0.1,0.2,0.1
	c2.6,0.9,5,2.2,7.5,3.3c0.1,0,0.2,0.1,0.3,0c0.1,0,0.2-0.1,0.2-0.2c0-0.1,0.1-0.2,0-0.3s-0.1-0.2-0.2-0.2
	C111.1,165,108.5,163.9,105.7,163.4z"/>
<path class="st1" d="M116.4,169.1c-0.1,0-0.2,0-0.2,0c-0.1,0-0.1,0.1-0.2,0.1c0,0.1-0.1,0.2,0,0.2c0,0.1,0.1,0.2,0.1,0.2
	c2.1,1.5,3.9,3.4,5.4,5.5c0.3,0.4,0.7-0.1,0.6-0.5C120.8,172.3,118.9,170.3,116.4,169.1z"/>
</svg>
