<svg width="240" height="240" viewBox="0 0 240 240" fill="none" xmlns="http://www.w3.org/2000/svg">
<path d="M180.804 96.3701C182.92 96.8981 186.404 98.2361 188.426 98.6405C188.16 99.3802 187.951 100.14 187.804 100.912C185.285 100.531 182.82 99.8518 180.462 98.8889C180.462 98.8889 180.71 97.5521 180.804 96.3701Z" fill="#D1D0D6"/>
<path d="M80.1959 98.6405C78.0803 99.1385 74.6891 100.072 72.7295 100.631C72.7366 99.8198 72.6848 99.0089 72.5747 98.2049C74.9742 97.1381 77.49 96.3552 80.0711 95.8721C80.0225 96.7967 80.0643 97.7239 80.1959 98.6405Z" fill="#D1D0D6"/>
<path d="M72.2316 120.48C70.086 120.854 66.9744 121.414 64.9836 121.85C64.9224 120.964 64.8082 120.082 64.6416 119.21C67.126 118.418 69.694 117.917 72.294 117.717C72.165 118.632 72.1441 119.56 72.2316 120.48Z" fill="#D1D0D6"/>
<path d="M83.2451 137.559C81.0671 137.745 77.5211 138.026 75.4667 138.279C75.4867 137.397 75.4466 136.515 75.3467 135.639C77.8869 135.053 80.4859 134.761 83.0927 134.768C83.0927 134.768 83.2451 136.158 83.2451 137.559Z" fill="#D1D0D6"/>
<path d="M171.938 110.99C174.084 111.27 177.725 112.172 179.778 112.359C179.598 113.117 179.473 113.886 179.404 114.661C176.858 114.572 174.332 114.186 171.876 113.51C171.948 112.672 171.969 111.831 171.938 110.99Z" fill="#D1D0D6"/>
<path d="M120.826 84.7969C124.34 84.5473 130.375 84.7657 133.704 84.3613C133.668 85.7417 133.708 87.123 133.824 88.4989C130.277 88.3789 124.304 89.0893 121.069 88.9033C121.074 87.5308 120.993 86.1592 120.826 84.7969Z" fill="#D1D0D6"/>
<path d="M118.523 107.662C123.345 107.288 131.621 107.599 136.132 107.071C136.088 108.96 136.15 110.851 136.318 112.733C131.465 112.577 123.313 113.542 118.865 113.262C118.862 111.39 118.747 109.52 118.523 107.662Z" fill="#D1D0D6"/>
<path d="M122.629 128.568C126.145 128.319 132.18 128.536 135.509 128.133C135.473 129.513 135.513 130.894 135.629 132.269C132.082 132.149 126.109 132.861 122.874 132.674C122.896 131.301 122.814 129.929 122.629 128.568Z" fill="#D1D0D6"/>
<path d="M169.854 126.109C172.031 126.359 175.391 127.168 177.444 127.324C177.298 128.136 177.205 128.957 177.164 129.781C174.626 129.558 172.103 129.194 169.604 128.692C169.788 127.844 169.872 126.977 169.854 126.109Z" fill="#D1D0D6"/>
<path d="M167.987 141.261C170.165 141.509 173.556 142.412 175.609 142.536C175.562 143.396 175.562 144.258 175.609 145.118C172.955 145.002 170.323 144.574 167.77 143.842C167.917 142.99 167.99 142.126 167.987 141.261Z" fill="#D1D0D6"/>
<path d="M6.74658 125.083C11.2262 122.159 16.049 119.545 20.5286 116.622C20.2908 115.835 20.1755 115.016 20.1866 114.194L6.74658 125.083Z" fill="#D1D0D6"/>
<path d="M6 125.084C6 124.679 11.2572 112.391 12.84 106.294C12.84 106.294 14.8008 107.254 15.9516 107.88C15.4536 108.876 12.7788 115.614 12.9336 115.222C14.8932 113.2 16.9164 111.209 18.9696 109.28C19.554 109.28 23.4096 110.307 23.2896 110.276C17.5728 114.942 6 125.488 6 125.084Z" fill="#D1D0D6"/>
<path d="M220.998 137.28C217.775 140.524 213.778 142.893 209.385 144.161C204.992 145.43 200.348 145.556 195.892 144.529L206.562 158.279C206.682 158.272 224.845 161.497 233.41 149.445C233.41 149.442 224.575 141.6 220.998 137.28ZM215.274 153.706C214.807 153.271 212.1 150.253 211.194 149.226C211.194 149.611 218.052 147.999 219.126 146.925C218.183 149.36 216.887 151.644 215.28 153.703L215.274 153.706Z" fill="#D1D0D6"/>
<path d="M200.248 30.4471C198.988 28.0747 196.079 23.3551 195.954 23.2303C195.812 23.0841 195.627 22.9863 195.426 22.9507C191.879 22.9195 188.022 24.2563 184.786 25.5319C181.449 26.677 178.342 28.4045 175.609 30.6343C175.561 30.6729 175.522 30.7214 175.493 30.7765C175.465 30.8315 175.449 30.8919 175.446 30.9537C175.443 31.0154 175.454 31.0771 175.476 31.1346C175.499 31.1921 175.534 31.2441 175.578 31.2871C179.058 35.4559 181.302 40.6207 183.541 45.5671C183.641 45.7667 183.809 45.9236 184.015 46.0094C184.221 46.0951 184.45 46.1038 184.662 46.0339C188.395 44.6647 200.029 38.7223 202.891 37.9759C203.358 37.8823 201.351 32.5195 200.248 30.4471ZM185.564 26.4343C188.731 25.3354 191.99 24.5233 195.301 24.0079C196.486 26.5159 198.173 28.7863 199.501 31.4479C197.941 31.6699 196.518 33.2203 194.928 34.5895C193.684 35.6479 191.91 37.7947 190.608 35.7415C189.488 33.9679 188.027 33.1279 186.16 34.6207C184.169 36.2338 182.778 38.469 182.209 40.9675C180.712 37.4014 178.676 34.0861 176.173 31.1371C179.205 29.3806 182.342 27.8101 185.564 26.4343Z" fill="#D1D0D6"/>
<path d="M191.16 30.2301C191.46 30.3047 191.773 30.3131 192.077 30.2548C192.381 30.1964 192.668 30.0726 192.92 29.8919C193.171 29.7113 193.38 29.4782 193.532 29.2088C193.684 28.9394 193.775 28.6401 193.8 28.3317C193.767 27.8857 193.672 27.4463 193.519 27.0261C193.327 26.699 193.058 26.4244 192.734 26.2266C192.41 26.0288 192.043 25.914 191.664 25.8924C191.286 25.8708 190.908 25.943 190.564 26.1027C190.22 26.2624 189.92 26.5045 189.693 26.8077C189.491 27.1163 189.37 27.4698 189.338 27.8368C189.306 28.2038 189.366 28.573 189.511 28.9115C189.656 29.2501 189.882 29.5476 190.17 29.7776C190.458 30.0076 190.798 30.163 191.16 30.2301Z" fill="#D1D0D6"/>
<path d="M170.569 86.2583C168.593 85.363 166.528 84.6749 164.41 84.2051C164.098 84.1739 163.912 84.5159 164.191 84.7031C165.953 85.6891 167.822 86.4718 169.76 87.0359C171.626 87.7559 179.186 90.5519 181.052 91.2671C183.029 92.1519 185.08 92.8599 187.182 93.3827C187.276 93.4039 187.375 93.3912 187.461 93.3469C187.547 93.3025 187.614 93.2293 187.651 93.1401C187.688 93.0509 187.693 92.9515 187.664 92.8594C187.635 92.7672 187.574 92.6883 187.493 92.6363C186.059 91.7759 186.659 92.0963 170.569 86.2583Z" fill="white"/>
<path d="M187.119 105.24C187.026 105.427 187.151 105.738 187.399 105.707C187.968 105.522 188.488 105.214 188.923 104.804C189.296 104.431 189.204 104.152 188.954 104.084C185.346 103.124 181.55 101.596 177.755 101.596C177.475 101.596 176.946 102.373 176.885 102.653C176.866 102.722 176.869 102.794 176.892 102.862C176.915 102.929 176.957 102.988 177.014 103.031C177.07 103.075 177.138 103.1 177.209 103.105C177.28 103.109 177.351 103.093 177.413 103.057C177.68 102.905 177.896 102.678 178.036 102.404C181.208 103.276 184.412 103.866 187.586 104.737C187.378 104.847 187.213 105.024 187.119 105.24Z" fill="white"/>
<path d="M171.441 91.0799C171.244 91.8668 171.234 92.6883 171.409 93.4799C171.433 93.5233 171.466 93.5603 171.506 93.5881C171.547 93.6159 171.594 93.6335 171.642 93.6395C171.691 93.6455 171.741 93.6397 171.787 93.6226C171.833 93.6054 171.874 93.5775 171.907 93.5411C172.108 93.2321 172.236 92.8812 172.281 92.5151C172.374 92.0795 172.467 91.6439 172.529 91.2395C172.546 91.1651 172.548 91.0879 172.534 91.0128C172.52 90.9376 172.491 90.8662 172.448 90.803C172.405 90.7398 172.349 90.6863 172.284 90.6457C172.22 90.6051 172.147 90.5785 172.072 90.5674C171.996 90.5563 171.919 90.561 171.845 90.5813C171.771 90.6015 171.703 90.6369 171.643 90.6851C171.584 90.7332 171.535 90.7932 171.501 90.8612C171.466 90.9292 171.445 91.0037 171.441 91.0799Z" fill="white"/>
<path d="M170.259 90.7692C170.089 91.212 169.964 91.6707 169.885 92.1384C169.722 92.5751 169.681 93.0479 169.765 93.5064C169.859 93.756 170.232 93.942 170.449 93.6936C170.678 93.3205 170.787 92.8861 170.761 92.4492C170.828 91.9441 170.848 91.434 170.823 90.9252C170.787 90.6444 170.386 90.4596 170.259 90.7692Z" fill="white"/>
<path d="M169.387 91.2669C169.384 91.2065 169.362 91.1487 169.324 91.1013C169.287 91.0539 169.235 91.0193 169.178 91.0022C169.12 90.9851 169.058 90.9864 169 91.0058C168.943 91.0253 168.893 91.062 168.858 91.1109C168.599 91.6412 168.421 92.2076 168.33 92.7909C168.236 93.2889 168.018 93.9117 168.33 94.3509C168.362 94.4052 168.407 94.4502 168.461 94.4815C168.516 94.5127 168.578 94.5292 168.641 94.5292C168.704 94.5292 168.765 94.5127 168.82 94.4815C168.874 94.4502 168.92 94.4052 168.951 94.3509C169.231 93.9465 169.107 93.3909 169.137 92.9205C169.249 92.3739 169.332 91.822 169.387 91.2669Z" fill="white"/>
<path d="M167.147 91.8574C166.89 92.6946 166.754 93.5642 166.743 94.4398C166.711 95.0314 167.551 95.0002 167.645 94.4398C167.707 94.0042 167.739 93.5686 167.765 93.133C167.848 92.7316 167.837 92.3164 167.734 91.9198C167.712 91.8628 167.675 91.8129 167.626 91.7757C167.578 91.7385 167.52 91.7153 167.459 91.7089C167.399 91.7024 167.337 91.7129 167.282 91.7391C167.227 91.7653 167.18 91.8063 167.147 91.8574Z" fill="white"/>
<path d="M165.623 92.3867C165.479 92.8726 165.395 93.3744 165.374 93.8807C165.223 94.3282 165.244 94.8164 165.435 95.2487C165.461 95.289 165.496 95.3232 165.536 95.3488C165.577 95.3743 165.622 95.3907 165.67 95.3966C165.717 95.4026 165.766 95.398 165.811 95.3832C165.857 95.3684 165.898 95.3438 165.933 95.3111C166.275 94.9691 166.213 94.4399 166.244 94.0043C166.312 93.4768 166.301 92.9423 166.213 92.4179C166.197 92.3533 166.161 92.2954 166.11 92.2529C166.059 92.2104 165.996 92.1856 165.929 92.1821C165.863 92.1786 165.797 92.1966 165.742 92.2334C165.687 92.2703 165.645 92.3241 165.623 92.3867Z" fill="white"/>
<path d="M164.316 92.8538C164.138 93.7136 164.107 94.5971 164.223 95.4674C164.223 95.5705 164.264 95.6694 164.337 95.7423C164.409 95.8153 164.508 95.8562 164.611 95.8562C164.715 95.8562 164.813 95.8153 164.886 95.7423C164.959 95.6694 165 95.5705 165 95.4674C165.078 94.5958 165.047 93.7178 164.908 92.8538C164.886 92.7924 164.847 92.7392 164.794 92.7015C164.74 92.6638 164.677 92.6436 164.612 92.6436C164.547 92.6436 164.484 92.6638 164.431 92.7015C164.378 92.7392 164.338 92.7924 164.316 92.8538Z" fill="white"/>
<path d="M179.808 119.95C179.846 120.019 179.908 120.072 179.982 120.1C180.056 120.129 180.137 120.131 180.212 120.106C180.562 119.947 180.863 119.698 181.085 119.386C181.427 119.012 180.897 118.639 180.679 118.608C178.657 118.235 176.599 118.079 174.582 117.83C173.12 117.643 170.262 117.176 169.2 117.11C169.048 117.123 168.901 117.164 168.764 117.23C168.542 117.422 168.335 117.63 168.143 117.852C167.955 118.133 168.33 118.412 168.547 118.258C168.816 118.099 169.066 117.911 169.293 117.697C171.159 118.164 173.089 118.35 174.986 118.657C176.635 118.906 178.284 119.248 179.933 119.466C179.865 119.524 179.816 119.601 179.794 119.688C179.771 119.775 179.776 119.866 179.808 119.95Z" fill="white"/>
<path d="M165.654 133.701C165.704 133.745 165.764 133.779 165.828 133.8C165.892 133.822 165.96 133.829 166.027 133.824C166.094 133.818 166.16 133.798 166.22 133.766C166.279 133.735 166.332 133.691 166.374 133.638C166.489 133.49 166.593 133.334 166.685 133.171C168.567 133.635 170.81 133.72 177.853 134.541C177.758 134.596 177.687 134.685 177.652 134.789C177.617 134.893 177.62 135.006 177.662 135.108C177.703 135.21 177.78 135.294 177.878 135.344C177.976 135.394 178.088 135.407 178.195 135.381C178.818 135.195 179.378 134.758 179.155 134.043C179.121 133.945 179.059 133.859 178.975 133.798C178.892 133.737 178.792 133.703 178.688 133.701C169.423 132.732 166.385 132.115 165.968 132.673C165.796 132.991 165.689 133.341 165.654 133.701Z" fill="white"/>
<path d="M103.715 78.637C103.624 78.637 103.537 78.6731 103.473 78.7372C103.409 78.8013 103.373 78.8883 103.373 78.979C103.373 79.0697 103.409 79.1567 103.473 79.2209C103.537 79.285 103.624 79.321 103.715 79.321C105.275 79.447 137.951 79.0438 149.195 78.0766C149.847 78.0142 149.879 76.9882 149.195 77.0182C98.3782 78.8854 106.68 78.2254 103.715 78.637Z" fill="white"/>
<path d="M112.176 121.661C114.856 121.669 140.856 121.482 142.913 121.287C143.045 121.281 143.169 121.224 143.26 121.129C143.351 121.033 143.402 120.906 143.402 120.774C143.402 120.642 143.351 120.516 143.26 120.42C143.169 120.325 143.045 120.268 142.913 120.261C141.353 120.165 113.885 120.914 112.176 120.981C112.093 120.991 112.016 121.031 111.961 121.094C111.905 121.157 111.875 121.237 111.875 121.321C111.875 121.405 111.905 121.486 111.961 121.548C112.016 121.611 112.093 121.651 112.176 121.661Z" fill="white"/>
<path d="M138.496 95.6219C138.632 95.6154 138.76 95.5569 138.854 95.4584C138.947 95.36 139 95.2293 139 95.0933C139 94.9573 138.947 94.8265 138.854 94.7281C138.76 94.6297 138.632 94.5711 138.496 94.5647C134.389 94.4087 130.189 94.6583 126.083 94.8443C124.309 94.9067 122.475 94.9643 120.67 95.0627C119.912 94.2947 119.028 93.6631 118.056 93.1955C117.714 93.0407 117.403 93.5375 117.745 93.7247C118.457 94.0883 119.108 94.5608 119.674 95.1251C117.85 95.2362 116.033 95.4437 114.231 95.7467C113.887 95.8091 113.981 96.3383 114.323 96.3695C116.418 96.4377 118.516 96.3977 120.607 96.2495C121.378 97.4665 121.945 98.8007 122.287 100.2C122.31 100.272 122.358 100.334 122.422 100.375C122.486 100.415 122.563 100.431 122.638 100.42C122.713 100.409 122.781 100.371 122.831 100.314C122.881 100.256 122.908 100.183 122.909 100.107C122.931 98.6954 122.483 97.3161 121.635 96.1871C132.72 95.5307 131.719 95.9339 138.496 95.6219Z" fill="white"/>
<path d="M63.3037 126.203C65.2609 126.623 74.0365 125.021 74.5657 125.083C75.0625 125.146 75.1873 124.274 74.6857 124.212C73.2021 124.218 71.7263 124.427 70.2997 124.835C67.9981 125.177 65.6017 125.269 63.3001 125.675C63.2407 125.689 63.1879 125.723 63.1503 125.771C63.1126 125.82 63.0924 125.879 63.0928 125.94C63.0932 126.001 63.1143 126.06 63.1525 126.108C63.1908 126.156 63.2441 126.189 63.3037 126.203Z" fill="white"/>
<path d="M81.036 113.262C80.8051 113.867 80.751 114.525 80.88 115.159C80.8698 115.857 80.922 116.555 81.036 117.244C81.0596 117.316 81.1054 117.379 81.1668 117.423C81.2283 117.467 81.3021 117.491 81.378 117.491C81.4538 117.491 81.5277 117.467 81.5891 117.423C81.6505 117.379 81.6963 117.316 81.72 117.244C81.8376 116.556 81.8778 115.856 81.84 115.159C81.9517 114.522 81.887 113.866 81.6528 113.262C81.6207 113.209 81.5755 113.165 81.5215 113.134C81.4674 113.104 81.4064 113.088 81.3444 113.088C81.2823 113.088 81.2213 113.104 81.1672 113.134C81.1132 113.165 81.068 113.209 81.036 113.262Z" fill="white"/>
<path d="M83.1202 113.138C83.065 113.119 83.0055 113.118 82.9499 113.135C82.8942 113.152 82.8451 113.185 82.8094 113.231C82.3738 113.636 82.6222 114.32 82.6222 114.849C82.6222 115.569 82.4674 116.248 82.5022 116.964C82.5029 117.025 82.5216 117.085 82.5559 117.135C82.5902 117.186 82.6385 117.225 82.6949 117.248C82.7513 117.271 82.8133 117.277 82.8731 117.265C82.933 117.254 82.988 117.224 83.0314 117.182C83.4887 116.537 83.7287 115.763 83.7166 114.972C83.7418 114.288 83.8042 113.417 83.1202 113.138Z" fill="white"/>
<path d="M84.8002 112.888C84.433 113.539 84.6454 114.072 84.769 117.025C84.769 117.115 84.805 117.202 84.8692 117.267C84.9333 117.331 85.0203 117.367 85.111 117.367C85.2017 117.367 85.2887 117.331 85.3528 117.267C85.417 117.202 85.453 117.115 85.453 117.025C85.579 114.025 85.7818 113.571 85.4218 112.888C85.3874 112.838 85.3411 112.796 85.2869 112.767C85.2327 112.739 85.1723 112.724 85.111 112.724C85.0497 112.724 84.9893 112.739 84.9351 112.767C84.881 112.796 84.8346 112.838 84.8002 112.888Z" fill="white"/>
<path d="M86.6051 113.075C86.4884 113.732 86.4482 114.4 86.4851 115.066C86.3812 115.704 86.3707 116.354 86.4539 116.995C86.4695 117.04 86.4961 117.081 86.5312 117.113C86.5663 117.145 86.6089 117.169 86.6551 117.181C86.7013 117.192 86.7498 117.193 86.7961 117.181C86.8424 117.17 86.8852 117.147 86.9207 117.115C87.263 116.597 87.4564 115.995 87.4799 115.374C87.6412 114.624 87.631 113.848 87.4499 113.102C87.4277 113.009 87.3753 112.925 87.3009 112.864C87.2265 112.804 87.1341 112.769 87.038 112.766C86.942 112.763 86.8475 112.791 86.7693 112.847C86.6911 112.903 86.6334 112.983 86.6051 113.075Z" fill="white"/>
<path d="M88.4087 112.92C88.2171 113.5 88.1641 114.116 88.2539 114.72C88.2705 115.349 88.3538 115.975 88.5023 116.587C88.5182 116.653 88.556 116.712 88.6096 116.755C88.6631 116.797 88.7293 116.82 88.7975 116.82C88.8657 116.82 88.9319 116.797 88.9854 116.755C89.039 116.712 89.0768 116.653 89.0927 116.587C89.4033 115.386 89.4353 114.13 89.1863 112.915C89.1435 112.851 89.0854 112.798 89.0174 112.762C88.9493 112.726 88.8733 112.708 88.7962 112.708C88.7191 112.708 88.6434 112.728 88.5757 112.765C88.5081 112.802 88.4507 112.855 88.4087 112.92Z" fill="white"/>
<path d="M83.4934 103.244C83.7936 103.49 84.1294 103.689 84.4894 103.835C84.5528 103.853 84.6206 103.849 84.6817 103.824C84.7428 103.799 84.7937 103.754 84.826 103.697C84.8584 103.639 84.8704 103.573 84.8601 103.507C84.8497 103.442 84.8176 103.382 84.769 103.338C84.4894 103.026 84.1774 102.715 83.8978 102.404C83.8416 102.348 83.772 102.308 83.6958 102.287C83.6195 102.266 83.539 102.265 83.4622 102.284C81.3778 103.004 71.5162 104.431 69.4318 105.707C69.3647 105.743 69.3087 105.797 69.2696 105.863C69.2306 105.928 69.21 106.003 69.21 106.08C69.21 106.156 69.2306 106.231 69.2696 106.297C69.3087 106.362 69.3647 106.416 69.4318 106.453C69.7458 106.606 70.0475 106.783 70.3342 106.982C70.7386 107.231 71.0542 106.64 70.6762 106.359C70.6068 106.314 70.5342 106.274 70.459 106.239C75.8914 104.823 83.299 103.2 83.4934 103.244Z" fill="white"/>
<path d="M86.8801 141.757C87.1909 141.794 87.3157 141.292 87.0349 141.167C85.2937 140.358 82.8673 140.887 81.0001 141.012C78.2629 141.198 75.5245 141.353 72.8185 141.732C72.3829 141.794 72.4453 142.354 72.7249 142.541C72.96 142.754 73.2518 142.894 73.5649 142.945C73.8445 143.039 73.8757 142.758 73.8445 142.51C83.6833 141.83 84.5737 141.48 86.8801 141.757Z" fill="white"/>
<path d="M190.292 92.2323C191.454 91.3702 192.681 90.6003 193.963 89.9295C194.021 89.893 194.064 89.8373 194.085 89.7723C194.105 89.7072 194.103 89.6369 194.077 89.5737C194.051 89.5105 194.003 89.4585 193.943 89.4268C193.882 89.395 193.813 89.3857 193.746 89.4003C192.263 89.8622 190.903 90.6489 189.763 91.7031C189.39 92.0139 189.924 92.5203 190.292 92.2323Z" fill="white"/>
<path d="M198.692 88.4047C199.959 87.9171 201.272 87.5624 202.612 87.3463C202.954 87.2851 202.861 86.7871 202.549 86.7871C201.101 86.8315 199.684 87.215 198.412 87.9067C198.038 88.0627 198.32 88.5595 198.692 88.4047Z" fill="white"/>
<path d="M207.028 87.7196C208.597 87.8129 210.126 88.2478 211.509 88.994C211.851 89.15 212.287 88.7144 211.945 88.4348C210.539 87.373 208.773 86.9039 207.025 87.128C206.95 87.1332 206.879 87.1669 206.828 87.2222C206.777 87.2774 206.749 87.3501 206.749 87.4255C206.749 87.5009 206.779 87.5732 206.831 87.6279C206.882 87.6825 206.953 87.7153 207.028 87.7196Z" fill="white"/>
<path d="M218.074 95.0632C218.115 95.1318 218.18 95.1833 218.256 95.2086C218.333 95.2339 218.415 95.2314 218.49 95.2015C218.564 95.1715 218.626 95.1161 218.664 95.0451C218.701 94.9741 218.712 94.8921 218.695 94.8136C218.137 93.2476 216.987 91.9631 215.491 91.2364C215.421 91.1997 215.34 91.1913 215.264 91.213C215.188 91.2346 215.123 91.2847 215.083 91.3528C215.043 91.4209 215.031 91.5018 215.049 91.5786C215.067 91.6555 215.114 91.7225 215.18 91.7656C216.335 92.6816 217.316 93.7988 218.074 95.0632Z" fill="white"/>
<path d="M220.811 104.862C220.844 105.141 221.278 105.11 221.34 104.862C221.632 103.348 221.481 101.781 220.904 100.351C220.868 100.274 220.806 100.213 220.729 100.178C220.652 100.142 220.565 100.135 220.484 100.157C220.402 100.18 220.331 100.23 220.283 100.3C220.235 100.369 220.212 100.454 220.22 100.538C220.544 101.959 220.742 103.406 220.811 104.862Z" fill="white"/>
<path d="M214.153 113.852C212.117 114.778 209.836 115.018 207.652 114.537C207.279 114.444 206.999 115.003 207.372 115.19C209.549 116.341 212.381 115.657 214.403 114.444C214.68 114.257 214.499 113.703 214.153 113.852Z" fill="white"/>
<path d="M204.665 113.262C204.533 112.893 204.479 112.501 204.506 112.11C204.533 111.719 204.64 111.338 204.821 110.991C205.163 110.307 205.754 109.996 206.251 109.467C206.294 109.421 206.323 109.364 206.335 109.302C206.347 109.241 206.341 109.177 206.318 109.118C206.296 109.06 206.257 109.009 206.207 108.971C206.156 108.934 206.096 108.911 206.034 108.906C204.643 108.906 203.082 111.231 204.167 113.479C204.26 113.76 204.786 113.574 204.665 113.262Z" fill="white"/>
<path d="M209.705 108C211.759 107.82 213.828 107.893 215.865 108.218C216.3 108.249 216.3 107.658 215.958 107.498C213.874 106.867 211.656 106.825 209.549 107.378C209.115 107.475 209.301 108.065 209.705 108Z" fill="white"/>
<path d="M218.416 109.093C218.337 109.073 218.254 109.084 218.184 109.125C218.114 109.165 218.063 109.232 218.042 109.311C218.022 109.389 218.033 109.472 218.074 109.542C218.114 109.612 218.181 109.663 218.26 109.684C218.567 109.779 218.868 109.893 219.162 110.026C218.572 110.856 217.859 111.59 217.046 112.204C216.798 112.422 217.078 112.858 217.358 112.733C218.442 112.265 219.324 111.427 219.847 110.369C220.729 110.955 221.571 111.599 222.367 112.297C222.43 112.355 222.511 112.388 222.596 112.392C222.681 112.395 222.764 112.368 222.831 112.316C222.898 112.264 222.945 112.19 222.962 112.106C222.98 112.023 222.968 111.937 222.928 111.862C222.273 110.845 221.315 110.061 220.189 109.621C220.309 109.311 220.408 108.969 220.501 108.661C220.524 108.575 220.513 108.484 220.469 108.406C220.425 108.328 220.352 108.271 220.267 108.247C220.181 108.222 220.089 108.232 220.011 108.275C219.933 108.317 219.874 108.389 219.848 108.474C219.753 108.772 219.638 109.063 219.505 109.345C219.162 109.279 218.79 109.183 218.416 109.093Z" fill="white"/>
<path d="M227.5 120.698C227.526 120.775 227.578 120.841 227.648 120.884C227.717 120.927 227.799 120.944 227.88 120.933C227.961 120.922 228.036 120.883 228.091 120.823C228.146 120.763 228.179 120.686 228.184 120.604C228.017 118.208 227.151 115.914 225.695 114.004C225.647 113.935 225.575 113.887 225.493 113.869C225.411 113.852 225.325 113.867 225.253 113.91C225.182 113.954 225.129 114.024 225.107 114.105C225.085 114.186 225.095 114.272 225.134 114.346C226.106 116.39 226.897 118.516 227.5 120.698Z" fill="white"/>
<path d="M228.713 131.896C228.713 131.972 228.741 132.045 228.79 132.103C228.84 132.16 228.909 132.198 228.984 132.209C229.059 132.22 229.136 132.205 229.2 132.164C229.264 132.124 229.312 132.062 229.335 131.989C229.824 129.635 229.783 127.201 229.215 124.865C229.121 124.429 228.468 124.617 228.561 125.052C228.798 127.325 228.849 129.614 228.713 131.896Z" fill="white"/>
<path d="M227.189 137.59C226.908 137.994 226.66 138.399 226.379 138.803C226.091 139.188 225.83 139.594 225.6 140.016C225.562 140.087 225.55 140.169 225.567 140.247C225.584 140.326 225.628 140.395 225.692 140.444C225.756 140.493 225.835 140.517 225.915 140.513C225.995 140.509 226.071 140.476 226.129 140.421C226.454 140.06 226.736 139.664 226.969 139.239C227.249 138.803 227.561 138.399 227.84 137.963C228.12 137.59 227.468 137.184 227.189 137.59Z" fill="white"/>
<path d="M60.193 112.702C60.2546 112.737 60.3254 112.754 60.3964 112.749C60.4675 112.745 60.5355 112.719 60.592 112.676C60.6485 112.632 60.691 112.573 60.7139 112.506C60.7369 112.439 60.7393 112.366 60.721 112.297C60.535 111.426 59.539 110.648 58.921 110.088C58.0768 109.176 57.0479 108.455 55.903 107.972C55.6546 107.911 55.3738 108.191 55.561 108.439C56.9677 110.002 58.5186 111.429 60.193 112.702Z" fill="white"/>
<path d="M47.9998 104.488C47.938 104.489 47.8779 104.509 47.8286 104.547C47.7793 104.584 47.7433 104.636 47.7259 104.696C47.7086 104.755 47.7108 104.818 47.7322 104.876C47.7537 104.934 47.7932 104.984 47.845 105.018C49.005 105.57 50.2246 105.988 51.4798 106.262C51.3887 107.145 51.2221 108.019 50.9818 108.874C50.8618 109.31 51.4798 109.435 51.6346 109.062C51.9641 108.266 52.2242 107.444 52.4122 106.604C52.9049 106.813 53.3743 107.074 53.8126 107.382C53.9998 107.502 54.2482 107.194 54.061 107.04C53.5657 106.661 53.0444 106.318 52.501 106.012C52.7732 104.579 52.6661 103.099 52.1902 101.72C52.1689 101.65 52.1233 101.591 52.0616 101.552C51.9998 101.513 51.9263 101.498 51.8543 101.509C51.7824 101.521 51.7169 101.558 51.6699 101.613C51.6229 101.669 51.5976 101.74 51.5986 101.812C51.5674 103.088 51.5986 104.301 51.5062 105.514C50.4061 104.971 49.2195 104.623 47.9998 104.488Z" fill="white"/>
<path d="M44.3579 108.284C44.3476 107.762 44.4427 107.244 44.6375 106.759C44.8816 106.247 45.3008 105.839 45.8195 105.608C45.8855 105.588 45.9407 105.542 45.9729 105.481C46.0051 105.42 46.0116 105.348 45.9911 105.282C45.9706 105.216 45.9246 105.161 45.8634 105.129C45.8022 105.096 45.7307 105.09 45.6647 105.11C44.2955 105.391 42.8951 107.04 43.7051 108.47C43.7482 108.531 43.8091 108.577 43.8793 108.602C43.9495 108.626 44.0257 108.629 44.0972 108.608C44.1688 108.588 44.2323 108.546 44.279 108.488C44.3257 108.43 44.3532 108.359 44.3579 108.284Z" fill="white"/>
<path d="M49.9573 110.897C49.1542 111.143 48.3073 111.211 47.475 111.099C46.6427 110.986 45.8446 110.694 45.1357 110.244C44.8561 110.026 44.4829 110.364 44.7625 110.617C46.1317 112.018 48.4957 112.733 50.1757 111.457C50.2458 111.425 50.3009 111.368 50.3299 111.296C50.3588 111.225 50.3594 111.145 50.3315 111.074C50.3035 111.002 50.2492 110.944 50.1796 110.911C50.11 110.878 50.0305 110.873 49.9573 110.897Z" fill="white"/>
<path d="M50.1758 99.1066C50.3318 99.4486 50.9222 99.2002 50.7974 98.8582C50.1446 97.147 48.6206 95.0002 46.6298 94.813C46.2554 94.7818 46.2242 95.2486 46.4738 95.4358C47.417 96.133 49.2218 96.7666 50.1758 99.1066Z" fill="white"/>
<path d="M35.4601 94.3198C37.747 93.9863 40.0749 94.0602 42.3361 94.5382C42.405 94.5548 42.4778 94.5443 42.5391 94.5088C42.6005 94.4733 42.6459 94.4155 42.6658 94.3474C42.6857 94.2793 42.6787 94.2062 42.6461 94.1432C42.6135 94.0802 42.558 94.0321 42.4909 94.009C40.2123 93.1925 37.7401 93.0842 35.3989 93.6982C35.0557 93.787 35.0881 94.351 35.4601 94.3198Z" fill="white"/>
<path d="M25.3811 99.542C27.2903 97.9234 29.3903 96.5443 31.6343 95.4356C31.9763 95.2796 31.7279 94.6892 31.3847 94.8128C28.9166 95.6723 26.7102 97.1506 24.9767 99.1064C24.7283 99.4172 25.0691 99.7904 25.3811 99.542Z" fill="white"/>
<path d="M19.3776 106.355C20.0895 105.596 20.7544 104.794 21.3684 103.955C22.0524 103.146 22.7676 102.395 23.5152 101.653C23.826 101.372 23.3592 100.933 23.0484 101.186C21.5232 102.493 19.626 104.017 18.786 105.914C18.6924 106.293 19.0704 106.64 19.3776 106.355Z" fill="white"/>
<path d="M47.0954 142.255C47.4169 141.706 47.5941 141.084 47.6105 140.447C47.6269 139.811 47.4819 139.181 47.189 138.615C46.9196 138.041 46.5343 137.528 46.0574 137.11C45.5806 136.691 45.0223 136.376 44.4178 136.183C43.8132 135.99 43.1754 135.924 42.5442 135.99C41.913 136.055 41.3021 136.25 40.7498 136.562C40.033 135.062 38.8886 133.806 37.4605 132.954C36.0323 132.102 34.3842 131.69 32.723 131.772C31.1495 131.918 29.6466 132.495 28.3791 133.439C27.1116 134.382 26.1285 135.657 25.5374 137.123C23.3906 135.691 20.4974 135.101 18.257 136.656C17.2607 137.305 16.5426 138.303 16.2434 139.454C15.9442 140.605 16.0854 141.826 16.6394 142.878C16.6707 142.927 16.7194 142.962 16.7758 142.977C16.8322 142.992 16.892 142.984 16.9432 142.957C16.9945 142.929 17.0333 142.883 17.052 142.828C17.0707 142.773 17.0677 142.713 17.0438 142.659C16.5538 141.623 16.4948 140.435 16.8797 139.355C17.2646 138.275 18.062 137.392 19.097 136.899C20.1638 136.477 21.3282 136.364 22.4564 136.573C23.5846 136.782 24.6308 137.306 25.475 138.083C25.529 138.134 25.5952 138.171 25.6672 138.189C25.7393 138.208 25.815 138.208 25.8871 138.189C25.9591 138.17 26.0252 138.134 26.0791 138.082C26.133 138.031 26.1729 137.967 26.195 137.895C26.6918 136.41 27.6321 135.112 28.8893 134.177C30.1465 133.243 31.66 132.716 33.2258 132.668C34.7276 132.701 36.1877 133.168 37.4298 134.013C38.6719 134.858 39.6428 136.044 40.2254 137.429C40.2875 137.532 40.3879 137.606 40.5046 137.635C40.6213 137.665 40.7449 137.646 40.8482 137.585C41.5673 137.045 42.457 136.782 43.354 136.845C44.2511 136.908 45.0954 137.292 45.7322 137.927C47.039 139.296 47.3186 141.815 45.1406 142.437C42.2439 142.887 39.3261 143.188 36.3986 143.34C30.9026 143.713 25.3841 143.588 19.9106 142.967C19.3826 142.904 19.3826 143.713 19.9106 143.774C27.9898 144.672 36.1479 144.589 44.207 143.526C44.7511 143.531 45.2901 143.421 45.7881 143.202C46.2862 142.983 46.7318 142.66 47.0954 142.255Z" fill="white"/>
<path d="M9.28881 82.6649C15.2888 83.2457 34.8488 82.0565 44.162 81.9797C44.504 81.9797 44.504 81.4829 44.162 81.4205C36.8516 80.6429 17.3456 82.9805 8.042 81.4205C5.4284 80.9849 4.6196 79.4285 4.4324 78.5585C3.7796 75.7265 6.42441 72.5585 8.75241 71.3093C10.272 70.5774 11.9862 70.3517 13.6435 70.6653C15.3008 70.9788 16.814 71.8152 17.9612 73.0517C18.0371 73.1247 18.1348 73.1711 18.2394 73.1839C18.344 73.1967 18.4499 73.1751 18.5411 73.1224C18.6324 73.0697 18.7041 72.9888 18.7454 72.8919C18.7866 72.7949 18.7953 72.6872 18.77 72.5849C17.8988 67.4825 24.0584 65.0249 28.1648 64.9325C30.2665 64.8158 32.3368 65.4824 33.9756 66.8034C35.6144 68.1243 36.7054 70.0059 37.0376 72.0845C37.0671 72.1666 37.1184 72.2391 37.1861 72.2942C37.2537 72.3494 37.3351 72.385 37.4215 72.3974C37.5079 72.4097 37.596 72.3983 37.6763 72.3643C37.7567 72.3303 37.8263 72.275 37.8776 72.2045C39.62 68.7509 44.0072 69.5908 46.3088 71.8937C48.2372 73.8221 49.886 77.3993 48.5792 80.1065C48.362 80.5733 49.0148 80.9465 49.2644 80.5109C50.9756 77.2133 48.8288 72.7961 46.2464 70.6493C43.7576 68.5961 39.776 68.2229 37.6916 70.8041C36.416 66.1697 31.9316 63.5873 27.1448 64.0541C22.9448 64.4585 17.8436 66.9784 17.7188 71.5517C16.8081 70.826 15.7619 70.2893 14.6413 69.9727C13.5207 69.6562 12.3483 69.5663 11.1925 69.7082C10.0368 69.8501 8.9209 70.221 7.91017 70.7992C6.89944 71.3774 6.01413 72.1513 5.30601 73.0757C3.90681 74.8493 2.84841 77.3381 3.782 79.5461C4.7156 81.7313 7.08321 82.4501 9.28881 82.6649Z" fill="white"/>
<path d="M232.571 206.03C230.364 203.57 225.788 201.924 223.424 204.661C223.04 202.556 221.934 200.65 220.296 199.272C218.658 197.894 216.592 197.13 214.452 197.112C212.311 197.093 210.232 197.821 208.57 199.171C206.909 200.52 205.77 202.407 205.35 204.505C203.237 203.541 200.901 203.17 198.593 203.433C196.286 203.697 194.093 204.584 192.252 205.999C187.359 209.692 187.64 214.649 190.386 215.3C190.45 215.311 190.516 215.297 190.57 215.261C190.624 215.225 190.662 215.17 190.677 215.107C190.693 215.044 190.683 214.978 190.652 214.921C190.62 214.864 190.568 214.822 190.506 214.802C188.172 214.082 189.105 210.883 190.039 209.42C191.677 207 194.151 205.268 196.986 204.556C199.821 203.845 202.819 204.203 205.406 205.564C205.656 205.684 206.06 205.595 206.091 205.284C206.425 203.274 207.456 201.445 209.003 200.12C210.55 198.794 212.515 198.056 214.553 198.035C216.636 198.159 218.601 199.04 220.08 200.513C221.558 201.986 222.447 203.948 222.579 206.03C222.611 206.465 223.299 206.777 223.512 206.279C225.752 201.426 234.182 205.937 232.845 210.448C231.476 215.052 224.477 214.896 220.681 215.269C212.029 215.949 203.343 216.084 194.675 215.674C194.551 215.674 194.432 215.723 194.345 215.81C194.257 215.898 194.208 216.017 194.208 216.14C194.208 216.264 194.257 216.383 194.345 216.47C194.432 216.558 194.551 216.607 194.675 216.607C203.533 217.292 212.435 217.177 221.273 216.265C223.944 216.135 226.593 215.717 229.175 215.021C233.192 213.745 235.747 209.573 232.571 206.03Z" fill="white"/>
<path d="M150.909 69.6454C151.44 69.2335 152.04 68.9179 152.681 68.713C152.138 70.1739 152.009 71.7565 152.308 73.2862C152.37 73.6282 152.931 73.5346 152.899 73.1926C152.822 71.6073 153.054 70.0222 153.583 68.5258C155.209 68.5113 156.831 68.3761 158.436 68.1214C158.509 68.0988 158.571 68.051 158.611 67.9866C158.651 67.9222 158.667 67.8455 158.656 67.7704C158.645 67.6953 158.607 67.6267 158.549 67.5771C158.492 67.5274 158.419 67.5 158.343 67.4998C156.85 67.4686 153.925 67.6858 153.925 67.6858L154.113 67.219C154.145 67.1573 154.153 67.0853 154.135 67.018C154.116 66.9506 154.072 66.893 154.012 66.8571C153.952 66.8211 153.881 66.8097 153.813 66.825C153.744 66.8403 153.685 66.8813 153.646 66.9394C153.441 67.2113 153.263 67.5031 153.117 67.8106C152.146 68.0643 151.244 68.5316 150.477 69.1786C150.131 69.4594 150.57 69.901 150.909 69.6454Z" fill="white"/>
<path d="M155.605 64.2338C157.228 61.746 159.164 59.4771 161.365 57.4826C161.584 57.2954 161.303 56.9222 161.054 57.0782C158.606 58.9113 156.589 61.2578 155.143 63.953C155.118 64.0133 155.116 64.0806 155.136 64.1426C155.156 64.2046 155.198 64.2573 155.254 64.2911C155.31 64.325 155.376 64.3379 155.44 64.3274C155.505 64.3169 155.563 64.2837 155.605 64.2338Z" fill="white"/>
<path d="M163.943 55.0871C165.116 53.9377 166.472 52.9916 167.955 52.2875C167.706 54.1117 167.987 55.9691 168.764 57.6383C168.92 58.0115 169.542 57.7307 169.418 57.3575C168.716 55.5984 168.564 53.6678 168.983 51.8207C170.166 51.3222 171.382 50.9064 172.622 50.5763C172.964 50.4827 172.902 49.9223 172.529 49.9535C171.428 50.0539 170.349 50.3159 169.325 50.7311C169.394 50.5389 169.478 50.352 169.574 50.1719C169.618 50.0935 169.63 50.0009 169.606 49.9141C169.582 49.8274 169.526 49.7534 169.448 49.7083C169.37 49.6632 169.278 49.6505 169.19 49.673C169.103 49.6955 169.029 49.7515 168.983 49.8287C168.67 50.2431 168.427 50.7055 168.263 51.1979C166.493 52.053 164.899 53.2336 163.566 54.6779C163.539 54.7026 163.517 54.7324 163.502 54.7655C163.486 54.7987 163.478 54.8345 163.476 54.871C163.475 54.9075 163.481 54.9439 163.493 54.9782C163.506 55.0125 163.525 55.044 163.55 55.0709C163.574 55.0977 163.604 55.1195 163.637 55.1348C163.67 55.1502 163.706 55.1589 163.743 55.1604C163.779 55.1619 163.816 55.1562 163.85 55.1436C163.884 55.131 163.916 55.1118 163.943 55.0871Z" fill="white"/>
<path d="M172.965 59.9708C172.885 59.9716 172.808 60.0009 172.748 60.0534C172.688 60.1059 172.649 60.1782 172.638 60.2571C172.626 60.3359 172.644 60.4163 172.686 60.4835C172.729 60.5508 172.795 60.6005 172.871 60.6236C176.418 61.6196 179.808 58.0412 179.591 54.6236C179.56 54.2192 178.938 54.2192 178.968 54.6236C179.031 57.9176 176.014 59.9996 172.965 59.9708Z" fill="white"/>
<path d="M171.472 48.0559C172.928 45.1091 174.827 42.4022 177.102 40.0291C177.413 39.7183 176.946 39.2827 176.635 39.5623C174.034 41.7579 172.059 44.6019 170.911 47.8063C170.76 48.1495 171.286 48.3979 171.472 48.0559Z" fill="white"/>
<path d="M175.267 49.8914C175.213 49.9072 175.164 49.9388 175.127 49.9822C175.09 50.0256 175.067 50.0788 175.061 50.1353C175.054 50.1918 175.064 50.249 175.09 50.2997C175.115 50.3505 175.155 50.3925 175.205 50.4206C175.838 50.6153 176.436 50.9093 176.977 51.2918C177.431 51.7938 177.809 52.3599 178.098 52.9718C178.253 53.2202 178.72 53.2202 178.751 52.8782C179.03 51.2918 176.88 49.301 175.267 49.8914Z" fill="white"/>
<path d="M153.366 75.3081C153.246 75.0273 152.774 75.1881 152.806 75.4629C152.904 76.327 153.245 77.1455 153.791 77.823C154.336 78.5005 155.063 79.0092 155.886 79.2896C156.197 79.352 156.539 78.9477 156.228 78.6981C154.899 77.9473 153.883 76.7444 153.366 75.3081Z" fill="white"/>
<path d="M161.921 75.4635C161.598 76.8687 160.458 77.4243 159.281 78.0147C158.97 78.1707 159.161 78.5751 159.437 78.6063C161.054 78.7263 162.268 77.0463 162.578 75.6507C162.667 75.2151 162.02 75.0303 161.921 75.4635Z" fill="white"/>
<path d="M160.831 69.0235C161.327 69.3924 161.736 69.8642 162.031 70.4066C162.327 70.9489 162.501 71.5489 162.542 72.1651C162.548 72.2525 162.586 72.3346 162.65 72.3946C162.713 72.4546 162.797 72.488 162.885 72.488C162.972 72.488 163.057 72.4546 163.12 72.3946C163.184 72.3346 163.222 72.2525 163.228 72.1651C163.308 71.4079 163.151 70.6444 162.777 69.9809C162.404 69.3173 161.832 68.7868 161.143 68.4631C160.831 68.3395 160.589 68.7991 160.831 69.0235Z" fill="white"/>
<path d="M144.561 75.2777C145.139 74.4948 145.762 73.7467 146.427 73.0373C147.113 72.3173 147.953 71.7929 148.668 71.1401C148.979 70.8593 148.574 70.3625 148.232 70.5485C146.392 71.5239 144.934 73.0911 144.095 74.9969C143.97 75.2777 144.379 75.4985 144.561 75.2777Z" fill="white"/>
<path d="M141.48 80.7517C141.045 82.239 140.992 83.8117 141.325 85.3249C141.445 85.8229 142.072 85.6369 142.134 85.2049C142.176 84.4681 142.155 83.7291 142.072 82.9957C142.056 82.2685 142.087 81.541 142.165 80.8177C142.229 80.4409 141.577 80.3485 141.48 80.7517Z" fill="white"/>
<path d="M143.04 95.9655C142.578 93.6986 142.286 91.4001 142.169 89.0895C142.164 89.0022 142.125 88.9201 142.061 88.8601C141.998 88.8 141.914 88.7666 141.826 88.7666C141.739 88.7666 141.654 88.8 141.591 88.8601C141.527 88.9201 141.489 89.0022 141.483 89.0895C141.263 91.4764 141.549 93.883 142.323 96.1515C142.348 96.2465 142.41 96.3278 142.494 96.3776C142.579 96.4273 142.68 96.4414 142.775 96.4167C142.87 96.3921 142.951 96.3307 143.001 96.2461C143.05 96.1614 143.065 96.0605 143.04 95.9655Z" fill="white"/>
<path d="M95.0977 151.93C94.6558 152.629 94.4422 153.447 94.4867 154.272C94.5312 155.097 94.8316 155.888 95.3461 156.535C95.5333 156.752 95.8441 156.472 95.7505 156.223C95.4072 155.589 95.2045 154.889 95.1563 154.17C95.108 153.45 95.2153 152.729 95.4709 152.055C95.5021 151.868 95.1913 151.743 95.0977 151.93Z" fill="white"/>
<path d="M101.009 154.109C100.845 154.965 100.354 155.724 99.6398 156.223C99.2998 156.547 98.8902 156.788 98.4425 156.928C97.9949 157.068 97.521 157.104 97.0574 157.032C96.7466 156.94 96.653 157.407 96.9374 157.499C98.9774 158.219 102.125 155.55 101.573 154.078C101.545 154.025 101.503 153.982 101.451 153.952C101.399 153.923 101.34 153.909 101.281 153.913C101.222 153.916 101.164 153.936 101.116 153.971C101.068 154.006 101.031 154.054 101.009 154.109Z" fill="white"/>
<path d="M93.0442 147.824C89.9614 147.123 86.293 148.975 85.8262 152.335C85.795 152.677 86.2618 152.833 86.3554 152.489C86.7371 151.098 87.6166 149.896 88.8267 149.11C90.0367 148.324 91.4932 148.011 92.9194 148.228C93.199 148.259 93.3238 147.887 93.0442 147.824Z" fill="white"/>
<path d="M84.6134 156.877C84.5302 158.581 84.8245 160.282 85.4752 161.859C86.126 163.435 87.1172 164.848 88.3778 165.997C88.4233 166.043 88.485 166.068 88.5492 166.068C88.6135 166.068 88.675 166.042 88.7204 165.997C88.7658 165.951 88.7912 165.89 88.791 165.825C88.7909 165.761 88.7653 165.7 88.7198 165.654C86.5216 163.252 85.2627 160.137 85.1738 156.882C85.1698 156.811 85.1388 156.744 85.0872 156.695C85.0356 156.646 84.9672 156.618 84.8958 156.617C84.8245 156.617 84.7556 156.643 84.7032 156.691C84.6507 156.74 84.6186 156.806 84.6134 156.877Z" fill="white"/>
<path d="M103.342 146.673C101.913 146.883 100.551 147.416 99.3602 148.233C98.5031 147.568 97.4194 147.266 96.3422 147.393C96.0938 147.455 96.1238 147.797 96.3422 147.891C97.1383 148.104 97.9179 148.374 98.675 148.699C98.0532 149.135 97.4702 149.625 96.9326 150.161C96.6842 150.379 97.0526 150.721 97.2758 150.503C97.8797 149.962 98.5361 149.483 99.2354 149.073C99.7418 149.478 100.16 149.981 100.465 150.554C100.77 151.126 100.955 151.754 101.009 152.4C101.013 152.455 101.038 152.507 101.078 152.544C101.119 152.582 101.172 152.602 101.227 152.602C101.282 152.602 101.335 152.582 101.375 152.544C101.416 152.507 101.441 152.455 101.445 152.4C101.463 151.708 101.334 151.019 101.065 150.381C100.796 149.742 100.393 149.169 99.8846 148.698C101.014 148.123 102.176 147.614 103.365 147.174C103.653 147.078 103.653 146.64 103.342 146.673Z" fill="white"/>
<path d="M111.492 140.7C110.939 141.367 110.347 142.001 109.72 142.598C108.984 143.164 108.215 143.685 107.417 144.158C107.362 144.194 107.321 144.248 107.303 144.31C107.284 144.373 107.288 144.44 107.314 144.5C107.341 144.56 107.387 144.608 107.446 144.637C107.505 144.665 107.572 144.672 107.635 144.655C109.49 144.062 111.048 142.782 111.99 141.078C112.115 140.76 111.745 140.424 111.492 140.7Z" fill="white"/>
<path d="M114.106 132.923C114.249 134.541 114.058 136.172 113.545 137.713C113.452 137.994 113.887 138.118 113.981 137.833C114.681 136.272 114.866 134.529 114.51 132.856C114.48 132.612 114.106 132.673 114.106 132.923Z" fill="white"/>
<path d="M104.617 119.826C104.596 119.768 104.556 119.719 104.504 119.687C104.451 119.654 104.39 119.64 104.328 119.647C104.267 119.654 104.21 119.682 104.166 119.726C104.123 119.769 104.095 119.826 104.088 119.888C104.166 120.899 104.487 121.877 105.024 122.738C105.56 123.599 106.295 124.318 107.168 124.835C107.221 124.859 107.281 124.862 107.337 124.845C107.392 124.827 107.439 124.79 107.47 124.741C107.5 124.691 107.511 124.633 107.502 124.575C107.492 124.518 107.462 124.466 107.417 124.43C105.958 123.284 104.964 121.649 104.617 119.826Z" fill="white"/>
<path d="M103.995 117.99C103.996 118.043 104.016 118.093 104.051 118.133C104.086 118.172 104.134 118.198 104.186 118.205C104.238 118.212 104.291 118.201 104.336 118.173C104.381 118.145 104.414 118.103 104.43 118.052C104.826 116.117 105.53 114.258 106.515 112.546C106.635 112.328 106.329 112.049 106.141 112.266C104.768 113.858 104.007 115.888 103.995 117.99Z" fill="white"/>
<path d="M108.163 111.582C110.403 110.586 112.425 111.115 114.51 112.172C114.758 112.292 115.008 111.986 114.789 111.799C113.836 111.022 112.672 110.547 111.447 110.436C110.222 110.325 108.992 110.584 107.915 111.178C107.64 111.301 107.88 111.706 108.163 111.582Z" fill="white"/>
<path d="M111.555 118.363C111.243 118.337 111.213 118.799 111.492 118.861C114.199 119.701 116.345 116.964 115.723 114.444C115.661 114.163 115.257 114.288 115.319 114.564C115.417 115.081 115.387 115.614 115.233 116.117C115.079 116.62 114.805 117.078 114.434 117.452C114.064 117.825 113.609 118.104 113.107 118.262C112.605 118.421 112.073 118.456 111.555 118.363Z" fill="white"/>
<path d="M109.47 117.896C109.52 117.917 109.575 117.921 109.627 117.907C109.679 117.893 109.724 117.862 109.757 117.819C109.789 117.776 109.806 117.724 109.804 117.67C109.803 117.616 109.784 117.565 109.75 117.523C108.422 116.481 107.48 115.024 107.075 113.385C107.013 113.168 106.608 113.199 106.639 113.448C106.753 114.352 107.066 115.221 107.555 115.99C108.045 116.759 108.699 117.41 109.47 117.896Z" fill="white"/>
<path d="M106.235 109.996C106.305 108.199 106.242 106.401 106.048 104.614C106.048 104.535 106.017 104.46 105.961 104.405C105.906 104.349 105.831 104.318 105.752 104.318C105.674 104.318 105.599 104.349 105.544 104.405C105.488 104.46 105.457 104.535 105.457 104.614C105.421 106.41 105.494 108.208 105.674 109.996C105.737 110.338 106.231 110.369 106.235 109.996Z" fill="white"/>
<path d="M108.039 95.3997C107.024 96.7033 106.359 98.2457 106.11 99.8793C106.097 99.9288 106.105 99.9812 106.131 100.025C106.158 100.069 106.2 100.1 106.25 100.113C106.299 100.125 106.351 100.117 106.395 100.091C106.439 100.065 106.471 100.022 106.483 99.9729C106.963 98.4785 107.621 97.0474 108.444 95.7105C108.476 95.6565 108.487 95.5926 108.475 95.5308C108.464 95.469 108.43 95.4138 108.38 95.3755C108.33 95.3371 108.268 95.3184 108.205 95.3229C108.142 95.3274 108.083 95.3547 108.039 95.3997Z" fill="white"/>
<path d="M116.065 91.982C116.409 92.0084 116.439 91.484 116.159 91.3916C115.12 91.1512 114.035 91.1979 113.021 91.5265C112.007 91.8552 111.101 92.4536 110.4 93.2576C110.213 93.476 110.494 93.7868 110.711 93.5684C111.429 92.9223 112.283 92.4446 113.209 92.1701C114.135 91.8957 115.111 91.8314 116.065 91.982Z" fill="white"/>
<path d="M112.021 192.96C110.435 191.094 112.115 189.787 114.168 188.388C118.306 185.524 121.696 182.133 122.598 182.041C124.247 181.885 125.585 183.16 127.203 182.818C129.1 182.414 134.855 177.001 136.629 177.156C138.402 177.31 144.069 183.996 146.086 187.516C148.103 191.037 145.806 191.934 143.349 194.08C138.497 198.098 133.429 201.847 128.167 205.31C126.519 206.4 125.274 207.457 123.376 206.4C122.287 205.812 112.551 193.586 112.021 192.96Z" fill="#D1D0D6"/>
<path d="M199.906 157.997C196.847 156.576 193.479 155.949 190.114 156.171C186.748 156.394 183.493 157.461 180.648 159.272C179.319 154.897 176.59 151.078 172.881 148.403C169.172 145.728 164.688 144.345 160.116 144.464C160.272 142.007 160.427 139.544 160.552 137.091C165.948 138.219 171.4 139.061 176.885 139.612C178.519 139.89 180.175 140.015 181.831 139.985C181.457 144.558 181.177 149.131 180.929 153.703C180.898 154.326 181.863 154.326 181.889 153.703C182.71 134.099 185.077 117.794 186.027 109.529C186.245 109.59 186.431 109.621 186.649 109.684C188.229 110.175 189.84 110.56 191.471 110.834C191.689 110.834 191.782 110.586 191.782 110.524C192.682 106.031 193.336 101.493 193.743 96.9287C193.743 96.3995 193.462 96.3995 193.399 96.3695C184.15 93.6887 178.295 90.9323 173.615 90.1163C173.532 90.0968 173.445 90.1044 173.367 90.1378C173.288 90.1713 173.223 90.2289 173.179 90.3023C173.148 90.3335 172.713 92.6663 172.588 93.7823C169.599 94.4068 166.657 95.2384 163.783 96.2711C163.685 96.3043 163.604 96.3739 163.555 96.4655C163.507 96.5571 163.496 96.6638 163.524 96.7635C163.552 96.8633 163.617 96.9484 163.706 97.0015C163.795 97.0546 163.901 97.0715 164.002 97.0487C166.833 96.2711 169.695 95.5859 172.494 94.7771C172.319 96.7127 171.855 100.836 171.592 102.898C171.561 102.898 165.712 103.582 163.006 104.234C162.92 104.257 162.845 104.31 162.795 104.384C162.745 104.458 162.724 104.547 162.736 104.635C162.747 104.724 162.791 104.805 162.857 104.864C162.924 104.922 163.01 104.954 163.099 104.954C165.924 104.773 168.731 104.388 171.499 103.802C171.437 104.425 171.379 105.047 171.281 105.67C171.114 106.836 171.779 106.142 185.28 109.34C185.249 109.46 185.249 109.589 185.218 109.714C177.992 107.801 170.672 106.264 163.287 105.109C162.943 105.078 162.881 105.607 163.193 105.701C166.801 106.603 170.503 107.194 174.143 108.002C177.783 108.811 181.392 109.776 185.032 110.554C185.167 110.554 184.488 112.765 183.321 124.056C182.345 123.658 163.392 120.623 161.513 120.54C162.105 111.02 163.535 86.7239 163.691 84.2351C163.721 83.6123 154.699 86.5679 150.811 88.1243C150.973 84.8273 150.933 81.5236 150.691 78.2315C150.691 78.1201 150.647 78.0133 150.568 77.9345C150.49 77.8558 150.383 77.8115 150.271 77.8115C150.16 77.8115 150.053 77.8558 149.974 77.9345C149.896 78.0133 149.851 78.1201 149.851 78.2315C149.572 83.3327 149.789 88.4975 149.665 93.5987C149.603 96.1499 149.353 98.7587 149.509 101.315C142.541 101.435 108.383 101.719 104.65 101.874C104.028 92.7803 104.091 81.8423 103.156 78.9779C103.142 78.9299 103.111 78.8887 103.068 78.8619C103.026 78.835 102.976 78.8244 102.926 78.8321C102.877 78.8397 102.832 78.865 102.8 78.9033C102.768 78.9416 102.75 78.9903 102.751 79.0403C102.783 83.0843 103.249 91.9811 103.281 92.4167C98.7799 90.2342 94.1579 88.311 89.4374 86.6567C89.3693 86.6389 89.298 86.6366 89.2289 86.6499C89.1598 86.6632 89.0945 86.6917 89.0378 86.7335C88.9811 86.7752 88.9344 86.8291 88.9012 86.8912C88.868 86.9533 88.8491 87.022 88.8458 87.0923C88.877 93.6923 89.219 100.252 89.5922 106.816C85.859 107.812 82.1522 108.869 78.3614 109.615C76.4954 109.988 68.6246 111.109 66.7274 111.668C66.5714 109.46 66.4778 107.251 66.2918 105.068C66.0734 102.518 65.6066 97.0115 65.6378 96.9491C66.7358 96.2171 84.3026 89.5655 88.3178 87.4295C88.4093 87.3858 88.4804 87.3082 88.516 87.2132C88.5516 87.1182 88.549 87.0131 88.5088 86.92C88.4686 86.8268 88.3939 86.7529 88.3003 86.7137C88.2068 86.6744 88.1016 86.6729 88.007 86.7095C84.527 87.8603 81.167 89.5715 77.807 90.9407C74.6642 92.2163 71.4914 93.4907 68.3498 94.7975C67.4786 95.1395 65.0834 95.6687 64.7414 96.6335C64.5542 97.1627 65.8922 110.539 66.3278 114.274C63.6878 114.772 61.0382 115.27 58.4258 115.891C58.3634 115.891 58.0214 115.985 58.0838 116.296C58.7125 121.291 59.0447 126.319 59.0786 131.353C59.0811 131.421 59.0984 131.487 59.1293 131.547C59.1601 131.607 59.2038 131.66 59.2572 131.702C59.3106 131.743 59.3725 131.772 59.4385 131.787C59.5044 131.803 59.5729 131.803 59.639 131.789C66.3278 130.699 73.079 130.14 79.829 129.548C79.9582 129.54 80.0799 129.484 80.1715 129.393C80.263 129.301 80.3183 129.18 80.327 129.05C80.327 128.429 80.327 127.776 80.3582 127.153C80.3894 127.184 90.4382 127.495 90.8726 126.562C90.9058 126.503 90.9207 126.437 90.9151 126.37C90.9095 126.303 90.8838 126.24 90.8414 126.188C90.4682 125.753 89.7218 126.002 89.1926 126.034C88.1354 126.095 80.3894 126.438 80.3582 126.468C80.3894 123.762 80.3894 121.18 80.2958 118.505C82.1618 118.536 90.3434 118.163 90.3434 118.163C91.0838 128.282 90.9374 128.177 91.091 130.015C91.0286 130.015 83.375 130.918 79.7354 131.166C73.4774 131.6 72.0434 131.7 68.039 132.224C68.039 132.224 67.9766 131.881 67.9454 131.726C67.883 131.414 67.3538 131.477 67.385 131.789C67.6034 135.739 68.1626 139.66 68.4122 143.61C68.6618 147.56 68.5982 151.543 68.7854 155.49C68.7854 155.601 68.8297 155.708 68.9084 155.787C68.9872 155.866 69.094 155.91 69.2054 155.91C69.3168 155.91 69.4236 155.866 69.5024 155.787C69.5812 155.708 69.6254 155.601 69.6254 155.49C69.7178 153.282 69.6566 151.042 69.563 148.801C72.8584 149.202 76.196 149.086 79.4558 148.459C80.0462 148.339 79.7978 147.402 79.2062 147.527C76.0022 148.18 72.7358 147.713 69.5318 148.117C69.3421 143.001 68.8843 137.898 68.1602 132.829C72.4226 132.456 86.3594 131.336 91.1498 130.901C91.337 134.758 91.5542 138.647 91.9286 142.474C90.9958 142.566 90.0705 142.722 89.159 142.94C81.2882 144.869 75.9062 152.366 73.667 159.801C62.3114 155.721 47.9702 158.153 42.5258 170.068C37.3658 181.429 44.627 192.12 56.4638 195.235C68.3438 198.377 81.8486 194.275 81.8486 194.275C81.8486 194.275 88.2266 197.231 91.835 197.697C95.2821 198.149 98.7712 198.18 102.226 197.791C104.822 197.66 107.372 197.059 109.753 196.018C110.003 195.861 109.909 195.395 109.599 195.426C106.338 195.779 101.883 197.415 93.6074 196.733C87.8834 196.266 81.6314 194.555 78.053 189.702C77.8982 189.485 77.5238 189.671 77.6798 189.92C78.5548 191.392 79.7064 192.681 81.071 193.715C69.2798 195.675 54.659 197.76 45.791 187.649C37.7654 178.503 43.3334 164.876 53.8178 160.615C60.2258 158.001 67.5062 158.562 73.883 160.988C74.0191 161.023 74.1633 161.003 74.2853 160.934C74.4073 160.864 74.4975 160.75 74.537 160.615C76.559 153.553 81.4742 146.149 88.9094 144.096C96.251 142.074 105.864 144.313 109.846 151.344C109.895 151.423 109.965 151.487 110.05 151.527C110.134 151.567 110.228 151.581 110.321 151.569C110.413 151.556 110.5 151.517 110.57 151.455C110.641 151.394 110.692 151.314 110.717 151.224C111.421 147 113.556 143.145 116.762 140.306C119.969 137.468 124.053 135.817 128.332 135.63C132.611 135.443 136.824 136.731 140.266 139.279C143.708 141.828 146.17 145.481 147.24 149.628C147.267 149.714 147.316 149.792 147.381 149.854C147.447 149.916 147.528 149.96 147.615 149.982C147.703 150.004 147.794 150.003 147.882 149.979C147.969 149.955 148.048 149.91 148.113 149.846C150.79 147.705 153.971 146.284 157.352 145.717C160.733 145.15 164.203 145.456 167.433 146.606C170.412 147.76 173.078 149.597 175.218 151.969C177.358 154.341 178.911 157.182 179.753 160.263C179.776 160.348 179.818 160.427 179.876 160.493C179.934 160.559 180.007 160.61 180.088 160.643C180.169 160.676 180.257 160.69 180.345 160.684C180.433 160.677 180.517 160.65 180.593 160.605C190.497 153.367 206.345 157.926 208.902 171.182C209.491 174.118 209.37 177.152 208.547 180.032C207.724 182.911 206.224 185.551 204.173 187.733C198.947 192.99 191.045 194.333 183.952 194.515C176.237 194.701 169.206 192.773 162.082 190.128C163.476 189.097 166.477 186.697 167.215 185.027C167.335 184.746 167.059 184.373 166.749 184.56C164.993 185.695 164.166 187.866 159.909 190.32C156.175 192.498 152.163 192.995 147.931 193.088C147.433 193.088 147.465 193.808 147.931 193.866C152.1 194.333 157.291 192.871 161.091 190.787C167.915 193.961 175.34 195.639 182.867 195.707C190.365 195.675 198.64 194.4 204.395 189.173C213.532 180.943 212.451 163.76 199.906 157.997ZM181.863 107.76C178.75 107.084 175.453 105.986 172.249 105.863C172.281 105.8 172.747 100.667 172.996 98.1467C173.213 95.7827 173.556 93.4187 173.587 91.0223C176.729 92.2979 180.027 93.2003 183.231 94.3199C186.435 95.4395 189.671 96.4979 192.937 97.4627C192.217 101.569 191.785 105.743 191.039 109.844C189.826 109.217 183.6 108.133 181.863 107.76ZM161.52 121.225C163.54 121.813 182.355 124.835 183.265 124.772C183.379 124.772 182.529 131.789 181.927 139.082C180.203 138.661 180.259 139.06 171.786 138.086C168.022 137.651 164.289 137.029 160.555 136.469C161.032 129.689 161.268 125.696 161.52 121.225ZM79.3874 128.568C72.917 129.096 66.4142 129.719 60.0062 130.776C60.0741 126.034 59.7204 121.295 58.949 116.616C61.499 116.026 75.0626 113.376 78.989 112.199C79.4019 117.645 79.5349 123.108 79.3874 128.568ZM85.7342 117.586C83.9342 117.622 82.1246 117.648 80.2898 117.804C80.2274 115.751 80.0714 113.696 79.8542 111.643C79.8538 111.572 79.8367 111.502 79.8043 111.438C79.7719 111.374 79.7251 111.319 79.6676 111.277C79.6101 111.235 79.5436 111.207 79.4732 111.195C79.4029 111.183 79.3308 111.188 79.2626 111.209C75.254 112.436 71.1703 113.402 67.037 114.102C67.0058 113.479 66.917 112.888 66.8498 112.235C74.592 111.422 82.245 109.912 89.7158 107.724C89.8358 109.777 90.245 116.244 90.3374 117.461C88.8036 117.317 87.258 117.359 85.7342 117.586ZM147.766 147.855C146.366 143.834 143.696 140.376 140.159 138.004C136.622 135.633 132.409 134.476 128.157 134.707C123.905 134.939 119.843 136.547 116.585 139.289C113.326 142.031 111.048 145.759 110.093 149.909C109.234 148.646 108.196 147.514 107.013 146.549C106.546 140.731 106.079 134.945 105.612 129.127C107.728 129.065 109.781 129.035 111.897 129.096C112.211 129.541 112.472 130.022 112.674 130.528C112.794 130.807 113.266 130.714 113.141 130.408C112.97 129.941 112.773 129.484 112.551 129.04C113.391 129.07 141.793 128.354 148.637 128.106C148.357 134.603 148.08 141.415 147.766 147.855ZM152.433 127.447C144.251 127.945 112.924 128.381 112.113 128.35C111.398 127.251 110.368 126.394 109.157 125.892C108.846 125.772 108.69 126.234 108.939 126.39C109.762 126.938 110.524 127.574 111.21 128.287C108.69 128.194 103.121 128.506 102.81 128.506C102.375 120.914 101.286 103.555 101.224 102.586C101.753 102.554 148.977 101.995 152.928 102.212C152.775 110.617 152.62 119.048 152.433 127.447Z" fill="white"/>
<path d="M91.4578 168.077C91.4029 168.03 91.3324 168.005 91.2602 168.008C91.188 168.011 91.1195 168.041 91.0684 168.092C91.0173 168.143 90.9874 168.211 90.9846 168.284C90.9818 168.356 91.0064 168.426 91.0534 168.481C92.7179 170.221 94.7321 171.589 96.9634 172.494C97.3066 172.614 97.5238 172.09 97.213 171.904C95.1713 170.824 93.2432 169.542 91.4578 168.077Z" fill="white"/>
<path d="M99.5149 173.24C99.453 173.224 99.3873 173.233 99.3322 173.266C99.2772 173.298 99.2374 173.352 99.2215 173.413C99.2055 173.475 99.2149 173.541 99.2474 173.596C99.2799 173.651 99.333 173.691 99.3949 173.707C101.821 174.578 104.092 175.76 106.426 176.848C106.504 176.894 106.597 176.906 106.684 176.883C106.772 176.86 106.847 176.802 106.892 176.724C106.937 176.646 106.95 176.553 106.926 176.465C106.903 176.378 106.846 176.303 106.768 176.258C104.566 174.795 102.104 173.771 99.5149 173.24Z" fill="white"/>
<path d="M109.595 178.653C109.525 178.617 109.443 178.608 109.367 178.63C109.292 178.652 109.227 178.702 109.187 178.77C109.147 178.838 109.135 178.919 109.153 178.996C109.171 179.073 109.218 179.139 109.284 179.183C111.243 180.606 112.947 182.351 114.324 184.343C114.605 184.685 115.009 184.25 114.884 183.907C113.721 181.64 111.869 179.801 109.595 178.653Z" fill="white"/>
</svg>
