<svg width="212" height="190" viewBox="0 0 212 190" fill="none" xmlns="http://www.w3.org/2000/svg">
<path d="M158.344 59.9188C158.986 47.8681 168.653 38.1993 180.653 38.1717C192.878 38.1399 203.177 48.2655 203.177 61.3311L203.146 62.6544C208.967 65.4345 211.86 72.5998 209.001 79.0934C210 79.8762 210.722 80.9345 211.069 82.124C211.416 83.3135 211.371 84.5764 210.94 85.7404C210.508 86.9045 209.712 87.913 208.659 88.6286C207.606 89.3442 206.348 89.732 205.056 89.7391C186.378 89.6798 168.912 84.5148 150.58 84.323C150.416 84.32 150.259 84.2553 150.144 84.143C150.028 84.0307 149.964 83.8796 149.964 83.7223C149.963 83.6446 149.979 83.5675 150.009 83.4955C150.04 83.4236 150.085 83.3582 150.143 83.3031C150.2 83.248 150.268 83.2043 150.343 83.1746C150.418 83.1449 150.499 83.1297 150.58 83.13C168.887 83.2498 187.06 88.1954 205.056 88.1372C205.653 88.1361 206.243 88.0217 206.793 87.8007C207.343 87.5797 207.842 87.2565 208.26 86.8499C208.742 86.3844 209.109 85.8212 209.332 85.202C209.555 84.5828 209.629 83.9235 209.549 83.2731C209.47 82.6227 209.237 81.9978 208.87 81.4448C208.503 80.8918 208.011 80.4249 207.429 80.0787C207.242 79.9696 207.104 79.7984 207.042 79.5979C206.979 79.3974 206.996 79.1818 207.09 78.9927C209.972 73.8139 207.831 66.4007 201.851 63.984C201.676 63.9157 201.528 63.7958 201.428 63.6418C201.328 63.4877 201.283 63.3075 201.297 63.1269L201.389 61.3311C201.389 49.3811 191.983 39.8828 180.653 39.8521C170.043 39.8245 160.561 48.0822 159.762 60.5364C159.755 60.7024 159.685 60.8604 159.567 60.9816C159.448 61.1028 159.287 61.1791 159.114 61.1965C150.912 62.0674 147.122 71.8973 151.627 78.3009C151.705 78.4252 151.73 78.5739 151.696 78.7154C151.661 78.8569 151.571 78.98 151.443 79.0584C151.381 79.0985 151.312 79.1263 151.24 79.1402C151.167 79.154 151.092 79.1536 151.019 79.1389C150.947 79.1243 150.878 79.0957 150.818 79.0549C150.757 79.0141 150.706 78.9619 150.667 78.9016C145.671 71.8242 149.593 61.4222 158.344 59.9188Z" fill="#180B02"/>
<path d="M145 100.98C144.969 97.5016 144.784 85.0028 144.722 80.1143C144.721 79.5059 144.556 78.9079 144.243 78.3781C143.93 77.8483 143.48 77.4045 142.935 77.0895C140.347 75.5649 135.817 72.9003 135.817 72.9003C135.817 72.9003 127.776 69.0109 100.347 68.7386C72.9541 68.4652 64.45 73.1418 64.45 73.1418C64.45 73.1418 59.6436 75.7376 56.8392 77.2399C56.2588 77.5609 55.7767 78.0219 55.4413 78.577C55.1059 79.132 54.929 79.7615 54.9282 80.4025C54.9604 85.4118 55.0524 97.8343 55.0823 101.531C55.0892 102.038 55.2081 102.538 55.4312 102.998C55.6543 103.459 55.9766 103.869 56.377 104.202C65.8233 112.004 104.817 111.26 117.368 110.338C117.389 109.742 117.424 109.104 117.449 108.416L122.244 108.265C122.31 108.808 122.431 109.344 122.607 109.865C136.934 108.303 142.116 105.334 143.977 103.498C144.314 103.164 144.578 102.77 144.753 102.337C144.929 101.905 145.013 101.444 145 100.98ZM65.9519 76.4411C66.2457 75.496 66.5062 77.3766 79.7557 78.7232C93.3554 79.9473 107.046 79.9444 120.645 78.7147C133.798 77.4041 134.125 75.585 134.418 76.4411C134.439 76.4823 134.451 76.5273 134.453 76.5732C134.455 76.6191 134.447 76.6649 134.43 76.7078C134.412 76.7506 134.386 76.7896 134.352 76.8223C134.319 76.855 134.278 76.8807 134.233 76.8977C129.88 78.344 125.358 79.2755 120.768 79.6714C107.097 81.1109 93.303 81.1109 79.6326 79.6714C75.0448 79.2893 70.5231 78.3724 66.1681 76.9411C66.1178 76.924 66.0719 76.897 66.0332 76.8618C65.9946 76.8267 65.9641 76.7842 65.9437 76.737C65.9234 76.6899 65.9136 76.6392 65.915 76.5882C65.9164 76.5372 65.929 76.4871 65.9519 76.4411ZM142.616 81.4207C136.519 85.0399 122.744 86.6725 115.592 87.2478C106.173 87.9506 96.7131 88.0129 87.2844 87.4343C79.3555 86.9353 65.2724 85.4594 58.217 81.9366C58.1264 81.8868 58.0596 81.8052 58.0308 81.7092C58.0021 81.6131 58.0135 81.5101 58.0628 81.422C58.112 81.3339 58.1953 81.2675 58.2948 81.237C58.3944 81.2065 58.5024 81.2142 58.5961 81.2586C65.5496 84.6256 79.5295 85.9203 87.3221 86.3748C96.7016 86.8984 106.107 86.8301 115.477 86.1703C141.304 84.2739 141.969 79.8622 142.727 80.9428C142.775 81.0215 142.79 81.1146 142.769 81.2035C142.749 81.2925 142.694 81.3707 142.616 81.4228V81.4207Z" fill="#F07D29"/>
<path d="M144.999 179.368C144.937 175.377 144.814 165.031 144.752 160.024C144.737 159.165 144.495 158.323 144.048 157.577C143.601 156.831 142.963 156.206 142.195 155.76C135.131 151.591 135.912 151.967 134.584 151.546C118.186 155.821 81.4251 155.563 65.595 151.747C64.7083 152.076 65.1605 151.836 57.6451 155.91C56.8182 156.355 56.1307 157.002 55.6538 157.786C55.1768 158.57 54.9279 159.462 54.9327 160.368C54.9648 165.473 55.0568 175.722 55.0868 179.875C55.0878 180.709 55.3051 181.529 55.7193 182.263C56.1335 182.997 56.7315 183.621 57.46 184.08C61.466 186.537 72.0652 190 100.228 190C128.729 190 139.113 186.163 142.873 183.5C143.543 183.021 144.085 182.396 144.455 181.678C144.824 180.96 145.011 180.169 144.999 179.368ZM65.9509 155.538C66.2446 154.593 66.5051 156.475 79.7546 157.821C93.3544 159.046 107.045 159.043 120.644 157.812C133.797 156.502 134.124 154.683 134.416 155.538C134.438 155.58 134.45 155.625 134.452 155.67C134.454 155.716 134.446 155.762 134.429 155.805C134.412 155.848 134.385 155.887 134.352 155.92C134.318 155.952 134.277 155.978 134.232 155.995C129.879 157.442 125.357 158.374 120.767 158.77C107.096 160.208 93.302 160.208 79.6315 158.77C75.0438 158.387 70.5221 157.47 66.167 156.039C66.1167 156.022 66.0708 155.995 66.0321 155.96C65.9935 155.925 65.963 155.882 65.9426 155.835C65.9222 155.787 65.9124 155.737 65.9139 155.686C65.9153 155.635 65.9279 155.584 65.9509 155.538ZM142.615 160.518C136.527 164.13 122.794 165.766 115.591 166.345C106.172 167.048 96.712 167.11 87.2833 166.532C79.3622 166.034 65.2714 164.557 58.216 161.035C58.1287 160.983 58.0653 160.902 58.0386 160.807C58.0119 160.713 58.0239 160.612 58.0721 160.525C58.1204 160.439 58.2014 160.373 58.2985 160.342C58.3956 160.31 58.5017 160.315 58.5951 160.356C65.5474 163.722 79.524 165.018 87.321 165.472C96.7005 165.996 106.106 165.928 115.476 165.268C141.303 163.372 141.968 158.959 142.726 160.04C142.773 160.119 142.788 160.211 142.768 160.3C142.747 160.389 142.693 160.466 142.615 160.518Z" fill="#F07D29"/>
<path d="M18.6061 160.219C19.4896 157.326 21.3239 154.782 23.8376 152.963C26.3514 151.144 29.4111 150.146 32.5639 150.118C36.177 150.196 39.6352 151.535 42.2862 153.883C44.9372 156.23 46.5976 159.424 46.9541 162.862C48.8662 164.132 50.2723 165.984 50.9437 168.115C51.6151 170.247 51.5122 172.532 50.6519 174.601L51.0521 174.586C51.2171 174.578 51.3787 174.633 51.5013 174.739C51.6238 174.845 51.6973 174.993 51.7055 175.151C51.7137 175.309 51.6561 175.463 51.5452 175.581C51.4343 175.698 51.2792 175.768 51.1142 175.776L49.6964 175.846C49.5838 175.856 49.4704 175.836 49.3682 175.79C49.2661 175.744 49.1789 175.672 49.1158 175.582C49.0527 175.492 49.0161 175.388 49.0099 175.28C49.0036 175.172 49.0279 175.064 49.0801 174.968C50.0862 173.065 50.3186 170.873 49.7325 168.815C49.1464 166.757 47.7833 164.98 45.9066 163.827C45.8143 163.774 45.7376 163.699 45.6837 163.61C45.6298 163.521 45.6005 163.42 45.5984 163.317C44.4556 153.252 32.7036 148.078 24.5841 154.471C22.3515 156.264 20.7754 158.692 20.0848 161.401C20.0561 161.509 20.0054 161.61 19.9357 161.699C19.8659 161.788 19.7785 161.864 19.6783 161.92C19.5782 161.977 19.4672 162.015 19.3519 162.031C19.2366 162.047 19.1192 162.041 19.0063 162.013C10.8735 160.176 4.55521 169.134 8.9924 176.288C9.07553 176.414 9.12278 176.559 9.12947 176.708C9.13616 176.857 9.10207 177.005 9.03055 177.138C8.95904 177.27 8.85258 177.383 8.72167 177.464C8.59077 177.545 8.43995 177.593 8.28409 177.601L5.97293 177.687C5.04089 177.722 4.15866 178.099 3.50881 178.738C3.01829 179.192 2.68232 179.776 2.54482 180.415C2.40732 181.054 2.47469 181.717 2.73813 182.319C3.00157 182.921 3.44881 183.432 4.02139 183.787C4.59397 184.142 5.26524 184.324 5.94744 184.308C14.6666 183.976 49.5479 182.452 51.9821 182.352C52.1346 182.349 52.2827 182.401 52.3969 182.497C52.5112 182.594 52.5831 182.728 52.5984 182.873C52.5996 183.018 52.5429 183.158 52.4398 183.264C52.3368 183.37 52.1953 183.435 52.0442 183.444C43.8415 183.84 8.56675 185.881 6.04277 185.992C5.00437 186.025 3.9798 185.758 3.10236 185.226C2.22491 184.694 1.53522 183.923 1.12301 183.011C0.710808 182.099 0.595176 181.09 0.791161 180.115C0.987146 179.14 1.48567 178.244 2.22188 177.543C3.1915 176.575 4.51723 176.005 5.91862 175.954L6.78212 175.925C3.16962 168.396 9.16421 158.956 18.6061 160.219Z" fill="#180B02"/>
<path d="M150.175 133.607C150.456 133.194 150.787 132.814 151.161 132.476C152.502 131.268 154.177 130.858 155.505 132.096C156.608 133.436 157.225 135.082 157.262 136.787C160.792 136.541 162.182 140.109 161.052 143.29C161.884 143.676 168.489 146.92 170.973 148.121C171.156 148.215 171.299 148.368 171.378 148.552C171.456 148.736 171.466 148.94 171.405 149.13C171.338 149.321 171.201 149.482 171.02 149.584C170.839 149.686 170.626 149.723 170.419 149.688C164.447 148.589 157.306 147.145 150.544 147.039C150.379 147.035 150.223 146.97 150.108 146.857C149.992 146.744 149.928 146.593 149.928 146.435C149.928 146.357 149.944 146.281 149.974 146.209C150.005 146.138 150.051 146.072 150.108 146.018C150.165 145.963 150.233 145.92 150.308 145.89C150.383 145.861 150.463 145.846 150.544 145.846C155.369 145.883 160.182 146.302 164.933 147.1C159.097 144.309 159.252 144.488 159.049 144.009C158.977 143.788 158.999 143.55 159.111 143.345C160.33 140.95 159.612 137.806 156.614 138.513C156.487 138.543 156.354 138.543 156.227 138.513C156.099 138.484 155.981 138.426 155.881 138.344C155.782 138.262 155.705 138.159 155.655 138.043C155.606 137.927 155.586 137.801 155.598 137.676C155.743 136.285 155.448 134.088 154.457 133.099C153.419 132.063 151.737 133.488 150.946 134.688C150.857 134.822 150.718 134.918 150.558 134.957C150.397 134.996 150.227 134.976 150.082 134.9C149.727 134.701 149.332 134.577 148.924 134.535C148.515 134.492 148.101 134.534 147.71 134.656C147.571 134.702 147.418 134.696 147.283 134.638C147.149 134.58 147.042 134.475 146.987 134.344C146.931 134.213 146.931 134.067 146.985 133.936C147.039 133.805 147.145 133.699 147.279 133.639C148.209 133.297 149.237 133.285 150.175 133.607Z" fill="#180B02"/>
<path d="M98.0567 7.26799C98.4557 6.81983 99.133 7.12178 99.2937 7.22667C99.4179 7.32238 99.5743 7.3717 99.7338 7.36547C99.8932 7.35923 100.045 7.29786 100.161 7.19277C100.994 6.3367 97.9436 4.19124 97.0723 6.74567C96.8495 7.40149 97.539 7.84859 98.0567 7.26799Z" fill="#180B02"/>
<path d="M103.259 7.01841C103.51 6.85662 103.807 6.77169 104.11 6.77491C104.413 6.77812 104.707 6.86933 104.955 7.03642C105.056 7.15548 105.2 7.23379 105.359 7.25577C105.518 7.27776 105.679 7.24181 105.811 7.15509C106.86 6.37 103.936 3.87703 102.375 6.32127C102.279 6.43325 102.232 6.57736 102.247 6.72191C102.261 6.86646 102.335 6.9996 102.452 7.09205C102.569 7.18449 102.72 7.22867 102.871 7.21486C103.023 7.20105 103.162 7.13039 103.259 7.01841Z" fill="#180B02"/>
<path d="M104.13 10.4443C104.348 10.4573 104.564 10.3675 104.73 10.1947C104.896 10.0219 104.999 9.78011 105.015 9.52266C105.032 9.26521 104.962 9.01314 104.82 8.82189C104.677 8.63064 104.475 8.5159 104.257 8.50288C104.039 8.48987 103.823 8.57967 103.657 8.75251C103.491 8.92536 103.388 9.16709 103.372 9.42454C103.355 9.682 103.425 9.93407 103.567 10.1253C103.71 10.3166 103.912 10.4313 104.13 10.4443Z" fill="#180B02"/>
<path d="M98.466 10.3877C98.684 10.4007 98.8998 10.3109 99.0658 10.1381C99.2319 9.96521 99.3346 9.72347 99.3514 9.46602C99.3683 9.20857 99.2978 8.9565 99.1555 8.76525C99.0133 8.574 98.8109 8.45925 98.5929 8.44624C98.3749 8.43323 98.1591 8.52303 97.9931 8.69587C97.827 8.86872 97.7243 9.11045 97.7075 9.3679C97.6906 9.62536 97.7611 9.87743 97.9034 10.0687C98.0456 10.2599 98.248 10.3747 98.466 10.3877Z" fill="#180B02"/>
<path d="M92.5715 24.5639C81.9147 26.6935 74.4836 36.98 71.1416 46.8407C70.1905 49.6473 69.4578 53.3163 70.5064 56.0932C71.8598 59.6775 77.4332 61.4426 81.3572 61.0728C81.5015 61.0621 81.6447 61.1048 81.7571 61.192C81.8695 61.2792 81.9427 61.4043 81.9614 61.5415C81.9802 61.6787 81.9431 61.8176 81.8579 61.9295C81.7727 62.0414 81.6459 62.1178 81.5035 62.1429C76.9998 62.6472 70.9154 60.7094 69.2428 56.5435C68.0068 53.471 68.6985 49.5752 69.7183 46.4105C73.2133 35.5624 81.2353 24.7758 92.9673 22.7585C93.1718 22.7267 93.3815 22.7634 93.5609 22.8624C93.7403 22.9615 93.8783 23.1168 93.9516 23.302C96.4822 29.6219 105.905 31.6815 109.982 22.7034C110.053 22.5493 110.17 22.419 110.319 22.3293C110.468 22.2396 110.641 22.1946 110.817 22.2002C121.478 22.4301 127.457 31.5502 131.829 40.8164C134.822 47.1681 136.374 54.0537 130.942 58.6243C128.514 60.5806 125.554 61.8362 122.407 62.2446C122.251 62.2605 122.095 62.2189 121.97 62.1284C121.846 62.0378 121.762 61.9052 121.736 61.7575C121.71 61.6099 121.745 61.4584 121.832 61.3341C121.919 61.2098 122.053 61.122 122.205 61.0887C125.113 60.7066 127.841 59.5205 130.053 57.6761C134.956 53.5208 133.162 47.0812 130.436 41.4256C126.445 33.133 120.863 24.3764 111.36 23.8879C110.187 26.4327 108.116 28.5024 105.508 29.7353C100.527 31.8023 94.7807 29.1886 92.5715 24.5639Z" fill="#180B02"/>
<path d="M84.8233 41.5724C84.5369 43.1079 84.5074 44.6771 84.7357 46.2215C84.7449 46.3742 84.8158 46.5176 84.9333 46.6215C85.0508 46.7254 85.2059 46.7817 85.366 46.7785C85.526 46.7754 85.6786 46.713 85.7915 46.6046C85.9045 46.4962 85.969 46.3501 85.9717 46.1971C86.1774 44.6583 86.1774 43.1007 85.9717 41.5619C85.9709 41.4898 85.9554 41.4186 85.9258 41.3522C85.8963 41.2859 85.8534 41.2258 85.7996 41.1753C85.7457 41.1249 85.682 41.085 85.6121 41.0581C85.5421 41.0311 85.4673 41.0176 85.3919 41.0183C85.3165 41.019 85.242 41.0339 85.1726 41.0621C85.1032 41.0904 85.0403 41.1314 84.9875 41.1828C84.9347 41.2343 84.8931 41.2952 84.8649 41.362C84.8367 41.4289 84.8226 41.5004 84.8233 41.5724Z" fill="#180B02"/>
<path d="M113.501 40.2009C113.143 41.7471 113.112 43.3462 113.41 44.904C113.414 44.9797 113.433 45.0541 113.466 45.1228C113.5 45.1916 113.547 45.2533 113.605 45.3046C113.664 45.3559 113.732 45.3956 113.807 45.4216C113.881 45.4475 113.96 45.4592 114.04 45.456C114.119 45.4527 114.197 45.4345 114.269 45.4025C114.341 45.3705 114.405 45.3253 114.459 45.2694C114.513 45.2135 114.554 45.1481 114.581 45.0768C114.608 45.0056 114.621 44.9299 114.617 44.8542C114.728 43.3309 114.725 41.8021 114.607 40.2793C114.613 40.2099 114.604 40.1401 114.581 40.074C114.558 40.0079 114.522 39.9467 114.474 39.894C114.427 39.8412 114.369 39.798 114.304 39.7667C114.239 39.7353 114.168 39.7166 114.095 39.7114C114.023 39.7063 113.95 39.7148 113.88 39.7367C113.811 39.7585 113.747 39.7931 113.692 39.8385C113.637 39.884 113.592 39.9394 113.559 40.0016C113.526 40.0637 113.506 40.1315 113.501 40.2009Z" fill="#180B02"/>
<path d="M103.708 57.3216C103.68 56.4889 103.313 55.6997 102.686 55.1209C102.059 54.5421 101.221 54.2192 100.35 54.2204C99.9157 54.2116 99.4842 54.285 99.08 54.4363C98.6758 54.5877 98.3069 54.8141 97.9947 55.1023C97.6824 55.3906 97.433 55.7352 97.2608 56.1161C97.0885 56.4969 96.9969 56.9067 96.9911 57.3216C96.9709 57.7552 97.0428 58.1882 97.2025 58.5945C97.3622 59.0008 97.6063 59.3719 97.9202 59.6856C98.2341 59.9992 98.6112 60.2489 99.0287 60.4194C99.4463 60.59 99.8957 60.6779 100.35 60.6779C100.804 60.6779 101.253 60.59 101.671 60.4194C102.088 60.2489 102.465 59.9992 102.779 59.6856C103.093 59.3719 103.337 59.0008 103.497 58.5945C103.657 58.1882 103.729 57.7552 103.708 57.3216Z" fill="#180B02"/>
<path d="M101.54 51.0257C101.24 51.2593 101.002 51.5571 100.845 51.8951C100.688 52.2331 100.617 52.6017 100.638 52.9709C100.601 53.0627 100.588 53.162 100.602 53.2595C100.616 53.357 100.655 53.4496 100.717 53.5287C100.778 53.6077 100.859 53.6707 100.953 53.7118C101.046 53.7528 101.149 53.7706 101.252 53.7634C102.006 53.8336 102.762 53.6366 103.375 53.2099C103.988 52.7833 104.415 52.1565 104.577 51.4485C104.845 50.2057 102.654 50.0584 101.54 51.0257Z" fill="#180B02"/>
<path d="M108.195 13.6723C108.742 13.6153 109.253 13.3892 109.652 13.0283C110.051 12.6675 110.316 12.1918 110.406 11.6738C110.496 11.1558 110.406 10.6239 110.15 10.1593C109.894 9.69475 109.486 9.32294 108.988 9.10064C108.825 9.02365 108.652 8.96533 108.475 8.92689C108.574 7.8033 108.565 6.67338 108.448 5.55136C107.387 -2.83873 94.1989 -1.65952 94.3806 8.6885C90.695 9.58271 91.5064 13.7168 94.3928 14.0294C93.7566 15.4226 92.7656 17.9495 94.1268 18.7187L94.1046 19.0704C94.0171 20.4064 94.4139 21.77 95.8095 21.7997C95.9259 22.2276 96.2084 22.5972 96.5995 22.8333C96.9907 23.0695 97.4612 23.1545 97.9155 23.0711C98.7159 25.296 100.309 25.581 101.52 24.5978C101.723 24.7569 101.958 24.8734 102.211 24.9395C102.464 25.0056 102.729 25.0199 102.988 24.9814C103.247 24.9428 103.494 24.8524 103.714 24.716C103.934 24.5796 104.121 24.4003 104.264 24.1899C104.589 23.7676 104.821 23.2858 104.943 22.7744C106.13 23.0001 107.004 22.0571 107.407 20.9786C108.099 21.1354 108.842 20.7359 108.947 19.6108C108.98 19.1907 108.945 18.7684 108.844 18.3584C109.156 18.2339 109.42 18.0195 109.599 17.7449C109.778 17.4703 109.863 17.1492 109.842 16.8264C109.842 15.9036 108.702 14.3896 108.087 13.6755C108.123 13.6771 108.159 13.676 108.195 13.6723ZM103.116 15.8973C102.741 15.8003 102.371 15.6843 102.008 15.5497C101.036 15.126 101.46 15.0528 100.99 15.3379C100.506 15.6223 99.956 15.7872 99.3887 15.8178C99.3117 15.8278 99.2336 15.8092 99.1705 15.7658C99.1074 15.7225 99.0641 15.6577 99.0495 15.5847C99.039 15.5115 99.0588 15.4373 99.1048 15.3779C99.1508 15.3185 99.2193 15.2786 99.2956 15.2669C99.9103 15.0138 100.482 14.6738 100.99 14.2582C101.074 14.1931 101.179 14.1582 101.286 14.1597C101.394 14.1613 101.498 14.1992 101.579 14.2667C102.11 14.6941 102.701 15.0486 103.335 15.3198C103.375 15.3335 103.411 15.3546 103.443 15.3819C103.474 15.4091 103.5 15.442 103.518 15.4787C103.536 15.5153 103.546 15.555 103.548 15.5955C103.55 15.6359 103.544 15.6764 103.529 15.7145C103.515 15.7526 103.493 15.7877 103.464 15.8176C103.436 15.8476 103.402 15.8719 103.363 15.8892C103.325 15.9065 103.283 15.9163 103.241 15.9183C103.199 15.9202 103.156 15.9141 103.116 15.9004V15.8973ZM108.024 12.5069C107.925 12.5207 107.831 12.5575 107.751 12.6141C107.671 12.6707 107.606 12.7454 107.563 12.8315C107.52 12.9176 107.5 13.0125 107.505 13.1077C107.509 13.203 107.538 13.2958 107.589 13.3778C107.508 13.3823 107.429 13.4048 107.358 13.4434C107.287 13.482 107.227 13.5357 107.181 13.6003H107.121C106.235 14.6894 104.904 11.2779 101.981 10.9208C102.074 10.2485 102.069 9.56705 101.965 8.89616C101.848 7.85786 101.82 7.34825 101.3 7.29739C100.733 7.2423 100.57 7.87905 100.366 8.83153C100.203 9.56545 100.208 10.3244 100.38 11.0565C98.9697 11.511 98.4742 12.6309 97.2283 13.3958C96.6663 13.7327 96.4357 13.5844 96.2207 13.2157C96.1657 13.1047 96.0838 13.0079 95.9817 12.9333C95.8796 12.8588 95.7604 12.8086 95.6339 12.7871C95.5074 12.7655 95.3774 12.7731 95.2546 12.8094C95.1319 12.8456 95.02 12.9094 94.9282 12.9953L94.4072 12.9476C94.1804 12.8964 93.9686 12.797 93.7874 12.6568C93.6063 12.5166 93.4605 12.3392 93.361 12.1377C93.2614 11.9363 93.2106 11.716 93.2123 11.4933C93.214 11.2705 93.2682 11.0509 93.3708 10.8509C93.5899 10.5839 93.8703 10.3686 94.1903 10.2217C94.5104 10.0747 94.8614 9.99999 95.2164 10.0033C95.4096 9.98773 95.5892 9.90233 95.7188 9.76453C95.8483 9.62673 95.918 9.4469 95.9137 9.26168C95.7917 1.22017 103.954 -0.198487 106.232 3.94517C106.912 5.51478 107.172 7.2214 106.988 8.91099C106.944 9.5933 106.878 9.76706 107.131 10.0277C107.443 10.3455 107.719 10.2057 108.075 10.2555C108.363 10.2927 108.627 10.4302 108.817 10.6418C109.006 10.8533 109.107 11.1241 109.101 11.4024C109.095 11.6807 108.981 11.9471 108.783 12.1506C108.584 12.3541 108.314 12.4817 108.024 12.5069Z" fill="#180B02"/>
<path d="M144.999 140.701C144.937 136.819 144.814 125.892 144.721 120.895C144.714 120.111 144.499 119.342 144.094 118.66C143.69 117.978 143.111 117.406 142.411 116.998C139.791 115.449 135.816 113.111 135.816 113.111C134.093 112.409 132.295 111.886 130.455 111.552C128.61 111.903 126.533 112.227 124.193 112.513C125.102 113.562 127.885 116.066 128.332 117.886C130.247 117.572 132.129 117.093 133.954 116.456C134.045 116.42 134.146 116.421 134.236 116.457C134.326 116.493 134.397 116.562 134.434 116.648C134.471 116.735 134.47 116.832 134.433 116.918C134.395 117.004 134.323 117.072 134.232 117.107C132.332 117.809 130.37 118.347 128.37 118.714C128.077 120.33 126.35 120.004 124.789 119.343C111.277 121.413 92.6515 121.411 79.0673 119.812C75.7419 121.531 74.6955 120.404 75.1267 119.282C72.0691 118.88 69.0654 118.166 66.1669 117.153C66.0686 117.114 65.9905 117.039 65.9499 116.945C65.9092 116.851 65.9094 116.745 65.9502 116.651C65.9911 116.557 66.0694 116.482 66.1678 116.444C66.2662 116.405 66.3768 116.405 66.4751 116.444C69.4373 117.422 72.501 118.094 75.6133 118.446C77.1644 116.777 78.4915 114.93 79.5639 112.947C75.6022 112.596 72.2835 112.15 69.5079 111.65C67.7577 112.023 66.061 112.596 64.4544 113.358C64.4544 113.358 60.2333 115.631 57.3978 117.154C56.6496 117.567 56.0279 118.16 55.5953 118.875C55.1626 119.59 54.9341 120.401 54.9326 121.226C54.9648 126.331 55.0568 137.163 55.0867 141.218C55.0849 141.965 55.2751 142.701 55.6406 143.362C56.006 144.022 56.5356 144.587 57.1828 145.006C60.9106 147.468 71.3257 151.117 100.228 151.117C129.469 151.117 139.637 147.074 143.15 144.405C143.74 143.969 144.214 143.406 144.536 142.763C144.857 142.12 145.015 141.413 144.999 140.701ZM142.615 121.63C136.527 125.241 122.794 126.878 115.591 127.457C106.172 128.16 96.7119 128.222 87.2832 127.643C79.3632 127.145 65.2713 125.669 58.2159 122.146C58.1253 122.096 58.0585 122.015 58.0297 121.919C58.0009 121.823 58.0124 121.72 58.0616 121.631C58.1109 121.543 58.1941 121.477 58.2937 121.446C58.3932 121.416 58.5013 121.424 58.595 121.468C65.5484 124.835 79.5273 126.13 87.3209 126.584C96.7005 127.107 106.106 127.039 115.476 126.38C122.503 125.864 136.15 124.483 142.233 121.036C142.315 120.989 142.412 120.975 142.505 120.997C142.597 121.019 142.676 121.075 142.725 121.152C142.773 121.231 142.788 121.324 142.768 121.412C142.747 121.501 142.693 121.578 142.615 121.63Z" fill="#F07D29"/>
<path d="M80.4307 118.999C94.7069 120.248 109.078 120.123 123.328 118.628C120.573 117.131 118.091 115.98 117.513 113.16C106.729 113.864 95.9094 113.925 85.1173 113.342C85.0763 115.858 82.8028 117.496 80.4307 118.999Z" fill="#F07D29"/>
<path d="M129.007 117.175C128.181 115.162 125.465 112.97 124.323 111.559C123.693 110.666 123.223 109.68 122.93 108.639C123.302 108.579 123.673 108.506 124.039 108.417C124.189 108.386 124.326 108.312 124.431 108.204C124.535 108.096 124.603 107.96 124.624 107.814C125.332 103.525 126.042 99.2607 126.596 94.973C127.26 89.964 127.651 84.9252 127.766 79.8774C127.707 76.6332 126.526 73.4991 124.408 70.9639C122.805 68.923 120.943 67.0802 118.865 65.4779C118.783 65.4161 118.687 65.3736 118.585 65.3539L121.854 46.6486C121.875 46.5236 121.866 46.3956 121.829 46.2741C121.791 46.1526 121.726 46.0407 121.637 45.9466C121.548 45.8525 121.439 45.7786 121.316 45.7303C121.194 45.682 121.062 45.6606 120.929 45.6676L79.6366 47.7124C79.5264 47.7174 79.4187 47.746 79.3216 47.7961C79.2244 47.8462 79.1402 47.9165 79.0753 48.0018C79.0103 48.0871 78.9661 48.1852 78.9461 48.2889C78.926 48.3927 78.9306 48.4994 78.9594 48.6013L83.892 66.5257C80.3671 67.9857 76.319 69.5219 74.0267 72.4885C70.4508 77.2138 70.7844 83.273 72.2709 88.9042C73.9494 95.9706 76.1637 102.911 78.8962 109.67C78.9732 109.825 79.0882 109.959 79.2315 110.062C79.3747 110.165 79.5419 110.233 79.7187 110.26C78.976 114.422 75.5464 116.696 74.4346 118.63C74.2194 118.937 74.1017 119.296 74.0959 119.665C74.0902 120.034 74.1965 120.397 74.4021 120.709C74.6077 121.021 74.9037 121.27 75.2541 121.425C75.6046 121.58 75.9945 121.634 76.3766 121.581C77.733 121.383 79.027 120.901 80.1665 120.171C82.1994 118.854 84.2678 117.475 85.2189 115.673C85.6078 114.964 85.8162 114.177 85.827 113.377C85.8378 112.577 85.6507 111.785 85.2809 111.067C84.9905 110.448 84.1049 110.855 85.4284 110.537C85.6184 110.487 85.7868 110.381 85.9088 110.233C86.0307 110.085 86.0997 109.904 86.1057 109.716C86.2775 99.1208 85.3563 91.2499 85.3973 81.332C87.7469 79.5613 90.264 78.0038 92.9161 76.6798C93.1001 76.6639 101.758 76.1681 104.84 75.9869C107.852 75.8089 110.715 77.6874 113.56 79.0594C113.929 82.8365 115.409 102.156 115.777 108.082C115.783 108.269 115.862 108.447 115.999 108.58C116.136 108.714 116.321 108.793 116.516 108.801L116.872 108.82C116.524 112.993 116.412 115.132 119.729 117.527C120.431 118.007 121.161 118.447 121.916 118.846C123.351 119.813 124.992 120.464 126.722 120.753C128.892 120.851 129.779 118.944 129.007 117.175ZM84.1137 111.494C85.4162 115.018 82.5087 116.741 79.2143 118.747C78.3389 119.299 77.3522 119.669 76.3179 119.834C76.1638 119.84 76.0097 119.86 75.9488 119.746V119.758C75.8557 119.758 75.9787 119.602 76.0097 119.516C76.442 118.583 78.8408 116.297 80.0457 113.555C80.4602 112.6 80.7326 111.594 80.8548 110.567C82.0382 110.827 83.2615 110.877 84.464 110.716C84.3098 110.775 84.1863 110.89 84.1205 111.035C84.0547 111.181 84.0518 111.346 84.1126 111.494H84.1137ZM84.9384 66.0076L80.6287 49.1035C83.34 48.9975 117.019 47.545 119.946 47.4083L116.953 64.9757L84.9384 66.0076ZM127.497 118.664C127.343 119.168 126.82 119.059 126.296 118.935C125.07 118.548 123.9 118.014 122.814 117.346C120.88 116.235 118.911 115.38 118.315 113.302C118.023 111.841 117.926 110.35 118.028 108.865C119.242 108.919 120.459 108.894 121.67 108.793C122.708 113.441 125.613 114.217 127.282 117.5C127.491 117.854 127.566 118.266 127.496 118.667L127.497 118.664Z" fill="#180B02"/>
</svg>
