<?xml version="1.0" encoding="utf-8"?>
<!-- Generator: Adobe Illustrator 26.5.0, SVG Export Plug-In . SVG Version: 6.00 Build 0)  -->
<svg version="1.1" id="Layer_1" xmlns="http://www.w3.org/2000/svg" xmlns:xlink="http://www.w3.org/1999/xlink" x="0px" y="0px"
	 viewBox="0 0 236 197.9" style="enable-background:new 0 0 236 197.9;" xml:space="preserve">
<style type="text/css">
	.st0{fill:#180B02;}
	.st1{fill:#F07D29;}
</style>
<path class="st0" d="M79.3,71.8c-6.6,0.6-13.1,2-19.4,3.9C41.6,81.4,25.9,91.6,16,107.5c-8.3,13.3-14.6,39.9-6.2,52.9
	c8.6,13.2,24.9,15.4,39.9,10.7c1.4-0.4,2.7-1,3.9-1.7c0.1-0.1,0.2-0.2,0.3-0.4c0-0.2,0-0.3-0.1-0.5c-0.1-0.1-0.2-0.3-0.3-0.3
	c-0.1-0.1-0.3-0.1-0.5,0c-9.7,3.1-20.2,4.5-30,0.4c-8.4-3.6-13.8-10.1-14.9-19.2c-1.4-11.4,2.7-27.9,8.1-38
	C24.6,95.7,39.7,85.6,56.3,79c12-4,12.7-3.5,18.6-5.2c1.5-0.4,3-0.8,4.5-1c0.1,0,0.2-0.1,0.3-0.2c0.1-0.1,0.1-0.2,0.1-0.4
	c0-0.1-0.1-0.2-0.2-0.3C79.5,71.8,79.4,71.8,79.3,71.8z"/>
<path class="st0" d="M227.2,121.6c-5.4-17.9-14.6-29.7-28.7-39c-7.5-4.8-15.6-8.6-24.2-11.2c-7.9-2.6-16.3-3.8-24.6-3.3
	c-1.3,0.1-2.5,0.1-3.8,0.2c2.4-3.7,3.7-8,4-12.4c0.6-8.3-2.2-16.3-5.4-23.8c-3-7.2-7.3-13.9-12.6-19.6c-4.8-5.2-11.4-10.4-19-9.3
	c-3.7,0.7-7.1,2.3-9.9,4.8c-6.7,5.2-12.9,12.6-18.4,24.6c-3,6.3-5.1,13-6.4,19.8c-0.7,4.1-0.9,8.3,0.8,12.2
	C83.5,75,96,78.5,106.7,81.9c1.9,0.6,3.7,1.2,5.6,1.9c0.2,0.2,0.4-0.6,0-0.8c-12.4-6.2-32.8-9.3-32.8-24.8
	c-0.6-10,10.5-41.1,27.9-51c1.6-1,3.3-1.6,5.1-1.9c1.8-0.3,3.7-0.2,5.4,0.2c9.1,2.4,17.6,14.1,21.9,22.5c3.3,6.4,6.8,15.9,7.4,22.5
	c0.8,6.5-0.9,13.1-5,18.4c-4.5,5.6-11.4,8.7-18,11.8c-1.7,0.8-3.3,1.4-5,2.3c-1,0.4-0.2,2.3,0.8,1.9C127.6,82,135,79,141,73.9
	c1.4-1.2,2.6-2.5,3.7-3.9c7.5-0.1,15.2,0.1,22.5,1.9c8.5,2,16.7,5.2,24.4,9.5c16.2,9.2,25.1,20.2,31,35.1
	c4.6,11.7,6.9,22.9,2.9,34.7c-2.1,6.2-6.7,12.7-13.2,14.7c-4.3,1.1-8.8,1-13-0.4c-9.3-2.7-17.6-9.7-24.4-14.9
	c-0.8-0.6-1.6,0.6-1,1.2c5.9,6,12.8,10.9,20.5,14.5c4.9,2.1,10.3,3.5,15.7,2.7c7.8-1.1,13.6-7.3,16.7-14.3
	C231.6,144.1,230.5,132.8,227.2,121.6z"/>
<path class="st0" d="M126.2,131.9c4.6,0.9,9.3-0.1,24.2,2.1c1.4,0.2,3.5,0.6,4.3,1.9c1.2,1.9,1,4.8,0.6,6.6
	c-0.7,4.1-1.2,5.1-6.4,18.8c-2.5,6.4-5.3,12.6-8.5,18.6c-2.6,5.1-5.9,3-16.3,5.4c-0.8,0.2-0.4,1.2,0.2,1.2c3.8,0.5,7.6,0.5,11.4,0
	c2.2-0.3,4.2-1.4,5.6-3.1c0.8-1.1,1.5-2.2,2.1-3.3c1.2-2.3,2.2-4.6,3.1-7c1.3-3.1,2.5-6,3.7-9.1c5.2-13.3,8.1-20.4,7-26.4
	c-0.1-1-0.5-2-1.1-2.9c-0.6-0.8-1.5-1.5-2.4-1.9c-5.1-2.1-22.8-2.3-27.7-1.4C125.7,131.3,125.7,131.9,126.2,131.9z"/>
<path class="st0" d="M159,168.5c-2.7-1.2-5.7-1.7-8.7-1.4c-0.8,0-0.8,1,0,1c2.5,0.2,5,0.8,7.2,1.9c1.3,0.6,1.5,1.2,0.4,2.3
	c-2.4,2.6-5.1,5-7.9,7.2c-0.9,0.8-1.8,1.5-2.9,2.1c-1.1,0.7-2,1.5-2.9,2.5c-0.4,0.4,0,1,0.6,1c1.4-0.3,2.8-1,3.9-1.9
	c1.3-0.8,2.4-1.7,3.5-2.7c2.1-1.7,4.1-3.5,6-5.4c-0.3,1.8-1.1,3.5-2.3,5c-1.1,1.4-2.2,2.7-3.5,3.9c-1.3,1.1-2.7,2-4.1,2.9
	c-2.5,1.7-4.5,3.9-7.4,5.2c-1.7,0.7-3.5,1-5.4,1c-1.9,0-21,0.8-30.2,0.8c-20.2,0-14,2.1-28.3-6.4c-5.4-3.2-7-4.3-7.9-9.3
	c2.1,1.7,4.3,3.4,6.7,4.8c1.1,0.8,2.3,1.6,3.5,2.3c1.1,0.8,2.4,1.4,3.7,1.7c0.1,0,0.2,0,0.3-0.1c0.1-0.1,0.2-0.1,0.2-0.2
	c1.7,2.1,4.2,1.6,7.1,1.6c5.8,0,21.2,0.3,26.4-1.2c0.2,0,0-0.8-0.4-0.8c-2.5-0.2-5,0-7.4,0c-17.7,0-15.5-0.2-21.3-0.2
	c-1,0-2.1,0.2-2.9-0.8c-0.6-1-1.1-2.2-1.4-3.3c-2.5-6.4-6-12.9-8.9-19.8c-1.7-3.4-3.1-6.8-4.3-10.3c-1-3.5-2.1-7.4-1-11.2
	c1-3.3,4.8-4.3,7.9-5.2c0.1,0,0.3-0.1,0.4-0.3c0.1-0.1,0.1-0.3,0.1-0.4c0-0.2-0.1-0.3-0.2-0.4c-0.1-0.1-0.3-0.1-0.4-0.1
	c-3.3,0-6.7,0.2-8.9,2.9c-2.3,2.9-2.3,6.6-1.7,10.1c0.9,5.7,4.8,13.1,8.9,22.3c1.7,3.7,3.3,7.2,5.2,10.9c0.6,1.2,1,2.5,1.7,3.7
	c0.1,0.2,0.1,0.3,0.2,0.5c-0.5-0.3-0.9-0.6-1.4-0.9c-1-0.6-1.9-1.2-2.9-1.9c-2-1.3-3.9-2.6-5.8-4.1c-1-0.6-4.1-2.5-2.9-4.1
	c0.6-0.8,1.4-0.8,2.5-1c1.1-0.2,2.2-0.5,3.3-0.8c0.2-0.2,0-0.8-0.2-0.8c-1.3-0.3-2.6-0.3-3.9,0c-3.3,0.6-4.5,2.7-3.8,4.8
	c-0.2,2.8,0.4,5.6,1.7,8c1,1.4,2.2,2.6,3.7,3.5c1.7,1.2,3.5,2.3,5.4,3.3c11.5,6.4,9.7,5.6,16.7,5.6c2.3,0,37-0.8,39.2-0.8
	c7.1,0,8.7-1.4,14.3-5.6c2.6-2.2,9-5.2,11.8-12.6c0.4-1.6,0.5-3.2,0.5-4.8C161.2,170.5,160.4,169.3,159,168.5z"/>
<path class="st0" d="M110.2,159.2c0.4-0.6,0.6-1.4,1.2-1.7c1.2-0.6,4.1-0.2,4.1,1.7c0,1-1.2,1.4-2.1,1.9c-3,1.5-3,4.8-1.4,4.8
	c0.4,0,0.8-0.2,1-0.4c0.2-0.2,0.2-1,0.4-1c0.8-1,2.1-1.2,3.1-2.1c0.4-0.4,0.8-0.8,1-1.4c0.2-0.5,0.3-1.1,0.3-1.7
	c0-0.6-0.2-1.1-0.4-1.6c-0.3-0.5-0.6-1-1.1-1.3c-0.8-0.6-1.8-0.9-2.8-1c-1-0.1-2,0.1-2.9,0.6c-1.2,0.4-2.7,2.5-1.2,3.7
	C109.6,159.8,110,159.6,110.2,159.2z"/>
<path class="st0" d="M85.3,134c-3.5-5.9-8.4-9.5-12.2-19.6c-1.2-3.1-1-6.8,1.2-9.3c1-1.1,2.2-2,3.6-2.5c1.4-0.5,2.9-0.6,4.4-0.4
	c2,0.5,3.8,1.4,5.4,2.7c1.7,1.4,3.1,3.3,4.5,4.8c1.2,1,3.1-0.4,2.3-1.7c-1.2-1.9-2.8-3.6-4.5-5c-8.5-8.5-21.2-1.8-20,8.5
	c0.4,3.7,2.3,7.2,4.1,10.3c2.7,4.5,6,9.7,10.5,12.6C85,134.8,85.7,134.4,85.3,134z"/>
<path class="st1" d="M121.2,128.8c-2.7-3.1-10.7-11.8-12-13c-1-1-2.9-2.5-4.5-1.9c-2.3,1-19.4,11.6-20,13.8
	c-0.6,1.7-2.7,7.8-2.5,9.1c0.2,1.7,11.6,13.8,14.5,16.3c1.7,1.4,2.9,1.9,4.8,1c4.1-1.8,19.8-13.2,20.5-14.7
	C122.6,137.7,123.3,131.3,121.2,128.8z M112.1,134c-1.6,1.1-6.4,4.8-7.4,4.8c-1.2,0.2-1.4-3.9-2.7-8.7c-0.7,0.1-1.4,0.1-2.1-0.1
	c-0.7-0.2-1.3-0.6-1.8-1.1c-0.5-0.5-0.8-1.1-1-1.8c-0.2-0.7-0.2-1.4,0-2.1c0.9-5,9.1-1.4,7.6,3.3C104.5,128.2,115.2,132,112.1,134z
	 M90.6,131.9c3.5,3.5,10.3,11.8,10.7,12c1,0.6,2.7-0.8,3.7-1.4c2.1-1.2,3.7-3.3,6.2-4.1c0.6-0.2,1.2,0.8,0.6,1.2
	c-1.8,1.6-3.8,3.2-5.8,4.5c-1.8,1.3-4.1,2.7-6,1c-2.7-2.7-4.9-6-6.4-7.9c-0.6-0.8-1.2-1.6-1.7-2.5c-0.2-0.4-0.6-0.8-0.8-1.2
	c-0.2-0.4-0.6-0.8-0.8-1.2C89.6,132.1,90.2,131.5,90.6,131.9z"/>
<path class="st0" d="M98.9,104.2c0.9-0.9,1.5-1.9,1.9-3.1c0.6-1.3,1.2-2.6,1.7-3.9c0.1-0.3,0.1-0.6-0.1-0.8
	c-0.1-0.3-0.3-0.5-0.6-0.6c-0.3-0.1-0.5-0.1-0.8,0c-0.3,0.1-0.5,0.2-0.7,0.4c-0.6,1.1-1.1,2.3-1.4,3.5c-0.5,1.1-0.9,2.3-1,3.5
	C97.9,104,98.3,104.7,98.9,104.2z"/>
<path class="st0" d="M104.3,107.8c2.3-0.8,4.3-1.7,6.6-2.7c0.6-0.4,1.4-1,0.8-1.9c-0.4-0.6-1.2-0.4-1.7-0.2
	c-2.1,0.8-4.1,2.1-6.2,3.1C102.8,106.7,103.4,108.2,104.3,107.8z"/>
<path class="st1" d="M24.1,15.2c-0.5,2.8-0.7,5.7-0.6,8.6c-0.1,0.9-0.1,1.7,0.2,2.6c0.1,0.1,0.2,0.2,0.3,0.3
	c0.1,0.1,0.3,0.1,0.4,0.1c0.1,0,0.3,0,0.4-0.1c0.1-0.1,0.2-0.2,0.3-0.3c0.4-0.8,0.6-1.7,0.4-2.6c0.1-2.8-0.1-5.6-0.4-8.4
	C25.1,14.8,24.1,14.6,24.1,15.2z"/>
<path class="st1" d="M37.3,16.7c-0.7-3.3-6-3.4-7.1,2.2c-0.4,2-0.8,4.1,0,6.1c0.3,0.8,1,1.5,1.8,1.9c0.8,0.4,1.7,0.5,2.6,0.3
	c0.9-0.5,1.7-1.2,2.2-2.2c0.5-1.1,0.9-2.3,1-3.5c0-0.1,0-0.2-0.1-0.2c-0.1-0.1-0.1-0.1-0.2-0.2c-0.1,0-0.2-0.1-0.2-0.1
	c-0.1,0-0.2,0-0.2,0.1c-1.7,1.7-1.4,3.9-2.9,4.3c-2.8,0.7-2.6-5.6-1-8c0.2-0.3,0.5-0.6,0.9-0.7c0.3-0.2,0.7-0.3,1.1-0.3
	c0.4,0,0.7,0,1,0.2c0.3,0.2,0.6,0.4,0.7,0.8c0.2,0,0.3-0.1,0.4-0.2C37.2,17,37.3,16.9,37.3,16.7z"/>
<path class="st1" d="M42.9,14.3c-0.3,0.8-0.5,1.7-0.4,2.6c0,1-0.8,9.2-0.4,10.2c0.2,0.6,1.2,1,1.6,0.2c0.6-1.2,0.4-2.7,0.6-4.1
	c0-6.4,0.1-7.8-0.4-9C43.9,13.9,43.1,13.9,42.9,14.3z"/>
<path class="st1" d="M48.6,16.6v4.3c-0.1,1.2-0.1,2.5,0,3.7c0,0.6,0.2,1.2,1,1.2h0.6c0.1-0.1,0.2-0.2,0.3-0.3
	c0.1-0.1,0.1-0.3,0.1-0.4c0.2-2.9,0-5.8-0.6-8.6c0-0.2-0.2-0.3-0.3-0.4c-0.1-0.1-0.3-0.1-0.5-0.1c-0.2,0-0.3,0.1-0.4,0.2
	C48.7,16.3,48.6,16.4,48.6,16.6z"/>
<path class="st1" d="M61.7,17.9c0.2-0.5,0.2-0.9,0.2-1.4c-0.1-0.5-0.3-0.9-0.6-1.3c-0.3-0.3-0.6-0.6-1.1-0.8s-0.9-0.2-1.3,0
	c-3,0.8-5.6,7.5-3.1,11.2c1.2,1.8,3.5,2.7,5.1,1c0.7-0.9,1.1-2,1.2-3.1c0.2-1.2,0.6-3.1-0.2-4.1c0-0.1-0.1-0.2-0.2-0.2
	C61.7,19,61.6,19,61.5,19c-0.1,0-0.2,0-0.3,0.1c-0.1,0.1-0.2,0.1-0.2,0.2c-0.8,1.5,0,3-1,5.5c-0.1,0.2-0.2,0.4-0.3,0.5
	c-0.2,0.1-0.3,0.2-0.5,0.3c-0.2,0-0.4,0-0.6,0c-0.2-0.1-0.4-0.2-0.5-0.3c-1.6-1.6-1.5-6.1,0.4-8.4c0.4-0.6,1.2-1.4,2-0.8
	c0.6,0.4,0.6,1.2,0.6,1.8C61,18.3,61.6,18.5,61.7,17.9z"/>
<path class="st1" d="M68,19.2c-1,2-2,4.3-0.6,6.3c0.2,0.4,0.6,0.7,1,1c0.4,0.2,0.8,0.4,1.3,0.4c0.5,0,0.9,0,1.3-0.2
	c0.4-0.2,0.8-0.4,1.1-0.8c1.3-1.8,2-3.9,2-6.1c0.2-2-0.2-4.3-2.4-4.9c-0.5-0.2-1.1-0.2-1.7,0c-0.6,0.1-1.1,0.4-1.5,0.8
	c-0.4,0.6-0.7,1.3-0.8,2c0,0.2,0.1,0.5,0.3,0.7c0.1,0.2,0.3,0.4,0.5,0.5c0.4,0.2,0.8,0,0.8-0.4c0.2-0.4,0.2-0.8,0.4-1.2
	c0.1-0.3,0.4-0.5,0.7-0.6c0.3-0.1,0.6-0.1,0.9,0c1.2,0.4,1.2,2.2,1.2,3.3c-0.1,1.6-0.5,3.1-1.2,4.5c-0.2,0.4-0.6,1-1.2,1
	c-0.3,0.1-0.6,0-0.9-0.1c-0.3-0.1-0.5-0.4-0.7-0.7c-1.2-1.4-0.4-3.5,0-5.1C69,19,68.2,18.8,68,19.2z"/>
<path class="st1" d="M79,16.6c-0.3,1.1-0.5,2.2-0.4,3.3c0,1.2-0.2,2.6-0.2,3.7c0,0.2,0,0.5,0,0.7c0.1,0.2,0.2,0.5,0.4,0.6
	c0.2,0.4,0.6,0.4,1,0.2c0.8-0.6,0.6-2.2,0.6-3.1v-2.9c0-0.8,0.2-2-0.2-2.6C79.8,16.2,79.2,16.2,79,16.6z"/>
<path class="st1" d="M144.5,17.3c-2.2,3.3-1.6,9.9,2.5,10.7c1,0,2-0.3,2.8-0.8c0.8-0.6,1.4-1.3,1.8-2.3c1.3-3.3,1.1-7.5-1.7-9.7
	c-0.3-0.2-0.5-0.3-0.9-0.4c-0.3-0.1-0.6-0.1-0.9,0c-0.3,0.1-0.6,0.2-0.9,0.4c-0.3,0.2-0.5,0.4-0.7,0.7c-0.2,0.4,0,1.2,0.6,1
	c1,0,1.6-0.1,1.9,0.2c0.5,0.5,0.9,1.1,1,1.9c0.6,1.5,0.6,3.2,0,4.8c-1.5,3.6-4.4,3.2-5-0.4c-0.4-1.9-0.2-3.8,0.4-5.6
	C145.6,17.1,144.7,16.7,144.5,17.3z"/>
<path class="st1" d="M156.7,15.8c-0.2,0.4-0.2,0.8-0.4,1c-0.4,3.2-0.2,6.4,0.8,9.5c0,0.2,0.4,0.8,0.6,0.8c0.4,0,0.4-0.6,0.4-1
	c0.3-1.8,0.3-3.7,0-5.6c0-1.5-0.2-2.9-0.6-4.3c0-0.1-0.1-0.2-0.1-0.3c-0.1-0.1-0.2-0.1-0.3-0.1C157.1,15.4,156.7,15.4,156.7,15.8z"
	/>
<path class="st1" d="M163.5,15.6c-0.2,0.2-0.4,0.5-0.4,0.8c0,0.4-0.2,0.8-0.2,1.2v2.7c0.2,1.6,0.7,5.9,1.9,7
	c0.4,0.4,0.8,0.2,0.8-0.4c0.1-1,0.1-1.9,0-2.9c-0.1-1.4-0.1-2.8,0-4.1c0-0.8,0-1.7-0.2-2.5c-0.2-0.6-0.6-1.7-1.2-1.9L163.5,15.6z"/>
<path class="st1" d="M169.9,16.4c-0.5,0.5-0.5,7.3,1,9.9c0.6,0.8,0.8-0.4,1-1c0.3-2.3-0.3-6.4-0.6-9.1
	C171.2,15.4,170.2,16,169.9,16.4z"/>
<path class="st1" d="M180.7,16c-0.3-0.4-0.8-0.6-1.2-0.8c-0.5-0.1-1-0.2-1.5,0c-0.5,0.1-1,0.4-1.4,0.8c-0.4,0.4-0.7,0.8-0.9,1.3
	c-2.6,5.2,0.5,11.6,3.9,11.6c4.3,0,6.6-8,4.3-10.3c-0.4-0.4-1-1-1.7-0.6c-0.8,0.6,0.6,1.9,0.6,2.5c0.2,0.8,0.2,1.7,0,2.5
	c-0.4,1.5-1,3.5-2.7,4.1c-1.7,0.6-2.7-1.2-3.1-2.5c-1.2-2.8-0.4-6,0.6-7c0.6-0.4,1.4-0.8,2.1-0.4C180.3,17.5,181.1,16.7,180.7,16z"
	/>
<path class="st1" d="M190,15.8c-0.6,0.2-0.4,1.4-0.4,2.1c-0.1,1.8,0,3.6,0.2,5.4c0,0.6,0.2,1.1,0.4,1.7c0,0.2,0,0.5,0.2,0.7
	c0.1,0.2,0.3,0.4,0.5,0.5c0.2,0.2,0.4-0.2,0.6-0.4c0.5-1.3,0.4-2.6,0.4-7.2c0-0.6-0.2-1.1-0.4-1.7C191,16.2,190.4,15.6,190,15.8z"/>
<path class="st1" d="M197,16.7c-3.7,3.7-3.1,10.1,1,11.2c4.4,1.1,9-4.7,6.6-9.5c-0.5-1.1-1.3-2.1-2.3-2.7c-1-0.6-2.5-1.2-3.5-0.4
	c-0.1,0.1-0.2,0.3-0.2,0.4c0,0.2,0.1,0.3,0.2,0.4c0.6,0.5,1.3,0.9,2.1,1c0.6,0.4,1.2,0.9,1.7,1.4c1.8,3.1-0.4,7.2-3.5,7.2
	c-3.2,0-3.6-5.7-1.2-8.5C198.2,16.9,197.6,16.2,197,16.7z"/>
<path class="st1" d="M21.8,35.7c-1,1.9-2.2,4.1-1.7,6.4c0.2,0.9,0.7,1.8,1.4,2.4c0.7,0.6,1.6,1,2.5,1.1c2.1,0.2,3.9-1.7,4.8-3.5
	c0.5-0.9,0.9-1.9,1-2.9c0.1-1,0-2.1-0.4-3.1c-1-2.5-5.1-3.1-5.4-1.4c0,1.4,1,1,1.9,1.2c1.4,0,3.1,2.2,1.7,5
	c-0.6,1.2-1.7,2.7-2.9,2.9c-1.2,0.2-2.3-1-2.7-2.1c-0.6-1.9,0-3.9,0.6-5.8C22.9,35.7,22,35.2,21.8,35.7z"/>
<path class="st1" d="M34.2,34.8c0,0.1-0.8,7.7-0.8,9.1c0,0.6,0.2,1.4,0.8,1.4c1,0,1-1,1.2-1.7c0.2-2.9,0.2-5.8,0-8.7
	C35.5,34.4,34.2,34.2,34.2,34.8z"/>
<path class="st1" d="M39.8,35c-0.3,1.3-0.3,2.6-0.2,3.9v3.9c0,0.6,0,1.9,1,1.9c1.2,0,1-1.9,1-2.7c0.1-2.3,0-4.7-0.2-7
	C41,34.4,40,34.4,39.8,35z"/>
<path class="st1" d="M50.5,34.4c-0.3-0.3-0.8-0.5-1.2-0.5c-0.4,0-0.9,0.1-1.3,0.3c-0.8,0.7-1.5,1.6-2.1,2.5c-0.6,0.9-1,1.9-1.1,3
	c-0.1,1.1,0,2.2,0.3,3.2c0.4,1,1.2,1.8,2.1,2.4c0.9,0.6,2,0.8,3.1,0.7c2.3-0.4,3.3-2.7,3.5-4.8c0.3-1.3,0.3-2.6,0-3.9
	c-0.1-0.3-0.2-0.5-0.3-0.8c-0.2-0.2-0.4-0.4-0.6-0.6c-0.2-0.2-0.5-0.3-0.8-0.3c-0.3-0.1-0.6-0.1-0.8,0c-0.4,0-0.6,0.8-0.2,1
	c0.5,0.6,0.9,1.4,1,2.3c0,1.7-0.4,4.1-1.9,5c-0.6,0.2-1.2,0.2-1.8,0c-0.6-0.2-1-0.7-1.3-1.2c-0.3-0.6-0.5-1.3-0.6-1.9s0.1-1.4,0.3-2
	c0.2-0.9,0.6-1.6,1.2-2.3c0.2-0.4,0.8-1.4,1.4-1c0.1,0.1,0.3,0.1,0.5,0.1c0.2,0,0.3-0.1,0.4-0.2c0.1-0.1,0.2-0.3,0.1-0.5
	C50.7,34.7,50.7,34.5,50.5,34.4z"/>
<path class="st1" d="M59,35.9c-1.3,1.2-2.1,2.8-2.3,4.5c-0.1,0.8,0.1,1.6,0.5,2.3c0.4,0.7,0.9,1.3,1.6,1.8c0.7,0.4,1.6,0.6,2.4,0.4
	c0.8-0.2,1.6-0.6,2.1-1.3c1.7-2.3,1.4-6.5-0.4-8.3c-0.4-0.4-0.8-0.8-1.2-0.8c-0.1-0.1-0.3-0.1-0.4-0.1c-0.1,0-0.3,0-0.4,0.1
	c-0.1,0.1-0.3,0.1-0.4,0.3c-0.1,0.1-0.2,0.2-0.2,0.4c0,1.3,0.5,0.7,1.2,1.4c0.2,0.2,0.4,0.6,0.6,0.8c0.4,0.9,0.6,1.9,0.4,2.9
	c-0.1,0.7-0.4,1.5-0.8,2.1c-1.4,1.2-3.1-0.8-3.3-2.3c0.1-1.4,0.5-2.7,1.2-3.9C60,36.1,59.4,35.5,59,35.9z"/>
<path class="st1" d="M68.1,35c-0.5,2.4-0.7,4.8-0.8,7.2c0,0.8-0.2,2.3,0.6,2.9c0.2,0.1,0.3,0.2,0.5,0.2c0.2,0,0.4-0.1,0.5-0.2
	c0.8-0.8,0.4-2.5,0.4-3.5c0-2.1,0-4.3,0.2-6.4C69.6,34.4,68.1,34.2,68.1,35z"/>
<path class="st1" d="M79.5,36.5c-1.1-2.9-5-1.8-6.8,0.8c-0.9,1.2-1.4,2.6-1.2,4.1c0.2,1,0.6,1.9,1.2,2.7c0.4,0.3,0.8,0.6,1.2,0.8
	c0.2,0,0.4-0.1,0.6-0.2c0.2-0.1,0.3-0.3,0.4-0.5c0.2-0.6-0.6-1-0.8-1.4c-0.5-0.7-0.8-1.5-0.8-2.3c0.1-0.8,0.4-1.6,0.8-2.3
	c0.5-0.7,1.1-1.2,1.9-1.6c0.5-0.2,1-0.3,1.5-0.3c0.5,0,1,0.2,1.4,0.5C79.1,37.1,79.7,36.9,79.5,36.5z"/>
<path class="st1" d="M142.1,32.8c-0.2,0.5-0.2,1-0.2,1.6c0,1.3-0.7,3.2,0.4,3.9c0.2,0.2,1,0.6,1.2,0.2c0-0.2,0.2-0.2,0.2-0.4
	c0-1.1,0-2.1-0.2-3.1c0.1-0.7,0.1-1.3,0-2c0-0.1-0.1-0.3-0.2-0.4c-0.1-0.1-0.2-0.2-0.4-0.2C142.2,32.4,142.1,32.6,142.1,32.8z"/>
<path class="st1" d="M147.3,30.9c-2,4.5,2.6,17.7,1.4,1.8C148.5,32.3,148.9,29.8,147.3,30.9z"/>
<path class="st1" d="M155.9,30.2c-3.5,1.2-5.1,6.3-2.6,9c0.5,0.6,1.2,1,2,1.3c0.8,0.2,1.6,0.3,2.3,0.1c2-0.4,2.8-2.1,3.3-3.9
	c0.3-0.7,0.4-1.5,0.4-2.3c0-0.8-0.2-1.5-0.6-2.2c-0.4-0.4-1.2-1-1.6-0.4c-0.4,0.6,0.2,1.2,0.2,1.6c0.2,0.8,0.2,1.6,0,2.4
	c-0.2,1.2-0.6,2.6-1.6,2.9c-0.4,0.2-0.9,0.3-1.4,0.2c-0.5-0.1-0.9-0.3-1.3-0.6c-0.4-0.4-0.8-1-1-1.5c-0.2-0.6-0.3-1.2-0.2-1.8
	c0.1-0.8,0.4-1.5,0.8-2.2c0.4-0.7,1-1.2,1.7-1.5C156.9,31,156.5,30,155.9,30.2z"/>
<path class="st1" d="M164.7,33.6c-0.2,1.7-0.2,3.4,0,5.1c0,0.2,0.2,1.2,0.6,1.2c0.2,0,0.6-0.2,0.6-0.4c1-1.5,0.6-4.7,0.6-6.9
	c0-0.6,0-1.2-0.6-1.4C164.9,30.5,164.7,32.3,164.7,33.6z"/>
<path class="st1" d="M174.3,30.6c-2.6-0.7-5.1,3-4.3,6.3c0.8,3.2,4.1,4.8,6.9,2.6c1.8-1.8,1.6-4.9,0.6-5.9c-0.2-0.4-0.8-0.2-1,0.2
	c0.2,0,0.2,0.2,0.2,0.4c0,0.9-0.2,1.9-0.6,2.7c-0.2,0.4-0.5,0.8-0.8,1.1c-0.4,0.2-0.9,0.4-1.3,0.3c-0.4-0.1-0.8-0.3-1.2-0.6
	c-0.3-0.3-0.6-0.6-0.8-1c-0.4-1-0.4-2.1,0-3.1c0.4-0.8,1-2.2,2.2-2c0.1,0,0.1,0,0.2,0c0.1,0,0.1,0,0.2-0.1c0.1,0,0.1-0.1,0.1-0.1
	c0-0.1,0.1-0.1,0.1-0.2c0-0.1,0-0.1,0-0.2c0-0.1,0-0.1-0.1-0.2c0-0.1-0.1-0.1-0.1-0.1C174.4,30.6,174.3,30.6,174.3,30.6z"/>
<path class="st1" d="M186,30.9c-0.5-0.1-1-0.1-1.4,0.1s-0.8,0.5-1.1,0.9c-0.6,0.7-1.2,1.5-1.6,2.4c-0.8,1.7-0.8,4.1,0.8,5.3
	c0.7,0.6,1.6,0.9,2.5,0.9c0.9,0,1.8-0.2,2.6-0.7c2.6-1.9,2.5-5.4,0.6-7.8c-0.6-0.8-1.6-1.8-2.7-1.2c-0.2,0.2-0.4,0.4-0.2,0.8
	c0.2,0.8,1.4,1.4,1.8,2c0.5,0.8,0.7,1.7,0.6,2.6c-0.1,0.9-0.6,1.7-1.4,2.3c-0.4,0.2-0.8,0.4-1.3,0.4c-0.5,0-0.9-0.1-1.3-0.4
	c-0.3-0.3-0.6-0.7-0.7-1.1c-0.2-0.4-0.3-0.8-0.2-1.3c0.1-1,0.5-1.9,1-2.7c0.4-0.6,1-1.4,1.8-1.2C186.6,31.9,186.6,30.9,186,30.9z"/>
<path class="st1" d="M193.6,30.7c-0.2,0.3-0.4,0.6-0.4,1c0,1.2-0.2,2.2-0.2,3.3c0,1.6,0,3.1,0.2,4.7c0,0.6,0.4,1,0.8,0.4
	c0.7-1.4,1-1.7,1-4.7c0.1-1.6,0-3.2-0.2-4.7C194.5,30.5,193.8,30.3,193.6,30.7z"/>
<path class="st1" d="M24.5,51.6c-0.5,1.5-0.7,3-0.6,4.5c0,0.8,0,1.5,0.2,2.3c0,0.7,0.2,1.4,0.4,2.1c0.2,0.4,1,1,1.4,0.4
	c0.2-0.4,0.4-0.9,0.4-1.3s0-0.9-0.2-1.4c-0.5-2.2,0.1-5.1-0.2-6.4C26.2,50.9,24.9,50.9,24.5,51.6z"/>
<path class="st1" d="M34.6,51.4c-2.7,2.3-3.5,7-0.8,9.7c0.3,0.4,0.7,0.7,1.1,0.9c0.4,0.2,0.9,0.4,1.4,0.4c0.5,0,1,0,1.4-0.2
	c0.5-0.1,0.9-0.4,1.2-0.7c1-1,1.6-2.2,1.9-3.5c0.3-1.3,0.2-2.7-0.3-4c-0.6-1-2.5-3.3-3.7-2.3c-0.1,0.1-0.2,0.3-0.3,0.5
	c0,0.2,0,0.4,0.1,0.5c0.4,0.6,1.4,0.8,2.1,1.4c0.3,0.4,0.5,0.8,0.6,1.3c0.1,0.5,0.1,0.9,0,1.4c-0.2,1.2-1.2,3.9-2.9,3.5
	c-2.2-0.5-3.3-5.3-0.8-8.5C35.9,51.6,35.1,50.9,34.6,51.4z"/>
<path class="st1" d="M46.4,51.4c-0.8,1.4-1.1,3-1,4.5c0,1,0,7.2,2.3,6.4l0.6-0.6c0.1-1-0.1-2-0.4-2.9c-0.3-1.4-0.3-2.8-0.2-4.1
	c0.2-1,0.2-1.9,0.2-2.9c0-0.2-0.1-0.3-0.2-0.5c-0.1-0.1-0.2-0.2-0.4-0.3c-0.2,0-0.3,0-0.5,0C46.6,51.1,46.5,51.2,46.4,51.4z"/>
<path class="st1" d="M51.6,52.2c-0.1,1-0.1,1.9,0,2.9c0,1.2,0,2.3-0.2,3.5c-0.1,0.9,0.1,1.8,0.6,2.5c1,0.8,1.2-1.9,1.2-2.3
	c0-2.1-0.2-4.3-0.2-6.4c0-0.2-0.1-0.3-0.2-0.4c-0.1-0.1-0.3-0.2-0.4-0.2C52,51.6,51.8,52,51.6,52.2z"/>
<path class="st1" d="M61.5,51.6c-1.5-2.5-6,0.8-6,5.4c0.1,0.8,0.3,1.6,0.8,2.4c0.4,0.7,1,1.3,1.7,1.8c0.7,0.4,1.6,0.6,2.4,0.6
	c0.9-0.1,1.7-0.4,2.3-1c0.7-0.6,1.1-1.4,1.2-2.3c0.2-0.8,0-2.3-1-2.5c-0.6-0.2-0.8,0.6-0.8,1c0.1,0.4,0,0.8-0.1,1.2
	c-0.1,0.4-0.4,0.8-0.7,1c-0.3,0.2-0.7,0.3-1.1,0.3c-0.4,0-0.8,0-1.2-0.1c-0.6-0.4-1.1-0.9-1.4-1.5c-0.3-0.6-0.4-1.3-0.3-2
	c0.3-0.9,0.6-1.7,1-2.5c0.2-0.4,0.5-0.8,0.9-1c0.4-0.2,0.9-0.3,1.3-0.3C61.3,52.4,61.7,52,61.5,51.6z"/>
<path class="st1" d="M68.3,51.2c-0.5,1.5-0.8,3-0.8,4.5c0,1,0,2.1,0.2,3.1c-0.1,0.5,0,0.9,0.2,1.4c0.2,0.4,0.5,0.8,0.9,1.1
	c0.2,0.2,0.4,0,0.6,0c0.8-0.8,0.4-2.7,0.4-3.9v-3.1c0.1-1,0.1-1.9,0-2.9C69.8,50.5,68.7,50.5,68.3,51.2z"/>
<path class="st1" d="M73.3,51.2c-0.2,1.5-1.2,7.6-0.8,8.3c0.2,0.4,0.8,0.8,1.2,0.4c0.5-0.7,0.7-1.6,0.6-2.5c0.2-2.1,0.2-4.1,0.4-6
	C74.9,50.5,73.5,50.3,73.3,51.2z"/>
<path class="st1" d="M153.8,48.9c-0.2,0.2-0.2,0.2-0.2,0.4c-0.2,0.7-0.2,1.5-0.2,2.3c-0.1,1.7,0,3.5,0.2,5.2
	c-0.1,0.8,0.1,1.6,0.4,2.3c0.2,0.4,0.4,0,0.6-0.2c1.5-2.2,0.5-6,0.8-8.5c0-0.4,0.2-1.2-0.2-1.7c-0.2-0.1-0.5-0.1-0.8-0.1
	C154.3,48.6,154,48.7,153.8,48.9z"/>
<path class="st1" d="M164.6,48.9c-0.4-0.6-1.1-1-1.8-1.1c-0.7-0.1-1.5,0.1-2.1,0.5c-1.5,1-1.9,2.9-2.1,4.8c-0.6,4.9,3.1,7.5,6.2,6
	c2.1-1,1.9-3,2.3-3.7c0-0.4,0.2-1.2-0.2-1.7c-0.2-0.2-0.8-0.4-1-0.2c-0.7,1-0.3,2.2-1.4,3.3c-0.1,0.2-0.3,0.3-0.5,0.4
	c-0.2,0.1-0.4,0.2-0.7,0.2c-0.2,0-0.5,0-0.7-0.1s-0.4-0.2-0.6-0.4c-0.5-0.4-0.8-0.8-1-1.4c-0.2-0.5-0.3-1.1-0.2-1.7
	c0-1.2,0.2-2.4,0.6-3.5c0.1-0.2,0.2-0.4,0.4-0.6c0.2-0.2,0.4-0.3,0.6-0.4c0.2-0.1,0.5-0.1,0.7-0.1c0.2,0,0.5,0.1,0.7,0.2
	c0,0.1,0.1,0.1,0.1,0.2c0.1,0,0.1,0.1,0.2,0.1c0.1,0,0.1,0,0.2,0c0.1,0,0.1,0,0.2-0.1c0.1,0,0.1-0.1,0.1-0.2c0-0.1,0.1-0.1,0.1-0.2
	c0-0.1,0-0.1,0-0.2C164.7,49,164.6,48.9,164.6,48.9z"/>
<path class="st1" d="M169.7,49.1c-0.9,1.9-1.2,4.1-0.6,6.2c0.4,1.2,1.4,2.5,2.7,2.3c3.8-0.4,5.2-8.2,1-9.9c-0.5-0.2-1-0.3-1.5-0.1
	c-0.5,0.2-0.9,0.5-1.2,0.9c-0.4,0.6,0.4,1.2,1,1c-1.3,0,0.7-0.2,1.4,0.6c0.4,0.4,0.6,0.9,0.8,1.4c0.1,0.7,0.1,1.4-0.2,2.1
	c0,0.4-0.2,0.8-0.4,1.2c-0.2,0.4-0.5,0.7-0.9,0.9c-0.2,0-0.4,0.2-0.6,0c-0.2,0-0.2-0.2-0.4-0.4c-1.2-1.7-0.8-4.1-0.4-6
	C170.8,48.9,169.9,48.5,169.7,49.1z"/>
<path class="st1" d="M180.3,47.8c-0.3,0.3-0.5,0.8-0.6,1.2c-0.2,0.9-0.4,1.8-0.4,2.7c0,2.5,0.4,4.9,1.2,7.2c0,0.2,0.4,0.6,0.6,0.4
	c0.2,0,0.2-0.2,0.2-0.4c0.2-1.1,0.2-2.2,0-3.3c-0.1-1.2-0.1-2.3,0-3.5c0.2-1.2,1-3.3,0-4.1C181,47.9,180.6,47.8,180.3,47.8z"/>
<path class="st1" d="M188.1,49.5c-0.2,0.2-0.2,0.2-0.2,0.4c-0.2,0.4,0,1,0,1.4c0,2.3-0.3,8.8,1.7,7.4c0.2-0.2,0.4-0.6,0.6-0.8
	c0.1-0.9,0.1-1.8,0-2.7v-4.7c0-0.2-0.1-0.5-0.2-0.7c-0.1-0.2-0.3-0.4-0.4-0.6C188.7,49.1,188.3,49.3,188.1,49.5z"/>
<path class="st1" d="M197.8,47.2c-3.5,2.4-5.2,6.4-2.5,9.5c2.4,2.8,7.6,0.7,7-4.1c-0.2-1-0.6-2-1.3-2.8c-0.7-0.8-1.6-1.4-2.6-1.7
	c-0.2,0-0.3,0-0.5,0c-0.2,0.1-0.3,0.2-0.4,0.3c-0.1,0.1-0.1,0.3-0.1,0.5c0,0.2,0.1,0.3,0.2,0.5c0.8,1,2,1.9,2.5,3.3
	c0.2,0.6,0.2,1.3-0.1,1.9c-0.3,0.6-0.7,1.1-1.4,1.4c-0.8,0.2-1.7-0.6-2.1-1c-1.4-2,0.4-4.6,2.3-6.2
	C199.3,47.8,198.4,46.8,197.8,47.2z"/>
<path class="st1" d="M205.5,49.9c0,0.8-0.2,1.7-0.2,2.3c0,4.2-0.1,5.6,0.6,6.6c0,0.1,0.1,0.2,0.2,0.2c0.1,0.1,0.2,0.1,0.3,0.1
	s0.2,0,0.3-0.1c0.1-0.1,0.1-0.1,0.2-0.2c1.3-1.8,1.1-8.2,0.4-10.3c-0.2-0.2-0.2-0.6-0.6-0.8C205.3,47.6,205.5,48.1,205.5,49.9z"/>
<path class="st1" d="M28,62.1c-3-1.1-5.5,3.1-4.7,6.3c0.1,0.7,0.5,1.4,1.1,1.8c0.6,0.5,1.3,0.7,2,0.7c0.7,0.1,1.5,0,2.1-0.4
	c0.7-0.3,1.2-0.8,1.6-1.4c1.8-2.5,0.8-6-0.2-6.3c-0.1,0-0.2-0.1-0.3-0.1c-0.1,0-0.2,0-0.3,0.1c-0.1,0-0.2,0.1-0.2,0.2
	c-0.1,0.1-0.1,0.2-0.2,0.2c-0.2,0.4,0.2,0.8,0.2,1.2c0.9,1.7-1.2,5.7-3.3,4.3c-0.4-0.4-0.7-0.8-0.8-1.4c-0.1-0.5-0.1-1.1,0-1.6
	c0.2-1.4,1.2-3.1,2.9-2.9C28.5,63.1,28.5,62.1,28,62.1z"/>
<path class="st1" d="M39.5,62c-1.4-0.4-2.4,0.8-2.9,1.8c-0.8,1.3-1.2,2.8-1.2,4.3c0,0.7,0.1,1.4,0.4,2.1c0.3,0.6,0.8,1.2,1.3,1.7
	c0.6,0.4,1.3,0.5,1.9,0.5c0.7-0.1,1.3-0.4,1.8-0.9c0.9-1,1.4-2.2,1.6-3.5v-2c0-1.5-1.2-2.2-1.8-1c-0.3,1.1,0.3,2.6-0.2,4.5
	c-0.4,1-1.4,2-2.4,1.2c-1.2-0.8-1-2.6-0.8-3.9c0.3-1.2,0.9-3.5,2.2-3.5c0.1,0,0.2-0.1,0.3-0.2c0.1-0.1,0.1-0.2,0.1-0.4
	c0-0.1,0-0.3-0.1-0.4C39.7,62.1,39.6,62,39.5,62z"/>
<path class="st1" d="M47,62.4c-0.4,2.4-0.4,4.8-0.2,7.3c0,0.8,0,2.2,1,2.2c1.8,0.3,0.6-3.2,0.6-9.2C48.2,61.8,47,61.6,47,62.4z"/>
<path class="st1" d="M53.3,62.5c-0.2,1.5-0.2,3-0.2,4.5c0,0.6,0.2,1.1,0.6,1.6c0.8,0.6,1.2-0.6,1.2-1.2c0-1.6-0.2-3.1-0.2-4.9
	c0-0.1,0-0.2,0-0.2c0-0.1-0.1-0.1-0.1-0.2c-0.1-0.1-0.1-0.1-0.2-0.1c-0.1,0-0.2,0-0.2,0C53.5,61.9,53.3,62.3,53.3,62.5z"/>
<path class="st1" d="M60.5,67.3c0-1.6,0.8-4.1,2.7-3.3c1.2,0.4,1.6,1.4,2.4,2c0.2,0.1,0.5,0.2,0.7,0.1c0.2,0,0.5-0.1,0.7-0.3
	c0.6-1-1-2.6-1.8-2.9c-0.5-0.4-1.1-0.7-1.7-0.8c-0.6-0.1-1.3,0-1.9,0.2c-2.4,1-2.6,2.7-2.6,5.3c0,0.2,0.2,0.3,0.3,0.4
	c0.1,0.1,0.3,0.1,0.5,0.1c0.2,0,0.3-0.1,0.4-0.2C60.4,67.6,60.5,67.4,60.5,67.3z"/>
<path class="st1" d="M145.8,62.8c0.6-1.2,1.4-2.7,2.9-2.9c1.5-0.4,2.8,3.1,3.7,2.7h0.2c1-0.6-0.2-2.2-0.6-2.6c-0.4-0.5-1-1-1.6-1.3
	c-0.6-0.3-1.3-0.5-2-0.5c-0.9,0.3-1.8,0.7-2.6,1.4c-0.6,0.9-1,1.8-1.4,2.7C144.6,62.8,145.6,63.2,145.8,62.8z"/>
<path class="st1" d="M157.2,58.3c-0.6,0-0.8,0.2-1,1.2c-0.2,4.7,2.4,8.8,1.8,0C158,59.7,158,58.5,157.2,58.3z"/>
<path class="st1" d="M161.5,58.9c-0.1,0.2-0.1,0.4-0.1,0.6s0.1,0.4,0.1,0.6c0,0.6,0.2,1.2,0.4,1.8c0,0.1,0.1,0.3,0.2,0.4
	c0.6,0.8,1.2-1,1.2-1.4c0-0.6-0.2-1.4-0.2-2c0-0.2-0.1-0.3-0.2-0.4c-0.1-0.1-0.3-0.2-0.4-0.2C161.9,58.1,161.7,58.5,161.5,58.9z"/>
<path class="st1" d="M167.6,63.4c0.2-0.8,0.6-1.6,1.2-2.2c0.6-0.6,1.6-1.8,2.4-1.2c0.2,0.2,0.4,0.4,0.4,0.6c0.8,1.5,1.1,3.2,0.8,4.9
	c-0.2,0.5-0.2,1-0.2,1.6c0,0.4,0.4,0.8,0.8,0.6c0.5-0.3,1-0.7,1.3-1.2c0.3-0.5,0.4-1.1,0.3-1.7c0.3-2.7-1.3-5.6-2.4-6.1
	c-1.4-1-3.1,0-4.1,1.2c-0.9,1-1.4,2.2-1.6,3.5C166.4,64,167.4,64,167.6,63.4z"/>
<path class="st1" d="M178,58.7c-0.3,0.6-0.3,1.3-0.2,2c0,1,0.2,2,0.4,2.9c0.2,1.3,0.7,2.5,1.4,3.5c0.6,0.8,0.8-0.6,0.8-1
	c0-1.3-0.2-2.6-0.4-3.9c-0.2-0.6-0.2-1.4-0.4-2c-0.2-0.6-0.2-1.2-0.4-1.8C179,58.1,178.4,58.3,178,58.7z"/>
<path class="st1" d="M185.6,58.9c-2.2,2.2-2.9,6.3-0.8,8.8c0.6,0.6,1.3,1,2.2,1.1c0.8,0.1,1.7-0.2,2.3-0.7c0.6-0.6,0.9-1.5,1-2.4
	c0.2-0.9,0.2-1.8,0.2-2.7c-0.1-1-0.3-2-0.8-2.9c-0.4-0.8-1.2-1.8-2.2-1.8c-0.1,0-0.2,0-0.3,0.1c-0.1,0.1-0.2,0.1-0.2,0.2
	c-0.1,0.1-0.1,0.2-0.1,0.3s0,0.2,0.1,0.3c0.2,0.6,0.8,1,1,1.4l0.6,1.8c0.3,1.3,0.1,2.7-0.4,3.9c-0.4,1-1.6,0.6-2.2,0
	c-1.1-1.1-1.5-4.5,0.2-7.1C186.6,58.9,185.8,58.5,185.6,58.9z"/>
<path class="st1" d="M196.2,58.3c-1.6,0.6-2.2,2.4-2.4,3.9c-0.3,1.9,0.1,3.9,1.2,5.5c0.2,0.4,0.6,0.7,1,1c0.4,0.2,0.8,0.4,1.3,0.4
	s0.9,0,1.3-0.2c0.4-0.2,0.8-0.4,1.1-0.8c1.1-1.5,1.6-3.4,1.4-5.3c-0.2-0.9-0.5-1.8-1-2.6c-0.7-0.7-1-1.8-2.4-1.8
	c-0.8-0.2-1.2,0.8-0.6,1.4c1.8,1.8,1.3,1.2,2,2.6c0.5,1.6,0,4-1.4,4.7c-0.2,0-0.5,0-0.7-0.1c-0.2-0.1-0.4-0.3-0.5-0.4
	c-0.9-1-1.3-2.4-1.2-3.7c-0.1-0.7,0-1.3,0.3-1.9c0.2-0.6,0.6-1.2,1.1-1.6C197.3,58.9,196.8,58.1,196.2,58.3z"/>
<path class="st1" d="M25.8,81.7c-0.8,3-0.9,6.1-0.2,9.1c0.2,0.6,1,1.2,1.7,0.6c0.4-0.6,0.2-1.7,0.2-2.3c-0.2-2.5-0.2-4.8-0.4-7.2
	c0-0.2,0-0.3-0.1-0.5c-0.1-0.1-0.2-0.2-0.4-0.3c-0.2,0-0.3,0-0.5,0.1C25.9,81.4,25.8,81.6,25.8,81.7z"/>
<path class="st1" d="M32.2,88.1c0.2-0.4,0.4-0.8,0.4-1.2c0.4-0.9,0.9-1.7,1.7-2.3c0.1-0.2,0.3-0.4,0.5-0.5C35,84,35.2,84,35.5,84
	c0.6-0.2,1.9-0.2,1.9-1c0.2-0.8-1-1.2-1.7-1.2c-1,0.2-1.9,0.6-2.7,1.2c-0.8,0.8-1.4,1.7-1.9,2.7c-0.2,0.6-1,2.7,0.2,2.9
	C31.7,88.7,32,88.5,32.2,88.1z"/>
<path class="st1" d="M199.7,78.8c-0.4,0.8-0.5,1.7-0.2,2.5c0.2,0.4,0.8,1.4,1.2,0.8c0.4-0.2,0.4-0.8,0.4-1.2c0-0.7,0-1.4-0.2-2.1
	C200.9,78.2,200.1,78.4,199.7,78.8z"/>
<path class="st1" d="M207.1,78.6c-0.5,0.3-0.4,1.2-0.4,2.9c0.1,1.1,0.3,2.2,0.6,3.3c0,0.2,0,0.8,0.2,1c0.2,0.1,0.3,0.2,0.5,0.2
	s0.4-0.1,0.5-0.2c0.2-0.2,0.4-0.5,0.4-0.8c0.2-1.2,0.2-2.3,0.2-3.5c0-0.6-0.2-1.1-0.4-1.7C208.2,79.5,207.5,78.4,207.1,78.6z"/>
<path class="st0" d="M146.8,122.4c5-3.7,11.8-5.5,17.6-3.7c2.1,0.6,3.9,1.9,6,2.3c0.4,0.2,1-0.4,0.6-0.8c-2.2-3.3-9-4.7-12.8-4.3
	c-4.7,0.4-9,2.3-12.4,5.6C145.2,122.2,146,123,146.8,122.4z"/>
<path class="st0" d="M151.1,127.6c1.9-1.2,3.9-2.1,6-2.7c2.1-0.4,4.1-0.2,6.2-0.6c0.4-0.2,0.6-0.8,0.2-1c-3.9-2.3-9.9,0.7-13,3.1
	C149.7,127,150.5,128,151.1,127.6z"/>
<path class="st0" d="M159.4,131.7c1.7-0.2,3.1-1,4.8-1.2c0.8,0.1,1.7-0.1,2.5-0.4c0.2-0.2,0.4-0.6,0-0.8c-1.2-1.2-3.3-0.8-4.8-0.4
	c-1,0.2-2,0.6-2.9,1.2C158.2,130.7,158,131.9,159.4,131.7z"/>
<path class="st0" d="M163.1,140c1.7-1.2,3.7-1.9,5.7-2.1c2.1-0.2,4.1,0.1,6,0.9c0.4,0.2,3.5,1.2,2.5-0.4c-1.2-2.3-5.2-2.7-7.4-2.5
	c-1.9,0.1-3.7,0.6-5.4,1.4c-0.8,0.4-1.6,1-2.3,1.7C161.9,139.4,162.3,140.6,163.1,140z"/>
<path class="st0" d="M46.6,144.7c1.9-2.2,4.1-4.1,6.6-5.6c2.6-1.3,5.6-1.8,8.5-1.4h0.6c0.8-0.2,0.8-1.4,0.2-1.9
	c-2.6-2.3-14.7,1.4-16.9,8.3c0,0.1,0,0.3,0,0.4s0.1,0.2,0.3,0.3c0.1,0.1,0.3,0.1,0.4,0.1C46.4,144.9,46.5,144.8,46.6,144.7z"/>
<path class="st0" d="M53.4,146c1.6-0.9,3.4-1.4,5.2-1.7c0.6,0,4.6,0.2,3.5-1.2c-0.6-0.8-2.5-0.6-3.5-0.6c-2.1,0.2-4.1,1-5.8,2.3
	C52,145.3,52.6,146.6,53.4,146z"/>
<path class="st0" d="M60.7,149.7c-1.2-0.5-2.6-0.6-3.9-0.2c-0.7,0.2-1.4,0.5-1.9,1c-0.5,0.6,0.9,0.8,1,0.8c1.8,0.1,3.6,0.3,5.4,0.6
	C63.1,152,61.5,150,60.7,149.7z"/>
<path class="st0" d="M49.1,159.8c2.9-0.6,5.8-0.9,8.7-0.8c1.5,0,3.1,0.2,4.5,0.6c0.4,0,3.1,0.4,2.1-1c-0.8-1.2-3.1-1.4-4.5-1.7
	c-3.8-0.5-7.6,0-11.2,1.4C47.9,158.6,48.3,160,49.1,159.8z"/>
<path class="st0" d="M176.8,119.7c6,0.6,11.9,2.2,17.4,4.8c5.4,2.6,9.9,6.6,14.3,10.9c0.6,0.6,1.7-0.2,1.2-0.8
	c-6-8.6-19.4-15.9-32.6-15.7C176.1,118.9,176.3,119.7,176.8,119.7z"/>
<path class="st0" d="M26.2,137.9c9.7-0.7,8-0.6,12.6-0.6c1.4,0.2,2.8,0.1,4.1-0.2c0.6-0.2,0.4-0.8,0-1c-1.4-0.3-2.9-0.5-4.3-0.6
	h-4.1c-2.8,0.2-5.5,0.6-8.3,1.2c-0.2,0-0.3,0.1-0.4,0.2c-0.1,0.1-0.2,0.3-0.2,0.4c0,0.2,0.1,0.3,0.2,0.4
	C25.9,137.8,26,137.9,26.2,137.9z"/>
<path class="st0" d="M129.2,43.3c-3-3.7-6.8-6.6-11.2-8.7c-1.4-0.6-2.9-0.9-4.4-0.9c-1.5,0-3,0.3-4.4,0.9c-6.4,2.6-11.1,8.1-14,14
	c-1.6,3.3-3.3,7-3.1,10.9c0.4,7,7.7,9.8,13.2,12c3.1,1.2,6.4,2.3,8.9,4.5c0.6,0.4,1.9,0.4,1.9-0.4c0.8-4.3,6.2-6.4,9.5-8.7
	C135.2,60.6,136,51.6,129.2,43.3z M111.5,45.4c0-0.4,0.6-0.6,0.8,0c0.2,1.4,1,6.4,1,7.2c0,0.6-0.2,2.3-1.2,1.7
	C111.1,53.6,111.3,47.4,111.5,45.4z M112.7,60.4c-0.1,0-0.2,0-0.3-0.1c-0.1-0.1-0.1-0.1-0.2-0.2c0-0.1,0-0.2,0-0.3
	c0-0.1,0.1-0.2,0.2-0.2c1-0.8,8.9-2.7,8.7-3.5c0-0.8,1-1.2,1.4-0.6c0.2,0.3,0.3,0.6,0.3,0.9c0,0.3-0.1,0.7-0.3,0.9
	C122.2,58.2,114,60.7,112.7,60.4z"/>
<path class="st0" d="M86.3,49.9c-1,1.8-1.7,3.9-2,5.9c-0.2,2.1-0.1,4.2,0.5,6.2c1.2,3.5,3.7,7,7.4,8.3c0.4,0.2,0.8-0.4,0.4-0.8
	c-2.7-2.3-5.2-4.5-6.4-7.8c-1.4-3.7-1.2-7.8,0.4-11.4C86.9,49.9,86.5,49.5,86.3,49.9z"/>
<path class="st0" d="M111.1,168.5c0,0.4,0.2,0.8,0.4,1c0.3,0.3,0.6,0.4,1,0.4c0.4,0,0.8-0.2,1-0.4c0.3-0.3,0.4-0.6,0.4-1
	c0-0.4-0.2-0.8-0.4-1c-0.3-0.3-0.6-0.4-1-0.4c-0.4,0-0.8,0.2-1,0.4C111.2,167.7,111.1,168.1,111.1,168.5z"/>
</svg>
