<svg width="240" height="240" viewBox="0 0 240 240" fill="none" xmlns="http://www.w3.org/2000/svg">
<path d="M80.6028 91.7867C73.9015 92.4402 67.2847 93.7775 60.8556 95.7779C42.2916 101.564 26.3892 111.912 16.32 128.129C7.92962 141.642 1.46162 168.72 10.0176 181.908C18.7452 195.355 35.3832 197.581 50.562 192.828C51.9364 192.379 53.2713 191.817 54.5532 191.148C54.6823 191.045 54.7722 190.901 54.8078 190.74C54.8434 190.579 54.8225 190.41 54.7487 190.263C54.6749 190.115 54.5526 189.997 54.4024 189.929C54.2521 189.861 54.0829 189.846 53.9232 189.888C44.0496 193.039 33.3444 194.49 23.4624 190.308C14.9184 186.691 9.43562 180.064 8.34242 170.771C6.96002 159.15 11.0748 142.414 16.53 132.12C25.0404 116.064 40.3728 105.781 57.2844 99.1379C69.4476 95.0831 70.1532 95.5535 76.1916 93.8855C77.7094 93.4426 79.2527 93.092 80.8128 92.8355C80.9377 92.7942 81.0432 92.7086 81.1094 92.5949C81.1755 92.4812 81.1978 92.3472 81.172 92.2182C81.1461 92.0892 81.074 91.9741 80.9692 91.8946C80.8643 91.8151 80.734 91.7767 80.6028 91.7867Z" fill="white"/>
<path d="M231.017 142.414C225.515 124.162 216.122 112.18 201.816 102.71C194.198 97.7919 185.925 93.9727 177.24 91.3657C169.193 88.6786 160.711 87.5385 152.24 88.0057C150.948 88.0969 149.658 88.1509 148.368 88.2193C150.773 84.4298 152.177 80.092 152.448 75.6121C153.011 67.2037 150.175 59.0005 146.987 51.4537C143.909 44.1057 139.573 37.3515 134.172 31.4953C129.327 26.2549 122.6 20.8717 114.845 22.0417C111.124 22.7625 107.651 24.4287 104.76 26.8801C97.9451 32.1781 91.6655 39.6769 86.0639 51.8785C83.0185 58.2864 80.829 65.0669 79.5515 72.0457C78.8567 76.2361 78.6839 80.4601 80.3915 84.4405C84.9287 95.0089 97.6199 98.5501 108.541 102.08C110.437 102.694 112.322 103.34 114.213 103.97C114.423 104.18 114.633 103.34 114.213 103.13C101.613 96.8281 80.8115 93.6781 80.8115 77.9221C80.2487 67.7773 91.4735 36.1153 109.172 26.0329C110.754 25.0473 112.517 24.3905 114.358 24.1019C116.199 23.8132 118.079 23.8986 119.886 24.3529C129.126 26.7913 137.751 38.6965 142.153 47.2501C145.484 53.7217 149.067 63.4501 149.713 70.1485C150.558 76.8012 148.747 83.519 144.673 88.8457C140.077 94.5373 133.041 97.7077 126.397 100.819C124.695 101.616 123.037 102.29 121.357 103.13C120.307 103.55 121.14 105.424 122.197 105.022C129.713 102.162 137.299 99.1105 143.415 93.8869C144.819 92.6899 146.09 91.3458 147.206 89.8777C154.862 89.8105 162.666 89.9977 170.095 91.7869C178.77 93.8273 187.113 97.0801 194.88 101.449C211.377 110.845 220.454 121.987 226.391 137.162C231.044 149.059 233.381 160.416 229.332 172.454C227.197 178.802 222.505 185.344 215.892 187.37C211.533 188.519 206.934 188.373 202.657 186.95C193.177 184.159 184.802 177.121 177.869 171.83C177.029 171.193 176.197 172.452 176.819 173.092C182.816 179.198 189.86 184.178 197.616 187.796C202.639 189.942 208.11 191.308 213.576 190.528C221.548 189.39 227.366 183.142 230.592 176.032C235.484 165.254 234.443 153.785 231.017 142.414Z" fill="white"/>
<path d="M128.289 152.918C132.953 153.851 137.713 152.854 152.868 155.018C154.339 155.228 156.439 155.648 157.28 156.91C158.54 158.8 158.33 161.741 157.91 163.63C157.211 167.83 156.686 168.823 151.398 182.746C148.887 189.206 146.012 195.519 142.784 201.653C140.186 206.849 136.749 204.74 126.189 207.115C125.349 207.305 125.768 208.375 126.399 208.375C130.231 208.924 134.121 208.924 137.953 208.375C140.184 208.11 142.222 206.978 143.625 205.224C144.407 204.157 145.109 203.034 145.725 201.864C146.915 199.547 147.967 197.162 148.877 194.722C150.21 191.602 151.419 188.638 152.658 185.482C157.952 171.988 160.944 164.779 159.8 158.592C159.694 157.54 159.306 156.537 158.677 155.687C158.049 154.836 157.203 154.171 156.229 153.761C151.052 151.616 133.077 151.457 128.079 152.29C127.869 152.287 127.869 152.918 128.289 152.918Z" fill="white"/>
<path d="M161.692 190.101C158.923 188.869 155.886 188.363 152.868 188.63C152.028 188.63 152.028 189.681 152.868 189.681C155.413 189.864 157.904 190.504 160.222 191.571C161.497 192.18 161.746 192.779 160.642 193.883C158.155 196.516 155.487 198.973 152.658 201.235C151.767 202.052 150.779 202.757 149.718 203.336C148.644 204.061 147.657 204.906 146.777 205.856C146.357 206.276 146.777 206.907 147.407 206.907C148.862 206.583 150.225 205.937 151.398 205.016C152.675 204.225 153.871 203.31 154.969 202.285C157.129 200.516 159.109 198.747 161.075 196.807C160.751 198.666 159.95 200.409 158.75 201.865C157.673 203.292 156.479 204.627 155.179 205.856C153.866 206.955 152.461 207.939 150.979 208.797C148.459 210.477 146.358 212.789 143.419 214.05C141.675 214.72 139.825 215.076 137.957 215.1C135.994 215.1 116.587 215.94 107.286 215.94C86.7468 215.94 93.0984 218.035 78.5052 209.427C72.9984 206.179 71.3892 205.032 70.4592 199.919C72.6127 201.693 74.8795 203.326 77.2452 204.806C78.3866 205.65 79.5793 206.422 80.8164 207.117C81.9251 207.972 83.2225 208.549 84.6 208.8C84.7055 208.79 84.8073 208.757 84.8975 208.701C84.9876 208.646 85.0637 208.57 85.1196 208.481C86.8908 210.641 89.4024 210.061 92.3736 210.061C98.2644 210.061 113.954 210.317 119.263 208.8C119.473 208.8 119.263 207.96 118.842 207.96C116.322 207.75 113.802 207.96 111.282 207.96C93.258 207.96 95.5393 207.75 89.6449 207.75C88.5949 207.75 87.5436 207.96 86.7036 206.91C86.0889 205.848 85.5954 204.721 85.2324 203.55C82.6428 197.07 79.0884 190.399 76.2 183.383C74.5143 179.975 73.0411 176.467 71.7888 172.878C70.7376 169.307 69.6876 165.318 70.7376 161.534C71.7888 158.174 75.57 157.123 78.7212 156.283C78.8698 156.236 78.9965 156.137 79.0779 156.005C79.1593 155.872 79.1899 155.714 79.1642 155.56C79.1385 155.407 79.0581 155.268 78.9379 155.169C78.8177 155.07 78.6657 155.018 78.51 155.022C75.1501 155.022 71.7384 155.191 69.4776 157.963C67.1136 160.862 67.1664 164.683 67.7976 168.257C68.7204 174.097 72.6624 181.565 76.8312 190.945C78.5112 194.726 80.1912 198.297 82.0836 202.079C82.7136 203.34 83.1336 204.599 83.7636 205.86C83.8212 206.034 83.8836 206.208 83.9508 206.381C83.4853 206.042 83.0023 205.728 82.5036 205.44C81.4524 204.81 80.6124 204.18 79.5624 203.55C77.5192 202.27 75.5556 200.868 73.6824 199.35C72.6324 198.72 69.4824 196.83 70.7412 195.15C71.3712 194.31 72.2124 194.31 73.2612 194.1C74.4038 193.919 75.5281 193.638 76.6212 193.26C76.8312 193.049 76.6212 192.42 76.4112 192.42C75.0995 192.105 73.7318 192.105 72.42 192.42C69.0144 192.987 67.86 195.18 68.6052 197.307C68.3814 200.128 68.9764 202.954 70.3188 205.445C71.308 206.893 72.5977 208.111 74.1 209.016C75.8428 210.258 77.6678 211.38 79.5624 212.376C91.2432 218.864 89.3917 218.048 96.5785 218.048C98.8897 218.048 134.182 217.208 136.493 217.208C143.665 217.208 145.3 215.802 150.988 211.536C153.599 209.298 160.158 206.198 162.961 198.721C163.345 197.111 163.507 195.455 163.441 193.801C163.945 192.131 163.135 190.968 161.692 190.101Z" fill="white"/>
<path d="M112.113 180.648C112.535 180.018 112.745 179.176 113.375 178.968C114.635 178.338 117.575 178.758 117.575 180.648C117.575 181.698 116.315 182.118 115.473 182.538C112.381 184.084 112.455 187.37 114.003 187.37C114.393 187.362 114.766 187.213 115.053 186.95C115.263 186.74 115.263 185.899 115.473 185.899C116.313 184.849 117.596 184.665 118.625 183.799C119.062 183.414 119.409 182.936 119.64 182.401C119.87 181.865 119.98 181.286 119.96 180.703C119.94 180.12 119.791 179.549 119.523 179.031C119.256 178.513 118.878 178.061 118.415 177.706C117.558 177.125 116.564 176.78 115.531 176.706C114.499 176.633 113.465 176.833 112.535 177.286C111.273 177.706 109.803 179.806 111.273 181.068C111.48 181.278 111.903 181.068 112.113 180.648Z" fill="white"/>
<path d="M86.6953 155.019C83.1745 149.034 78.1753 145.365 74.3005 135.062C73.1005 131.885 73.2553 128.134 75.5617 125.609C76.5571 124.453 77.8348 123.575 79.2705 123.059C80.7062 122.544 82.2509 122.409 83.7541 122.668C85.7458 123.187 87.6066 124.117 89.2165 125.399C90.8965 126.869 92.3677 128.759 93.8377 130.23C95.0977 131.28 96.9889 129.81 96.1489 128.55C94.8942 126.629 93.3326 124.926 91.5265 123.51C82.8493 114.832 69.9949 121.726 71.1493 132.124C71.5693 135.905 73.4713 139.469 75.3493 142.628C78.0949 147.239 81.4405 152.501 86.0629 155.441C86.4853 155.86 87.1201 155.439 86.6953 155.019Z" fill="white"/>
<path d="M123.249 149.767C120.547 146.59 112.329 137.793 111.064 136.533C110.014 135.483 108.123 134.013 106.443 134.641C104.131 135.693 86.6954 146.401 86.0654 148.716C85.4354 150.396 83.3594 156.695 83.5454 157.956C83.7854 159.636 95.3222 172.017 98.2502 174.552C99.9386 176.014 101.194 176.447 103.083 175.602C107.289 173.722 123.243 162.154 123.88 160.687C124.707 158.795 125.374 152.267 123.249 149.767ZM114 155.019C112.335 156.099 107.488 159.851 106.44 159.851C105.179 160.061 104.969 155.86 103.709 151.027C102.999 151.159 102.268 151.112 101.581 150.891C100.894 150.67 100.272 150.282 99.7727 149.761C99.2729 149.24 98.9104 148.604 98.7177 147.908C98.5251 147.212 98.5083 146.48 98.669 145.776C99.6182 140.713 107.909 144.305 106.443 149.136C106.233 149.137 117.186 152.964 114 155.019ZM92.1602 152.919C95.7314 156.49 102.664 164.892 103.08 165.102C104.13 165.732 105.811 164.262 106.861 163.632C108.961 162.371 110.643 160.272 113.164 159.432C113.794 159.222 114.424 160.272 113.794 160.692C111.936 162.358 109.972 163.902 107.914 165.313C106.038 166.596 103.714 168.045 101.821 166.365C99.0278 163.57 96.8846 160.218 95.309 158.381C94.6773 157.591 94.1152 156.748 93.629 155.861C93.419 155.44 92.999 155.021 92.789 154.6C92.579 154.179 92.159 153.76 91.949 153.34C91.1066 153.129 91.7366 152.499 92.1602 152.919Z" fill="#D1D0D6"/>
<path d="M100.56 124.768C101.457 123.903 102.11 122.815 102.451 121.617C103.1 120.325 103.661 118.992 104.131 117.625C104.208 117.345 104.188 117.047 104.073 116.78C103.959 116.513 103.757 116.293 103.501 116.155C103.243 116.061 102.961 116.051 102.697 116.126C102.433 116.202 102.199 116.359 102.03 116.575C101.451 117.727 100.959 118.921 100.56 120.147C100.019 121.272 99.664 122.478 99.5098 123.718C99.5098 124.56 99.9298 125.188 100.56 124.768Z" fill="white"/>
<path d="M106.022 128.339C108.332 127.499 110.433 126.659 112.742 125.609C113.372 125.188 114.212 124.558 113.582 123.718C113.162 123.088 112.321 123.298 111.902 123.508C109.802 124.348 107.702 125.609 105.6 126.659C104.551 127.289 105.181 128.76 106.022 128.339Z" fill="white"/>
<path d="M24.4907 34.2338C23.954 37.1277 23.7531 40.0739 23.8921 43.0139C23.7594 43.8828 23.8276 44.7707 24.0916 45.6091C24.1527 45.7431 24.251 45.8568 24.3748 45.9365C24.4986 46.0162 24.6428 46.0585 24.7901 46.0585C24.9373 46.0585 25.0815 46.0162 25.2053 45.9365C25.3292 45.8568 25.4275 45.7431 25.4885 45.6091C25.9093 44.8134 26.0487 43.8988 25.8842 43.0139C25.9504 40.1467 25.817 37.2785 25.4851 34.4299C25.4885 33.8313 24.4907 33.6317 24.4907 34.2338Z" fill="#D1D0D6"/>
<path d="M37.9402 35.7765C37.2047 32.4697 31.8888 32.2941 30.7565 37.9715C30.3563 39.9681 29.9583 42.1643 30.7565 44.1597C31.1079 44.988 31.7429 45.664 32.5476 46.0665C33.3524 46.469 34.2741 46.5716 35.1477 46.3559C36.1082 45.8949 36.8828 45.1202 37.3438 44.1597C37.885 43.03 38.2228 41.8137 38.3416 40.5667C38.3297 40.4796 38.2967 40.3967 38.2455 40.3253C38.1943 40.2538 38.1264 40.1959 38.0478 40.1566C37.9692 40.1173 37.8821 40.0977 37.7942 40.0996C37.7063 40.1016 37.6202 40.1249 37.5434 40.1676C35.8444 41.8667 36.1169 44.1666 34.549 44.5588C31.687 45.2749 31.8979 38.8575 33.5502 36.3751C33.7807 36.0631 34.0818 35.8101 34.4288 35.6367C34.7758 35.4633 35.1589 35.3744 35.5468 35.3774C35.9133 35.3324 36.2847 35.4047 36.6076 35.584C36.9305 35.7632 37.1882 36.0402 37.3438 36.3751C37.4992 36.3654 37.6456 36.2991 37.7555 36.1888C37.8653 36.0785 37.931 35.9319 37.9402 35.7765Z" fill="#D1D0D6"/>
<path d="M43.5954 33.3206C43.254 34.1405 43.1171 35.0312 43.1963 35.9158C43.1963 36.9136 42.3981 45.298 42.7972 46.2923C42.9968 46.8909 43.9945 47.29 44.3936 46.4918C44.9934 45.2946 44.7927 43.697 44.9934 42.3002C44.9934 35.7585 45.0914 34.3628 44.5931 33.1176C44.5931 32.9215 43.795 32.9215 43.5954 33.3206Z" fill="#D1D0D6"/>
<path d="M49.4204 35.6233V40.0167C49.32 41.2789 49.32 42.5471 49.4204 43.8093C49.4204 44.4079 49.6199 45.0066 50.4181 45.0066H51.0167C51.1385 44.9116 51.2375 44.7907 51.3066 44.6526C51.3756 44.5145 51.413 44.3628 51.4158 44.2084C51.5792 41.2682 51.3781 38.3191 50.8172 35.4283C50.7678 35.2655 50.6619 35.1256 50.5186 35.034C50.3753 34.9423 50.2039 34.9049 50.0354 34.9284C49.8669 34.9519 49.7123 35.0348 49.5995 35.1622C49.4868 35.2897 49.4232 35.4532 49.4204 35.6233Z" fill="#D1D0D6"/>
<path d="M62.7951 36.9362C62.9815 36.4767 63.0428 35.9759 62.9727 35.4849C62.9026 34.994 62.7036 34.5304 62.396 34.1414C62.1213 33.7855 61.7468 33.5195 61.3203 33.3773C60.8938 33.2352 60.4347 33.2233 60.0014 33.3432C56.9763 34.1745 54.3 40.9545 56.8086 44.7208C58.0059 46.5179 60.4016 47.5157 61.9991 45.7197C62.7168 44.8038 63.1349 43.689 63.1964 42.527C63.396 41.3285 63.7951 39.3342 62.9969 38.3342C62.9476 38.2451 62.8753 38.1708 62.7876 38.1191C62.6998 38.0673 62.5999 38.0401 62.498 38.0401C62.3962 38.0401 62.2962 38.0673 62.2085 38.1191C62.1207 38.1708 62.0485 38.2451 61.9991 38.3342C61.2249 39.8815 62.0242 41.3639 61.0003 43.9215C60.9379 44.1199 60.8233 44.2979 60.6685 44.4369C60.5138 44.5758 60.3246 44.6707 60.1206 44.7115C59.9167 44.7523 59.7055 44.7375 59.5092 44.6687C59.3129 44.6 59.1387 44.4797 59.0048 44.3206C57.3354 42.6524 57.4426 38.0902 59.4039 35.7378C59.803 35.138 60.6012 34.3398 61.3994 34.9396C61.9992 35.3387 61.9991 36.138 61.9991 36.7367C61.9991 37.3353 62.5955 37.5326 62.7951 36.9362Z" fill="#D1D0D6"/>
<path d="M69.121 38.3281C68.1233 40.3247 67.0925 42.7432 68.5224 44.7136C68.769 45.11 69.1048 45.4433 69.5031 45.6869C69.9014 45.9305 70.3512 46.0775 70.8164 46.1164C71.2817 46.1553 71.7496 46.0849 72.1828 45.9108C72.616 45.7367 73.0025 45.4638 73.3115 45.1138C74.6259 43.321 75.3266 41.1519 75.3093 38.929C75.5088 36.9324 75.1097 34.5367 72.9147 33.938C72.36 33.7708 71.7704 33.7566 71.2083 33.8972C70.6463 34.0377 70.1327 34.3276 69.7219 34.7362C69.2879 35.3216 69.0129 36.0095 68.9238 36.7328C68.9571 36.9799 69.0463 37.2162 69.1846 37.4236C69.3229 37.6311 69.5067 37.8043 69.7219 37.9301C70.1222 38.1297 70.5201 37.9301 70.5201 37.531C70.7197 37.1319 70.7197 36.7328 70.9192 36.3337C71.0609 36.0511 71.3041 35.8325 71.6001 35.7215C71.8961 35.6105 72.223 35.6153 72.5156 35.7351C73.714 36.1342 73.714 37.9301 73.714 39.1285C73.6481 40.7267 73.239 42.292 72.5145 43.7181C72.3149 44.1172 71.9158 44.7159 71.3172 44.7159C71.0004 44.7768 70.6723 44.7316 70.3837 44.5873C70.0951 44.4431 69.8621 44.2077 69.7208 43.9177C68.5235 42.5208 69.3217 40.3247 69.7208 38.7283C70.1188 38.1308 69.3206 37.929 69.121 38.3281Z" fill="#D1D0D6"/>
<path d="M80.322 35.6579C79.9923 36.7572 79.8568 37.9055 79.9217 39.0514C79.9217 40.2498 79.7222 41.6466 79.7222 42.845C79.6802 43.093 79.6943 43.3472 79.7636 43.5889C79.8328 43.8307 79.9555 44.0538 80.1224 44.2419C80.322 44.641 80.7211 44.641 81.1202 44.4414C81.9184 43.8428 81.7188 42.2453 81.7188 41.2487V38.2497C81.7188 37.4516 81.9184 36.2543 81.5193 35.6545C81.1202 35.2554 80.5215 35.2554 80.322 35.6579Z" fill="#D1D0D6"/>
<path d="M146.987 36.3262C144.749 39.6862 145.385 46.4254 149.507 47.2462C150.509 47.2647 151.492 46.9716 152.32 46.4073C153.148 45.843 153.78 45.0354 154.129 44.0962C155.43 40.7362 155.272 36.481 152.449 34.2226C152.189 34.0377 151.895 33.9071 151.583 33.8386C151.271 33.7701 150.949 33.7651 150.635 33.8239C150.322 33.8827 150.023 34.0041 149.758 34.1808C149.492 34.3576 149.265 34.586 149.089 34.8526C148.879 35.2726 149.089 36.1126 149.72 35.9026C150.709 35.9026 151.34 35.8426 151.61 36.1126C152.152 36.616 152.519 37.2781 152.66 38.0038C153.268 39.5569 153.268 41.2818 152.66 42.835C151.154 46.4734 148.232 46.0978 147.62 42.415C147.236 40.5216 147.381 38.5587 148.04 36.7426C148.037 36.1198 147.197 35.6962 146.987 36.3262Z" fill="#D1D0D6"/>
<path d="M159.38 34.8562C159.17 35.2762 159.17 35.6962 158.96 35.9062C158.505 39.1495 158.792 42.4538 159.8 45.5698C159.8 45.7798 160.22 46.4098 160.43 46.4098C160.85 46.4098 160.85 45.7798 160.85 45.3598C161.141 43.4802 161.141 41.567 160.85 39.6874C160.847 38.1949 160.635 36.71 160.22 35.2762C160.213 35.1673 160.166 35.0646 160.089 34.9874C160.012 34.9102 159.909 34.8636 159.8 34.8562C159.8 34.4398 159.38 34.4398 159.38 34.8562Z" fill="#D1D0D6"/>
<path d="M166.313 34.6465C166.091 34.8779 165.945 35.1706 165.893 35.4865C165.893 35.9065 165.683 36.3265 165.683 36.7465V39.4801C165.89 41.1373 166.403 45.4537 167.574 46.6225C167.994 47.0425 168.414 46.8325 168.414 46.2025C168.519 45.2249 168.519 44.2389 168.414 43.2613C168.309 41.8633 168.309 40.4593 168.414 39.0613C168.448 38.2158 168.378 37.3694 168.204 36.5413C167.994 35.9113 167.574 34.8613 166.944 34.6513L166.313 34.6465Z" fill="#D1D0D6"/>
<path d="M172.825 35.4867C172.326 35.9859 172.294 42.9339 173.876 45.5667C174.506 46.4067 174.716 45.1467 174.926 44.5167C175.262 42.1647 174.637 37.9995 174.296 35.2767C174.086 34.4403 173.04 35.0667 172.825 35.4867Z" fill="#D1D0D6"/>
<path d="M183.75 35.0667C183.413 34.6937 182.981 34.4187 182.5 34.2708C182.019 34.123 181.508 34.1077 181.019 34.2267C180.493 34.3635 180.007 34.6261 179.605 34.9918C179.202 35.3576 178.894 35.8157 178.708 36.3267C176.05 41.6439 179.17 48.0867 182.699 48.0867C187.105 48.0867 189.451 39.9267 187.111 37.5831C186.69 37.1619 186.06 36.5319 185.431 36.9519C184.591 37.5831 186.061 38.8431 186.061 39.4719C186.278 40.2978 186.278 41.1659 186.061 41.9919C185.667 43.4691 185.011 45.5631 183.33 46.1919C181.649 46.8207 180.6 44.9319 180.179 43.6719C178.957 40.8195 179.767 37.5723 180.81 36.5295C181.44 36.1095 182.28 35.6895 182.91 36.1095C183.329 36.5367 184.17 35.6967 183.75 35.0667Z" fill="#D1D0D6"/>
<path d="M193.2 34.8565C192.57 35.0665 192.78 36.3265 192.78 36.9565C192.697 38.7799 192.767 40.6071 192.99 42.4189C193.03 42.9992 193.172 43.5678 193.41 44.0989C193.403 44.3446 193.458 44.5881 193.568 44.8079C193.678 45.0277 193.84 45.2169 194.041 45.3589C194.251 45.5689 194.461 45.1489 194.671 44.9389C195.195 43.6285 195.091 42.2989 195.091 37.5865C195.051 37.0061 194.909 36.4374 194.671 35.9065C194.253 35.2801 193.622 34.6465 193.2 34.8565Z" fill="#D1D0D6"/>
<path d="M200.345 35.6967C196.535 39.5079 197.225 45.9975 201.396 47.0403C205.908 48.1683 210.575 42.2919 208.116 37.3779C207.652 36.2469 206.843 35.2911 205.805 34.6467C204.755 34.0167 203.285 33.3855 202.233 34.2267C202.132 34.343 202.076 34.4922 202.076 34.6467C202.076 34.8011 202.132 34.9504 202.233 35.0667C202.839 35.5805 203.56 35.9407 204.335 36.1167C204.987 36.4904 205.558 36.9906 206.015 37.5879C207.834 40.7703 205.628 44.9403 202.443 44.9403C199.221 44.9403 198.77 39.1419 201.183 36.3267C201.606 35.9067 200.976 35.2803 200.345 35.6967Z" fill="#D1D0D6"/>
<path d="M22.2 55.024C21.1908 56.9368 19.944 59.2108 20.52 61.5364C20.7158 62.4804 21.2093 63.3368 21.9279 63.9796C22.6466 64.6224 23.5524 65.0178 24.5124 65.1076C26.6124 65.3176 28.5036 63.4276 29.3436 61.5364C29.8957 60.6319 30.2387 59.6155 30.3477 58.5614C30.4567 57.5074 30.3289 56.4423 29.9736 55.444C28.9176 52.9396 24.8004 52.2448 24.5124 53.9728C24.5124 55.4452 25.5288 54.9424 26.4024 55.234C27.8304 55.234 29.5068 57.4276 28.0824 60.274C27.4512 61.5352 26.4024 63.0052 25.1412 63.2152C23.88 63.4252 22.83 62.1652 22.41 61.1152C21.78 59.224 22.41 57.1228 23.04 55.2352C23.2524 55.024 22.4208 54.6088 22.2 55.024Z" fill="#D1D0D6"/>
<path d="M34.8073 54.182C34.7941 54.302 33.9673 61.982 33.9673 63.422C33.9673 64.052 34.1773 64.8932 34.8073 64.8932C35.8573 64.8932 35.8573 63.842 36.0673 63.2132C36.2773 60.2761 36.2773 57.3278 36.0673 54.3908C36.0673 53.7596 34.8073 53.552 34.8073 54.182Z" fill="#D1D0D6"/>
<path d="M40.4785 54.3932C40.1994 55.7043 40.1286 57.0512 40.2685 58.3844V62.3756C40.2685 63.0056 40.2685 64.2656 41.3197 64.2656C42.5797 64.2656 42.3697 62.3756 42.3697 61.5356C42.4853 59.1529 42.4151 56.7649 42.1597 54.3932C41.7397 53.7596 40.6885 53.7596 40.4785 54.3932Z" fill="#D1D0D6"/>
<path d="M51.402 53.7597C51.0545 53.4699 50.6261 53.2942 50.1752 53.2566C49.7243 53.219 49.2727 53.3214 48.882 53.5497C48.071 54.2909 47.3641 55.1386 46.7808 56.0697C46.1759 56.9894 45.7863 58.0337 45.6408 59.1249C45.4954 60.2161 45.5979 61.326 45.9408 62.3721C46.3724 63.3837 47.1126 64.233 48.0556 64.7989C48.9986 65.3648 50.0963 65.6183 51.192 65.5233C53.4996 65.0829 54.552 62.7921 54.7632 60.6909C55.0792 59.3793 55.0792 58.0113 54.7632 56.6997C54.7099 56.423 54.6022 56.1596 54.4462 55.9249C54.2902 55.6902 54.0892 55.4888 53.8547 55.3325C53.6202 55.1762 53.357 55.068 53.0804 55.0143C52.8037 54.9606 52.5192 54.9624 52.2432 55.0197C51.8232 55.0197 51.6132 55.8597 52.0332 56.0697C52.5903 56.7281 52.9538 57.5282 53.0832 58.3809C53.0832 60.0609 52.6632 62.5809 51.192 63.4209C50.6046 63.6456 49.954 63.6408 49.37 63.4072C48.786 63.1737 48.3114 62.7287 48.0408 62.1609C47.7057 61.555 47.5126 60.8809 47.4762 60.1895C47.4398 59.498 47.5611 58.8074 47.8308 58.1697C48.0375 57.3006 48.4729 56.5026 49.092 55.8585C49.302 55.4385 49.932 54.3885 50.562 54.8085C50.7025 54.8985 50.8714 54.9334 51.0361 54.9064C51.2008 54.8793 51.3496 54.7923 51.4539 54.662C51.5583 54.5318 51.6107 54.3675 51.6011 54.2009C51.5915 54.0343 51.5206 53.8771 51.402 53.7597Z" fill="#D1D0D6"/>
<path d="M60.0154 55.2338C58.7232 56.4528 57.9044 58.0899 57.7042 59.855C57.6519 60.6784 57.8187 61.5009 58.1879 62.2387C58.557 62.9765 59.1151 63.6033 59.8054 64.055C60.547 64.4977 61.4239 64.6565 62.2736 64.502C63.1233 64.3476 63.8883 63.8903 64.4266 63.215C66.127 60.8354 65.8474 56.6522 64.0066 54.815C63.5866 54.395 63.1666 53.975 62.7466 53.975C62.6095 53.9122 62.4608 53.8789 62.31 53.877C62.1592 53.8752 62.0097 53.905 61.8711 53.9644C61.7325 54.0239 61.6079 54.1117 61.5053 54.2223C61.4027 54.3328 61.3244 54.4636 61.2754 54.6062C61.2754 55.889 61.8286 55.3682 62.5366 56.0762C62.7466 56.2862 62.9566 56.7062 63.1666 56.9162C63.6119 57.8282 63.7589 58.8573 63.5866 59.8574C63.4928 60.6186 63.2034 61.3425 62.7466 61.9586C61.2754 63.2186 59.5954 61.1186 59.3866 59.6474C59.4525 58.2301 59.8868 56.8545 60.6466 55.6562C61.0654 55.4402 60.4354 54.8138 60.0154 55.2338Z" fill="#D1D0D6"/>
<path d="M69.2591 54.3938C68.7839 56.8184 68.503 59.277 68.4191 61.7462C68.4191 62.5862 68.2079 64.0562 69.0491 64.6874C69.2052 64.7894 69.3876 64.8437 69.5741 64.8437C69.7606 64.8437 69.943 64.7894 70.0991 64.6874C70.9391 63.8474 70.5191 62.1674 70.5191 61.1162C70.5191 59.015 70.5191 56.7038 70.7291 54.6038C70.7291 53.7602 69.2591 53.5526 69.2591 54.3938Z" fill="#D1D0D6"/>
<path d="M80.8129 55.8632C79.6501 52.9568 75.7081 54.056 73.8805 56.7032C72.9535 57.8981 72.5044 59.3953 72.6205 60.9032C72.7785 61.913 73.2148 62.8588 73.8805 63.6344C74.2492 63.9847 74.6754 64.2689 75.1405 64.4744C75.3573 64.4783 75.5708 64.4211 75.7567 64.3095C75.9425 64.1979 76.0933 64.0363 76.1917 63.8432C76.4017 63.2132 75.5617 62.7932 75.3517 62.3732C74.8577 61.6983 74.5663 60.8966 74.5117 60.062C74.5862 59.2183 74.8765 58.4079 75.3549 57.7089C75.8332 57.0098 76.4834 56.4457 77.2429 56.0708C77.7089 55.846 78.2255 55.7471 78.7415 55.7839C79.2575 55.8208 79.7549 55.9921 80.1841 56.2808C80.3929 56.4932 81.0229 56.2796 80.8129 55.8632Z" fill="#D1D0D6"/>
<path d="M144.461 52.0697C144.297 52.585 144.229 53.1262 144.261 53.6661C144.261 55.0344 143.597 56.9489 144.66 57.657C144.86 57.8566 145.659 58.2557 145.859 57.8566C145.859 57.657 146.058 57.657 146.058 57.4575C146.085 56.3894 146.019 55.3211 145.859 54.2647C145.959 53.6029 145.959 52.9299 145.859 52.2681C145.816 52.1267 145.739 51.998 145.634 51.8936C145.529 51.7892 145.401 51.7122 145.259 51.6695C144.66 51.6683 144.461 51.8701 144.461 52.0697Z" fill="#D1D0D6"/>
<path d="M149.832 50.2242C147.836 54.8161 152.427 68.1903 151.229 52.0213C151.029 51.6222 151.429 49.0246 149.832 50.2242Z" fill="#D1D0D6"/>
<path d="M158.564 49.5155C154.971 50.7128 153.374 55.901 155.969 58.6981C156.51 59.3007 157.203 59.7478 157.975 59.9934C158.747 60.2389 159.57 60.274 160.36 60.0949C162.347 59.6491 163.195 57.9125 163.755 56.104C164.029 55.3639 164.152 54.5767 164.117 53.7884C164.083 53.0001 163.891 52.2266 163.554 51.5133C163.155 51.1142 162.357 50.5144 161.958 51.1142C161.559 51.7139 162.157 52.3114 162.157 52.7105C162.357 53.4963 162.357 54.3194 162.157 55.1051C161.958 56.3024 161.559 57.7004 160.561 58.0995C160.103 58.294 159.601 58.3596 159.108 58.2893C158.615 58.2189 158.151 58.0153 157.766 57.7004C157.329 57.2581 156.994 56.7245 156.787 56.1378C156.58 55.5512 156.505 54.9259 156.568 54.3069C156.651 53.5087 156.932 52.7438 157.385 52.0814C157.838 51.419 158.449 50.88 159.163 50.5132C159.562 50.3137 159.163 49.3159 158.564 49.5155Z" fill="#D1D0D6"/>
<path d="M167.531 52.9323C167.331 54.6567 167.331 56.3984 167.531 58.1228C167.531 58.3223 167.73 59.3201 168.129 59.3201C168.329 59.3201 168.728 59.1205 168.728 58.921C169.754 57.3793 169.327 54.1763 169.327 51.9345C169.327 51.3348 169.327 50.7361 168.728 50.5366C167.657 49.8228 167.531 51.6563 167.531 52.9323Z" fill="#D1D0D6"/>
<path d="M177.221 49.8634C174.598 49.1599 172.002 52.9422 172.83 56.249C173.64 59.4919 177.049 61.1521 179.816 58.8431C181.611 57.0494 181.412 53.8498 180.415 52.8544C180.215 52.4553 179.617 52.6548 179.417 53.0551C179.617 53.0551 179.617 53.2546 179.617 53.4542C179.61 54.4169 179.406 55.368 179.018 56.249C178.857 56.6915 178.555 57.0684 178.157 57.3211C177.76 57.5737 177.291 57.6879 176.822 57.6458C176.395 57.537 175.996 57.3383 175.652 57.063C175.308 56.7877 175.026 56.4422 174.826 56.0494C174.427 55.0225 174.427 53.8835 174.826 52.8567C175.225 52.0585 175.824 50.6616 177.021 50.8612C177.089 50.879 177.159 50.8828 177.227 50.8724C177.296 50.8621 177.362 50.8378 177.421 50.801C177.48 50.7642 177.531 50.7157 177.571 50.6585C177.61 50.6013 177.638 50.5366 177.651 50.4684C177.665 50.4002 177.665 50.3299 177.65 50.2619C177.635 50.1939 177.607 50.1295 177.567 50.0729C177.526 50.0162 177.475 49.9684 177.415 49.9324C177.356 49.8963 177.29 49.8729 177.221 49.8634Z" fill="#D1D0D6"/>
<path d="M189.159 50.1783C188.677 50.0817 188.176 50.1244 187.717 50.3012C187.257 50.4781 186.858 50.7819 186.564 51.1772C185.912 51.8882 185.373 52.696 184.968 53.5718C184.129 55.3506 184.17 57.7645 185.766 58.9618C186.502 59.5319 187.398 59.8575 188.329 59.8933C189.259 59.9291 190.177 59.6732 190.955 59.1614C193.586 57.2115 193.489 53.6231 191.554 51.1795C190.935 50.3961 189.958 49.3824 188.76 49.9811C188.56 50.1806 188.36 50.3813 188.56 50.7792C188.76 51.5774 189.967 52.1704 190.357 52.7747C190.886 53.5513 191.098 54.5009 190.95 55.4289C190.801 56.3568 190.304 57.1929 189.558 57.7657C189.17 58.0102 188.72 58.1399 188.261 58.1399C187.802 58.1399 187.352 58.0102 186.963 57.7657C186.644 57.4544 186.391 57.0818 186.22 56.6703C186.048 56.2588 185.962 55.8169 185.965 55.3711C186.085 54.3767 186.426 53.4218 186.963 52.5763C187.362 51.9777 187.961 51.1795 188.76 51.379C189.753 51.1772 189.753 50.1783 189.159 50.1783Z" fill="#D1D0D6"/>
<path d="M196.837 50.0263C196.587 50.2994 196.445 50.654 196.438 51.024C196.438 52.2224 196.238 53.2202 196.238 54.4174C196.205 56.0164 196.272 57.6159 196.438 59.2066C196.438 59.8052 196.837 60.2043 197.236 59.6057C197.92 58.2294 198.234 57.9238 198.234 54.8165C198.343 53.2177 198.276 51.6116 198.034 50.0274C197.836 49.8267 197.037 49.6249 196.837 50.0263Z" fill="#D1D0D6"/>
<path d="M24.9337 71.2C24.4016 72.6791 24.1865 74.2535 24.3025 75.8212C24.2679 76.5976 24.339 77.3751 24.5137 78.1324C24.552 78.8489 24.6935 79.5562 24.9337 80.2324C25.1437 80.6524 25.9837 81.2824 26.4037 80.6524C26.6382 80.2411 26.7786 79.7829 26.8149 79.3109C26.8512 78.8389 26.7825 78.3647 26.6137 77.9224C26.1133 75.6964 26.6725 72.754 26.4037 71.41C26.6137 70.5688 25.3537 70.5688 24.9337 71.2Z" fill="#D1D0D6"/>
<path d="M35.227 70.9879C32.4958 73.2991 31.6558 78.1315 34.387 80.8615C34.7026 81.2366 35.0895 81.5452 35.5252 81.7696C35.961 81.994 36.4369 82.1297 36.9255 82.1688C37.4141 82.2079 37.9055 82.1495 38.3714 81.9972C38.8373 81.8449 39.2683 81.6017 39.6394 81.2815C40.6092 80.3115 41.2823 79.085 41.5798 77.7461C41.8774 76.4071 41.7871 75.011 41.3194 73.7215C40.6882 72.6715 38.7994 70.3615 37.537 71.4115C37.3973 71.5431 37.3021 71.7148 37.2644 71.903C37.2268 72.0912 37.2487 72.2864 37.327 72.4615C37.747 73.0915 38.7982 73.3015 39.4282 73.9315C39.731 74.3106 39.9448 74.7528 40.0539 75.2255C40.1629 75.6982 40.1644 76.1894 40.0582 76.6627C39.8278 77.9203 38.7982 80.6539 37.117 80.2339C34.8898 79.6771 33.7198 74.8183 36.277 71.6215C36.487 71.1991 35.647 70.5679 35.227 70.9879Z" fill="#D1D0D6"/>
<path d="M47.2007 70.9887C46.4351 72.4047 46.072 74.0033 46.1507 75.6111C46.1507 76.6611 46.1507 82.9635 48.4619 82.1235L49.0919 81.4935C49.1745 80.494 49.031 79.4887 48.6719 78.5523C48.393 77.1705 48.3222 75.7549 48.4619 74.3523C48.6361 73.3825 48.7065 72.3969 48.6719 71.4123C48.6717 71.2395 48.6154 71.0715 48.5115 70.9335C48.4075 70.7956 48.2615 70.6951 48.0955 70.6473C47.9295 70.5995 47.7525 70.607 47.5911 70.6685C47.4297 70.7301 47.2927 70.8425 47.2007 70.9887Z" fill="#D1D0D6"/>
<path d="M52.4534 71.8298C52.3481 72.8073 52.3481 73.7934 52.4534 74.771C52.4881 75.9652 52.4179 77.1602 52.2434 78.3422C52.1246 79.2318 52.3499 80.1332 52.8734 80.8622C53.9234 81.7022 54.1334 78.9722 54.1334 78.5522C54.1334 76.451 53.9234 74.1398 53.9234 72.0398C53.9137 71.8759 53.8442 71.7212 53.7281 71.6051C53.612 71.489 53.4573 71.4195 53.2934 71.4098C52.8734 71.1998 52.6634 71.6198 52.4534 71.8298Z" fill="#D1D0D6"/>
<path d="M62.5367 71.1992C60.9767 68.696 56.4443 72.0164 56.4443 76.6604C56.5164 77.5062 56.7809 78.3244 57.2177 79.0524C57.6545 79.7803 58.2519 80.3987 58.9643 80.8604C59.7099 81.3123 60.58 81.5152 61.4486 81.4397C62.3171 81.3642 63.1391 81.0142 63.7955 80.4404C64.4885 79.8539 64.9381 79.0304 65.0567 78.1304C65.2667 77.2904 65.0567 75.8192 64.0055 75.6104C63.3755 75.4004 63.1655 76.2404 63.1655 76.6604C63.2365 77.0853 63.1964 77.5214 63.0492 77.9264C62.9021 78.3313 62.6528 78.6913 62.3255 78.9716C61.9757 79.1643 61.5897 79.2824 61.1919 79.3186C60.7941 79.3547 60.3932 79.3081 60.0143 79.1816C59.412 78.8198 58.9307 78.2871 58.6316 77.6513C58.3325 77.0155 58.229 76.3051 58.3343 75.6104C58.5939 74.7355 58.9459 73.8907 59.3843 73.0904C59.5951 72.6697 59.9294 72.3235 60.3425 72.0983C60.7556 71.8731 61.2278 71.7796 61.6955 71.8304C62.3267 72.0392 62.7467 71.6192 62.5367 71.1992Z" fill="#D1D0D6"/>
<path d="M69.4692 70.7782C68.9871 72.2753 68.7047 73.8295 68.6292 75.4006C68.5945 76.4553 68.6649 77.5109 68.8392 78.5518C68.7581 79.0281 68.8137 79.5177 68.9996 79.9637C69.1854 80.4097 69.4939 80.7939 69.8892 81.0718C70.0992 81.2818 70.3092 81.0718 70.5192 81.0718C71.3592 80.2318 70.9392 78.3418 70.9392 77.0806V73.9294C71.0442 72.9518 71.0442 71.9658 70.9392 70.9882C70.9392 70.1482 69.8892 70.1482 69.4692 70.7782Z" fill="#D1D0D6"/>
<path d="M74.5104 70.7781C74.2944 72.2961 73.3308 78.5025 73.6704 79.1781C73.8804 79.5981 74.5104 80.0181 74.9304 79.5981C75.4547 78.8694 75.6805 77.9679 75.5616 77.0781C75.7716 74.9781 75.7716 72.8781 75.9816 70.9857C76.1916 70.1481 74.7204 69.9381 74.5104 70.7781Z" fill="#D1D0D6"/>
<path d="M156.439 68.4687C156.229 68.6787 156.229 68.6787 156.229 68.8887C156.064 69.6475 155.994 70.4238 156.019 71.1999C155.899 72.9528 155.97 74.7135 156.229 76.4511C156.163 77.2452 156.308 78.0426 156.65 78.7623C156.86 79.1823 157.07 78.7623 157.28 78.5523C158.765 76.3239 157.76 72.4323 158.12 69.9387C158.12 69.5187 158.33 68.6787 157.91 68.2587C157.669 68.1578 157.405 68.1241 157.146 68.161C156.887 68.198 156.643 68.3043 156.439 68.4687Z" fill="#D1D0D6"/>
<path d="M167.364 68.4683C166.908 67.8699 166.238 67.4705 165.495 67.3532C164.751 67.2358 163.991 67.4096 163.373 67.8383C161.885 68.8643 161.482 70.7783 161.272 72.6695C160.713 77.7011 164.457 80.3207 167.574 78.7619C169.693 77.7023 169.523 75.7031 169.884 74.9807C169.884 74.5607 170.095 73.7195 169.674 73.3007C169.464 73.0907 168.834 72.8807 168.624 73.0907C167.962 74.0843 168.288 75.3179 167.154 76.4507C167.007 76.6368 166.824 76.7907 166.615 76.9029C166.406 77.0151 166.176 77.0831 165.94 77.1028C165.703 77.1225 165.466 77.0934 165.241 77.0174C165.016 76.9413 164.81 76.8199 164.634 76.6607C164.166 76.2921 163.803 75.8069 163.582 75.2538C163.361 74.7007 163.289 74.0991 163.374 73.5095C163.361 72.2903 163.574 71.0792 164.004 69.9383C164.109 69.7127 164.259 69.5109 164.444 69.3453C164.63 69.1796 164.847 69.0536 165.083 68.975C165.319 68.8963 165.569 68.8667 165.816 68.8879C166.064 68.9091 166.305 68.9807 166.524 69.0983C166.563 69.16 166.614 69.213 166.674 69.2539C166.735 69.2948 166.803 69.3228 166.874 69.3361C166.946 69.3494 167.019 69.3476 167.09 69.331C167.161 69.3144 167.228 69.2833 167.286 69.2396C167.345 69.1958 167.393 69.1405 167.429 69.0771C167.465 69.0136 167.487 68.9435 167.494 68.871C167.502 68.7985 167.494 68.7253 167.471 68.656C167.449 68.5867 167.413 68.5228 167.364 68.4683Z" fill="#D1D0D6"/>
<path d="M172.615 68.6782C171.668 70.6388 171.445 72.8713 171.985 74.9806C172.386 76.2466 173.456 77.5006 174.716 77.2906C178.572 76.8622 180.006 68.9386 175.766 67.2106C175.29 66.9758 174.742 66.9319 174.234 67.0881C173.726 67.2442 173.297 67.5886 173.035 68.0506C172.631 68.6902 173.456 69.3106 174.086 69.1006C172.814 69.1006 174.772 68.9458 175.556 69.7306C175.914 70.1723 176.198 70.6692 176.396 71.2018C176.536 71.9071 176.463 72.638 176.186 73.3018C176.15 73.7249 176.018 74.1341 175.8 74.4982C175.581 74.8624 175.283 75.1718 174.926 75.403C174.716 75.403 174.506 75.613 174.296 75.403C174.086 75.403 174.086 75.193 173.876 74.983C172.615 73.303 173.036 70.783 173.456 68.8906C173.666 68.4682 172.825 68.0482 172.615 68.6782Z" fill="#D1D0D6"/>
<path d="M183.329 67.4172C182.997 67.7651 182.778 68.2045 182.699 68.6784C182.457 69.5702 182.316 70.4863 182.279 71.4096C182.27 73.915 182.697 76.4028 183.54 78.762C183.54 78.972 183.96 79.392 184.17 79.182C184.38 79.182 184.38 78.972 184.38 78.762C184.59 77.6519 184.59 76.5122 184.38 75.402C184.275 74.214 184.275 73.0189 184.38 71.8308C184.59 70.5696 185.43 68.4708 184.38 67.6308C184.058 67.4599 183.693 67.3857 183.329 67.4172Z" fill="#D1D0D6"/>
<path d="M191.313 69.0987C191.103 69.3087 191.103 69.3087 191.103 69.5187C190.893 69.9387 191.103 70.5687 191.103 70.9887C191.103 73.3743 190.779 79.8891 192.783 78.5487C192.993 78.3387 193.203 77.9187 193.413 77.7087C193.518 76.8018 193.518 75.8857 193.413 74.9787V70.1487C193.397 69.9073 193.333 69.6715 193.225 69.4551C193.117 69.2388 192.966 69.0462 192.783 68.8887C191.943 68.6787 191.52 68.8887 191.313 69.0987Z" fill="#D1D0D6"/>
<path d="M201.186 66.7875C197.657 69.2235 195.919 73.2471 198.666 76.4511C201.113 79.3047 206.359 77.2011 205.808 72.2511C205.642 71.1844 205.18 70.1858 204.474 69.3687C203.769 68.5515 202.848 67.9487 201.817 67.6287C201.654 67.5789 201.48 67.5829 201.32 67.6401C201.159 67.6974 201.022 67.8048 200.927 67.9465C200.833 68.0881 200.787 68.2565 200.796 68.4264C200.805 68.5964 200.868 68.7589 200.977 68.8899C201.817 69.9399 203.046 70.7895 203.497 72.2499C203.706 72.8928 203.672 73.59 203.401 74.2094C203.13 74.8287 202.641 75.327 202.027 75.6099C201.187 75.8199 200.347 74.9799 199.926 74.5599C198.547 72.4911 200.301 69.8703 202.237 68.2575C202.656 67.4175 201.809 66.3603 201.186 66.7875Z" fill="#D1D0D6"/>
<path d="M208.959 69.5185C208.959 70.3585 208.749 71.1985 208.749 71.8297C208.749 76.1497 208.609 77.5261 209.379 78.5497C209.405 78.6402 209.461 78.7198 209.536 78.7763C209.612 78.8328 209.704 78.8634 209.799 78.8634C209.893 78.8634 209.985 78.8328 210.061 78.7763C210.136 78.7198 210.192 78.6402 210.219 78.5497C211.579 76.7365 211.371 70.2397 210.64 68.0461C210.429 67.8361 210.429 67.4149 210.009 67.2061C208.773 67.2073 208.959 67.6885 208.959 69.5185Z" fill="#D1D0D6"/>
<path d="M28.4314 81.9071C25.3994 80.7668 22.8327 85.0633 23.6423 88.2926C23.7854 89.0309 24.1836 89.6954 24.7674 90.1697C25.3511 90.644 26.083 90.8978 26.835 90.8867C27.5717 90.9681 28.3164 90.8432 28.9862 90.5261C29.6561 90.209 30.2247 89.7121 30.6287 89.0908C32.4144 86.5024 31.4155 83.0314 30.4292 82.7053C30.338 82.6614 30.2388 82.637 30.1377 82.6335C30.0366 82.6301 29.9359 82.6477 29.842 82.6852C29.748 82.7227 29.6629 82.7794 29.5921 82.8515C29.5212 82.9237 29.4661 83.0098 29.4303 83.1044C29.2307 83.5035 29.6298 83.9026 29.6298 84.3016C30.5113 86.0645 28.412 90.0703 26.2364 88.694C25.825 88.3277 25.5301 87.8487 25.3882 87.3165C25.2463 86.7843 25.2637 86.2221 25.4382 85.6996C25.6377 84.3016 26.6355 82.5069 28.4325 82.7053C29.03 82.9048 29.03 81.9071 28.4314 81.9071Z" fill="#D1D0D6"/>
<path d="M40.1512 81.8076C38.7624 81.3788 37.7453 82.6001 37.1569 83.6047C36.3607 84.9301 35.9463 86.4497 35.9596 87.9958C35.9396 88.7247 36.0917 89.448 36.4038 90.107C36.7159 90.766 37.179 91.342 37.7555 91.7884C38.3371 92.1683 39.0319 92.336 39.7228 92.2633C40.4136 92.1906 41.0583 91.8819 41.5481 91.3893C42.4384 90.3851 42.996 89.13 43.1444 87.7963V85.7997C43.1444 84.2272 41.962 83.5739 41.3474 84.8019C41.0726 85.9034 41.6245 87.4861 41.1478 89.3938C40.7487 90.3915 39.751 91.3893 38.7533 90.5911C37.556 89.7929 37.7555 87.9958 37.9551 86.6001C38.2686 85.3458 38.8502 83.0072 40.1512 83.0072C40.2816 82.9699 40.3963 82.8913 40.478 82.7831C40.5596 82.6748 40.6038 82.5429 40.6038 82.4074C40.6038 82.2718 40.5596 82.1399 40.478 82.0317C40.3963 81.9235 40.2816 81.8448 40.1512 81.8076Z" fill="#D1D0D6"/>
<path d="M47.8235 82.2275C47.4582 84.6722 47.3912 87.1522 47.624 89.6131C47.624 90.4113 47.624 91.8092 48.6229 91.8092C50.4553 92.1148 49.2215 88.5184 49.2215 82.4271C49.022 81.6289 47.8235 81.4293 47.8235 82.2275Z" fill="#D1D0D6"/>
<path d="M54.1795 82.3234C54.0135 83.8481 53.9468 85.3819 53.98 86.9152C53.9984 87.499 54.2092 88.0602 54.5797 88.5116C55.3779 89.1114 55.777 87.913 55.777 87.3143C55.777 85.718 55.5775 84.1216 55.5775 82.3234C55.5891 82.2421 55.5816 82.1591 55.5557 82.0812C55.5297 82.0033 55.4859 81.9325 55.4278 81.8744C55.3698 81.8163 55.2989 81.7725 55.221 81.7465C55.1431 81.7206 55.0602 81.7131 54.9788 81.7247C54.3802 81.7247 54.1795 82.1238 54.1795 82.3234Z" fill="#D1D0D6"/>
<path d="M61.5189 87.1787C61.5189 85.5823 62.3171 82.9859 64.3137 83.7853C65.511 84.1844 65.9101 85.1821 66.7083 85.7807C66.9336 85.895 67.1886 85.9372 67.4387 85.9015C67.6888 85.8658 67.9219 85.754 68.1062 85.5812C68.7049 84.5835 67.1085 82.9859 66.3092 82.5868C65.8288 82.1565 65.2359 81.8716 64.5996 81.7656C63.9634 81.6596 63.3102 81.7368 62.7162 81.9882C60.2418 82.978 60.1209 84.7249 60.1209 87.3783C60.1711 87.5408 60.2777 87.6802 60.4214 87.7712C60.5651 87.8623 60.7366 87.8991 60.9051 87.8751C61.0735 87.851 61.2278 87.7677 61.3404 87.6401C61.4529 87.5124 61.5162 87.3488 61.5189 87.1787Z" fill="#D1D0D6"/>
<path d="M148.253 82.6259C148.853 81.4286 149.651 79.8311 151.248 79.6315C152.773 79.2507 154.116 82.7354 155.04 82.4263H155.241C156.239 81.8277 155.04 80.2302 154.641 79.8311C154.205 79.2925 153.659 78.8535 153.039 78.5437C152.42 78.2339 151.741 78.0605 151.048 78.0352C150.089 78.2987 149.201 78.7762 148.453 79.432C147.869 80.2999 147.4 81.2392 147.056 82.2268C147.056 82.6259 148.054 83.025 148.253 82.6259Z" fill="#D1D0D6"/>
<path d="M159.896 78.0352C159.297 78.0352 159.098 78.2347 158.897 79.2324C158.698 84.0216 161.292 88.2155 160.694 79.2324C160.694 79.432 160.694 78.2347 159.896 78.0352Z" fill="#D1D0D6"/>
<path d="M164.191 78.6869C164.093 78.8713 164.042 79.0771 164.042 79.2861C164.042 79.4951 164.093 79.7008 164.191 79.8853C164.229 80.5013 164.363 81.1075 164.59 81.6812C164.611 81.8325 164.682 81.9728 164.79 82.0803C165.389 82.8785 165.987 81.0826 165.987 80.6835C165.987 80.0848 165.788 79.2855 165.788 78.6869C165.779 78.5311 165.713 78.3841 165.602 78.2738C165.492 78.1635 165.345 78.0975 165.189 78.0882C164.596 77.8887 164.391 78.2878 164.191 78.6869Z" fill="#D1D0D6"/>
<path d="M170.444 83.235C170.64 82.4096 171.053 81.6518 171.641 81.04C172.24 80.4413 173.237 79.2429 174.036 79.8415C174.235 80.0411 174.435 80.2418 174.435 80.4413C175.291 81.9548 175.575 83.726 175.233 85.4312C175.069 85.9465 175.001 86.4877 175.033 87.0275C175.033 87.4266 175.432 87.8257 175.831 87.6262C176.374 87.3526 176.818 86.918 177.104 86.382C177.39 85.8459 177.503 85.2346 177.428 84.6318C177.737 81.8518 176.11 78.9829 175.033 78.4436C173.636 77.4458 171.841 78.4436 170.842 79.6408C169.951 80.645 169.394 81.9001 169.245 83.2338C169.248 83.8348 170.243 83.8348 170.444 83.235Z" fill="#D1D0D6"/>
<path d="M180.989 78.453C180.727 79.0838 180.657 79.7783 180.79 80.4485C180.832 81.4566 180.966 82.4588 181.189 83.4429C181.372 84.7321 181.851 85.9617 182.587 87.0359C183.198 87.8249 183.385 86.4372 183.385 86.0381C183.351 84.6998 183.218 83.3658 182.986 82.0472C182.786 81.4474 182.786 80.6492 182.587 80.0506C182.387 79.4519 182.386 78.8533 182.187 78.2535C181.985 77.8533 181.388 78.0528 180.989 78.453Z" fill="#D1D0D6"/>
<path d="M188.742 78.6338C186.546 80.8289 185.748 85.0194 187.944 87.6158C188.519 88.2478 189.31 88.64 190.161 88.7142C191.012 88.7884 191.86 88.5391 192.535 88.016C193.147 87.365 193.501 86.5141 193.533 85.6214C193.692 84.6988 193.76 83.7626 193.733 82.8266C193.656 81.7875 193.385 80.772 192.935 79.8323C192.536 79.0341 191.738 78.0352 190.74 78.0352C190.622 78.0339 190.506 78.0634 190.403 78.1209C190.301 78.1783 190.214 78.2617 190.154 78.3627C190.093 78.4637 190.06 78.5788 190.058 78.6966C190.055 78.8144 190.084 78.9307 190.14 79.0341C190.34 79.6327 190.938 80.0318 191.139 80.4309L191.738 82.228C192.003 83.5685 191.864 84.9574 191.339 86.2189C190.94 87.2167 189.742 86.8176 189.143 86.2189C187.978 85.0547 187.575 81.6852 189.342 79.0352C189.74 78.6338 188.942 78.2336 188.742 78.6338Z" fill="#D1D0D6"/>
<path d="M199.489 78.0693C197.882 78.6394 197.283 80.4639 197.095 82.0603C196.786 84.0068 197.213 85.9985 198.292 87.6476C198.54 88.0425 198.876 88.3742 199.274 88.6167C199.673 88.8591 200.122 89.0055 200.587 89.0443C201.051 89.0832 201.518 89.0133 201.951 88.8404C202.384 88.6674 202.771 88.3961 203.081 88.0478C204.236 86.5038 204.737 84.5681 204.478 82.6578C204.267 81.7506 203.932 80.8771 203.48 80.0625C202.78 79.3635 202.417 78.2666 201.086 78.2666C200.287 78.0659 199.888 79.0648 200.487 79.6634C202.292 81.4684 201.797 80.8858 202.482 82.2587C203.009 83.8357 202.524 86.3306 201.086 87.0478C200.852 87.054 200.621 87.0026 200.412 86.8982C200.203 86.7938 200.023 86.6396 199.888 86.4492C199.021 85.3837 198.592 84.0273 198.69 82.6566C198.616 81.9894 198.705 81.3142 198.948 80.6885C199.191 80.0629 199.582 79.5054 200.088 79.0636C200.688 78.6691 200.085 77.8595 199.489 78.0693Z" fill="#D1D0D6"/>
<path d="M26.1937 101.871C25.3306 104.881 25.2582 108.064 25.9837 111.111C26.1937 111.741 27.0337 112.372 27.6637 111.741C28.0849 111.111 27.8749 110.061 27.8749 109.431C27.6637 106.911 27.6637 104.598 27.4537 102.078C27.4812 101.911 27.4413 101.74 27.3426 101.602C27.2439 101.465 27.0946 101.372 26.9275 101.344C26.7604 101.317 26.5892 101.357 26.4516 101.456C26.314 101.554 26.2212 101.704 26.1937 101.871Z" fill="#D1D0D6"/>
<path d="M32.706 108.383C32.9385 107.999 33.082 107.568 33.126 107.121C33.4903 106.226 34.0668 105.433 34.806 104.81C34.9481 104.61 35.1374 104.447 35.3572 104.338C35.5769 104.228 35.8204 104.174 36.066 104.18C36.696 103.97 37.9572 103.97 37.9572 103.13C38.1672 102.29 36.906 101.87 36.2772 101.87C35.2809 102.071 34.3456 102.503 33.546 103.13C32.7315 103.898 32.0875 104.828 31.656 105.861C31.446 106.491 30.6048 108.593 31.866 108.803C32.286 109.013 32.496 108.803 32.706 108.383Z" fill="#D1D0D6"/>
<path d="M203.076 98.9291C202.687 99.7113 202.611 100.613 202.866 101.449C203.076 101.87 203.706 102.92 204.127 102.289C204.547 102.079 204.547 101.449 204.547 101.028C204.582 100.321 204.511 99.6136 204.337 98.9279C204.337 98.2991 203.496 98.5091 203.076 98.9291Z" fill="#D1D0D6"/>
<path d="M210.64 98.7189C210.089 98.9937 210.218 99.9285 210.218 101.66C210.308 102.799 210.519 103.926 210.85 105.02C210.85 105.23 210.85 105.86 211.06 106.07C211.215 106.175 211.397 106.231 211.585 106.231C211.772 106.231 211.955 106.175 212.11 106.07C212.331 105.839 212.477 105.546 212.53 105.23C212.704 104.048 212.774 102.853 212.74 101.659C212.725 101.075 212.582 100.501 212.32 99.9789C211.69 99.5589 211.06 98.5089 210.64 98.7189Z" fill="#D1D0D6"/>
<path d="M149.297 143.255C154.361 139.457 161.264 137.706 167.154 139.473C169.254 140.103 171.145 141.363 173.245 141.783C173.666 141.993 174.296 141.363 173.876 140.943C171.668 137.633 164.732 136.179 160.852 136.532C156.122 136.908 151.669 138.912 148.252 142.203C147.617 143.04 148.457 143.88 149.297 143.255Z" fill="white"/>
<path d="M153.709 148.506C155.593 147.3 157.646 146.38 159.8 145.776C161.902 145.355 164 145.565 166.103 145.145C166.523 144.935 166.734 144.305 166.313 144.095C162.321 141.784 156.269 144.774 153.078 147.246C152.249 147.889 153.079 148.926 153.709 148.506Z" fill="white"/>
<path d="M162.112 152.708C163.792 152.483 165.263 151.657 166.944 151.447C167.806 151.514 168.671 151.369 169.464 151.027C169.674 150.817 169.884 150.397 169.464 150.187C168.204 148.926 166.104 149.347 164.633 149.767C163.572 149.967 162.568 150.397 161.692 151.027C160.852 151.657 160.639 152.905 162.112 152.708Z" fill="white"/>
<path d="M165.893 161.111C167.632 159.934 169.634 159.203 171.723 158.983C173.811 158.764 175.922 159.061 177.868 159.851C178.288 160.061 181.439 161.111 180.388 159.431C179.127 157.119 175.135 156.699 172.828 156.911C170.919 156.976 169.051 157.479 167.367 158.381C166.515 158.819 165.735 159.385 165.055 160.061C164.633 160.481 165.053 161.741 165.893 161.111Z" fill="white"/>
<path d="M47.4107 165.944C49.3514 163.724 51.6171 161.812 54.1307 160.271C56.799 158.957 59.7913 158.446 62.7443 158.8H63.3743C64.2143 158.59 64.2143 157.33 63.5843 156.91C60.9251 154.583 48.6119 158.368 46.3583 165.31C46.3219 165.444 46.3301 165.586 46.3818 165.715C46.4336 165.844 46.526 165.953 46.6451 166.025C46.7641 166.096 46.9033 166.127 47.0415 166.112C47.1797 166.098 47.3093 166.039 47.4107 165.944Z" fill="white"/>
<path d="M54.3433 167.203C55.9787 166.332 57.7581 165.763 59.5957 165.523C60.2257 165.523 64.2337 165.721 63.1669 164.263C62.5465 163.416 60.6469 163.633 59.5957 163.633C57.4644 163.864 55.4339 164.661 53.7157 165.943C52.8733 166.573 53.5033 167.833 54.3433 167.203Z" fill="white"/>
<path d="M61.6969 170.984C60.433 170.444 59.0182 170.369 57.7045 170.774C56.9866 170.935 56.3303 171.3 55.8145 171.824C55.3273 172.418 56.7433 172.664 56.8645 172.664C58.6973 172.754 60.5221 172.965 62.3269 173.295C64.2169 173.295 62.5081 171.285 61.6969 170.984Z" fill="white"/>
<path d="M49.9321 181.278C52.8314 180.661 55.792 180.379 58.7557 180.438C60.3163 180.454 61.8687 180.666 63.3769 181.068C63.7969 181.068 66.5041 181.505 65.4781 180.018C64.6177 178.771 62.3245 178.563 60.8557 178.338C57.011 177.794 53.0908 178.302 49.5121 179.809C48.6721 180.018 49.0885 181.473 49.9321 181.278Z" fill="white"/>
<path d="M179.76 140.52C185.878 141.096 191.849 142.731 197.407 145.351C202.908 148.003 207.487 152.071 211.902 156.486C212.532 157.116 213.594 156.267 213.162 155.646C207.103 146.904 193.451 139.457 179.97 139.686C179.128 139.697 179.338 140.52 179.76 140.52Z" fill="white"/>
<path d="M26.6137 159.009C36.4441 158.253 34.7269 158.379 39.4285 158.379C40.8307 158.535 42.2489 158.465 43.6285 158.169C44.2633 157.974 44.0485 157.329 43.6285 157.119C42.1773 156.792 40.7022 156.581 39.2173 156.489H35.0173C32.1872 156.675 29.3774 157.097 26.6173 157.749C26.4635 157.768 26.3219 157.842 26.219 157.958C26.1161 158.073 26.059 158.223 26.0586 158.378C26.0582 158.533 26.1143 158.682 26.2166 158.799C26.3188 158.915 26.4601 158.99 26.6137 159.009Z" fill="white"/>
<path d="M131.441 62.7956C128.352 59.0583 124.479 56.0459 120.097 53.972C118.672 53.3502 117.135 53.0293 115.58 53.0293C114.026 53.0293 112.488 53.3502 111.063 53.972C104.597 56.612 99.7619 62.186 96.7835 68.258C95.1263 71.63 93.4103 75.4004 93.6323 79.3916C94.0307 86.5352 101.432 89.402 107.072 91.5764C110.239 92.7956 113.585 93.8864 116.106 96.1976C116.736 96.6176 117.996 96.6176 117.996 95.7776C118.836 91.3652 124.268 89.2208 127.659 86.954C137.451 80.4068 138.276 71.2796 131.441 62.7956ZM113.375 64.8968C113.375 64.4768 114.005 64.2656 114.215 64.8968C114.425 66.3668 115.265 71.4092 115.265 72.2492C115.265 72.8792 115.055 74.5604 114.005 73.9292C112.955 73.298 113.16 66.9968 113.375 64.8968ZM114.635 80.2316C114.537 80.2277 114.444 80.1923 114.368 80.1307C114.293 80.0692 114.239 79.9848 114.215 79.8902C114.192 79.7956 114.199 79.6959 114.237 79.6061C114.275 79.5162 114.341 79.4409 114.425 79.3916C115.475 78.5516 123.458 76.6604 123.248 75.8204C123.248 74.9804 124.298 74.5604 124.718 75.1904C124.923 75.4631 125.033 75.7946 125.033 76.1354C125.033 76.4762 124.923 76.8077 124.718 77.0804C124.298 77.9216 115.896 80.4416 114.635 80.2316Z" fill="white"/>
<path d="M87.7451 69.5181C86.6789 71.379 85.9996 73.4361 85.7478 75.566C85.4961 77.6958 85.677 79.8546 86.2799 81.9129C87.4547 85.5129 90.0611 89.0553 93.8399 90.3129C94.2599 90.5229 94.6799 89.8929 94.2599 89.4729C91.5287 87.1617 88.9463 84.8745 87.7475 81.4905C86.3544 77.7348 86.5054 73.5803 88.1675 69.9357C88.3703 69.5157 87.9599 69.1029 87.7451 69.5181Z" fill="white"/>
<path d="M112.955 190.102C112.955 190.492 113.109 190.866 113.385 191.141C113.661 191.417 114.035 191.572 114.425 191.572C114.814 191.572 115.188 191.417 115.464 191.141C115.74 190.866 115.895 190.492 115.895 190.102C115.895 189.712 115.74 189.338 115.464 189.062C115.188 188.787 114.814 188.632 114.425 188.632C114.035 188.632 113.661 188.787 113.385 189.062C113.109 189.338 112.955 189.712 112.955 190.102Z" fill="white"/>
</svg>
