<svg width="321" height="303" viewBox="0 0 321 303" fill="none" xmlns="http://www.w3.org/2000/svg">
<path d="M85.7561 110.198C84.4857 109.805 77.1481 112.947 75.916 113.5C37.0882 130.899 38.2637 130.483 36.5454 131.453C35.653 131.96 32.969 133.428 33.9497 133.729C35.2201 134.122 42.5577 130.982 43.7898 130.428C74.7472 116.555 87.944 110.871 85.7561 110.198Z" fill="#D1D0D6"/>
<path d="M90.2199 120.155C88.9478 119.762 81.6118 122.902 80.3797 123.457C41.7517 140.763 42.7241 140.44 41.0074 141.41C40.1183 141.913 37.436 143.387 38.4117 143.686C39.6838 144.079 47.0481 140.923 48.2535 140.385C74.2242 128.746 92.6391 120.899 90.2199 120.155Z" fill="#D1D0D6"/>
<path d="M65.09 143.372C64.3874 142.787 61.4454 143.898 60.6112 144.271C43.8979 151.762 44.4007 151.645 43.6998 152.161C43.4534 152.343 42.8789 152.786 42.7341 153.054C42.501 153.487 42.789 153.978 43.8197 153.816C46.2739 153.437 46.6918 153.042 60.2765 146.953C61.5686 146.374 66.1873 144.281 65.09 143.372Z" fill="#D1D0D6"/>
<path d="M47.3834 77.2409C51.1452 79.7224 54.6281 82.6029 57.7713 85.8323C58.0061 86.0271 57.1569 86.177 71.083 82.2193C71.1508 82.2 71.2227 82.2001 71.2905 82.2196C71.3582 82.2391 71.4192 82.2771 71.4665 82.3294C71.5138 82.3817 71.5455 82.4462 71.5581 82.5156C71.5706 82.585 71.5635 82.6565 71.5375 82.7221C70.3862 87.0831 68.7206 91.2918 66.5758 95.2596C66.4643 95.5426 66.058 94.78 74.1266 106.801C74.1659 106.86 74.188 106.928 74.1904 106.999C74.1929 107.069 74.1755 107.139 74.1404 107.2C74.1052 107.261 74.0536 107.312 73.9914 107.345C73.9293 107.378 73.859 107.394 73.7886 107.389C59.3764 106.483 60.2022 106.445 60.0124 106.686L51.6874 117.293C51.644 117.348 51.5857 117.391 51.5193 117.415C51.4528 117.439 51.3808 117.444 51.3117 117.43C51.2425 117.415 51.1789 117.381 51.1281 117.332C51.0773 117.282 51.0415 117.22 51.0247 117.151C47.4333 103.165 47.7247 103.938 47.435 103.833C43.1095 102.592 38.8789 101.041 34.776 99.1923C34.7101 99.1677 34.6523 99.1252 34.6092 99.0696C34.566 99.0141 34.5391 98.9476 34.5315 98.8777C34.5239 98.8078 34.5359 98.7371 34.5661 98.6736C34.5964 98.6101 34.6437 98.5562 34.7027 98.518C46.8939 90.7807 46.2495 91.2969 46.2612 90.9888C46.0016 86.492 46.1694 81.9807 46.7623 77.5156C46.7673 77.3725 46.8556 77.2443 47.3834 77.2393V77.2409Z" fill="#D1D0D6"/>
<path d="M81.0623 79.8122C83.2424 81.2516 85.2609 82.9218 87.0829 84.7939C87.2528 84.9338 86.9864 84.9204 94.8002 82.6993C94.8396 82.6879 94.8813 82.6877 94.9207 82.6989C94.9601 82.7101 94.9956 82.7322 95.0231 82.7626C95.0505 82.793 95.0688 82.8305 95.076 82.8709C95.0831 82.9112 95.0787 82.9527 95.0633 82.9907C94.3954 85.5186 93.4296 87.9583 92.1862 90.2584C92.1196 90.4249 91.8981 90.0003 96.5651 96.9517C96.5875 96.9859 96.5999 97.0256 96.6009 97.0664C96.602 97.1072 96.5916 97.1475 96.5711 97.1828C96.5505 97.2181 96.5205 97.2469 96.4845 97.2661C96.4484 97.2853 96.4077 97.294 96.367 97.2914C88.2701 96.7819 88.5115 96.717 88.38 96.8851L83.5531 103.032C83.5276 103.064 83.4939 103.088 83.4557 103.101C83.4175 103.115 83.3763 103.117 83.3367 103.109C83.2971 103.1 83.2605 103.081 83.2312 103.053C83.2018 103.025 83.1807 102.99 83.1702 102.951C81.0889 94.8555 81.2554 95.2917 81.0889 95.2301C78.5809 94.511 76.1281 93.6118 73.7496 92.5395C73.7113 92.5252 73.6777 92.5006 73.6527 92.4683C73.6276 92.436 73.612 92.3974 73.6077 92.3567C73.6034 92.3161 73.6105 92.275 73.6282 92.2382C73.6459 92.2014 73.6735 92.1702 73.708 92.1482C80.8392 87.6211 80.403 87.9524 80.408 87.7826C80.2577 85.1763 80.3553 82.5616 80.6993 79.9737C80.7027 79.8905 80.7526 79.8139 81.0573 79.8105L81.0623 79.8122Z" fill="#D1D0D6"/>
<path d="M26.2472 104.372C28.4278 105.811 30.4469 107.481 32.2695 109.353C32.4393 109.493 32.1729 109.48 39.9868 107.259C40.0261 107.247 40.0678 107.247 40.1073 107.258C40.1467 107.27 40.1821 107.292 40.2096 107.322C40.237 107.353 40.2554 107.39 40.2625 107.43C40.2696 107.471 40.2652 107.512 40.2498 107.55C39.5819 110.078 38.6161 112.518 37.3727 114.818C37.3061 114.984 37.0847 114.56 41.7517 121.511C41.774 121.545 41.7864 121.585 41.7875 121.626C41.7885 121.667 41.7782 121.707 41.7576 121.742C41.737 121.778 41.707 121.806 41.671 121.826C41.6349 121.845 41.5943 121.854 41.5535 121.851C33.4566 121.341 33.698 121.277 33.5665 121.445L28.7397 127.592C28.7141 127.623 28.6804 127.647 28.6422 127.661C28.604 127.674 28.5628 127.677 28.5232 127.668C28.4836 127.66 28.4471 127.641 28.4177 127.613C28.3883 127.585 28.3672 127.549 28.3567 127.51C26.2755 119.415 26.442 119.851 26.2755 119.79C23.7675 119.071 21.3146 118.171 18.9362 117.099C18.8978 117.085 18.8643 117.06 18.8392 117.028C18.8141 116.996 18.7985 116.957 18.7942 116.916C18.7899 116.876 18.797 116.835 18.8147 116.798C18.8324 116.761 18.8601 116.73 18.8945 116.708C26.0257 112.181 25.5895 112.512 25.5945 112.342C25.4442 109.736 25.5418 107.121 25.8859 104.533C25.8892 104.45 25.9391 104.373 26.2438 104.37L26.2472 104.372Z" fill="#D1D0D6"/>
<path d="M115.755 168.586C94.2712 177.554 57.2516 194.232 51.4274 196.663C49.3478 197.218 48.9133 195.473 48.0341 193.819C25.7698 151.993 4.48608 97.4991 4.0948 95.3196C3.95494 94.5387 4.27296 93.8378 4.77912 93.4149C4.94062 93.2783 11.191 89.8051 11.3575 89.7119C36.8787 75.581 60.4767 65.9573 84.3145 57.7389C84.9106 57.6057 85.455 57.7223 85.9096 58.0253C86.4024 58.3533 86.4923 58.6463 87.0285 59.657C90.0427 65.3272 92.9916 71.0318 95.8746 76.7699C95.8946 74.2857 95.9212 71.8015 95.9578 69.3157C93.9114 65.3382 91.8451 61.371 89.759 57.4142C88.8383 55.2964 86.4673 53.946 84.0847 54.264C82.9625 54.4139 82.4047 54.7919 82.5712 54.6736C51.6056 65.2481 29.7874 75.0066 3.2956 90.2614C0.828071 91.6833 0.0621708 94.647 1.05618 97.0995C14.3062 129.79 27.4797 162.084 45.8463 196.916C46.9069 199.357 49.6459 200.529 51.8403 200.026C53.2389 199.705 101.359 177.401 120.322 168.583H115.753L115.755 168.586Z" fill="#D1D0D6"/>
<path d="M96.7256 133.998C83.0244 138.685 84.5045 159.121 98.1259 162.521C97.5516 153.02 97.0854 143.512 96.7273 134L96.7256 133.998Z" fill="#D1D0D6"/>
<path d="M263.272 197.892C258.751 194.468 229.521 179.407 208.398 168.586H201.587C223.578 179.473 259.864 197.201 260.215 197.347C263.064 198.551 264.797 199.047 263.27 197.892H263.272Z" fill="#D1D0D6"/>
<path d="M318.703 93.5607C317.914 92.8148 317.266 92.595 317.433 92.6433C290.168 75.5271 268.966 64.6479 239.869 53.4641C237.241 52.4551 234.442 53.6806 233.145 56.0282L231.615 58.8021C231.669 60.92 231.717 63.0396 231.757 65.1591C234.407 60.4904 236.111 57.6483 236.442 57.2653C236.673 56.9941 236.971 56.7893 237.307 56.672C237.643 56.5546 238.004 56.529 238.353 56.5977C238.553 56.636 245.205 59.31 245.371 59.3782C272.115 70.1907 294.379 82.3336 316.147 95.925C316.627 96.3029 316.878 96.7991 316.93 97.3452C316.985 97.9346 316.815 98.1894 316.367 99.2416C294.804 150.102 274.459 184.003 268.174 196.491C267.759 197.315 264.667 197.973 264.236 198.131C263.668 198.339 263.688 198.517 264.654 198.596C266.134 198.714 268.129 198.502 269.199 197.472C272.305 193.76 289.895 164.426 303.718 135.62C308.535 125.58 312.369 117.337 319.829 99.9543C320.916 97.8614 320.418 95.1841 318.703 93.5607Z" fill="#D1D0D6"/>
<path d="M254.626 151.661C248.921 152.806 244.173 157.26 242.651 162.879C238.75 177.287 257.548 188.187 268.467 178.376C279.319 168.625 268.617 148.848 254.626 151.661ZM269.053 164.251C267.563 165.537 266.279 165.745 253.988 170.793C253.769 170.884 253.533 170.929 253.296 170.924C253.059 170.919 252.825 170.865 252.61 170.765C252.395 170.665 252.203 170.521 252.046 170.343C251.89 170.165 251.772 169.956 251.7 169.729L251.312 168.472C251.044 167.606 250.353 164.709 251.019 164.102C251.223 163.917 251.567 163.897 251.93 164.391C252.831 165.618 253.041 166.572 253.658 168.449C253.697 168.485 264.889 163.973 264.939 163.953C265.776 163.619 268.615 162.703 269.273 163.319C269.478 163.51 269.511 163.855 269.053 164.251Z" fill="#D1D0D6"/>
<path d="M276.303 130.074C275.809 128.84 268.744 125.116 267.542 124.508C243.678 112.432 235.265 108.221 231.793 106.553L231.748 108.925C232.546 109.366 233.351 109.793 234.162 110.207C262.562 124.576 277.194 132.3 276.303 130.071V130.074Z" fill="#D1D0D6"/>
<path d="M271.379 139.809C270.884 138.576 263.803 134.843 262.617 134.243C245.809 125.738 236.667 121.133 231.519 118.572L231.445 121.063C256.81 133.914 272.273 142.034 271.38 139.809H271.379Z" fill="#D1D0D6"/>
<path d="M234.002 131.994L231.112 130.535L231.009 133.073C233.923 134.546 237.504 136.206 237.521 134.907C237.532 133.993 234.822 132.41 234.002 131.994Z" fill="#D1D0D6"/>
<path d="M277.748 79.5098C278.187 83.9948 278.142 88.5142 277.613 92.9896C277.61 93.296 276.959 92.7315 288.803 101.058C288.86 101.099 288.905 101.155 288.932 101.219C288.959 101.284 288.968 101.355 288.957 101.424C288.946 101.494 288.916 101.559 288.87 101.612C288.825 101.665 288.765 101.705 288.698 101.726C284.586 103.578 280.268 104.933 275.835 105.763C275.543 105.855 275.88 105.061 271.621 118.9C271.6 118.968 271.56 119.028 271.507 119.074C271.454 119.12 271.389 119.151 271.319 119.162C271.249 119.173 271.178 119.164 271.113 119.137C271.048 119.109 270.992 119.064 270.951 119.007C262.581 107.24 263.131 107.86 262.823 107.865L249.343 108.073C249.272 108.074 249.203 108.055 249.143 108.019C249.082 107.983 249.033 107.93 249.001 107.868C248.969 107.805 248.955 107.735 248.96 107.664C248.966 107.594 248.991 107.527 249.033 107.47C257.636 95.8734 257.22 96.586 257.12 96.2946C255.36 92.1537 253.901 87.8913 252.754 83.5407C252.731 83.4739 252.727 83.4018 252.742 83.3328C252.758 83.2637 252.793 83.2004 252.843 83.15C252.892 83.0997 252.955 83.0644 253.024 83.0481C253.093 83.0318 253.165 83.0352 253.232 83.0579C266.92 87.6583 266.113 87.4818 266.359 87.297C269.69 84.2647 273.3 81.5547 277.142 79.2034C277.257 79.1151 277.411 79.1035 277.746 79.5098H277.748Z" fill="#D1D0D6"/>
<path d="M296.953 107.293C297.208 109.894 297.182 112.514 296.875 115.109C296.873 115.285 296.513 114.971 303.361 119.787C303.395 119.811 303.421 119.843 303.437 119.88C303.452 119.918 303.458 119.959 303.451 119.999C303.445 120.039 303.428 120.077 303.401 120.108C303.375 120.139 303.34 120.161 303.301 120.174C300.917 121.246 298.414 122.032 295.844 122.515C295.676 122.568 295.887 122.048 293.401 130.129C293.389 130.168 293.366 130.202 293.336 130.229C293.305 130.256 293.267 130.274 293.227 130.28C293.187 130.287 293.145 130.282 293.108 130.266C293.07 130.251 293.037 130.225 293.013 130.192C288.117 123.309 288.47 123.728 288.301 123.732L280.486 123.853C280.445 123.854 280.405 123.843 280.37 123.822C280.335 123.801 280.307 123.77 280.288 123.734C280.269 123.698 280.261 123.657 280.264 123.616C280.268 123.576 280.282 123.537 280.306 123.504C285.266 116.819 285.051 117.193 284.995 117.027C283.975 114.625 283.129 112.154 282.464 109.631C282.451 109.592 282.448 109.551 282.457 109.511C282.466 109.471 282.487 109.434 282.515 109.406C282.544 109.377 282.581 109.356 282.62 109.347C282.66 109.338 282.702 109.34 282.74 109.353C290.453 111.944 290.183 111.935 290.351 111.81C292.282 110.053 294.375 108.482 296.602 107.118C296.668 107.068 296.758 107.06 296.953 107.297V107.293Z" fill="#D1D0D6"/>
<path d="M249.769 92.667C242.921 87.8518 243.28 88.1681 243.282 87.99C243.588 85.3943 243.615 82.7752 243.36 80.1745C243.166 79.938 243.076 79.9464 243.009 79.9963C240.782 81.3595 238.689 82.9305 236.759 84.6883C236.615 84.7949 236.794 84.8182 231.963 83.1815C231.978 87.672 231.965 92.1641 231.927 96.6546L234.707 96.6114C234.877 96.6114 234.524 96.1901 239.419 103.072C239.443 103.105 239.475 103.132 239.513 103.148C239.551 103.163 239.593 103.168 239.633 103.162C239.674 103.155 239.711 103.137 239.742 103.11C239.773 103.083 239.796 103.048 239.807 103.008C242.295 94.928 242.082 95.4459 242.25 95.3942C244.82 94.9124 247.323 94.1265 249.707 93.0533C249.746 93.0407 249.78 93.0176 249.807 92.9867C249.833 92.9557 249.851 92.918 249.857 92.8777C249.863 92.8375 249.858 92.7964 249.842 92.7588C249.826 92.7213 249.8 92.689 249.767 92.6653L249.769 92.667Z" fill="#D1D0D6"/>
<path d="M86.1872 300.537C84.5158 300.085 83.0777 299.017 82.1629 297.547C81.1472 295.895 53.9211 219.806 53.8079 218.964C53.3917 215.932 55.7893 213.443 58.4333 213.389C61.6684 213.325 150.559 213.428 171.61 213.355C173.067 213.35 173.921 213.323 174.86 213.717C175.768 214.099 176.575 214.74 177.114 215.569C177.694 216.46 177.313 215.629 201.137 283.632C201.574 284.879 202.301 286.004 203.257 286.915C204.213 287.826 205.371 288.498 206.637 288.876C208.295 289.375 206.755 289.487 247.143 289.235C250.181 289.217 252.889 292.882 251.252 296.336C250.398 298.136 248.543 299.215 246.44 299.162C241.295 299.032 94.339 300.014 91.8448 300.151C87.9604 300.362 85.7343 300.704 88.1036 301.045C91.2788 301.503 100.058 301.743 106.214 301.863C131.139 302.347 246.532 302.574 247.154 302.549C253.065 302.312 256.815 296.087 254.414 290.759C253.187 288.033 250.516 285.907 246.976 285.812L208.919 285.797C207.03 285.802 205.065 284.57 204.326 282.367L180.976 215.709C180.263 213.654 178.983 212.144 177.419 211.17C175.296 209.848 173.59 209.911 172.036 209.906C56.5885 209.553 58.375 209.703 56.4436 210.234C52.5259 211.312 49.5122 215.349 50.5595 220.228C50.5595 220.228 79.344 294.85 79.8752 296.168C80.4629 297.628 81.0573 298.722 82.3593 299.733C84.081 301.067 85.8558 301.198 86.6084 301.085C87.4043 300.967 87.3011 300.845 86.1888 300.539L86.1872 300.537Z" fill="white"/>
<path d="M130.059 265.705C130.202 265.749 130.51 265.825 130.522 265.839L130.575 265.88C130.597 265.897 130.615 265.917 130.63 265.94C130.665 265.978 130.565 266.068 130.532 266.077C130.363 266.167 127.868 270.411 122.586 270.431C117.383 270.451 113.187 265.948 112.363 260.534C111.176 252.72 117.242 245.186 125.032 247.459L125.05 247.462C125.112 247.485 125.215 247.489 125.237 247.55C125.209 247.722 122.859 249.93 122.916 253.837C122.923 254.328 122.973 254.821 123.111 255.223C123.329 255.857 123.703 256.16 124.021 255.779C124.657 255.018 124.827 252.988 126.169 251.142C126.669 250.454 126.86 250.282 127.36 249.793C128.219 249.037 129.449 248.299 129.404 247.106C129.373 246.263 128.8 245.544 128.269 245.289C126.467 244.207 123.955 243.519 121.278 243.719C110.44 244.527 104.884 258.642 111.869 268.198C116.314 274.278 124.339 275.845 130.294 271.233C132.356 269.635 133.472 267.802 134.451 265.892C134.611 265.387 134.554 264.974 134.604 264.54C134.517 264.12 134.298 263.74 133.978 263.454C133.87 263.348 133.698 263.283 133.552 263.203C133.372 263.141 133.325 263.021 133.049 263.016C131.384 262.835 131.571 262.946 130.735 262.847C128.377 262.567 126.554 260.8 126.013 260.422C123.707 258.814 125.08 264.219 130.057 265.704L130.059 265.705Z" fill="white"/>
<path d="M135.81 229.996C135.8 229.295 135.734 228.93 135.601 227.931C135.393 227.429 135.291 226.609 134.167 226.09C133.643 225.843 133.473 225.903 132.99 225.893C132.585 225.855 132.132 225.992 131.7 226.058C127.544 226.966 124.235 229.988 122.957 233.534C121.242 237.928 123.088 241.499 125.682 241.598C131.352 241.964 135.892 235.965 135.81 229.996ZM130.243 236.077C128.971 237.57 127.873 238.073 125.98 239.13C125.875 239.187 125.757 239.212 125.638 239.204C125.519 239.196 125.405 239.154 125.309 239.083C125.213 239.012 125.14 238.916 125.097 238.805C125.054 238.694 125.043 238.573 125.066 238.456C125.995 233.81 127.812 230.712 132.316 229.445L132.347 229.455C132.534 232.17 131.71 234.373 130.244 236.075L130.243 236.077Z" fill="white"/>
<path d="M72.4635 295.159C70.5521 294.531 68.5515 294.216 66.5394 294.227C36.3164 294.227 37.2205 294.435 35.8402 294.8C35.319 294.936 34.1835 295.271 33.7906 295.639C33.1279 296.26 33.2861 297.38 34.9061 297.92C38.6274 299.162 38.8954 298.852 64.2317 298.852C66.9907 298.852 69.6763 298.769 71.5294 298.279C72.0506 298.143 73.1861 297.808 73.5791 297.44C74.25 296.813 74.0736 295.695 72.4635 295.159Z" fill="#D1D0D6"/>
<path d="M318.565 296.248C318.207 295.637 317.217 295.319 316.524 295.159C313.701 294.526 310.815 294.213 307.921 294.227C264.132 294.227 265.349 294.433 263.336 294.8C262.656 294.923 260.938 295.266 260.359 295.639C259.921 295.922 259.669 296.375 259.937 296.831C260.295 297.442 261.286 297.76 261.979 297.92C267.758 299.249 270.024 298.852 304.569 298.852C308.489 298.852 312.533 298.757 315.167 298.28C315.848 298.156 317.563 297.815 318.144 297.44C318.582 297.157 318.834 296.705 318.565 296.248Z" fill="#D1D0D6"/>
<path d="M225.15 168.208C226.952 167.366 229.281 165.829 229.911 163.942C230.813 160.043 234.523 113.944 233.489 64.9931C233.162 49.4953 232.745 36.7414 231.073 10.2978C231.101 7.34579 229.076 4.54526 226.119 3.66614C224.821 3.27986 224.333 3.41139 224.087 3.34979C156.218 -3.05713 111.328 3.14666 103.217 3.38642C99.5312 3.49631 96.6141 6.47666 96.4759 10.2129C94.696 58.3131 93.0094 106.49 96.5325 163.258C96.5042 166.646 98.9101 169.362 101.897 170.043C102.636 170.211 103.501 170.218 104.003 170.214C104.586 170.209 216.094 169.395 218.868 169.259C223.186 169.047 225.663 168.706 223.028 168.365C211.045 166.809 108.705 167.038 103.089 166.831C102.603 166.758 102.039 166.641 101.464 166.255C99.6544 165.038 99.9508 163.413 99.7543 160.601C95.1789 95.5125 99.2548 12.3907 100.024 9.49197C100.384 8.13666 101.348 7.2692 102.475 6.95118C102.851 6.84462 112.954 5.97882 113.123 5.9655C153.557 2.54393 189.218 3.68945 224.762 6.89291C225.469 7.02418 226.118 7.37061 226.619 7.88476C227.121 8.39891 227.452 9.05564 227.566 9.76503C227.621 10.1097 227.64 10.9189 227.69 11.5449C229.396 33.125 230.863 73.2515 230.087 114.833C229.952 122.073 228.607 162.745 228.57 163.471C228.492 164.993 224.749 167.777 224.443 168.06C223.828 168.628 223.94 168.776 225.155 168.208H225.15Z" fill="white"/>
<path d="M217.18 140.634C209.745 159.78 179.392 158.045 175.16 137.594C173.51 129.619 176.627 121.061 183.022 116.026C198.713 103.673 224.567 121.603 217.178 140.634H217.18Z" fill="#D1D0D6"/>
<path d="M223.764 109.103C222.17 108.957 217.07 114.382 216.006 115.585C196.276 137.906 196.644 137.828 196.486 137.662C194.782 135.902 193.054 134.166 191.301 132.455C190.512 131.759 188.209 129.866 187.313 129.563C186.875 129.413 186.466 129.48 186.394 129.899C186.125 131.476 191.138 136.989 192.25 138.139L194.393 140.357C195.537 141.539 197.616 141.716 198.98 140.071C198.98 140.071 220.275 115.953 221.597 114.195C222.228 113.356 223.937 110.913 224.17 109.994C224.283 109.545 224.185 109.143 223.762 109.105L223.764 109.103Z" fill="white"/>
<path d="M196.452 88.9872C195.045 88.1031 183.682 87.9766 181.997 87.9766C179.914 87.9766 122.435 88.198 121.454 88.2629C120.179 88.3462 115.755 88.5993 116.837 89.2786C118.244 90.161 129.607 90.2892 131.292 90.2892C133.375 90.2892 190.854 90.0678 191.835 90.0029C193.111 89.918 197.534 89.6665 196.452 88.9872Z" fill="white"/>
<path d="M196.452 100.978C195.045 100.094 183.692 99.9678 181.997 99.9678C179.914 99.9678 122.435 100.188 121.454 100.254C120.18 100.337 115.758 100.59 116.837 101.27C118.251 102.156 129.641 102.28 131.292 102.28C133.374 102.28 190.854 102.059 191.835 101.994C193.109 101.909 197.534 101.656 196.452 100.978Z" fill="white"/>
<path d="M151.085 114.137C150.497 113.28 145.891 113.126 144.851 113.126C124.228 113.126 115.693 112.89 116.752 114.428C117.34 115.286 121.945 115.439 122.986 115.439C140.159 115.439 152.258 115.844 151.085 114.137Z" fill="white"/>
<path d="M166.387 11.1269C170.335 17.3363 173.6 23.9536 176.128 30.8638C176.172 30.9535 176.237 31.0311 176.318 31.0899C176.399 31.1488 176.493 31.1872 176.592 31.2018L198.374 34.367C198.488 34.3833 198.595 34.4313 198.683 34.5055C198.771 34.5797 198.837 34.6771 198.872 34.7867C198.908 34.8963 198.912 35.0137 198.884 35.1255C198.856 35.2373 198.798 35.3391 198.715 35.4193C194.088 41.1465 188.798 46.3036 182.954 50.7822C182.883 50.8523 182.829 50.9384 182.798 51.0335C182.767 51.1286 182.76 51.2297 182.776 51.3283L186.497 73.0233C186.517 73.1368 186.504 73.2536 186.461 73.3604C186.417 73.4672 186.345 73.5596 186.252 73.6272C186.158 73.6949 186.048 73.735 185.933 73.743C185.818 73.751 185.703 73.7267 185.601 73.6726L166.119 63.4296C166.031 63.3829 165.932 63.3585 165.832 63.3585C165.732 63.3585 165.633 63.3829 165.545 63.4296L146.063 73.6726C145.961 73.7267 145.846 73.751 145.731 73.743C145.616 73.735 145.506 73.6949 145.412 73.6272C145.319 73.5596 145.247 73.4672 145.203 73.3604C145.16 73.2536 145.147 73.1368 145.167 73.0233L148.888 51.3283C148.905 51.2297 148.898 51.1283 148.867 51.0331C148.836 50.9379 148.782 50.8518 148.71 50.7822C143.095 46.046 137.827 40.9118 132.949 35.4193C132.866 35.3391 132.808 35.2373 132.78 35.1255C132.752 35.0137 132.756 34.8963 132.792 34.7867C132.827 34.6771 132.893 34.5797 132.981 34.5055C133.069 34.4313 133.176 34.3833 133.29 34.367L155.072 31.2035C155.171 31.189 155.265 31.1504 155.346 31.0912C155.427 31.032 155.493 30.954 155.536 30.8638C158.152 23.9916 161.413 17.383 165.277 11.1269C165.38 10.9171 165.596 10.7823 166.384 11.1269H166.387Z" fill="#D1D0D6"/>
<path d="M208.895 39.1676C210.856 42.2531 212.479 45.541 213.735 48.9745C213.843 49.1942 213.147 49.0227 224.787 50.7144C224.844 50.7226 224.897 50.7464 224.941 50.7833C224.984 50.8202 225.017 50.8685 225.035 50.923C225.052 50.9774 225.054 51.0356 225.041 51.0912C225.027 51.1467 224.998 51.1973 224.957 51.2372C222.658 54.0827 220.029 56.6453 217.126 58.8712C216.952 59.0427 216.898 58.3268 218.886 69.9218C218.896 69.9782 218.89 70.0361 218.868 70.0891C218.847 70.142 218.811 70.1879 218.764 70.2215C218.718 70.2552 218.663 70.2751 218.606 70.2793C218.549 70.2834 218.492 70.2715 218.442 70.2448C207.914 64.7104 208.683 65.0484 208.477 65.1566L198.796 70.2448C198.746 70.2715 198.689 70.2834 198.632 70.2793C198.575 70.2751 198.52 70.2552 198.474 70.2215C198.427 70.1879 198.391 70.142 198.37 70.0891C198.348 70.0361 198.342 69.9782 198.352 69.9218C200.361 58.2086 200.28 59.0327 200.112 58.8712C197.322 56.5179 194.705 53.9666 192.281 51.2372C192.24 51.1973 192.211 51.1467 192.197 51.0912C192.184 51.0356 192.186 50.9774 192.203 50.923C192.221 50.8685 192.254 50.8202 192.297 50.7833C192.341 50.7464 192.394 50.7226 192.451 50.7144C204.221 49.0044 203.402 49.1826 203.503 48.9745C204.803 45.5596 206.423 42.2759 208.343 39.1676C208.395 39.0627 208.503 38.9961 208.895 39.1676Z" fill="#D1D0D6"/>
<path d="M120.897 40.7477C122.858 43.8331 124.481 47.1211 125.737 50.5545C125.845 50.7743 125.149 50.6045 136.789 52.2945C136.846 52.3026 136.899 52.3265 136.943 52.3634C136.986 52.4002 137.019 52.4486 137.037 52.503C137.054 52.5574 137.056 52.6157 137.043 52.6713C137.029 52.7268 137 52.7774 136.959 52.8173C134.66 55.6628 132.031 58.2254 129.128 60.4513C128.953 60.6228 128.9 59.9068 130.888 71.5019C130.898 71.5583 130.892 71.6162 130.87 71.6692C130.849 71.7221 130.813 71.768 130.766 71.8016C130.72 71.8352 130.665 71.8552 130.608 71.8593C130.551 71.8635 130.494 71.8515 130.444 71.8249C119.916 66.2905 120.685 66.6301 120.479 66.7367L110.798 71.8249C110.748 71.8515 110.691 71.8635 110.634 71.8593C110.577 71.8552 110.522 71.8352 110.476 71.8016C110.429 71.768 110.393 71.7221 110.372 71.6692C110.35 71.6162 110.344 71.5583 110.354 71.5019C112.363 59.7886 112.282 60.6145 112.114 60.4513C109.324 58.0979 106.707 55.5467 104.283 52.8173C104.242 52.7774 104.213 52.7268 104.199 52.6713C104.186 52.6157 104.188 52.5574 104.205 52.503C104.223 52.4486 104.256 52.4002 104.299 52.3634C104.343 52.3265 104.396 52.3026 104.453 52.2945C116.223 50.5845 115.404 50.7627 115.505 50.5545C116.805 47.1397 118.425 43.856 120.345 40.7477C120.397 40.6428 120.505 40.5762 120.897 40.7477Z" fill="#D1D0D6"/>
<path d="M240.258 234.094C239.334 233.802 236.46 236.22 235.749 236.876C220.021 251.396 220.556 251.012 219.925 251.857C219.494 252.434 218.688 253.509 219.392 253.731C219.728 253.835 220.191 253.626 220.494 253.454C223.02 252.029 223.693 251.145 236.112 239.688C237.224 238.662 241.698 234.546 240.258 234.094Z" fill="#D1D0D6"/>
<path d="M250.289 264.676C249.833 263.902 246.918 264 246.034 264.088C228.904 265.831 229.464 265.856 228.661 266.13C228.385 266.224 227.747 266.456 227.54 266.664C227.204 267.002 227.327 267.556 228.286 267.736C230.586 268.164 231.315 267.921 244.956 266.522C246.347 266.379 251 265.885 250.289 264.676Z" fill="#D1D0D6"/>
<path d="M212.619 221.911C211.773 221.904 210.741 223.97 210.436 224.76C206.425 235.164 205.09 238.306 205.558 239.37C205.739 239.781 206.291 239.898 206.812 239.292C208.021 237.882 207.931 237.707 212.205 226.603C212.683 225.362 213.95 221.914 212.619 221.909V221.911Z" fill="#D1D0D6"/>
</svg>
