<svg xmlns="http://www.w3.org/2000/svg" width="113" height="32" fill="none"><path fill="#F07D29" fill-rule="evenodd" d="M.26 15.998C.26 7.304 7.307.255 16 .255c8.275 0 15.059 6.388 15.692 14.502-.032-.41-.08-.817-.143-1.22-.265 1.694-1.107 3.731-4.196 4.647-3.312.983-5.787-.066-7.482-.784-.424-.18-.799-.338-1.126-.44l-.003.135c-.007.26-.026.508-.042.732l-.002.027a8.737 8.737 0 0 0-.032.618c0 .348.09.817.224 1.304.133.482.305.966.46 1.335.072.174.156.32.246.472l.018.03c.083.141.172.292.249.465.168.382.267.855.204 1.63-.073.887-.836 1.357-1.54 1.567-.36.107-.729.155-1.037.156a2.28 2.28 0 0 1-.421-.034.811.811 0 0 1-.328-.125c-.235-.174-.44-.44-.615-.735a5.457 5.457 0 0 1-.443-.987c-.09-.264-.33-.499-.633-.701a5.957 5.957 0 0 0-.76-.412c-.03-.015-.06-.03-.09-.043a6.841 6.841 0 0 0-.186-.084 8.345 8.345 0 0 1-1.067-.54c-.508-.317-1.05-.778-1.211-1.417-.124-.491-.068-.99.046-1.405.114-.416.29-.765.421-.965-.086.245-.173.529-.195 1.096 0 .437.051.773.151 1.167.119.468.533.85 1.019 1.153.361.225.724.385.986.5.088.038.165.072.226.101l.085.04v.001c.216.103.528.25.818.444.327.22.666.521.803.924.11.323.25.639.407.907.159.27.33.48.498.605.01.008.053.03.149.047.089.017.204.027.338.026.268 0 .596-.043.915-.138.654-.195 1.179-.577 1.229-1.183.058-.718-.035-1.115-.169-1.418a3.979 3.979 0 0 0-.228-.425l-.015-.025a4.167 4.167 0 0 1-.273-.525c-.161-.386-.34-.887-.478-1.388-.137-.498-.24-1.012-.24-1.42 0-.198.016-.42.033-.65l.002-.025c.017-.226.035-.464.042-.715.015-.519-.015-1.081-.19-1.657-.179-.588-.424-1.13-.854-1.6l-.057-.062a20.494 20.494 0 0 0-.158-.173l3.516-7.821-4.843 6.814a3.495 3.495 0 0 0-.32-.125l-.012-.004-.02-.007-.008-.002-.012-.004a1.563 1.563 0 0 0-.02-.007l-.02-.006c-1.98-.633-4.014-.454-7.185 1.233-2.522 1.342-4.086 4.442-4.448 6.92-.125.858-.128 4.117 1.074 6.428a15.694 15.694 0 0 1-4.49-11.01ZM8.24 29.7a15.804 15.804 0 0 0 0 0Z" clip-rule="evenodd"/><path fill="#fff" d="M16 31.742c8.693 0 15.74-7.049 15.74-15.744a15.98 15.98 0 0 0-.191-2.46c-.265 1.693-1.107 3.73-4.196 4.646-3.312.983-5.787-.066-7.482-.784-.424-.18-.799-.338-1.126-.44l-.003.135c-.007.26-.026.508-.042.732l-.002.027a8.737 8.737 0 0 0-.032.618c0 .348.09.817.224 1.304.133.482.305.966.46 1.335.072.174.156.32.246.472l.018.03c.083.141.172.292.249.465.168.382.267.855.204 1.63-.073.887-.836 1.357-1.54 1.567-.36.107-.729.155-1.037.156a2.28 2.28 0 0 1-.421-.034.811.811 0 0 1-.328-.125c-.235-.174-.44-.44-.615-.735a5.457 5.457 0 0 1-.443-.987c-.09-.264-.33-.499-.633-.701a5.957 5.957 0 0 0-.76-.412c-.03-.015-.06-.03-.09-.043a6.841 6.841 0 0 0-.186-.084 8.345 8.345 0 0 1-1.067-.54c-.508-.317-1.05-.778-1.211-1.417-.124-.491-.068-.99.046-1.405.114-.416.29-.765.421-.965-.086.245-.173.529-.195 1.096 0 .437.051.773.151 1.167.119.468.533.85 1.019 1.153.361.225.724.385.986.5.088.038.165.072.226.101l.085.04v.001c.216.103.528.25.818.444.327.22.666.521.803.924.11.323.25.639.407.907.159.27.33.48.498.605.01.008.053.03.149.047.089.017.204.027.338.026.268 0 .596-.043.915-.138.654-.195 1.179-.577 1.229-1.183.058-.718-.035-1.115-.169-1.418a3.979 3.979 0 0 0-.228-.425l-.015-.025a4.167 4.167 0 0 1-.273-.525c-.161-.386-.34-.887-.478-1.388-.137-.498-.24-1.012-.24-1.42 0-.198.016-.42.033-.65l.002-.025c.017-.226.035-.464.042-.715.015-.519-.015-1.081-.19-1.657-.179-.588-.424-1.13-.854-1.6l-.057-.062a20.494 20.494 0 0 0-.158-.173l3.516-7.821-4.843 6.814a3.495 3.495 0 0 0-.32-.125l-.012-.004-.02-.007-.008-.002-.012-.004-.02-.007-.02-.006c-1.98-.633-4.014-.454-7.185 1.233-2.522 1.342-4.086 4.442-4.448 6.92-.125.858-.128 4.117 1.074 6.428A15.804 15.804 0 0 0 8.8 30.002a15.67 15.67 0 0 0 7.2 1.74Z"/><path fill="#F07D29" fill-rule="evenodd" d="M31.988 15.382C31.663 6.835 24.633 0 16 0 7.16 0 0 7.167 0 16c0 4.34 1.729 8.278 4.536 11.161l.027.028A15.953 15.953 0 0 0 16 32c8.84 0 16-7.167 16-16 0-.207-.004-.413-.012-.618ZM16 .513C7.454.513.52 7.443.52 16c0 3.682 1.284 7.063 3.428 9.72l1.015 1.14A15.43 15.43 0 0 0 16 31.486c8.546 0 15.48-6.93 15.48-15.487 0-.233-.005-.466-.015-.696-.005-.11-.172-1.656-.18-1.765C30.108 6.153 23.71.513 16 .513Z" clip-rule="evenodd"/><path fill="#101828" d="M41.138 9.91h3.413l3.605 8.794h.154l3.605-8.795h3.413V23h-2.684v-8.52h-.11l-3.387 8.456h-1.828l-3.388-8.489h-.109V23h-2.684V9.91Zm20.894 13.282c-1.01 0-1.88-.205-2.608-.614a4.203 4.203 0 0 1-1.675-1.751c-.392-.759-.588-1.656-.588-2.691 0-1.01.196-1.897.588-2.66a4.347 4.347 0 0 1 1.656-1.783c.716-.426 1.555-.639 2.518-.639.648 0 1.25.104 1.81.313a4.012 4.012 0 0 1 1.47.927c.421.413.75.933.984 1.56.234.622.351 1.35.351 2.186v.748h-8.29V17.1h5.727c0-.392-.085-.74-.256-1.042a1.833 1.833 0 0 0-.71-.71 2.024 2.024 0 0 0-1.041-.261c-.414 0-.78.095-1.1.287a2.016 2.016 0 0 0-.741.76c-.179.316-.27.668-.275 1.056v1.604c0 .486.09.906.269 1.26.183.353.44.626.773.817.332.192.727.288 1.183.288.302 0 .58-.043.83-.128.252-.085.467-.213.646-.383.18-.17.315-.38.41-.627l2.518.166a3.439 3.439 0 0 1-.787 1.586c-.392.447-.899.797-1.52 1.048-.619.247-1.333.37-2.142.37Zm11.505-10.01v2.045h-5.912v-2.045h5.912Zm-4.57-2.353h2.723v9.154c0 .251.038.447.115.588a.635.635 0 0 0 .32.288c.14.055.302.083.486.083.127 0 .255-.01.383-.032l.294-.058.428 2.027a7.666 7.666 0 0 1-.575.147 4.62 4.62 0 0 1-.901.108c-.656.026-1.232-.062-1.726-.262-.49-.2-.871-.511-1.144-.933-.273-.422-.407-.955-.403-1.598v-9.512Zm9.144 12.356c-.626 0-1.185-.108-1.675-.326a2.696 2.696 0 0 1-1.163-.978c-.281-.434-.422-.976-.422-1.623 0-.546.1-1.004.3-1.374.2-.371.474-.67.819-.895a3.97 3.97 0 0 1 1.176-.512 8.95 8.95 0 0 1 1.393-.243c.571-.06 1.031-.115 1.38-.166.35-.055.604-.136.762-.243a.534.534 0 0 0 .236-.473v-.038c0-.405-.128-.718-.383-.94-.252-.221-.61-.332-1.074-.332-.49 0-.88.109-1.17.326a1.5 1.5 0 0 0-.575.805l-2.519-.204c.128-.597.38-1.112.755-1.547a3.62 3.62 0 0 1 1.45-1.01c.597-.239 1.287-.358 2.072-.358.545 0 1.067.064 1.566.192.502.128.948.326 1.335.594.392.269.702.614.927 1.036.226.417.34.918.34 1.502V23h-2.583v-1.361h-.077a2.772 2.772 0 0 1-.633.811 2.93 2.93 0 0 1-.952.544c-.371.127-.8.191-1.285.191Zm.78-1.879c.4 0 .754-.079 1.06-.236a1.88 1.88 0 0 0 .723-.652c.175-.273.262-.582.262-.927v-1.042a1.462 1.462 0 0 1-.351.153 6.403 6.403 0 0 1-.492.122c-.184.034-.367.066-.55.096l-.499.07c-.32.047-.599.121-.837.224a1.34 1.34 0 0 0-.556.415c-.132.17-.198.384-.198.64 0 .37.134.653.402.85.273.191.618.287 1.036.287Zm11.336 1.886c-1.01 0-1.88-.205-2.608-.614a4.203 4.203 0 0 1-1.675-1.751c-.392-.759-.588-1.656-.588-2.691 0-1.01.196-1.897.588-2.66a4.347 4.347 0 0 1 1.656-1.783c.716-.426 1.555-.639 2.518-.639.648 0 1.251.104 1.81.313a4.014 4.014 0 0 1 1.47.927c.421.413.75.933.984 1.56.234.622.352 1.35.352 2.186v.748h-8.291V17.1h5.727c0-.392-.085-.74-.255-1.042a1.833 1.833 0 0 0-.71-.71 2.024 2.024 0 0 0-1.042-.261c-.413 0-.78.095-1.1.287a2.016 2.016 0 0 0-.74.76c-.18.316-.271.668-.276 1.056v1.604c0 .486.09.906.269 1.26.183.353.44.626.773.817.333.192.727.288 1.183.288.302 0 .58-.043.83-.128.252-.085.467-.213.646-.383.18-.17.316-.38.41-.627l2.518.166a3.44 3.44 0 0 1-.786 1.586c-.392.447-.9.797-1.522 1.048-.617.247-1.331.37-2.14.37ZM96.51 23v-9.818h2.64v1.713h.103c.179-.61.48-1.07.901-1.38a2.37 2.37 0 0 1 1.457-.474 4.086 4.086 0 0 1 .857.096v2.416a3.555 3.555 0 0 0-.531-.102 4.767 4.767 0 0 0-.62-.045c-.4 0-.758.088-1.074.262-.31.17-.558.41-.741.716-.179.307-.268.66-.268 1.061V23H96.51Zm9.884.185c-.626 0-1.184-.108-1.675-.326a2.698 2.698 0 0 1-1.163-.978c-.281-.434-.422-.976-.422-1.623 0-.546.1-1.004.301-1.374.2-.371.473-.67.818-.895a3.965 3.965 0 0 1 1.176-.512 8.958 8.958 0 0 1 1.393-.243c.571-.06 1.032-.115 1.381-.166.35-.055.603-.136.761-.243a.535.535 0 0 0 .236-.473v-.038c0-.405-.128-.718-.383-.94-.252-.221-.61-.332-1.074-.332-.49 0-.88.109-1.17.326a1.5 1.5 0 0 0-.575.805l-2.519-.204c.128-.597.38-1.112.755-1.547a3.616 3.616 0 0 1 1.451-1.01c.596-.239 1.287-.358 2.071-.358.545 0 1.067.064 1.566.192.503.128.948.326 1.336.594.392.269.701.614.927 1.036.225.417.338.918.338 1.502V23h-2.582v-1.361h-.077a2.748 2.748 0 0 1-.633.811c-.264.23-.581.412-.952.544a3.94 3.94 0 0 1-1.285.191Zm.78-1.879c.401 0 .754-.079 1.061-.236.307-.162.548-.38.722-.652.175-.273.262-.582.262-.927v-1.042a1.453 1.453 0 0 1-.351.153 6.431 6.431 0 0 1-.492.122c-.184.034-.367.066-.55.096l-.499.07a3.381 3.381 0 0 0-.837.224c-.239.102-.424.24-.556.415-.132.17-.198.384-.198.64 0 .37.134.653.402.85.273.191.618.287 1.036.287Z"/></svg>