<svg xmlns="http://www.w3.org/2000/svg" width="17" height="13" version="1.0" viewBox="0 0 1280 965"><path d="M0 482.5V965h1280V0H0v482.5zM1134.9 89.4c-28.5 29.3-46.7 47.6-343.7 345.8-109.1 109.5-114.6 114.9-121.5 118.3-18.3 9-43.4 8-59.6-2.5-5-3.1-52.8-51.2-298-299.5-70.7-71.5-135.7-137.3-144.5-146.3L151.5 89h491.9c270.6 0 491.7.2 491.5.4zM251.4 317.2c88.4 89.4 160.8 163 160.8 163.3 0 .6-313.7 322-320.6 328.4l-2.6 2.4V482.6c0-180.8.4-328.6.8-328.4.5.1 73.2 73.5 161.6 163zM1191 485.6c0 180.2-.4 324.4-.9 324.2-.4-.2-72.7-73.9-160.5-163.7L869.9 482.6l77.3-77.5C1144 207.6 1190.5 161 1190.7 161c.2 0 .3 146.1.3 324.6zM553 620.2c27.8 20.3 59 29.8 94.2 28.5 23.7-.8 43.9-5.8 63.1-15.6 17.6-9 24-14.4 61.6-51.6l35.4-35.2 160.9 164.6L1129 875.5l-488.2.3c-268.5.1-488.3 0-488.6-.2-.2-.3 4.3-5.2 10-11 5.6-5.8 78.5-80.3 161.8-165.6l151.5-155 35 35.3c19.9 20.1 38.2 37.7 42.5 40.9z"/></svg>