<svg width="400" height="290" viewBox="0 0 400 290" fill="none" xmlns="http://www.w3.org/2000/svg">
<path d="M196.106 221.484C187.651 228.291 172.613 229.358 165.531 229.221C164.824 236.954 164.781 244.733 165.405 252.473C191.436 259.384 233.225 258.458 257.353 252.24C257.618 245.571 257.353 237.443 257.215 229.876C241.626 231.091 209.054 224.686 196.106 221.484Z" fill="#F07D29"/>
<path d="M141.064 237.295C133.82 242.372 99.4237 239.906 88.2197 238.193C88.2837 242.183 88.4847 245.175 88.8857 249.65C108.311 255.06 144.688 254.46 161.903 249.65C162.041 243.372 162.845 232.824 162.845 229.101C157.793 228.602 152.895 227.081 148.449 224.63C148.246 227.159 147.478 229.611 146.199 231.803C144.921 233.996 143.166 235.872 141.064 237.294V237.295Z" fill="#F07D29"/>
<path d="M270.332 224.686C267.401 227.186 263.943 228.993 260.217 229.971C260.522 235.878 260.323 238.583 260.428 248.499C271.999 251.996 303.273 250.893 318.084 247.99V237.179C298.866 235.298 272.742 234.705 270.332 224.686Z" fill="#F07D29"/>
<path d="M126.468 170.901C126.566 170.131 127.801 169.951 127.791 170.733C127.379 181.948 124.426 192.923 119.155 202.831C125.659 205.259 132.03 208.028 138.243 211.126C130.56 180.329 150.588 154.193 161.399 146.658C158.704 144.047 152.236 141.098 143.781 140.811C135.326 140.524 123.446 145.567 117.359 152.173C118.042 148.501 119.724 145.089 122.221 142.312C93.9799 145.482 81.1599 154.17 72.5459 159.469C72.4537 170.343 73.0888 181.211 74.4469 192.001C79.0751 192.162 83.709 191.996 88.3139 191.504C90.9349 181.992 95.9669 166.668 102.762 158.888C103.269 158.307 104.007 158.688 103.576 159.417C97.9259 168.823 88.3659 189.559 87.6579 208.931C92.6459 209.037 111.819 206.976 117.114 202.685C122.122 192.741 125.291 181.974 126.469 170.903L126.468 170.901Z" fill="#F07D29"/>
<path d="M139.099 200.389C145.441 198.498 157.615 193.806 170.806 189.428C171.464 182.314 173.602 175.417 177.084 169.179C177.539 168.525 178.427 168.89 178.139 169.708C175.647 175.78 173.959 182.152 173.12 188.661C188.148 183.789 204.182 179.534 214.476 180.354C230.985 181.667 238.594 186.197 241.077 192.412C241.055 185.737 239.868 179.117 237.568 172.851C237.527 172.716 237.534 172.571 237.588 172.44C237.642 172.31 237.739 172.202 237.863 172.134C237.987 172.067 238.131 172.045 238.269 172.071C238.408 172.097 238.534 172.17 238.625 172.278C240.897 175.566 242.852 185.912 243.295 194.664C255.407 194.939 274.417 197.136 278.056 200.25C277.457 174.219 267.181 140.58 225.53 134.439C221.566 140.487 216.597 145.813 210.839 150.186C204.019 146.839 198.145 141.84 193.75 135.644C170.604 137.781 139.5 157.426 139.099 200.389Z" fill="#F07D29"/>
<path d="M305.831 164.212C300.484 158.504 284.451 148.36 278.142 147.123C273.347 148.508 268.838 150.737 264.825 153.706C281.417 173.163 282.991 202.396 278.142 214.276C282.01 211.411 286.058 209.043 296.542 206.571C291.992 197.138 288.763 187.124 286.946 176.81C286.852 175.89 287.995 175.649 288.193 176.567C290.526 187.212 294.123 197.541 298.908 207.332C299.507 209.447 316.749 211.855 319.55 212.278C322.371 194.153 329.988 179.983 317.435 162.415C316.92 161.695 317.834 161.084 318.409 161.719C325.192 169.226 326.746 180.213 325.99 189.946C329.083 190.895 332.227 191.671 335.406 192.272C337.618 183.022 339.322 173.658 340.511 164.222C333.008 157.806 314.682 148.37 303.604 146.255C305.911 151.941 306.678 158.135 305.83 164.212H305.831Z" fill="#F07D29"/>
<path d="M301.869 72.0951C303.988 69.5951 310.324 58.6311 310.916 55.2471C311.064 54.4031 309.785 53.7591 309.35 54.5411C306.457 59.7621 303.02 65.8971 300.325 71.1331C299.842 72.0751 301.205 72.8791 301.869 72.0951Z" fill="#F07D29"/>
<path d="M158.44 61.884C158.699 62.939 160.136 62.381 160.13 61.473C160.1 56.39 154.225 43.197 151.322 39.183C151.188 39.0105 150.998 38.8912 150.784 38.8463C150.57 38.8014 150.348 38.834 150.156 38.938C149.964 39.0421 149.816 39.211 149.737 39.4145C149.658 39.618 149.654 39.8429 149.726 40.049C150.893 44.637 155.621 50.437 158.44 61.884Z" fill="#F07D29"/>
<path d="M110.933 67.5941C111.49 68.3261 112.866 67.7641 112.455 66.8221C109.955 61.8125 106.978 57.0557 103.565 52.6181C102.941 51.9541 101.714 52.8001 102.087 53.6161C104.683 58.4899 107.64 63.1616 110.933 67.5941Z" fill="#F07D29"/>
<path d="M207.781 53.9899C208.096 47.1366 207.923 40.2696 207.262 33.4409C207.124 32.5849 205.764 32.3859 205.646 33.3569C205.181 40.2823 205.258 47.2336 205.877 54.1469C205.985 55.4079 207.74 55.1839 207.78 53.9889L207.781 53.9899Z" fill="#F07D29"/>
<path d="M255.134 63.4381C257.217 57.6531 260.598 46.937 262.089 41.012C262.308 40.134 261.08 39.328 260.555 40.24C257.107 47.4827 254.696 55.1744 253.391 63.089C253.379 63.3052 253.445 63.5187 253.577 63.6901C253.709 63.8615 253.899 63.9792 254.111 64.0217C254.324 64.0642 254.544 64.0286 254.732 63.9213C254.921 63.814 255.063 63.6424 255.134 63.4381Z" fill="#F07D29"/>
<path d="M77.6527 88.3601C74.396 84.0975 70.344 80.5066 65.7207 77.7861C65.5264 77.7236 65.3163 77.7316 65.1273 77.8086C64.9383 77.8856 64.7825 78.0267 64.6873 78.2072C64.592 78.3877 64.5634 78.596 64.6065 78.7955C64.6495 78.995 64.7615 79.173 64.9227 79.2981C68.8107 82.7951 72.4657 85.7161 76.2947 89.4551C76.448 89.6073 76.6521 89.6977 76.8679 89.7089C77.0837 89.7201 77.296 89.6513 77.4642 89.5157C77.6325 89.3802 77.7448 89.1873 77.7798 88.9741C77.8147 88.7609 77.7689 88.5423 77.6527 88.3601Z" fill="#F07D29"/>
<path d="M382.497 135.454C377.982 137.039 373.609 139.001 369.424 141.319C368.504 141.9 369.055 143.677 370.164 143.2C372.478 142.202 381.496 138.466 383.112 137.015C383.659 136.528 383.321 135.363 382.498 135.453L382.497 135.454Z" fill="#F07D29"/>
<path d="M388.839 179.388C384.031 179.385 379.231 179.777 374.487 180.561C373.378 180.84 373.821 182.315 374.804 182.39C379.529 182.329 384.242 181.909 388.903 181.133C389.089 181.07 389.249 180.948 389.36 180.787C389.472 180.625 389.528 180.432 389.521 180.236C389.514 180.04 389.443 179.852 389.321 179.699C389.198 179.546 389.029 179.436 388.839 179.387V179.388Z" fill="#F07D29"/>
<path d="M357.206 81.8181C353.679 84.9916 350.672 88.7002 348.296 92.8081C348.197 93.0273 348.181 93.2749 348.25 93.5052C348.319 93.7356 348.469 93.9333 348.672 94.062C348.876 94.1906 349.118 94.2415 349.356 94.2053C349.594 94.1691 349.811 94.0483 349.966 93.8651C352.334 90.8861 356.498 86.1741 358.421 83.1061C358.858 82.3961 357.968 81.3311 357.206 81.8181Z" fill="#F07D29"/>
<path d="M27.5017 194.65C22.9475 193.817 18.313 193.509 13.6887 193.73C12.7707 193.838 12.6317 195.274 13.5947 195.4C18.1793 195.952 22.7903 196.255 27.4077 196.31C28.4427 196.332 28.3777 194.929 27.5017 194.65Z" fill="#F07D29"/>
<path d="M22.4087 110.923C22.2083 110.855 21.9903 110.861 21.794 110.94C21.5977 111.019 21.4359 111.165 21.3377 111.352C21.2396 111.54 21.2115 111.756 21.2586 111.962C21.3057 112.168 21.4249 112.351 21.5947 112.477C25.1217 114.803 28.8211 116.856 32.6607 118.618C32.8739 118.7 33.1099 118.701 33.3237 118.621C33.5376 118.54 33.7143 118.384 33.8202 118.181C33.926 117.979 33.9536 117.744 33.8976 117.523C33.8416 117.301 33.706 117.108 33.5167 116.98C30.0887 114.494 26.3555 112.458 22.4087 110.923Z" fill="#F07D29"/>
<path d="M26.3292 156.687C21.3412 155.863 16.3542 154.971 11.3552 154.193C10.4132 154.045 10.1182 155.482 11.0162 155.789C15.9702 157.191 21.0559 158.077 26.1922 158.432C26.4106 158.428 26.6195 158.342 26.7784 158.193C26.9374 158.043 27.0349 157.839 27.0521 157.622C27.0693 157.404 27.005 157.188 26.8715 157.015C26.7381 156.842 26.5452 156.725 26.3302 156.686L26.3292 156.687Z" fill="#F07D29"/>
<path d="M196.223 88.2641C197.327 87.3997 198.678 86.9103 200.079 86.8671C202.074 86.6671 201.729 85.3011 201.276 84.9861C200.013 84.0921 196.159 85.3651 195.273 86.9811C194.613 88.1781 195.622 88.7411 196.223 88.2641Z" fill="#180B02"/>
<path d="M215.96 86.3631C217.59 86.036 219.281 86.2093 220.812 86.8601C220.971 86.9351 221.154 86.944 221.32 86.8851C221.487 86.8261 221.623 86.7039 221.7 86.5451C222.322 85.2421 218.326 83.4371 215.358 84.3131C213.582 84.8361 213.407 86.8141 215.96 86.3631Z" fill="#180B02"/>
<path d="M205.797 110.048C209.027 117.132 220.331 113.398 217.697 104.626C217.338 103.77 216.257 104.093 215.975 104.341C213.711 106.367 210.829 107.569 207.796 107.754C206.146 107.944 204.921 108.123 205.797 110.048ZM216.283 106.244C216.496 107.349 216.307 108.494 215.751 109.472C215.195 110.451 214.308 111.198 213.249 111.581C212.191 111.963 211.03 111.955 209.977 111.557C208.924 111.16 208.048 110.4 207.505 109.414C210.704 109.37 213.795 108.254 216.283 106.244Z" fill="#180B02"/>
<path d="M210.797 103.43C211.262 102.923 210.935 101.91 209.857 102.448C208.906 102.794 207.88 102.878 206.886 102.691C205.302 102.396 205.731 103.728 206.886 104.169C207.541 104.427 208.256 104.494 208.948 104.363C209.639 104.232 210.28 103.908 210.796 103.429L210.797 103.43Z" fill="#180B02"/>
<path d="M225.319 95.4199C225.18 95.5473 225.091 95.72 225.067 95.9073C225.042 96.0945 225.086 96.2842 225.188 96.4427C225.291 96.6011 225.447 96.718 225.627 96.7726C225.808 96.8272 226.002 96.816 226.175 96.7409C226.439 96.6147 226.725 96.5444 227.017 96.5346C227.309 96.5247 227.599 96.5755 227.87 96.6837C228.141 96.7918 228.387 96.955 228.592 97.163C228.797 97.371 228.956 97.6191 229.06 97.8919C230.117 100.112 228.461 105.81 227.476 106.846C226.197 108.189 224.591 107.087 224.304 107.014C224.473 105.59 224.565 104.157 224.579 102.723C224.591 101.725 223.294 101.526 223.248 102.543C222.981 108.516 221.574 115.367 215.922 118.619C213.401 119.805 210.612 120.305 207.836 120.067C205.06 119.829 202.395 118.863 200.112 117.266C195.885 113.715 196.014 107.758 194.827 104.897C194.552 104.231 193.696 104.42 193.644 105.16C193.57 106.369 193.695 107.582 194.013 108.751C192.932 109 191.798 108.844 190.824 108.312C189.85 107.78 189.105 106.91 188.73 105.866C187.946 104.07 187.503 98.8989 189.289 98.7319C190.087 98.6579 190.346 97.4429 189.459 97.2639C184.914 96.3379 184.775 107.022 189.924 110.072C190.607 110.482 191.366 110.748 192.155 110.853C192.944 110.959 193.746 110.902 194.512 110.686C195.132 113.661 196.601 116.392 198.741 118.548C198.288 124.12 197.492 129.654 196.531 135.162C196.483 135.371 196.518 135.59 196.629 135.774C196.74 135.957 196.918 136.091 197.125 136.146C197.332 136.2 197.552 136.173 197.74 136.068C197.927 135.963 198.066 135.79 198.127 135.585C199.341 130.462 200.207 125.263 200.721 120.024C203.174 121.326 205.896 122.038 208.672 122.104C211.447 122.17 214.2 121.587 216.711 120.403C218.626 119.146 220.256 117.501 221.496 115.575C222.736 113.649 223.558 111.484 223.909 109.221C226.646 110.448 229.096 109.075 230.155 106.051C233.784 95.5969 227.787 93.2569 225.319 95.4199Z" fill="#180B02"/>
<path d="M216.568 123.205C217.072 127.111 218.033 130.944 219.431 134.626C219.542 134.842 219.724 135.013 219.947 135.11C220.169 135.208 220.418 135.226 220.652 135.162C220.886 135.097 221.091 134.954 221.232 134.757C221.373 134.559 221.441 134.319 221.426 134.077C220.148 130.434 219.089 126.717 218.256 122.947C217.897 121.337 216.59 121.566 216.568 123.204V123.205Z" fill="#180B02"/>
<path d="M125.337 134.271C125.267 136.755 125.096 139.227 125.106 141.668C125.106 142.344 126.447 142.63 126.766 141.668C126.985 141.002 127.634 133.852 127.093 132.982C126.856 132.597 125.405 131.883 125.337 134.271Z" fill="#180B02"/>
<path d="M123.065 116.208C122.736 115.374 120.539 116.82 119.895 116.483C119.251 116.146 119.721 109.602 118.838 109.961C117.777 110.394 117.382 116.744 118.617 117.793C119.688 118.711 123.559 117.446 123.066 116.207L123.065 116.208Z" fill="#180B02"/>
<path d="M124.555 121.291C129.397 120.012 130.903 118.426 130.54 116.008C130.34 114.653 128.733 114.073 128.713 116.407C128.697 118.214 126.399 118.965 124.041 119.936C123.193 120.351 122.959 121.714 124.555 121.291Z" fill="#180B02"/>
<path d="M134.817 126.778C135.429 126.207 134.627 125.12 133.887 125.445C130.613 126.889 125.919 131.063 120.919 130.012C118.754 129.555 117.745 127.434 117.041 125.563C116.15 123.154 115.443 120.68 114.928 118.164C114.744 117.296 113.354 117.635 113.426 118.491C113.789 122.718 115.311 130.66 120.043 132.009C123.851 133.086 128.185 131.139 131.446 129.216C132.654 128.528 133.784 127.71 134.816 126.778H134.817Z" fill="#180B02"/>
<path d="M111.821 103.43C111.799 102.311 111.821 99.33 110.69 99.35C109.347 99.376 110.171 103.98 110.351 104.858C110.531 105.736 111.879 106.37 111.821 103.43Z" fill="#180B02"/>
<path d="M126.734 99.827C128.16 99.827 127.789 98.688 126.977 98.369C125.78 97.898 122.103 97.671 122.189 99.267C122.291 101.16 125.106 99.838 126.734 99.828V99.827Z" fill="#180B02"/>
<path d="M113.712 103.622C115.12 102.674 116.525 102.565 116.058 101.264C115.519 99.764 112.84 101.689 112.359 102.786C112.034 103.528 112.572 104.386 113.712 103.622Z" fill="#180B02"/>
<path d="M303.391 125.14C301.077 124.781 301.372 126.562 304.764 126.842C305.907 126.936 306.208 125.868 306.139 124.971C305.618 118.368 304.144 119.784 304.28 120.981C304.439 122.35 304.488 123.729 304.428 125.105C304.396 125.362 303.656 125.181 303.393 125.141L303.391 125.14Z" fill="#180B02"/>
<path d="M300.167 139.925C298.391 139.725 299.11 145.802 299.768 146.53C300.426 147.258 301.442 146.668 301.204 145.155C300.861 142.915 301.224 140.04 300.167 139.924V139.925Z" fill="#180B02"/>
<path d="M300.273 128.89C299.674 128.321 297.679 128.619 296.405 125.477C295.342 122.848 292.65 126.014 296.225 128.869C298.487 130.663 301.356 129.932 300.273 128.891V128.89Z" fill="#180B02"/>
<path d="M314.17 110.205C314.014 109.253 312.991 109.529 312.923 110.458C312.873 111.134 312.616 112.688 313.4 112.836C314.184 112.984 314.314 111.06 314.17 110.205Z" fill="#180B02"/>
<path d="M288.287 131.069C290.867 134.441 297.64 139.915 302.154 138.973C307.287 137.904 310.898 129.231 311.423 124.609C311.553 123.456 310.511 123.55 310.282 124.523C309.34 128.513 306.051 136.136 301.985 137.058C297.67 138.038 292.473 132.523 289.416 129.988C289.265 129.884 289.082 129.835 288.899 129.85C288.716 129.864 288.544 129.942 288.411 130.069C288.279 130.196 288.194 130.365 288.171 130.547C288.148 130.729 288.189 130.913 288.287 131.069Z" fill="#180B02"/>
<path d="M310.894 112.743C312.195 113.355 312.458 112.192 311.538 111.41C311.106 111.085 310.607 110.858 310.078 110.745C309.549 110.632 309.002 110.636 308.474 110.756C308.285 110.795 308.115 110.901 307.996 111.054C307.877 111.207 307.817 111.397 307.826 111.591C307.835 111.784 307.913 111.968 308.045 112.109C308.177 112.251 308.356 112.34 308.548 112.362C309.342 112.401 310.129 112.529 310.894 112.743Z" fill="#180B02"/>
<path d="M301.18 111.157C302.616 111.544 303.295 109.928 302.016 109.286C301.192 108.873 296.889 108.999 297.282 110.619C297.509 111.559 300.059 110.856 301.18 111.158V111.157Z" fill="#180B02"/>
<path d="M68.5405 161.888C68.9395 162.828 70.0425 162.245 69.7555 161.289C66.2205 149.576 59.0265 125.114 58.4155 112.513C58.0234 110.471 58.3998 108.356 59.4725 106.574C61.7732 104.266 64.8253 102.86 68.0745 102.61C68.7925 102.61 68.8245 101.357 68.0745 101.311C66.225 101.187 64.3706 101.464 62.6377 102.122C60.9049 102.78 59.3344 103.805 58.0335 105.125C55.9845 107.23 56.4075 110.041 56.5855 112.862C57.3555 125.231 65.0105 153.648 68.5395 161.887L68.5405 161.888Z" fill="#180B02"/>
<path d="M45.6711 102.469C45.261 100.433 45.422 98.3225 46.1361 96.3719C46.4971 94.8179 45.2601 94.3209 44.3291 95.5359C43.7272 96.695 43.3903 97.9733 43.3428 99.2785C43.2952 100.584 43.5382 101.883 44.0541 103.083C44.8861 104.43 45.8941 103.981 45.6711 102.469Z" fill="#180B02"/>
<path d="M40.1753 105.82C40.6523 106.037 40.9733 105.82 41.0733 105.323C41.4123 103.727 40.1193 102.147 41.3063 98.811C42.0583 96.694 40.2493 96.18 39.4253 97.756C38.3043 99.901 38.2883 104.952 40.1753 105.82Z" fill="#180B02"/>
<path d="M55.4361 97.9879C55.5001 91.4559 55.4841 81.8089 55.4361 74.1339C55.4221 71.9569 53.7561 72.3699 53.7021 74.2519C53.4931 81.6489 52.7621 90.9379 53.5321 98.1679C53.6441 99.2149 55.4261 98.8979 55.4361 97.9879Z" fill="#180B02"/>
<path d="M50.3626 101.413C50.3506 99.446 49.3216 96.635 50.5836 94.901C52.0076 92.948 49.3166 92.429 48.4706 94.532C47.732 96.8957 47.8738 99.4468 48.8696 101.714C49.4366 102.564 50.3746 102.225 50.3626 101.413Z" fill="#180B02"/>
<path d="M59.0931 191.342C62.9626 191.933 66.8938 192.004 70.7821 191.553C70.91 191.563 71.0386 191.545 71.1591 191.501C71.2796 191.457 71.3893 191.388 71.4809 191.298C71.5724 191.208 71.6436 191.1 71.6897 190.98C71.7357 190.86 71.7556 190.732 71.748 190.604C71.7403 190.476 71.7053 190.351 71.6453 190.238C71.5854 190.124 71.5018 190.025 71.4002 189.947C71.2986 189.868 71.1815 189.813 71.0565 189.783C70.9316 189.754 70.8019 189.752 70.6761 189.777C66.5586 190.102 62.4163 189.885 58.3551 189.133C46.7841 186.938 46.4471 181.686 44.0251 171.304C39.6316 151.14 38.298 130.429 40.0691 109.868C40.1951 108.811 38.5691 108.811 38.4311 109.868C36.2781 126.325 37.7211 153.195 41.9501 171.513C44.9231 184.385 45.4131 189.148 59.0931 191.342Z" fill="#180B02"/>
<path d="M144.539 223.872C142.203 236.692 132.154 235.654 120.982 235.89C102.899 236.269 86.2106 232.365 69.5746 232.275C66.0556 232.255 60.6266 233.871 54.9376 230.974C53.4796 230.232 52.9426 231.257 54.4826 232.39C59.3186 235.945 65.6546 233.956 70.2726 234.197C87.9546 235.123 103.236 238.604 122.113 238.139C133.738 237.854 144.032 238.869 146.474 224.272C146.522 224.137 146.541 223.994 146.529 223.852C146.518 223.709 146.475 223.571 146.405 223.446C146.335 223.321 146.24 223.213 146.124 223.128C146.009 223.044 145.876 222.985 145.736 222.956C145.596 222.927 145.451 222.929 145.312 222.961C145.173 222.993 145.042 223.054 144.928 223.141C144.814 223.228 144.721 223.338 144.654 223.465C144.586 223.591 144.547 223.729 144.539 223.872Z" fill="#180B02"/>
<path d="M56.2182 220.543C55.5402 220.282 54.5682 220.778 53.2252 219.847C51.2562 218.476 50.3702 219.677 51.4182 220.904C52.4728 221.923 53.8833 222.492 55.3502 222.488C57.6342 222.488 57.2952 220.96 56.2182 220.543Z" fill="#180B02"/>
<path d="M65.8563 209.838C64.8776 208.614 64.1602 207.202 63.7485 205.689C63.3367 204.177 63.2393 202.596 63.4623 201.044C63.5763 200.116 62.1493 199.659 61.8243 200.611C61.3666 202.351 61.3013 204.171 61.633 205.939C61.9647 207.707 62.6852 209.379 63.7423 210.835C67.0823 215.523 74.2383 214.484 79.7123 214.101C86.7403 213.608 112.464 211.741 118.076 207.38C118.772 206.839 118.192 205.385 117.326 205.742C106.553 210.093 95.4093 210.875 80.3353 211.944C73.9973 212.401 68.4573 212.947 65.8573 209.837L65.8563 209.838Z" fill="#180B02"/>
<path d="M60.1508 212.194C51.9378 212.164 44.0428 211.254 36.0108 211.139C35.7966 211.112 35.5805 211.172 35.4102 211.305C35.2399 211.438 35.1294 211.633 35.1028 211.847C35.0763 212.061 35.136 212.277 35.2688 212.448C35.4016 212.618 35.5966 212.728 35.8108 212.755C40.9178 213.475 54.6758 214.395 60.3098 214.415C61.6608 214.427 61.5348 212.201 60.1498 212.195L60.1508 212.194Z" fill="#180B02"/>
<path d="M56.7888 228.1C58.4548 227.769 58.3388 225.88 56.6828 226.049C55.6664 226.16 54.6396 225.977 53.7238 225.522C52.4128 224.866 51.7028 226.496 53.5858 227.571C54.5549 228.127 55.6916 228.314 56.7878 228.1H56.7888Z" fill="#180B02"/>
<path d="M337.633 219.455C341.479 219.854 345.757 220.604 348.033 217.562C350.058 214.855 349.85 210.915 348.52 211.052C347.19 211.189 348.751 213.875 346.575 216.135C344.399 218.395 341.29 217.771 337.971 217.404C328.842 216.393 303.954 213.663 296.457 208.684C295.886 208.305 294.44 208.969 295.719 210.26C300.605 215.192 328.766 218.543 337.634 219.455H337.633Z" fill="#180B02"/>
<path d="M358.802 228.427C357.852 228.754 357.565 229.937 354.976 230.141C352.704 230.319 353.296 232.098 355.505 231.895C356.372 231.907 357.222 231.658 357.945 231.182C358.669 230.705 359.233 230.023 359.565 229.222C359.603 229.115 359.61 228.998 359.586 228.887C359.562 228.775 359.508 228.673 359.429 228.59C359.35 228.508 359.249 228.449 359.139 228.421C359.028 228.392 358.912 228.395 358.803 228.428L358.802 228.427Z" fill="#180B02"/>
<path d="M355.652 233.121C352.659 234.667 350.106 234.338 345.591 234.176C333.164 233.733 311.297 232.58 299.215 230.784C291.385 229.607 278.112 229.429 273.597 222.205C273.092 221.407 271.945 222.005 272.2 222.955C274.297 230.749 289.439 231.773 296.14 232.625C317.034 235.286 338.679 235.909 345.371 236.07C348.076 236.136 355.051 236.97 356.543 234.147C356.92 233.521 356.433 232.715 355.651 233.12L355.652 233.121Z" fill="#180B02"/>
<path d="M360.061 224.581C359.215 225.638 357.366 225.778 356.414 225.997C355.251 226.264 355.405 227.537 356.53 227.699C357.433 227.816 358.351 227.68 359.181 227.306C360.012 226.933 360.722 226.337 361.234 225.584C362.068 224.168 361.256 223.082 360.061 224.581Z" fill="#180B02"/>
<path d="M371.496 219.433C367.416 219.233 355.378 219.565 351.414 219.571C351.201 219.586 351.002 219.68 350.856 219.836C350.711 219.992 350.63 220.198 350.63 220.411C350.63 220.624 350.711 220.829 350.856 220.985C351.002 221.141 351.201 221.236 351.414 221.251C358.11 221.674 364.831 221.497 371.496 220.722C372.615 220.499 372.34 219.477 371.496 219.433Z" fill="#180B02"/>
<path d="M347.63 116.452C347.384 115.023 347.698 113.555 348.508 112.352C348.625 112.23 348.705 112.077 348.736 111.911C348.767 111.744 348.749 111.573 348.684 111.416C348.619 111.26 348.51 111.126 348.37 111.032C348.23 110.937 348.065 110.885 347.896 110.882C345.253 111.03 345.875 116.167 345.983 116.468C346.36 117.541 347.631 117.561 347.631 116.452H347.63Z" fill="#180B02"/>
<path d="M332.021 123.853C334.142 123.559 336.294 123.559 338.415 123.853C342.317 124.452 342.046 127.023 342.293 130.195C343.398 143.849 343.044 157.581 341.236 171.16C341.128 171.958 342.417 172.357 342.684 171.487C345.663 161.877 344.89 141.123 344.238 129.951C343.973 125.416 343.755 122.727 338.851 121.919C336.571 121.533 334.232 121.689 332.024 122.374C331.128 122.655 331.026 123.974 332.02 123.852L332.021 123.853Z" fill="#180B02"/>
<path d="M344.143 118.237C343.654 112.707 342.294 101.479 341.15 95.135C341 94.311 339.616 94.078 339.724 95.684C339.933 98.856 341.932 115.417 342.503 118.407C342.543 118.609 342.657 118.789 342.823 118.912C342.989 119.034 343.195 119.09 343.4 119.069C343.605 119.048 343.795 118.951 343.932 118.797C344.07 118.643 344.145 118.443 344.143 118.237Z" fill="#180B02"/>
<path d="M351.065 116.871C351.024 115.652 351.453 114.464 352.262 113.551C353.214 112.769 352.168 111.462 350.941 112.029C349.527 112.683 349.05 115.82 349.377 117.124C349.704 118.428 350.959 118.112 351.065 116.871Z" fill="#180B02"/>
<path d="M353.962 118.429C354.044 117.701 354.267 116.209 355.019 116.157C355.771 116.105 355.801 120.147 356.001 123.1C357.164 140.381 361.094 157.48 360.811 175.056C360.502 194.08 352.105 190.994 338.912 187.74C338.789 187.704 338.659 187.693 338.531 187.709C338.403 187.724 338.28 187.766 338.168 187.83C338.057 187.895 337.959 187.981 337.882 188.085C337.805 188.188 337.75 188.306 337.72 188.431C337.69 188.556 337.685 188.687 337.707 188.814C337.728 188.941 337.776 189.062 337.846 189.17C337.915 189.279 338.007 189.371 338.114 189.443C338.22 189.515 338.341 189.565 338.467 189.589C349.062 192.238 360.394 196.342 362.459 180.773C364.791 163.199 358.726 140.909 357.693 122.994C357.525 120.087 357.426 115.896 356.372 114.93C354.888 113.571 352.526 114.433 352.629 118.026C352.653 118.852 353.866 119.265 353.962 118.429Z" fill="#180B02"/>
<path d="M190.695 91.3189C192.208 90.0528 193.354 88.4036 194.012 86.5436C194.67 84.6835 194.816 82.6809 194.436 80.7449C195.176 81.4539 196.063 81.9918 197.034 82.3207C198.005 82.6497 199.036 82.7616 200.055 82.6486C201.074 82.5356 202.056 82.2004 202.931 81.6668C203.806 81.1331 204.554 80.4139 205.121 79.5599C206.591 83.9669 217.29 84.9089 220.87 79.6979C221.318 82.975 222.85 86.0077 225.223 88.3119C228.68 86.7999 232.04 79.1489 224.928 76.4439C229.155 72.6179 222.213 63.1469 216.663 68.2839C213.81 59.0669 197.746 60.7269 198.993 70.6779C192.651 65.3949 183.478 73.1299 189.481 79.1329C184.482 79.1009 183.626 88.9089 190.696 91.3179L190.695 91.3189Z" fill="#180B02"/>
<path d="M131.657 93.1479C132.632 96.1914 134.468 98.8875 136.942 100.911C138.313 102 138.506 102.126 139.797 100.911C142.512 98.3529 145.485 103.814 143.759 108.891C143.196 110.549 142.702 111.395 141.138 111.818C139.574 112.241 140.262 114.503 142.493 113.751C143.485 122.297 145.027 130.77 147.111 139.117C147.121 139.237 147.156 139.353 147.213 139.459C147.27 139.565 147.348 139.658 147.443 139.732C147.537 139.806 147.646 139.86 147.762 139.891C147.878 139.922 148 139.928 148.118 139.91C148.237 139.892 148.351 139.849 148.453 139.785C148.555 139.721 148.642 139.637 148.71 139.538C148.778 139.439 148.825 139.327 148.848 139.209C148.871 139.091 148.869 138.969 148.843 138.852C148.065 133.567 146.593 127.65 145.958 121.296C154.678 106.246 151.063 87.8779 138.866 81.6209C126.669 75.3639 104.54 80.9549 104.857 91.6299C105.174 102.305 128.013 94.2789 131.658 93.1479H131.657Z" fill="#180B02"/>
<path d="M261.274 132.485C260.344 138.053 263.185 137.355 266.124 131.162C274.238 114.077 265.835 99.713 279.662 93.939C280.919 91.0954 283.005 88.6973 285.647 87.058C278.144 74.376 260.346 72.6 255.219 88.381C249.511 105.935 264.476 113.291 261.274 132.484V132.485Z" fill="#180B02"/>
<path d="M279.684 118.016C279.543 119.429 279.856 120.849 280.579 122.071C281.301 123.293 282.394 124.253 283.7 124.811C283.259 131.423 282.15 137.973 280.392 144.362C280.055 145.609 281.908 146.275 282.305 145.028C283.65 140.805 285.982 129.776 285.603 125.078C288.773 125.078 287.546 122.71 286.469 122.806C285.814 122.916 285.143 122.864 284.513 122.653C283.883 122.443 283.315 122.082 282.858 121.6C282.401 121.119 282.069 120.533 281.892 119.893C281.714 119.253 281.697 118.58 281.841 117.932C282.16 115.323 284.738 113.705 286.585 115.819C287.094 116.4 288.055 115.649 288.626 115.207C287.569 113.092 284.411 106.902 289.424 107.67C290.911 107.912 292.378 108.265 293.813 108.727C294.417 107.577 294.885 106.36 295.21 105.102C301.7 108.4 312.88 109.549 314.847 107.554C317.997 104.362 316.82 90.1969 298.021 87.3249C282.239 84.8949 272.71 103.58 279.685 118.016H279.684Z" fill="#180B02"/>
<path d="M193.496 93.687C192.498 93.687 190.621 93.501 189.765 93.497C188.201 93.497 188.402 95.261 189.691 95.42C190.579 95.528 191.868 95.6 192.755 95.695C192.433 97.4793 192.832 99.3184 193.866 100.808C194.9 102.298 196.483 103.316 198.267 103.639C199.566 103.904 200.915 103.798 202.157 103.333C203.399 102.868 204.485 102.062 205.291 101.008C206.096 99.9536 206.589 98.694 206.711 97.3731C206.834 96.0522 206.582 94.7234 205.985 93.539C206.605 93.1246 207.326 92.8871 208.07 92.8518C208.815 92.8166 209.555 92.985 210.212 93.339C208.53 98.297 212.494 101.945 217.314 101.636C220.6 101.427 224.384 99.641 223.654 93.889C224.579 93.8859 225.504 93.8258 226.423 93.709C226.671 93.6729 226.895 93.543 227.05 93.3462C227.205 93.1493 227.279 92.9005 227.255 92.6511C227.232 92.4016 227.114 92.1706 226.926 92.0055C226.738 91.8405 226.493 91.754 226.243 91.764C225.186 91.764 224.204 91.912 223.179 91.985C221.244 87.484 214.385 87.029 211.131 91.616C210.194 91.1174 209.139 90.8835 208.079 90.9394C207.019 90.9952 205.995 91.3387 205.116 91.933C202.139 88.041 195.883 89.256 193.495 93.685L193.496 93.687ZM218.753 96.255C218.322 97.43 217.085 100.58 215.814 99.786C214.751 99.12 216.554 96.375 217.167 95.559C218.208 94.161 219.128 95.21 218.753 96.255ZM214.031 94.128C214.496 93.272 215.627 90.9 216.473 90.621C216.95 90.465 218.069 90.737 216.948 92.816C216.38 94.101 215.63 95.2971 214.72 96.367C214.395 96.523 212.635 96.708 214.032 94.129L214.031 94.128ZM202.829 97.236C202.515 98.2499 201.969 99.1764 201.233 99.941C200.345 100.998 199.32 100.406 199.711 99.223C200.18 98.1205 200.818 97.0976 201.602 96.191C201.849 95.9 203.278 95.724 202.829 97.238V97.236ZM196.644 97.088C197.317 95.3334 198.285 93.7067 199.507 92.278C200.106 92.007 201.303 92.489 200.353 94.044C199.615 95.4403 198.807 96.7987 197.933 98.114C197.163 99.056 196.01 98.517 196.646 97.091L196.644 97.088Z" fill="#180B02"/>
<path d="M135.041 100.747C134.502 100.059 130.814 100.174 129.882 100.366C127.019 100.965 110.429 106.132 107.973 107.881C106.918 108.633 108.31 113.068 109.834 115.49C111.079 117.467 112.148 117.391 114.357 116.759C117.084 115.975 117.35 114.898 117.359 112.246C117.371 110.131 117.359 108.102 117.211 106.189C117.211 105.852 118.047 105.523 118.161 105.83C118.835 107.673 119.615 109.476 120.497 111.23C122.247 114.667 124.407 114.083 127.144 113.425C130.843 112.525 131.597 111.312 131.816 108.025C131.942 106.073 131.857 104.114 131.563 102.18C132.361 102.18 134.438 102.264 134.998 101.767C135.126 101.63 135.201 101.452 135.209 101.265C135.217 101.078 135.157 100.895 135.04 100.748L135.041 100.747ZM110.395 109.984C110.75 109.227 111.197 108.517 111.726 107.869C112.608 106.798 113.474 107.683 112.857 108.715C112.455 109.372 112.002 109.998 111.504 110.586C110.943 111.262 109.952 110.919 110.395 109.984ZM115.594 109.308C114.748 111.156 113.807 112.958 112.773 114.708C112.019 115.939 110.977 115.32 111.408 114.127C112.323 112.072 113.423 110.105 114.696 108.25C115.107 107.753 116.134 108.173 115.594 109.308ZM122.221 107.363C122.628 106.056 123.301 104.847 124.196 103.812C124.84 102.934 126.207 103.295 125.393 104.7C124.908 105.546 123.903 107.437 123.448 108.072C122.993 108.707 121.956 108.558 122.221 107.363ZM128.406 105.398C127.569 107.5 126.539 109.52 125.33 111.433C124.931 112.083 123.576 112.203 123.945 110.882C124.804 108.782 125.904 106.789 127.223 104.943C127.688 104.303 128.763 104.213 128.414 105.398H128.406Z" fill="#180B02"/>
<path d="M302.503 115.458C300.523 113.301 297.949 111.779 295.104 111.085C287.936 108.491 287.613 109.044 290.232 114.488C291.818 117.784 294.661 122.572 298.593 122.943C299.335 123.054 300.094 122.971 300.794 122.702C301.495 122.433 302.115 121.988 302.593 121.41C303.071 120.832 303.392 120.139 303.524 119.401C303.656 118.662 303.595 117.901 303.347 117.193C304.264 116.914 305.249 116.955 306.14 117.309C304.217 122.149 311.259 128.776 319.203 115.196C319.951 113.915 319.446 113.56 318.654 113.389C316.242 112.866 309.764 113.178 307.312 115.502C306.56 115.151 305.742 114.966 304.912 114.958C304.082 114.951 303.261 115.121 302.503 115.458ZM295.834 116.864C294.515 116.066 297.103 112.972 298.126 114.031C298.864 114.793 296.829 117.468 295.834 116.87V116.864ZM300.061 117.445C299.465 118.527 298.639 119.464 297.641 120.192C297.493 120.27 297.325 120.298 297.16 120.273C296.995 120.249 296.842 120.172 296.724 120.054C296.606 119.936 296.529 119.783 296.504 119.618C296.478 119.453 296.507 119.285 296.584 119.137C297.143 118.067 297.925 117.129 298.878 116.388C299.872 115.754 300.59 116.514 300.061 117.445ZM314.054 117.265C313.377 118.69 312.504 120.014 311.46 121.197C310.678 121.995 309.535 121.514 310.181 120.297C310.884 118.911 311.735 117.604 312.717 116.399C313.535 115.439 314.61 116.072 314.054 117.269V117.265ZM311.157 115.246C312.077 116.303 309.96 118.807 308.939 118.005C307.918 117.203 310.324 114.326 311.157 115.288V115.246Z" fill="#180B02"/>
<path d="M164.866 195.4C174.909 192.555 184.259 189.457 194.637 187.137C205.905 184.617 229.522 182.1 237.272 193.393C238.054 194.534 239.498 193.331 238.73 192.196C233.812 184.866 221.142 182.684 212.994 182.684C201.834 182.684 179.478 187.889 164.208 193.962C163.091 194.397 163.723 195.724 164.864 195.4H164.866Z" fill="#180B02"/>
<path d="M237.875 198.825C241.414 198.614 244.962 198.565 248.506 198.677C248.692 198.66 248.869 198.585 249.009 198.461C249.149 198.337 249.247 198.172 249.287 197.989C249.327 197.806 249.308 197.615 249.232 197.444C249.156 197.273 249.027 197.13 248.865 197.037C246.974 196.107 240.015 196.438 237.663 197.45C236.883 197.783 236.933 198.864 237.874 198.825H237.875Z" fill="#180B02"/>
<path d="M276.893 201.582C276.888 201.457 276.856 201.334 276.801 201.221C276.745 201.108 276.667 201.009 276.57 200.929C276.474 200.848 276.361 200.789 276.241 200.755C276.12 200.721 275.993 200.713 275.869 200.731C275.745 200.749 275.626 200.792 275.52 200.859C275.413 200.926 275.322 201.015 275.253 201.119C275.183 201.223 275.136 201.341 275.114 201.465C275.093 201.588 275.098 201.715 275.129 201.837C276.005 207.603 274.606 213.485 271.229 218.24C264.346 227.816 252.875 226.545 242.535 225.422C227.991 223.826 211.952 220.995 199.922 218.932C198.865 218.75 198.45 219.999 199.489 220.307C207.339 222.625 234.366 226.47 242.196 227.323C253.823 228.594 266.447 229.518 273.518 218.345C276.634 213.349 277.833 207.393 276.894 201.581L276.893 201.582Z" fill="#180B02"/>
<path d="M234.713 194.999C214.538 199.815 197.718 219.831 176.734 224.126C166.468 226.229 151.701 225.503 145.851 215.196C143.789 211.189 142.641 206.774 142.489 202.27C142.455 202.061 142.349 201.871 142.188 201.734C142.027 201.597 141.823 201.521 141.612 201.521C141.4 201.521 141.196 201.597 141.035 201.734C140.874 201.871 140.768 202.061 140.735 202.27C140.45 209.901 143.251 217.997 149.687 222.455C155.712 226.631 163.427 227.642 170.549 227.159C195.471 225.467 212.288 203.452 235.115 196.436C236.428 196.029 236.045 194.674 234.712 194.998L234.713 194.999Z" fill="#180B02"/>
</svg>
