<?xml version="1.0" encoding="UTF-8"?>
<svg id="Layer_2" data-name="Layer 2" xmlns="http://www.w3.org/2000/svg" viewBox="0 0 322.97 200.69">
  <defs>
    <style>
      .cls-1 {
        fill: #fff;
      }

      .cls-2 {
        fill: #d1d0d6;
      }
    </style>
  </defs>
  <g id="Layer_1-2" data-name="Layer 1">
    <path class="cls-2" d="M270.13,106.76c-1.85-.25-.75,2.32-7.03,8.05-3.46,3.06-7.34,5.67-11.53,7.75-2.72-2.89-5.33-5.99-7.87-9.03l-9.35,6.01c1.32-5.35,4.3-10.2,8.54-13.93-.05-.11-.13-.2-.23-.27-.1-.07-.21-.12-.33-.15-.12-.02-.24-.02-.36,0-.12,.03-.23,.08-.32,.16-18.68,3.99-33.87,15.87-46.52,29.33-.11,.12-.2,.26-.24,.42-.05,.15-.06,.32-.03,.47,.03,.16,.09,.31,.18,.44s.22,.24,.37,.32c5.9,3.33,11.65,7.21,17.8,10.2,.28,.13,.6,.16,.89,.07,.29-.09,.54-.29,.68-.55,.73-1.36,2.43-.93,3.91-.36-.15-1.33-.09-2.68,.19-3.99,.1-1.05,.29-2.1,.56-3.12,.1-.31,.68-2.01,1.49-1.86,1.31,.24,.51,3.85,.34,5.1-.06,1.56-.38,3.1-.96,4.55,3.59,1.41,7.07,3.05,10.41,4.91,6.02,3.51,5.73,5.08,7.1,4.77,1.2-.26,.61-1.48,2.19-2.38,1.38-.81,2.06,.13,2.92-.34,.14-.08,.27-.19,.36-.31,.1-.13,.16-.27,.2-.43,.1-.38,.29-.74,.55-1.04,.26-.31,.59-.56,.96-.73,.37-.18,.77-.28,1.19-.29s.83,.05,1.21,.2c.26,.06,.54,.04,.79-.07,.25-.11,.45-.29,.57-.53,1.65-3.19,7.33-2.23,9.99-.46,.54-2.2,1.23-4.36,2.09-6.47,2.74-7.28,2.87-7.09,4.01-9.1,.07-.18,.22-.33,.4-.41,.19-.08,.4-.09,.59-.02,.19,.07,.35,.21,.44,.38,.08,.18,.09,.38,.02,.56-.42,1.77-.08,1.68-4.36,12.27-.34,.87-1.76,3.87-1.84,4.03,.1,.2,.24,.37,.42,.51,.18,.13,.39,.23,.62,.27,7.44,.94,24.32,9.29,32.81,12.49,.21,.08,.44,.1,.67,.06,.22-.04,.43-.14,.59-.29,16.35-14.81,5.18-53.03-25.12-57.19Z"/>
    <path class="cls-2" d="M290.88,168.97c-.04-.2-.13-.39-.27-.55s-.32-.27-.53-.34c-.2-.07-.42-.07-.64-.03-.21,.05-.4,.15-.56,.29-1.57,1.43-3.2,2.79-4.89,4.09-.75,.58-11.17,8.4-11.24,8.46-1.96,1.56-4.14,2.86-6.46,3.88-.18,.06-.33,.18-.41,.34-.08,.16-.1,.35-.04,.52,.06,.17,.19,.31,.36,.39,.17,.08,.36,.09,.54,.04,.69-.16,1.37-.36,2.04-.6h21.39c0,.2,.08,.39,.23,.53,.15,.14,.35,.23,.56,.23,.1,0,.2-.02,.3-.06,.09-.04,.18-.1,.25-.16,.07-.07,.13-.15,.16-.24,.04-.09,.06-.19,.05-.28,.37-5.51,.09-11.05-.83-16.5Z"/>
    <path class="cls-2" d="M86.06,134.79c-.01-.35-.12-.7-.31-1-3.49-4.83-6.22-9.62-10.67-13.79,.16-1.48,.32-2.52,.5-3.46,.05-.26,0-.52-.13-.75s-.34-.41-.6-.51c-1.96-1.03-4.11-1.7-6.33-1.97-.24-.02-.48,.04-.69,.15-.21,.12-.38,.29-.48,.5l-3,6.02c-.07,.13-.11,.28-.12,.43-.01,.15,.01,.3,.06,.45,.05,.14,.13,.28,.24,.39,.11,.11,.23,.21,.38,.27,1.27,.57,2.52,1.2,3.74,1.87,.85,4.73,2.21,9.73,2.95,14.29,.02,.14,.07,.28,.15,.4,.08,.12,.18,.23,.3,.32,3.88,2.34,7.37,5.21,10.37,8.52,.01,.13,.06,.25,.15,.36,.08,.1,.2,.18,.33,.23,.14,.03,.29,.03,.43,0,.14-.03,.27-.1,.38-.19,.11-.09,.19-.2,.25-.33,.05-.13,.07-.27,.06-.4,1.31-3.82,2-7.8,2.05-11.81Z"/>
    <path class="cls-1" d="M73.53,84.55c-1.54-3.41-4.21-6.25-7.6-8.09-.99-.49-.34-1.41-2.25-4.99-.73-1.39-1.6-2.72-2.6-3.96-.12-.14-.19-.31-.17-.49,.01-.18,.1-.35,.24-.47,.14-.12,.33-.18,.52-.16,.19,.01,.36,.1,.49,.23,2.41,2.25,4.22,5.03,5.26,8.09,4.01,2.26,7.1,5.74,8.76,9.88,.11,.26,.12,.55,.03,.82-.1,.27-.3,.49-.56,.62-1.16,.64-2.28,1.34-3.35,2.1,.26,2.58,.07,5.19-.58,7.7-1.14,3.45-3.51,6.41-6.7,8.37,.42,1.66,1.3,4.41,1.86,6,.06,.18,.05,.38-.04,.56s-.24,.31-.43,.37c-.19,.07-.4,.06-.58-.02-.19-.08-.33-.22-.41-.4-1.03-2.2-1.94-4.46-2.71-6.75-.06-.22-.04-.45,.05-.66,.09-.21,.25-.38,.46-.5,1.47-.88,2.77-1.99,3.83-3.3,1.76-2.04,2.78-4.57,2.89-7.21,.32-4.15-.6-4.96,.43-5.65,1-.69,2.21-1.52,3.19-2.1Z"/>
    <path class="cls-1" d="M52.58,107.93c.41,1.35,.93,2.66,1.57,3.92,1.27,2.25,3,1.55,2.08-1.01-.45-1.25-.96-2.48-1.54-3.69-.13-.21-.99-1.38-1.61-1.18-.65,.21-.54,1.74-.5,1.96Z"/>
    <path class="cls-1" d="M65.24,91.87c.11,.73,.14,1.47,.09,2.21,0,.67-.16,1.33-.45,1.95-.29,.61-.72,1.15-1.25,1.6-.57,.39-1.21,.67-1.89,.82-.68,.15-1.39,.17-2.08,.06-.69-.11-1.35-.36-1.94-.71-.59-.36-1.1-.83-1.49-1.38-.54-.89-.9-1.86-1.04-2.88-.15-1.02-.08-2.05,.19-3.04,.04-.14,.11-.28,.2-.4,.09-.12,.21-.22,.35-.3,.13-.08,.28-.13,.44-.15,.15-.02,.31-.01,.46,.02,2.92,.72,3.6,.4,7.79,1.56,.16,.03,.31,.11,.42,.22,.11,.12,.18,.26,.2,.42Zm-7.71,.26c-.09,1.04,.16,2.08,.7,2.99,.44,.59,1.09,.99,1.83,1.12,.74,.14,1.51,0,2.14-.39,.85-.89,1.39-2.01,1.55-3.21-2.08-.03-4.16-.21-6.22-.52Z"/>
    <path class="cls-1" d="M56.65,76.42c1.36-1.38,2.4-1.49,3.88-.49,1.36,.92,1.34,1.25,1.94,.99,.78-.35,.35-1.35-.06-2.12-.3-.49-.74-.9-1.26-1.17-.89-.53-1.95-.75-2.99-.61-1.04,.13-2,.61-2.71,1.35-.28,.26-.51,.56-.68,.9-.32,.69-.65,2.22,.21,2.43,.52,.13,.53-.08,1.67-1.27Z"/>
    <path class="cls-1" d="M59.07,78.94c.96-.17,1.96,.85,2.25,2.29s-.26,2.74-1.22,2.91c-.96,.17-1.96-.85-2.25-2.29-.28-1.44,.26-2.74,1.22-2.91Z"/>
    <path class="cls-1" d="M157.45,101.42c.05-.53,.26-2.15,.31-3,.05-4.62,.76-9.22,2.14-13.66,.83-2.95,1.19-3.53,.4-3.86-.98-.41-1.9,1.64-2.55,3.18-.9,2.29-1.51,4.67-1.81,7.09-.72,3.41-.69,6.93,.08,10.33,.01,.18,.1,.35,.24,.47,.14,.12,.33,.18,.52,.17,.19,0,.37-.09,.49-.22,.13-.13,.19-.31,.18-.49Z"/>
    <path class="cls-1" d="M161.63,91.69c.85,2.53,2.04,3.8,2,6.76,0,.28,.04,.53,.02,.81-.07,.7-.32,1.25,.33,1.54,.77,.35,1.33-.59,1.75-1.55,.89-2-.64-6.54-2.05-8.07-.96-1.04-1.51-1.48-2.04-1.14-.53,.34-.28,.84,0,1.65Z"/>
    <path class="cls-1" d="M170.97,84.69c1.38-1.86,1.52-1.73,3.15-4.04,.51-.74,.97-1.22,.45-1.73-1.89-1.79-10.52,10.23-8.41,11.25,1.1,.53,2.76-2.73,4.81-5.48Z"/>
    <path class="cls-1" d="M173.04,90.97c.53-.4,1.01-.86,1.44-1.37,3.94-4.1,7.11-5.37,6.37-6.52-1.42-2.2-11.69,7.2-9.47,8.61,.55,.35,.93-.1,1.67-.72Z"/>
    <path class="cls-1" d="M178.5,94.67c.35-.24,.67-.53,.95-.84,3.78-3.81,6.89-4.99,6.19-6.15-1.08-1.72-7.75,3.58-8.86,6.04-.35,.77-.68,1.36-.13,1.73,.55,.37,.93-.08,1.85-.78Z"/>
    <path class="cls-1" d="M172.25,109.83c5.53-4.49,5.94-6.92,13.34-13.37,2.57-2.24,3.22-2.43,2.75-3.16-.51-.77-1.53-.07-2.77,.62-2.15,1.28-4.08,2.86-5.74,4.68-3.2,3.18-6.08,6.63-8.63,10.3-.13,.13-.19,.31-.19,.49,0,.18,.09,.35,.23,.47,.14,.12,.33,.19,.51,.18,.19,0,.37-.09,.5-.22Z"/>
    <path class="cls-1" d="M154.82,105.6c-.93,1.33-2.25,3.07-3.37,4.8-.09,.15-.24,.27-.42,.32-.18,.05-.37,.04-.53-.04-.17-.08-.29-.22-.35-.38-.06-.17-.05-.35,.03-.51,.84-2.17,1.93-4.24,3.26-6.17,.15-.21,.37-.36,.62-.44,.25-.07,.53-.06,.77,.03,6.57,2.55,12.55,6.29,17.62,11.01,.19,.17,.32,.39,.36,.64,.04,.24,0,.5-.13,.71-1.42,2.35-2.72,3.49-3.96,5.43-.1,.17-.26,.29-.46,.35-.19,.06-.4,.04-.58-.05-.18-.09-.32-.24-.38-.42-.07-.18-.05-.38,.03-.56,.84-1.74,1.8-3.43,2.86-5.05-4.55-3.97-9.73-7.23-15.35-9.65Z"/>
    <path class="cls-1" d="M79.18,116.66c-.53-1.71-1.31-3.34-2.32-4.84-.69-.8-1.66-1.34-2.73-1.51-1.07-.18-2.17,.02-3.1,.56-.9,.4-1.74,.91-2.5,1.52-.31,.25-.57,.55-.78,.88-.02,.07-.03,.13-.03,.2-5.83-.21-11.64,.7-17.08,2.68-1.77,.65-3.51,1.38-5.2,2.21-.1,.04-.18,.09-.26,.16-.07,.07-.13,.15-.17,.24-.04,.09-.06,.19-.06,.29,0,.1,.02,.19,.06,.29,.04,.09,.1,.17,.17,.24,.07,.07,.16,.12,.25,.16,.09,.04,.2,.06,.3,.06,.1,0,.2-.02,.3-.05,1.16-.36,9.45-2.77,12.8-3.37,2.29-.43,4.61-.65,6.94-.67-1.47,2.94-2.69,5.99-3.64,9.11-.05,.17-.04,.35,.04,.5,.08,.16,.22,.28,.39,.34,.17,.06,.36,.06,.53,0,.17-.07,.3-.19,.38-.35,1.92-3.33,3.65-6.76,5.19-10.26,.09-.21,.11-.43,.07-.65,.78,.32,1.53,.68,2.32,1.01,1.34,.57,3.4,1.32,6.5,2.67,.21,.09,.45,.12,.68,.09,.23-.04,.45-.13,.62-.28s.3-.34,.36-.56c.06-.21,.06-.44-.02-.65Zm-8.68-3.56c.9-.29,1.83-.47,2.77-.56,.29-.06,.6-.04,.88,.06,.28,.1,.53,.26,.72,.48,.39,.57,.73,1.16,1.02,1.78-1.73-.76-3.53-1.35-5.39-1.76Z"/>
    <path class="cls-2" d="M8.63,151.8c-.64-16.52,4.61-22.71,16.83-27.12,2.04-.75,4.12-1.41,6.22-1.98,.2-.04,.38-.16,.49-.33,.11-.17,.15-.37,.11-.56-.04-.19-.17-.36-.34-.47-.17-.11-.39-.14-.59-.1-2.24,.35-4.45,.81-6.63,1.4-14.54,4.34-20.23,15.09-17.51,29.31,.03,.17,.13,.32,.28,.42,.14,.1,.32,.15,.5,.13,.18-.02,.35-.1,.46-.23,.12-.13,.18-.3,.18-.47Z"/>
    <path class="cls-1" d="M82.77,144.57c2.25-10.91,.76-22.21-4.25-32.25-.09-.19-.13-.4-.11-.61s.11-.41,.24-.57c.13-.17,.32-.29,.52-.37,.21-.08,.43-.1,.65-.06,3.51,.8,6.88,2.06,10.03,3.74,11.27,5.15,21.87,14.38,34.73,14.48,9.7,.07,16.93-10.63,22.5-18.21,.18-.25,.45-.41,.76-.47,.31-.05,.63,0,.89,.18,7.4,4.78,14.32,10.31,21.37,15.49,.17,.13,.31,.29,.38,.49,.08,.19,.1,.4,.06,.61-1.08,5.42-4.07,10.56-6.96,15.33-5.41,8.91-12.84,17.48-22.51,22.29-6.89,3.43-14.28,4.48-22.03,4.8,.43,3.69,.44,7.21,.66,10.59,0,.18-.06,.35-.18,.49-.12,.13-.3,.21-.49,.23-.19,.01-.37-.05-.51-.16-.14-.12-.23-.28-.25-.46-.29-3.76-.4-7.59-.97-11.32-.01-.11,0-.22,.03-.32,.03-.1,.09-.2,.16-.29,.07-.08,.17-.15,.27-.2,.1-.05,.22-.08,.33-.08,7.7-.39,15.28-1.49,22.04-4.96,9.12-4.68,16.28-13.08,21.46-21.7,2.89-4.32,5.08-9.03,6.51-13.97-6.54-4.81-13.02-9.93-19.72-14.32-5.99,8.21-13.34,18.34-23.8,18.27-13.66-.09-24.3-9.46-35.77-14.7-2.29-1.15-4.66-2.14-7.1-2.99,4.5,10.33,6.1,22.82,2.82,33.74-.06,.2-.17,.38-.33,.53s-.36,.24-.57,.28-.44,.03-.64-.04c-.21-.07-.39-.19-.53-.36-3.25-3.45-6.87-6.57-10.79-9.31-8.77-6.6-18.98-12.78-29.8-15.46-19.87,11.49-33.09,40.97-40.36,61.96-.07,.18-.21,.33-.39,.41-.18,.08-.39,.1-.58,.04-.19-.06-.35-.19-.45-.36-.1-.17-.12-.37-.06-.55,7.51-22.28,20.04-51.68,41.06-63.65,.13-.08,.28-.12,.43-.15,.15-.02,.31-.01,.46,.02,5.78,1.44,11.33,3.61,16.51,6.45,8.8,4.88,16.96,10.76,24.29,17.49Z"/>
    <path class="cls-1" d="M84.46,150.08c1.66,11.06,2.99,12.22,5.38,27.44,.14,.87,.74,4.35,.86,5.23,.01,.2,.11,.38,.26,.51s.36,.2,.57,.18c.21-.01,.4-.1,.54-.25,.14-.15,.21-.34,.19-.54,.01-.9,.02-1.8,0-2.7-.17-6.89-3.44-21.16-5.23-26.74-.37-1.15-.78-2.28-1.16-3.44-.05-.17-.16-.32-.32-.41-.16-.09-.35-.12-.53-.08-.18,.04-.34,.15-.44,.29-.1,.15-.14,.33-.1,.5Z"/>
    <path class="cls-1" d="M95.95,126.03c-1.03-1.59-2.36-3.63-3.48-5.07-.11-.14-.17-.31-.15-.49,.02-.17,.11-.34,.25-.45,.14-.11,.32-.17,.5-.16,.18,0,.36,.08,.49,.21,2.03,1.97,3.85,4.12,5.44,6.43,.12,.17,.18,.37,.18,.57,0,.2-.05,.4-.16,.58-.11,.18-.26,.32-.45,.42-.19,.1-.4,.14-.61,.13-1.19-.03-2.37,.07-3.54,.29,1.71,1.05,3.35,2.21,4.89,3.47,.17,.14,.3,.32,.36,.52,.07,.2,.08,.42,.03,.62-1.7,6.52-4.72,13.1-9.78,17.77-.14,.15-.34,.23-.54,.24-.21,0-.41-.06-.56-.2-.15-.13-.24-.32-.25-.52,0-.2,.07-.39,.21-.53,3.91-4.96,6.77-10.61,8.4-16.61-2.04-1.61-4.23-3.04-6.56-4.25-.21-.11-.38-.28-.49-.48-.11-.2-.15-.43-.12-.66,.03-.23,.13-.44,.29-.61,.16-.17,.37-.29,.6-.35,1.66-.42,3.34-.71,5.05-.87Z"/>
    <path class="cls-1" d="M56.15,141.72c-1.62,1.38-4.14,3.88-5.93,5.52-.14,.13-.31,.22-.49,.28-.19,.05-.38,.06-.57,.02-.19-.04-.37-.12-.52-.23-.15-.12-.27-.26-.34-.43-3.84-8.46-6.69-16.52-8.08-19.56-.04-.08-.06-.17-.07-.26,0-.09,.01-.18,.04-.26,.03-.08,.08-.16,.15-.23,.06-.07,.14-.12,.23-.16,.09-.04,.18-.06,.27-.06,.09,0,.19,.01,.28,.04,.09,.03,.17,.08,.24,.14,.07,.06,.13,.13,.17,.22,5.29,10.24,3.11,6.18,8.28,17.7,2.4-2.44,4.98-4.71,7.72-6.79,.2-.14,.45-.22,.7-.22,.25,0,.5,.07,.7,.21,.21,.14,.36,.33,.45,.56,.08,.22,.09,.47,.02,.7-1.05,3.59-1.75,7.27-2.11,10.98,5.11,1.18,7.62,1.29,21.98,3.34,.21,.03,.39,.13,.52,.29,.13,.16,.18,.35,.15,.55-.03,.19-.13,.37-.3,.49-.16,.12-.37,.17-.58,.15-5.25-.55-14.11-.59-23.37-2.86-.28-.07-.52-.23-.68-.45-.16-.22-.24-.49-.21-.76,.28-2.99,.73-5.97,1.37-8.91Z"/>
    <path class="cls-1" d="M243.27,72.49c1.51-.62,3.04-.43,3.43,.42,.39,.86-.51,2.05-2.02,2.68-1.51,.62-3.04,.43-3.43-.43-.39-.86,.51-2.06,2.02-2.68Z"/>
    <path class="cls-1" d="M238.6,87.7c.38,.47,.87,.85,1.44,1.09,.57,.24,1.19,.35,1.81,.31,.93-.02,1.84-.24,2.67-.65,.82-.41,1.54-.99,2.09-1.7,.52-.82,1.03-1.85,.31-2.26-.56-.32-.77,0-2.09,.97-.66,.59-1.46,1.01-2.32,1.25-.37,.1-.75,.12-1.12,.06-.38-.06-.73-.19-1.05-.39-1.41-.75-1.49-1.1-2.02-.78-.68,.4-.15,1.4,.3,2.1Z"/>
    <path class="cls-1" d="M253.74,77.19c-1.4,.98-3.56,4.55-2.57,4.93,.64,.26,1.33-1.5,2.12-2.61,1.01-1.39,2.24-2.23,1.87-2.68-.27-.36-1.19,.2-1.42,.36Z"/>
    <path class="cls-1" d="M105.85,64.36c-11.82,.05-25.62,.95-35.1-6.18-12.76-9.6-12.37-38.72-.75-49.03C78.89,1.25,94.66,1.54,106.59,.73c20.44-1.39,41.04-.36,61.53-.4,10.91-.02,23.96,.06,32.2,6.93,11,9.18,14.74,40.14,2.26,50.27-13.89,11.28-60.5,7.29-79.45,7.29-7.84,8.29-16.29,16.03-25.29,23.16-.07,.06-.15,.1-.24,.13-.09,.03-.18,.04-.28,.03-.09,0-.18-.03-.27-.07-.08-.04-.16-.1-.22-.16-.06-.07-.11-.15-.14-.23-.03-.08-.04-.17-.03-.26,0-.09,.03-.18,.07-.26,.04-.08,.1-.15,.17-.21,.61-.51,.5-.37,.57-.52,3.02-7.34,5.28-14.89,8.36-22.07Zm-6.25,20.35c7.97-6.62,15.47-13.75,22.45-21.32,.08-.09,.19-.17,.3-.22,.12-.05,.24-.08,.37-.08,19.86-.23,65.53,3.39,78.46-7.14,11.11-9.04,8.12-38.46-2.3-47.13-7.72-6.43-20.51-6.43-30.76-6.4-20.42,.04-41.02-1-61.39,.38-11.31,.77-26.94,.47-35.28,7.85-10.93,9.69-10.88,37.28,.54,45.99,9.18,7,23.39,5.99,35.09,6.12,.14,0,.27,.04,.39,.1,.12,.06,.22,.15,.3,.26,.42,.62,.05,.26-2.81,7.56-1.82,4.66-3.47,9.38-5.36,14.02h0Z"/>
    <path class="cls-1" d="M271.52,107.87c-.08-.66,.13-.32-7.14-5.74-.21-.15-.48-.23-.74-.23s-.53,.1-.73,.26c-5.1,4.03-10.93,7.16-17.2,9.22,.18-2.49,.22-4.98,.12-7.46,.51,.97,.85,1.51,1.47,1.35,.8-.19,.57-1.94,.52-2.25-.5-1.85-1.13-3.67-1.87-5.45,.83-.16,1.63-.37,2.41-.59,.2-.04,.38-.15,.49-.32,.11-.16,.15-.36,.11-.55-.04-.19-.16-.36-.33-.47-.17-.11-.38-.15-.58-.11-1.37,.13-2.75,.18-4.13,.16-9.76,.02-10.57-4.08-11.62-11.97,1.02,.19,2.07,.14,3.06-.15,.21,0,.4-.1,.54-.24,.14-.15,.21-.34,.21-.53,0-.2-.1-.38-.25-.52-.15-.13-.35-.2-.56-.19-2.2-.43-2.84-.45-3.43-1.13-.34-.38-.06-.87,.4-1.13,.98-.53,2.74-.65,3.37-2.45,.25-.71,.31-1.46,.19-2.2,.01-.09,0-.18-.02-.27-.03-.09-.07-.17-.13-.24-.06-.07-.13-.13-.22-.17-.08-.04-.18-.07-.27-.08-.09,0-.19,0-.28,.03-.09,.03-.17,.07-.25,.13-.07,.06-.13,.13-.18,.21-.04,.08-.07,.17-.08,.26-.22,.54-.5,1.06-.85,1.53-.12,.21-.3,.38-.52,.49,.03-.16,1.43-7.55,1.49-8.33,.15-1.85,.08-2.33-.49-2.46-.71-.17-.95,.58-1.36,1.46-.55,1.3-.93,2.66-1.1,4.05-.46,2.09-.78,4.21-.96,6.34-.42,.27-.76,.64-.99,1.07-.23,.43-.35,.91-.34,1.39,0,.48,.14,.96,.39,1.38,.25,.42,.6,.78,1.03,1.04-.2,1.37-.27,2.76-.21,4.14,.54,7.63,5.87,11.19,13.21,10.7,.12,.78,1.53,4.6,1.79,5.27,.31,.79,.24,.32-.23,.1-.19-.1-.41-.14-.62-.12-.22,.02-.42,.09-.6,.22-5.74,4.23-9.7,10.26-11.18,17.02-.02,.09-.02,.19,0,.29,.02,.09,.06,.19,.11,.27,.06,.08,.13,.15,.21,.21,.08,.06,.18,.09,.28,.11,.1,.02,.2,.02,.3,0,.1-.02,.2-.05,.28-.11,.09-.05,.16-.12,.22-.2,.06-.08,.1-.17,.12-.26,2.53-2.25,5.37-4.16,8.44-5.69,3.76,4.74,4.37,5.31,7.67,9.26,.18,.21,.44,.35,.72,.4,.28,.04,.57-.01,.81-.16,7.3-4.2,13.82-9.53,19.27-15.77,.19-.23,.28-.52,.25-.81Zm-28.19,4.94c-.22-.05-.45-.02-.66,.07-2.69,1.35-5.17,3.04-7.38,5.03,1.74-4.36,4.56-8.26,8.21-11.37l-.18,6.26Zm8.29,9.27c-7.77-9.01-7.03-8.05-6.8-8.11,6.87-1.97,13.28-5.19,18.85-9.49l4.98,3.7c-4.92,5.41-10.66,10.1-17.03,13.9Z"/>
    <path class="cls-1" d="M192.76,139.31c-1.28,1.67-2.44,3.41-3.48,5.23-3.64,6.58-6.47,15.29-4.12,22.35,.64,1.82,1.61,3.52,2.86,5.01,.06,.08,.13,.16,.21,.21,.08,.06,.18,.1,.28,.12,.1,.02,.21,.02,.31,0,.1-.02,.2-.06,.29-.11,.09-.06,.16-.13,.22-.21,.06-.08,.1-.18,.11-.27,.02-.1,.01-.2-.01-.3-.03-.1-.07-.19-.13-.27-.88-1.5-1.55-3.11-1.97-4.78-1.91-7.12,.68-14.02,4-20.79,.36-.74,2.12-4.45,2.65-5.52,.05-.08,.08-.16,.09-.25,.01-.09,0-.18-.02-.26-.02-.09-.06-.17-.12-.24-.06-.07-.13-.13-.21-.17-.08-.04-.17-.07-.26-.09-.09-.01-.19,0-.28,.02-.09,.02-.18,.06-.25,.12-.07,.05-.14,.12-.18,.2Z"/>
    <path class="cls-1" d="M198.99,143.06c-2.5,3.95,.47,7.14,1.36,10.75,.44,1.88,.22,3.84-.61,5.6-.3,.83-.66,1.65-1.07,2.44-.1,.16-.12,.35-.08,.54,.05,.18,.16,.34,.33,.44s.36,.14,.56,.11c.19-.03,.37-.13,.49-.28,.68-.73,1.27-1.53,1.79-2.38,1.19-2.15,1.52-4.63,.93-6.99-.74-3.02-3.28-6.57-2.38-9.71,.07-.16,.06-.35,0-.51-.07-.16-.21-.29-.38-.36-.17-.07-.36-.07-.53,0-.17,.06-.31,.19-.39,.35Z"/>
    <path class="cls-1" d="M206.42,154.67c.03,.26,.04,1.17,.08,1.48,.2,1.07,.25,2.15,.17,3.24-.12,1.07-.42,2.11-.88,3.08-.14,.46-.31,.91-.5,1.35-.07,.08-.12,.16-.15,.26-.03,.1-.04,.19-.03,.29,.01,.1,.04,.19,.09,.28,.05,.09,.12,.16,.2,.22,.08,.06,.18,.11,.28,.13,.1,.02,.21,.03,.31,.02,.1-.01,.2-.05,.29-.1,.09-.05,.17-.12,.23-.2,.48-.37,.9-.79,1.26-1.26,1.19-2.02,1.61-4.37,1.19-6.65-.12-.98-.54-1.9-1.22-2.64-.03-.09-.08-.16-.15-.23-.07-.07-.14-.12-.23-.16-.09-.04-.18-.06-.28-.06-.1,0-.19,.01-.28,.05s-.17,.08-.24,.15c-.07,.06-.12,.14-.16,.22-.04,.08-.05,.17-.05,.26,0,.09,.02,.18,.06,.26h0Z"/>
    <path class="cls-1" d="M215.63,147.44c11.75,7.2,13.79,6.65,26.39,19.38,.13,.14,.32,.22,.52,.23,.2,.01,.39-.05,.54-.17,.15-.12,.25-.29,.27-.48,.02-.19-.03-.38-.14-.53-1.07-1.42-2.05-2.75-3.09-3.92-6.5-6.99-14.68-12.38-23.83-15.72-.16-.07-.35-.08-.52-.02-.17,.06-.31,.17-.4,.33-.08,.15-.1,.33-.05,.5,.05,.17,.17,.31,.32,.4Z"/>
    <path class="cls-1" d="M241.31,155.56c.34,.22,1.5,1.04,1.75,1.2,2.81,1.59,5.09,3.9,6.59,6.67,.38,.59,.81,1.12,1.17,1.74,.07,.18,.22,.33,.4,.41,.19,.08,.4,.09,.59,.02,.19-.07,.35-.21,.43-.39,.08-.18,.09-.38,.02-.56-.47-2.5-1.76-4.8-3.69-6.56-1.26-1.32-2.77-2.4-4.45-3.19-.74-.29-1.51-.5-2.31-.6-.18-.06-.37-.06-.54,.01-.17,.07-.31,.21-.38,.37-.07,.17-.06,.35,.01,.51,.07,.16,.21,.29,.39,.36Z"/>
    <path class="cls-1" d="M248.87,153.2c.33,.32,.68,.62,1.04,.9,.86,.51,1.7,1.06,2.5,1.65,.76,.61,1.44,1.28,2.06,2.02,.31,.31,.65,.55,.97,.88,.1,.15,.27,.27,.45,.31,.19,.05,.39,.03,.56-.06,.17-.09,.3-.23,.37-.4,.07-.17,.06-.36-.02-.53-.11-.49-.27-.96-.49-1.41-1.09-1.64-2.61-2.99-4.42-3.9-.73-.44-1.57-.69-2.44-.7-.17-.06-.36-.06-.52,0-.17,.07-.3,.19-.37,.35-.07,.16-.08,.33-.02,.5,.06,.16,.18,.3,.34,.38Z"/>
    <path class="cls-1" d="M254.86,150.4c.23,.21,.83,.83,1.19,1.12,.99,.7,1.92,1.46,2.78,2.3,.8,.87,1.53,1.8,2.17,2.79,.31,.43,.67,.79,.98,1.25,.08,.18,.22,.33,.41,.4,.19,.08,.4,.08,.59,0,.19-.07,.34-.21,.43-.39,.08-.18,.08-.38,0-.56-.29-1.95-1.3-3.74-2.85-5.05-.96-1-2.07-1.85-3.31-2.51-.55-.24-1.13-.42-1.73-.54-.16-.08-.35-.09-.53-.04-.18,.05-.32,.17-.41,.32-.09,.15-.11,.33-.06,.5,.05,.17,.17,.31,.32,.4Z"/>
    <path class="cls-1" d="M218.51,185.49c5.85,2.48,10.06,4.4,16.78,5.33,17.49,2.41,34.25-4.02,47.06-14.46,3.16-2.65,6.13-5.51,8.89-8.54,.14-.14,.21-.33,.2-.53,0-.19-.1-.38-.25-.51-.15-.13-.35-.2-.56-.19-.2,0-.4,.09-.54,.24-2.87,2.83-5.93,5.46-9.18,7.88-20.4,15.61-39.9,17.96-61.86,9.54-.17-.07-.37-.07-.54,0-.17,.07-.31,.2-.39,.36-.07,.16-.07,.35,0,.52,.07,.17,.21,.3,.38,.37Z"/>
    <path class="cls-2" d="M190.38,181.95c-.83,0-1.65,.21-2.37,.59-.73,.39-1.34,.94-1.77,1.61-1.12,2.1,1.1,4.03,3.53,4.73,5.29,1.51,22.21,.68,27.62-1.55,4.28-1.78,2.35-5.3-1.82-6.26-.1-.03-.2-.04-.3-.03-.1,0-.2,.04-.29,.08-.09,.04-.17,.11-.24,.18-.06,.07-.11,.16-.14,.25-.03,.09-.04,.19-.03,.29,0,.1,.04,.19,.09,.27,.05,.09,.11,.16,.19,.22,.08,.06,.17,.11,.26,.14,.82,.31,2.64,1.33,2.59,2.15,0,.04-.05,.06-.07,.09-.73,.95-6.58,1.85-7.81,2-3.63,.42-15.02,1.21-19.41,.05-.64-.15-1.23-.43-1.75-.81-.38-.29-.63-.51-.64-.79-.03-.87,1.51-1.73,2.49-1.87,.18-.03,.33-.12,.44-.25,.11-.13,.16-.3,.15-.47-.02-.17-.1-.33-.23-.44-.13-.11-.3-.18-.48-.18Z"/>
    <path class="cls-1" d="M174.52,193.76c-5.45-3.5-9.78-6.68-15.76-10.93-.12-.09-.26-.16-.42-.19-.15-.03-.31-.03-.46,0-1.71,.46-3.39,1.02-5.04,1.67-.14,.04-.27,.13-.36,.25-.09,.12-.14,.26-.13,.4-3.95-2.75-3.76-2.91-4.48-2.84-8.66,.78-17.25,2.2-25.69,4.24-.19,.05-.37,.14-.51,.27-.14,.13-.24,.3-.3,.48-.05,.18-.05,.37,0,.56,.05,.18,.15,.35,.29,.49,3.94,3.72,5.44,5.8,9.9,9.5,.14,.12,.32,.18,.51,.17,.19,0,.36-.09,.49-.22,.13-.13,.19-.31,.18-.48,0-.18-.09-.35-.23-.47-2.32-2.06-5.75-6.35-7.91-8.65,7.6-1.65,15.29-2.85,23.04-3.58,4.06,3.01,8.07,5.62,12.34,8.31-4.65,1.04-16.6,3.31-24.43,5.14-.2,.04-.38,.15-.49,.32-.11,.16-.15,.36-.11,.55,.04,.19,.16,.36,.34,.47,.17,.11,.38,.15,.58,.1,10.38-1.82,16.6-2.49,27.31-5.01,.22-.05,.42-.17,.58-.33,.15-.16,.26-.36,.3-.58,.23-1.27-.71-.88-10.79-7.81,.17,0,1.82-.47,4.54-.94,3.92,3.19,9.27,6.97,13.4,9.71-7.28,2.23-8.31,2.13-15.75,4.49l-1.35-1.23c-.15-.14-.34-.22-.55-.22s-.4,.08-.55,.21c-.14,.14-.23,.33-.23,.52,0,.2,.08,.38,.22,.52l1.53,1.75c.12,.12,.26,.21,.43,.26,.17,.05,.34,.05,.51,0,6.35-1.32,12.61-2.96,18.78-4.9,.21-.07,.39-.2,.53-.36,.14-.16,.22-.36,.25-.57,.03-.21,0-.42-.1-.61-.09-.19-.23-.35-.42-.47Z"/>
    <path class="cls-1" d="M185.11,179.2c-5.31-1.08-10.7-1.82-16.12-2.19-16.29-.82-32.61,.52-48.51,3.98-6.71,1.55-23.2,4.99-21.95,11.1,.71,3.42,6.87,5.65,10.52,6.33,5.4,.69,10.85,.91,16.29,.65,.21,0,.4-.08,.55-.21s.23-.32,.23-.52c0-.2-.08-.38-.22-.52-.14-.14-.34-.22-.55-.22-5.31,.02-10.62-.39-15.86-1.22-2.54-.55-8.24-2.5-8.68-4.71-1.19-6.01,48.09-16.87,84.03-11.14,.18,.02,.36-.02,.5-.13,.15-.1,.24-.25,.28-.42s0-.34-.1-.49c-.1-.14-.25-.25-.42-.29Z"/>
    <path class="cls-1" d="M174.65,198.08c12.32-.1,24.61-1.23,36.72-3.38,2.53-.5,10.15-.42,12.45-4.04,.11-.16,.15-.36,.1-.55-.04-.19-.16-.36-.34-.46-.17-.11-.38-.14-.58-.1-.2,.04-.38,.16-.49,.32-1.15,1.61-5.01,1.96-7.05,2.15-7.22,.69-5.95,1.01-15.37,2.13-12.26,1.46-13.14,.87-25.56,2.59-.19,.01-.36,.1-.48,.24s-.18,.31-.17,.49c.01,.18,.1,.34,.25,.46s.33,.17,.52,.16Z"/>
    <path class="cls-2" d="M297.84,118.95c4.31,.41,8.44,1.82,12.03,4.12,13.99,9.29,11.5,32.23,7.89,48.02-.91,3.98-2.37,9.9-3.7,13.81-.06,.18-.04,.38,.05,.55,.09,.17,.25,.3,.44,.36,.19,.06,.4,.05,.58-.03,.18-.08,.32-.23,.39-.4,1.79-4.51,3.28-9.12,4.47-13.8,4.11-16.64,6.12-40.9-8.86-50.27-3.96-2.35-8.52-3.62-13.18-3.69-.18-.01-.37,.05-.51,.17-.14,.11-.23,.28-.24,.45-.02,.18,.04,.35,.16,.49,.12,.14,.29,.22,.47,.24Z"/>
    <path class="cls-1" d="M49.74,176.8c-1.46,3.06-2.65,6.23-3.57,9.47-.19,.85-.62,2.64,.25,2.88,.64,.18,.94-.25,1.75-1.96,.5-1.05,2.18-5.87,2.57-6.98,.38-.91,.64-1.86,.79-2.82,.13-.9,.34-1.62-.32-1.85s-.92,.38-1.46,1.26Z"/>
    <path class="cls-2" d="M220.64,174.33c-.15-1.21-.77-2.32-1.74-3.1-.97-.79-2.22-1.2-3.49-1.14-.98,.06-1.95,.26-2.86,.61-.04-.38-.09-.75-.13-1.11,.18-.05,.33-.16,.43-.31,.1-.15,.14-.33,.11-.5-.03-.18-.12-.33-.26-.45-.14-.12-.32-.18-.51-.18-13.94-.21-7.68,.1-19.7,.28-.28,0-.54,.1-.75,.28-.21,.17-.35,.41-.39,.67-.76,4.44-.81,9.6,2.08,13.16,3.71,4.56,13.49,4.65,17.31,.1,.69-.85,1.22-1.8,1.57-2.81,.62,.09,1.27,.2,1.94,.23,4.3,.23,6.85-2.53,6.39-5.72Zm-22.55,7.09c-.68,.54-1.87-.65-2.37-1.28-1.36-2.22-1.98-4.79-1.77-7.35,.07-.45,.43-2.24,1.24-2.17,.74,.06,.92,1.59,1.02,2.48,.02,2.04,.5,4.05,1.41,5.9,.74,1.65,.97,2.02,.46,2.42Zm19.36-4.46c-1.05,.95-2.82,.98-4.72,1.2,.28-1.99,.28-4.01-.01-6,1.39-.11,2.79,.03,4.12,.43,.39,.21,.72,.51,.97,.86,.25,.36,.41,.76,.47,1.18,.06,.42,.01,.85-.13,1.26-.14,.4-.38,.77-.7,1.08h0Z"/>
    <path class="cls-1" d="M61.66,59.24c-.44-1.01-1.15-1.9-2.05-2.57-.9-.68-1.97-1.12-3.11-1.3-1.14-.17-2.3-.07-3.38,.31-1.08,.38-2.04,1.01-2.79,1.84-1.89-.79-4.02-.84-5.95-.14-1.93,.7-3.48,2.09-4.34,3.88-5.1-.24-9.6,4.66-7.91,9.29-1.07,.6-1.99,1.41-2.7,2.38-.71,.97-1.2,2.07-1.42,3.24-.22,1.16-.18,2.36,.12,3.51,.3,1.15,.86,2.22,1.63,3.14-2.11,4.21-1.36,10.58,3.44,12.03-.14,1.34,.26,2.69,1.12,3.76,.86,1.07,2.11,1.8,3.51,2.03,.17,1.29,.82,2.48,1.84,3.34,1.02,.86,2.33,1.34,3.7,1.35,.88,2.98,4.2,4.76,6.72,2.93,.94-.73,1.59-1.73,1.85-2.85,.26-1.12,.12-2.29-.4-3.33,.88-.97,1.36-2.21,1.35-3.49-.01-1.28-.51-2.51-1.4-3.47,.16-2.37-1.38-3.4-2.81-2.59-.12,0-.23,.02-.34,.06-7.49,2.93-6.83-9.85,.39-5.73,1.66,.94,3.15-.01,3.43-1.93,.17-1.27-.11-2.56-.79-3.67,.96-1.02,1.55-2.31,1.68-3.67s-.2-2.73-.94-3.9c1.15-.62,2.1-1.53,2.76-2.61,.66-1.09,1.01-2.33,1-3.59,3.89-.82,7.26-4.38,5.79-8.25Zm-22.64,7.91c-.7,.89-1.26,1.87-1.65,2.92-.9,2.68,.45,3.5-.62,4.31-.54,.42-.99,.94-1.32,1.53-.33,.59-.52,1.23-.58,1.9-.13,.63-.21,1.27-.26,1.91,.02,.09,.01,.18,0,.26s-.06,.17-.11,.24c-.11,.15-.27,.25-.46,.28-.18,.03-.38,0-.53-.11-.15-.1-.26-.26-.29-.43-.33-.72-.51-1.49-.55-2.28,0-.86,.18-1.72,.53-2.51,.36-.79,.88-1.51,1.54-2.11-.25-1.85,.2-3.73,1.27-5.29,.55-.7,1.25-1.29,2.04-1.74,.16-.11,.36-.16,.55-.14,.2,.02,.37,.12,.5,.26,.13,.14,.19,.33,.18,.51-.01,.19-.1,.36-.24,.49Zm4.16-2.77c-1.91,1.16-1.55-2.16,.99-2.75,.41-.1,.83-.14,1.07,.19,.56,.76-1.23,2.05-2.06,2.56Z"/>
    <path class="cls-1" d="M263.44,62.45c-.31-4.44-5.2-10.19-15.16-11.02-8.3-.68-14.16,1.75-23.47-2.27-.24-.11-.51-.13-.77-.08-.26,.06-.49,.19-.66,.39-.17,.2-.26,.44-.27,.69,0,.25,.08,.5,.23,.7,1.21,1.61,2.64,3.07,4.25,4.33-1.42-.1-2.84-.26-4.27-.37-.24-.02-.48,.03-.69,.15-.21,.12-.38,.29-.48,.5-.1,.21-.14,.44-.1,.67,.04,.23,.15,.44,.32,.6,5.36,5.06,12.5,8.06,20.05,8.41,2.79,.16,1.64-.23-.52,.77-.84,.32-1.54,.91-1.98,1.66-.29,.74-.57,1.69,.21,1.94,.93,.3,1.75-.98,2.79-1.53,2.66-1.4,4.93-.05,5.32-1.16,.18-.51-.53-1.35-1.94-1.64,2.21-.07,4.41-.27,6.6-.58,.14,1.83,.83,3.57,1.99,5.03,1.16,1.46,2.74,2.57,4.54,3.21,1.46,.5,3.73,.07,4.7,.65,.26,.17,.47,.39,.62,.65,.15,.26,.22,.55,.22,.85,.12,2.68-3.64,3.74-6.41,3.94-.21,.01-.42,.09-.58,.22-.16,.13-.28,.31-.33,.51-.99,4.97-2.33,9.88-4,14.68-.04,.1-.05,.2-.05,.31,0,.1,.04,.21,.09,.3,.05,.09,.12,.17,.21,.24,.09,.06,.19,.11,.29,.13,.04,1.05,.29,2.08,.74,3.04,.54,1.46,2.36,6.05,3.82,5.35,1.16-.56-.56-3.63-1.32-5.46-.42-1.37-1-2.7-1.73-3.95,6.84-5.77,11.48-11.8,13.24-20.27,1.12-5.53,.28-10.19-5.51-11.57Zm-13.71-5.89c-1.16-.03-8.22,.57-11.57,.25-1.83-.05-3.59-.68-5-1.78-.16-.09-.29-.23-.34-.4-.05-.17-.03-.36,.06-.51s.24-.27,.42-.32c.18-.05,.38-.03,.54,.05,.38,.11,.75,.17,1.13,.25,6.8,1.39,10.13-.53,15.03,1.01,.2,.04,.38,.14,.5,.3,.12,.16,.16,.36,.13,.55-.04,.19-.15,.36-.32,.47-.17,.11-.38,.16-.58,.12Zm4.81,.74c-.73-.27-1.23-.52-1.76-.7-.17-.06-.32-.18-.4-.33-.08-.16-.1-.34-.05-.5,.05-.17,.17-.31,.33-.4,.16-.09,.35-.11,.53-.06,.66,.18,1.32,.39,1.95,.64,.18,.08,.33,.23,.4,.41,.07,.18,.07,.38-.01,.56-.08,.18-.23,.32-.42,.39-.19,.07-.4,.08-.58,0Z"/>
    <path class="cls-2" d="M83.14,29.11c-.41,.19-.76,.49-.99,.87-.18,.41,.62,.79,1.05,.94-.02-.39-.06-1.6-.06-1.81Z"/>
    <path class="cls-2" d="M85.79,33.86c.04,.67,.13,2.48,.14,2.71,.69-.13,1.32-.4,1.36-1.06,.04-.82-.68-1.37-1.5-1.64Z"/>
    <path class="cls-2" d="M192.41,21.98c-1.62-1.55-3.64-2.66-5.85-3.22-2.22-.56-4.55-.56-6.76,0-.22,.06-.42,.17-.57,.33-.15,.16-.26,.36-.29,.57-.04,.21-.01,.43,.07,.63,.09,.2,.23,.37,.42,.49,1.61,1.2,2.94,2.69,3.91,4.4,.98,1.7,1.58,3.58,1.76,5.51,.97-.35,3.43,2.14,2.79,4.72-.13,.68-.53,1.28-1.12,1.69s-1.31,.59-2.03,.5c-.19,0-.37-.05-.54-.14-.65,1.45-1.7,2.71-3.03,3.64-.2-.02-.4-.06-.59-.1-.2-.05-.41-.01-.58,.09-.18,.1-.3,.26-.35,.45-.05,.19-.01,.39,.09,.56s.28,.29,.48,.33c12.89,3.22,21.36-11.74,12.19-20.47Zm-4.57,3.83c-.02,.19-.11,.37-.27,.5-.15,.13-.36,.19-.56,.18-.68-.03-1.44-.13-2.06-.14-.19,0-.37-.08-.5-.21-.13-.13-.2-.3-.2-.48,0-.18,.08-.35,.21-.47,.14-.12,.32-.19,.51-.19,.54,0,1.47,0,2.16,.02,.1,0,.2,.03,.29,.07,.09,.04,.17,.1,.24,.18,.07,.07,.12,.16,.15,.25,.03,.09,.04,.19,.03,.29Z"/>
    <path class="cls-2" d="M185.21,32.2c.04,1.32-.12,2.64-.5,3.91,1.54-.43,1.47-2.53,.5-3.91Z"/>
    <path class="cls-2" d="M96.33,27.56c-1.16-1.95-2.85-3.57-4.88-4.7-2.04-1.13-4.35-1.72-6.7-1.72s-4.67,.59-6.7,1.72c-2.04,1.13-3.72,2.75-4.88,4.7-1.02,1.89-1.51,4-1.43,6.12,.08,2.12,.74,4.19,1.9,6,1.16,1.81,2.8,3.31,4.74,4.35,1.95,1.04,4.14,1.58,6.37,1.58s4.43-.54,6.37-1.58c1.95-1.04,3.58-2.54,4.74-4.35,1.16-1.81,1.82-3.88,1.9-6,.08-2.12-.41-4.23-1.43-6.12Zm-6.67,8.06c-.08,.88-.51,1.7-1.21,2.28-.7,.58-1.61,.88-2.53,.83-.06,.63-.17,1.25-.26,1.88,0,.2-.08,.38-.23,.52-.15,.14-.34,.22-.55,.22s-.4-.08-.55-.22c-.15-.14-.23-.32-.23-.52-.12-.75-.23-1.17-.34-2.02-.76-.13-1.5-.32-2.15-.44-.1,0-.2-.04-.29-.08-.09-.04-.17-.11-.24-.18-.07-.08-.11-.16-.14-.26-.03-.09-.04-.19-.03-.29,.01-.1,.04-.19,.09-.28,.05-.09,.12-.16,.2-.22,.08-.06,.17-.11,.27-.13,.1-.03,.2-.03,.3-.02,.56,0,1.19,.01,1.82,.01-.09-1.13-.17-2.26-.25-3.39-5.34-1.23-4.08-5.72-.13-6.35,.09-.65,.22-1.3,.39-1.94,0-.09,.03-.18,.06-.26,.04-.08,.09-.15,.16-.21,.07-.06,.15-.11,.24-.14,.09-.03,.18-.04,.27-.04,.09,0,.18,.02,.27,.06,.08,.04,.16,.09,.22,.15,.06,.07,.11,.14,.15,.22,.03,.08,.05,.17,.04,.26,.09,.65,.24,1.25,.32,1.89,.3,.04,.6,.09,.89,.16,.19,.02,.36,.11,.47,.25,.12,.14,.17,.32,.15,.5-.02,.18-.12,.34-.27,.45-.15,.11-.34,.16-.52,.14-.2,0-.4,.01-.59,.03l.19,2.98c2.97,.66,4.11,2.46,4,4.15Z"/>
    <path class="cls-2" d="M167.98,27.21c-.41,.19-.76,.5-.98,.87-.18,.41,.61,.79,1.05,.94-.02-.39-.06-1.6-.07-1.81Z"/>
    <path class="cls-2" d="M170.63,31.95c.04,.67,.13,2.48,.14,2.71,.69-.13,1.32-.4,1.36-1.07,.04-.82-.68-1.37-1.5-1.64Z"/>
    <path class="cls-2" d="M181.17,25.66c-1.16-1.95-2.85-3.57-4.88-4.7-2.04-1.13-4.35-1.72-6.7-1.72s-4.67,.59-6.7,1.72c-2.04,1.13-3.72,2.75-4.88,4.7-1.02,1.89-1.51,4-1.43,6.12,.08,2.12,.74,4.19,1.9,6,1.16,1.81,2.8,3.31,4.74,4.35,1.95,1.04,4.14,1.58,6.37,1.58s4.43-.55,6.37-1.58c1.95-1.04,3.58-2.54,4.74-4.35,1.16-1.81,1.82-3.88,1.9-6,.08-2.12-.41-4.23-1.43-6.12Zm-10.41,11.17c-.06,.63-.17,1.25-.26,1.88,0,.19-.08,.38-.23,.52s-.34,.22-.55,.22-.4-.08-.55-.22c-.15-.14-.23-.33-.23-.52-.12-.75-.23-1.17-.34-2.02-.76-.13-1.5-.32-2.15-.44-.1,0-.2-.04-.29-.08-.09-.05-.17-.11-.24-.18-.07-.07-.12-.16-.15-.26-.03-.09-.04-.19-.03-.29,.01-.1,.04-.19,.09-.28,.05-.09,.12-.16,.2-.22,.08-.06,.17-.11,.27-.13,.1-.03,.2-.03,.3-.02,.56,0,1.19,.01,1.82,.01-.09-1.13-.17-2.26-.25-3.39-5.35-1.23-4.08-5.73-.13-6.35,.09-.65,.22-1.3,.39-1.94,.01-.17,.1-.34,.23-.46,.14-.12,.32-.18,.5-.17,.18,0,.36,.08,.49,.21,.13,.13,.2,.3,.2,.47,.09,.65,.24,1.25,.33,1.89,.3,.04,.6,.09,.89,.16,.19,.02,.36,.11,.47,.25,.12,.14,.17,.32,.15,.5-.02,.18-.12,.34-.27,.45-.15,.11-.34,.16-.52,.14-.2,0-.4,.01-.59,.03l.19,2.97c.89,.17,1.73,.52,2.46,1.04,.65,.42,1.13,1.03,1.38,1.73,.25,.71,.25,1.47,0,2.18-.25,.71-.73,1.31-1.38,1.73-.65,.42-1.42,.62-2.2,.59Z"/>
    <path class="cls-2" d="M144.21,31.23c1.62,.24,3.28,.29,4.91,.14,2.17-.42,2.59-1.75-.12-2.14-.71-.06-1.43-.08-2.14-.06-.71-.02-1.42-.07-2.12-.06-.67,.01-2.07,.22-2.16,.88-.08,.66,1.43,1.19,1.63,1.24Z"/>
    <path class="cls-2" d="M144.57,35.6c.42,.05,3.11-.08,4-.18,.73-.08,2.09-.4,2.07-1.16-.02-.76-1.59-1.02-1.96-1.04-1.42-.04-2.84,.04-4.25,.24-.23,.06-1.7,.58-1.62,1.24,.07,.6,1.58,.87,1.75,.89Z"/>
    <path class="cls-2" d="M102.58,30.73c-.03,.46-.04,.92-.04,1.38,0,.99-.07,3.6,1.22,3.57,1.36-.03,1.21-3.38,1.18-4.67-.01-1-.48-2.38-1.18-2.38-.6,0-1.1,1.21-1.17,2.1Z"/>
    <path class="cls-2" d="M101.96,33.18c.31,.04,1.78,0,2.09,0,.71,.03,1.42,0,2.13-.09,.17-.03,1.7-.37,1.69-1.08-.01-.71-1.54-1.04-1.88-1.08-1.49-.15-5.89-.09-5.73,1.34,.06,.57,1.53,.88,1.7,.9Z"/>
    <path class="cls-2" d="M131.92,43.17c-.39-.03-.78-.06-1.16-.08-1.37-3.83-3-7.58-4.88-11.22,1.98-3.4,3.52-7.01,4.59-10.77,.55-.09,1.1-.2,1.66-.29,.21-.01,.4-.1,.53-.24,.14-.15,.21-.34,.2-.53-.01-.19-.1-.38-.26-.51-.15-.13-.35-.2-.56-.19-1.41-.14-2.83-.2-4.25-.16-.49,0-11.78,.26-14.4,.65-.51,.08-1,.16-1.5,.25-.19,0-.37,.08-.5,.21-.13,.13-.2,.3-.2,.48,0,.18,.08,.35,.22,.47,.14,.12,.32,.19,.51,.19,.51,.07,1,.14,1.52,.2,.38,.04,0-.23,.88,2.1,1.11,2.65,2.46,5.22,4.01,7.67-2.43,3.65-4.43,7.53-5.98,11.59-.72,.08-1.42,.18-2.14,.28-.19,0-.37,.07-.5,.2-.13,.13-.21,.3-.21,.48s.08,.35,.21,.48c.13,.13,.31,.2,.5,.2,1.1,.14,2.35,.36,3.91,.43,5.38,.26,10.78,.21,16.15-.14,.59-.08,1.16-.18,1.75-.27,.19-.03,.36-.12,.49-.26,.12-.14,.18-.32,.17-.51,0-.18-.09-.36-.23-.49-.14-.13-.32-.2-.51-.21Zm-3.46-.22c-.57-.01-1.13-.02-1.7-.02-1.32-2.29-2.71-3.82-4.05-5.91-.1-.16-.24-.29-.41-.38-.17-.09-.36-.15-.56-.15-.2,0-.39,.03-.57,.12-.18,.08-.33,.2-.44,.36-1.44,1.82-2.64,3.8-3.56,5.91-1.44-.01-2.1,0-2.77,.01,1.04-1.59,3.33-6.37,6.31-10.84,.12-.18,.18-.38,.19-.59,0-.21-.05-.41-.16-.59-3.02-4.94-2.64-4.74-5.22-9.08,2.06,.02,10.46-.2,12.99-.43-2.12,3.97-2.65,5.72-5.04,9.97-.09,.16-.14,.34-.14,.52,0,.18,.04,.36,.12,.52,1.44,2.71,2.58,5.56,4,8.28,1.41,2.69,1.63,2.33,1,2.32Z"/>
    <path class="cls-2" d="M123.97,25.44c0-.18-.06-.35-.19-.48-.13-.13-.3-.21-.49-.21-.84-.33-1.74-.5-2.65-.49-.18,0-.37,.03-.53,.1-.17,.07-.31,.18-.43,.31-.12,.14-.2,.29-.24,.47-.04,.17-.04,.35,0,.52,.35,1.38,.94,2.7,1.74,3.89,.12,.18,.3,.32,.5,.41,.2,.09,.43,.12,.65,.09,.22-.03,.43-.11,.6-.25,.17-.14,.3-.32,.37-.52,.5-1.22,.72-2.53,.66-3.84Z"/>
  </g>
</svg>