<?xml version="1.0" encoding="utf-8"?>
<!-- Generator: Adobe Illustrator 26.5.0, SVG Export Plug-In . SVG Version: 6.00 Build 0)  -->
<svg version="1.1" id="Layer_1" xmlns="http://www.w3.org/2000/svg" xmlns:xlink="http://www.w3.org/1999/xlink" x="0px" y="0px"
	 viewBox="0 0 351 217" style="enable-background:new 0 0 351 217;" xml:space="preserve">
<style type="text/css">
	.st0{fill:#F07D29;}
	.st1{fill:#180B02;}
</style>
<path class="st0" d="M287.7,115.2c-1.9-0.3-0.8,2.4-7.3,8.3c-3.6,3.2-7.6,5.8-11.9,8c-2.8-3-5.5-6.2-8.1-9.3l-9.7,6.2
	c1.4-5.5,4.4-10.5,8.8-14.4c-0.1-0.1-0.1-0.2-0.2-0.3c-0.1-0.1-0.2-0.1-0.3-0.2c-0.1,0-0.3,0-0.4,0c-0.1,0-0.2,0.1-0.3,0.2
	c-19.3,4.1-35,16.4-48,30.3c-0.1,0.1-0.2,0.3-0.3,0.4c0,0.2-0.1,0.3,0,0.5c0,0.2,0.1,0.3,0.2,0.5c0.1,0.1,0.2,0.3,0.4,0.3
	c6.1,3.4,12,7.4,18.4,10.5c0.3,0.1,0.6,0.2,0.9,0.1c0.3-0.1,0.6-0.3,0.7-0.6c0.8-1.4,2.5-1,4-0.4c-0.2-1.4-0.1-2.8,0.2-4.1
	c0.1-1.1,0.3-2.2,0.6-3.2c0.1-0.3,0.7-2.1,1.5-1.9c1.3,0.2,0.5,4,0.4,5.3c-0.1,1.6-0.4,3.2-1,4.7c3.7,1.5,7.3,3.1,10.8,5.1
	c6.2,3.6,5.9,5.2,7.3,4.9c1.2-0.3,0.6-1.5,2.3-2.5c1.4-0.8,2.1,0.1,3-0.4c0.1-0.1,0.3-0.2,0.4-0.3c0.1-0.1,0.2-0.3,0.2-0.4
	c0.1-0.4,0.3-0.8,0.6-1.1c0.3-0.3,0.6-0.6,1-0.8c0.4-0.2,0.8-0.3,1.2-0.3c0.4,0,0.9,0.1,1.2,0.2c0.3,0.1,0.6,0,0.8-0.1
	c0.3-0.1,0.5-0.3,0.6-0.5c1.7-3.3,7.6-2.3,10.3-0.5c0.6-2.3,1.3-4.5,2.2-6.7c2.8-7.5,3-7.3,4.1-9.4c0.1-0.2,0.2-0.3,0.4-0.4
	c0.2-0.1,0.4-0.1,0.6,0c0.2,0.1,0.4,0.2,0.4,0.4c0.1,0.2,0.1,0.4,0,0.6c-0.4,1.8-0.1,1.7-4.5,12.7c-0.4,0.9-1.8,4-1.9,4.2
	c0.1,0.2,0.2,0.4,0.4,0.5c0.2,0.1,0.4,0.2,0.6,0.3c7.7,1,25.1,9.6,33.9,12.9c0.2,0.1,0.5,0.1,0.7,0.1c0.2,0,0.4-0.1,0.6-0.3
	C330.5,159,318.9,119.5,287.7,115.2z"/>
<path class="st0" d="M309.1,179.4c0-0.2-0.1-0.4-0.3-0.6c-0.1-0.2-0.3-0.3-0.5-0.3c-0.2-0.1-0.4-0.1-0.7,0c-0.2,0-0.4,0.2-0.6,0.3
	c-1.6,1.5-3.3,2.9-5,4.2c-0.8,0.6-11.5,8.7-11.6,8.7c-2,1.6-4.3,3-6.7,4c-0.2,0.1-0.3,0.2-0.4,0.3c-0.1,0.2-0.1,0.4,0,0.5
	c0.1,0.2,0.2,0.3,0.4,0.4c0.2,0.1,0.4,0.1,0.6,0c0.7-0.2,1.4-0.4,2.1-0.6h22.1c0,0.2,0.1,0.4,0.2,0.6c0.2,0.1,0.4,0.2,0.6,0.2
	c0.1,0,0.2,0,0.3-0.1c0.1,0,0.2-0.1,0.3-0.2c0.1-0.1,0.1-0.2,0.2-0.2c0-0.1,0.1-0.2,0.1-0.3C310.3,190.8,310,185.1,309.1,179.4z"/>
<path class="st0" d="M97.6,144.2c0-0.4-0.1-0.7-0.3-1c-3.6-5-6.4-9.9-11-14.2c0.2-1.5,0.3-2.6,0.5-3.6c0.1-0.3,0-0.5-0.1-0.8
	c-0.1-0.2-0.4-0.4-0.6-0.5c-2-1.1-4.2-1.8-6.5-2c-0.2,0-0.5,0-0.7,0.2c-0.2,0.1-0.4,0.3-0.5,0.5l-3.1,6.2c-0.1,0.1-0.1,0.3-0.1,0.4
	c0,0.2,0,0.3,0.1,0.5c0.1,0.1,0.1,0.3,0.2,0.4c0.1,0.1,0.2,0.2,0.4,0.3c1.3,0.6,2.6,1.2,3.9,1.9c0.9,4.9,2.3,10,3,14.8
	c0,0.1,0.1,0.3,0.2,0.4c0.1,0.1,0.2,0.2,0.3,0.3c4,2.4,7.6,5.4,10.7,8.8c0,0.1,0.1,0.3,0.2,0.4c0.1,0.1,0.2,0.2,0.3,0.2
	c0.1,0,0.3,0,0.4,0c0.1,0,0.3-0.1,0.4-0.2s0.2-0.2,0.3-0.3c0.1-0.1,0.1-0.3,0.1-0.4C96.9,152.4,97.6,148.3,97.6,144.2z"/>
<path class="st1" d="M84.7,92.3c-1.6-3.5-4.3-6.5-7.8-8.4c-1-0.5-0.4-1.5-2.3-5.2c-0.8-1.4-1.7-2.8-2.7-4.1
	c-0.1-0.1-0.2-0.3-0.2-0.5c0-0.2,0.1-0.4,0.3-0.5c0.1-0.1,0.3-0.2,0.5-0.2s0.4,0.1,0.5,0.2c2.5,2.3,4.4,5.2,5.4,8.3
	c4.1,2.3,7.3,5.9,9,10.2c0.1,0.3,0.1,0.6,0,0.8c-0.1,0.3-0.3,0.5-0.6,0.6c-1.2,0.7-2.4,1.4-3.5,2.2c0.3,2.7,0.1,5.4-0.6,8
	c-1.2,3.6-3.6,6.6-6.9,8.6c0.4,1.7,1.3,4.5,1.9,6.2c0.1,0.2,0,0.4,0,0.6c-0.1,0.2-0.3,0.3-0.4,0.4c-0.2,0.1-0.4,0.1-0.6,0
	s-0.3-0.2-0.4-0.4c-1.1-2.3-2-4.6-2.8-7c-0.1-0.2,0-0.5,0.1-0.7c0.1-0.2,0.3-0.4,0.5-0.5c1.5-0.9,2.9-2.1,4-3.4
	c1.8-2.1,2.9-4.7,3-7.4c0.3-4.3-0.6-5.1,0.4-5.8C82.4,93.7,83.7,92.9,84.7,92.3z"/>
<path class="st1" d="M63.1,116.4c0.4,1.4,1,2.7,1.6,4c1.3,2.3,3.1,1.6,2.1-1c-0.5-1.3-1-2.6-1.6-3.8c-0.1-0.2-1-1.4-1.7-1.2
	C62.9,114.6,63,116.2,63.1,116.4z"/>
<path class="st1" d="M76.1,99.8c0.1,0.8,0.1,1.5,0.1,2.3c0,0.7-0.2,1.4-0.5,2c-0.3,0.6-0.7,1.2-1.3,1.6c-0.6,0.4-1.2,0.7-2,0.8
	c-0.7,0.2-1.4,0.2-2.1,0.1c-0.7-0.1-1.4-0.4-2-0.7c-0.6-0.4-1.1-0.9-1.5-1.4c-0.6-0.9-0.9-1.9-1.1-3c-0.2-1-0.1-2.1,0.2-3.1
	c0-0.1,0.1-0.3,0.2-0.4c0.1-0.1,0.2-0.2,0.4-0.3c0.1-0.1,0.3-0.1,0.5-0.2c0.2,0,0.3,0,0.5,0c3,0.7,3.7,0.4,8,1.6
	c0.2,0,0.3,0.1,0.4,0.2C76.1,99.5,76.1,99.7,76.1,99.8z M68.2,100.1c-0.1,1.1,0.2,2.2,0.7,3.1c0.4,0.6,1.1,1,1.9,1.2
	c0.8,0.1,1.6,0,2.2-0.4c0.9-0.9,1.4-2.1,1.6-3.3C72.5,100.6,70.3,100.4,68.2,100.1z"/>
<path class="st1" d="M67.3,83.9c1.4-1.4,2.5-1.5,4-0.5c1.4,1,1.4,1.3,2,1c0.8-0.4,0.4-1.4-0.1-2.2c-0.3-0.5-0.8-0.9-1.3-1.2
	c-0.9-0.5-2-0.8-3.1-0.6c-1.1,0.1-2.1,0.6-2.8,1.4c-0.3,0.3-0.5,0.6-0.7,0.9c-0.3,0.7-0.7,2.3,0.2,2.5
	C66.1,85.3,66.1,85.1,67.3,83.9z"/>
<path class="st1" d="M69.8,86.5c1-0.2,2,0.9,2.3,2.4c0.3,1.5-0.3,2.8-1.3,3c-1,0.2-2-0.9-2.3-2.4C68.2,88,68.8,86.7,69.8,86.5z"/>
<path class="st1" d="M171.3,109.7c0.1-0.5,0.3-2.2,0.3-3.1c0-4.8,0.8-9.5,2.2-14.1c0.9-3,1.2-3.6,0.4-4c-1-0.4-2,1.7-2.6,3.3
	c-0.9,2.4-1.6,4.8-1.9,7.3c-0.7,3.5-0.7,7.2,0.1,10.7c0,0.2,0.1,0.4,0.2,0.5c0.1,0.1,0.3,0.2,0.5,0.2c0.2,0,0.4-0.1,0.5-0.2
	C171.3,110.1,171.3,109.9,171.3,109.7z"/>
<path class="st1" d="M175.7,99.7c0.9,2.6,2.1,3.9,2.1,7c0,0.3,0,0.6,0,0.8c-0.1,0.7-0.3,1.3,0.3,1.6c0.8,0.4,1.4-0.6,1.8-1.6
	c0.9-2.1-0.7-6.8-2.1-8.3c-1-1.1-1.6-1.5-2.1-1.2C175.1,98.3,175.4,98.8,175.7,99.7z"/>
<path class="st1" d="M185.3,92.4c1.4-1.9,1.6-1.8,3.3-4.2c0.5-0.8,1-1.3,0.5-1.8c-1.9-1.9-10.9,10.6-8.7,11.6
	C181.5,98.6,183.2,95.3,185.3,92.4z"/>
<path class="st1" d="M187.4,98.9c0.5-0.4,1-0.9,1.5-1.4c4.1-4.2,7.3-5.5,6.6-6.7c-1.5-2.3-12.1,7.4-9.8,8.9
	C186.3,100,186.7,99.6,187.4,98.9z"/>
<path class="st1" d="M193.1,102.7c0.4-0.3,0.7-0.5,1-0.9c3.9-3.9,7.1-5.2,6.4-6.3c-1.1-1.8-8,3.7-9.1,6.2c-0.4,0.8-0.7,1.4-0.1,1.8
	C191.7,103.9,192.1,103.5,193.1,102.7z"/>
<path class="st1" d="M186.6,118.4c5.7-4.6,6.1-7.1,13.8-13.8c2.7-2.3,3.3-2.5,2.8-3.3c-0.5-0.8-1.6-0.1-2.9,0.6
	c-2.2,1.3-4.2,3-5.9,4.8c-3.3,3.3-6.3,6.8-8.9,10.6c-0.1,0.1-0.2,0.3-0.2,0.5c0,0.2,0.1,0.4,0.2,0.5c0.1,0.1,0.3,0.2,0.5,0.2
	C186.3,118.6,186.5,118.5,186.6,118.4z"/>
<path class="st1" d="M168.6,114c-1,1.4-2.3,3.2-3.5,5c-0.1,0.2-0.2,0.3-0.4,0.3c-0.2,0.1-0.4,0-0.6,0c-0.2-0.1-0.3-0.2-0.4-0.4
	c-0.1-0.2-0.1-0.4,0-0.5c0.9-2.2,2-4.4,3.4-6.4c0.2-0.2,0.4-0.4,0.6-0.4s0.5-0.1,0.8,0c6.8,2.6,13,6.5,18.2,11.4
	c0.2,0.2,0.3,0.4,0.4,0.7c0,0.3,0,0.5-0.1,0.7c-1.5,2.4-2.8,3.6-4.1,5.6c-0.1,0.2-0.3,0.3-0.5,0.4c-0.2,0.1-0.4,0-0.6-0.1
	c-0.2-0.1-0.3-0.2-0.4-0.4c-0.1-0.2-0.1-0.4,0-0.6c0.9-1.8,1.9-3.5,3-5.2C179.8,119.9,174.4,116.5,168.6,114z"/>
<path class="st1" d="M90.5,125.4c-0.5-1.8-1.4-3.4-2.4-5c-0.7-0.8-1.7-1.4-2.8-1.6c-1.1-0.2-2.2,0-3.2,0.6c-0.9,0.4-1.8,0.9-2.6,1.6
	c-0.3,0.3-0.6,0.6-0.8,0.9c0,0.1,0,0.1,0,0.2c-6-0.2-12,0.7-17.6,2.8c-1.8,0.7-3.6,1.4-5.4,2.3c-0.1,0-0.2,0.1-0.3,0.2
	c-0.1,0.1-0.1,0.2-0.2,0.2c0,0.1-0.1,0.2-0.1,0.3c0,0.1,0,0.2,0.1,0.3c0,0.1,0.1,0.2,0.2,0.3c0.1,0.1,0.2,0.1,0.3,0.2
	c0.1,0,0.2,0.1,0.3,0.1c0.1,0,0.2,0,0.3-0.1c1.2-0.4,9.8-2.9,13.2-3.5c2.4-0.4,4.8-0.7,7.2-0.7c-1.5,3-2.8,6.2-3.8,9.4
	c-0.1,0.2,0,0.4,0,0.5c0.1,0.2,0.2,0.3,0.4,0.3c0.2,0.1,0.4,0.1,0.5,0c0.2-0.1,0.3-0.2,0.4-0.4c2-3.4,3.8-7,5.4-10.6
	c0.1-0.2,0.1-0.4,0.1-0.7c0.8,0.3,1.6,0.7,2.4,1c1.4,0.6,3.5,1.4,6.7,2.8c0.2,0.1,0.5,0.1,0.7,0.1c0.2,0,0.5-0.1,0.6-0.3
	c0.2-0.2,0.3-0.4,0.4-0.6C90.6,125.9,90.6,125.6,90.5,125.4z M81.6,121.8c0.9-0.3,1.9-0.5,2.9-0.6c0.3-0.1,0.6,0,0.9,0.1
	c0.3,0.1,0.5,0.3,0.7,0.5c0.4,0.6,0.8,1.2,1.1,1.8C85.3,122.8,83.5,122.2,81.6,121.8z"/>
<path class="st0" d="M17.7,161.7c-0.7-17.1,4.8-23.4,17.4-28c2.1-0.8,4.2-1.5,6.4-2c0.2,0,0.4-0.2,0.5-0.3c0.1-0.2,0.2-0.4,0.1-0.6
	c0-0.2-0.2-0.4-0.4-0.5c-0.2-0.1-0.4-0.1-0.6-0.1c-2.3,0.4-4.6,0.8-6.8,1.4c-15,4.5-20.9,15.6-18.1,30.3c0,0.2,0.1,0.3,0.3,0.4
	c0.1,0.1,0.3,0.2,0.5,0.1c0.2,0,0.4-0.1,0.5-0.2C17.6,162.1,17.7,161.9,17.7,161.7z"/>
<path class="st1" d="M94.2,154.2c2.3-11.3,0.8-22.9-4.4-33.3c-0.1-0.2-0.1-0.4-0.1-0.6c0-0.2,0.1-0.4,0.3-0.6
	c0.1-0.2,0.3-0.3,0.5-0.4c0.2-0.1,0.4-0.1,0.7-0.1c3.6,0.8,7.1,2.1,10.4,3.9c11.6,5.3,22.6,14.8,35.9,15c10,0.1,17.5-11,23.2-18.8
	c0.2-0.3,0.5-0.4,0.8-0.5c0.3-0.1,0.6,0,0.9,0.2c7.6,4.9,14.8,10.6,22.1,16c0.2,0.1,0.3,0.3,0.4,0.5s0.1,0.4,0.1,0.6
	c-1.1,5.6-4.2,10.9-7.2,15.8c-5.6,9.2-13.3,18-23.2,23c-7.1,3.5-14.7,4.6-22.7,5c0.4,3.8,0.5,7.4,0.7,10.9c0,0.2-0.1,0.4-0.2,0.5
	c-0.1,0.1-0.3,0.2-0.5,0.2c-0.2,0-0.4,0-0.5-0.2c-0.1-0.1-0.2-0.3-0.3-0.5c-0.3-3.9-0.4-7.8-1-11.7c0-0.1,0-0.2,0-0.3
	c0-0.1,0.1-0.2,0.2-0.3c0.1-0.1,0.2-0.2,0.3-0.2c0.1-0.1,0.2-0.1,0.3-0.1c7.9-0.4,15.8-1.5,22.8-5.1c9.4-4.8,16.8-13.5,22.2-22.4
	c3-4.5,5.2-9.3,6.7-14.4c-6.8-5-13.4-10.2-20.4-14.8c-6.2,8.5-13.8,18.9-24.6,18.9c-14.1-0.1-25.1-9.8-36.9-15.2
	c-2.4-1.2-4.8-2.2-7.3-3.1c4.6,10.7,6.3,23.6,2.9,34.8c-0.1,0.2-0.2,0.4-0.3,0.5c-0.2,0.1-0.4,0.2-0.6,0.3c-0.2,0-0.5,0-0.7,0
	c-0.2-0.1-0.4-0.2-0.5-0.4c-3.4-3.6-7.1-6.8-11.1-9.6c-9.1-6.8-19.6-13.2-30.8-16c-20.5,11.9-34.2,42.3-41.7,64
	c-0.1,0.2-0.2,0.3-0.4,0.4c-0.2,0.1-0.4,0.1-0.6,0c-0.2-0.1-0.4-0.2-0.5-0.4c-0.1-0.2-0.1-0.4-0.1-0.6c7.8-23,20.7-53.4,42.4-65.7
	c0.1-0.1,0.3-0.1,0.4-0.2c0.2,0,0.3,0,0.5,0c6,1.5,11.7,3.7,17,6.7C78.3,141.2,86.7,147.3,94.2,154.2z"/>
<path class="st1" d="M96,159.9c1.7,11.4,3.1,12.6,5.6,28.3c0.1,0.9,0.8,4.5,0.9,5.4c0,0.2,0.1,0.4,0.3,0.5c0.2,0.1,0.4,0.2,0.6,0.2
	c0.2,0,0.4-0.1,0.6-0.3c0.1-0.2,0.2-0.4,0.2-0.6c0-0.9,0-1.9,0-2.8c-0.2-7.1-3.5-21.8-5.4-27.6c-0.4-1.2-0.8-2.4-1.2-3.6
	c0-0.2-0.2-0.3-0.3-0.4c-0.2-0.1-0.4-0.1-0.5-0.1c-0.2,0-0.3,0.1-0.5,0.3C96,159.6,95.9,159.8,96,159.9z"/>
<path class="st1" d="M107.8,135.1c-1.1-1.6-2.4-3.7-3.6-5.2c-0.1-0.1-0.2-0.3-0.2-0.5c0-0.2,0.1-0.3,0.3-0.5
	c0.1-0.1,0.3-0.2,0.5-0.2c0.2,0,0.4,0.1,0.5,0.2c2.1,2,4,4.3,5.6,6.6c0.1,0.2,0.2,0.4,0.2,0.6c0,0.2-0.1,0.4-0.2,0.6
	c-0.1,0.2-0.3,0.3-0.5,0.4c-0.2,0.1-0.4,0.1-0.6,0.1c-1.2,0-2.4,0.1-3.7,0.3c1.8,1.1,3.5,2.3,5.1,3.6c0.2,0.1,0.3,0.3,0.4,0.5
	c0.1,0.2,0.1,0.4,0,0.6c-1.8,6.7-4.9,13.5-10.1,18.3c-0.1,0.1-0.3,0.2-0.6,0.2c-0.2,0-0.4-0.1-0.6-0.2c-0.2-0.1-0.2-0.3-0.3-0.5
	c0-0.2,0.1-0.4,0.2-0.6c4-5.1,7-10.9,8.7-17.1c-2.1-1.7-4.4-3.1-6.8-4.4c-0.2-0.1-0.4-0.3-0.5-0.5c-0.1-0.2-0.2-0.4-0.1-0.7
	c0-0.2,0.1-0.5,0.3-0.6c0.2-0.2,0.4-0.3,0.6-0.4C104.3,135.6,106.1,135.3,107.8,135.1z"/>
<path class="st1" d="M66.8,151.3c-1.7,1.4-4.3,4-6.1,5.7c-0.1,0.1-0.3,0.2-0.5,0.3s-0.4,0.1-0.6,0c-0.2,0-0.4-0.1-0.5-0.2
	c-0.2-0.1-0.3-0.3-0.4-0.4c-4-8.7-6.9-17.1-8.3-20.2c0-0.1-0.1-0.2-0.1-0.3c0-0.1,0-0.2,0-0.3c0-0.1,0.1-0.2,0.2-0.2
	c0.1-0.1,0.1-0.1,0.2-0.2c0.1,0,0.2-0.1,0.3-0.1c0.1,0,0.2,0,0.3,0c0.1,0,0.2,0.1,0.2,0.1c0.1,0.1,0.1,0.1,0.2,0.2
	c5.5,10.6,3.2,6.4,8.5,18.3c2.5-2.5,5.1-4.9,8-7c0.2-0.1,0.5-0.2,0.7-0.2c0.3,0,0.5,0.1,0.7,0.2c0.2,0.1,0.4,0.3,0.5,0.6
	c0.1,0.2,0.1,0.5,0,0.7c-1.1,3.7-1.8,7.5-2.2,11.3c5.3,1.2,7.9,1.3,22.7,3.5c0.2,0,0.4,0.1,0.5,0.3c0.1,0.2,0.2,0.4,0.2,0.6
	c0,0.2-0.1,0.4-0.3,0.5c-0.2,0.1-0.4,0.2-0.6,0.2c-5.4-0.6-14.6-0.6-24.1-2.9c-0.3-0.1-0.5-0.2-0.7-0.5c-0.2-0.2-0.2-0.5-0.2-0.8
	C65.6,157.4,66.1,154.3,66.8,151.3z"/>
<path class="st1" d="M259.9,79.8c1.6-0.6,3.1-0.4,3.5,0.4c0.4,0.9-0.5,2.1-2.1,2.8c-1.6,0.6-3.1,0.4-3.5-0.4
	C257.4,81.7,258.4,80.5,259.9,79.8z"/>
<path class="st1" d="M255.1,95.5c0.4,0.5,0.9,0.9,1.5,1.1c0.6,0.3,1.2,0.4,1.9,0.3c1,0,1.9-0.2,2.8-0.7c0.9-0.4,1.6-1,2.2-1.8
	c0.5-0.8,1.1-1.9,0.3-2.3c-0.6-0.3-0.8,0-2.2,1c-0.7,0.6-1.5,1-2.4,1.3c-0.4,0.1-0.8,0.1-1.2,0.1c-0.4-0.1-0.8-0.2-1.1-0.4
	c-1.5-0.8-1.5-1.1-2.1-0.8C254.1,93.8,254.6,94.8,255.1,95.5z"/>
<path class="st1" d="M270.7,84.7c-1.4,1-3.7,4.7-2.7,5.1c0.7,0.3,1.4-1.6,2.2-2.7c1-1.4,2.3-2.3,1.9-2.8
	C271.9,83.9,271,84.5,270.7,84.7z"/>
<path class="st1" d="M118.1,71.4c-12.2,0-26.4,1-36.2-6.4c-13.2-9.9-12.8-40-0.8-50.6c9.2-8.2,25.5-7.9,37.8-8.7
	c21.1-1.4,42.4-0.4,63.5-0.4c11.3,0,24.7,0.1,33.2,7.2c11.4,9.5,15.2,41.4,2.3,51.9c-14.3,11.6-62.5,7.5-82,7.5
	c-8.1,8.6-16.8,16.5-26.1,23.9c-0.1,0.1-0.2,0.1-0.2,0.1c-0.1,0-0.2,0-0.3,0c-0.1,0-0.2,0-0.3-0.1c-0.1,0-0.2-0.1-0.2-0.2
	c-0.1-0.1-0.1-0.2-0.1-0.2c0-0.1,0-0.2,0-0.3c0-0.1,0-0.2,0.1-0.3c0-0.1,0.1-0.2,0.2-0.2c0.6-0.5,0.5-0.4,0.6-0.5
	C112.6,86.7,114.9,78.9,118.1,71.4z M111.6,92.5c8.2-6.8,16-14.2,23.2-22c0.1-0.1,0.2-0.2,0.3-0.2c0.1-0.1,0.2-0.1,0.4-0.1
	c20.5-0.2,67.6,3.5,81-7.4c11.5-9.3,8.4-39.7-2.4-48.7c-8-6.6-21.2-6.6-31.8-6.6c-21.1,0-42.3-1-63.4,0.4
	C107.3,8.7,91.2,8.4,82.6,16c-11.3,10-11.2,38.5,0.6,47.5c9.5,7.2,24.1,6.2,36.2,6.3c0.1,0,0.3,0,0.4,0.1c0.1,0.1,0.2,0.2,0.3,0.3
	c0.4,0.6,0.1,0.3-2.9,7.8C115.3,82.8,113.6,87.7,111.6,92.5L111.6,92.5z"/>
<path class="st1" d="M289.1,116.4c-0.1-0.7,0.1-0.3-7.4-5.9c-0.2-0.2-0.5-0.2-0.8-0.2c-0.3,0-0.5,0.1-0.8,0.3
	c-5.3,4.2-11.3,7.4-17.8,9.5c0.2-2.6,0.2-5.1,0.1-7.7c0.5,1,0.9,1.6,1.5,1.4c0.8-0.2,0.6-2,0.5-2.3c-0.5-1.9-1.2-3.8-1.9-5.6
	c0.9-0.2,1.7-0.4,2.5-0.6c0.2,0,0.4-0.2,0.5-0.3c0.1-0.2,0.2-0.4,0.1-0.6c0-0.2-0.2-0.4-0.3-0.5c-0.2-0.1-0.4-0.2-0.6-0.1
	c-1.4,0.1-2.8,0.2-4.3,0.2c-10.1,0-10.9-4.2-12-12.4c1.1,0.2,2.1,0.1,3.2-0.2c0.2,0,0.4-0.1,0.6-0.2c0.1-0.1,0.2-0.3,0.2-0.6
	s-0.1-0.4-0.3-0.5c-0.2-0.1-0.4-0.2-0.6-0.2c-2.3-0.4-2.9-0.5-3.5-1.2c-0.4-0.4-0.1-0.9,0.4-1.2c1-0.5,2.8-0.7,3.5-2.5
	c0.3-0.7,0.3-1.5,0.2-2.3c0-0.1,0-0.2,0-0.3c0-0.1-0.1-0.2-0.1-0.2c-0.1-0.1-0.1-0.1-0.2-0.2c-0.1,0-0.2-0.1-0.3-0.1
	c-0.1,0-0.2,0-0.3,0c-0.1,0-0.2,0.1-0.3,0.1c-0.1,0.1-0.1,0.1-0.2,0.2c0,0.1-0.1,0.2-0.1,0.3c-0.2,0.6-0.5,1.1-0.9,1.6
	c-0.1,0.2-0.3,0.4-0.5,0.5c0-0.2,1.5-7.8,1.5-8.6c0.2-1.9,0.1-2.4-0.5-2.5c-0.7-0.2-1,0.6-1.4,1.5c-0.6,1.3-1,2.7-1.1,4.2
	c-0.5,2.2-0.8,4.3-1,6.5c-0.4,0.3-0.8,0.7-1,1.1c-0.2,0.4-0.4,0.9-0.3,1.4c0,0.5,0.1,1,0.4,1.4s0.6,0.8,1.1,1.1
	c-0.2,1.4-0.3,2.8-0.2,4.3c0.6,7.9,6.1,11.6,13.6,11c0.1,0.8,1.6,4.7,1.8,5.4c0.3,0.8,0.2,0.3-0.2,0.1c-0.2-0.1-0.4-0.1-0.6-0.1
	c-0.2,0-0.4,0.1-0.6,0.2c-5.9,4.4-10,10.6-11.5,17.6c0,0.1,0,0.2,0,0.3c0,0.1,0.1,0.2,0.1,0.3c0.1,0.1,0.1,0.2,0.2,0.2
	c0.1,0.1,0.2,0.1,0.3,0.1c0.1,0,0.2,0,0.3,0c0.1,0,0.2-0.1,0.3-0.1c0.1-0.1,0.2-0.1,0.2-0.2c0.1-0.1,0.1-0.2,0.1-0.3
	c2.6-2.3,5.5-4.3,8.7-5.9c3.9,4.9,4.5,5.5,7.9,9.6c0.2,0.2,0.5,0.4,0.7,0.4c0.3,0,0.6,0,0.8-0.2c7.5-4.3,14.3-9.8,19.9-16.3
	C289,117,289.1,116.7,289.1,116.4z M260,121.5c-0.2,0-0.5,0-0.7,0.1c-2.8,1.4-5.3,3.1-7.6,5.2c1.8-4.5,4.7-8.5,8.5-11.7L260,121.5z
	 M268.6,131c-8-9.3-7.3-8.3-7-8.4c7.1-2,13.7-5.4,19.5-9.8l5.1,3.8C281.1,122.3,275.1,127.1,268.6,131z"/>
<path class="st1" d="M207.8,148.8c-1.3,1.7-2.5,3.5-3.6,5.4c-3.8,6.8-6.7,15.8-4.3,23.1c0.7,1.9,1.7,3.6,3,5.2
	c0.1,0.1,0.1,0.2,0.2,0.2c0.1,0.1,0.2,0.1,0.3,0.1c0.1,0,0.2,0,0.3,0c0.1,0,0.2-0.1,0.3-0.1c0.1-0.1,0.2-0.1,0.2-0.2
	c0.1-0.1,0.1-0.2,0.1-0.3c0-0.1,0-0.2,0-0.3c0-0.1-0.1-0.2-0.1-0.3c-0.9-1.5-1.6-3.2-2-4.9c-2-7.3,0.7-14.5,4.1-21.5
	c0.4-0.8,2.2-4.6,2.7-5.7c0-0.1,0.1-0.2,0.1-0.3c0-0.1,0-0.2,0-0.3c0-0.1-0.1-0.2-0.1-0.2s-0.1-0.1-0.2-0.2c-0.1,0-0.2-0.1-0.3-0.1
	c-0.1,0-0.2,0-0.3,0c-0.1,0-0.2,0.1-0.3,0.1C207.9,148.7,207.8,148.7,207.8,148.8z"/>
<path class="st1" d="M214.2,152.7c-2.6,4.1,0.5,7.4,1.4,11.1c0.5,1.9,0.2,4-0.6,5.8c-0.3,0.9-0.7,1.7-1.1,2.5
	c-0.1,0.2-0.1,0.4-0.1,0.6c0,0.2,0.2,0.4,0.3,0.5c0.2,0.1,0.4,0.1,0.6,0.1c0.2,0,0.4-0.1,0.5-0.3c0.7-0.8,1.3-1.6,1.8-2.5
	c1.2-2.2,1.6-4.8,1-7.2c-0.8-3.1-3.4-6.8-2.5-10c0.1-0.2,0.1-0.4,0-0.5c-0.1-0.2-0.2-0.3-0.4-0.4c-0.2-0.1-0.4-0.1-0.5,0
	C214.4,152.4,214.3,152.5,214.2,152.7z"/>
<path class="st1" d="M221.9,164.7c0,0.3,0,1.2,0.1,1.5c0.2,1.1,0.3,2.2,0.2,3.3c-0.1,1.1-0.4,2.2-0.9,3.2c-0.1,0.5-0.3,0.9-0.5,1.4
	c-0.1,0.1-0.1,0.2-0.1,0.3c0,0.1,0,0.2,0,0.3c0,0.1,0,0.2,0.1,0.3c0.1,0.1,0.1,0.2,0.2,0.2c0.1,0.1,0.2,0.1,0.3,0.1
	c0.1,0,0.2,0,0.3,0c0.1,0,0.2,0,0.3-0.1c0.1-0.1,0.2-0.1,0.2-0.2c0.5-0.4,0.9-0.8,1.3-1.3c1.2-2.1,1.7-4.5,1.2-6.9
	c-0.1-1-0.6-2-1.3-2.7c0-0.1-0.1-0.2-0.2-0.2c-0.1-0.1-0.1-0.1-0.2-0.2c-0.1,0-0.2-0.1-0.3-0.1c-0.1,0-0.2,0-0.3,0.1
	c-0.1,0-0.2,0.1-0.2,0.2c-0.1,0.1-0.1,0.1-0.2,0.2s-0.1,0.2-0.1,0.3C221.8,164.5,221.9,164.6,221.9,164.7L221.9,164.7z"/>
<path class="st1" d="M231.4,157.2c12.1,7.4,14.2,6.9,27.2,20c0.1,0.1,0.3,0.2,0.5,0.2c0.2,0,0.4,0,0.6-0.2c0.2-0.1,0.3-0.3,0.3-0.5
	c0-0.2,0-0.4-0.1-0.5c-1.1-1.5-2.1-2.8-3.2-4c-6.7-7.2-15.2-12.8-24.6-16.2c-0.2-0.1-0.4-0.1-0.5,0c-0.2,0.1-0.3,0.2-0.4,0.3
	c-0.1,0.2-0.1,0.3-0.1,0.5C231.1,157,231.2,157.1,231.4,157.2z"/>
<path class="st1" d="M257.9,165.6c0.4,0.2,1.6,1.1,1.8,1.2c2.9,1.6,5.3,4,6.8,6.9c0.4,0.6,0.8,1.2,1.2,1.8c0.1,0.2,0.2,0.3,0.4,0.4
	c0.2,0.1,0.4,0.1,0.6,0s0.4-0.2,0.4-0.4c0.1-0.2,0.1-0.4,0-0.6c-0.5-2.6-1.8-5-3.8-6.8c-1.3-1.4-2.9-2.5-4.6-3.3
	c-0.8-0.3-1.6-0.5-2.4-0.6c-0.2-0.1-0.4-0.1-0.6,0c-0.2,0.1-0.3,0.2-0.4,0.4c-0.1,0.2-0.1,0.4,0,0.5
	C257.6,165.4,257.7,165.5,257.9,165.6z"/>
<path class="st1" d="M265.7,163.2c0.3,0.3,0.7,0.6,1.1,0.9c0.9,0.5,1.8,1.1,2.6,1.7c0.8,0.6,1.5,1.3,2.1,2.1c0.3,0.3,0.7,0.6,1,0.9
	c0.1,0.2,0.3,0.3,0.5,0.3c0.2,0,0.4,0,0.6-0.1c0.2-0.1,0.3-0.2,0.4-0.4c0.1-0.2,0.1-0.4,0-0.6c-0.1-0.5-0.3-1-0.5-1.5
	c-1.1-1.7-2.7-3.1-4.6-4c-0.8-0.5-1.6-0.7-2.5-0.7c-0.2-0.1-0.4-0.1-0.5,0c-0.2,0.1-0.3,0.2-0.4,0.4c-0.1,0.2-0.1,0.3,0,0.5
	S265.6,163.1,265.7,163.2z"/>
<path class="st1" d="M271.9,160.3c0.2,0.2,0.9,0.9,1.2,1.2c1,0.7,2,1.5,2.9,2.4c0.8,0.9,1.6,1.9,2.2,2.9c0.3,0.4,0.7,0.8,1,1.3
	c0.1,0.2,0.2,0.3,0.4,0.4c0.2,0.1,0.4,0.1,0.6,0c0.2-0.1,0.4-0.2,0.4-0.4c0.1-0.2,0.1-0.4,0-0.6c-0.3-2-1.3-3.9-2.9-5.2
	c-1-1-2.1-1.9-3.4-2.6c-0.6-0.2-1.2-0.4-1.8-0.6c-0.2-0.1-0.4-0.1-0.5,0c-0.2,0.1-0.3,0.2-0.4,0.3c-0.1,0.2-0.1,0.3-0.1,0.5
	C271.6,160,271.7,160.2,271.9,160.3z"/>
<path class="st1" d="M234.4,196.5c6,2.6,10.4,4.5,17.3,5.5c18.1,2.5,35.4-4.2,48.6-14.9c3.3-2.7,6.3-5.7,9.2-8.8
	c0.1-0.1,0.2-0.3,0.2-0.5c0-0.2-0.1-0.4-0.3-0.5c-0.2-0.1-0.4-0.2-0.6-0.2c-0.2,0-0.4,0.1-0.6,0.2c-3,2.9-6.1,5.6-9.5,8.1
	c-21.1,16.1-41.2,18.5-63.9,9.9c-0.2-0.1-0.4-0.1-0.6,0c-0.2,0.1-0.3,0.2-0.4,0.4c-0.1,0.2-0.1,0.4,0,0.5
	C234.1,196.3,234.2,196.4,234.4,196.5z"/>
<path class="st0" d="M205.3,192.8c-0.9,0-1.7,0.2-2.4,0.6c-0.7,0.4-1.4,1-1.8,1.7c-1.2,2.2,1.1,4.2,3.6,4.9
	c5.5,1.6,22.9,0.7,28.5-1.6c4.4-1.8,2.4-5.5-1.9-6.5c-0.1,0-0.2,0-0.3,0c-0.1,0-0.2,0-0.3,0.1s-0.2,0.1-0.2,0.2
	c-0.1,0.1-0.1,0.2-0.1,0.3c0,0.1,0,0.2,0,0.3c0,0.1,0,0.2,0.1,0.3c0,0.1,0.1,0.2,0.2,0.2c0.1,0.1,0.2,0.1,0.3,0.1
	c0.9,0.3,2.7,1.4,2.7,2.2c0,0,0,0.1-0.1,0.1c-0.8,1-6.8,1.9-8.1,2.1c-3.8,0.4-15.5,1.3-20,0.1c-0.7-0.2-1.3-0.4-1.8-0.8
	c-0.4-0.3-0.6-0.5-0.7-0.8c0-0.9,1.6-1.8,2.6-1.9c0.2,0,0.3-0.1,0.5-0.3c0.1-0.1,0.2-0.3,0.1-0.5c0-0.2-0.1-0.3-0.2-0.5
	C205.7,192.9,205.5,192.8,205.3,192.8z"/>
<path class="st1" d="M189,205c-5.6-3.6-10.1-6.9-16.3-11.3c-0.1-0.1-0.3-0.2-0.4-0.2c-0.2,0-0.3,0-0.5,0c-1.8,0.5-3.5,1.1-5.2,1.7
	c-0.2,0-0.3,0.1-0.4,0.3s-0.1,0.3-0.1,0.4c-4.1-2.8-3.9-3-4.6-2.9c-8.9,0.8-17.8,2.3-26.5,4.4c-0.2,0-0.4,0.1-0.5,0.3
	c-0.1,0.1-0.3,0.3-0.3,0.5c-0.1,0.2-0.1,0.4,0,0.6c0.1,0.2,0.2,0.4,0.3,0.5c4.1,3.8,5.6,6,10.2,9.8c0.1,0.1,0.3,0.2,0.5,0.2
	c0.2,0,0.4-0.1,0.5-0.2c0.1-0.1,0.2-0.3,0.2-0.5c0-0.2-0.1-0.4-0.2-0.5c-2.4-2.1-5.9-6.6-8.2-8.9c7.8-1.7,15.8-2.9,23.8-3.7
	c4.2,3.1,8.3,5.8,12.7,8.6c-4.8,1.1-17.1,3.4-25.2,5.3c-0.2,0-0.4,0.2-0.5,0.3c-0.1,0.2-0.2,0.4-0.1,0.6c0,0.2,0.2,0.4,0.3,0.5
	c0.2,0.1,0.4,0.1,0.6,0.1c10.7-1.9,17.1-2.6,28.2-5.2c0.2-0.1,0.4-0.2,0.6-0.3c0.2-0.2,0.3-0.4,0.3-0.6c0.2-1.3-0.7-0.9-11.1-8.1
	c0.2,0,1.9-0.5,4.7-1c4,3.3,9.6,7.2,13.8,10c-7.5,2.3-8.6,2.2-16.3,4.6l-1.4-1.3c-0.1-0.1-0.4-0.2-0.6-0.2c-0.2,0-0.4,0.1-0.6,0.2
	c-0.1,0.1-0.2,0.3-0.2,0.5s0.1,0.4,0.2,0.5l1.6,1.8c0.1,0.1,0.3,0.2,0.4,0.3c0.2,0,0.4,0.1,0.5,0c6.6-1.4,13-3.1,19.4-5.1
	c0.2-0.1,0.4-0.2,0.5-0.4c0.1-0.2,0.2-0.4,0.3-0.6c0-0.2,0-0.4-0.1-0.6C189.3,205.3,189.1,205.1,189,205z"/>
<path class="st1" d="M199.9,190c-5.5-1.1-11-1.9-16.6-2.3c-16.8-0.9-33.7,0.5-50.1,4.1c-6.9,1.6-23.9,5.2-22.7,11.5
	c0.7,3.5,7.1,5.8,10.9,6.5c5.6,0.7,11.2,0.9,16.8,0.7c0.2,0,0.4-0.1,0.6-0.2c0.2-0.1,0.2-0.3,0.2-0.5c0-0.2-0.1-0.4-0.2-0.5
	c-0.1-0.1-0.4-0.2-0.6-0.2c-5.5,0-11-0.4-16.4-1.3c-2.6-0.6-8.5-2.6-9-4.9c-1.2-6.2,49.6-17.4,86.8-11.5c0.2,0,0.4,0,0.5-0.1
	c0.2-0.1,0.3-0.3,0.3-0.4c0-0.2,0-0.4-0.1-0.5C200.2,190.1,200.1,190,199.9,190z"/>
<path class="st1" d="M189.1,209.5c12.7-0.1,25.4-1.3,37.9-3.5c2.6-0.5,10.5-0.4,12.9-4.2c0.1-0.2,0.2-0.4,0.1-0.6
	c0-0.2-0.2-0.4-0.3-0.5s-0.4-0.1-0.6-0.1s-0.4,0.2-0.5,0.3c-1.2,1.7-5.2,2-7.3,2.2c-7.5,0.7-6.1,1-15.9,2.2
	c-12.7,1.5-13.6,0.9-26.4,2.7c-0.2,0-0.4,0.1-0.5,0.2c-0.1,0.1-0.2,0.3-0.2,0.5c0,0.2,0.1,0.4,0.3,0.5S188.9,209.5,189.1,209.5z"/>
<path class="st0" d="M316.3,127.8c4.4,0.4,8.7,1.9,12.4,4.3c14.4,9.6,11.9,33.3,8.1,49.6c-0.9,4.1-2.4,10.2-3.8,14.3
	c-0.1,0.2,0,0.4,0.1,0.6c0.1,0.2,0.3,0.3,0.5,0.4c0.2,0.1,0.4,0.1,0.6,0c0.2-0.1,0.3-0.2,0.4-0.4c1.8-4.7,3.4-9.4,4.6-14.2
	c4.2-17.2,6.3-42.2-9.1-51.9c-4.1-2.4-8.8-3.7-13.6-3.8c-0.2,0-0.4,0.1-0.5,0.2c-0.1,0.1-0.2,0.3-0.2,0.5c0,0.2,0,0.4,0.2,0.5
	C315.9,127.7,316.1,127.8,316.3,127.8z"/>
<path class="st1" d="M60.1,187.5c-1.5,3.2-2.7,6.4-3.7,9.8c-0.2,0.9-0.6,2.7,0.3,3c0.7,0.2,1-0.3,1.8-2c0.5-1.1,2.2-6.1,2.7-7.2
	c0.4-0.9,0.7-1.9,0.8-2.9c0.1-0.9,0.4-1.7-0.3-1.9C61,186,60.7,186.6,60.1,187.5z"/>
<path class="st0" d="M236.6,185c-0.2-1.2-0.8-2.4-1.8-3.2c-1-0.8-2.3-1.2-3.6-1.2c-1,0.1-2,0.3-2.9,0.6c0-0.4-0.1-0.8-0.1-1.1
	c0.2-0.1,0.3-0.2,0.4-0.3c0.1-0.2,0.1-0.3,0.1-0.5c0-0.2-0.1-0.3-0.3-0.5c-0.1-0.1-0.3-0.2-0.5-0.2c-14.4-0.2-7.9,0.1-20.3,0.3
	c-0.3,0-0.6,0.1-0.8,0.3c-0.2,0.2-0.4,0.4-0.4,0.7c-0.8,4.6-0.8,9.9,2.1,13.6c3.8,4.7,13.9,4.8,17.9,0.1c0.7-0.9,1.3-1.9,1.6-2.9
	c0.6,0.1,1.3,0.2,2,0.2C234.4,191.1,237,188.3,236.6,185z M213.3,192.3c-0.7,0.6-1.9-0.7-2.4-1.3c-1.4-2.3-2-4.9-1.8-7.6
	c0.1-0.5,0.4-2.3,1.3-2.2c0.8,0.1,1,1.6,1.1,2.6c0,2.1,0.5,4.2,1.5,6.1C213.6,191.5,213.8,191.9,213.3,192.3z M233.3,187.7
	c-1.1,1-2.9,1-4.9,1.2c0.3-2.1,0.3-4.1,0-6.2c1.4-0.1,2.9,0,4.3,0.4c0.4,0.2,0.7,0.5,1,0.9c0.3,0.4,0.4,0.8,0.5,1.2
	c0.1,0.4,0,0.9-0.1,1.3C233.9,187,233.6,187.4,233.3,187.7L233.3,187.7z"/>
<path class="st1" d="M72.4,66.2c-0.5-1-1.2-2-2.1-2.7c-0.9-0.7-2-1.2-3.2-1.3c-1.2-0.2-2.4-0.1-3.5,0.3c-1.1,0.4-2.1,1-2.9,1.9
	c-1.9-0.8-4.2-0.9-6.1-0.1c-2,0.7-3.6,2.2-4.5,4c-5.3-0.2-9.9,4.8-8.2,9.6c-1.1,0.6-2.1,1.5-2.8,2.5s-1.2,2.1-1.5,3.3
	c-0.2,1.2-0.2,2.4,0.1,3.6c0.3,1.2,0.9,2.3,1.7,3.2c-2.2,4.4-1.4,10.9,3.6,12.4c-0.1,1.4,0.3,2.8,1.2,3.9c0.9,1.1,2.2,1.9,3.6,2.1
	c0.2,1.3,0.8,2.6,1.9,3.4c1.1,0.9,2.4,1.4,3.8,1.4c0.9,3.1,4.3,4.9,6.9,3c1-0.7,1.6-1.8,1.9-2.9c0.3-1.2,0.1-2.4-0.4-3.4
	c0.9-1,1.4-2.3,1.4-3.6c0-1.3-0.5-2.6-1.4-3.6c0.2-2.4-1.4-3.5-2.9-2.7c-0.1,0-0.2,0-0.4,0.1c-7.7,3-7-10.2,0.4-5.9
	c1.7,1,3.3,0,3.5-2c0.2-1.3-0.1-2.6-0.8-3.8c1-1.1,1.6-2.4,1.7-3.8c0.1-1.4-0.2-2.8-1-4c1.2-0.6,2.2-1.6,2.9-2.7
	c0.7-1.1,1-2.4,1-3.7C70.5,73.8,74,70.1,72.4,66.2z M49.1,74.3c-0.7,0.9-1.3,1.9-1.7,3c-0.9,2.8,0.5,3.6-0.6,4.4
	c-0.6,0.4-1,1-1.4,1.6c-0.3,0.6-0.5,1.3-0.6,2c-0.1,0.7-0.2,1.3-0.3,2c0,0.1,0,0.2,0,0.3c0,0.1-0.1,0.2-0.1,0.2
	c-0.1,0.2-0.3,0.3-0.5,0.3c-0.2,0-0.4,0-0.5-0.1c-0.2-0.1-0.3-0.3-0.3-0.4c-0.3-0.7-0.5-1.5-0.6-2.3c0-0.9,0.2-1.8,0.6-2.6
	c0.4-0.8,0.9-1.6,1.6-2.2c-0.3-1.9,0.2-3.9,1.3-5.5c0.6-0.7,1.3-1.3,2.1-1.8c0.2-0.1,0.4-0.2,0.6-0.1c0.2,0,0.4,0.1,0.5,0.3
	c0.1,0.1,0.2,0.3,0.2,0.5C49.3,74,49.2,74.2,49.1,74.3z M53.4,71.5c-2,1.2-1.6-2.2,1-2.8c0.4-0.1,0.9-0.1,1.1,0.2
	C56.1,69.6,54.2,70.9,53.4,71.5z"/>
<path class="st1" d="M280.8,69.5c-0.3-4.6-5.4-10.5-15.7-11.4c-8.6-0.7-14.6,1.8-24.2-2.3c-0.2-0.1-0.5-0.1-0.8-0.1
	c-0.3,0.1-0.5,0.2-0.7,0.4c-0.2,0.2-0.3,0.5-0.3,0.7c0,0.3,0.1,0.5,0.2,0.7c1.3,1.7,2.7,3.2,4.4,4.5c-1.5-0.1-2.9-0.3-4.4-0.4
	c-0.2,0-0.5,0-0.7,0.2c-0.2,0.1-0.4,0.3-0.5,0.5c-0.1,0.2-0.1,0.5-0.1,0.7c0,0.2,0.2,0.5,0.3,0.6c5.5,5.2,12.9,8.3,20.7,8.7
	c2.9,0.2,1.7-0.2-0.5,0.8c-0.9,0.3-1.6,0.9-2,1.7c-0.3,0.8-0.6,1.7,0.2,2c1,0.3,1.8-1,2.9-1.6c2.7-1.4,5.1,0,5.5-1.2
	c0.2-0.5-0.5-1.4-2-1.7c2.3-0.1,4.6-0.3,6.8-0.6c0.1,1.9,0.9,3.7,2.1,5.2c1.2,1.5,2.8,2.7,4.7,3.3c1.5,0.5,3.8,0.1,4.9,0.7
	c0.3,0.2,0.5,0.4,0.6,0.7c0.2,0.3,0.2,0.6,0.2,0.9c0.1,2.8-3.8,3.9-6.6,4.1c-0.2,0-0.4,0.1-0.6,0.2c-0.2,0.1-0.3,0.3-0.3,0.5
	c-1,5.1-2.4,10.2-4.1,15.2c0,0.1-0.1,0.2,0,0.3c0,0.1,0,0.2,0.1,0.3s0.1,0.2,0.2,0.2c0.1,0.1,0.2,0.1,0.3,0.1c0,1.1,0.3,2.1,0.8,3.1
	c0.6,1.5,2.4,6.2,3.9,5.5c1.2-0.6-0.6-3.8-1.4-5.6c-0.4-1.4-1-2.8-1.8-4.1c7.1-6,11.8-12.2,13.7-20.9
	C287.6,75.7,286.7,70.9,280.8,69.5z M266.6,63.4c-1.2,0-8.5,0.6-11.9,0.3c-1.9-0.1-3.7-0.7-5.2-1.8c-0.2-0.1-0.3-0.2-0.4-0.4
	c-0.1-0.2,0-0.4,0.1-0.5c0.1-0.2,0.2-0.3,0.4-0.3c0.2-0.1,0.4,0,0.6,0.1c0.4,0.1,0.8,0.2,1.2,0.3c7,1.4,10.5-0.5,15.5,1
	c0.2,0,0.4,0.1,0.5,0.3c0.1,0.2,0.2,0.4,0.1,0.6c0,0.2-0.2,0.4-0.3,0.5C267,63.4,266.8,63.4,266.6,63.4z M271.6,64.2
	c-0.8-0.3-1.3-0.5-1.8-0.7c-0.2-0.1-0.3-0.2-0.4-0.3c-0.1-0.2-0.1-0.3-0.1-0.5c0.1-0.2,0.2-0.3,0.3-0.4c0.2-0.1,0.4-0.1,0.5-0.1
	c0.7,0.2,1.4,0.4,2,0.7c0.2,0.1,0.3,0.2,0.4,0.4c0.1,0.2,0.1,0.4,0,0.6c-0.1,0.2-0.2,0.3-0.4,0.4C272,64.2,271.8,64.2,271.6,64.2z"
	/>
<path class="st0" d="M94.6,35.1c-0.4,0.2-0.8,0.5-1,0.9c-0.2,0.4,0.6,0.8,1.1,1C94.7,36.5,94.6,35.3,94.6,35.1z"/>
<path class="st0" d="M97.4,40c0,0.7,0.1,2.6,0.1,2.8c0.7-0.1,1.4-0.4,1.4-1.1C99,40.8,98.2,40.2,97.4,40z"/>
<path class="st0" d="M207.4,27.7c-1.7-1.6-3.8-2.7-6-3.3c-2.3-0.6-4.7-0.6-7,0c-0.2,0.1-0.4,0.2-0.6,0.3c-0.2,0.2-0.3,0.4-0.3,0.6
	c0,0.2,0,0.4,0.1,0.7c0.1,0.2,0.2,0.4,0.4,0.5c1.7,1.2,3,2.8,4,4.5c1,1.8,1.6,3.7,1.8,5.7c1-0.4,3.5,2.2,2.9,4.9
	c-0.1,0.7-0.6,1.3-1.2,1.7c-0.6,0.4-1.4,0.6-2.1,0.5c-0.2,0-0.4-0.1-0.6-0.1c-0.7,1.5-1.8,2.8-3.1,3.8c-0.2,0-0.4-0.1-0.6-0.1
	c-0.2,0-0.4,0-0.6,0.1c-0.2,0.1-0.3,0.3-0.4,0.5c0,0.2,0,0.4,0.1,0.6c0.1,0.2,0.3,0.3,0.5,0.3C208.1,52.2,216.9,36.7,207.4,27.7z
	 M202.7,31.6c0,0.2-0.1,0.4-0.3,0.5c-0.2,0.1-0.4,0.2-0.6,0.2c-0.7,0-1.5-0.1-2.1-0.1c-0.2,0-0.4-0.1-0.5-0.2
	c-0.1-0.1-0.2-0.3-0.2-0.5c0-0.2,0.1-0.4,0.2-0.5c0.1-0.1,0.3-0.2,0.5-0.2c0.6,0,1.5,0,2.2,0c0.1,0,0.2,0,0.3,0.1
	c0.1,0,0.2,0.1,0.2,0.2c0.1,0.1,0.1,0.2,0.2,0.3C202.7,31.4,202.7,31.5,202.7,31.6z"/>
<path class="st0" d="M200,38.2c0,1.4-0.1,2.7-0.5,4C201.1,41.8,201,39.7,200,38.2z"/>
<path class="st0" d="M108.2,33.5c-1.2-2-2.9-3.7-5-4.8c-2.1-1.2-4.5-1.8-6.9-1.8c-2.4,0-4.8,0.6-6.9,1.8c-2.1,1.2-3.8,2.8-5,4.8
	c-1.1,2-1.6,4.1-1.5,6.3c0.1,2.2,0.8,4.3,2,6.2c1.2,1.9,2.9,3.4,4.9,4.5c2,1.1,4.3,1.6,6.6,1.6c2.3,0,4.6-0.6,6.6-1.6
	c2-1.1,3.7-2.6,4.9-4.5c1.2-1.9,1.9-4,2-6.2C109.8,37.6,109.3,35.4,108.2,33.5z M101.3,41.8c-0.1,0.9-0.5,1.8-1.2,2.3
	c-0.7,0.6-1.7,0.9-2.6,0.9c-0.1,0.7-0.2,1.3-0.3,1.9c0,0.2-0.1,0.4-0.2,0.5c-0.1,0.1-0.4,0.2-0.6,0.2s-0.4-0.1-0.6-0.2
	c-0.1-0.1-0.2-0.3-0.2-0.5c-0.1-0.8-0.2-1.2-0.4-2.1c-0.8-0.1-1.5-0.3-2.2-0.5c-0.1,0-0.2,0-0.3-0.1c-0.1,0-0.2-0.1-0.2-0.2
	c-0.1-0.1-0.1-0.2-0.1-0.3c0-0.1,0-0.2,0-0.3c0-0.1,0-0.2,0.1-0.3c0.1-0.1,0.1-0.2,0.2-0.2c0.1-0.1,0.2-0.1,0.3-0.1
	c0.1,0,0.2,0,0.3,0c0.6,0,1.2,0,1.9,0c-0.1-1.2-0.2-2.3-0.3-3.5c-5.5-1.3-4.2-5.9-0.1-6.6c0.1-0.7,0.2-1.3,0.4-2
	c0-0.1,0-0.2,0.1-0.3s0.1-0.2,0.2-0.2c0.1-0.1,0.2-0.1,0.2-0.1c0.1,0,0.2,0,0.3,0s0.2,0,0.3,0.1c0.1,0,0.2,0.1,0.2,0.2
	s0.1,0.1,0.1,0.2c0,0.1,0,0.2,0,0.3c0.1,0.7,0.2,1.3,0.3,1.9c0.3,0,0.6,0.1,0.9,0.2c0.2,0,0.4,0.1,0.5,0.3c0.1,0.1,0.2,0.3,0.2,0.5
	c0,0.2-0.1,0.3-0.3,0.5c-0.2,0.1-0.3,0.2-0.5,0.1c-0.2,0-0.4,0-0.6,0l0.2,3.1C100.3,38.2,101.5,40,101.3,41.8z"/>
<path class="st0" d="M182.2,33.1c-0.4,0.2-0.8,0.5-1,0.9c-0.2,0.4,0.6,0.8,1.1,1C182.3,34.6,182.2,33.3,182.2,33.1z"/>
<path class="st0" d="M184.9,38c0,0.7,0.1,2.6,0.1,2.8c0.7-0.1,1.4-0.4,1.4-1.1C186.5,38.8,185.8,38.3,184.9,38z"/>
<path class="st0" d="M195.8,31.5c-1.2-2-2.9-3.7-5-4.8c-2.1-1.2-4.5-1.8-6.9-1.8s-4.8,0.6-6.9,1.8c-2.1,1.2-3.8,2.8-5,4.8
	c-1.1,2-1.6,4.1-1.5,6.3c0.1,2.2,0.8,4.3,2,6.2c1.2,1.9,2.9,3.4,4.9,4.5c2,1.1,4.3,1.6,6.6,1.6s4.6-0.6,6.6-1.6
	c2-1.1,3.7-2.6,4.9-4.5c1.2-1.9,1.9-4,2-6.2C197.4,35.6,196.9,33.4,195.8,31.5z M185.1,43c-0.1,0.7-0.2,1.3-0.3,1.9
	c0,0.2-0.1,0.4-0.2,0.5c-0.2,0.1-0.4,0.2-0.6,0.2c-0.2,0-0.4-0.1-0.6-0.2c-0.2-0.1-0.2-0.3-0.2-0.5c-0.1-0.8-0.2-1.2-0.4-2.1
	c-0.8-0.1-1.5-0.3-2.2-0.5c-0.1,0-0.2,0-0.3-0.1c-0.1,0-0.2-0.1-0.2-0.2c-0.1-0.1-0.1-0.2-0.1-0.3c0-0.1,0-0.2,0-0.3
	c0-0.1,0-0.2,0.1-0.3c0.1-0.1,0.1-0.2,0.2-0.2c0.1-0.1,0.2-0.1,0.3-0.1c0.1,0,0.2,0,0.3,0c0.6,0,1.2,0,1.9,0
	c-0.1-1.2-0.2-2.3-0.3-3.5c-5.5-1.3-4.2-5.9-0.1-6.6c0.1-0.7,0.2-1.3,0.4-2c0-0.2,0.1-0.3,0.2-0.5c0.1-0.1,0.3-0.2,0.5-0.2
	c0.2,0,0.4,0.1,0.5,0.2c0.1,0.1,0.2,0.3,0.2,0.5c0.1,0.7,0.2,1.3,0.3,1.9c0.3,0,0.6,0.1,0.9,0.2c0.2,0,0.4,0.1,0.5,0.3
	c0.1,0.1,0.2,0.3,0.2,0.5c0,0.2-0.1,0.3-0.3,0.5s-0.3,0.2-0.5,0.1c-0.2,0-0.4,0-0.6,0l0.2,3.1c0.9,0.2,1.8,0.5,2.5,1.1
	c0.7,0.4,1.2,1.1,1.4,1.8c0.3,0.7,0.3,1.5,0,2.2c-0.3,0.7-0.8,1.4-1.4,1.8C186.7,42.9,185.9,43.1,185.1,43z"/>
<path class="st0" d="M157.7,37.2c1.7,0.2,3.4,0.3,5.1,0.1c2.2-0.4,2.7-1.8-0.1-2.2c-0.7-0.1-1.5-0.1-2.2-0.1c-0.7,0-1.5-0.1-2.2-0.1
	c-0.7,0-2.1,0.2-2.2,0.9C155.9,36.6,157.5,37.2,157.7,37.2z"/>
<path class="st0" d="M158,41.7c0.4,0,3.2-0.1,4.1-0.2c0.8-0.1,2.2-0.4,2.1-1.2c0-0.8-1.6-1-2-1.1c-1.5,0-2.9,0-4.4,0.2
	c-0.2,0.1-1.8,0.6-1.7,1.3C156.3,41.4,157.9,41.7,158,41.7z"/>
<path class="st0" d="M114.7,36.7c0,0.5,0,1,0,1.4c0,1-0.1,3.7,1.3,3.7c1.4,0,1.2-3.5,1.2-4.8c0-1-0.5-2.5-1.2-2.5
	C115.3,34.6,114.8,35.8,114.7,36.7z"/>
<path class="st0" d="M114.1,39.3c0.3,0,1.8,0,2.2,0c0.7,0,1.5,0,2.2-0.1c0.2,0,1.8-0.4,1.7-1.1c0-0.7-1.6-1.1-1.9-1.1
	c-1.5-0.2-6.1-0.1-5.9,1.4C112.4,38.9,113.9,39.2,114.1,39.3z"/>
<path class="st0" d="M145,49.6c-0.4,0-0.8-0.1-1.2-0.1c-1.4-4-3.1-7.8-5-11.6c2-3.5,3.6-7.2,4.7-11.1c0.6-0.1,1.1-0.2,1.7-0.3
	c0.2,0,0.4-0.1,0.6-0.3c0.1-0.2,0.2-0.3,0.2-0.5c0-0.2-0.1-0.4-0.3-0.5c-0.2-0.1-0.4-0.2-0.6-0.2c-1.5-0.1-2.9-0.2-4.4-0.2
	c-0.5,0-12.2,0.3-14.9,0.7c-0.5,0.1-1,0.2-1.6,0.3c-0.2,0-0.4,0.1-0.5,0.2c-0.1,0.1-0.2,0.3-0.2,0.5c0,0.2,0.1,0.4,0.2,0.5
	c0.1,0.1,0.3,0.2,0.5,0.2c0.5,0.1,1,0.1,1.6,0.2c0.4,0,0-0.2,0.9,2.2c1.1,2.7,2.5,5.4,4.1,7.9c-2.5,3.8-4.6,7.8-6.2,12
	c-0.7,0.1-1.5,0.2-2.2,0.3c-0.2,0-0.4,0.1-0.5,0.2c-0.1,0.1-0.2,0.3-0.2,0.5c0,0.2,0.1,0.4,0.2,0.5c0.1,0.1,0.3,0.2,0.5,0.2
	c1.1,0.1,2.4,0.4,4,0.4c5.6,0.3,11.1,0.2,16.7-0.2c0.6-0.1,1.2-0.2,1.8-0.3c0.2,0,0.4-0.1,0.5-0.3c0.1-0.1,0.2-0.3,0.2-0.5
	c0-0.2-0.1-0.4-0.2-0.5C145.4,49.7,145.2,49.6,145,49.6z M141.4,49.3c-0.6,0-1.2,0-1.8,0c-1.4-2.4-2.8-3.9-4.2-6.1
	c-0.1-0.2-0.3-0.3-0.4-0.4c-0.2-0.1-0.4-0.1-0.6-0.2c-0.2,0-0.4,0-0.6,0.1c-0.2,0.1-0.3,0.2-0.5,0.4c-1.5,1.9-2.7,3.9-3.7,6.1
	c-1.5,0-2.2,0-2.9,0c1.1-1.6,3.4-6.6,6.5-11.2c0.1-0.2,0.2-0.4,0.2-0.6c0-0.2-0.1-0.4-0.2-0.6c-3.1-5.1-2.7-4.9-5.4-9.4
	c2.1,0,10.8-0.2,13.4-0.4c-2.2,4.1-2.7,5.9-5.2,10.3c-0.1,0.2-0.1,0.3-0.1,0.5c0,0.2,0,0.4,0.1,0.5c1.5,2.8,2.7,5.7,4.1,8.5
	C141.8,49.7,142.1,49.4,141.4,49.3z"/>
<path class="st0" d="M136.8,31.3c0-0.2-0.1-0.4-0.2-0.5c-0.1-0.1-0.3-0.2-0.5-0.2c-0.9-0.3-1.8-0.5-2.7-0.5c-0.2,0-0.4,0-0.6,0.1
	c-0.2,0.1-0.3,0.2-0.4,0.3c-0.1,0.1-0.2,0.3-0.2,0.5c0,0.2,0,0.4,0,0.5c0.4,1.4,1,2.8,1.8,4c0.1,0.2,0.3,0.3,0.5,0.4
	c0.2,0.1,0.4,0.1,0.7,0.1c0.2,0,0.4-0.1,0.6-0.3c0.2-0.1,0.3-0.3,0.4-0.5C136.6,34,136.8,32.6,136.8,31.3z"/>
</svg>
