<svg width="200" height="236" viewBox="0 0 200 236" fill="none" xmlns="http://www.w3.org/2000/svg">
<path d="M182.485 214.85C182.115 223.124 184.585 229.793 169.641 231.769C158.403 233.251 152.104 232.51 123.082 233.622C24.6521 237.203 27.9866 236.956 23.7876 214.232C21.3176 200.647 22.0586 198.548 22.0586 192.002C22.0586 173.23 19.5886 157.546 23.1701 126.177C24.0346 118.52 38.3606 119.384 45.2766 117.779C52.8101 116.05 70.7176 115.926 73.5581 115.432C76.2751 115.062 77.2631 116.173 78.3746 118.396C83.5616 129.264 81.2151 137.045 87.2666 137.292C138.89 140.256 164.454 131.981 177.175 140.626C182.856 144.578 180.139 160.386 182.238 179.282C182.115 184.345 183.226 197.93 182.485 214.85ZM167.912 157.916C169.641 157.546 170.753 156.311 170.506 154.582C169.271 146.554 169.765 145.813 165.195 146.431C131.85 151.124 122.341 146.554 121.847 150.753C121.229 155.446 120.118 159.028 124.811 159.151C138.149 159.645 155.192 160.139 167.912 157.916ZM166.06 169.155C167.789 169.278 169.641 166.438 168.53 164.709C167.789 163.721 165.936 162.98 164.825 163.227C163.837 163.474 162.108 165.326 161.984 166.191C161.614 168.29 164.084 169.031 166.06 169.155Z" fill="#F07D29"/>
<path d="M4.64498 99.8713C4.89198 97.8953 5.87998 96.9073 7.73248 96.4133C15.3895 94.3138 50.093 94.5608 52.316 95.3018C54.045 95.9193 54.9095 96.9073 55.033 98.7598C55.033 99.3773 54.786 99.5008 54.292 99.7478C39.8425 105.182 34.9025 104.564 35.8905 108.516C36.261 110.245 36.261 112.098 37.002 113.827C37.6195 115.309 21.688 115.185 19.712 123.213C16.007 138.65 16.995 166.685 17.8595 182.493C18.6005 195.831 19.218 194.843 17.242 194.596C10.4495 193.855 6.86798 194.719 4.27448 189.162C-3.75302 172.489 2.42198 118.273 4.64498 99.8713Z" fill="#F07D29"/>
<path d="M151.487 75.1714C149.758 72.8249 150.005 72.9484 149.758 72.3309C148.152 68.6259 102.087 97.5249 99.1227 99.7479C97.0232 101.353 114.807 124.695 119.377 131.487C121.847 134.945 122.835 133.34 121.476 135.81C120.982 136.674 122.217 137.292 122.711 136.551C124.317 133.957 127.528 126.547 139.26 106.911C139.878 105.923 139.384 106.54 186.808 116.667C187.672 116.914 189.031 116.667 189.278 117.408C189.401 117.779 186.437 125.683 184.461 129.264C183.597 130.87 183.103 132.599 182.362 134.328C181.991 134.945 182.238 135.439 182.979 135.686C185.079 136.551 197.058 140.132 197.923 139.762C198.046 139.638 182.485 178.911 182.238 180.146C182.115 180.887 183.226 181.258 183.597 180.517C187.549 172.242 188.166 168.784 198.911 142.232C199.652 140.503 200.022 139.021 199.281 137.292C192.242 117.532 192.489 116.297 188.413 115.432C138.396 104.811 138.643 104.194 137.778 106.046C137.037 107.652 136.049 109.134 135.185 110.616C122.341 133.463 123.205 133.71 121.847 131.981C120.612 130.499 112.584 119.384 100.358 101.23C99.9872 100.612 99.9872 100.365 100.605 99.9949C104.68 97.8954 147.658 71.4664 149.017 74.0599C149.017 74.0599 166.677 105.305 169.271 108.022C170.012 108.763 170.753 108.146 170.259 107.281C162.355 94.8079 155.686 80.9759 151.487 75.1714ZM184.338 132.969C186.067 127.782 185.573 131.611 190.513 117.038C193.23 124.201 194.959 131.364 197.923 138.156C183.844 134.081 183.226 136.18 184.338 132.969Z" fill="#180B02"/>
<path d="M120.488 134.822C120.117 135.069 113.572 135.069 106.779 135.316C99.7396 135.686 99.9866 135.686 99.6161 134.698C98.9986 132.722 98.1341 130.746 97.3931 128.647C96.6521 126.3 95.9111 123.954 95.1701 121.731C94.6761 120.372 94.6761 120.866 105.544 120.496C107.644 120.496 108.261 119.631 110.237 122.348C116.906 131.611 120.488 134.204 120.488 134.822Z" fill="#F07D29"/>
<path d="M98.6288 137.786H96.7764C82.3269 89.621 84.4263 93.0789 83.1913 93.5729C78.1278 95.7959 48.9819 104.811 39.4724 107.652C38.3609 108.022 38.7314 107.775 41.4484 118.273C40.9544 118.273 40.4604 118.52 39.9664 118.396C38.8549 114.938 38.2374 111.357 37.4964 107.775C37.1259 106.046 83.4383 92.091 83.4383 92.091C85.2908 91.4735 85.1674 91.4735 98.6288 137.786Z" fill="#180B02"/>
<path d="M93.935 115.678C92.947 115.802 93.441 115.925 89.8595 105.057C89.489 103.822 89.6125 104.193 98.134 104.069C99.2455 104.069 98.134 104.193 104.556 114.196C105.174 115.308 104.927 115.061 97.146 115.431C96.0345 115.431 95.0465 115.431 93.935 115.678Z" fill="#F07D29"/>
<path d="M118.389 97.6483C118.389 96.9073 118.265 97.5248 143.953 84.1868C146.176 83.0753 146.67 83.0753 146.794 83.5693C147.164 84.3103 119.624 98.2658 118.389 97.6483Z" fill="#180B02"/>
<path d="M112.089 108.269C111.348 108.269 111.101 108.022 107.519 103.453C105.914 101.353 109.495 100.242 111.224 98.6363C112.706 97.2778 116.658 102.094 117.399 102.835C117.77 103.206 118.017 103.947 117.523 104.317C115.794 105.552 114.312 107.899 112.089 108.269ZM116.535 103.947C116.782 103.823 116.782 103.576 116.535 103.329C116.535 103.329 112.459 98.3893 111.595 99.3773C110.73 100.242 109.372 100.736 108.507 101.724C107.643 102.712 107.89 102.588 111.471 106.787C112.706 108.393 114.682 105.182 116.535 103.947Z" fill="#180B02"/>
<path d="M73.3115 102.218C74.7935 99.6244 74.7935 102.835 78.9925 105.182C80.598 106.17 81.9565 107.405 83.562 108.516C84.797 109.381 83.6855 110.369 82.08 108.887C79.857 106.911 77.0165 105.676 74.917 103.576C74.67 103.206 74.423 103.206 74.176 103.7C72.0765 107.775 69.236 111.604 67.26 115.803C64.296 117.408 69.483 109.134 73.3115 102.218Z" fill="#180B02"/>
<path d="M80.9668 125.312C85.6598 123.583 85.2893 123.707 86.0303 123.583C87.2653 123.336 87.3888 124.448 86.4008 124.818L81.2138 126.671C80.9668 126.3 80.9668 125.806 80.9668 125.312Z" fill="#180B02"/>
<path d="M82.0801 129.882C84.1796 128.894 86.2791 127.535 88.8726 127.782C88.2551 129.264 87.3906 129.264 82.4506 130.87L82.0801 129.882Z" fill="#180B02"/>
<path d="M170.134 123.213C137.53 114.444 133.578 110.863 151.115 116.05C164.577 120.125 169.146 121.237 171.122 122.101C173.222 123.089 172.481 123.83 170.134 123.213Z" fill="#180B02"/>
<path d="M167.79 128.276C165.073 127.659 159.392 126.053 139.632 120.002C139.262 119.878 138.768 119.878 138.768 119.508C139.015 117.902 167.543 126.918 168.284 127.165C168.531 127.165 174.706 129.758 167.79 128.276Z" fill="#180B02"/>
<path d="M138.147 125.806C155.314 130.623 163.588 132.599 162.971 133.587C162.477 134.451 146.298 129.882 138.147 126.918C137.53 126.671 136.912 126.424 137.159 125.93C137.283 125.683 137.53 125.683 138.147 125.806Z" fill="#180B02"/>
<path d="M67.5063 49.4822C72.8168 49.4822 72.6933 49.7292 72.8168 48.7412C73.3108 42.9367 73.9283 43.6777 88.6248 43.3072C95.4173 43.1837 107.397 45.0362 116.165 45.4067C122.711 45.6537 121.723 49.4822 119.87 72.3297C119.5 76.2817 118.512 77.2709 114.56 77.3944C111.225 77.5179 107.89 78.2589 104.555 78.0119C103.444 77.8884 104.309 78.8764 102.827 83.5694C102.086 85.9159 101.345 86.4099 98.7518 86.4099C92.7003 86.4099 86.7723 86.2864 80.8443 85.7924C55.6503 83.5694 55.8973 85.9159 55.6503 79.8644C55.4033 72.7014 56.2678 59.4869 57.1323 54.5469C57.6263 51.7064 55.7738 49.4834 67.5063 49.4834V49.4822ZM104.68 65.2902C103.939 80.3572 101.839 76.2817 114.56 75.9112C117.894 75.7877 118.017 75.9112 118.387 72.3297C118.387 72.3297 119.746 54.2987 119.622 51.0877C119.375 45.4067 120.487 48.1237 100.233 45.5302C92.8225 44.5422 85.4125 45.0362 78.0025 44.9127C74.668 44.9127 74.174 45.4067 73.5565 48.6177C73.3095 50.0997 72.198 49.1117 94.675 51.2112C106.778 52.5697 104.556 51.7052 104.68 65.2902ZM101.963 54.0517C101.345 53.4342 68.1238 49.6057 59.9728 51.5817C58.1203 52.0757 59.7258 52.4462 64.0483 56.6452C81.0913 73.1942 79.7328 73.3177 82.9438 70.8477C99.2458 57.8802 93.5648 61.9557 101.963 54.0517ZM99.3693 84.9267C87.3898 68.0072 88.8718 67.6379 87.6368 68.7494C82.8203 72.5779 81.4618 74.1834 78.9918 72.8249C76.8923 71.5899 75.1633 68.8729 74.5458 69.4904C72.9403 71.0959 70.9643 72.2074 69.3588 73.8129C63.9248 78.8764 62.0723 79.8644 57.8733 82.7049C59.8493 83.1989 96.1583 85.2984 99.3693 84.9279V84.9267ZM57.0088 82.4567C68.1238 72.9472 69.3588 72.0827 72.9403 68.8717C74.1753 67.7602 73.9283 68.1319 65.9008 60.1044C58.2438 52.4474 58.4908 52.6944 58.1203 52.5709C57.3793 62.4509 56.3913 72.3309 57.0088 82.4579V82.4567ZM103.074 54.9162C98.3813 59.3622 94.1823 63.6847 89.2423 67.2662C88.7483 67.6367 88.9953 67.8849 89.1188 68.1319C91.3418 71.4664 100.481 84.4339 100.604 84.4339C103.198 84.3104 103.445 58.3754 103.074 54.9174V54.9162Z" fill="#180B02"/>
<path d="M32.4321 26.0184C36.8781 25.7714 42.5578 39.9739 44.0398 44.1729C44.6573 45.7784 44.1633 47.1369 42.9283 48.2484C40.4583 50.4714 33.1718 54.4234 29.4668 55.6584C26.2558 56.7699 24.8973 55.4114 22.7978 51.3359C16.2523 38.4919 13.7823 35.4044 17.3638 32.9344C20.3278 31.0819 29.2198 26.1419 32.4308 26.0184H32.4321ZM41.9403 47.2604C43.4223 46.1489 43.6693 45.5314 40.4583 38.7389C40.3348 38.6154 40.3348 38.2449 39.9643 38.4919C39.0998 39.1094 38.2353 38.6154 37.4943 38.3684C35.1478 37.7509 32.0603 37.6274 32.4308 40.0974C32.4308 40.3444 31.6898 50.3479 31.0723 53.3119C30.2078 54.2999 37.9883 50.3479 41.9403 47.2604ZM39.9643 37.8744C40.0878 37.7509 37.3708 32.1934 34.6538 28.6119C33.6658 27.2534 32.6778 26.8829 31.1958 27.6239C13.0413 35.4044 15.6348 34.6634 22.0568 46.5194C24.4033 38.8624 23.9093 39.1094 27.6143 40.4679C30.3313 41.4559 29.0963 42.3204 26.0088 41.2089C24.5268 40.7149 25.2678 42.4439 23.7858 44.6669C22.4273 46.8899 22.9213 48.7424 24.2798 50.7184C26.3793 53.8059 26.2558 55.0409 29.5903 54.1764C31.3193 53.6824 29.9608 53.8059 31.5663 38.9859C31.6898 38.1214 32.0603 37.5039 32.9248 37.2569C36.3828 35.8984 39.7173 38.1214 39.9643 37.8744Z" fill="#180B02"/>
<path d="M30.2072 32.3182C30.3307 27.8722 35.5177 30.2187 35.5177 32.4417C35.3942 35.0352 30.0837 36.2702 30.2072 32.3182ZM32.3067 33.5532C35.6412 32.8122 32.9242 30.9597 32.0597 31.0832C30.7012 31.2067 30.7012 33.5532 32.3067 33.5532Z" fill="#180B02"/>
<path d="M129.873 35.4032C123.945 35.4032 116.906 33.0567 114.312 28.3637C114.065 27.8697 113.695 27.7462 113.077 27.7462C104.926 28.1167 101.715 25.2762 100.974 25.6467C98.3808 27.0052 95.5403 27.7462 93.1938 29.4752C92.4528 29.9692 91.4648 29.3517 92.2058 28.2402C93.4408 26.1407 94.1818 23.9177 95.0463 21.6947C95.1698 21.2007 95.2933 20.9537 94.9228 20.5832C88.9948 12.4322 96.2813 4.28118 106.037 1.68768C116.534 -1.02932 131.232 2.18168 132.714 12.5557C132.961 14.0377 138.395 11.8147 144.817 17.4957C148.645 20.9537 149.016 25.2762 145.928 29.3517C144.693 30.9572 147.41 37.5027 146.546 37.9967C145.805 38.4907 142.1 35.2797 140.741 34.4152C138.642 32.8097 138.642 35.4032 129.873 35.4032ZM95.1698 27.1287C97.1458 26.0172 99.4923 25.5232 101.592 24.7822C103.197 24.1647 105.544 26.6347 113.818 26.1407C122.34 25.6467 132.836 20.4597 131.354 12.1852C129.872 3.91068 117.523 1.07018 108.631 2.67568C98.5043 4.40468 90.1063 12.3087 96.1578 20.5832C97.5163 22.4357 92.4528 28.6107 95.1698 27.1287ZM145.434 36.2677C144.446 30.9572 144.076 29.5987 145.187 28.2402C147.781 25.0292 147.41 20.3362 141.606 17.0017C139.012 15.5197 136.172 14.9022 133.331 14.1612C132.714 14.0377 132.714 14.4082 132.714 14.7787C131.849 22.4357 122.833 26.8817 114.682 27.8697C115.793 29.5987 117.275 30.8337 119.004 31.6982C130.613 37.6262 139.012 31.8217 140.247 32.8097C140.247 32.5627 145.064 36.1442 145.434 36.2677Z" fill="#180B02"/>
<path d="M105.667 17.7427C101.839 17.4957 101.343 14.0377 103.566 12.8027C108.136 10.3327 111.966 16.7547 105.667 17.7427Z" fill="#180B02"/>
<path d="M118.511 14.5316C118.511 18.1131 112.707 18.4836 112.83 14.7786C112.83 11.0736 118.511 10.8266 118.511 14.5316Z" fill="#180B02"/>
<path d="M124.438 16.6312C120.609 16.6312 120.856 11.6912 124.438 11.8147C127.772 11.8147 128.019 16.6312 124.438 16.6312Z" fill="#180B02"/>
<path d="M137.777 22.0652C141.359 22.0652 141.234 27.1287 137.529 27.1287C134.071 27.1287 133.578 22.0652 137.777 22.0652ZM137.777 25.8937C140.124 25.7702 139.505 22.9297 137.529 23.0532C135.677 23.0532 135.431 25.8937 137.777 25.8937Z" fill="#180B02"/>
<path d="M133.331 24.4117C133.331 27.8697 128.514 28.2402 128.391 25.0292C128.267 21.2007 133.331 20.9537 133.331 24.4117ZM131.108 23.0532C128.761 22.9297 128.761 26.1407 130.614 26.2642C132.343 26.2642 132.713 23.3002 131.108 23.0532Z" fill="#180B02"/>
<path d="M36.8781 74.307C36.7546 75.6655 34.4081 75.048 34.0376 76.036C33.7906 76.777 34.1611 77.271 34.2846 79.741C34.4081 80.8525 33.2966 81.2229 32.9261 80.1114C31.9381 77.2709 33.0496 75.789 31.4441 76.036C27.6156 76.53 28.4801 74.8009 31.4441 74.4304C33.1731 74.3069 31.1971 70.7254 32.4321 70.4784C33.0496 70.3549 33.0496 70.8489 33.1731 71.2194C33.7906 73.4424 33.2966 74.1835 34.7786 73.6895C35.6431 73.4425 36.8781 73.4425 36.8781 74.307Z" fill="#180B02"/>
<path d="M179.274 91.5957C179.274 92.2132 178.286 92.4602 177.916 92.4602C175.816 92.3367 176.557 93.9422 176.434 94.5597C176.31 94.9302 176.31 95.4242 175.816 95.4242C175.322 95.4242 175.199 94.9302 175.075 94.5597C174.828 94.0657 175.199 93.2012 174.581 92.9542C173.717 92.5837 171.37 93.8187 171.247 92.5837C171.123 91.3487 175.075 92.3367 174.334 90.2372C174.211 89.7432 174.211 89.1257 174.828 89.0022C175.446 88.8787 175.569 89.4962 175.569 89.9902C176.063 92.3367 179.151 89.9902 179.274 91.5957Z" fill="#180B02"/>
<path d="M58.9849 21.2019C63.6779 20.7079 62.6899 22.3134 61.8254 22.4369C60.4669 22.5604 55.6504 23.3014 55.6504 21.9429C55.6504 21.0784 56.2679 21.2019 58.9849 21.2019Z" fill="#180B02"/>
<path d="M60.8375 24.4117C59.232 25.2762 56.1445 25.0292 56.1445 24.2882C56.1445 24.0412 56.3915 23.9177 56.6385 23.9177C57.997 23.7942 59.3555 23.5472 60.8375 24.4117Z" fill="#180B02"/>
<path d="M59.3561 26.7594C58.2446 27.5004 56.5156 27.2534 56.6391 26.3889C56.7626 25.7714 58.3681 26.0184 59.3561 26.7594Z" fill="#180B02"/>
</svg>
