<svg width="330" height="240" viewBox="0 0 330 240" fill="none" xmlns="http://www.w3.org/2000/svg">
<path d="M299.295 42.8211C286.237 34.7852 270.096 44.404 262.423 55.4501C254.619 66.6899 251.268 85.9742 264.345 94.9598C275.845 102.862 293.195 100.126 304.144 84.4587C315.732 67.8767 310.895 49.9591 299.295 42.8211ZM265.037 56.9794C271.674 47.5474 285.337 38.7089 296.937 44.9213C310.632 52.2565 306.185 70.918 299.432 81.3153C292.181 91.0102 277.843 100.51 266.048 92.3389C254.372 84.2511 258.074 66.8715 265.037 56.9777V56.9794Z" fill="#F07D29"/>
<path d="M296.427 78.5819C301.688 70.2312 304.17 56.6368 294.148 50.5784C284.926 45.0026 273.606 51.6562 268.19 59.4792C262.664 67.4614 260.465 80.9831 269.683 87.3219C280.256 94.5948 293.743 83.7234 296.427 78.5819ZM271.381 84.7182C263.56 79.2774 266.159 67.6223 270.804 61.0068C275.098 54.8913 284.355 48.7065 291.979 52.8014C301.29 57.8011 298.21 70.2208 293.666 77.2809C288.842 83.6819 279.239 90.185 271.381 84.7182Z" fill="#F07D29"/>
<path d="M289.506 57.8029C283.989 54.5367 277.358 59.2336 274.259 63.723C271.099 68.3005 269.092 76.525 274.605 80.2773C279.842 83.8411 287.188 79.2774 290.21 74.5701C293.523 70.1862 295.367 61.2733 289.506 57.8029ZM276.505 77.793C272.206 75.1479 274.612 68.4562 276.873 65.2505C278.936 62.3286 283.299 58.6419 287.215 60.0432C292.694 62.0051 289.693 69.797 287.598 73.0425C285.324 76.07 280.515 80.2583 276.505 77.793Z" fill="#F07D29"/>
<path d="M284.796 65.4841C283.423 64.524 281.163 65.3855 279.75 67.4096C278.336 69.432 278.304 71.8505 279.677 72.8107C281.051 73.7708 283.31 72.9093 284.724 70.8852C286.137 68.8611 286.17 66.4443 284.796 65.4841Z" fill="#F07D29"/>
<path d="M67.8268 56.1491C67.7541 58.2251 69.9045 64.9272 65.9567 71.425C62.7821 76.4974 57.3067 77.8208 57.3932 88.8357C57.1662 88.785 56.9337 88.7629 56.7012 88.77C56.8223 86.4864 56.7323 79.2758 56.7461 76.9852C59.4692 74.8591 61.1317 70.1085 59.4121 67.3388C59.0246 66.7108 58.2045 66.1537 57.2773 66.1935C54.2723 66.3976 54.0128 72.3523 53.9297 75.3763C52.6106 75.8407 51.1712 75.8328 49.8573 75.3539C49.6324 73.918 49.058 70.7573 48.4266 69.3335C47.5737 67.408 46.2243 67.0862 45.015 67.8889C44.5116 68.3387 44.5514 68.2747 44.1933 68.8888C43.2227 71.0167 44.2677 75.1393 47.3125 77.2067C48.1169 83.0264 48.1134 84.9225 49.1999 89.5935C48.7535 89.6506 48.3678 89.7025 48.0737 89.7492C47.6827 85.0609 45.1707 80.9193 41.4962 78.2291C28.606 69.8386 33.2009 43.335 51.6963 44.8418C55.4557 45.1694 59.0189 46.6633 61.8877 49.1149C64.2613 51.1183 65.3788 52.8466 66.7663 54.7963C68.9669 57.886 67.9808 53.2081 65.929 50.2671C59.983 41.2279 48.1792 39.0325 39.7576 44.7173C30.118 50.8986 27.9053 68.1605 35.3478 76.9835C35.8201 77.5267 36.211 78.1426 36.7595 78.6218C38.576 80.2082 38.704 80.3414 38.9496 80.4937C42.5117 82.6908 44.5773 86.5677 44.7832 90.1592C45.1015 93.6901 44.8334 98.7625 46.7295 101.804C49.1549 105.939 55.8569 104.925 57.817 103.645C58.099 103.461 58.4 103.312 58.6543 103.105C60.1456 101.52 59.5193 102.219 60.3082 100.788C62.4015 95.3803 59.0661 87.9206 61.9569 81.7341C63.6229 78.1703 67.787 75.6376 69.4547 71.0323C72.7798 61.8512 67.9669 53.9486 67.8251 56.1474L67.8268 56.1491ZM50.2604 78.4038C51.4921 78.608 52.6858 78.6166 53.928 78.3346C54.0283 82.8586 54.466 86.085 55.1217 88.9292C53.9712 89.0503 52.2966 89.2285 50.8088 89.4015C50.9005 87.2286 50.7776 82.779 50.2604 78.4038ZM48.264 92.8805C48.7086 92.9376 48.3418 92.9462 56.1579 92.1712C56.2168 92.166 56.9555 92.076 57.5108 91.9376C57.5229 92.1227 57.6163 93.6382 57.6492 94.2333C57.3686 94.1726 57.0802 94.1563 56.7946 94.1849C56.5126 94.2126 50.4299 94.8337 48.4041 95.1468C48.3472 94.3926 48.2999 93.6377 48.2622 92.8822H48.264V92.8805ZM55.9434 100.897C55.7895 101.039 55.4746 101.037 55.2497 101.126C54.0716 101.444 53.2879 101.425 52.5838 101.439C50.449 101.352 49.4767 100.705 48.8608 98.3023C49.0355 98.3023 56.5455 97.6224 57.67 97.3646C57.5592 98.7556 57.2427 100.392 55.9434 100.897Z" fill="#F07D29"/>
<path d="M22.9562 217.728C22.6794 217.385 22.3127 216.911 22.1431 216.257C21.7521 214.754 22.4857 213.091 23.9596 212.712C24.2693 212.652 24.7935 212.6 25.271 212.552C54.6619 209.583 106.199 201.576 118.257 200.049C119.141 199.936 118.366 199.801 159.05 215.371C159.14 215.427 159.246 215.458 159.33 215.513C160.505 216.281 160.209 218.167 159.171 218.579C158.967 218.714 158.019 218.861 157.249 219.01C64.7772 236.697 65.3326 236.47 64.6561 236.154C57.9697 233.019 18.6156 214.453 23.733 218.61C27.0961 221.343 48.8318 231.595 63.1372 238.948C63.6112 239.192 64.3914 239.45 65.0575 239.482C66.0419 239.531 65.6249 241.557 159.474 221.945C162.159 221.385 163.482 218.965 163.396 216.743C163.325 214.916 162.111 213.007 160.342 212.327C118.817 196.381 119.969 196.668 118.662 196.684C114.975 196.731 31.2135 209.611 24.2416 210.759C21.2141 211.257 20.0533 214.316 20.9736 216.411C21.5203 217.655 22.4857 218.198 22.9441 218.266C23.4181 218.37 23.4216 218.183 22.9631 217.726L22.9562 217.728Z" fill="#180B02"/>
<path d="M139.682 214.923C135.057 212.994 74.329 227.025 69.1788 227.082C67.2584 227.095 65.3571 226.699 63.6013 225.921C61.7208 225.104 46.6923 218.738 45.6889 218.352C43.6959 217.586 38.2793 215.615 36.622 215.351C35.8002 215.219 35.2466 215.339 35.5667 215.833C37.2621 218.442 59.7901 227.808 62.5149 229.002C65.3607 230.251 69.1806 230.72 72.8309 229.936C93.4923 225.497 144.219 216.816 139.682 214.923Z" fill="#180B02"/>
<path d="M115.914 171.414C114.968 172.208 114.01 172.988 113.042 173.755C115.647 185.46 115.533 185.335 115.357 186.28C114.981 188.269 113.398 189.987 110.902 190.307L16.5943 202.421C15.1134 202.346 13.5391 201.511 12.5894 199.983C12.0185 199.066 11.9129 198.144 11.7123 196.713C11.5289 195.412 2.19207 136.39 1.82012 134.738C1.2423 132.165 0.702544 130.721 0.605664 132.356C0.235444 138.689 8.61383 198.362 8.94426 199.602C9.70373 202.457 12.1171 204.81 15.1446 205.471C17.3884 205.96 15.238 205.962 112.163 193.442C116.704 192.492 119.424 187.989 118.645 184.026C118.337 182.456 117.291 177.645 115.912 171.414H115.914Z" fill="#180B02"/>
<path d="M0.869143 131.005C1.22206 128.266 2.96244 125.853 5.72006 125.192C6.67675 124.963 5.72352 125.088 97.7336 122.201C98.8277 122.247 99.8761 122.653 100.717 123.354C101.558 124.056 102.145 125.015 102.387 126.083L103.96 133.139C104.904 132.218 105.834 131.281 106.747 130.328C105.505 124.789 105.461 124.01 104.323 122.401C102.851 120.322 100.538 119.073 98.2785 118.905C96.8322 118.798 96.4015 118.877 6.13872 123.202C5.57391 123.311 5.02196 123.479 4.49176 123.702C1.06463 125.164 -0.478526 129.108 0.422804 131.361C0.626944 131.868 0.768803 131.786 0.869143 131.005Z" fill="#180B02"/>
<path d="M97.4877 132.331C96.6556 129.7 94.3079 127.883 91.5538 127.553C90.5469 127.432 90.9102 127.138 16.9008 130.847C16.1587 130.883 15.1085 130.997 14.2608 131.328C11.1884 132.525 9.94449 135.746 10.7593 137.449C10.9548 137.857 11.0984 137.776 11.2091 137.158C11.633 134.784 13.3353 133.241 15.2902 132.909C15.9043 132.805 16.2486 132.83 17.8004 132.83C43.4823 132.83 64.6678 131.712 90.5763 130.833C91.7718 130.793 93.0502 131.338 93.7993 132.331C94.1522 132.8 94.1903 132.774 95.9982 140.324L98.9426 138.388L97.4894 132.333L97.4877 132.331Z" fill="#F07D29"/>
<path d="M108.274 177.46L105.068 179.026C104.931 180.801 103.461 181.963 101.698 182.178C101.698 182.178 24.8184 191.473 24.4655 191.482C22.8722 191.518 21.3308 190.634 20.7166 189.155C20.1803 187.861 11.6722 130.558 10.9248 138.246C10.4179 143.476 16.4297 183.37 17.331 188.908C17.9625 192.791 21.6162 195.196 25.6281 194.627C30.2489 193.971 102.4 185.429 102.796 185.347C106.658 184.552 109.064 180.91 108.274 177.462V177.46Z" fill="#F07D29"/>
<path d="M56.935 127.659C57.3337 127.659 57.7161 127.5 57.9981 127.218C58.28 126.936 58.4384 126.554 58.4384 126.155C58.4384 125.756 58.28 125.374 57.9981 125.092C57.7161 124.81 57.3337 124.652 56.935 124.652C56.5363 124.652 56.1539 124.81 55.872 125.092C55.59 125.374 55.4316 125.756 55.4316 126.155C55.4316 126.554 55.59 126.936 55.872 127.218C56.1539 127.5 56.5363 127.659 56.935 127.659Z" fill="#180B02"/>
<path d="M158.543 103.555C158.053 102.442 157.164 102.442 156.325 102.179L130.088 95.1485C128.19 94.7402 127.792 96.4287 126.749 98.6985C119.916 113.604 107.52 129.394 92.5054 140.812C77.1603 152.512 59.3206 159.871 38.9913 162.375C38.4377 162.511 35.7839 162.693 31.8966 163.046C25.6997 163.497 18.0739 163.195 16.5619 163.195C15.2073 163.195 14.3942 164.089 14.4478 165.442C14.5516 166.393 17.0843 188.392 17.0843 188.392C17.9666 191.762 20.9163 194.297 24.9714 193.928C97.9947 187.294 96.3823 186.034 97.8252 185.543C111.779 178.533 127.465 165.667 139.835 147.521C144.878 140.123 142.776 143.246 146.404 136.831C148.789 132.612 147.736 134.548 149.281 131.255C153.581 122.079 151.595 126.477 154.13 119.685C156.201 114.139 155.401 117.107 158.23 106.184C158.429 105.418 158.92 104.167 158.54 103.551V103.555H158.543ZM149.227 123.574C144.302 134.317 145.571 131.596 143.457 135.425C142.449 137.25 139.625 142.459 135.548 148.022C124.152 163.572 108.162 176.936 96.583 182.88C94.5485 183.925 24.7603 191.035 24.5787 191.053C22.437 191.248 20.4007 189.69 20.0496 187.506L17.8836 166.527C24.4057 166.67 23.3677 166.691 26.8952 166.572C28.5681 166.492 30.4486 166.52 32.5056 166.333C70.5379 163.89 101.714 144.414 121.789 114.125C151.498 124.116 149.334 123.282 149.227 123.574ZM155.067 105.326C152.467 114.879 153.043 113.035 150.334 120.535L123.478 111.504C126.074 107.389 128.384 103.1 130.391 98.6673L130.415 98.6535C156.45 105.617 155.133 105.155 155.066 105.328L155.067 105.326Z" fill="#F07D29"/>
<path d="M133.125 103.752C131.885 103.188 130.361 103.873 129.717 105.283C129.077 106.691 129.565 108.291 130.804 108.855C132.044 109.419 133.568 108.734 134.21 107.324C134.85 105.916 134.366 104.314 133.125 103.752Z" fill="#F07D29"/>
<path d="M145.448 88.7717C146.377 87.8151 145.27 83.0731 139.663 80.3882C135.888 78.5838 134.156 79.4834 133.305 78.2776C131.69 76.0261 129.687 74.081 127.388 72.534C125.449 71.2538 123.906 70.6171 123.582 70.5133C122.34 70.1154 119.837 69.7383 120.057 71.0168C120.377 72.8679 126.913 74.6134 130.719 80.3345C133.109 83.4866 136.471 81.1407 140.988 85.246C143.14 87.2009 144.496 89.7509 145.448 88.7717Z" fill="#F07D29"/>
<path d="M157.557 100.248C160.043 98.7503 160.296 78.7965 152.523 67.266C151.122 64.9202 148.343 65.254 145.67 65.8128C142.138 66.5533 139.908 67.7037 139.436 67.9061C138.157 68.5618 134.443 70.8021 135.803 71.4855C136.649 71.9111 138.275 71.2174 144.511 69.4389C145.07 69.3299 146.276 68.7037 149.227 68.6742C149.591 68.6708 149.684 68.8922 149.987 69.3714C157.559 81.324 155.31 96.9165 156.718 99.8316C156.903 100.212 157.218 100.453 157.557 100.247V100.248Z" fill="#F07D29"/>
<path d="M131.833 64.2663C130.551 62.2872 123.581 54.8932 122.778 54.3777C121.927 53.831 120.868 53.4469 120.353 54.3171C120.265 54.4672 120.21 54.6342 120.191 54.8072C120.172 54.9801 120.19 55.155 120.244 55.3205C120.526 56.2634 121 57.0471 121.621 57.6941C128.894 65.2715 129.25 66.8146 130.772 67.8025C133.004 69.2505 133.617 66.6243 131.835 64.2698L131.833 64.2681V64.2663Z" fill="#F07D29"/>
<path d="M137.662 60.7474C136.034 57.367 130.604 49.2429 130.042 48.7014C129.676 48.3476 129.254 48.058 128.793 47.8451C127.979 47.4731 127.213 48.1963 127.338 49.1132C127.467 50.0889 127.818 51.0221 128.363 51.8414C134.867 61.6885 134.699 62.8649 136.076 64.1797C138.064 66.0741 139.091 63.7126 137.662 60.7474Z" fill="#F07D29"/>
<path d="M143.647 57.95C142.73 55.7702 137.18 47.269 136.476 46.6185C136.125 46.2876 135.717 46.0222 135.272 45.8348C134.487 45.5044 133.715 46.2241 133.815 47.0977C133.926 48.0769 134.255 48.9315 134.75 49.6754C140.822 58.7856 140.602 59.9516 141.978 61.2387C143.919 63.0535 144.984 60.5796 143.645 57.9483L143.647 57.95Z" fill="#F07D29"/>
<path d="M150.847 59.1972C150.02 57.225 145.269 50.0438 144.723 49.575C144.404 49.299 144.033 49.0891 143.633 48.9574C142.91 48.7152 142.126 49.4158 142.157 50.1943C142.192 51.0645 142.444 51.8067 142.865 52.4364C147.88 59.9533 147.842 61.2144 149.03 62.1763C150.826 63.6347 152.006 61.4808 150.845 59.1972H150.847Z" fill="#F07D29"/>
<path d="M307.282 218.075C310.074 216.877 309.825 212.078 306.571 211.022C303.715 210.097 271.217 205.145 260.564 203.633C209.477 196.381 211.421 196.302 209.368 197.125C202.25 199.98 169.804 212.19 168.929 212.738C165.649 214.801 165.962 219.926 169.42 221.534C170.116 221.904 169.664 220.511 263.664 239.285C264.719 239.496 265.797 239.347 266.643 238.946C318.475 214.404 322.216 209.294 265.458 235.993C265.188 236.121 264.878 236.256 264.423 236.178L170.777 218.522C169.676 217.949 169.579 215.954 170.95 215.406L211.001 200.068C211.418 199.961 306.595 212.927 306.41 212.901C307.512 213.361 308.055 214.878 307.796 216.013C307.592 216.901 307.073 217.503 306.794 217.806C306.531 218.131 306.571 218.299 307.282 218.072V218.075Z" fill="#180B02"/>
<path d="M191.691 215.321C193.226 216.918 207.561 219.918 209.734 220.342C211.054 220.599 257.469 229.675 258.677 229.831C260.919 230.122 263.198 229.933 265.362 229.275C267.751 228.54 294.488 217.224 290.89 216.473C288.72 216.02 275.218 221.624 273.161 222.508C265.502 225.798 265.464 225.864 264.267 226.198C262.364 226.728 260.366 226.823 258.421 226.478C229.928 221.186 188.539 212.039 191.691 215.321Z" fill="#180B02"/>
<path d="M225.83 134.091C226.985 128.967 227.774 125.532 227.857 125.327C228.203 124.481 228.774 123.745 229.507 123.199C230.24 122.653 231.108 122.317 232.018 122.228L323.569 125.122C325.87 125.448 327.545 126.929 328.355 128.743C328.841 129.833 328.948 130.821 329.045 131.311C329.337 132.811 330.747 128.799 328.015 125.628C327.142 124.634 326.016 123.895 324.758 123.488C323.299 123.014 324.664 123.213 232.132 118.881C230.306 118.958 228.557 119.635 227.154 120.806C225.751 121.978 224.773 123.578 224.371 125.361L223.039 131.361C223.955 132.286 224.885 133.196 225.83 134.091Z" fill="#180B02"/>
<path d="M328.977 132.295C326.509 139.144 318.281 197.047 317.841 198.708C317.502 199.988 316.322 201.732 314.134 202.215C312.795 202.511 314.089 202.514 218.519 190.179C215.865 189.624 214.161 186.934 214.647 184.551C214.799 183.806 215.609 180.104 216.757 174.882C215.789 174.138 214.833 173.379 213.889 172.604L211.483 183.448C210.381 188.311 213.713 192.947 218.679 193.554C313.605 205.171 312.383 205.63 313.613 205.557C316.101 205.412 318.647 203.998 320.092 201.594C321.102 199.914 321.163 198.559 321.374 197.158C321.569 195.859 329.353 136.611 329.465 134.923C329.64 132.292 329.533 130.754 328.977 132.295Z" fill="#180B02"/>
<path d="M317.862 132.809C317.103 132.04 316.158 131.481 315.12 131.186C310.646 129.937 245.816 127.702 239.489 127.51C237.287 127.442 234.976 128.442 233.548 130.331C232.875 131.224 232.939 131.172 231.197 138.656L233.818 141.177L235.694 133.323C236.164 131.866 237.574 130.76 239.712 130.844C243.806 131.001 314.192 132.805 315.137 133.072C316.381 133.444 317.428 134.292 318.05 135.431C318.481 136.243 318.602 137.007 318.706 137.397C319.04 138.644 320.282 135.279 317.862 132.809Z" fill="#F07D29"/>
<path d="M318.658 138.179C316.764 142.596 312.344 171.135 309.373 188.392C309.05 190.267 307.302 191.662 304.768 191.312C297.121 190.255 227.989 182.219 227.259 181.899C226.78 181.73 226.343 181.461 225.976 181.11C225.61 180.759 225.322 180.334 225.133 179.863L221.704 177.753C221.169 181.526 223.89 184.968 227.911 185.43C227.911 185.43 304.68 194.598 305.472 194.62C308.475 194.703 311.252 192.81 312.184 190.297C313.171 187.638 318.895 145.557 319.198 140.312C319.319 138.206 319.181 136.964 318.66 138.181L318.658 138.179Z" fill="#F07D29"/>
<path d="M273.064 124.652C272.665 124.652 272.283 124.81 272.001 125.092C271.719 125.374 271.561 125.756 271.561 126.155C271.561 126.554 271.719 126.936 272.001 127.218C272.283 127.5 272.665 127.659 273.064 127.659C273.463 127.659 273.845 127.5 274.127 127.218C274.409 126.936 274.567 126.554 274.567 126.155C274.567 125.756 274.409 125.374 274.127 125.092C273.845 124.81 273.463 124.652 273.064 124.652Z" fill="#180B02"/>
<path d="M183.295 88.9257C184.201 88.8911 184.451 88.0157 187.428 85.2356C187.57 85.1318 188.461 84.1959 190.122 83.3879C192.244 82.3569 193.957 82.3188 194.585 82.1925C198.073 81.4867 197.678 78.6547 202.74 75.1341C205.043 73.5321 205.776 73.5477 207.809 71.899C208.804 71.0946 208.354 70.1171 206.856 70.1967C205.155 70.2824 203.505 70.8049 202.065 71.7139C199.662 73.2519 197.422 74.8954 194.985 78.3087C194.258 79.3259 193.369 78.6426 190.12 79.7861C186.444 81.0819 182.804 84.2322 182.56 87.7822C182.546 87.9846 182.535 88.1904 182.593 88.3877C182.681 88.6956 182.933 88.9361 183.297 88.924H183.295V88.9257Z" fill="#F07D29"/>
<path d="M171.215 100.219C173.324 98.5514 170.739 80.9798 178.502 69.0566C178.853 68.5169 178.962 68.6051 179.647 68.6172C183.565 68.6864 186.493 70.4822 191.205 71.5859C196.276 72.7744 188.569 65.4271 179.078 65.3389C178.14 65.3528 177.239 65.702 176.536 66.3232C175.358 67.3664 173.547 71.1119 172.666 73.3851C167.533 86.6334 169.148 101.854 171.215 100.217V100.219Z" fill="#F07D29"/>
<path d="M196.157 68.1206C196.323 68.1672 196.496 68.1803 196.667 68.1592C196.838 68.1381 197.004 68.0833 197.153 67.9978C199.098 66.9287 198.734 66.4633 203.246 61.3823C207.461 56.6369 207.881 56.6248 208.199 55.1197C208.371 54.3101 207.564 53.644 206.691 53.9173C205.789 54.1973 204.974 54.7022 204.322 55.3844C202.658 57.1144 196.577 63.5085 195.702 65.7125C195.309 66.7055 195.127 67.8352 196.153 68.1206H196.157Z" fill="#F07D29"/>
<path d="M191.879 64.4721C193.675 62.9497 193.236 62.564 197.031 56.3757C200.695 50.4021 200.991 50.4453 201.078 48.8883C201.096 48.6679 201.04 48.4477 200.917 48.2635C200.795 48.0794 200.614 47.9422 200.403 47.8745C199.355 47.5026 197.822 49.0734 197.208 50.0007C195.791 52.1407 190.634 59.9707 190.09 62.4031C189.502 65.0327 191.096 65.1365 191.879 64.4721Z" fill="#F07D29"/>
<path d="M185.03 61.8062C185.201 61.823 185.375 61.8055 185.54 61.7547C185.704 61.7039 185.857 61.6208 185.99 61.5103C187.716 60.116 187.284 59.7094 190.822 53.9243C194.128 48.5198 194.545 48.409 194.593 46.8866C194.601 46.6691 194.538 46.4547 194.415 46.2753C194.292 46.0959 194.114 45.9609 193.908 45.8902C192.891 45.5044 191.429 46.9247 190.825 47.8278C189.498 49.8207 184.632 57.2026 184.161 59.5174C183.95 60.5554 183.976 61.7076 185.03 61.8062Z" fill="#F07D29"/>
<path d="M178.961 62.3875C180.515 61.3201 180.141 60.9343 183.131 56.028C186.046 51.2445 186.295 51.3207 186.234 50.0076C186.201 49.2758 185.305 48.7378 184.556 49.063C183.806 49.3797 183.165 49.9089 182.712 50.5854C181.615 52.2324 177.392 58.5988 177.067 60.5485C176.981 61.0675 176.993 61.8546 177.269 62.1989C177.603 62.6124 178.399 62.7733 178.961 62.3875Z" fill="#F07D29"/>
<path d="M313.99 165.726C313.938 165.609 313.862 165.504 313.767 165.419C313.671 165.334 313.558 165.27 313.436 165.232C309.075 164.049 272.268 167.513 237.515 141.744C235.038 139.878 232.114 137.687 229.168 134.852C215.681 121.879 214.537 120.438 211.908 112.374C211.038 109.731 210.166 106.855 208.623 104.08C206.486 100.409 202.163 95.0204 198.139 95.2869C197.36 95.3388 198.173 95.4425 178.465 100.447C175.792 101.126 170.473 100.885 169.047 105.464C166.912 112 168.293 119.701 172.014 125.481C176.543 132.496 179.104 131.843 180.304 134.11C183.844 139.632 191.432 154.877 208.785 170.41C219.603 180.038 230.441 186.051 231.282 186.06C305.746 194.153 304.001 194.179 305.885 193.67C308.549 192.994 310.738 190.74 311.142 187.539C312.165 179.462 314.49 166.776 313.99 165.726ZM198.17 98.5842C198.907 98.4458 199.827 98.9977 200.431 99.4354C207.349 104.426 207.937 112.611 210.932 119.029C209.012 119.806 207.533 120.657 206.206 121.306C206.118 120.242 205.881 119.195 205.502 118.197C203.301 112.211 199.381 103.664 194.499 99.5617C194.597 99.5357 198.082 98.5929 198.17 98.5842ZM191.516 100.363C192.239 101.442 192.964 102.491 193.841 103.446C197.014 106.886 200.156 113.421 201.798 117.786C201.841 117.962 203.106 121.278 203.81 122.436C202.395 123.078 200.671 123.813 198.848 124.498C197.76 121.19 195.234 119.175 191.461 112.021C188.406 106.421 187.613 103.293 186.543 101.698L191.515 100.364L191.516 100.363ZM179.29 103.636C179.666 103.548 179.344 103.632 184.159 102.338C184.245 103.606 184.546 104.845 185.024 106.009C186.491 110.206 193.101 122.768 196.658 125.299C194.476 126.074 192.275 126.797 190.058 127.467C189.279 126.249 187.838 124.885 186.951 123.899C186.716 123.633 183.385 119.969 181.588 115.412C179.664 110.914 179.401 105.843 179.289 105.285C179.237 105.016 179.301 104.189 179.29 103.636ZM308.39 188.356C308.052 189.188 307.471 189.9 306.723 190.398C305.975 190.896 305.095 191.158 304.196 191.15L231.995 182.794C229.556 181.539 227.025 180.079 223.655 177.778C208.745 167.883 196.86 154.57 187.335 139.423C184.3 134.523 184.415 134.297 182.602 131.586C181.169 129.769 179.183 129.06 177.858 127.655C171.922 121.59 170.128 112.872 172.106 106.762C172.365 105.911 172.592 105.534 173.156 105.143C173.94 104.579 175.197 104.34 176.619 104.113C176.297 105.424 176.216 106.783 176.382 108.123C177.252 114.376 178.825 118.929 183.294 124.742C184.072 125.628 185.678 127.55 187.131 128.397C186.504 128.666 185.907 128.998 185.347 129.387C184.717 129.821 184.69 130.319 184.923 130.648C186.902 133.397 204.287 125.896 207.323 124.481C208.188 124.078 210.809 122.495 212.32 121.541C215.33 126.294 221.693 132.096 225.237 135.57C227.677 138.028 230.256 140.196 232.804 142.211C250.21 155.993 270.375 163.669 290.147 165.72C294.588 166.177 309.482 166.762 312.516 166.788C311.348 172.839 308.822 187.311 308.393 188.357L308.39 188.356Z" fill="#F07D29"/>
<path d="M254.907 37.9961C254.187 39.285 256.666 42.6948 258.444 48.6633C258.465 48.71 258.472 48.7256 258.443 48.7239C249.815 46.2119 249.317 45.942 247.391 46.1254C246.653 46.1963 246.386 46.6063 246.421 47.0146C246.528 48.2516 249.817 49.5629 251.005 49.9227L259.486 52.4866C260.712 52.8205 261.898 52.0506 262.062 51.2272C262.451 50.3898 261.827 48.5128 261.574 47.5371C260.975 45.2223 259.444 41.1257 257.903 39.3386C257.079 38.3836 255.521 36.8941 254.907 37.9961Z" fill="#F07D29"/>
<path d="M255.52 44.892C255.383 43.1395 248.453 37.8301 246.844 36.6589C240.711 32.1955 230.34 25.7617 221.434 21.3917C216.009 9.48929 215.989 9.17789 214.457 7.58802C213.863 6.97214 213.375 7.05517 213.112 7.35619C212.263 8.32153 213.689 12.195 214.22 13.3766L216.856 19.243C215.98 18.8496 215.1 18.4649 214.216 18.0891C209.016 6.67977 208.765 5.7767 207.16 4.11071C206.568 3.49656 206.08 3.57614 205.814 3.87716C204.964 4.8425 206.39 8.71597 206.921 9.89756L209.803 16.3107C208.944 15.985 208.08 15.6712 207.211 15.3696C201.89 3.69551 201.644 2.79592 200.034 1.12301C199.451 0.517506 198.959 0.586701 198.688 0.891181C197.838 1.85652 199.264 5.72999 199.795 6.91158L203.07 14.1966C202.25 14.0288 199.92 13.6447 199.044 13.7935C198.513 13.8766 198.17 14.1516 198.401 14.5305C198.805 15.2242 200.53 15.8972 201.47 16.3124C199.584 16.9612 192.323 19.2153 191.306 20.89C190.949 21.4782 191.313 22.2117 192.697 22.1529C196.05 22.0041 198.212 20.9592 206.025 18.2465C206.881 18.5977 207.741 18.9472 208.604 19.2915C206.48 20.025 199.445 22.2013 198.43 23.876C198.077 24.459 198.43 25.1977 199.821 25.1389C203.181 24.9901 205.431 23.9106 213.228 21.2048C214.164 21.6149 215.218 22.0871 216.356 22.6131C214.085 23.3968 206.746 25.6682 205.727 27.355C205.372 27.9432 205.731 28.6767 207.118 28.6179C208.742 28.5384 210.345 28.2244 211.879 27.6854L220.605 24.6545C238.441 33.5484 250.918 44.3332 254.613 45.283C255.126 45.4162 255.551 45.3262 255.517 44.8885L255.52 44.892Z" fill="#F07D29"/>
</svg>
