<svg width="278" height="267" viewBox="0 0 278 267" fill="none" xmlns="http://www.w3.org/2000/svg">
<g clip-path="url(#clip0_1205_1118)">
<path fill-rule="evenodd" clip-rule="evenodd" d="M111.797 25.8482C152.01 26.5247 151.979 27.0418 151.787 30.3542V30.3572C151.646 32.7861 150.705 53.9156 150.065 68.3396C151.631 68.3456 153.463 68.362 155.609 68.3814C160.001 68.4186 165.705 68.4693 173.124 68.4678C184.55 68.4648 184.657 68.4693 186.666 68.5468C187.621 68.584 189.008 68.6392 192.249 68.7166C197.842 68.8507 202.025 68.9282 205.167 68.9878C213.384 69.1398 214.495 69.1607 215.149 69.718C215.252 69.8074 215.342 69.9057 215.448 70.022L215.478 70.0562C215.744 70.3483 215.903 73.5356 215.986 78.6615C217.97 78.9878 220.052 79.2963 222.228 79.563C222.991 79.6569 223.041 79.4945 223.141 79.1711C223.276 78.736 223.501 78.0074 225.691 77.2236C227.614 76.5351 229.428 75.881 231.137 75.2626C211.468 39.4498 173.446 15.1821 129.766 15.1821C123.236 15.1799 116.718 15.7282 110.28 16.8212C110.822 19.9564 111.347 23.09 111.797 25.8482ZM241.938 102.808C238.606 103.04 235.267 103.153 231.927 103.148H231.925C230.02 103.165 228.291 103.181 227.789 101.151C224.846 103.744 220.149 107.723 215.936 110.45C215.886 115.547 215.826 120.644 215.757 125.741C216.719 126.07 217.629 126.397 218.455 126.692H218.458L218.459 126.693L218.889 126.847L218.946 126.867C219.203 126.96 219.32 127.002 219.335 126.978C219.347 126.958 219.289 126.894 219.184 126.777C218.844 126.401 218.013 125.48 217.42 123.737C216.356 120.612 218.877 117.58 224.271 120.6C228.885 123.184 235.343 129.828 238.919 133.676C239.621 131.709 241.34 131.898 243.233 132.107L243.763 132.163C244.302 132.218 244.845 132.276 245.388 132.339C245.506 122.388 244.346 112.463 241.938 102.808ZM215.142 164.033L215.292 155.647L216.04 155.58C220.404 155.185 225.511 154.725 231.219 154.597C231.989 154.58 232.022 154.747 232.089 155.078C232.178 155.526 232.328 156.274 234.429 157.276C237.013 158.507 239.389 159.648 241.574 160.698C232.536 194.993 208.203 223.059 176.328 237.127C171.362 228.748 169.661 226.932 166.966 229.417C166.511 229.837 166.508 229.6 166.496 228.766C166.477 227.195 166.429 223.513 163.302 218.109L162.544 216.791C159.021 210.658 155.342 204.251 151.075 205.325L149.07 200.937L149.067 200.932C146.901 196.189 144.218 190.32 140.918 183.044C141.913 183.399 143.401 183.394 145.524 183.388C146.504 183.381 147.484 183.387 148.464 183.404C150.132 183.437 151.282 183.464 152.271 183.486C154.147 183.531 155.446 183.562 158.61 183.591C158.105 185.246 157.941 186.987 158.128 188.709C158.315 190.43 158.849 192.095 159.697 193.603C160.381 194.831 160.59 195.349 160.253 196.386C157.748 204.118 170.241 208.86 173.584 200.807C173.812 200.259 173.953 200.14 174.534 199.994C182.945 197.893 185.766 190.177 183.982 183.719L194.414 183.758L197.253 193.214C198.391 196.932 199.405 196.636 207.803 194.197C209.379 193.738 211.217 193.205 213.363 192.609H213.364C215.879 191.91 218.009 191.372 219.798 190.921C224.613 189.705 226.973 189.11 227.763 187.657C228.521 186.262 227.833 184.078 226.482 179.794C226.008 178.289 225.452 176.523 224.848 174.443C224.432 173.004 224.022 171.563 223.618 170.12V170.119C221.884 163.956 221.605 162.956 219.686 162.956H219.639C219.255 162.954 219.099 162.953 215.142 164.033ZM129.766 246.903C135.289 246.905 140.804 246.513 146.272 245.732C145.039 242.354 145.644 241.6 148.078 240.801C148.788 240.569 147.091 239.578 144.312 237.957C141.904 236.552 138.684 234.673 135.514 232.402C125.238 237.41 114.87 242.342 113.891 242.342C111.72 242.342 103.742 223.926 96.1691 206.449C92.7785 198.62 89.4667 190.979 86.7973 185.266C85.4604 182.405 86.7125 181.85 96.3595 177.571C99.0333 176.385 102.353 174.912 106.441 173.025C110.825 171.001 114.419 169.301 117.38 167.902C126.92 163.391 129.857 162.001 131.372 162.934C132.046 163.349 132.437 164.224 133.004 165.491L133.125 165.763C135.349 170.718 137.379 175.224 139.233 179.322C138.727 155.701 139.721 107.325 140.304 83.9126C138.943 83.8649 137.376 83.8038 135.575 83.7338H135.573C131.737 83.5848 126.831 83.3925 120.556 83.2018C118.204 83.1303 116.202 83.0901 114.499 83.0543C106.313 82.8874 105.068 82.8621 105.154 80.2455C105.368 73.6891 105.63 66.8779 105.876 60.8609L103.694 59.9772C88.9492 54.0094 87.7416 53.5192 89.7076 49.2739C91.388 45.6456 93.0625 46.1 93.6931 46.2714C93.8626 46.3161 93.9563 46.3414 93.9563 46.2639C93.9563 45.1762 93.8834 44.0929 93.7927 42.9679C91.1278 44.1227 90.7411 43.1109 83.9569 25.3356L83.7264 24.7306C56.4809 36.5918 34.6857 58.663 23.1487 86.1224C32.7212 87.9477 35.0114 88.9327 33.5957 92.3212C33.3577 92.8934 33.5808 92.8159 34.369 92.5402C35.8472 92.0247 39.3181 90.8162 45.4539 91.9189L46.9559 92.1871C49.4751 92.6311 52.0344 93.0826 54.2949 93.6861C54.0272 89.7195 53.99 86.9807 54.3395 86.5337L54.4213 86.4279C54.5001 86.3265 54.57 86.2342 54.6473 86.1522C55.3254 85.4384 56.643 85.3371 69.346 84.3492C73.1232 84.0571 77.9073 83.6846 83.9807 83.1959C85.85 83.0454 87.4308 82.8934 88.7692 82.7637C93.003 82.3569 94.8322 82.1811 95.7364 83.0141C96.4249 83.6473 96.5766 84.8648 96.8443 87.0075L96.877 87.2683C97.2354 90.1292 101.984 135.148 101.897 137.981L101.896 137.982C101.851 139.45 101.146 140.149 99.7784 140.527C99.82 148.288 99.8155 156.736 99.8126 160.819V160.821V162.706L99.814 162.707C99.814 164.966 99.0155 165.842 96.7595 165.839C95.2689 165.838 93.7783 165.84 92.2877 165.845H92.2416C88.5536 165.853 84.7718 165.862 81.6638 165.801C83.9227 168.428 81.8437 171.917 75.5815 171.798V171.797C75.0238 171.786 74.6148 171.768 74.3263 171.756C73.9456 171.74 73.7806 171.733 73.7731 171.764C73.7672 171.788 73.8564 171.834 74.0111 171.916C74.1449 171.987 74.3308 172.084 74.5494 172.215C76.2626 173.251 77.5474 175.088 76.9303 176.961C75.6514 180.842 69.7564 179.703 60.3459 177.887C56.0378 177.055 50.9964 176.082 45.3231 175.382C44.5602 175.288 44.5096 175.452 44.41 175.775C44.2761 176.21 44.0501 176.939 41.8596 177.723C39.0281 178.738 36.4316 179.676 34.0582 180.536C31.5464 181.45 29.0312 182.355 26.5125 183.25C45.567 221.011 84.6499 246.903 129.766 246.903ZM16.2142 153.022C22.4899 152.276 28.941 151.801 35.0917 151.801L35.6241 151.798C37.5291 151.782 39.2586 151.765 39.7598 153.793C43.7006 150.323 50.7912 144.363 55.6437 142.256C57.1962 141.582 58.4885 141.338 59.5191 141.399C59.3436 140.591 59.2455 139.548 59.1176 138.22C59.0239 137.234 58.9153 136.09 58.7488 134.766L58.7175 134.518C58.5183 132.946 57.6617 126.188 56.7397 118.216L56.5716 118.186C55.7255 118.031 55.034 117.897 54.4778 117.79C53.1156 117.528 52.5594 117.42 52.5103 117.534C52.4761 117.611 52.6858 117.793 53.0397 118.103C53.929 118.878 55.7329 120.451 56.8928 123.159C58.3889 126.653 55.0265 129.919 48.7271 127.122C42.7132 124.449 36.958 119.635 33.3042 116.578C30.8356 114.513 29.3261 113.251 29.3485 113.998C29.4674 117.884 28.2629 117.782 17.0217 116.824H17.0202L16.995 116.821L15.0201 116.654C14.4307 121.428 14.1357 126.233 14.1367 131.043C14.1367 138.557 14.8505 145.905 16.2142 153.022ZM62.5052 143.854C62.6093 144.544 62.4889 145.313 62.1453 146.063C61.3795 147.739 60.4604 148.574 60.0857 148.913C59.9682 149.019 59.9057 149.076 59.9147 149.097C59.9281 149.122 60.0485 149.092 60.3117 149.025L60.3712 149.01L60.7385 148.919C64.2035 148.057 69.1675 146.821 73.1381 146.76C73.1426 145.43 73.1411 144.167 73.1381 142.974C71.8146 143.106 70.6249 143.233 69.5497 143.348C66.1977 143.707 63.9879 143.942 62.5067 143.854H62.5052ZM86.1192 69.4304C85.3741 71.4986 64.7656 80.8683 64.3567 81.0412C63.4079 81.4405 61.7141 81.0948 60.9348 79.5436C59.7407 77.1655 58.6923 75.1926 57.8149 73.5356C55.4042 68.9938 54.2606 66.8376 54.8124 65.2894C55.3135 63.8917 57.1992 62.9902 60.7906 61.2751C61.9684 60.7119 63.3306 60.0607 64.8891 59.2754C66.3664 58.5291 67.8407 57.7766 69.3118 57.0179H69.3133V57.0164H69.3147H69.3162L69.3192 57.0135C77.3987 52.8591 78.5795 52.2511 80.2094 55.5562C81.1671 57.4977 81.982 59.1383 82.6735 60.5301L82.678 60.5405L82.681 60.545V60.5465C86.3125 67.8554 86.5281 68.292 86.1192 69.4274V69.4304ZM122.18 90.6761C121.663 90.9711 121.478 90.9771 120.931 90.7357C106.627 84.4147 95.5163 103.692 107.711 113.166C115.693 119.368 127.287 114.635 128.75 104.896C128.959 103.506 129.112 102.968 130.011 102.355C136.723 97.7868 129.745 86.3593 122.18 90.6761ZM66.7272 212.741C67.3086 212.855 67.4529 212.968 67.7116 213.51L67.7101 213.512C74.4527 227.647 95.4151 220.281 92.3294 205.134C90.3099 195.219 78.4456 191.244 70.9952 197.668C69.9319 198.584 69.4679 198.892 68.3853 198.77C60.3236 197.857 58.1807 211.086 66.7272 212.741Z" fill="#F07D29"/>
<path fill-rule="evenodd" clip-rule="evenodd" d="M135.667 67.6527C135.28 67.6124 134.913 67.5811 134.566 67.5573C134.542 67.1104 134.405 66.6771 134.168 66.2982L135.72 66.3637C135.974 66.3742 136.419 67.7302 135.667 67.6527ZM108.759 62.0335L107.301 61.4405C107.049 67.4917 106.802 73.9051 106.591 80.2931C106.556 81.3302 106.828 81.3392 109.178 81.4137H109.236L140.342 82.4076L140.376 81.0516C139.578 81.0292 138.743 81.0084 137.893 80.9875H137.891C134.831 80.91 131.564 80.8266 129.03 80.6865C120.272 80.1992 115.14 80.1262 112.139 80.0815C107.944 80.0219 107.916 80.0219 107.969 79.0385C108.311 72.7711 108.564 67.1043 108.759 62.0335ZM140.518 75.7632L140.488 76.8287C138.123 76.8138 136.363 76.778 135.963 76.7482C135.412 76.708 135.393 76.5724 135.464 76.1939L135.473 76.1432C135.508 75.9644 135.533 75.8333 135.604 75.7424C135.797 75.5025 136.327 75.5323 138.254 75.6425C138.859 75.6768 139.603 75.7185 140.518 75.7632ZM140.678 70.6805C140.659 71.0638 140.644 71.4473 140.634 71.8309C137.9 71.8249 133.54 71.813 133.052 71.7907C132.292 71.7549 132.316 71.6402 132.382 71.3213L132.383 71.3108C132.399 71.2334 132.404 71.1514 132.408 71.0724C132.425 70.7848 132.441 70.5285 133.006 70.5464C136.662 70.6567 139.08 70.6731 140.678 70.6805ZM147.348 68.3426C147.638 62.5849 148.02 54.3253 148.569 42.4999L148.57 42.4582L149.091 31.2468C149.149 30.0234 147.656 30.0219 141.676 30.0189C136.275 30.0159 127.211 30.0115 112.32 29.0995L112.017 27.2086C113.448 27.2235 115.53 27.3159 118.565 27.4545C120.705 27.5513 123.318 27.6691 126.51 27.7957C128.804 27.8851 147.106 28.6555 149.37 29.0116L149.415 29.0206C149.659 29.0578 149.846 29.0876 149.989 29.1845C150.481 29.5212 150.419 30.6716 150.141 35.796V35.799C150.035 37.7659 149.895 40.3214 149.745 43.6399C149.38 51.6971 149.042 59.7555 148.732 67.8151V67.8181L148.713 68.3381C148.228 68.3381 147.775 68.3396 147.348 68.3426ZM124.411 75.2119H124.366C120.845 75.2104 118.51 75.1285 116.957 75.0748C114.126 74.975 113.888 74.9675 113.788 75.7051C113.784 75.7351 113.779 75.7649 113.773 75.7945C113.757 75.846 113.753 75.9008 113.763 75.954C113.845 76.249 114.893 76.2773 122.695 76.48L124.4 76.5247C124.97 76.5396 124.997 76.2788 125.034 75.9316L125.052 75.7752C125.129 75.203 124.802 75.2059 124.451 75.2104H124.411V75.2119ZM131.08 71.1529V71.1425C131.08 70.387 130.936 70.387 126.741 70.3885C125.749 70.3885 124.531 70.3885 123.035 70.3795C122.161 70.3751 122.119 71.6521 122.99 71.6595C124.949 71.6744 126.435 71.7012 127.559 71.7221C130.224 71.7713 130.872 71.7832 131.03 71.5105C131.08 71.4241 131.08 71.3064 131.08 71.1529ZM127.046 76.5768C126.552 76.5872 126.301 76.477 126.319 75.8914V75.8705C126.325 75.7215 126.328 75.6098 126.378 75.5278C126.531 75.279 127.107 75.2953 129.407 75.3564C130.27 75.3788 131.373 75.4086 132.789 75.4339C133.855 75.4533 134.255 75.4622 134.205 76.1745C134.181 76.5053 134.124 76.6498 133.735 76.7094C133.461 76.7512 131.683 76.696 130.005 76.6454C129.019 76.6082 128.033 76.5859 127.046 76.5783V76.5768ZM137.34 66.6111C137.294 66.6916 137.291 66.7974 137.286 66.93V66.9464C137.264 67.7659 137.563 67.7614 139.306 67.7361C140.652 67.7108 141.998 67.7307 143.343 67.7957C143.725 67.8225 144.024 67.8434 144.036 67.2399C144.048 66.6588 143.67 66.6543 143.333 66.6498L143.178 66.6439L142.116 66.5813C138.309 66.3518 137.514 66.3041 137.34 66.6111Z" fill="#180B02"/>
<path fill-rule="evenodd" clip-rule="evenodd" d="M74.4876 146.79C74.4772 145.486 74.4713 144.161 74.4668 142.843C75.0527 142.786 75.6624 142.728 76.2974 142.671L76.3093 147.049C75.7101 146.911 75.1001 146.824 74.4861 146.79H74.4876ZM79.2761 164.114C82.9478 164.219 84.1524 164.248 85.357 164.254C85.8418 164.255 86.328 164.254 86.9779 164.251C88.526 164.245 91.0021 164.234 96.6204 164.267H96.662C97.8502 164.275 98.228 164.278 98.3157 161.46C98.3603 160.007 98.4674 150.026 98.4049 140.791C97.8547 140.862 97.2375 140.916 96.555 140.967C96.5639 144.847 96.5817 149.608 96.6025 155.444V155.449L96.6234 161.384V161.388C96.6263 162.135 96.6278 162.394 95.7088 162.457C94.5265 162.536 85.1101 162.561 79.7847 162.573C79.0858 162.869 78.4062 163.062 77.9392 163.196C77.4306 163.339 77.1719 163.413 77.4039 163.471C78.0983 163.649 78.7214 163.866 79.2747 164.114H79.2761ZM76.3108 154.997V154.744C76.1472 154.814 75.9807 154.881 75.8097 154.945C75.9732 154.962 76.1413 154.978 76.3108 154.997Z" fill="#180B02"/>
<path fill-rule="evenodd" clip-rule="evenodd" d="M127.695 164.935C130.407 163.677 130.484 163.716 131.69 166.41C137.599 179.634 143.558 192.834 149.568 206.012C149.36 206.149 149.152 206.304 148.942 206.479C148.655 206.31 148.353 206.168 148.041 206.054C144.356 198.301 138.648 186.06 130.015 166.638C129.969 166.505 129.896 166.384 129.801 166.28C129.032 165.586 125.7 167.739 92.4091 182.919C91.0826 183.522 90.4238 183.81 90.2424 184.282C90.064 184.746 90.3465 185.386 90.9146 186.678C112.106 234.92 113.504 238.955 114.56 238.866C114.652 238.858 114.743 238.818 114.844 238.775H114.847C117.634 237.548 124.929 233.966 132.612 230.183C133.08 230.566 133.555 230.941 134.034 231.306C125.063 235.675 116.437 239.845 115.152 240.369C113.575 241.011 113.553 240.985 112.856 239.456C99.754 210.742 93.2033 195.865 90.1993 189.042C89.5519 187.554 88.8926 186.072 88.2214 184.595C88.1054 184.348 88.0102 184.145 88.0117 183.944C88.0207 182.539 92.7066 181.165 127.695 164.935Z" fill="#180B02"/>
<path d="M103.487 204.562C103.084 204.534 103.072 204.147 102.911 203.884C102.401 203.057 102.647 203.458 121.935 194.218C122.69 193.856 123.013 193.929 123.379 194.707C123.808 195.622 123.655 195.284 103.487 204.562Z" fill="#180B02"/>
<path d="M130.497 183.844C130.584 184.497 130.619 184.154 116.632 190.673C116.085 190.928 115.915 190.657 115.73 190.235C115.218 189.071 115.426 189.648 129.359 183.112C130.335 182.655 130.143 183.62 130.498 183.844H130.497Z" fill="#180B02"/>
<path d="M115.023 211.754C114.467 211.666 114.523 211.146 114.343 210.818C114.027 210.241 113.415 210.582 125.723 204.959C127.075 204.34 127.594 205.838 126.44 206.412C124.911 207.171 116.573 211.035 115.021 211.754H115.023Z" fill="#180B02"/>
<path d="M127.686 199.071C127.715 199.518 127.765 199.243 117.879 203.849C117.385 204.078 117.128 204.006 117.013 203.495C116.923 203.089 116.35 202.661 117.143 202.294C120.248 200.861 123.333 199.383 126.437 197.948C126.931 197.72 127.715 198.484 127.686 199.07V199.071Z" fill="#180B02"/>
<path d="M116.079 204.352C116.183 204.838 116.217 204.659 106.474 209.18C105.929 209.432 105.499 209.612 105.137 208.807C104.75 207.951 105.394 207.906 105.803 207.708C114.862 203.331 115.906 202.479 116.079 204.351V204.352Z" fill="#180B02"/>
<path d="M126.106 173.783C126.069 174.322 126.214 173.999 115.311 179.301C114.851 179.524 114.691 179.405 114.521 178.957C114.019 177.63 114.135 178.246 125.181 173.111C125.973 172.743 125.917 173.404 126.106 173.783Z" fill="#180B02"/>
<path d="M134.732 189.968C134.694 190.198 134.376 190.257 134.14 190.369C124.6 194.854 124.772 195.151 124.481 194.072C124.368 193.653 123.886 193.281 124.679 192.928C127.651 191.604 130.593 190.205 133.552 188.843C134.024 188.626 134.788 189.287 134.732 189.968Z" fill="#180B02"/>
<path d="M109.698 187.964C109.786 188.393 109.838 188.241 98.9223 193.439C98.5921 193.597 98.2293 193.922 97.9467 193.275C97.6939 192.695 97.9185 192.494 98.4003 192.26C109.781 186.711 109.148 186.313 109.698 187.964Z" fill="#180B02"/>
<path d="M128.096 197.598C127.775 197.118 127.521 197.49 136.451 193.287C137.215 192.928 137.196 193.631 137.455 193.962C138.081 194.761 137.644 194.606 129.268 198.598C128.435 198.995 128.404 198.055 128.098 197.599L128.096 197.598Z" fill="#180B02"/>
<path d="M119.935 183.13C119.954 183.512 119.986 183.227 111.829 187.288C111.304 187.55 111.124 187.361 110.914 186.923C110.459 185.972 110.525 186.257 118.787 182.242C119.318 181.985 119.986 182.525 119.935 183.13Z" fill="#180B02"/>
<path d="M112.655 178.915C113.101 178.991 113.131 179.419 113.287 179.726C113.461 180.065 113.256 180.234 112.957 180.372C105.414 183.874 105.383 184.163 105.213 183.47C105.135 183.148 104.66 182.721 105.12 182.493C107.62 181.275 110.133 180.083 112.656 178.915H112.655Z" fill="#180B02"/>
<path d="M103.942 184.305C103.999 184.632 104.052 184.538 96.2866 188.024C95.9714 188.165 95.6085 188.383 95.381 187.848C95.033 187.028 95.3155 187.379 102.797 183.537C103.688 183.08 103.7 183.795 103.942 184.306V184.305Z" fill="#180B02"/>
<path d="M108.169 194.538C107.751 194.629 107.842 194.188 107.741 193.987C107.589 193.685 107.348 193.294 107.854 193.057C114.606 189.909 114.327 189.657 114.855 190.615C115.431 191.658 115.255 191.296 108.168 194.538H108.169Z" fill="#180B02"/>
<path d="M106.987 194.78C106.984 195.184 107.134 195.082 100.866 197.887C100.472 198.063 100.052 198.265 99.7935 197.61C99.3726 196.549 99.8916 196.987 105.751 194.007C106.755 193.497 106.622 194.476 106.987 194.778V194.78Z" fill="#180B02"/>
<path d="M113.793 212.046C113.852 212.622 113.43 212.326 108.716 214.747C108.017 215.106 107.913 214.659 107.653 214.23C107.34 213.714 107.452 213.48 107.996 213.244C111.424 211.746 113.787 210.001 113.793 212.046Z" fill="#180B02"/>
<path d="M89.5895 112.271C89.5865 112.236 87.6904 95.437 87.5135 94.4699C87.2755 93.1676 86.532 93.6653 82.9867 94.0602C81.3985 94.239 81.8966 94.09 83.3332 107.888C83.9503 113.814 83.757 114.996 85.497 114.568C88.5797 113.81 89.9003 115.309 89.5895 112.271ZM86.822 113.437C84.4099 113.837 85.1296 113.768 83.3719 95.8483C83.177 95.1554 83.4908 94.9602 84.1898 94.9393C87.8258 94.8216 86.0799 94.4729 88.3002 111.673C88.5128 113.324 88.495 113.16 86.822 113.437Z" fill="#180B02"/>
<path d="M80.5703 113.771C80.5703 113.723 79.5323 104.012 78.4541 97.6884C78.3471 97.064 78.5359 95.9644 77.6898 96.0404C76.8525 96.1149 77.1752 96.927 79.1114 113.881C79.168 114.376 79.2408 114.826 79.8282 114.814C80.4796 114.801 80.5822 114.31 80.5703 113.771Z" fill="#180B02"/>
<path d="M81.3326 121.323C81.1557 119.986 79.618 120.283 79.7414 121.363C81.117 133.437 81.0025 133.545 81.9364 133.452C82.8584 133.361 82.8644 132.889 81.3326 121.323Z" fill="#180B02"/>
<path d="M74.3743 97.9373C74.2434 97.0298 73.1474 96.9881 73.1504 98.0193C73.1563 99.633 73.2292 99.8476 73.9519 107.064C74.0679 108.223 75.3335 108.138 75.2889 106.976C75.1892 104.41 74.7059 100.238 74.3743 97.9373Z" fill="#180B02"/>
<path fill-rule="evenodd" clip-rule="evenodd" d="M58.3482 118.526C59.6941 130.879 61.1752 142.343 62.0615 142.278C66.2314 141.966 67.6115 141.865 68.99 141.746C71.0036 141.573 73.0142 141.366 83.711 140.424C87.4035 140.099 90.2737 139.868 92.5043 139.688C100.261 139.062 100.288 139.059 100.322 137.931C100.392 135.68 96.0496 93.914 95.8384 91.883L95.831 91.807H95.8295C95.6719 90.5375 95.547 89.4706 95.4429 88.5735C94.9268 84.1301 94.8971 83.8857 93.6911 83.9885C60.167 86.8197 55.6848 86.623 55.3071 87.7778C55.2357 87.9939 55.3085 88.2576 55.3621 88.5959C55.3918 88.7836 55.5376 90.3274 55.7696 92.7786L55.9004 94.1599C58.1207 94.89 59.9127 95.8288 60.8719 97.152L60.7261 95.8765C60.6052 94.8323 60.4872 93.7877 60.3722 92.7428C60.3424 92.4046 60.3201 92.1468 60.4153 91.9456C60.9284 90.8534 64.8767 91.3794 89.8469 89.4333C90.922 89.3499 90.9354 89.5093 91.1793 92.6922C91.3132 94.4162 91.5139 97.0253 91.9883 100.962C92.6267 106.304 93.1681 111.658 93.6122 117.019C93.7208 118.28 93.8056 119.263 93.8755 119.944C94.9908 130.722 95.8697 133.319 95.0562 134.066C94.7722 134.327 94.2829 134.363 93.523 134.442L93.5245 134.443C88.2289 134.996 86.5529 135.143 85.0732 135.273C83.8805 135.377 82.8128 135.471 80.081 135.757C75.1973 136.268 71.9137 136.686 69.7038 136.966C65.1473 137.545 65.1473 137.545 65.0744 136.592C64.8142 133.163 64.1272 126.489 63.3539 119.365C61.6767 119.139 60.0073 118.86 58.3482 118.526ZM61.376 101.584C61.3635 101.474 61.3511 101.364 61.3388 101.254C61.3137 101.331 61.2874 101.408 61.26 101.484L61.376 101.584Z" fill="#180B02"/>
<path d="M63.7451 79.5883C62.3606 79.6821 62.8751 80.01 56.3571 66.8748C55.6611 65.4726 56.2589 65.3877 65.5951 60.682C78.1642 54.3476 77.724 54.0824 78.8021 56.2564C85.2845 69.3275 85.628 68.7031 83.0672 70.0189C79.5978 71.8025 67.338 78.0654 63.7451 79.5868V79.5883ZM83.2531 68.2204C82.7876 67.2175 80.0617 62.1065 77.6481 57.3129C77.0652 56.1566 77.2749 56.6394 68.2838 61.2184C57.8145 66.55 57.6033 66.0627 58.1773 67.1743C63.9473 78.3381 63.4328 78.6361 64.502 78.0132C67.509 76.2594 83.1074 68.7538 83.2516 68.2218L83.2531 68.2204Z" fill="#180B02"/>
<path d="M62.7149 66.5216C63.5551 66.4113 63.2384 66.3219 66.7123 72.6995C67.2596 73.7053 65.2847 74.4325 64.1545 74.8557C63.5001 75.1015 61.8093 71.0336 60.572 68.4676C60.0456 67.3769 61.7364 66.9924 62.7134 66.5231L62.7149 66.5216Z" fill="#180B02"/>
<path d="M79.9943 66.0896C80.485 67.1386 79.5005 67.7853 78.8626 66.714C73.9075 58.4022 75.5121 56.5158 79.9943 66.0896Z" fill="#180B02"/>
<path d="M76.4628 65.8035C76.5282 67.0642 75.5601 66.9628 75.3058 66.4592C73.0394 61.98 72.9532 61.7535 73.4841 61.4316C74.0314 61.1008 74.2604 61.1381 76.4628 65.8035Z" fill="#180B02"/>
<path d="M168.736 136.209C160.036 136.435 153.017 143.713 153.213 152.297C153.42 161.292 160.598 168.332 169.359 168.131C178.354 167.925 185.33 160.718 185.158 151.809C184.988 143.025 177.571 135.978 168.736 136.207V136.209ZM164.445 138.626C169.272 136.89 174.818 137.735 178.942 141.491C180.021 142.475 179.571 142.004 173.136 147.879C172.205 148.73 171.344 146.842 169.018 147.385C168.081 147.604 168.48 147.27 163.972 139.925C163.52 139.188 163.693 138.897 164.444 138.627L164.445 138.626ZM173.396 152.461C173.491 157.233 166.353 157.249 166.228 152.651C166.102 148.012 173.3 147.614 173.396 152.461ZM155.228 154.078C154.789 147.715 156.964 143.345 161.343 140.237C162.591 139.35 162.192 139.694 166.75 147.542C167.433 148.718 164.799 148.73 164.655 152.285C164.621 153.121 164.744 152.738 155.952 154.57C155.487 154.667 155.264 154.582 155.23 154.078H155.228ZM173.509 165.745C165.586 168.106 157.823 163.187 155.842 156.712C155.481 155.531 155.606 156.093 164.375 154.242C164.894 154.132 164.987 154.386 165.18 154.725C168.593 160.673 177.188 156.565 174.241 150.064C174.004 149.544 174.089 149.281 174.474 148.922C180.76 143.051 180.293 142.823 181.058 143.905C186.603 151.746 182.709 163.005 173.509 165.745Z" fill="#180B02"/>
<path d="M175.03 136.677C175.436 136.875 175.731 136.583 175.938 136.258C177.967 133.08 180.507 130.091 179.637 125.857C179.451 124.95 179.702 123.647 179.592 123.647C179.592 116.483 179.793 116.008 178.737 115.97C177.687 115.933 177.837 115.926 177.944 128.744C177.967 131.388 173.818 136.084 175.028 136.677H175.03Z" fill="#180B02"/>
<path d="M175.955 94.7292C176.646 105.707 176.248 105.956 177.301 105.924C178.773 105.88 177.656 99.277 177.408 85.2373C177.397 84.686 177.256 84.2047 176.631 84.2136C175.672 84.227 175.955 84.4684 175.955 94.7307V94.7292Z" fill="#180B02"/>
<path d="M164.549 95.1926C165.24 106.17 164.842 106.419 165.894 106.388C167.367 106.343 166.25 99.7403 166.002 85.7007C165.991 85.1494 165.85 84.6681 165.225 84.677C164.266 84.6904 164.549 84.9303 164.549 95.1941V95.1926Z" fill="#180B02"/>
<path d="M169.956 97.0494C170.661 106.346 170.241 106.412 171.301 106.386C172.711 106.353 171.755 105.401 171.409 89.134C171.398 88.6736 171.257 88.2712 170.632 88.2802C169.67 88.2951 169.956 88.4694 169.956 97.0494Z" fill="#180B02"/>
<path d="M154.674 143.643C155.354 142.679 151.419 141.065 150.28 138.963C149.45 137.431 151.183 129.074 149.443 129.138C148.26 129.182 149.254 132.521 148.687 136.298C148.136 139.979 150.509 141.114 153.748 143.717C154.066 143.972 154.371 144.071 154.673 143.641L154.674 143.643Z" fill="#180B02"/>
<path d="M188.023 165.58C187.851 173.399 187.894 173.647 188.661 173.706C189.592 173.774 189.75 173.445 189.307 164.5C189.253 163.412 189.038 163.39 184.941 161.114C183.909 160.541 183.205 161.406 184.292 162.138C187.454 164.264 188.055 164.142 188.022 165.58H188.023Z" fill="#180B02"/>
<path d="M149.573 128.212C151.382 128.231 151.416 125.523 149.63 125.51C147.755 125.495 147.818 128.192 149.573 128.212Z" fill="#180B02"/>
<path d="M188.433 174.613C186.53 174.707 186.433 177.493 188.386 177.437C190.427 177.377 189.971 174.537 188.433 174.613Z" fill="#180B02"/>
<path d="M177.201 113.795C177.233 115.512 179.841 115.526 179.805 113.777C179.77 112.028 177.17 112.078 177.201 113.796V113.795Z" fill="#180B02"/>
<path d="M150.143 88.6587C150.56 110.42 149.633 110.325 151.92 110.307C159.582 110.25 159.57 110.477 159.463 109.326C159.466 109.296 159.503 97.033 159.334 97.033C159.334 87.1045 159.45 87.0971 158.154 87.2461C156.913 87.1418 151.097 87.3534 150.863 87.34C150.014 87.2952 150.126 87.7333 150.143 88.6572V88.6587ZM152.829 88.842C155.396 88.982 157.145 88.6617 157.5 89.1355C157.762 109.636 158.189 108.773 156.798 108.697C154.231 108.557 152.483 108.878 152.127 108.404C151.865 87.9032 151.439 88.766 152.829 88.842Z" fill="#180B02"/>
<path fill-rule="evenodd" clip-rule="evenodd" d="M212.609 78.0774L212.61 77.7288C212.622 75.1241 212.628 73.6325 212.633 73.5088C212.636 73.4377 212.641 73.3666 212.647 73.2957C212.661 73.1259 212.673 72.9828 212.625 72.8651C212.39 72.281 210.698 72.287 200.618 72.3168C191.124 72.3451 174.189 72.3957 144.023 71.9964C144.024 72.0187 143.061 126.793 142.515 157.841L142.513 157.867L142.148 178.688V178.703C142.142 178.989 142.137 179.208 142.228 179.374C142.516 179.9 143.766 179.898 148.987 179.892H148.988C151.545 179.889 155.054 179.886 159.871 179.943L160.341 179.948C159.927 180.563 159.563 181.211 159.254 181.886C153.746 181.842 148.237 181.793 142.729 181.737C141.047 181.722 140.852 181.53 140.814 179.812C140.104 148.122 142.075 74.3135 142.232 70.9608C142.271 70.1472 142.512 69.9669 143.305 69.9803C170.761 70.4303 187.682 70.4825 198.094 70.5152C211.819 70.557 214.236 70.5644 214.569 71.4033C214.64 71.5821 214.616 71.7997 214.588 72.0634L214.563 72.3153C214.527 72.7474 214.497 75.0287 214.469 78.4068C213.839 78.298 213.218 78.1892 212.609 78.0789V78.0774ZM183.4 182.037L193.922 182.113L193.391 180.344L182.469 180.213C182.826 180.797 183.137 181.406 183.4 182.037ZM213.662 164.44L211.757 164.965C211.809 161.971 211.859 158.957 211.905 155.939C212.508 155.892 213.129 155.839 213.77 155.784L213.767 156.027V156.043C213.729 159.202 213.694 161.986 213.662 164.44ZM212.402 112.466C212.37 116.52 212.333 120.574 212.293 124.628C212.925 124.815 213.554 125.011 214.181 125.215L214.216 122.882C214.249 122.849 214.277 118.067 214.309 111.454C213.688 111.818 213.051 112.156 212.402 112.466Z" fill="#180B02"/>
<path d="M226.508 186.107C226.528 187.818 226.339 187.374 212.946 191.09C199.053 194.945 199.584 195.468 198.76 192.755L193.183 174.185C192.438 171.525 192.215 172.02 202.975 169.033C208.058 167.621 213.139 166.21 218.232 164.832C220.274 164.279 220.274 164.318 220.878 166.398C226.586 186.087 226.034 184.018 226.508 186.109V186.107ZM200.704 192.862C201.48 192.6 211.71 189.714 212.498 189.493C224.971 186.006 225.066 186.389 224.758 185.374C218.973 166.283 219.607 166.115 218.487 166.443C192.885 173.919 194.439 172.989 194.812 174.063C196.396 178.626 200.033 192.831 200.704 192.862Z" fill="#180B02"/>
<path d="M201.048 189.982C199.632 185.123 198.185 180.269 196.958 175.355C196.677 174.23 197.174 174.458 201.686 173.054C203.208 172.58 202.786 172.759 207.161 187.89C207.362 188.583 207.142 189.034 206.349 189.226C203.757 189.854 201.509 191.569 201.046 189.983L201.048 189.982ZM205.787 187.754C205.454 186.389 205.683 187.367 202.831 177.136C201.953 173.987 201.965 174.006 199 175.131C198.286 175.403 198.133 175.702 198.359 176.446C202.437 189.883 201.012 189.813 205.014 188.444C205.473 188.287 205.992 188.201 205.787 187.754Z" fill="#180B02"/>
<path d="M206.391 175.407C206.139 175.353 205.372 172.932 205.472 172.507C205.521 172.299 207.853 171.64 208.186 171.741C208.372 171.798 209.032 174.266 208.95 174.602C208.888 174.86 206.843 175.502 206.389 175.406L206.391 175.407Z" fill="#180B02"/>
<path d="M207.793 179.53C207.542 179.477 206.774 177.055 206.874 176.63C206.923 176.422 209.255 175.763 209.588 175.865C209.774 175.921 210.434 178.389 210.352 178.725C210.29 178.983 208.245 179.626 207.792 179.529L207.793 179.53Z" fill="#180B02"/>
<path d="M209 183.649C208.749 183.595 207.981 181.174 208.081 180.749C208.13 180.541 210.462 179.882 210.795 179.983C210.981 180.04 211.641 182.508 211.56 182.844C211.497 183.102 209.452 183.744 208.999 183.647L209 183.649Z" fill="#180B02"/>
<path d="M210.34 187.772C210.089 187.718 209.321 185.297 209.421 184.872C209.47 184.664 211.802 184.005 212.135 184.106C212.321 184.163 212.981 186.631 212.899 186.967C212.837 187.225 210.792 187.867 210.339 187.77L210.34 187.772Z" fill="#180B02"/>
<path d="M210.75 174.075C210.499 174.021 209.731 171.6 209.831 171.175C209.88 170.967 212.212 170.308 212.545 170.409C212.731 170.466 213.391 172.934 213.31 173.27C213.247 173.528 211.202 174.17 210.749 174.073L210.75 174.075Z" fill="#180B02"/>
<path d="M212.153 178.195C211.901 178.142 211.134 175.72 211.233 175.295C211.283 175.087 213.614 174.428 213.947 174.53C214.133 174.586 214.794 177.054 214.712 177.391C214.649 177.648 212.605 178.291 212.151 178.194L212.153 178.195Z" fill="#180B02"/>
<path d="M213.361 182.315C213.11 182.262 212.343 179.84 212.442 179.415C212.492 179.207 214.823 178.548 215.156 178.65C215.342 178.706 216.003 181.174 215.921 181.511C215.858 181.768 213.814 182.411 213.36 182.314L213.361 182.315Z" fill="#180B02"/>
<path d="M214.697 186.438C214.446 186.385 213.679 183.963 213.778 183.539C213.827 183.33 216.159 182.671 216.492 182.773C216.678 182.829 217.339 185.297 217.257 185.634C217.194 185.891 215.15 186.534 214.696 186.437L214.697 186.438Z" fill="#180B02"/>
<path d="M214.697 172.925C214.446 172.871 213.679 170.45 213.778 170.025C213.827 169.816 216.159 169.158 216.492 169.259C216.678 169.316 217.339 171.783 217.257 172.12C217.194 172.378 215.15 173.02 214.696 172.923L214.697 172.925Z" fill="#180B02"/>
<path d="M216.102 177.043C215.85 176.99 215.083 174.568 215.183 174.144C215.232 173.935 217.564 173.276 217.897 173.378C218.083 173.434 218.743 175.902 218.661 176.239C218.599 176.496 216.554 177.139 216.1 177.042L216.102 177.043Z" fill="#180B02"/>
<path d="M217.311 181.165C217.059 181.111 216.292 178.69 216.392 178.265C216.441 178.057 218.773 177.398 219.106 177.499C219.292 177.556 219.952 180.024 219.87 180.36C219.808 180.618 217.763 181.26 217.309 181.163L217.311 181.165Z" fill="#180B02"/>
<path d="M218.647 185.285C218.395 185.231 217.628 182.81 217.728 182.385C217.777 182.177 220.108 181.518 220.442 181.619C220.627 181.676 221.288 184.144 221.206 184.48C221.144 184.738 219.099 185.38 218.645 185.284L218.647 185.285Z" fill="#180B02"/>
<path d="M164.755 233.442C168.363 230.293 169.017 229.152 170.259 230.797C171.863 232.922 172.495 234.077 184.129 253.567C184.767 254.635 185.28 255.531 184.444 256.057C183.513 256.641 183.073 255.884 181.085 252.58C167.793 230.491 169.393 232.089 168.267 233.005C163.803 236.641 159.263 241.034 150.437 243.734C148.64 244.284 149.027 243.568 157.319 261.354C159.192 265.368 159.52 266.148 158.631 266.574C157.294 267.213 157.238 265.963 151.67 254.059C150.214 250.944 148.829 247.803 147.559 244.607C146.411 241.721 148.062 243.098 152.208 240.932C143.977 235.969 128.59 227.541 127.961 221.846C127.332 216.151 138.742 223.375 139.429 222.677C140.659 221.429 130.551 208.593 130.761 203.568C130.924 199.645 135.09 202.408 137.844 206.052C139.414 208.13 139.612 209.974 142.002 209.04C142.848 208.709 143.795 208.732 144.616 208.048C145.818 207.046 147.213 207.155 148.478 208.039C148.947 208.366 149.167 208.423 149.635 207.963C154.067 203.61 158.647 213.166 161.943 218.887C165.238 224.607 165.235 228.231 164.755 233.44V233.442ZM163.39 230.508C163.836 222.692 158.946 215.735 153.941 209.48C153.082 208.407 151.65 207.849 150.468 209.076C149.571 210.006 152.287 211.534 151.191 212.335C150.046 213.171 147.653 206.972 145.177 209.432C144.477 210.129 145.43 210.441 145.758 210.868C146.617 211.986 148.017 213.185 147.366 213.799C146.728 214.401 145.678 213.165 144.309 211.454C143.024 209.849 140.411 209.863 141.434 211.423C143.859 215.123 143.992 215.242 143.491 215.602C141.956 216.705 134.441 201.891 132.357 203.378C129.589 205.351 149.344 229.389 136.712 223.425C124.081 217.462 129.582 225.051 142.179 233.086C145.834 235.416 149.652 237.469 153.398 239.648C154.049 240.026 154.641 240.02 155.35 239.682C164.759 235.204 163.168 234.331 163.387 230.508H163.39Z" fill="#180B02"/>
<path d="M45.1854 93.4849C51.403 94.5935 62.2188 95.6574 59.6223 101.353C59.3487 101.952 59.4781 102.136 59.9465 102.469C61.2091 103.363 61.7861 104.637 61.2552 106.112C60.8938 107.118 61.2359 108.003 61.215 108.91C61.1526 111.479 62.9505 111.038 65.4355 111.81C69.8567 113.181 73.7648 116.158 70.1794 117.635C65.5782 119.527 50.0468 114.404 49.2973 115.981C48.8853 116.848 59.7398 125.1 53.9877 126.501C48.2355 127.9 35.1563 116.128 27.8188 110.163C27.1898 114.875 29.0799 115.893 25.954 115.796C22.5259 115.681 19.1021 115.463 15.6869 115.143C2.84121 113.971 1.42547 114.343 1.57418 112.849C1.67084 111.868 2.47984 111.905 6.9174 112.303C26.2618 114.039 25.893 114.692 25.7964 112.78C25.3428 103.878 27.6508 98.4752 29.7878 92.3301C30.2681 90.9443 32.2861 91.9128 7.05272 86.9255C3.19365 86.1626 2.42332 85.9838 2.64639 84.9467C2.86946 83.9096 3.93275 84.1718 5.08973 84.3953C26.8686 88.6093 28.6144 88.9058 31.1797 89.703C33.1576 90.3169 32.2936 91.3392 30.573 95.7975C34.9615 93.7263 38.7254 92.339 45.1869 93.4879L45.1854 93.4864V93.4849ZM31.9218 96.8957C29.7134 97.3472 28.671 98.952 27.9185 106.774C27.8426 107.559 28.0374 108.115 28.6174 108.602C31.0206 110.618 47.1216 125.044 52.9377 125.142C55.8912 125.193 51.6202 120.877 49.5248 118.791C39.692 108.997 68.9183 119.317 69.818 116.064C70.4961 113.612 54.0471 111.539 54.5542 109.739C54.7238 109.137 54.9498 109.247 59.1777 110.253C60.9667 110.679 60.1592 108.232 58.1679 107.556C56.1767 106.879 54.5706 106.298 54.9275 105.473C55.2844 104.647 56.8875 105.559 58.2245 105.987C58.7375 106.151 59.3561 106.945 59.7681 106.046C61.2299 102.871 54.5959 102.738 54.9929 101.367C55.3692 100.07 57.7337 102.095 58.2988 100.94C59.0201 99.4646 58.098 98.2666 56.7388 97.8047C39.0005 91.7638 33.6022 96.553 31.9218 96.8957Z" fill="#180B02"/>
<path d="M55.3452 151.478C60.4787 151.339 77.6772 144.997 78.052 150.599C78.3346 154.835 66.1506 154.44 63.2061 157.283C65.1944 157.06 80.65 154.856 81.1125 158.919C81.3683 161.163 76.608 162.023 74.3654 162.238C51.8624 164.394 75.5165 162.688 80.0611 166.322C82.0583 167.919 80.7779 170.309 75.6102 170.223C54.508 169.874 67.95 170.038 73.7349 173.564C75.7321 174.781 76.2422 176.8 74.2703 177.554C70.3577 179.05 66.5268 176.565 42.7508 173.479C43.1657 175.528 43.185 175.578 41.3351 176.243C32.7425 179.329 17.2006 185.389 13.3921 185.203C7.71431 184.926 36.029 176.022 40.1156 174.813C42.1381 174.214 38.0798 169.527 37.018 159.222C36.5897 155.07 36.9481 154.841 35.977 154.911C5.76172 157.076 3.05517 158.816 0.251953 157.763C2.13911 155.261 28.5503 153.285 36.9421 153.401C39.0122 153.43 37.8284 154.891 38.7163 156.872C60.7241 136.61 65.2256 142.448 57.3141 149.396C55.1504 151.297 55.1251 151.022 55.3452 151.479V151.478ZM79.7622 158.982C73.8271 155.66 60.9145 160.873 59.9687 157.784C59.1909 155.246 73.1475 152.755 75.5849 151.682C77.649 150.774 77.7397 148.228 62.2514 151.659C59.0645 152.366 54.5511 153.977 53.6588 152.007C52.7651 150.037 57.6949 148.281 59.695 144.231C51.9799 146.289 45.7592 153.427 39.1817 157.96C38.0143 158.764 41.3737 169.867 41.8214 171.212C42.208 172.379 42.7047 171.695 45.7934 172.041C63.3637 174.014 68.4185 176.689 73.0389 176.261C74.1677 176.157 74.0799 175.616 73.3289 175.148C69.8803 173.007 67.2198 172.992 63.6344 171.801C60.3062 170.695 61.02 168.334 64.1311 168.347C78.3197 168.404 78.2468 168.641 79.377 167.793C75.857 164.622 62.5979 166.462 62.2945 163.267C61.9331 159.457 76.1619 162.4 79.7637 158.982H79.7622Z" fill="#180B02"/>
<path d="M212.207 103.472C207.073 103.61 189.875 109.952 189.5 104.351C189.218 100.114 201.401 100.509 204.346 97.6661C202.358 97.8896 186.902 100.093 186.44 96.03C186.184 93.7859 190.944 92.9261 193.187 92.7115C215.69 90.5554 192.036 92.2615 187.491 88.6272C185.494 87.0298 186.774 84.6397 191.942 84.7261C213.044 85.0748 199.602 84.9109 193.817 81.3854C191.82 80.168 191.31 78.1489 193.282 77.3949C197.194 75.8988 201.025 78.3843 224.801 81.4703C224.386 79.4214 224.367 79.3693 226.217 78.7062C234.81 75.6202 250.351 69.56 254.16 69.7463C259.838 70.0234 231.523 78.9252 227.436 80.1367C225.414 80.7357 229.472 85.422 230.534 95.7275C230.962 99.8789 230.604 100.108 231.575 100.038C258.532 98.1072 263.594 96.5128 266.362 96.9389C266.696 96.9926 266.869 97.5648 266.458 97.7495C261.487 99.9787 238.361 101.654 230.61 101.548C228.54 101.518 229.724 100.058 228.836 98.0759C206.828 118.34 202.326 112.5 210.238 105.553C212.402 103.653 212.427 103.927 212.207 103.47V103.472ZM187.79 95.9674C193.725 99.2888 206.638 94.075 207.583 97.1654C208.361 99.7031 194.405 102.194 191.967 103.267C189.903 104.175 189.812 106.721 205.301 103.29C208.488 102.583 213.001 100.973 213.893 102.943C214.786 104.912 209.857 106.668 207.857 110.718C215.572 108.66 221.793 101.522 228.37 96.9896C229.538 96.185 226.178 85.0823 225.731 83.7367C225.344 82.57 224.847 83.2539 221.759 82.9082C204.188 80.9354 199.134 78.2592 194.513 78.6883C193.384 78.7926 193.472 79.3335 194.223 79.8014C197.672 81.9427 200.332 81.9576 203.918 83.1481C207.246 84.2538 206.532 86.6156 203.421 86.6022C189.232 86.5456 189.305 86.3086 188.175 87.1565C191.695 90.3274 204.954 88.4871 205.258 91.6819C205.619 95.4921 191.39 92.5491 187.788 95.9674H187.79Z" fill="#180B02"/>
<path d="M223.815 129.515C221.472 127.09 219.632 125.373 218.902 123.227C217.696 119.69 222.513 117.535 239.652 136.835C240.74 134.941 239.693 133.384 241.762 133.564C258.874 135.051 274.4 139.416 277.359 141.068C278.122 141.494 278.098 141.909 277.004 141.877C275.411 141.833 271.607 141.035 265.11 139.529C257.649 137.799 250.114 136.473 242.574 135.161C240.74 134.843 243.599 136.115 236.069 153.279C235.29 155.057 235.857 153.706 259.92 165.176C264.112 167.175 263.112 168.387 259.737 167.118C251.266 163.931 243.256 159.735 235.106 155.851C233.331 155.006 233.354 154.956 233.974 152.961C209.963 153.645 205.964 155.738 202.206 153.849C200.014 152.746 200.771 149.603 207.808 148.501C209.523 148.233 211.233 147.955 212.945 147.681C211.633 146.537 200.546 147.312 197.526 145.233C195.557 143.877 196.381 141.637 200.694 141.082C206.714 140.307 210.995 141.311 213.203 140.492C207.517 139.25 196.513 138.061 197.263 134.613C198.38 129.472 220.664 136.95 213.77 133.797C207.598 130.974 205.231 130.809 202.764 129.302C200.493 127.915 200.239 125.486 203.663 124.871C209.172 123.881 222.963 130.909 223.815 129.513V129.517V129.515ZM215.55 140.84C214.928 143.998 201.934 140.815 198.103 143.627C199.141 144.585 199.1 144.34 213.217 145.71C216.308 146.009 216.796 148.429 213.364 149.195C209.605 150.036 207.024 149.77 203.384 151.552C202.591 151.94 202.44 152.47 203.559 152.691C208.257 153.612 212.857 151.436 231.09 151.232C234.195 151.198 234.628 151.922 235.126 150.806C235.705 149.51 240.159 138.802 239.078 137.884C232.998 132.725 227.496 124.978 220.043 122.16C221.603 126.33 226.387 128.58 225.267 130.503C224.147 132.426 219.998 130.368 216.749 129.296C201.651 124.317 201.55 126.885 203.479 127.979C205.797 129.293 219.437 133.16 218.404 135.619C217.141 138.621 204.864 132.098 198.597 134.822C201.824 138.569 216.288 137.097 215.55 140.842V140.84Z" fill="#180B02"/>
<path d="M93.2535 39.487C97.9156 36.03 103.152 34.4102 109.018 33.9066C110.29 33.7978 109.622 34.8349 106.345 15.3371C103.879 0.661176 103.971 1.06797 104.023 0.544948C104.124 -0.483215 105.335 -0.602421 105.564 0.346767C106.984 6.21773 110.281 25.5919 111.26 32.497C111.627 35.0897 111.66 35.1166 109.152 35.4891C92.1144 38.0073 93.4334 44.5235 91.7396 40.6448C90.3135 37.3785 90.1499 36.9106 79.2686 8.76131C78.302 6.26243 78.0789 5.75729 78.8939 5.46523C79.7966 5.14188 79.8441 5.54271 82.4079 12.0604C93.1895 39.481 92.8282 38.733 93.2535 39.487Z" fill="#180B02"/>
<path d="M92.4645 53.4804C90.6904 52.7398 90.0331 51.804 91.3537 49.5033C92.8631 46.8748 91.9693 47.0298 103.398 51.731C103.798 51.8949 104.528 51.9113 104.275 52.6266C104.009 53.3805 103.353 53.1809 102.822 52.9484C96.1184 50.0055 96.2552 49.545 95.7793 50.7893C94.8201 53.3045 94.783 53.2882 97.2992 54.3193C125.7 65.9554 128.201 67.5245 128.856 65.7408C129.553 63.8395 126.131 63.0274 124.1 62.0812C123.071 61.6029 122.457 61.6684 122.887 60.4331C123.052 59.9578 126.133 61.0739 129.979 63.4103C130.792 63.9051 132.041 65.3519 132.516 66.2803C133.27 67.7584 132.977 68.2278 131.904 68.2964C131.02 68.353 129.538 68.0654 127.651 67.5319C118.248 64.8706 98.7461 56.1044 92.4645 53.4804ZM93.333 52.7279C94.1197 52.9961 93.852 52.327 93.9874 52.0529C94.2952 51.4315 94.5629 50.7908 94.8276 50.15C94.9049 49.9608 95.1295 49.7864 94.8499 49.5197C94.0706 48.7777 92.9553 48.9431 92.5136 49.9325C91.7879 51.5552 91.6303 52.1482 93.3345 52.7279H93.333Z" fill="#180B02"/>
<path d="M116.417 57.9239C117.342 58.8478 118.338 59.7016 119.322 60.5643C120.747 61.816 122.201 60.387 118.753 54.5593C117.469 52.3897 107.232 37.2191 108.568 36.3802C109.043 36.0792 109.326 36.4919 109.533 36.8481C118.008 51.4152 117.397 49.2814 120.085 53.9647C124.731 62.0574 120.54 63.4611 118.559 61.825C113.865 57.9477 111.948 55.4921 105.705 53.5296C102.958 52.6669 109.458 50.9786 116.415 57.9224L116.417 57.9239Z" fill="#180B02"/>
<path d="M97.4208 48.2517C95.0235 47.9775 95.6838 46.7393 95.2689 41.743C95.1901 40.7878 96.5493 39.6285 96.6653 40.8132C96.9062 43.2837 97.165 45.7513 97.4208 48.2517Z" fill="#180B02"/>
<path d="M182.992 187.472C182.806 192.798 179.341 197.17 174.154 198.465C173.104 198.727 172.56 199.174 172.131 200.198C169.551 206.377 159.86 202.7 161.748 196.873C162.293 195.197 161.814 194.172 161.069 192.837C158.203 187.7 159.873 180.993 164.705 177.735C172.82 172.26 183.297 178.724 182.992 187.474V187.472ZM171.184 197.478C176.527 197.639 181.221 193.199 181.378 187.837C181.551 181.975 177.327 177.314 171.644 177.094C166.265 176.885 161.421 181.333 161.226 186.656C161.012 192.509 165.426 197.306 171.184 197.478ZM167.032 201.768C169.926 201.765 171.571 198.928 170.325 198.837C164.813 198.434 163.726 194.926 163.232 196.777C162.586 199.193 164.55 201.771 167.032 201.768Z" fill="#180B02"/>
<path d="M171.261 194.796C161.34 194.601 161.605 179.597 171.523 179.861C175.678 179.971 178.978 183.425 178.868 187.545C178.757 191.666 175.297 194.877 171.262 194.798L171.261 194.796Z" fill="#180B02"/>
<path d="M81.6452 219.31C76.4016 220.19 71.4347 217.665 69.1296 212.834C68.6642 211.856 68.1169 211.409 67.0283 211.195C60.4672 209.901 62.1283 199.65 68.2047 200.338C69.9535 200.536 70.8592 199.861 72.0161 198.863C76.4656 195.023 83.3584 195.321 87.5104 199.411C94.4865 206.282 90.2616 217.861 81.6437 219.31H81.6452ZM69.4984 209.717C70.4115 214.996 75.6908 218.72 80.9626 217.8C86.7312 216.795 90.4415 211.718 89.521 206.096C88.6496 200.773 83.3346 196.905 78.088 197.778C72.3225 198.738 68.514 204.03 69.4984 209.717ZM64.475 206.5C65.0579 209.34 68.1615 210.392 68.0009 209.15C67.2916 203.658 70.5052 201.889 68.5987 201.773C66.1048 201.621 63.9753 204.065 64.475 206.501V206.5Z" fill="#180B02"/>
<path d="M72.1431 209.259C70.3512 199.483 85.0707 196.741 86.7972 206.529C87.5199 210.63 84.803 214.562 80.755 215.275C76.7071 215.987 72.8733 213.239 72.1431 209.258V209.259Z" fill="#180B02"/>
<path d="M106.593 95.4385C109.995 91.3437 115.404 90.019 120.297 92.1797C121.287 92.6178 121.992 92.5969 122.954 92.05C128.775 88.7495 134.177 97.6036 129.126 101.052C127.671 102.044 127.422 103.148 127.194 104.661C126.32 110.479 120.895 114.755 115.087 114.364C105.327 113.709 100.998 102.168 106.591 95.44H106.593V95.4385ZM122.043 94.7799C117.919 91.3735 111.493 91.9964 108.09 96.1388C104.37 100.669 104.857 106.942 109.213 110.605C113.337 114.072 119.883 113.533 123.295 109.445C127.045 104.951 126.488 98.4529 122.043 94.7829V94.7799ZM127.943 93.941C125.653 92.1677 122.621 93.3971 123.549 94.2345C127.658 97.9404 126.373 101.375 127.893 100.219C129.883 98.7048 129.906 95.4623 127.943 93.941Z" fill="#180B02"/>
<path d="M120.333 96.8525C128.053 103.099 118.672 114.793 110.994 108.496C107.779 105.859 107.282 101.102 109.888 97.9164C112.492 94.7306 117.192 94.3134 120.333 96.854V96.8525Z" fill="#180B02"/>
</g>
<defs>
<clipPath id="clip0_1205_1118">
<rect width="278" height="267" fill="white"/>
</clipPath>
</defs>
</svg>
