<?xml version="1.0" encoding="UTF-8"?>
<svg xmlns="http://www.w3.org/2000/svg" width="25" height="24" viewBox="0 0 25 24" fill="none">
  <path d="M6.5 21C8.70914 21 10.5 19.2091 10.5 17V16.8C10.5 16.52 10.5 16.38 10.4455 16.273C10.3976 16.1789 10.3211 16.1024 10.227 16.0545C10.12 16 9.98003 16 9.7 16H3.3C3.01997 16 2.87996 16 2.773 16.0545C2.67892 16.1024 2.60243 16.1789 2.5545 16.273C2.5 16.38 2.5 16.52 2.5 16.8V17C2.5 19.2091 4.29086 21 6.5 21Z" fill="#FDEEE3"></path>
  <path d="M18.5 19C20.7091 19 22.5 17.2091 22.5 15V14.8C22.5 14.52 22.5 14.38 22.4455 14.273C22.3976 14.1789 22.3211 14.1024 22.227 14.0545C22.12 14 21.98 14 21.7 14H15.3C15.02 14 14.88 14 14.773 14.0545C14.6789 14.1024 14.6024 14.1789 14.5545 14.273C14.5 14.38 14.5 14.52 14.5 14.8V15C14.5 17.2091 16.2909 19 18.5 19Z" fill="#FDEEE3"></path>
  <path d="M2.5 17V16.8498C2.5 16.5333 2.5 16.3751 2.52421 16.2209C2.5457 16.084 2.58136 15.9497 2.63061 15.8202C2.68609 15.6743 2.7646 15.5369 2.92162 15.2622L6.5 9M2.5 17C2.5 19.2091 4.29086 21 6.5 21C8.70914 21 10.5 19.2091 10.5 17M2.5 17V16.8C2.5 16.52 2.5 16.38 2.5545 16.273C2.60243 16.1789 2.67892 16.1024 2.773 16.0545C2.87996 16 3.01997 16 3.3 16H9.7C9.98003 16 10.12 16 10.227 16.0545C10.3211 16.1024 10.3976 16.1789 10.4455 16.273C10.5 16.38 10.5 16.52 10.5 16.8V17M6.5 9L10.0784 15.2622C10.2354 15.5369 10.3139 15.6743 10.3694 15.8202C10.4186 15.9497 10.4543 16.084 10.4758 16.2209C10.5 16.3751 10.5 16.5333 10.5 16.8498V17M6.5 9L18.5 7M14.5 15V14.8498C14.5 14.5333 14.5 14.3751 14.5242 14.2209C14.5457 14.084 14.5814 13.9497 14.6306 13.8202C14.6861 13.6743 14.7646 13.5369 14.9216 13.2622L18.5 7M14.5 15C14.5 17.2091 16.2909 19 18.5 19C20.7091 19 22.5 17.2091 22.5 15M14.5 15V14.8C14.5 14.52 14.5 14.38 14.5545 14.273C14.6024 14.1789 14.6789 14.1024 14.773 14.0545C14.88 14 15.02 14 15.3 14H21.7C21.98 14 22.12 14 22.227 14.0545C22.3211 14.1024 22.3976 14.1789 22.4455 14.273C22.5 14.38 22.5 14.52 22.5 14.8V15M18.5 7L22.0784 13.2622C22.2354 13.5369 22.3139 13.6743 22.3694 13.8202C22.4186 13.9497 22.4543 14.084 22.4758 14.2209C22.5 14.3751 22.5 14.5333 22.5 14.8498V15M12.5 3V8" stroke="#180B02" stroke-opacity="0.55" stroke-width="1.5" stroke-linecap="round" stroke-linejoin="round"></path>
</svg>
