<?xml version="1.0" encoding="UTF-8"?>
<svg xmlns="http://www.w3.org/2000/svg" width="25" height="24" viewBox="0 0 25 24" fill="none">
  <path d="M2.83337 5.2C2.83337 4.07989 2.83337 3.51984 3.05136 3.09202C3.24311 2.71569 3.54907 2.40973 3.92539 2.21799C4.35322 2 4.91327 2 6.03337 2H19.6334C20.7535 2 21.3135 2 21.7414 2.21799C22.1177 2.40973 22.4236 2.71569 22.6154 3.09202C22.8334 3.51984 22.8334 4.0799 22.8334 5.2V6.8C22.8334 7.92011 22.8334 8.48016 22.6154 8.90798C22.4236 9.28431 22.1177 9.59027 21.7414 9.78201C21.3135 10 20.7535 10 19.6334 10H6.03337C4.91327 10 4.35322 10 3.92539 9.78201C3.54907 9.59027 3.24311 9.28431 3.05136 8.90798C2.83337 8.48016 2.83337 7.92011 2.83337 6.8V5.2Z" fill="#FDEEE3"></path>
  <path d="M2.83337 17.2C2.83337 16.0799 2.83337 15.5198 3.05136 15.092C3.24311 14.7157 3.54907 14.4097 3.92539 14.218C4.35322 14 4.91327 14 6.03337 14H19.6334C20.7535 14 21.3135 14 21.7414 14.218C22.1177 14.4097 22.4236 14.7157 22.6154 15.092C22.8334 15.5198 22.8334 16.0799 22.8334 17.2V18.8C22.8334 19.9201 22.8334 20.4802 22.6154 20.908C22.4236 21.2843 22.1177 21.5903 21.7414 21.782C21.3135 22 20.7535 22 19.6334 22H6.03337C4.91327 22 4.35322 22 3.92539 21.782C3.54907 21.5903 3.24311 21.2843 3.05136 20.908C2.83337 20.4802 2.83337 19.9201 2.83337 18.8V17.2Z" fill="#FDEEE3"></path>
  <path d="M6.83337 6H6.84337M6.83337 18H6.84337M6.03337 10H19.6334C20.7535 10 21.3135 10 21.7414 9.78201C22.1177 9.59027 22.4236 9.28431 22.6154 8.90798C22.8334 8.48016 22.8334 7.92011 22.8334 6.8V5.2C22.8334 4.0799 22.8334 3.51984 22.6154 3.09202C22.4236 2.71569 22.1177 2.40973 21.7414 2.21799C21.3135 2 20.7535 2 19.6334 2H6.03337C4.91327 2 4.35322 2 3.92539 2.21799C3.54907 2.40973 3.24311 2.71569 3.05136 3.09202C2.83337 3.51984 2.83337 4.07989 2.83337 5.2V6.8C2.83337 7.92011 2.83337 8.48016 3.05136 8.90798C3.24311 9.28431 3.54907 9.59027 3.92539 9.78201C4.35322 10 4.91327 10 6.03337 10ZM6.03337 22H19.6334C20.7535 22 21.3135 22 21.7414 21.782C22.1177 21.5903 22.4236 21.2843 22.6154 20.908C22.8334 20.4802 22.8334 19.9201 22.8334 18.8V17.2C22.8334 16.0799 22.8334 15.5198 22.6154 15.092C22.4236 14.7157 22.1177 14.4097 21.7414 14.218C21.3135 14 20.7535 14 19.6334 14H6.03337C4.91327 14 4.35322 14 3.92539 14.218C3.54907 14.4097 3.24311 14.7157 3.05136 15.092C2.83337 15.5198 2.83337 16.0799 2.83337 17.2V18.8C2.83337 19.9201 2.83337 20.4802 3.05136 20.908C3.24311 21.2843 3.54907 21.5903 3.92539 21.782C4.35322 22 4.91327 22 6.03337 22Z" stroke="#807974" stroke-width="1.5" stroke-linecap="round" stroke-linejoin="round"></path>
</svg>
