<?xml version="1.0" encoding="utf-8"?>
<!-- Generator: Adobe Illustrator 26.5.0, SVG Export Plug-In . SVG Version: 6.00 Build 0)  -->
<svg version="1.1" id="Layer_1" xmlns="http://www.w3.org/2000/svg" xmlns:xlink="http://www.w3.org/1999/xlink" x="0px" y="0px"
	 viewBox="0 0 228 182.7" style="enable-background:new 0 0 228 182.7;" xml:space="preserve">
<style type="text/css">
	.st0{fill:#180B02;}
	.st1{fill:#F07D29;}
</style>
<path class="st0" d="M186.8,2.9C157.1,3.4,34.9,3.7,4.3,3.3c-1.8,0-2-3.1-0.1-3.1c31.5,0,140.5-0.6,182.6,0.3
	C188.8,0.5,188.2,2.9,186.8,2.9z"/>
<path class="st0" d="M150.4,91.8c-2,0.9-4.2,1.4-6.4,1.6c0.2,2.6,0.2,5.2-0.1,7.8c0,0.1-0.1,0.3-0.2,0.4c-0.1,0.1-0.3,0.1-0.4,0.1
	c-0.1,0-0.3-0.1-0.4-0.2c-0.1-0.1-0.2-0.2-0.2-0.4c-0.2-1.8,0.3-3.7-0.1-7.7c-2.7,0.1-3.9-0.8-6.3-1.1c-5.8-0.8-11.4-2.8-16.4-5.8
	c-0.2-0.1-0.2-0.3-0.3-0.5c0-0.2,0-0.4,0.1-0.5c5.2-6.3,9.1-13.5,11.7-21.2c0.3-0.9,1.3-2,1.3-0.5c0,3.8-0.4,7.7-0.4,11.5
	c0,7,0.2,14.5,7,16.2c4.2,1.1,8.1-0.3,10.7-1C150.6,90.5,151.1,91.5,150.4,91.8z"/>
<path class="st0" d="M140.5,76.9c-0.6,1.2,1.4,1,2.7,1.1c0.2,0,0.3,0.1,0.4,0.2c0.1,0.1,0.2,0.3,0.2,0.4s0,0.3-0.1,0.4
	c-0.1,0.1-0.2,0.2-0.4,0.3c-0.8,0.1-1.6,0.1-2.4-0.1c-1.4-0.3-2.5-0.8-1.7-2.4c0.5-1.1,1.1-2.1,1.7-3.1c0.1-0.1,0.2-0.2,0.3-0.2
	c0.1,0,0.3,0,0.4,0c0.1,0.1,0.2,0.2,0.3,0.3c0.1,0.1,0.1,0.3,0,0.4C141.5,75.1,141.1,76,140.5,76.9z"/>
<path class="st0" d="M148.3,72.4c0,0.7,0.1,1.8-1,1.9c-0.9,0-1.1-0.7-1.1-1.8C146.1,70.7,148.2,70.1,148.3,72.4z"/>
<path class="st0" d="M138.1,72.4c0,0.7-0.3,1.4-1.1,1.3c-0.7,0-0.9-0.9-0.9-1.5c0-0.9,0.3-1.3,0.9-1.5
	C137.8,70.5,138.1,71.5,138.1,72.4z"/>
<path class="st0" d="M137.3,67.1c-0.5-0.1-0.9,0-1.3,0.2c-0.4,0.2-0.8,0.5-1,0.9c-0.6,0.9-1.3,0.2-1.1-0.4c0.3-0.7,0.8-1.2,1.5-1.6
	c0.6-0.4,1.4-0.5,2.1-0.4c0.2,0,0.3,0.1,0.4,0.2c0.1,0.1,0.1,0.3,0.1,0.5c0,0.2-0.1,0.3-0.2,0.4C137.6,67.1,137.5,67.2,137.3,67.1z"
	/>
<path class="st0" d="M146.6,67c-0.1,0-0.3-0.1-0.4-0.1c-0.1-0.1-0.2-0.2-0.2-0.4s0-0.3,0.1-0.4c0.1-0.1,0.2-0.2,0.3-0.3
	c0.9-0.2,1.8-0.1,2.6,0.4s1.4,1.1,1.7,2c0.2,0.7-0.7,1.2-1,0.5c-0.3-0.6-0.7-1-1.2-1.3C147.8,67,147.2,66.9,146.6,67z"/>
<path class="st0" d="M141.2,83c0.5,1.1,1.4,2,2.5,2.5c1.1,0.5,2.3,0.6,3.5,0.3c1.2-0.4,2.2-1.2,2.8-2.3c0.6-1.1,0.8-2.4,0.5-3.6
	c-0.1-0.6-0.7-0.8-1.3-0.3c-2.6,2-4.5,2.3-7.5,2.4C141.2,82,140.9,82.4,141.2,83z"/>
<path class="st0" d="M58.2,105c0.3,0.5-0.5,1.1-0.9,0.7c-2.5-2.2-6.9-5.4-8.2-8.3c-1.7-4-0.8-9-4.2-12.2c-0.1-0.1-0.2-0.3-0.2-0.4
	c0-0.2,0-0.3,0.1-0.4c0.1-0.1,0.2-0.2,0.4-0.2c0.2,0,0.3,0,0.5,0.1c3.7,2.6,3,7.8,4.8,11.5C52.2,99.4,56.3,101.3,58.2,105z"/>
<path class="st0" d="M33.2,99.1c-3.5-0.7-6.8-2.2-9.5-4.5c-0.9-0.8,0.2-1.4,0.8-1c2.7,1.9,5.9,3.2,9.1,3.8c3.2,0.5,6.5,0.4,9.7-0.2
	c0.8-0.1,0.8,1,0.2,1.4C41.1,100.1,36,99.7,33.2,99.1z"/>
<path class="st0" d="M18.7,97.4c-0.5-0.5,0.3-1.2,0.9-0.9c3.7,2.8,7.9,4.8,12.3,5.9c3.5,0.8,2.5,2.4-0.6,1.8
	C26.5,103.3,22.1,100.9,18.7,97.4z"/>
<path class="st0" d="M32.3,109.8c-4.2-0.2-9.9-2.2-13-4.9c-0.1-0.1-0.2-0.2-0.2-0.4c0-0.1,0-0.3,0.1-0.4c0.1-0.1,0.2-0.2,0.3-0.3
	c0.1,0,0.3,0,0.4,0c4.7,2.3,7.3,3.5,12.6,4.2C35.6,108.5,35.5,110,32.3,109.8z"/>
<path class="st0" d="M50.7,115.2c0.8,0.6-0.1,2-1,1.5c-4.5-2.6-9.6-1-14.5-1c-4.8,0.1-9.4-1.4-13.3-4.1c-0.6-0.4,0.1-1.3,0.7-1
	c4.5,2.3,9.4,3.4,14.4,3.2C41.6,113.4,46.6,112.4,50.7,115.2z"/>
<path class="st1" d="M223.6,182.6c-45.6,0.6-175.5-0.6-203.3-0.9c-1.8,0-3.2-2-0.1-2.1c35.7-0.2,150.2-0.1,203.3,0.3
	C225.7,180,225.7,182.5,223.6,182.6z"/>
<path class="st1" d="M135.7,100.1c-10,1.6-29.2,12.3-39.7,26.2c9.9-1.5,39.2-1.8,47.6-0.8c-3.2-3.9-6.7-7.4-10.5-10.6
	c1.5-1.7,2.8-3,4-4.1c-2.4-1.5-6.4-3.8-8.1-4.7C131,103.8,133.3,101.8,135.7,100.1z"/>
<path class="st1" d="M157.7,111.2c1.3,1.3,2.4,2.7,3.3,4.3c-3.5,2-10.3,5.8-14.5,10.2c3.9,0.5,6.5,2.4,7.9,8.2
	c0.6,2.5,1.4,6.5,2.2,10.9c7.4-1.6,15-2.6,22.6-3c-1.3-3.4-3.1-6.7-5.3-9.6c-0.5-0.6,0.4-1.4,0.9-0.8c2.6,3,4.7,6.5,6,10.3
	c3.4-0.2,6.8-0.2,10.2,0.1c0.8,0.1,0.8,1.2,0,1.2c-11.5-0.4-23,0.7-34.2,3.2c1.1,6.5,2.2,13.8,2.6,18.9c17.7-0.2,46.3,8.6,50.8-2
	c9.9-23.6-20.3-60.8-41.8-64.1c1.8,2.5,3.1,5.4,3.7,8.4C169.7,108.5,160.7,110.7,157.7,111.2z"/>
<path class="st1" d="M144.4,117.9c-3.6-9-3.5-13.8-4.5-18.2c0-0.2-0.1-0.3-0.2-0.4c-0.1-0.1-0.3-0.1-0.4-0.1c-0.2,0-0.3,0.1-0.4,0.2
	c-0.1,0.1-0.2,0.3-0.1,0.4c0,5.3,2.7,14.2,4.9,19.3c0.1,0.1,0.2,0.2,0.3,0.3c0.1,0.1,0.3,0.1,0.4,0.1c0.1,0,0.3,0,0.4,0
	c0.1,0,0.3-0.1,0.4-0.2c7.2-9.9,10.7-13.5,18.9-19.9c0.1-0.1,0.2-0.2,0.2-0.4c0-0.2,0-0.3-0.1-0.4c-0.1-0.1-0.2-0.2-0.4-0.3
	c-0.2,0-0.3,0-0.4,0.1C155.7,103.5,149.2,110.2,144.4,117.9z"/>
<path class="st1" d="M86.3,127.3c-7-4.3-19-14.8-23.8-21.5c-4.9,5-9.3,10.5-13,16.5c8.9,13.1,23,27.3,31.8,31.4
	c-1-4.4-1.3-16.5-1-20.3C80.5,129.4,83.4,127.9,86.3,127.3z"/>
<path class="st1" d="M46,127.1c2.2-0.1,1.1-1.6,0.1-1.6c-12.4-0.2-25.7-0.5-35.1-0.4c0.7-54.1,0.3-88.3,0.6-118.8
	c0-0.8-1.2-0.7-1.2,0.1C9.2,31.1,9.9,97.9,9,124.9c0,0.9,0,1.5,2,1.6c5.6,0.3,11,0.3,16.7,0.4C32.8,126.9,41,127.3,46,127.1z"/>
<path class="st1" d="M182.1,73.3c0.5-11.1,0.4-22.4,0.4-33.5c0-6.6,0.3-24.3,0.3-32.9c0-1.5-1.6-0.6-1.6,0.1
	c-0.3,14.7-1.1,51.5-0.5,66.4C180.8,74.6,182.1,74.6,182.1,73.3z"/>
<path class="st1" d="M29,39.4c0-3.6,0-7.2,0-10.8c16.3-0.1,32.6-0.2,48.8-0.5c0,3.2,0,6.3,0,9.5c-15.5,0.4-31.4,1-47,1.3
	c-1,0-0.8,1.5,0.1,1.5c15.7,0.2,32-0.8,47.8-1.2c0.2,0,0.4-0.1,0.5-0.3c0.1-0.2,0.2-0.4,0.2-0.6c0-3.7,0-7.4,0-11.1
	c0-0.2-0.1-0.4-0.3-0.5c-0.2-0.1-0.4-0.2-0.6-0.2c-16.8,0-33.6,0.2-50.5,0.5c-0.2,0-0.4,0.1-0.6,0.3c-0.1,0.2-0.2,0.4-0.2,0.6
	c0.1,3.9,0.3,7.8,0.4,11.7C27.8,40.3,29,40.2,29,39.4z"/>
<path class="st1" d="M28.1,65.4c17-0.7,34.5-0.7,51.4-1.9c0.1,0,0.2,0,0.4-0.1c0.1-0.1,0.2-0.1,0.3-0.2c0.1-0.1,0.1-0.2,0.2-0.3
	c0-0.1,0-0.2,0-0.4c-0.3-2.4-0.6-4.8-0.9-7.2c-0.1-1-1.6-0.7-1.5,0.3c0.2,2.1,0.5,4.2,0.7,6.3c-16.5,0.7-33.2,1.2-49.6,1.7
	c0-3.3,0-6.5,0.1-9.8c16.6-0.2,32.9-0.4,49.7-0.3c0.2,0,0.3-0.1,0.4-0.2c0.1-0.1,0.2-0.3,0.2-0.4c0-0.2,0-0.3-0.2-0.4
	c-0.1-0.1-0.3-0.2-0.4-0.2c-16.9-0.8-33.8-0.4-50.7-0.4c-0.1,0-0.3,0-0.4,0.1c-0.1,0-0.2,0.1-0.3,0.2c-0.1,0.1-0.2,0.2-0.2,0.3
	c-0.1,0.1-0.1,0.2-0.1,0.4c0.1,3.9,0.1,7.8,0.1,11.7c0,0.2,0.1,0.5,0.2,0.6C27.6,65.3,27.8,65.4,28.1,65.4z"/>
<path class="st1" d="M78.1,88.3c-8.2,0.1-18.5-0.1-26.9,0.3c-0.7,0-0.7,1.5,0,1.5c7.5,0.1,18.9-0.2,27.7-0.1c1,0,1-0.9,0.9-1.6
	c-0.6-3.4-0.6-6.9-0.1-10.3c0-0.1,0-0.2,0-0.4c0-0.1-0.1-0.2-0.2-0.3c-0.1-0.1-0.2-0.2-0.3-0.2c-0.1-0.1-0.2-0.1-0.4-0.1
	c-16.6,0.4-33.2,1-49.8,1.3c-0.2,0-0.4,0.1-0.6,0.3c-0.2,0.2-0.2,0.4-0.2,0.6c0,3.6,0,7.2,0,10.8c0,0.2,0.1,0.5,0.3,0.6
	c0.2,0.2,0.4,0.2,0.6,0.2c4.8-0.2,8.6-0.1,13.3-0.4c0.8,0,0.7-1.5-0.1-1.5c-4.5,0-8,0-12.4,0.1c0-3,0-6,0-9c16-0.6,32-0.8,48-1.3
	C77.5,82,77.6,85.1,78.1,88.3z"/>
<path class="st1" d="M116.8,98.9c0.8,0.2,1-1,0.2-1.2c-8-2.5-14.7-8.1-18.7-15.4C89.1,65.7,94.8,44,109.9,33
	c13.3-9.7,42-9.5,51.2,6.4c0.6,1,2,0.4,1.5-0.6c-7.2-15.9-36.5-18.2-50.9-9.4C94.8,39.7,87,62,95.3,80.4
	C99.6,89.6,107.4,96.7,116.8,98.9z"/>
<path class="st1" d="M182,102.2c0.3-2.5,0-9,0-12.8c0-1.4-1.3-0.9-1.3-0.3c-0.3,4.4-0.3,8.8,0,13.1
	C180.7,102.9,181.9,102.9,182,102.2z"/>
<path class="st0" d="M186.1,169.7c-6.8-0.8-20.9-1.7-30.1-1.8c0-5.3-5-35.3-8.2-37.9c-3.1-2.4-61.2-2.9-63.6,1.7
	c-3.2,6,2.1,43.3,4.9,44.3c4.7,1.6,93.8,1.3,97.7,1C188.8,176.8,189.1,170,186.1,169.7z M102.1,133.6c-3.4,0.4-6.6,0.8-10,1.3
	c-2.9,0.4-3.1,1-3.4,3.8c-0.4,3.3-0.6,6.7-0.6,10c0,0.7-1,0.9-1.1,0.1c-0.4-3.8-0.4-7.7,0.1-11.6c0.3-2.5,1.3-3.6,3.8-4.2
	c3.7-0.7,7.5-1,11.3-0.9c0.2,0,0.3,0.1,0.4,0.2c0.1,0.1,0.2,0.3,0.2,0.4c0,0.2-0.1,0.3-0.2,0.4C102.4,133.5,102.2,133.5,102.1,133.6
	z M117,159c-2.4,0.5-5-0.8-6-4.5c-0.8-3.2,0.7-5.6,3.3-6.3C120.7,146.6,123,157.9,117,159z"/>
<path class="st0" d="M182.9,82.9c-10.8-10.7-4.4-25.8-11.3-33.1c-1.3-1.4-3.1-2.3-5-2.5c-1.9-0.2-3.8,0.2-5.5,1.3
	c-5.3-8.7-16.2-10.8-25.5-7.9c-10.1,3.1-13.7,15.5-5.6,19.5c4.3,2.1,19.2,2.3,23.8,1.4c0.4,3.9,1.8,7.5,4.2,10.6
	c0.2,0.3,0.6,0.7,1,0.3c0.4-0.4,0.9-0.7,1.5-0.9c0.6-0.2,1.1-0.2,1.7-0.2c0.6,0.1,1.1,0.2,1.7,0.5c0.5,0.3,1,0.7,1.3,1.1
	c0.3,0.5,0.6,1,0.7,1.6c0.1,0.6,0.1,1.2,0,1.7c-0.1,0.6-0.3,1.1-0.7,1.6c-0.3,0.5-0.7,0.9-1.2,1.2c-1.4,0.9-2.4,0.8-3.9,0.7
	c-0.5,0-0.6,0.4-0.6,0.8c-0.5,5.4-1,11.6-0.2,17c0,0.2,0.1,0.3,0.2,0.4c0.1,0.1,0.3,0.1,0.4,0.1c0.2,0,0.3-0.1,0.4-0.2
	c0.1-0.1,0.1-0.3,0.1-0.4c0-1.5,0-2.9-0.1-4.4c7.6,0.9,17.3-3.6,22.6-8.7C183.7,83.6,183.1,83.2,182.9,82.9z M141.8,45.7
	c-1.9,0-3.7,0.4-5.4,1.2c-1.8,0.9-5,3.1-4.8,5.4c0.1,0.7-0.9,1.1-1.2,0.4c-1.2-3.4,2.2-6.1,4.5-7.4c2.1-1.1,4.4-1.7,6.7-1.7
	C144.8,43.6,143.5,45.8,141.8,45.7z"/>
</svg>
