<svg width="510" height="358" viewBox="0 0 510 358" fill="none" xmlns="http://www.w3.org/2000/svg">
<path fill-rule="evenodd" clip-rule="evenodd" d="M61.6964 93.3003C7.24088 124.962 0.0207112 129.407 0.541546 132.581C0.623713 133.082 0.898506 133.551 1.21089 134.091L129.131 352.161C130.994 355.321 131.772 356.79 132.85 357.061C133.926 357.329 135.301 356.405 138.356 354.779C156.841 344.942 175.147 334.771 193.388 324.489C234.908 301.088 261.55 286.473 278.533 277.154C283.01 274.698 286.818 272.609 290.048 270.826C283.547 273.108 276.254 275.677 268.083 278.577C268.078 278.579 267.902 278.642 267.563 278.764C266.482 279.151 263.766 280.121 259.794 281.539C231.406 297.281 196.784 316.511 185.068 323.018C182.44 324.476 180.965 325.297 180.97 325.291C141.205 347.093 135.653 352.28 133.558 351.137C133.142 350.912 132.862 350.435 132.478 349.787C132.429 349.703 5.66884 134.44 5.70678 134.505C4.66817 132.748 5.0118 132.55 15.7158 126.386C18.7811 124.621 22.6959 122.366 27.6712 119.446C27.7056 119.426 42.9917 110.53 63.6687 98.4574L61.6964 93.3003Z" fill="#180B02"/>
<path d="M203.41 65.0802C203.382 67.324 204.057 66.5734 175.727 78.0177C158.99 84.7792 118.242 101.153 101.199 107.115C97.7087 108.337 98.2995 107.692 90.0909 87.4214C88.7928 84.2182 89.1451 83.6843 92.4378 82.351C114.484 73.4215 162.54 53.5491 190.404 43.5709C194.06 42.262 194.29 42.4815 195.719 46.0776C199.407 55.3567 201.537 59.7333 203.41 65.0802ZM190.979 47.4516C184.29 49.8012 174.992 54.522 94.5678 85.4593C92.3131 86.3265 93.4107 85.8306 99.7602 101.912C100.595 104.028 101.042 103.069 105.852 101.145C203.372 62.1371 199.258 65.4352 198.423 63.5029C191.415 47.2511 191.965 47.1074 190.976 47.4543L190.979 47.4516Z" fill="#180B02"/>
<path d="M110.933 128.746C108.541 128.554 108.657 126.559 110.465 125.698C118.44 121.896 113.939 123.66 160.001 104.833C197.67 89.4379 197.079 88.9745 198.418 91.5246C199.957 94.4595 196.935 94.5977 151.35 113.047C126.348 123.167 115.608 127.863 110.933 128.746Z" fill="#180B02"/>
<path d="M123.871 156.528C121.031 156.631 120.801 153.894 122.616 152.916C125.196 151.528 122.614 152.561 191.196 126.477C198.781 123.594 200.597 122.954 201.334 125.152C202.101 127.439 201.065 127.661 177.768 136.51C176.193 137.108 125.557 156.469 123.874 156.528H123.871Z" fill="#180B02"/>
<path d="M162.507 270.168C159.843 269.959 159.878 268.162 161.689 267.211C169.605 263.059 196.797 253.742 205.995 250.688C213.225 248.284 214.799 247.954 215.436 249.88C216.279 252.439 214.707 252.891 186.539 262.702C180.827 264.691 168.431 268.926 162.51 270.165L162.507 270.168Z" fill="#180B02"/>
<path d="M118.158 141.857C115.535 142.033 115.166 139.941 116.44 138.984C118.115 137.727 116.389 138.591 155.437 122.627C157.112 121.941 158.784 121.399 159.537 123.217C160.591 125.77 157.272 126.372 152.632 128.244C118.272 142.112 122.451 140.532 118.158 141.857Z" fill="#180B02"/>
<path d="M170.098 282.197C166.879 282.113 166.711 279.303 169.163 278.303C177.925 274.731 181.84 273.525 194.442 269.26C197.678 268.165 199.149 271.753 195.68 273.154C190.008 275.447 174.445 281.197 170.098 282.197Z" fill="#180B02"/>
<path fill-rule="evenodd" clip-rule="evenodd" d="M229.14 198.282C225.266 204.515 223.027 211.865 223.027 219.729C223.027 242.198 241.309 260.471 263.769 260.471C286.238 260.471 304.512 242.198 304.512 219.729C304.512 215.64 303.907 211.688 302.78 207.962C301.642 208.553 300.46 209.106 299.235 209.621C300.154 212.835 300.644 216.228 300.644 219.734C300.644 240.07 284.105 256.609 263.769 256.609C243.434 256.609 226.894 240.07 226.894 219.734C226.894 212.775 228.832 206.26 232.197 200.699C231.149 199.922 230.129 199.114 229.14 198.282Z" fill="#F07D29"/>
<path fill-rule="evenodd" clip-rule="evenodd" d="M338.803 247.482L318.329 194.472C317.435 195.775 316.454 197.035 315.389 198.244C321.001 212.786 327.05 228.417 333.565 245.225C334.039 246.45 333.82 246.748 332.649 247.135C328.424 248.531 241.606 279.417 212.729 289.69L212.712 289.696L212.697 289.701C206.92 291.755 203.471 292.983 203.48 292.98C184.304 299.685 172.444 304.232 165.025 307.078C155.888 310.582 153.488 311.503 152.457 310.687C152.09 310.397 151.896 309.888 151.634 309.197L151.624 309.172C151.591 309.083 61.9201 75.9141 61.9472 75.9873C61.245 74.1808 61.5797 74.0548 71.5143 70.3166C75.0376 68.9909 79.7681 67.211 86.0879 64.7408L86.6209 64.5386C95.52 61.1668 213.136 16.6017 239.382 5.94462C239.437 5.92186 239.491 5.8991 239.544 5.87688C239.772 5.7804 239.974 5.69449 240.18 5.68609C241.009 5.65195 241.889 6.87226 244.685 13.6941C245.634 12.753 246.6 11.9475 247.574 11.2633L244.162 2.42976L244.118 2.34656C243.823 1.78722 243.58 1.32787 243.212 1.01568C241.52 -0.420349 237.183 1.26012 212.899 10.6701C202.267 14.7901 187.81 20.3919 168.076 27.8631C157.041 32.0408 147.09 35.8026 138.117 39.1941C66.2677 66.3532 57.1854 69.7863 57.1768 73.2423C57.1754 73.7423 57.3643 74.2429 57.5803 74.8157L57.5895 74.841L147.938 310.972C148.05 311.262 148.156 311.538 148.256 311.801C149.348 314.655 149.867 316.01 150.8 316.416C151.643 316.785 152.825 316.376 155.076 315.595C155.54 315.435 156.049 315.259 156.61 315.072C176.461 308.411 196.187 301.381 215.875 294.235C260.807 277.923 289.522 267.872 307.801 261.476C334.516 252.124 338.931 250.58 339.077 248.702C339.107 248.33 338.969 247.943 338.803 247.482Z" fill="#180B02"/>
<path fill-rule="evenodd" clip-rule="evenodd" d="M238.336 201.607C195.599 174.383 211.701 122.633 252.301 117.341C254.081 118.672 256.011 120.044 258.111 121.481C253.717 121.642 249.33 122.43 245.043 123.95C198.451 140.472 214.729 197.841 263.114 205.854C262.547 207.434 262.013 208.968 261.512 210.445C253.287 208.981 245.297 206.044 238.336 201.607ZM285.834 210.485C305.858 206.87 322.357 193.96 322.449 172.12C322.454 171.136 322.422 170.155 322.357 169.182C320.701 168.342 319.116 167.497 317.593 166.64C320.568 181.524 313.861 196.274 291.127 204.163C289.791 204.626 288.368 204.995 286.899 205.29C286.542 207.036 286.187 208.77 285.834 210.485ZM288.631 196.797C301.536 192.705 311.36 183.109 311.425 168.204C311.433 166.315 311.276 164.451 310.964 162.619C309.381 161.586 307.858 160.537 306.373 159.47C310.861 171.944 307.308 185.068 289.541 192.296C289.241 193.789 288.934 195.29 288.631 196.797ZM281.726 163.113C265.241 166.437 239.894 153.965 255.065 129.289C214.108 137.986 224.337 189.773 267.244 194.946C266.761 196.16 266.292 197.364 265.834 198.551C258.647 197.561 251.604 195.149 245.553 191.296C211.288 169.47 225.466 127.882 258.154 125.115C258.859 124.349 259.588 123.65 260.325 122.994C261.523 123.818 262.685 124.633 263.818 125.437C261.593 127.429 258.742 131.346 255.171 139.522C249.218 153.142 273.314 163.424 284.821 157.533C283.799 159.292 282.764 161.16 281.726 163.113ZM291.837 147.83C291.715 147.724 291.59 147.619 291.466 147.513C291.414 147.732 291.357 147.95 291.3 148.167C291.479 148.038 291.658 147.926 291.837 147.83Z" fill="#180B02"/>
<path d="M301.129 152.12C280.484 135.553 287.043 137.757 260.254 119.592C243.699 108.367 238.108 101.361 231.417 87.6163C228.19 80.9876 225.306 74.1584 223.832 66.8441C223.173 63.5731 224.279 60.9417 227.29 59.5786C246.162 51.0394 261.276 88.3046 282.091 90.5756C289.178 91.3479 284.864 83.6109 280.596 78.0418C264.962 57.6518 260.924 47.2617 248.997 44.3376C246.992 43.8471 245.799 43.6357 245.891 42.6628C246.108 40.3972 252.786 39.4352 260.376 45.4649C264.168 48.4757 265.569 50.2535 285.257 77.5676C294.896 90.9414 287.704 95.7138 282.119 94.5945C270.027 92.1691 261.631 84.4401 245.116 67.6192C235.252 57.5705 224.973 61.9065 226.821 66.9335C244.786 115.838 255.192 105.535 290.62 136.036C299.37 143.57 313.823 158.445 343.714 169.586C357.465 174.711 371.557 175.597 375.668 178.023C384.275 183.104 338.969 182.486 301.129 152.12Z" fill="#180B02"/>
<path d="M420.096 117.683C429.337 119.231 498.133 171.294 505.623 176.925C511.848 181.605 512.021 186.638 498.9 177.979C477.073 163.58 454.756 145.111 423.437 123.285C418.315 119.716 423.952 129.152 404.898 159.404C397.071 171.828 380.253 188.166 377.348 190.361C375.608 191.676 371.844 189.364 448.258 280.406C453.881 287.108 452.461 290.566 444.353 282.13C430.922 268.154 392.345 220.8 386.437 212.684C370.408 190.667 371.494 191.499 375.161 187.453C392.462 168.375 398.6 162.441 408.356 141.973C418.608 120.466 416.537 118.109 420.096 117.683Z" fill="#180B02"/>
<path d="M279.645 18.3605C296.56 29.5257 305.896 34.6612 312.349 44.6882C316.083 50.493 313.576 52.8371 308.306 45.8968C301.91 37.4769 275.089 17.1952 258.439 14.5232C250.45 13.2413 239.596 29.6775 235.965 36.9078C231.905 44.9944 237.837 54.7125 235.379 55.165C234.756 55.2788 234.515 54.791 234.301 54.3249C227.304 39.1327 232.881 30.8915 245.691 16.6261C258.501 2.36338 273.528 17.3199 276.737 15.8971C299.325 5.88367 334.397 35.8834 331.996 38.5094C329.595 41.1354 315.379 20.9811 289.737 16.7264C286.279 16.1519 283.097 16.9974 279.645 18.3551V18.3605Z" fill="#180B02"/>
<path d="M348.693 26.2317C369.427 26.7412 380.671 49.2315 387.578 68.7841C394.128 87.3232 399.039 98.486 410.741 117.426C415.117 124.507 411.624 126.545 405.963 116.404C378.625 67.4375 380.175 35.9389 349.56 28.8929C346.538 28.1964 345.885 27.9038 345.92 27.1206C345.969 26.0312 347.292 26.1965 348.693 26.2317Z" fill="#180B02"/>
<path d="M317.823 17.2673C334.478 17.0316 352.039 34.0178 350.665 35.8552C349.069 37.9934 343.568 29.1967 328.381 22.2049C320.327 18.4977 310.359 20.6901 310.359 18.5654C310.359 17.102 311.88 17.3513 317.823 17.2673Z" fill="#180B02"/>
<path d="M294.555 152.353C293.289 161.876 276.187 242.983 276.17 243.073C273.319 257.626 261.805 243.46 230.081 212.474C222.9 205.458 228.071 206.653 237.417 210.309C260.788 219.45 259.881 225.474 261.377 220.141C268.04 196.415 293.582 139.299 294.555 152.353Z" fill="#F07D29"/>
</svg>
