<svg width="25" height="24" viewBox="0 0 25 24" fill="none" xmlns="http://www.w3.org/2000/svg">
<mask id="mask0_1366_1513" style="mask-type:alpha" maskUnits="userSpaceOnUse" x="0" y="0" width="25" height="24">
<rect x="0.333984" width="24" height="24" fill="#D9D9D9"/>
</mask>
<g mask="url(#mask0_1366_1513)">
<path d="M9.5832 22L9.1832 18.8C8.96654 18.7167 8.76237 18.6167 8.5707 18.5C8.37904 18.3833 8.19154 18.2583 8.0082 18.125L5.0332 19.375L2.2832 14.625L4.8582 12.675C4.84154 12.5583 4.8332 12.4458 4.8332 12.3375V11.6625C4.8332 11.5542 4.84154 11.4417 4.8582 11.325L2.2832 9.375L5.0332 4.625L8.0082 5.875C8.19154 5.74167 8.3832 5.61667 8.5832 5.5C8.7832 5.38333 8.9832 5.28333 9.1832 5.2L9.5832 2H15.0832L15.4832 5.2C15.6999 5.28333 15.904 5.38333 16.0957 5.5C16.2874 5.61667 16.4749 5.74167 16.6582 5.875L19.6332 4.625L22.3832 9.375L19.8082 11.325C19.8249 11.4417 19.8332 11.5542 19.8332 11.6625V12.3375C19.8332 12.4458 19.8165 12.5583 19.7832 12.675L22.3582 14.625L19.6082 19.375L16.6582 18.125C16.4749 18.2583 16.2832 18.3833 16.0832 18.5C15.8832 18.6167 15.6832 18.7167 15.4832 18.8L15.0832 22H9.5832ZM11.3332 20H13.3082L13.6582 17.35C14.1749 17.2167 14.654 17.0208 15.0957 16.7625C15.5374 16.5042 15.9415 16.1917 16.3082 15.825L18.7832 16.85L19.7582 15.15L17.6082 13.525C17.6915 13.2917 17.7499 13.0458 17.7832 12.7875C17.8165 12.5292 17.8332 12.2667 17.8332 12C17.8332 11.7333 17.8165 11.4708 17.7832 11.2125C17.7499 10.9542 17.6915 10.7083 17.6082 10.475L19.7582 8.85L18.7832 7.15L16.3082 8.2C15.9415 7.81667 15.5374 7.49583 15.0957 7.2375C14.654 6.97917 14.1749 6.78333 13.6582 6.65L13.3332 4H11.3582L11.0082 6.65C10.4915 6.78333 10.0124 6.97917 9.5707 7.2375C9.12904 7.49583 8.72487 7.80833 8.3582 8.175L5.8832 7.15L4.9082 8.85L7.0582 10.45C6.97487 10.7 6.91654 10.95 6.8832 11.2C6.84987 11.45 6.8332 11.7167 6.8332 12C6.8332 12.2667 6.84987 12.525 6.8832 12.775C6.91654 13.025 6.97487 13.275 7.0582 13.525L4.9082 15.15L5.8832 16.85L8.3582 15.8C8.72487 16.1833 9.12904 16.5042 9.5707 16.7625C10.0124 17.0208 10.4915 17.2167 11.0082 17.35L11.3332 20ZM12.3832 15.5C13.3499 15.5 14.1749 15.1583 14.8582 14.475C15.5415 13.7917 15.8832 12.9667 15.8832 12C15.8832 11.0333 15.5415 10.2083 14.8582 9.525C14.1749 8.84167 13.3499 8.5 12.3832 8.5C11.3999 8.5 10.5707 8.84167 9.8957 9.525C9.2207 10.2083 8.8832 11.0333 8.8832 12C8.8832 12.9667 9.2207 13.7917 9.8957 14.475C10.5707 15.1583 11.3999 15.5 12.3832 15.5Z" fill="#2E2E48"/>
</g>
</svg>
