<?xml version="1.0" encoding="UTF-8"?>
<svg xmlns="http://www.w3.org/2000/svg" width="24" height="24" viewBox="0 0 24 24" fill="none">
  <path d="M17.3521 16.5H8.79417C7.80401 16.5 7.30892 16.5 6.91142 16.3174C6.56114 16.1564 6.26484 15.8977 6.05816 15.5723C5.82361 15.2031 5.75687 14.7125 5.62338 13.7314L4.57149 6H21.0333C21.365 6 21.5309 6 21.6476 6.06802C21.75 6.12768 21.8278 6.22177 21.8673 6.3335C21.9123 6.46087 21.8812 6.62381 21.8192 6.94969L20.4955 13.8988C20.3192 14.8247 20.231 15.2876 19.9923 15.6342C19.7819 15.9398 19.4906 16.1809 19.151 16.3304C18.7659 16.5 18.2946 16.5 17.3521 16.5Z" fill="#FDEEE3"></path>
  <path d="M9.00006 22C9.55235 22 10.0001 21.5523 10.0001 21C10.0001 20.4477 9.55235 20 9.00006 20C8.44778 20 8.00006 20.4477 8.00006 21C8.00006 21.5523 8.44778 22 9.00006 22Z" fill="#FDEEE3"></path>
  <path d="M17.0001 22C17.5523 22 18.0001 21.5523 18.0001 21C18.0001 20.4477 17.5523 20 17.0001 20C16.4478 20 16.0001 20.4477 16.0001 21C16.0001 21.5523 16.4478 22 17.0001 22Z" fill="#FDEEE3"></path>
  <path d="M2.00006 2H3.30622C3.55224 2 3.67525 2 3.77424 2.04524C3.86148 2.08511 3.93541 2.14922 3.98721 2.22995C4.046 2.32154 4.06339 2.44332 4.09818 2.68686L4.57149 6M4.57149 6L5.62338 13.7314C5.75687 14.7125 5.82361 15.2031 6.05816 15.5723C6.26484 15.8977 6.56114 16.1564 6.91142 16.3174C7.30892 16.5 7.80401 16.5 8.79417 16.5H17.3521C18.2946 16.5 18.7659 16.5 19.151 16.3304C19.4906 16.1809 19.7819 15.9398 19.9923 15.6342C20.231 15.2876 20.3192 14.8247 20.4955 13.8988L21.8192 6.94969C21.8812 6.62381 21.9123 6.46087 21.8673 6.3335C21.8278 6.22177 21.75 6.12768 21.6476 6.06802C21.5309 6 21.365 6 21.0333 6H4.57149ZM10.0001 21C10.0001 21.5523 9.55235 22 9.00006 22C8.44778 22 8.00006 21.5523 8.00006 21C8.00006 20.4477 8.44778 20 9.00006 20C9.55235 20 10.0001 20.4477 10.0001 21ZM18.0001 21C18.0001 21.5523 17.5523 22 17.0001 22C16.4478 22 16.0001 21.5523 16.0001 21C16.0001 20.4477 16.4478 20 17.0001 20C17.5523 20 18.0001 20.4477 18.0001 21Z" stroke="#807974" stroke-width="1.5" stroke-linecap="round" stroke-linejoin="round"></path>
</svg>
