<svg width="240" height="240" viewBox="0 0 240 240" fill="none" xmlns="http://www.w3.org/2000/svg">
<path d="M196.641 26.9321C165.402 27.4241 36.6922 27.6917 4.49861 27.2825C2.58701 27.2585 2.44181 24.0005 4.42061 24.0005C37.6066 24.0413 152.328 23.4089 196.579 24.3605C198.709 24.4037 198.131 26.9081 196.641 26.9321Z" fill="white"/>
<path d="M158.307 120.498C156.152 121.429 153.862 122.009 151.524 122.218C151.748 124.966 151.718 127.729 151.435 130.471C151.404 130.619 151.322 130.752 151.203 130.845C151.084 130.938 150.936 130.986 150.785 130.981C150.633 130.976 150.489 130.917 150.377 130.815C150.265 130.714 150.193 130.576 150.173 130.426C149.948 128.55 150.473 126.519 150.095 122.31C147.288 122.386 145.973 121.516 143.507 121.181C137.374 120.344 131.48 118.252 126.192 115.037C126.035 114.917 125.931 114.739 125.904 114.543C125.877 114.347 125.928 114.148 126.047 113.989C131.473 107.363 135.645 99.8032 138.36 91.6803C138.68 90.7623 139.742 89.5287 139.747 91.1091C139.76 95.1603 139.287 99.2091 139.287 103.266C139.287 110.629 139.483 118.506 146.657 120.357C151.056 121.488 155.15 120.053 157.873 119.326C158.52 119.147 159 120.163 158.307 120.498Z" fill="white"/>
<path d="M147.923 104.743C147.294 105.961 149.437 105.817 150.723 105.878C150.885 105.892 151.037 105.963 151.152 106.078C151.267 106.193 151.338 106.345 151.352 106.507C151.365 106.669 151.321 106.831 151.227 106.964C151.133 107.097 150.994 107.192 150.837 107.232C149.987 107.346 149.123 107.298 148.291 107.088C146.806 106.78 145.672 106.232 146.481 104.568C147.003 103.445 147.597 102.356 148.259 101.308C148.34 101.181 148.465 101.088 148.609 101.046C148.754 101.004 148.909 101.016 149.045 101.08C149.182 101.144 149.29 101.256 149.35 101.394C149.411 101.532 149.418 101.687 149.373 101.831C148.964 102.837 148.479 103.811 147.923 104.743Z" fill="white"/>
<path d="M156.065 100.052C156.079 100.823 156.137 101.99 155.001 102.02C154.087 102.046 153.83 101.237 153.835 100.156C153.84 98.2081 156.018 97.6657 156.065 100.052Z" fill="white"/>
<path d="M145.359 100.004C145.34 100.74 145.027 101.435 144.176 101.4C143.466 101.372 143.21 100.412 143.231 99.7792C143.261 98.8456 143.555 98.3692 144.145 98.2396C145.051 98.0404 145.385 99.0796 145.359 100.004Z" fill="white"/>
<path d="M144.537 94.5069C144.062 94.452 143.581 94.531 143.148 94.7349C142.715 94.9389 142.347 95.2598 142.087 95.6613C141.429 96.6333 140.726 95.8353 140.976 95.2593C141.296 94.559 141.833 93.9799 142.507 93.6071C143.181 93.2343 143.956 93.0875 144.72 93.1881C144.89 93.2171 145.043 93.3114 145.145 93.451C145.248 93.5906 145.292 93.7645 145.268 93.9359C145.244 94.1073 145.155 94.2628 145.018 94.3694C144.882 94.4759 144.71 94.5253 144.537 94.5069Z" fill="white"/>
<path d="M154.313 94.3418C154.163 94.3409 154.018 94.2867 153.905 94.1888C153.791 94.091 153.716 93.956 153.693 93.8079C153.67 93.6598 153.7 93.5084 153.779 93.3806C153.857 93.2529 153.978 93.1572 154.121 93.1106C155.037 92.9143 155.993 93.0559 156.812 93.5094C157.632 93.9628 158.26 94.6976 158.58 95.5778C158.778 96.2654 157.86 96.8294 157.512 96.0578C157.236 95.4643 156.775 94.9763 156.198 94.6669C155.621 94.3575 154.96 94.2434 154.313 94.3418Z" fill="white"/>
<path d="M148.596 111.198C149.112 112.36 150.028 113.298 151.177 113.842C152.326 114.386 153.632 114.5 154.858 114.163C156.122 113.755 157.184 112.882 157.83 111.721C158.476 110.561 158.658 109.198 158.338 107.909C158.191 107.309 157.654 107.1 157.008 107.609C154.307 109.737 152.308 110.07 149.116 110.123C148.597 110.131 148.294 110.595 148.596 111.198Z" fill="white"/>
<path d="M61.3057 134.309C61.5913 134.85 60.7921 135.431 60.3457 135.029C57.7621 132.69 53.0317 129.389 51.6973 126.269C49.8973 122.069 50.8801 116.81 47.3185 113.411C47.1901 113.301 47.1089 113.146 47.0918 112.978C47.0746 112.81 47.1228 112.642 47.2264 112.508C47.3299 112.375 47.4809 112.286 47.648 112.261C47.8151 112.236 47.9854 112.276 48.1237 112.373C52.0597 115.142 51.3133 120.562 53.1361 124.493C54.9841 128.474 59.2801 130.48 61.3057 134.309Z" fill="white"/>
<path d="M34.981 128.179C31.3094 127.451 27.8752 125.825 24.985 123.446C24.0574 122.629 25.1686 121.97 25.8454 122.427C28.7198 124.458 32.0095 125.825 35.4766 126.429C38.8607 126.93 42.3059 126.842 45.6598 126.168C46.4866 126.057 46.4686 127.267 45.8998 127.608C43.3126 129.162 37.885 128.819 34.981 128.179Z" fill="white"/>
<path d="M19.7233 126.308C19.2097 125.746 20.0737 124.998 20.6377 125.406C24.4889 128.361 28.9107 130.486 33.6241 131.646C37.3057 132.486 36.2845 134.209 32.9797 133.528C27.9161 132.563 23.281 130.038 19.7233 126.308Z" fill="white"/>
<path d="M34.0272 139.458C29.6532 139.205 23.5956 137.189 20.3124 134.311C20.197 134.206 20.1229 134.063 20.1036 133.908C20.0844 133.753 20.1211 133.596 20.2073 133.466C20.2934 133.335 20.4233 133.24 20.5735 133.197C20.7237 133.154 20.8844 133.166 21.0264 133.231C26.0172 135.677 28.6788 136.919 34.2564 137.611C37.494 138.014 37.3992 139.654 34.0272 139.458Z" fill="white"/>
<path d="M53.359 145.057C54.2386 145.657 53.239 147.134 52.3426 146.604C47.6122 143.819 42.2254 145.524 37.087 145.515C32.0768 145.6 27.1685 144.095 23.0674 141.216C22.4758 140.773 23.1274 139.887 23.7526 140.174C28.4483 142.546 33.6639 143.701 38.9218 143.534C43.7782 143.24 49.0414 142.117 53.359 145.057Z" fill="white"/>
<path d="M235.409 216.01C187.379 216.595 50.6256 215.391 21.4152 215.05C19.5336 215.029 18.0408 212.905 21.3612 212.89C58.9212 212.697 179.474 212.743 235.339 213.258C237.539 213.272 237.545 215.984 235.409 216.01Z" fill="#D1D0D6"/>
<path d="M142.859 129.188C132.299 130.868 112.071 142.159 101.057 156.726C111.497 155.146 142.289 154.876 151.137 155.914C147.808 151.859 144.121 148.112 140.121 144.718C141.657 142.957 143.102 141.588 144.366 140.383C141.837 138.823 137.681 136.334 135.846 135.478C137.924 133.109 140.279 130.998 142.859 129.188Z" fill="#D1D0D6"/>
<path d="M165.948 140.925C167.302 142.274 168.456 143.809 169.377 145.485C165.675 147.606 158.496 151.579 154.163 156.184C158.3 156.726 161.003 158.734 162.443 164.824C163.062 167.436 163.916 171.628 164.763 176.333C172.603 174.62 180.573 173.566 188.588 173.183C187.182 169.581 185.302 166.184 182.997 163.079C182.503 162.425 183.42 161.595 183.966 162.229C186.749 165.424 188.902 169.116 190.313 173.111C193.903 172.899 197.504 172.95 201.087 173.263C201.903 173.356 201.913 174.576 201.068 174.556C188.967 174.161 176.866 175.302 165.051 177.949C166.257 184.828 167.393 192.514 167.749 197.896C186.349 197.715 216.524 206.905 221.201 195.819C231.674 170.989 199.865 131.801 177.231 128.37C179.142 131.014 180.48 134.028 181.159 137.219C178.68 138.079 169.2 140.337 165.948 140.925Z" fill="#D1D0D6"/>
<path d="M152.024 147.969C148.22 138.476 148.323 133.422 147.239 128.769C147.214 128.608 147.128 128.463 146.999 128.364C146.871 128.265 146.709 128.219 146.547 128.236C146.385 128.253 146.237 128.331 146.131 128.455C146.025 128.578 145.971 128.737 145.98 128.9C145.941 134.517 148.803 143.873 151.128 149.253C151.201 149.383 151.305 149.494 151.429 149.577C151.554 149.66 151.696 149.712 151.845 149.73C151.993 149.747 152.144 149.73 152.284 149.678C152.425 149.626 152.551 149.542 152.653 149.433C160.181 138.98 163.941 135.203 172.573 128.499C172.707 128.404 172.8 128.26 172.83 128.099C172.861 127.937 172.828 127.77 172.738 127.632C172.648 127.494 172.508 127.397 172.348 127.36C172.188 127.323 172.019 127.35 171.878 127.434C163.868 132.781 157.098 139.783 152.024 147.969Z" fill="#D1D0D6"/>
<path d="M90.8233 157.809C83.4193 153.295 70.8685 142.189 65.7229 135.163C60.5519 140.438 55.9516 146.243 51.9985 152.483C61.3657 166.297 76.2001 181.2 85.4965 185.529C84.4165 180.924 84.1417 168.193 84.4165 164.13C84.6913 160.067 87.7537 158.442 90.8233 157.809Z" fill="#D1D0D6"/>
<path d="M48.3974 157.599C50.6942 157.503 49.5134 155.893 48.5342 155.874C35.4542 155.617 21.4358 155.298 11.5742 155.451C12.3362 98.4668 11.8802 62.5112 12.1922 30.4028C12.2006 29.552 10.925 29.6828 10.8866 30.4928C9.64102 56.5964 10.4066 126.892 9.44662 155.257C9.41302 156.229 9.48022 156.849 11.5826 156.943C17.471 157.207 23.2094 157.218 29.1314 157.32C34.5734 157.414 43.1234 157.82 48.3974 157.599Z" fill="#D1D0D6"/>
<path d="M191.699 101.04C192.276 89.3404 192.096 77.4856 192.149 65.7604C192.18 58.8292 192.494 40.2196 192.416 31.0864C192.403 29.5048 190.772 30.406 190.756 31.2064C190.44 46.714 189.623 85.4356 190.216 101.057C190.266 102.372 191.64 102.353 191.699 101.04Z" fill="#D1D0D6"/>
<path d="M30.5354 65.2797C30.5354 61.4757 30.5678 57.6741 30.5354 53.8701C47.669 53.7717 64.8134 53.6745 81.9446 53.3649C81.959 56.6937 81.9446 60.0225 81.9446 63.3513C65.5802 63.7701 48.8462 64.3869 32.4326 64.6809C31.3754 64.7001 31.547 66.2793 32.5694 66.2925C49.1426 66.4929 66.2246 65.4357 82.8494 65.0049C83.0693 64.9821 83.2719 64.875 83.4146 64.7061C83.5574 64.5372 83.6292 64.3196 83.615 64.0989C83.615 60.2121 83.6018 56.3241 83.6282 52.4373C83.6048 52.2156 83.4965 52.0116 83.326 51.868C83.1556 51.7244 82.9362 51.6523 82.7138 51.6669C65.0126 51.6777 47.2994 51.9189 29.5982 52.1553C29.3718 52.1787 29.1634 52.2889 29.0166 52.4628C28.8698 52.6366 28.7961 52.8606 28.811 53.0877C28.9094 57.1917 29.1182 61.2861 29.2598 65.3877C29.2802 66.2217 30.5342 66.1041 30.5354 65.2797Z" fill="#D1D0D6"/>
<path d="M29.5366 92.7086C47.431 92.0102 65.8546 91.9285 83.6398 90.7033C83.77 90.7064 83.8993 90.6803 84.0182 90.6272C84.1371 90.574 84.2426 90.495 84.3272 90.396C84.4118 90.2969 84.4732 90.1803 84.5071 90.0545C84.541 89.9288 84.5464 89.7971 84.523 89.6689C84.2086 87.1321 83.893 84.5954 83.563 82.061C83.425 81.0086 81.8458 81.3685 81.961 82.4017C82.201 84.6037 82.4674 86.8045 82.729 89.0017C65.3554 89.7349 47.8282 90.2305 30.529 90.7849C30.529 87.3445 30.511 83.8993 30.6082 80.465C48.0982 80.2838 65.2882 80.0006 82.9702 80.1446C83.1408 80.1474 83.3058 80.0838 83.4304 79.9673C83.5549 79.8508 83.6294 79.6904 83.6379 79.5201C83.6465 79.3497 83.5885 79.1827 83.4763 79.0542C83.364 78.9258 83.2062 78.846 83.0362 78.8318C65.2858 78.0146 47.461 78.3746 29.6362 78.4106C29.4981 78.4031 29.3598 78.4231 29.2294 78.4693C29.099 78.5156 28.979 78.5872 28.8764 78.68C28.7738 78.7728 28.6905 78.8849 28.6315 79.0101C28.5724 79.1352 28.5387 79.2707 28.5322 79.409C28.6798 83.5046 28.6246 87.6145 28.639 91.7149C28.6298 91.9649 28.7184 92.2085 28.886 92.3941C29.0536 92.5796 29.2871 92.6925 29.5366 92.7086Z" fill="#D1D0D6"/>
<path d="M82.1677 116.739C73.5757 116.853 62.6449 116.683 53.8309 117.099C53.0929 117.134 53.1265 118.639 53.8501 118.651C61.7857 118.787 73.7953 118.394 82.9693 118.587C83.9833 118.609 84.0301 117.627 83.9113 116.898C83.3189 113.317 83.2869 109.665 83.8165 106.074C83.8409 105.944 83.836 105.811 83.8022 105.684C83.7683 105.556 83.7063 105.438 83.6208 105.338C83.5353 105.238 83.4284 105.158 83.3079 105.104C83.1875 105.051 83.0566 105.025 82.9249 105.029C65.4673 105.441 48.0049 106.087 30.5485 106.367C30.3138 106.383 30.0944 106.489 29.9365 106.663C29.7785 106.838 29.6942 107.066 29.7013 107.301C29.6701 111.079 29.6773 114.861 29.6509 118.634C29.6672 118.883 29.7795 119.115 29.964 119.282C30.1485 119.45 30.3908 119.539 30.6397 119.531C35.6797 119.346 39.6481 119.373 44.6893 119.063C45.5293 119.011 45.4585 117.495 44.6257 117.493C39.9001 117.48 36.2557 117.531 31.5313 117.63C31.5133 114.461 31.5097 111.291 31.4881 108.122C48.3145 107.522 65.1541 107.258 81.9841 106.788C81.5903 110.098 81.6521 113.446 82.1677 116.739Z" fill="#D1D0D6"/>
<path d="M122.962 127.928C123.756 128.117 123.972 126.841 123.202 126.616C114.798 123.938 107.75 118.125 103.522 110.386C93.7643 92.9591 99.8015 70.1219 115.654 58.5371C129.694 48.2759 159.854 48.4847 169.579 65.2571C170.167 66.2711 171.695 65.7167 171.205 64.6379C163.602 47.8799 132.743 45.4799 117.61 54.7199C99.7907 65.6039 91.5263 89.1431 100.354 108.436C104.794 118.141 113.04 125.579 122.962 127.928Z" fill="#D1D0D6"/>
<path d="M191.558 131.441C191.863 128.854 191.592 121.961 191.603 117.928C191.603 116.481 190.244 117.012 190.195 117.618C189.906 122.222 189.894 126.839 190.159 131.444C190.213 132.131 191.479 132.12 191.558 131.441Z" fill="#D1D0D6"/>
<path d="M195.861 202.414C188.699 201.574 173.845 200.653 164.199 200.494C164.199 194.956 158.903 163.294 155.532 160.645C152.304 158.108 91.0654 157.636 88.537 162.445C85.213 168.776 90.7066 208 93.7402 209.035C98.6758 210.715 192.487 210.436 196.58 210.115C198.72 209.953 199.025 202.782 195.861 202.414ZM107.441 164.423C103.884 164.795 100.481 165.287 96.9334 165.806C93.8626 166.256 93.6454 166.9 93.3118 169.847C92.889 173.346 92.6862 176.869 92.7046 180.394C92.7046 181.144 91.6138 181.34 91.5142 180.551C91.0551 176.506 91.0857 172.42 91.6054 168.383C91.9486 165.733 92.9254 164.543 95.5654 164.004C99.4689 163.216 103.454 162.903 107.432 163.073C107.594 163.096 107.742 163.177 107.849 163.3C107.956 163.423 108.015 163.581 108.016 163.744C108.017 163.908 107.96 164.066 107.854 164.19C107.749 164.315 107.602 164.397 107.441 164.423ZM123.12 191.218C120.582 191.698 117.833 190.325 116.843 186.454C115.982 183.094 117.563 180.558 120.354 179.844C127.038 178.135 129.48 190.002 123.12 191.218Z" fill="white"/>
<path d="M192.504 111.103C181.092 99.7956 187.895 83.9424 180.597 76.2708C179.216 74.7829 177.352 73.8335 175.337 73.5918C173.322 73.35 171.287 73.8317 169.594 74.9508C163.972 65.808 152.505 63.5952 142.741 66.6372C132.101 69.9528 128.289 82.9428 136.83 87.1236C141.306 89.3148 157.02 89.5008 161.933 88.5492C162.326 92.6171 163.848 96.4944 166.326 99.744C166.581 100.05 166.936 100.474 167.358 100.104C167.815 99.6924 168.352 99.3801 168.936 99.187C169.52 98.9939 170.137 98.9241 170.749 98.9821C171.361 99.0401 171.955 99.2245 172.492 99.5238C173.029 99.8231 173.498 100.231 173.869 100.721C174.211 101.225 174.449 101.792 174.571 102.39C174.693 102.987 174.695 103.602 174.578 104.2C174.462 104.798 174.228 105.367 173.891 105.874C173.553 106.381 173.119 106.817 172.613 107.156C171.145 108.127 170.099 107.986 168.455 107.903C167.94 107.878 167.844 108.308 167.809 108.702C167.302 114.419 166.739 120.942 167.611 126.628C167.634 126.785 167.717 126.928 167.843 127.026C167.969 127.123 168.129 127.168 168.287 127.149C168.445 127.131 168.59 127.052 168.691 126.929C168.792 126.805 168.841 126.647 168.827 126.488C168.839 124.948 168.781 123.407 168.731 121.865C176.765 122.764 186.937 118.064 192.528 112.692C193.414 111.851 192.78 111.377 192.504 111.103ZM149.28 71.988C147.321 71.9528 145.383 72.393 143.632 73.2708C141.687 74.2044 138.384 76.5252 138.606 78.9588C138.672 79.6884 137.623 80.1348 137.351 79.3824C136.037 75.756 139.695 72.9228 142.133 71.592C144.305 70.4067 146.739 69.7819 149.213 69.774C152.379 69.7776 151.072 72.0636 149.28 71.988Z" fill="white"/>
</svg>
