<svg width="240" height="240" viewBox="0 0 240 240" fill="none" xmlns="http://www.w3.org/2000/svg">
<path d="M152.328 119.664H108.814C101.338 119.664 100.213 128.843 108.226 128.954C116.238 129.066 151.085 129.346 152.328 129.346C153.103 129.346 152.814 119.664 152.328 119.664Z" fill="#D1D0D6"/>
<path d="M193.458 96.7908C193.45 94.7704 192.685 92.8265 191.313 91.3429C189.942 89.8593 188.064 88.9438 186.05 88.7772C181.49 88.3512 81.9732 88.59 76.71 88.7772C71.4468 88.9644 68.976 92.5332 68.7564 95.718C68.6016 97.9572 68.424 104.156 69.3948 104.156C72.2988 104.156 191.755 104.459 193.169 104.48C194.002 104.492 193.458 97.6356 193.458 96.7908ZM169.717 100.2C164.965 100.2 164.531 92.784 169.453 92.784C169.961 92.7291 170.475 92.7794 170.963 92.932C171.451 93.0845 171.902 93.3359 172.288 93.6705C172.675 94.0051 172.988 94.4158 173.208 94.8768C173.429 95.3378 173.552 95.8393 173.57 96.3501C173.589 96.8608 173.501 97.3699 173.314 97.8454C173.127 98.3209 172.844 98.7528 172.482 99.114C172.121 99.4753 171.688 99.7581 171.213 99.9449C170.737 100.132 170.228 100.219 169.717 100.2ZM182.338 100.2C181.83 100.255 181.316 100.205 180.828 100.053C180.34 99.9008 179.889 99.6498 179.503 99.3157C179.116 98.9815 178.803 98.5713 178.582 98.1107C178.361 97.65 178.237 97.1488 178.218 96.6383C178.2 96.1277 178.286 95.6188 178.473 95.1431C178.659 94.6675 178.942 94.2355 179.303 93.8738C179.664 93.5122 180.095 93.2288 180.571 93.0413C181.046 92.8538 181.555 92.7662 182.065 92.784C186.96 92.7804 187.387 100.2 182.338 100.2Z" fill="#D1D0D6"/>
<path d="M193.067 131.782C193.856 123.572 193.924 115.308 193.271 107.086C193.188 106.038 191.569 106.235 191.653 107.283C192.203 114.094 192.373 128.179 191.015 135.123C189.656 142.066 184.679 141.178 179.186 141.243L84.9025 142.349C68.0533 142.546 70.1917 141.509 69.9913 107.385C69.9913 106.635 68.7157 106.618 68.6713 107.385C68.4061 112.043 68.2045 131.1 68.9689 135.861C70.5121 145.461 80.1289 143.985 87.9505 143.901L176.351 142.887C186.493 142.775 191.861 144.335 193.067 131.782Z" fill="white"/>
<path d="M155.232 119.783C155.15 119.786 155.07 119.806 154.996 119.84C154.922 119.874 154.855 119.923 154.8 119.983C154.688 120.105 154.629 120.265 154.636 120.43C154.643 120.595 154.715 120.751 154.837 120.862C154.958 120.974 155.119 121.033 155.284 121.026C163.552 121.469 171.923 120.936 180.132 121.409C183.053 121.578 184.436 122.832 184.572 124.159C184.961 128.095 178.244 127.647 175.932 127.707H155.58C154.549 127.707 154.62 129.397 155.648 129.387C162.698 129.329 169.744 129.239 176.784 129.208C180.144 129.192 186.36 129.088 186.031 124.168C185.765 120.166 181.033 119.937 178.061 119.91C170.849 119.847 162.096 119.506 155.232 119.783Z" fill="white"/>
<path d="M87.8819 113.124C87.6947 112.569 86.8931 112.731 86.7071 113.182C86.3375 114.084 86.2475 121.136 86.2043 122.448C85.1243 121.596 84.0551 120.75 82.9643 119.944C82.7591 119.792 81.0215 119.792 83.0495 121.792C84.2353 122.966 85.5557 123.994 86.9831 124.857C87.6899 125.036 90.4631 121.881 91.0883 121.298C92.6039 119.883 91.3283 119.356 90.8663 119.45C89.7743 120.183 88.7712 121.04 87.8771 122.005C87.8771 120.379 88.3031 114.34 87.8771 113.08L87.8819 113.124Z" fill="white"/>
<path d="M78.2858 129.915C77.3258 129.876 77.3618 126.795 77.3066 126.024C77.123 123.469 78.677 124.73 78.677 124.73C79.1198 125.21 79.0862 127.949 79.0694 128.537C84.4941 128.132 89.9432 128.184 95.3594 128.69C95.2142 126.986 94.7294 124.67 95.9378 124.585C97.1462 124.5 96.9182 126.203 96.935 127.599C96.9506 128.859 97.241 130.424 96.3986 130.41C90.2762 130.305 84.3314 130.165 78.2858 129.915Z" fill="white"/>
<path d="M118.939 66.1946C118.59 65.6918 115.838 62.1146 115.048 62.1926C112.849 62.393 102.674 65.6414 103.73 67.1654C105.305 73.4834 108.097 84.887 108.61 86.2826C108.822 86.8622 109.709 86.5634 109.622 85.9766C109.012 81.827 106.31 72.0362 104.956 67.0634C108.189 65.5409 111.579 64.3741 115.064 63.5834C116.077 64.7078 117.074 65.8142 118.079 66.9902C119.646 68.1566 148.559 59.3258 151.477 58.5422C156.997 76.229 157.086 79.7006 159.362 84.4814C159.65 85.0814 160.435 84.617 160.358 84.0638C158.272 76.9274 155.412 63.8126 152.371 57.5438C151.8 56.3534 118.939 66.347 118.939 66.1946Z" fill="white"/>
<path d="M128.076 36.5344C131.094 39.2044 141.474 52.1008 143.54 55.6696C143.862 56.224 142.979 56.656 142.63 56.206C138.384 50.746 136.063 46.7368 127.778 37.6336C116.197 45.5704 105.774 55.8232 104.105 55.2268C102.436 54.6304 100.238 54.2392 98.6628 53.7448C96.1174 55.8446 93.7586 58.1609 91.6128 60.6676C92.7624 61.8676 101.617 72.0328 102.461 73.5184C102.806 74.1244 101.988 74.8696 101.542 74.3104C94.4975 65.4736 89.676 61.3204 90.36 60.1744C91.44 58.366 96.1763 53.7112 97.9199 52.936C98.1671 51.8032 103.31 53.788 104.136 54.1276C104.138 54.0076 126.924 35.5204 128.076 36.5344Z" fill="white"/>
<path d="M81.5724 60.7528C81.726 59.4328 83.6412 50.3212 84.4932 49.99L89.3136 48.5332C90.1644 46.2256 97.9308 25.5856 98.6796 25.7332C101.702 26.3104 120.64 34.0252 122.268 35.254C122.754 35.614 122.42 36.4324 121.852 36.2248C114.59 33.5848 106.115 29.344 99.0636 27.0364C98.8332 28.2544 90.48 49.2784 90.3036 49.4572C89.4516 50.3092 86.3856 50.6416 85.0836 50.9824C84.9984 52.4548 83.2944 58.3912 82.8096 60.2128L86.8968 61.2604C87.5184 61.5412 87.4332 62.6056 86.6676 62.5204C87.1632 62.5204 81.48 61.5484 81.5724 60.7528Z" fill="white"/>
<path d="M56.5368 55.0641C55.6848 55.3449 52.9884 58.6149 53.13 59.4237C53.7044 62.8143 54.6792 66.1246 56.034 69.2853C56.4336 70.1997 75.066 64.3125 77.2548 63.6993C77.3376 63.6843 77.4166 63.6531 77.4874 63.6075C77.5581 63.5619 77.6192 63.5028 77.6671 63.4336C77.715 63.3644 77.7488 63.2865 77.7666 63.2042C77.7844 63.1219 77.7858 63.037 77.7708 62.9541C77.7557 62.8713 77.7245 62.7923 77.6789 62.7215C77.6333 62.6508 77.5742 62.5897 77.5051 62.5418C77.4359 62.4939 77.3579 62.4601 77.2756 62.4423C77.1934 62.4245 77.1084 62.4231 77.0256 62.4381C70.2256 63.8703 63.5287 65.7545 56.9796 68.0781C55.9283 65.2761 55.0494 62.4123 54.348 59.5029C54.9012 58.7961 57.84 55.6629 57.7548 55.0917C56.0508 47.1465 54.2544 38.9121 52.5084 31.0017C60.1728 29.6901 68.16 27.7617 75.8844 26.2665C76.3008 30.1161 79.1448 41.3733 80.9928 49.0665C81.0936 49.4841 81.84 49.1949 81.8448 48.7857C81.8784 46.2309 77.4516 29.0097 76.548 25.4025C76.2108 24.0561 53.5572 29.3625 51.666 29.9745C50.0916 30.4893 55.7868 52.1157 56.5116 55.0869L56.5368 55.0641Z" fill="white"/>
<path d="M50.2609 77.5287C42.7513 72.1059 30.0337 63.2175 21.8269 59.3223C20.1277 58.5159 10.8505 77.1279 10.5181 80.3391C10.5181 82.1607 26.2045 90.4191 29.6701 91.7919C29.7301 93.5811 29.7805 95.3691 29.8405 97.1571C30.2005 98.0091 33.6373 99.7143 34.6261 99.9759C38.7793 101.075 40.3573 101.483 40.7461 100.325C44.8897 87.7743 50.4733 77.6823 50.2609 77.5287ZM39.7105 99.7719C36.6675 99.2981 33.7325 98.2889 31.0417 96.7911C31.1437 96.0243 31.1689 91.1103 30.2665 90.6423C23.6929 87.2343 18.0805 84.1455 11.6593 80.2623C14.9641 71.6787 17.6209 68.1363 21.9289 60.7791C31.2373 66.4335 39.9829 71.4915 48.9289 77.9883C46.6933 81.9603 40.7917 95.5203 39.7105 99.7719Z" fill="white"/>
<path d="M37.7173 113.047C27.1669 112.713 15.7729 112.363 5.21293 112.613C3.07573 112.663 6.66733 133.746 7.39333 135.919C7.71133 136.872 24.2965 136.499 27.7369 135.979C28.2144 137.271 28.9898 138.432 30.0001 139.368C30.6133 139.837 40.5253 139.848 40.7293 138.559C38.5201 123.691 39.0205 113.088 37.7173 113.047ZM30.8533 138.247C30.4369 137.685 28.5037 134.688 27.9841 134.662C21.4441 134.857 14.9809 134.917 8.44933 135.028C7.01072 128.01 6.09699 120.894 5.71573 113.74L36.9157 114.22C37.5157 121.884 38.2189 130.11 39.2749 137.671L30.8533 138.247Z" fill="white"/>
<path d="M57.5758 165.008C52.0558 158.6 43.8598 147.576 43.1758 147.884C33.844 151.984 24.7772 156.662 16.0282 161.892C13.7482 163.283 25.1086 178.494 27.481 180.626C29.011 182 42.2734 172.425 44.623 170.978C45.9065 172.08 47.4062 172.9 49.0258 173.388C49.7698 173.603 58.4278 165.998 57.5758 165.008ZM49.1998 171.941C46.4062 171.003 44.791 169.243 44.0902 169.692C38.8234 173.067 33.931 176.394 27.8002 179.826C23.5827 174.433 19.9319 168.621 16.9054 162.48C25.633 157.37 34.2346 153.691 43.1494 149.442C45.0154 152.142 53.7094 163.212 56.281 165.315C53.9134 167.64 51.6742 169.718 49.1998 171.941Z" fill="white"/>
<path d="M94.465 187.813C92.3494 186.209 76.225 179.833 72.0778 178.966C70.8682 178.712 55.7458 204.926 56.6386 205.637C62.9155 210.275 70.0113 213.687 77.5534 215.694C79.2574 216.13 87.0334 198.704 88.0606 196.482C89.1346 196.482 90.4606 196.218 91.5406 196.21C92.6686 195.954 95.3662 188.497 94.465 187.813ZM91.225 195.133C90.289 195.193 87.2074 194.989 86.9254 195.593C83.9998 201.84 80.8798 208.013 77.8258 214.2C69.3058 211.645 65.3926 209.652 57.8566 205.097C57.8566 205.097 68.0746 185.945 72.3334 180.232C76.7434 181.739 89.6362 187.044 93.5194 188.533C92.7442 190.734 91.9702 192.923 91.2286 195.128L91.225 195.133Z" fill="white"/>
<path d="M147.295 200.527C146.981 198.211 146.673 194.933 146.359 192.625C145.788 191.22 136.676 192.757 124.542 192.753C123.128 192.753 125.3 219.424 125.444 222.234C127.335 224.154 145.193 223.213 145.175 220.896L143.615 203.517C145.2 202.461 146.733 201.617 147.295 200.527ZM142.467 203.355C142.904 209.115 143.341 214.871 143.779 220.624C138.069 221.625 132.265 221.985 126.475 221.697C126.321 212.628 125.163 203.423 125.469 193.927C132.019 193.877 138.464 193.732 145.209 193.264C145.337 194.124 146.18 200.161 145.873 200.485C145.873 200.76 143.481 201.701 142.467 203.355Z" fill="white"/>
<path d="M189.32 181.68C190.171 180.139 190.602 179.449 190.555 178.827C190.499 178.078 186.024 171.81 185.335 172.194C182.269 173.896 174.937 181.024 173.095 183.561C173.027 185.162 183.552 203.412 184.795 203.828C185.395 206.06 196.272 194.81 196.224 194.146C196.157 193.32 190.061 182.985 189.32 181.68ZM185.437 202.73C181.285 196.663 177.585 190.299 174.366 183.69C178.19 180.036 181.332 177.15 185.36 173.778L189.141 179.048L188.127 181.448C187.872 182.061 194.089 191.956 195.068 194.026C192.249 197.334 189.012 200.261 185.437 202.732V202.73Z" fill="white"/>
<path d="M225.196 155.548C224.159 154.456 216.774 150.882 215.412 150.396C215.514 149.852 215.855 147.276 215.548 146.991C213.717 145.941 211.81 145.03 209.843 144.266C208.855 144.266 202.499 157.596 203.031 158.044C204.951 159.659 217.761 168.046 220.155 168.964C220.932 169.257 225.785 156.168 225.196 155.548ZM219.909 167.214C218.597 166.364 205.44 157.89 204.282 157.494C204.402 157.384 209.392 147.004 210.184 145.574C211.514 146.467 212.943 147.203 214.441 147.77C214.279 148.795 214.259 149.838 214.381 150.869C214.381 151.218 222.36 155.297 223.902 155.885C222.565 159.645 221.227 163.468 219.909 167.214Z" fill="white"/>
<path d="M231.301 120.635C231.301 119.783 225.052 118.08 224.101 117.74C224.1 116.978 223.988 116.22 223.769 115.491C223.436 114.819 218.328 112.936 217.902 113.192C216.906 113.72 214.765 124.65 215.688 125.157C217.259 126.017 228.014 130.625 229.534 130.265C230.393 130.064 231.446 120.899 231.301 120.635ZM228.952 128.818C224.804 127.388 220.682 125.727 216.57 124.338L218.435 114.478L222.692 116.112C222.769 116.649 222.896 118.488 223.382 118.667L230.016 121.095C229.622 123.447 228.952 128.384 228.952 128.818Z" fill="white"/>
<path d="M229.837 85.3631C229.515 85.0451 222.65 85.2431 221.04 85.1927L218.869 83.1659C218.094 83.1659 214.16 82.9787 213.801 83.4467C213.443 83.9147 216.042 93.6719 216.62 94.4663C216.914 94.8695 230.918 94.8659 231.157 94.4663C231.032 91.3945 230.59 88.3438 229.837 85.3631ZM217.395 93.3839C216.578 90.3439 215.772 87.3183 214.977 84.3071C216.042 84.3071 217.532 84.4691 218.553 84.3743C219.13 85.0857 219.797 85.7187 220.538 86.2571C223.311 86.4848 226.094 86.5501 228.875 86.4527C229.15 88.8645 229.599 91.2532 230.22 93.5999C226.047 93.5891 221.576 93.3839 217.395 93.3839Z" fill="white"/>
<path d="M212.167 45.6974C211.702 45.2354 204.555 48.1838 203.647 48.5078C202.957 47.934 202.199 47.4475 201.39 47.0594C200.91 47.0594 195.691 49.0874 196.195 50.015C197.515 52.4354 201.245 58.3094 203.477 60.1226C204.197 60.7106 215.567 55.8638 216.37 55.1246C217.309 54.2618 212.975 46.499 212.167 45.6974ZM204 59.0582C201.633 56.129 199.741 53.0978 197.502 50.0402L201.207 48.4142C201.607 48.6614 203.2 49.8098 203.566 49.7162C206.336 49.0075 209.035 48.0471 211.63 46.847C212.771 49.3334 214.185 51.8198 215.291 54.3062C213.6 55.1558 204 58.9382 204 59.0582Z" fill="white"/>
<path d="M1.236 74.1314C1.014 74.7314 1.9008 75.221 2.1648 74.5994C8.4768 59.7314 15.9804 49.9418 27.252 38.8802C27.6516 38.4878 27.0648 37.7642 26.6124 38.1218C26.6124 37.4798 9.342 52.0946 1.236 74.1314Z" fill="#D1D0D6"/>
<path d="M99.8642 84.2723C97.4786 81.7703 93.6974 78.0899 90.7274 76.4207C90.1718 76.1099 89.7122 76.9247 90.1394 77.3327C93.0194 80.0759 96.1094 82.2203 99.0638 85.2011C99.6194 85.7615 100.401 84.8399 99.8642 84.2723Z" fill="#D1D0D6"/>
<path d="M125.734 26.9626C120.983 21.6826 110.32 17.6026 104.446 16.7446C104.293 16.722 104.138 16.7609 104.014 16.8527C103.89 16.9445 103.808 17.0817 103.786 17.2342C103.763 17.3866 103.802 17.5418 103.894 17.6656C103.986 17.7893 104.123 17.8716 104.275 17.8942C114.919 19.621 119.02 23.377 125.062 27.7714C125.542 28.1194 126.032 27.3034 125.7 26.9206L125.734 26.9626Z" fill="#D1D0D6"/>
<path d="M50.1673 65.4273C48.6769 65.3769 46.5457 68.6061 46.0453 69.6849C45.7765 70.2657 46.7521 70.7241 47.0677 70.1709C48.2917 68.0241 50.4733 66.6117 50.6605 66.1593C50.6878 66.0791 50.6961 65.9937 50.6846 65.9097C50.6731 65.8258 50.6422 65.7457 50.5943 65.6758C50.5464 65.6059 50.4829 65.5481 50.4088 65.5071C50.3347 65.466 50.252 65.4428 50.1673 65.4393V65.4273Z" fill="#D1D0D6"/>
<path d="M44.9891 40.4688C38.6999 42.0348 32.0399 48.8748 28.9091 54.426C28.5347 55.0896 29.6087 55.542 29.9891 54.894C33.5373 48.8688 38.9358 44.15 45.3815 41.4396C45.8663 41.2356 45.5087 40.3392 44.9891 40.4688Z" fill="#D1D0D6"/>
<path d="M40.9787 53.5401C41.4815 53.3949 41.8307 54.1401 41.4587 54.3909C38.7114 56.0634 36.52 58.5107 35.1599 61.4253C34.8335 62.1045 33.8399 61.5009 34.1471 60.8253C35.2271 58.4037 38.2091 54.3369 40.9595 53.5281L40.9787 53.5401Z" fill="#D1D0D6"/>
<path d="M22.7998 92.5918C20.2534 95.5198 18.8878 101.601 18.8662 105.374C18.8662 106.021 19.957 106.094 20.0074 105.443C20.455 99.703 21.9034 96.193 23.8726 93.3166C24.2794 92.7202 23.293 92.023 22.7998 92.5918Z" fill="#D1D0D6"/>
<path d="M15.0994 93.3837C13.0222 96.2793 12.0766 103.994 12.085 107.563C12.1079 107.703 12.18 107.831 12.2885 107.924C12.397 108.016 12.5348 108.066 12.6772 108.066C12.8196 108.066 12.9574 108.016 13.0659 107.924C13.1744 107.831 13.2465 107.703 13.2694 107.563C13.4072 102.85 14.3824 98.1983 16.1494 93.8265C16.3894 93.2265 15.5026 92.8053 15.1018 93.3585L15.0994 93.3837Z" fill="#D1D0D6"/>
<path d="M33.1022 198.126C21.3338 189.755 15.2954 180.567 9.65058 167.766C9.60284 167.641 9.50724 167.54 9.38482 167.485C9.2624 167.43 9.12317 167.426 8.99778 167.474C8.87239 167.521 8.77109 167.617 8.71618 167.739C8.66127 167.862 8.65724 168.001 8.70498 168.126C12.3158 180.047 22.1618 191.826 32.4206 198.952C32.9834 199.343 33.6722 198.526 33.1022 198.101V198.126Z" fill="#D1D0D6"/>
<path d="M228.108 134.967C228.092 134.849 228.033 134.741 227.943 134.662C227.853 134.584 227.738 134.541 227.619 134.541C227.499 134.541 227.384 134.584 227.294 134.662C227.204 134.741 227.146 134.849 227.129 134.967C226.689 138.087 226.794 139.679 225.171 142.571C224.868 143.11 225.816 143.651 226.131 143.116C227.345 140.992 228.679 137.427 228.108 134.967Z" fill="#D1D0D6"/>
<path d="M221.679 133.842C220.887 135.247 218.919 142.674 218.46 144.307C218.267 144.988 219.309 145.158 219.516 144.512C220.032 142.892 222.505 135.752 222.624 134.156C222.648 134.036 222.627 133.912 222.565 133.806C222.504 133.701 222.406 133.621 222.29 133.582C222.174 133.544 222.048 133.549 221.936 133.597C221.823 133.644 221.732 133.731 221.679 133.842Z" fill="#D1D0D6"/>
<path d="M194.693 182.015C194.61 182.109 194.563 182.23 194.559 182.355C194.555 182.481 194.594 182.604 194.67 182.704C194.746 182.804 194.855 182.875 194.977 182.904C195.099 182.933 195.228 182.92 195.341 182.865C198.295 180.839 203.592 175.653 204.656 172.065C204.818 171.521 204.086 170.976 203.804 171.529C203.386 171.699 201.456 177.029 194.693 182.015Z" fill="#D1D0D6"/>
<path d="M200.033 166.779C199.462 169.059 195.473 172.651 193.673 173.874C193.11 174.255 192.623 173.394 193.136 173.022C197.262 170.066 197.936 167.563 199.174 166.328C199.244 166.041 200.153 166.118 200.033 166.779Z" fill="#D1D0D6"/>
<path d="M163.279 210C163.14 210.045 163.023 210.142 162.955 210.272C162.886 210.401 162.871 210.553 162.912 210.693C162.953 210.834 163.047 210.953 163.175 211.025C163.302 211.097 163.453 211.117 163.595 211.08C166.228 210.305 173.702 207.512 175.763 205.417C176.123 205.057 175.694 204.319 175.235 204.566C174.93 204.41 168.995 208.265 163.279 210Z" fill="#D1D0D6"/>
<path d="M158.97 203.61C155.183 205.13 153.964 206.641 149.237 206.49C149.105 206.499 148.981 206.556 148.888 206.65C148.795 206.744 148.739 206.868 148.731 207C148.722 207.132 148.762 207.262 148.842 207.367C148.923 207.472 149.039 207.544 149.168 207.57C151.981 207.773 154.797 207.214 157.319 205.951C160.967 204.11 159.499 203.4 158.97 203.61Z" fill="#D1D0D6"/>
<path d="M167.486 190.521C162.474 192.538 157.149 193.671 151.75 193.868C151.111 193.884 151.187 194.864 151.826 194.856C156.026 194.798 164.186 193.631 167.929 191.449C168.45 191.145 167.98 190.393 167.486 190.598V190.521Z" fill="#D1D0D6"/>
<path d="M117.585 198.764C112.132 198.45 110.187 199.092 104.488 197.138C103.841 196.916 103.569 197.921 104.207 198.159C108.023 199.587 113.687 200.714 117.696 199.693C117.798 199.656 117.885 199.586 117.942 199.493C117.999 199.401 118.023 199.292 118.01 199.184C117.997 199.076 117.948 198.976 117.871 198.9C117.793 198.824 117.693 198.776 117.585 198.764Z" fill="#D1D0D6"/>
<path d="M114.971 209.672C107.373 209.293 102.985 209.457 95.5378 206.564C94.8994 206.317 94.3966 207.262 95.0434 207.524C100.643 209.821 109.134 211.764 115.149 210.659C115.761 210.548 115.499 209.699 114.971 209.672Z" fill="#D1D0D6"/>
<path d="M48.0721 192.012C42.9901 189.679 39.8389 188.5 36.4057 183.732C35.9713 183.132 35.0677 183.81 35.4865 184.414C38.1121 188.207 43.0801 192.471 47.8081 192.981C47.9265 192.989 48.0442 192.957 48.1412 192.888C48.2382 192.82 48.3083 192.72 48.3395 192.605C48.3707 192.491 48.3611 192.369 48.3123 192.261C48.2635 192.153 48.1786 192.065 48.0721 192.012Z" fill="#D1D0D6"/>
<path d="M58.819 185.872C58.8958 185.872 60.379 187.992 55.1062 185.71C51.8347 184.289 48.8126 182.351 46.1554 179.972C45.6202 179.492 46.447 178.758 47.0074 179.222C51.3418 182.801 54.2074 183.479 58.861 185.872H58.819Z" fill="#D1D0D6"/>
<path d="M64.6094 178.361C62.7962 176.982 60.9146 175.668 59.0654 174.333C58.487 173.916 57.9266 174.876 58.5038 175.293C60.3326 176.597 62.123 177.942 63.9626 179.202C64.4426 179.534 65.1038 178.742 64.6094 178.35V178.361Z" fill="#D1D0D6"/>
<path d="M18.3362 151.887C16.4085 148.785 15.6226 145.108 16.1138 141.489C16.1846 140.928 15.3446 140.832 15.1538 141.353C13.919 144.676 15.527 149.574 17.3678 152.423C17.7494 153.018 18.7202 152.497 18.3362 151.887Z" fill="#D1D0D6"/>
<path d="M28.938 149.97C27.4484 147.646 26.3252 145.106 25.608 142.44C25.4592 141.88 24.756 142.44 24.7056 142.926C24.6456 144.305 27.2568 149.742 27.9588 150.486C28.4496 151.012 29.3544 150.49 28.938 149.97Z" fill="#D1D0D6"/>
<path d="M237.398 97.2672C237.912 106.885 236.924 116.524 234.469 125.837C234.437 125.967 234.457 126.104 234.524 126.219C234.592 126.335 234.701 126.419 234.83 126.455C234.959 126.49 235.097 126.474 235.214 126.409C235.331 126.345 235.418 126.237 235.457 126.109C237.664 118.208 239.621 105.451 238.446 97.1568C238.446 96.5712 237.366 96.6432 237.398 97.2672Z" fill="#D1D0D6"/>
<path d="M197.418 30.4287C196.926 29.9487 196.059 30.6051 196.567 31.1187C200.249 34.8991 203.562 39.0222 206.461 43.4319C206.782 43.9119 207.603 43.4319 207.365 42.8955C207.661 42.8955 204.143 37.0707 197.418 30.4287Z" fill="#D1D0D6"/>
<path d="M198.12 40.8003C198.456 41.2803 197.745 41.7375 197.353 41.4003C194.795 39.1659 188.305 31.4943 185.713 28.5087C185.314 28.0479 185.967 27.3687 186.394 27.8271C189.143 30.7671 196.119 37.9203 198.12 40.8003Z" fill="#D1D0D6"/>
<path d="M219.048 63.0785C219.009 63.0225 218.959 62.9749 218.901 62.9383C218.843 62.9017 218.779 62.8768 218.711 62.8651C218.644 62.8534 218.575 62.8551 218.508 62.8701C218.441 62.8851 218.378 62.9131 218.322 62.9525C218.266 62.9919 218.219 63.0419 218.182 63.0997C218.145 63.1575 218.12 63.2219 218.109 63.2894C218.097 63.3568 218.099 63.4258 218.114 63.4926C218.129 63.5594 218.157 63.6225 218.196 63.6785C221.995 69.5585 222.767 73.3637 223.919 78.0869C224.062 78.6749 224.879 78.4361 224.898 77.8829C225.092 73.4945 219.433 63.0785 219.048 63.0785Z" fill="#D1D0D6"/>
<path d="M213.683 63.2132C213.435 62.5664 212.385 62.8532 212.627 63.5204C213.081 64.7828 215.279 71.3408 215.987 72.3248C216.249 72.692 216.962 72.5984 216.907 72.0608C216.726 70.3592 214.397 65.0792 213.683 63.2132Z" fill="#D1D0D6"/>
<path d="M229.403 102.12C229.326 101.627 228.412 101.4 228.457 101.984C228.594 106.35 228.281 110.719 227.521 115.021C227.401 115.711 228.441 115.703 228.594 115.021C229.41 110.767 229.682 106.426 229.403 102.103V102.12Z" fill="#D1D0D6"/>
<path d="M92.7022 26.75C90.2842 25.1072 84.6478 25.6988 81.9634 26.6816C81.2146 26.9552 81.4774 28.1696 82.2454 27.8996C87.6454 25.9964 90.343 27.704 92.413 27.7376C92.5288 27.7374 92.6414 27.6998 92.7341 27.6303C92.8267 27.5608 92.8943 27.4631 92.9269 27.352C92.9594 27.2408 92.9551 27.1221 92.9146 27.0136C92.8741 26.9051 92.7996 26.8127 92.7022 26.75Z" fill="#D1D0D6"/>
<path d="M167.503 61.6379C167.411 60.9827 166.515 61.2299 166.447 61.7747C165.677 67.9067 165.955 74.3315 165.042 80.8067C164.952 81.4463 166.062 81.6071 166.166 80.9687C167.001 75.8567 168.203 66.5999 167.503 61.6379Z" fill="#D1D0D6"/>
<path d="M131.082 19.4102C130.547 18.9302 129.762 19.6754 130.273 20.2022C141.275 31.5182 144.714 40.259 148.153 50.1854C148.381 50.8418 149.657 50.519 149.473 49.8446C146.04 37.2002 138.034 25.613 131.082 19.4102Z" fill="#D1D0D6"/>
</svg>
