<svg width="247" height="249" viewBox="0 0 247 249" fill="none" xmlns="http://www.w3.org/2000/svg">
<path d="M85.9029 121.424C80.9332 114.452 83.339 100.744 94.4602 97.964C86.5562 90.2101 89.6437 70.1158 104.823 67.2635C91.9815 51.3437 129.22 27.6949 139.11 51.4184C145.009 38.6036 171.234 48.8201 159.052 64.8644C172.751 62.2113 179.541 81.2984 167.354 89.5652C175.718 93.1496 181.618 105.293 173.504 114.419C167.481 110.587 154.592 107.191 145.526 106.3C145.695 100.297 144.233 93.8878 144.264 91.4601C147.284 90.6708 148.903 89.2515 148.71 86.1888C148.478 82.6156 143.926 81.3146 142.229 84.0013C139.519 81.327 137.123 75.8167 137.684 71.3857C131.7 74.1857 121.876 73.0889 118.159 71.3857C115.166 79.5616 116.213 105.451 129.039 103.804C129.044 105.024 128.724 106.223 128.113 107.275C108.533 109.519 93.2956 116.319 85.9029 121.424Z" fill="#F07D29"/>
<path d="M31.5478 138.548C92.6963 143.736 164.704 142.418 219.428 135.773C220.625 135.629 220.23 133.827 219.058 133.938C194.528 136.261 170.514 138.265 145.869 139.156C107.786 140.424 69.6635 139.68 31.6577 136.928C31.4493 136.921 31.2465 136.997 31.092 137.138C30.9375 137.279 30.8432 137.475 30.829 137.685C30.8148 137.894 30.8817 138.102 31.0157 138.263C31.1497 138.424 31.3404 138.526 31.5478 138.548Z" fill="#F07D29"/>
<path d="M236.479 192.822C233.224 175.22 231.897 160.695 230.085 143.053C230.061 142.884 229.973 142.73 229.84 142.625C229.707 142.519 229.538 142.469 229.37 142.485C229.201 142.501 229.044 142.582 228.933 142.711C228.822 142.84 228.764 143.007 228.771 143.177C229.812 160.364 231.802 177.479 234.731 194.443C207.525 199.378 180.04 202.598 152.436 204.084C106.89 206.783 68.104 204.217 22.9672 199.516C20.1588 179.607 20.9838 165.823 22.0076 145.557C22.0157 145.384 21.9572 145.215 21.8443 145.084C21.7314 144.954 21.5729 144.873 21.402 144.858C21.2311 144.843 21.0611 144.895 20.9274 145.003C20.7937 145.112 20.7069 145.268 20.685 145.44C19.0226 156.089 18.5855 184.464 21.0925 198.571C21.5087 200.907 21.5951 201.104 24.3282 201.426C66.7579 206.451 104.233 209.059 147.431 206.829C176.646 205.34 205.732 201.907 234.498 196.553C236.951 196.087 236.893 195.053 236.479 192.822Z" fill="#F07D29"/>
<path d="M39.6519 185.796C39.6423 185.915 39.6562 186.035 39.693 186.148C39.7297 186.261 39.7884 186.366 39.8658 186.456C39.9431 186.546 40.0375 186.619 40.1435 186.672C40.2494 186.725 40.3647 186.756 40.4826 186.763C40.6005 186.77 40.7187 186.754 40.8302 186.714C40.9417 186.675 41.0443 186.614 41.132 186.534C41.2197 186.454 41.2907 186.357 41.3409 186.25C41.3911 186.142 41.4194 186.025 41.4242 185.906C41.991 176.768 42.1318 167.835 43.5545 156.804C45.2094 156.885 49.6727 157.169 50.9645 156.535C51.582 156.23 51.5648 155.29 50.8546 155.263C48.1191 155.138 39.7915 154.983 34.7404 154.018C33.656 153.81 32.7644 155.512 35.5468 155.99C37.466 156.319 39.4062 156.514 41.3513 156.666C40.945 160.935 40.3917 166.417 40.1163 170.513C39.9829 172.411 39.5717 181.79 39.6519 185.796Z" fill="#F07D29"/>
<path d="M188.687 170.516C188.385 165.901 187.3 157.586 183.092 155.078C176.754 151.302 173.791 156.743 171.998 161.981C170.209 167.232 170.093 172.915 171.665 178.235C173.024 182.796 176.605 189.928 182.494 187.26C187.967 184.784 189.032 175.78 188.687 170.516ZM182.425 185.172C177.748 188.589 174.55 180.939 173.539 177.513C172.154 172.71 172.22 167.6 173.728 162.835C175.01 158.734 177.202 152.577 182.485 156.867C185.423 159.253 186.387 166.687 186.655 170.388C186.967 174.714 186.352 182.305 182.425 185.172Z" fill="#F07D29"/>
<path d="M169.039 155.874C169.354 154.315 168.065 154.131 167.636 155.309C165.981 159.859 163.461 166.016 162.363 169.044C161.961 170.15 163.454 171.004 163.977 169.726C165.375 166.31 168.454 158.769 169.039 155.874Z" fill="#F07D29"/>
<path d="M197.895 181.783C193.828 177.674 193.235 160.982 192.955 155.189C192.912 154.303 191.445 154.41 191.414 155.28C191.167 162.273 191.776 178.477 196.386 183.074C197.055 183.799 197.887 184.353 198.811 184.689C199.736 185.025 200.727 185.133 201.702 185.004C202.676 184.875 203.606 184.513 204.414 183.948C205.221 183.383 205.883 182.632 206.344 181.756C208.142 178.553 208.379 172.731 208.212 169.094C207.854 163.691 206.919 158.344 205.424 153.144C205.123 152.016 203.192 152.599 203.467 153.715C205.347 161.323 207.501 171.021 205.335 178.893C204.294 182.659 201.058 184.976 197.895 181.783Z" fill="#F07D29"/>
<path d="M216.697 176.405C215.996 168.818 215.194 157.774 213.812 150.341C213.661 149.528 212.083 149.607 212.099 150.466C212.216 156.707 213.908 170.356 214.555 176.629C214.728 178.31 216.945 179.102 216.697 176.405Z" fill="#F07D29"/>
<path d="M54.8009 186.083C55.0787 182.816 55.3159 178.418 55.6012 174.687C58.5405 174.827 61.6749 175.104 64.5845 175.167C67.3151 175.221 67.3275 173.414 64.708 173.254C61.7181 173.081 58.7244 172.98 55.7296 172.952C56.1297 167.68 56.6188 161.987 56.9559 156.201C57.1498 152.87 55.1874 152.971 54.9034 156.14C54.3871 161.875 53.9845 167.594 53.5745 172.926C52.9672 172.923 52.3604 172.964 51.7591 173.05C50.8773 173.186 50.7637 174.245 51.6911 174.42C52.2716 174.522 52.8584 174.584 53.4473 174.606C53.1645 178.305 52.7792 182.017 52.5099 186.02C52.3 189.18 54.5279 189.299 54.8009 186.083Z" fill="#F07D29"/>
<path d="M215.404 182.831C215.457 183.077 215.593 183.298 215.789 183.455C215.985 183.612 216.229 183.696 216.479 183.693C216.73 183.689 216.971 183.599 217.163 183.437C217.355 183.275 217.486 183.051 217.533 182.803C217.542 182.199 217.447 181.597 217.254 181.024C216.792 179.981 214.921 179.904 215.23 181.779C215.286 182.13 215.346 182.48 215.404 182.831Z" fill="#F07D29"/>
<path d="M67.535 189.267C68.9849 179.078 70.8522 168.539 71.8649 158.334C72.165 155.307 70.3359 154.463 69.9939 157.703C68.8922 168.095 66.8656 178.868 65.4478 188.842C65.2823 189.998 67.3682 190.44 67.535 189.267Z" fill="#F07D29"/>
<path d="M111.53 185.72C108.546 178.071 103.023 164.158 99.6294 158.313C98.9168 157.087 97.4879 157.964 97.63 159.981C97.7535 161.783 98.2388 177.467 99.3034 189.063C99.4269 190.357 100.81 190.41 100.811 189.046C100.811 181.451 99.7727 164.076 99.6035 162.27C102.632 169.279 106.7 178.997 110.163 186.231C110.785 187.532 111.951 186.799 111.53 185.72Z" fill="#F07D29"/>
<path d="M75.7695 190.284C76.7007 186.34 77.911 181.848 78.6606 178.911C81.4641 179.401 84.1626 179.783 86.9858 179.995C88.8901 180.139 88.905 178.346 87.1599 178.242C84.4474 178.08 81.7449 177.778 79.0632 177.336C80.7243 170.948 82.9078 164.227 84.5084 157.942C84.9752 156.11 83.6649 155.124 82.9523 157.099C80.4576 164.009 78.468 171.224 76.944 177.081C76.119 176.937 75.6793 177.1 75.5694 177.599C75.4595 178.098 75.8164 178.371 76.5735 178.517C75.8572 181.309 74.0096 187.557 74.001 190.026C73.9973 190.804 75.5818 191.058 75.7695 190.284Z" fill="#F07D29"/>
<path d="M93.8909 189.845C91.987 179.17 89.5422 168.6 86.5662 158.176C86.1586 156.807 84.894 157.6 85.1373 158.604C86.7428 165.265 87.3022 168.759 88.4273 173.834C89.6248 179.286 90.7521 184.753 91.8087 190.235C91.9989 191.232 94.0787 190.902 93.8909 189.845Z" fill="#F07D29"/>
<path d="M120.516 158.541C121.243 169.029 121.288 179.476 121.924 188.883C122.033 190.475 123.9 190.978 123.853 188.774C123.661 179.403 123.416 168.722 122.512 158.466C122.303 156.092 120.363 156.331 120.516 158.541Z" fill="#F07D29"/>
<path d="M113.328 157.521C112.785 161.179 112.153 181.058 112.249 189.098C112.241 189.226 112.259 189.355 112.302 189.476C112.346 189.598 112.413 189.709 112.501 189.802C112.588 189.896 112.694 189.971 112.811 190.022C112.928 190.073 113.054 190.1 113.182 190.1C113.31 190.1 113.436 190.073 113.553 190.022C113.671 189.971 113.776 189.896 113.864 189.802C113.951 189.709 114.019 189.598 114.062 189.476C114.105 189.355 114.123 189.226 114.115 189.098C114.486 179.429 115.109 161.256 114.759 157.52C114.725 157.354 114.635 157.205 114.505 157.097C114.374 156.99 114.211 156.932 114.043 156.932C113.875 156.932 113.712 156.991 113.582 157.098C113.451 157.206 113.362 157.355 113.328 157.521Z" fill="#F07D29"/>
<path d="M136.253 155.501C132.861 162.033 127.446 170.407 124.235 176.403C123.827 177.164 125.263 177.664 125.766 176.979C126.111 176.514 126.443 176.041 126.768 175.563C129.581 179.97 132.27 184.559 135.073 189.008C137.398 192.697 139.477 192.085 137.141 188.386C134.073 183.53 131.024 178.705 127.839 173.923C131.181 168.612 135.265 161.897 138.116 156.396C139.366 153.987 137.332 153.421 136.253 155.501Z" fill="#F07D29"/>
<path d="M161.72 170.668C158.347 165.913 154.994 161.144 151.663 156.359C151.271 155.795 150.07 156.198 150.37 156.906C151.433 159.412 159.084 170.739 161.04 172.934C161.347 177.693 161.44 183.99 161.905 188.317C161.896 188.468 161.919 188.619 161.973 188.76C162.027 188.901 162.109 189.028 162.216 189.134C162.323 189.24 162.451 189.322 162.591 189.374C162.732 189.426 162.882 189.447 163.031 189.435C163.18 189.424 163.326 189.381 163.457 189.308C163.588 189.236 163.703 189.136 163.793 189.015C163.882 188.894 163.945 188.756 163.978 188.608C164.01 188.461 164.011 188.308 163.98 188.16C163.66 184.29 163.447 179.741 163.068 175.249C162.827 172.425 162.627 171.952 161.72 170.668Z" fill="#F07D29"/>
<path d="M178.797 63.2745C181.576 58.8548 184.38 54.6367 187.61 50.0227C188.029 49.4264 187.151 48.4702 186.622 49.1002C183.211 53.3249 180.178 57.8452 177.557 62.6084C177.171 63.3119 178.37 63.9531 178.797 63.2745Z" fill="#F07D29"/>
<path d="M193.673 109.372C192.869 109.536 192.622 110.666 193.858 110.54C201.834 109.501 209.747 108.018 217.561 106.1C218.692 105.714 218.179 104.629 217.339 104.708C216.793 104.761 197.544 108.581 193.673 109.372Z" fill="#F07D29"/>
<path d="M190.211 85.8091C196.914 82.6281 216.185 70.1395 219.154 67.5325C219.298 67.4184 219.391 67.2514 219.413 67.0681C219.435 66.8848 219.383 66.7003 219.27 66.5552C219.157 66.4101 218.991 66.3162 218.81 66.2942C218.628 66.2723 218.445 66.3241 218.301 66.4381C215.213 68.455 195.87 80.9661 189.716 84.6351C189.202 84.9401 189.572 86.1141 190.211 85.8091Z" fill="#F07D29"/>
<path d="M36.0615 106.967C43.842 108.812 54.6458 110.453 63.7873 111.832C64.5443 111.947 64.8086 110.648 64.0343 110.48C54.174 108.315 44.2483 106.556 36.3085 105.659C35.5749 105.576 35.3316 106.792 36.0615 106.967Z" fill="#F07D29"/>
<path d="M80.454 67.1502C80.948 67.7391 82.5696 67.84 81.5655 66.3435C78.8349 62.2499 72.618 54.0329 69.5305 50.1734C68.9969 49.5049 67.794 50.3527 68.2955 51.0673C71.136 55.1061 75.9524 61.7669 80.454 67.1502Z" fill="#F07D29"/>
<path d="M71.09 90.1803C71.7902 90.5874 72.3929 89.4059 71.763 88.9589C63.118 82.8248 51.3287 75.1182 42.459 70.0698C41.6945 69.6353 40.8535 70.6798 41.6204 71.2127C50.2543 77.1899 62.1436 84.9811 71.09 90.1803Z" fill="#F07D29"/>
<path d="M123.147 83.5158C123.033 84.5305 122.309 85.4095 121.512 84.8056C121.197 84.386 121.024 83.8763 121.016 83.3505C121.008 82.8247 121.167 82.3101 121.468 81.8811C122.362 81.0121 123.292 82.2136 123.147 83.5158Z" fill="#180B02"/>
<path d="M136.714 98.5629C134.327 100.485 131.754 102.505 128.693 102.883C123.927 103.473 121.498 100.049 119.973 95.9658C117.376 88.7348 116.767 80.9304 118.21 73.379C118.364 72.5486 117.414 72.2336 117.23 73.0752C114.754 84.4047 116.704 105.006 128.198 104.455C127.841 106.313 127.064 108.062 125.927 109.567C125.68 110.303 126.224 110.591 126.76 110.358C128.177 109.735 129.608 105.941 129.779 104.25C132.809 103.487 135.542 101.822 137.621 99.4717C138.196 98.8529 137.339 98.0586 136.714 98.5629Z" fill="#180B02"/>
<path d="M122.581 75.945C121.866 75.9703 121.166 76.1649 120.538 76.5131C119.911 76.8613 119.373 77.3533 118.969 77.9494C118.634 78.4835 119.174 79.2841 119.966 78.6964C120.446 78.3226 120.995 78.0494 121.582 77.8928C122.168 77.7363 122.78 77.6997 123.381 77.7851C125.028 77.744 124.43 75.8977 122.581 75.945Z" fill="#180B02"/>
<path d="M127.757 77.9656C127.556 78.0686 127.398 78.2406 127.311 78.4507C127.224 78.6608 127.214 78.8952 127.283 79.112C127.352 79.3288 127.495 79.5137 127.687 79.6335C127.879 79.7534 128.107 79.8003 128.33 79.7659C129.093 79.5206 129.901 79.4513 130.694 79.5631C131.487 79.675 132.244 79.9651 132.911 80.4121C133.652 80.859 133.872 80.061 133.674 79.553C132.948 77.678 129.201 77.3145 127.757 77.9656Z" fill="#180B02"/>
<path d="M131.973 83.2184C131.537 82.8212 130.987 82.5743 130.402 82.5137C129.817 82.453 129.229 82.5817 128.721 82.881C128.13 83.2457 128.424 83.8085 129.052 83.7873C129.996 83.7694 130.93 83.9885 131.769 84.4248C132.484 84.8095 132.974 84.106 131.973 83.2184Z" fill="#180B02"/>
<path d="M127.141 88.7286C126.502 88.7983 125.71 89.2104 125.106 88.7635C124.402 88.2456 125.476 85.9722 125.703 85.3298C126.083 84.2304 125.18 84.1607 124.752 84.8243C123.945 86.0805 122.747 88.6004 124.17 89.813C124.666 90.1491 125.252 90.3253 125.85 90.3182C126.448 90.3111 127.03 90.121 127.519 89.7732C128.167 89.315 127.804 88.6564 127.141 88.7286Z" fill="#180B02"/>
<path d="M133.337 90.4244C133.153 89.6649 132.572 89.3637 132.027 89.9986C131.252 91.0321 130.251 91.8718 129.102 92.4528C127.953 93.0337 126.687 93.3403 125.402 93.3489C124.474 93.4248 124.547 94.2515 124.856 94.7109C127.236 98.2642 135.232 98.1932 133.337 90.4244ZM126.032 94.4482C127.217 94.5044 128.399 94.2816 129.484 93.7976C130.57 93.3135 131.528 92.5815 132.284 91.6594C132.71 95.9049 128.24 96.4303 126.032 94.4482Z" fill="#180B02"/>
<path d="M109.717 113.096C105.888 113.683 96.2814 118.178 92.9803 119.957C86.5731 123.411 75.0703 130.747 70.3946 136.452C69.8549 137.109 70.8071 137.822 71.3517 137.312C76.9014 132.18 83.0255 127.718 89.6001 124.016C95.9661 120.041 102.747 116.784 109.82 114.305C110.483 114.077 110.463 112.983 109.717 113.096Z" fill="#180B02"/>
<path d="M190.131 133.265C188.228 128.948 182.784 123.276 179.048 120.406C175.96 118.035 168.029 113.504 163.918 113.031C163.229 112.951 162.663 113.83 163.642 114.287C168.375 116.495 172.118 117.574 178.039 121.971C182.417 125.24 186.14 129.317 189.011 133.986C189.391 134.566 190.677 134.503 190.131 133.265Z" fill="#180B02"/>
<path d="M233.168 121.66C229.897 120.022 226.525 123.868 225.336 125.634C223.362 128.408 222.27 131.721 222.205 135.135C222.189 135.894 223.262 136.791 223.506 135.238C223.993 132.405 225.009 129.691 226.499 127.239C228.249 124.395 229.598 123.141 232.571 122.827C233.764 122.702 233.645 121.897 233.168 121.66Z" fill="#180B02"/>
<path d="M236.096 124.793C232.247 123.759 229.389 126.592 228.047 128.467C226.068 131.189 224.904 134.426 224.692 137.794C224.72 139.369 225.804 138.895 225.977 137.901C226.343 135.017 227.453 132.279 229.196 129.962C231.742 126.244 233.709 126.153 235.877 126C236.778 125.936 237.044 125.048 236.096 124.793Z" fill="#180B02"/>
<path d="M236.775 127.787C234.252 127.496 231.818 129.698 230.534 131.341C229.104 133.171 228.16 135.339 227.792 137.639C227.465 139.779 228.473 139.886 228.811 138.908C229.458 136.757 230.46 134.732 231.775 132.916C233.947 130.217 235.319 129.499 237.069 129.368C238.953 129.231 237.737 127.898 236.775 127.787Z" fill="#180B02"/>
<path d="M235.885 131.819C234.55 132.586 233.56 133.842 233.121 135.327C232.682 136.811 232.828 138.409 233.529 139.787C233.891 140.518 235.178 140.587 234.824 139.234C234.449 138.216 234.423 137.1 234.751 136.066C235.078 135.031 235.741 134.137 236.632 133.526C237.851 132.687 238.305 132.904 238.618 133.928C240.404 139.81 235.337 146.091 232.554 149.876C231.711 151.023 232.554 151.177 233.561 150.319C237.673 146.818 241.272 139.772 240.773 135.602C240.297 131.567 239.011 129.853 235.885 131.819Z" fill="#180B02"/>
<path d="M18.1734 153.789C13.184 149.497 9.7482 143.658 8.40459 137.187C7.07697 130.725 7.91183 126.741 14.2276 123.718C17.3275 122.233 19.4788 122.722 22.344 124.459C27.5533 127.616 27.8867 133.298 27.1433 138.852C26.9926 139.973 28.1942 139.973 28.5573 138.636C30.1455 132.795 28.6215 126.021 23.0999 122.962C20.0124 121.252 16.7668 120.571 13.4669 122.154C6.78921 125.363 5.31586 130.55 6.58667 137.234C7.8932 144.251 11.7651 150.518 17.4361 154.795C18.0228 155.208 18.6934 154.262 18.1734 153.789Z" fill="#180B02"/>
<path d="M24.4974 132.353C23.6694 129.684 22.049 127.336 19.855 125.624C19.2931 125.206 18.4385 126.02 18.9745 126.544C22.8536 130.343 24.1837 136.432 24.6555 141.825C24.7642 143.07 25.7336 142.414 25.8411 141.593C26.071 138.451 25.6123 135.296 24.4974 132.353Z" fill="#180B02"/>
<path d="M21.2583 134.944C19.9979 132.478 18.2134 130.322 16.0318 128.63C15.3476 128.097 14.6523 129.099 15.2365 129.676C17.0498 131.474 18.5647 133.555 19.7232 135.838C20.9388 138.078 21.7126 140.534 22.0018 143.07C22.1759 144.191 23.1392 143.719 23.2553 143.016C23.6999 140.323 22.2191 136.796 21.2583 134.944Z" fill="#180B02"/>
<path d="M13.9027 132.035C13.7786 131.927 13.6204 131.867 13.4564 131.865C13.2924 131.864 13.1333 131.922 13.0079 132.029C12.8824 132.135 12.7988 132.283 12.772 132.447C12.7452 132.61 12.7769 132.777 12.8616 132.919C13.9051 134.662 15.4316 136.084 15.7898 138.185C16.1405 140.247 15.397 141.066 13.9373 142.269C13.3889 142.719 13.5285 143.514 14.3213 143.464C16.6246 143.321 17.8633 140.523 17.6756 138.515C17.2509 135.961 15.9078 133.654 13.9027 132.035Z" fill="#180B02"/>
<path d="M159.357 136.047C159.012 127.795 159.675 119.531 161.333 111.443C157.361 109.971 153.254 108.899 149.073 108.244C146.472 121.576 137.827 127.725 128.828 126.776C118.792 125.718 121.397 113.918 124.505 109.366C121.293 109.695 118.113 110.285 114.996 111.13C110.766 115.344 103.893 125.231 100.946 137.229C107.957 137.632 145.2 137.114 159.357 136.047Z" fill="#180B02"/>
<path d="M144.996 92.0342C145.807 91.8985 146.576 91.5775 147.245 91.0957C147.914 90.614 148.465 89.9843 148.855 89.2549C149.246 88.5256 149.465 87.7158 149.498 86.8877C149.53 86.0595 149.373 85.2349 149.041 84.4771C147.606 81.4891 143.424 80.9164 141.682 83.6442C141.245 84.3289 142.217 84.9041 142.708 84.3128C143.052 83.915 143.491 83.6129 143.984 83.4351C144.477 83.2573 145.007 83.2098 145.523 83.2973C146.039 83.3847 146.525 83.604 146.933 83.9344C147.341 84.2647 147.659 84.695 147.855 85.1842C148.958 87.81 146.898 90.2564 144.354 90.6623C143.366 90.8216 143.544 91.6209 143.645 92.3916C144.455 98.5991 145.207 102.136 145.089 109.697C145.065 111.182 146.148 110.458 146.272 109.748C146.832 106.536 145.774 95.4605 144.996 92.0342Z" fill="#180B02"/>
</svg>
