<?xml version="1.0" encoding="UTF-8"?>
<svg xmlns="http://www.w3.org/2000/svg" width="25" height="24" viewBox="0 0 25 24" fill="none">
  <path d="M12.1667 13.5C14.3758 13.5 16.1667 11.7091 16.1667 9.5C16.1667 7.29086 14.3758 5.5 12.1667 5.5C9.95755 5.5 8.16669 7.29086 8.16669 9.5C8.16669 11.7091 9.95755 13.5 12.1667 13.5Z" fill="#FDEEE3"></path>
  <path d="M12.1667 22C17.6895 22 22.1667 17.5228 22.1667 12C22.1667 6.47715 17.6895 2 12.1667 2C6.64384 2 2.16669 6.47715 2.16669 12C2.16669 17.5228 6.64384 22 12.1667 22Z" fill="#FDEEE3"></path>
  <path d="M5.48298 19.4384C6.09131 18.0052 7.51161 17 9.16669 17H15.1667C16.8218 17 18.2421 18.0052 18.8504 19.4384M16.1667 9.5C16.1667 11.7091 14.3758 13.5 12.1667 13.5C9.95755 13.5 8.16669 11.7091 8.16669 9.5C8.16669 7.29086 9.95755 5.5 12.1667 5.5C14.3758 5.5 16.1667 7.29086 16.1667 9.5ZM22.1667 12C22.1667 17.5228 17.6895 22 12.1667 22C6.64384 22 2.16669 17.5228 2.16669 12C2.16669 6.47715 6.64384 2 12.1667 2C17.6895 2 22.1667 6.47715 22.1667 12Z" stroke="#807974" stroke-width="1.5" stroke-linecap="round" stroke-linejoin="round"></path>
</svg>
