<svg width="25" height="24" viewBox="0 0 25 24" fill="none" xmlns="http://www.w3.org/2000/svg">
<path d="M12.7002 13.5C14.9093 13.5 16.7002 11.7091 16.7002 9.5C16.7002 7.29086 14.9093 5.5 12.7002 5.5C10.4911 5.5 8.7002 7.29086 8.7002 9.5C8.7002 11.7091 10.4911 13.5 12.7002 13.5Z" fill="#15102B"/>
<path d="M12.7002 22C18.223 22 22.7002 17.5228 22.7002 12C22.7002 6.47715 18.223 2 12.7002 2C7.17735 2 2.7002 6.47715 2.7002 12C2.7002 17.5228 7.17735 22 12.7002 22Z" fill="#15102B"/>
<path d="M6.01649 19.4384C6.62482 18.0052 8.04512 17 9.7002 17H15.7002C17.3553 17 18.7756 18.0052 19.3839 19.4384M16.7002 9.5C16.7002 11.7091 14.9093 13.5 12.7002 13.5C10.4911 13.5 8.7002 11.7091 8.7002 9.5C8.7002 7.29086 10.4911 5.5 12.7002 5.5C14.9093 5.5 16.7002 7.29086 16.7002 9.5ZM22.7002 12C22.7002 17.5228 18.223 22 12.7002 22C7.17735 22 2.7002 17.5228 2.7002 12C2.7002 6.47715 7.17735 2 12.7002 2C18.223 2 22.7002 6.47715 22.7002 12Z" stroke="white" stroke-width="1.5" stroke-linecap="round" stroke-linejoin="round"/>
</svg>
