<svg width="291" height="210" viewBox="0 0 291 210" fill="none" xmlns="http://www.w3.org/2000/svg">
<g clip-path="url(#clip0_531_1247)">
<path d="M24.4964 115.22C24.6047 114.635 25.1085 114.663 25.608 114.636C32.6637 114.244 86.7469 116.814 86.7837 116.816C88.5916 116.916 88.1181 119.099 86.6928 119.034C26.1388 116.257 24.2137 116.749 24.4974 115.219L24.4971 115.221L24.4964 115.22Z" fill="#180B02"/>
<path d="M25.6926 124.247C25.7771 123.329 26.6468 123.336 27.3355 123.353C92.9704 125.037 88.0425 125.501 87.9412 126.642C87.807 128.16 87.9224 127.713 35.8566 125.782C27.4694 125.471 25.5874 125.363 25.6907 124.245L25.6926 124.247Z" fill="#180B02"/>
<path d="M93.9493 91.8221C93.384 94.3432 89.4804 93.5475 90.1693 90.8118C90.7931 88.3383 94.5838 88.9891 93.9493 91.8221Z" fill="#180B02"/>
<path d="M21.2584 95.7419C21.0667 94.9576 19.8668 94.4899 20.2684 93.9337C20.9416 92.9995 21.6676 95.9589 22.907 93.7247C23.2505 93.1045 24.002 93.5641 23.664 94.23C23.206 95.1333 22.1544 95.4476 23.4739 96.4249C23.7103 96.6012 24.1523 96.9007 23.8478 97.2733C23.5094 97.6881 23.1425 97.3951 22.8656 97.0835C21.5567 95.6056 21.4691 98.2056 20.6339 97.5751C20.1235 97.1888 20.6355 96.6017 21.256 95.7429L21.2574 95.7432L21.2584 95.7419Z" fill="#180B02"/>
<path d="M97.3212 92.8081C95.8545 92.6992 96.4187 90.1689 97.9225 90.6144C99.5917 91.1079 98.8486 93.2257 97.3212 92.8081Z" fill="#180B02"/>
<path d="M27.1707 94.9585C28.4706 95.3881 27.8068 97.3075 26.7046 96.9534C25.5437 96.5813 25.8419 94.8541 27.171 94.957L27.1707 94.9585Z" fill="#180B02"/>
<path d="M65.146 224.22C63.3824 223.433 65.0077 224.444 54.2971 217.474C50.7877 215.19 58.2674 215.898 80.8955 213.76C83.1016 213.552 84.8249 214.101 86.364 215.658C88.808 218.129 94.8116 221.439 90.9764 221.812C65.2482 224.311 66.4551 224.272 65.1451 224.22L65.1454 224.219L65.146 224.22Z" fill="#180B02"/>
<path d="M66.908 211.14C65.8231 210.716 65.3009 210.235 58.6622 204.893C57.2625 203.767 57.6655 203.316 59.1484 203.249C86.3224 202.013 82.22 200.626 90.3299 207.419C93.9571 210.457 89.5969 209.588 66.908 211.14Z" fill="#180B02"/>
<path d="M97.8881 221.082C96.2487 220.688 96.016 220.133 89.6528 214.466C89.3671 214.212 89.125 213.889 89.1919 213.564C89.2935 213.069 89.8272 213.161 90.1884 213.134C114.676 211.251 113.625 210.991 114.755 211.919C124.666 220.069 128.373 218.61 97.8901 221.079L97.8881 221.082Z" fill="#180B02"/>
<path d="M177.788 223.769C176.854 223.562 176.517 223.317 170.703 218.933C167.764 216.715 170.319 217.171 192.632 214.665C195.648 214.326 195.815 214.92 204.094 218.787C205.882 219.622 205.471 220.615 203.814 220.812C177.804 223.903 179.29 223.836 177.788 223.771L177.788 223.769Z" fill="#180B02"/>
<path d="M223.094 226.76C217.722 227.713 102.808 243.501 94.9283 244.09C93.9592 244.162 93.5795 243.371 94.3991 243.209C101.68 241.771 216.329 226.341 222.047 226.114C223.051 226.075 223.957 226.607 223.094 226.76Z" fill="#180B02"/>
<path d="M146.886 206.251C146.218 206.019 138.747 201.339 139.277 200.073C139.636 199.209 139.279 199.533 161.439 198.47C162.527 198.418 161.956 198.247 171.836 203.125C176.291 205.325 162.647 205.231 146.886 206.253L146.886 206.252L146.886 206.251Z" fill="#180B02"/>
<path d="M162.788 214.635C154.645 208.958 154.865 208.935 154.992 208.481C155.227 207.644 173.955 206.97 174.783 206.71C179.315 205.291 182.367 208.247 187.176 210.534C188.184 211.014 188.398 211.746 186.939 211.921C180.906 212.645 167.976 214.266 162.789 214.637L162.789 214.635L162.788 214.635Z" fill="#180B02"/>
<path d="M110.876 202.053C114.531 205.313 118.179 208.062 115.063 208.262C95.0978 209.536 99.4137 210.699 90.5076 203.281C90.1757 203.006 89.6936 202.764 89.8601 202.243C90.0266 201.722 90.5433 201.788 90.9793 201.766C109.204 200.898 109.203 200.561 110.876 202.052L110.877 202.053L110.876 202.053Z" fill="#180B02"/>
<path d="M121.989 207.769C121.578 207.551 110.716 200.826 115.343 200.609C134.593 199.705 133.083 199.368 134.601 200.639C140.979 205.971 140.717 206.003 140.614 206.359C140.426 207.014 122.46 207.801 121.989 207.769Z" fill="#180B02"/>
<path d="M50.6067 203.662C52.9389 204.168 57.6955 208.096 59.6702 209.692C59.9959 209.954 60.58 210.169 60.2984 210.839C60.0606 211.404 59.5944 211.641 59.059 211.688C58.3317 211.75 47.2407 212.296 47.2026 212.297C45.9105 212.325 46.0507 212.163 36.9331 206.115C35.8049 205.366 36.4326 204.375 37.3481 204.325C51.4403 203.567 50.6405 203.668 50.6071 203.664L50.6067 203.662Z" fill="#180B02"/>
<path d="M157.388 213.879C158.165 214.507 157.8 215.148 156.88 215.243C140.3 216.969 143.938 217.436 139.175 213.416C136.046 210.778 134.853 209.784 136.64 209.627C153.78 208.107 149.474 207.47 157.389 213.88L157.388 213.879Z" fill="#180B02"/>
<path d="M127.546 218.174C126.159 218.011 120.674 213.226 119.635 212.29C119.32 212.006 118.852 211.723 119.064 211.211C119.235 210.799 119.718 210.829 120.105 210.799C130.356 209.993 130.747 209.633 132.154 210.962C139.722 218.117 141.37 216.851 127.547 218.174L127.546 218.174Z" fill="#180B02"/>
<path fill-rule="evenodd" clip-rule="evenodd" d="M152.016 183.729C154.142 183.697 155.477 183.678 156.311 183.647L156.312 183.648C158.967 183.55 157.385 185.159 156.468 185.37C155.174 185.667 152.578 185.728 147.669 185.843C144.962 185.906 141.553 185.987 137.272 186.132L127.861 186.451L127.03 186.48C127.609 185.784 128.101 185.02 128.496 184.205C140.748 183.891 147.88 183.788 152.017 183.728L152.016 183.729ZM25.0993 187.846L22.5039 187.953C22.2723 187.964 22.0745 187.972 21.9029 187.907C20.8607 187.522 20.7996 184.477 20.1716 162.861C19.5404 162.955 18.9444 162.993 18.3807 162.982C18.4744 165.209 18.5577 166.905 18.5869 167.518L18.5978 167.755C19.3781 186.17 19.104 189.056 20.0748 189.565C20.2645 189.665 20.5029 189.672 20.8063 189.689C21.4042 189.771 22.5641 189.808 25.6336 189.761C25.3615 188.993 25.1828 188.435 25.0995 187.846L25.0993 187.846ZM17.8554 142.049C18.3654 141.492 18.9171 141.026 19.4973 140.639C19.234 132.423 18.9555 124.208 18.6618 115.994C18.5988 114.279 18.5427 112.751 18.4885 111.391C18.141 102.433 18.0788 100.805 19.6057 100.957C28.1276 101.813 139.055 108.156 142.211 108.068C144.061 108.018 143.473 107.127 142.052 106.939C135.59 106.074 99.4538 103.811 67.8328 101.832C41.3164 100.17 17.9732 98.7082 17.9615 98.4362C17.8925 96.8908 17.7759 95.3478 17.612 93.8096C17.3975 91.7075 17.3837 91.5651 18.4644 91.666C36.1692 93.3079 55.9548 94.8967 59.2273 95.1595L59.6965 95.1965C74.8478 96.3884 89.9972 97.6055 105.144 98.8479C144.927 102.098 148.727 102.406 149.7 100.182C147.385 99.7068 38.0323 90.4272 15.9448 89.5993C15.1701 89.5709 15.6811 99.324 16.5445 115.725C17.0148 124.498 17.4515 133.272 17.8548 142.048L17.8554 142.049Z" fill="#180B02"/>
<path fill-rule="evenodd" clip-rule="evenodd" d="M140.772 87.4882C145.04 87.8374 149.718 88.3621 152.533 89.2217C151.45 89.7903 150.733 90.4198 150.318 91.3566C148.347 91.0469 144.64 90.6867 137.236 90.0624C138.231 89.4506 139.392 88.6011 140.772 87.4875L140.772 87.4882ZM128.61 86.6584C90.641 84.1249 64.2717 81.7723 45.9391 80.1351C4.99141 76.4818 4.13761 76.4045 3.64317 85.9036C3.06711 96.9538 5.7207 171.671 5.72223 171.707C5.88646 175.742 6.0059 179.25 6.11054 182.31C6.6873 199.196 6.79843 202.438 11.3704 205.519C47.4401 229.822 53.39 233.512 56.8241 235.643C58.0713 236.416 58.9863 236.983 60.8917 238.257C61.7986 238.865 62.9102 239.64 64.1543 240.507C70.0085 244.588 78.787 250.71 82.8087 250.837C92.3057 251.135 137.029 244.715 158.438 241.641L158.441 241.64L158.445 241.64L158.479 241.635L158.484 241.634C162.161 241.106 165.147 240.677 167.144 240.399C176.475 239.103 185.809 237.829 195.145 236.578L195.149 236.577C232.824 231.504 236.355 231.029 233.445 225.61C230.679 220.459 191.821 203.605 187.601 201.818C184.017 200.3 181.039 199.052 178.568 198.019C169.395 194.181 167.23 193.274 167.181 192.267C167.165 191.956 167.353 191.636 167.599 191.215L167.638 191.147C167.907 190.684 167.67 188.548 166.544 178.484C164.772 162.682 163.072 146.872 161.445 131.054L160.186 132.581L158.861 134.196L159.169 137.44C160.224 148.615 161.056 157.439 161.522 157.404C162.8 167.54 164.011 177.684 165.157 187.835C165.617 191.895 163.427 191.907 158.338 191.937L158.336 191.937C157.181 191.944 155.875 191.951 154.416 192.007C132.239 192.861 111.643 193.667 93.5162 194.378L93.5133 194.377C51.6969 196.014 23.0124 197.138 18.3341 197.149C13.4564 197.163 12.246 198.63 11.5556 199.464C11.1988 199.895 10.9816 200.158 10.4677 199.962L10.4663 199.962C9.41269 199.559 9.33965 196.819 8.43041 163.123C8.31246 158.718 8.17813 153.781 8.02773 148.254C7.61113 133.011 6.98686 121.101 6.50042 111.817C5.46189 92.0121 5.05112 84.1578 8.60813 81.3754C10.9453 79.5457 14.9985 79.9095 21.7171 80.5117C22.6294 80.5936 23.59 80.6787 24.6017 80.7647C69.4285 84.5551 98.3727 86.9004 117.141 88.4198C122.44 88.8501 126.928 89.2134 130.734 89.5256C130.21 88.904 129.67 88.1454 129.048 87.2765L129.048 87.275L129.036 87.2607L128.606 86.6584L128.61 86.6584ZM153.615 159.896C153.147 154.008 152.705 148.118 152.29 142.225L153.562 140.671L155.364 164.231C154.9 163.952 154.414 163.709 153.913 163.505L153.852 162.79C154.197 161.903 154.077 160.885 153.615 159.896ZM199.146 232.838L199.144 232.839C177.379 235.786 146.654 239.949 115.483 244.67C112.73 245.087 110.219 245.473 107.923 245.826C84.4226 249.441 83.3664 249.604 74.6246 243.936C72.4931 242.554 18.704 207.17 16.1474 205.291C8.13444 199.397 12.8106 199.265 65.0878 197.781L65.0909 197.78C82.7113 197.28 105.74 196.626 135.512 195.547C149.968 195.023 156.695 194.588 160.048 194.372C163.364 194.156 163.382 194.155 164.308 194.493C165.09 194.777 165.613 194.949 166.08 195.104C168.371 195.86 169.278 196.159 192.552 206.9C228.395 223.442 233.868 226.339 229.969 228.375L229.969 228.374C229.22 228.764 217.299 230.379 199.146 232.838L199.146 232.838Z" fill="#180B02"/>
<path d="M151.254 110.565C95.449 155.439 95.6781 157.216 94.5442 156.195C87.3814 149.749 73.3752 151.771 67.5391 161.658C66.9027 162.735 65.6387 163.241 64.4201 162.966C58.0409 161.528 48.8229 165.23 47.0066 173.901C46.8189 174.8 46.3868 175.092 45.5403 174.697C41.7327 172.921 29.8294 174.854 28.4933 186.245C28.4144 186.918 28.4166 187.41 28.5393 187.768C61.545 186.726 61.5435 186.863 61.5383 186.472C61.4734 182.684 65.8073 177.222 70.664 174.769C73.6345 173.269 78.1387 172.937 78.0062 175.054C77.8682 177.263 75.0948 174.078 68.774 179.259C66.6647 180.988 65.0076 183.09 63.9736 185.63C63.3451 187.175 67.6567 186.555 123.999 184.723C125.135 183.892 129.027 177.786 123.604 172.911C122.332 171.768 123.169 172.565 150.008 139.68C152.033 137.198 161.806 125.224 163.972 122.69C165.819 120.53 153.133 110.382 151.254 110.562L151.255 110.565L151.254 110.565ZM134.598 146.683C134.56 146.726 108.48 175.561 106.826 175.382C104.651 174.372 105.999 174.282 133.353 145.642C133.775 145.2 134.228 144.64 134.868 145.167C135.554 145.733 134.996 146.231 134.598 146.683ZM150.051 124.725C139.075 135.268 116.464 154.713 115.412 154.648C115.09 154.57 114.876 154.395 114.831 154.093C114.478 151.669 175.037 100.727 150.049 124.726L150.051 124.725Z" fill="#F07D29"/>
<path d="M133.575 166.122C134.014 163.32 135.826 161.692 137.946 160.321C139.779 159.137 138.494 161.657 139.789 161.868C140.348 161.96 140.501 161.461 140.735 161.092C144.918 154.492 151.647 157.688 152.242 161.466C152.549 163.417 150.662 162.245 150.88 163.874C151.042 165.073 156.766 164.398 157.715 170.997C158.076 173.51 155.789 176.139 153.673 176.853C152.679 177.188 151.636 177.383 150.618 177.661C148.706 178.186 150.587 176.211 149.704 175.599C149.219 175.263 146.996 177.165 144.154 178.704C140.937 180.447 137.854 179.036 136.86 175.507C136.056 172.651 136.902 169.957 136.178 169.63C135.646 169.39 135.221 169.676 134.939 170.112C133.788 171.889 133.01 168.497 133.574 166.124L133.576 166.123L133.575 166.122Z" fill="#F07D29"/>
<path d="M27.2533 140.957C28.4553 141.216 29.6082 141.366 28.8004 142.363C28.1489 143.171 28.7562 144.289 29.9154 143.32C35.2013 138.9 44.1874 141.318 44.9973 148.161C45.1722 149.639 43.3748 148.077 41.804 148.432C41.2325 148.56 40.5832 148.655 40.4901 149.34C40.397 150.025 41.0818 150.173 41.5418 150.33C47.0777 152.226 49.8794 159.088 43.0305 162.324C41.3847 163.101 36.8133 164.274 37.1231 162.274C37.3394 160.873 36.1082 160.298 35.4146 161.914C33.0024 167.54 28.493 167.702 24.6728 164.82C21.277 162.257 26.1214 161.704 25.2254 160.223C24.487 159.005 17.4338 163.872 14.606 159.582C12.2183 155.958 16.0148 151.828 20.1419 150.411C20.6437 150.238 21.4699 150.273 21.2463 149.427C20.5482 146.794 16.2462 150.673 16.8675 147.843C17.9132 143.077 21.3817 139.698 27.257 140.961L27.2547 140.957L27.2533 140.957Z" fill="#F07D29"/>
<path d="M233.947 92.65C267.443 58.5167 269.733 14.9139 262.305 13.187C250.04 10.3347 226.835 15.671 210.742 24.953C201.306 30.3953 192.848 37.176 184.824 44.5101C182.797 46.3636 184.895 45.4849 159.51 46.5051C156.935 46.609 158.519 45.6317 139.578 69.0858C129.829 81.1568 128.786 81.2062 130.478 83.4706C133.971 88.1456 133.351 88.7692 135.73 87.0178C142.644 81.9274 151.934 72.8934 157.664 67.5449C158.828 66.4576 158.553 66.8875 162.148 67.5635C163.545 67.8265 162.336 68.3677 159.977 71.4511C155.165 77.739 152.39 80.2704 154.284 82.7917C157.724 87.3728 158.793 88.1494 159.886 89.949C153.162 92.5199 152.533 92.358 154.011 94.1566C155.307 95.7343 156.618 96.2821 154.874 97.0306C141.597 102.729 144.262 99.0712 170.177 123.528C175.403 128.462 175.829 128.469 176.813 126.271C179.569 120.119 179.13 119.508 180.512 120.941C182.236 122.726 183.873 124.737 184.693 122.392C186.632 116.856 186.235 116.056 187.483 117.128C197.258 125.521 197.21 124.681 199.044 123.622C202.678 121.524 209.513 115.583 212.264 113.271C212.662 115.022 212.88 116.645 213.419 118.155C214.146 120.203 213.675 119.112 202.481 133.12C192.947 145.051 193.26 145.059 195.102 146.263C200.449 149.757 200.455 149.432 202.602 147.486L232.516 120.527C234.315 118.927 234.073 118.518 233.916 109.649C233.617 92.744 233.058 93.5569 233.948 92.6517L233.947 92.65ZM229.827 19.7569C239.662 16.5259 250.633 14.3474 260.971 14.8805C262.436 14.9563 263.109 15.6307 263.161 17.1334C263.56 28.8734 261.565 36.2606 258.661 47.0112C258.622 47.1584 258.582 47.3062 258.542 47.4547C258.02 49.3848 259.784 49.7797 229.731 22.0899C227.986 20.4825 227.615 20.485 229.827 19.7569ZM224.586 21.5964C226.779 20.5205 225.814 20.7969 244.091 38.0552C257.521 50.741 257.614 50.3107 257.309 50.9654C256.292 53.9658 258.889 54.4071 236.125 33.7909C221.772 20.7934 222.618 22.5631 224.585 21.5976L224.586 21.5964ZM157.08 64.7922C149.334 71.7831 142.04 77.6785 135.243 84.7462C134.726 85.2833 134.401 85.3495 133.941 84.6386C131.829 81.3722 131.749 82.5582 134.021 79.7392C153.057 56.1493 155.466 53.4556 157.898 50.1303C159.342 48.1571 160.65 49.1247 180.531 48.3334C180.141 49.2493 179.487 49.7313 178.95 50.2679C166.824 62.4107 166.573 65.6246 164.082 65.0997C157.956 63.812 157.941 64.0131 157.079 64.7919L157.08 64.7922ZM177.969 118.981C174.445 126.003 175.251 125.196 174.296 124.34C170.249 120.72 168.305 118.805 150.415 102.898C148.763 101.428 150.71 101.737 155.837 98.2918C157.554 97.1376 156.883 97.3511 168.464 108.957C178.223 118.737 178.234 118.451 177.969 118.981ZM184.967 115.688C183.382 119.711 183.499 120.688 182.234 119.425C178.925 116.122 160.352 97.635 156.539 94.3172C155.17 93.1248 156.729 93.3484 160.523 91.5393C162.138 90.7702 160.759 92.392 179.967 110.543C184.414 114.745 185.435 114.972 184.967 115.688ZM203.982 116.238C196.492 121.793 197.447 122.463 196.073 121.326C175.124 103.958 160.829 86.0491 156.859 81.4192C156.488 80.9874 156.367 80.6958 156.841 80.2199C159.531 77.5246 161.855 73.3466 162.642 73.4815C163.196 74.0899 178.504 92.5339 196.97 108.41C204.829 115.167 205.715 114.953 203.982 116.238ZM206.021 113.027C183.553 93.2402 170.828 77.9159 165.262 71.926C164.618 71.2323 164.539 70.6931 165.231 69.9017C177.334 56.0238 193.329 36.7267 219.828 23.7302C221.741 22.7907 220.49 23.0321 238.069 39.2048C255.647 55.3796 255.943 54.6842 255.451 55.7105C247.517 72.2717 237.996 86.5077 216.03 105.797C206.733 113.963 207.207 114.066 206.024 113.024L206.022 113.025L206.021 113.027ZM200.859 145.876C200.258 146.431 199.738 146.523 198.999 146.066C198.98 146.054 198.961 146.043 198.943 146.031C196.493 144.52 196.446 144.491 198.39 142.3C204.482 135.439 209.998 128.115 215.704 120.94C216.309 120.18 216.44 119.481 216.164 118.511C215.659 116.734 215.693 114.735 214.903 113.125C213.335 109.932 217.287 110.167 230.462 96.371C230.545 96.2841 230.685 96.2511 230.999 96.0928C231.653 117.738 231.503 117.464 231.553 117.75C231.68 118.495 231.394 117.64 200.858 145.875L200.859 145.876Z" fill="#F07D29"/>
<path d="M206.021 113.027C183.553 93.2402 170.828 77.9159 165.262 71.926C164.618 71.2323 164.539 70.6931 165.231 69.9017C177.334 56.0238 193.329 36.7267 219.828 23.7302C221.741 22.7907 220.49 23.0321 238.069 39.2048C255.647 55.3796 255.943 54.6842 255.451 55.7105C247.517 72.2717 237.996 86.5077 216.03 105.797C206.733 113.963 207.207 114.066 206.024 113.024L206.022 113.025L206.021 113.027Z" fill="#FBEFE8"/>
<path d="M229.827 19.7569C239.662 16.5259 250.633 14.3474 260.971 14.8805C262.436 14.9563 263.109 15.6307 263.161 17.1334C263.56 28.8734 261.565 36.2606 258.661 47.0112L258.542 47.4547C258.02 49.3848 259.784 49.7797 229.731 22.0899C227.986 20.4825 227.615 20.485 229.827 19.7569Z" fill="#FBEFE8"/>
<path d="M224.586 21.5964C226.779 20.5205 225.814 20.7969 244.091 38.0552C257.521 50.741 257.614 50.3107 257.309 50.9654C256.292 53.9658 258.889 54.4071 236.125 33.7909C221.772 20.7934 222.618 22.5631 224.585 21.5976L224.586 21.5964Z" fill="#FBEFE8"/>
<path d="M203.982 116.238C196.492 121.793 197.447 122.463 196.073 121.326C175.124 103.958 160.829 86.0491 156.859 81.4192C156.488 80.9874 156.367 80.6958 156.841 80.2199C159.531 77.5246 161.855 73.3466 162.642 73.4815C163.196 74.0899 178.504 92.5339 196.97 108.41C204.829 115.167 205.715 114.953 203.982 116.238Z" fill="#FBEFE8"/>
<path d="M157.08 64.7922C149.334 71.7831 142.04 77.6785 135.243 84.7462C134.726 85.2833 134.401 85.3495 133.941 84.6386C131.829 81.3722 131.749 82.5582 134.021 79.7392C153.057 56.1493 155.466 53.4556 157.898 50.1303C159.342 48.1571 160.65 49.1247 180.531 48.3334C180.141 49.2493 179.487 49.7313 178.95 50.2679C166.824 62.4107 166.573 65.6246 164.082 65.0997C157.956 63.812 157.941 64.0131 157.079 64.7919L157.08 64.7922Z" fill="#FBEFE8"/>
<path d="M200.859 145.876C200.258 146.431 199.738 146.523 198.999 146.066L198.943 146.031C196.493 144.52 196.446 144.491 198.39 142.3C204.482 135.439 209.998 128.115 215.704 120.94C216.309 120.18 216.44 119.481 216.164 118.511C215.659 116.734 215.693 114.735 214.903 113.125C213.335 109.932 217.287 110.167 230.462 96.371C230.545 96.2841 230.685 96.2511 230.999 96.0928C231.653 117.738 231.503 117.464 231.553 117.75C231.68 118.495 231.394 117.64 200.858 145.875L200.859 145.876Z" fill="#FBEFE8"/>
<path d="M223.113 44.3401C231.736 46.6144 236.965 55.0172 234.851 63.7395C232.824 72.1003 223.781 77.4145 215.013 75.1088C206.736 72.9321 201.528 64.6645 203.71 55.9145C205.731 47.8132 214.498 42.0687 223.111 44.3412L223.113 44.3415L223.113 44.3401ZM232.219 62.544C233.913 56.3325 229.808 47.923 221.434 46.5938C204.01 43.8302 199.798 69.8252 217.147 73.0413C224.428 74.3909 231.34 68.7031 232.218 62.5439L232.219 62.544Z" fill="#F07D29"/>
<path d="M217.325 69.4847C212.174 68.6667 208.217 63.2435 209.4 57.5004C210.529 52.0144 216.3 48.2541 221.748 49.5503C234.958 52.6963 230.786 72.3791 217.325 69.4847ZM217.882 67.9986C228.789 70.2252 232.223 53.7611 221.375 51.2623C210.267 48.7038 206.714 65.7154 217.882 67.9986Z" fill="#F07D29"/>
</g>
<defs>
<clipPath id="clip0_531_1247">
<rect width="291" height="210" fill="white"/>
</clipPath>
</defs>
</svg>
