<svg width="354" height="210" viewBox="0 0 354 210" fill="none" xmlns="http://www.w3.org/2000/svg">
<path d="M161.647 47.0395C161.052 47.882 158.588 51.1778 158.879 52.0929C159.286 53.3691 163.481 54.2611 164.162 53.0912C164.339 52.7796 164.378 52.2469 164.042 52.1283C163.008 51.7637 161.918 51.8522 160.792 51.4911C161.146 50.2025 162.068 48.8201 162.597 47.436C162.851 46.9068 161.939 46.6236 161.647 47.0395Z" fill="#010614"/>
<path d="M155.149 42.2272C154.055 42.4307 153.875 43.298 155.234 43.4308C155.818 43.5555 156.353 43.8476 156.774 44.2715C157.463 44.9795 158.397 44.7335 157.978 43.5865C157.77 43.0411 157.361 42.5962 156.834 42.3433C156.308 42.0905 155.705 42.0489 155.149 42.2272Z" fill="#010614"/>
<path d="M169.92 43.4303C169.425 43.2771 168.892 43.3001 168.411 43.4953C167.931 43.6905 167.533 44.0459 167.285 44.5011C166.692 45.6109 167.285 46.2924 168.127 45.5224C168.619 45.0318 169.285 44.7551 169.98 44.7525C171.069 44.733 171.272 43.7188 169.92 43.4303Z" fill="#010614"/>
<path d="M172.68 56.3769C172.77 54.7396 172.559 53.6086 171.225 54.4511C168.326 56.2818 164.924 57.1532 161.502 56.9415C159.42 56.9415 160.012 58.3239 160.744 59.6248C164.205 65.7685 172.265 63.933 172.68 56.3769ZM170.743 56.6654C169.973 62.6834 164.474 62.5064 162.321 58.5664C165.257 58.8058 168.195 58.1425 170.743 56.6654Z" fill="#010614"/>
<path d="M177.143 44.0322C178.474 44.1599 179.812 44.2001 181.149 44.1526C183.135 43.9472 182.786 42.0392 180.993 42.0109C179.67 41.9906 178.349 41.902 177.035 41.7454C175.832 31.5661 166.688 32.8777 164.102 39.94C163.8 39.7302 163.455 39.592 163.092 39.5358C162.729 39.4797 162.359 39.5071 162.008 39.6161C161.599 31.0864 151.554 30.4474 149.17 40.0497C146.273 51.7193 159.999 57.1815 161.914 41.8905C162.194 41.8173 162.486 41.8084 162.77 41.8645C163.053 41.9206 163.321 42.0403 163.551 42.2144C161.647 56.2098 176.807 56.5921 177.143 44.0322ZM159.841 40.8108C159.606 43.7101 158.447 49.0218 154.885 49.0271C151.071 49.0271 150.193 44.2145 151.36 40.1771C151.577 39.2031 151.987 38.2823 152.564 37.4682C153.142 36.654 153.875 35.963 154.723 35.4353C158.109 33.7202 160.087 37.8018 159.841 40.8108ZM169.058 51.0485C165.351 50.0431 164.955 44.8287 165.569 41.8816C166.1 39.3417 168.323 35.9734 171.224 36.2389C173.196 36.4159 175.21 39.2833 175.118 43.3844C175.053 46.5934 173.106 52.1388 169.058 51.0449V51.0485Z" fill="#010614"/>
<path d="M158.627 75.5417C160.688 76.1931 161.038 78.0516 161.851 78.9578C163.775 81.1013 164.683 73.7133 164.775 72.8584C168.012 72.8584 172.74 71.0884 174.52 68.7679C174.954 68.2033 174.665 67.5643 173.906 67.8422C171.764 68.7555 170.046 70.2529 166.387 70.6565C155.309 71.8778 154.528 61.1764 154.898 52.6025C143.588 52.4697 145.273 30.8457 157.411 31.451C161.482 31.6545 165.582 28.311 167.35 25.964C166.698 24.4664 166.292 22.8737 166.146 21.247C166.146 19.7194 167.127 20.0416 167.562 21.3797C170.403 30.2598 175.455 36.876 186.609 39.0054C186.769 39.0054 186.922 39.0688 187.035 39.1816C187.148 39.2945 187.211 39.4475 187.211 39.6072C187.211 39.7668 187.148 39.9198 187.035 40.0327C186.922 40.1456 186.769 40.209 186.609 40.209C185.3 40.3021 183.983 40.1759 182.715 39.8355C183.03 41.3134 183.432 42.7715 183.919 44.2021C180.995 46.2482 182.503 48.312 183.137 47.2465C183.575 46.5162 184.23 45.9406 185.011 45.5999C185.792 45.2592 186.659 45.1703 187.493 45.3455C191.475 45.8517 189.263 56.7691 184.701 56.4151C182.487 56.2381 182.577 56.2469 182.294 59.0134C181.811 63.6579 181.108 75.9346 182.379 78.8658C182.696 79.5968 183.469 79.0658 183.751 78.7684C184.475 78.002 186.386 74.8744 188.923 75.3151C190.573 75.8294 192.089 76.701 193.364 77.8678C194.638 79.0346 195.64 80.4679 196.298 82.0659C200.245 83.0642 210.881 86.6254 214.912 89.8256C210.099 82.5226 205.562 72.6442 205.562 63.5606C205.562 54.4769 211.226 34.0476 199.295 17.445C188.273 2.12564 160.447 -0.430243 148.761 20.9319C141.016 35.0919 142.858 51.8502 139.991 62.4154C137.433 71.8335 134.131 78.6215 127.955 84.1687C134.073 82.516 140.329 81.4242 146.645 80.9066C149.7 76.8055 156.468 74.8567 158.627 75.5417Z" fill="#010614"/>
<path d="M205.851 23.6866C210.412 23.7945 219.8 21.5466 221.889 15.711C224.554 8.26456 217.174 -4.74316 206.994 -4.74316C198.789 -4.74316 196.165 3.57584 195.489 10.3018C200.087 13.7471 203.667 18.3721 205.851 23.6866Z" fill="#010614"/>
<path d="M191.953 91.6634C196.252 87.0614 195.417 80.985 189.121 77.8397C188.279 77.4202 187.528 77.2255 187.112 78.1052C184.505 83.5621 178.137 85.433 172.542 85.5392C164.566 85.6914 161.838 84.2046 159.236 78.5371C158.681 77.3299 158.454 77.0768 157.275 77.1423C153.027 77.3759 146.431 81.3089 148.287 87.38C150.567 94.8335 162.801 95.9822 167.092 91.7714C171.922 98.2213 186.546 97.4513 191.953 91.6634ZM165.893 89.7996C157.095 97.9522 140.315 83.2506 157.291 78.9707C159.698 86.3693 165.497 87.9022 172.559 87.7411C178.816 87.5995 185.409 85.5162 188.657 79.9212C201.892 87.4296 180.269 101.211 168.203 90.0509C167.216 89.1323 167.074 88.7057 165.893 89.7996Z" fill="#010614"/>
<path d="M168.493 105.8C170.479 106.349 171.38 101.835 169.6 101.758C168.072 101.699 167.169 105.436 168.493 105.8Z" fill="#010614"/>
<path d="M165.713 117.735C167.398 118.049 168.348 113.826 166.653 113.549C164.957 113.273 163.902 117.399 165.713 117.735Z" fill="#010614"/>
<path d="M163.079 97.8242C160.475 104.311 157.592 117.42 157.7 124.364C157.692 124.457 157.702 124.55 157.731 124.639C157.759 124.728 157.804 124.81 157.865 124.882C157.925 124.953 157.998 125.012 158.081 125.055C158.164 125.098 158.255 125.124 158.348 125.132C158.441 125.14 158.534 125.129 158.623 125.101C158.712 125.073 158.794 125.027 158.866 124.967C158.937 124.907 158.996 124.833 159.039 124.75C159.082 124.667 159.108 124.577 159.116 124.484C160.136 115.611 162.195 106.889 165.251 98.4968C165.652 97.2737 163.56 96.6206 163.079 97.8242Z" fill="#010614"/>
<path d="M340.913 210.051C235.831 210.021 130.488 209.499 25.4402 209.931C23.9357 209.931 24.2366 212.232 25.6685 212.232C130.714 213.174 236.072 212.498 341.166 212.533C342.766 212.544 342.495 210.051 340.913 210.051Z" fill="#010614"/>
<path d="M106.616 148.548C107.901 149.62 107.646 149.504 109.154 148.548C111.986 146.755 116.951 142.965 119.103 141.185C118.887 148.404 120.721 180.763 121.51 187.746C121.542 187.963 121.656 188.159 121.829 188.293C122.002 188.428 122.22 188.49 122.438 188.467C122.656 188.444 122.856 188.338 122.997 188.171C123.139 188.003 123.21 187.788 123.195 187.569C123.303 171.629 120.795 154.592 121.739 138.999C122.466 126.963 127.194 116.166 130.412 108.5C130.458 108.392 130.483 108.277 130.485 108.159C130.487 108.042 130.465 107.926 130.422 107.817C130.379 107.708 130.315 107.609 130.233 107.525C130.152 107.441 130.055 107.374 129.947 107.327C129.84 107.281 129.724 107.256 129.607 107.254C129.49 107.252 129.373 107.273 129.265 107.317C129.156 107.36 129.056 107.424 128.972 107.505C128.888 107.587 128.821 107.684 128.774 107.792C123.986 117.225 120.803 127.39 119.354 137.869C115.492 141.395 111.138 144.282 107.672 146.978C102.86 140.96 95.4365 125.32 92.4292 114.817C95.0878 111.808 97.9584 108.994 101.019 106.395C112.372 96.6177 116.429 91.6581 132.18 87.5553C136.486 86.4331 140.862 85.5463 145.161 84.4135C145.788 84.2489 145.62 83.1037 144.945 83.1143C140.938 83.5482 136.964 84.2435 133.047 85.1959C116.232 89.2421 112.328 93.1007 100.164 103.958C96.9797 106.561 94.0193 109.427 91.3141 112.525C90.7449 113.176 90.3863 113.984 90.2855 114.843C90.1847 115.702 90.3465 116.572 90.7495 117.337C93.4558 125.87 100.807 143.698 106.616 148.548Z" fill="#010614"/>
<path d="M210.29 146.323C210.081 158.042 208.828 173.581 208.738 180.082C208.725 180.948 210.221 181.01 210.434 180.19C211.131 177.51 213.089 148.84 212.119 146.19C211.791 145.302 210.303 145.564 210.29 146.323Z" fill="#010614"/>
<path d="M196.201 85.8649C219.388 93.0865 231.424 105.993 244.446 125.364C244.645 125.531 244.893 125.628 245.152 125.643C245.411 125.657 245.668 125.587 245.884 125.444C246.101 125.3 246.265 125.091 246.353 124.847C246.441 124.602 246.447 124.336 246.372 124.088C233.69 105.103 219.48 89.6633 196.537 84.2046C195.442 83.9427 195.166 85.5427 196.201 85.8649Z" fill="#010614"/>
<path d="M236.313 141.221C232.611 143.345 225.616 151.133 223.259 154.985C219.65 150.004 212.559 140.021 209.423 136.457C208.821 135.772 207.451 136.457 207.968 137.342C210.605 141.887 216.834 150.312 220.407 155.281C223.006 158.89 223.128 158.7 225.485 155.725C229.099 151.028 233.099 146.641 237.444 142.611C238.337 141.811 237.438 140.572 236.313 141.221Z" fill="#010614"/>
<path d="M53.1374 62.0514C54.2436 61.9823 54.3428 57.375 57.6243 54.5076C60.0333 52.4048 57.8509 51.6172 56.3252 52.704C53.1339 54.9713 50.8629 62.1823 53.1374 62.0514Z" fill="#010614"/>
<path d="M65.06 51.7199C67.5274 53.3129 66.945 51.3978 65.06 59.469C63.5502 65.9312 65.083 72.0961 66.5875 78.5266C71.5435 99.7294 81.19 123.054 85.6327 131.055C85.7635 131.172 85.9271 131.246 86.1013 131.266C86.2755 131.287 86.4519 131.254 86.6066 131.171C86.7612 131.088 86.8866 130.96 86.9657 130.803C87.0448 130.646 87.0737 130.469 87.0487 130.296C86.4255 128.75 85.7597 127.222 85.0521 125.713C86.6451 124.076 87.9638 122.621 89.9851 120.815C92.0065 119.01 89.8364 118.957 89.263 119.348C87.4168 120.618 85.6818 122.043 84.0769 123.607C77.7135 109.434 72.7533 94.6729 69.2673 79.5337C66.5238 67.6251 65.0936 68.0995 68.8336 54.6882C69.8089 51.1924 69.0974 51.2508 66.3308 49.5994C62.189 47.1214 61.0527 45.3514 57.5959 42.477C56.3427 41.422 53.3709 44.2045 65.06 51.7199Z" fill="#010614"/>
<path d="M45.6165 71.1633C46.8201 90.1607 56.502 127.639 62.3288 146.094C64.5661 153.174 68.5008 163.131 77.4163 163.617C85.4645 164.063 96.7571 157.821 104.437 148.109C105.065 147.317 103.504 146.178 102.874 146.907C98.428 152.04 87.1725 161.488 77.7402 161.332C69.5469 161.196 66.5786 152.38 64.6263 145.871C58.1852 124.392 50.2433 94.9273 48.0945 72.7085C47.8467 70.1349 48.252 69.4711 45.689 68.6782C40.9985 67.2303 39.6073 65.7435 36.0638 63.8655C35.6071 63.6248 34.1168 64.016 35.3788 65.5258C37.3028 67.8445 42.6446 70.2482 45.6165 71.1633Z" fill="#010614"/>
<path d="M290.19 92.8917C298.036 97.5751 298.04 100.149 300.657 102.515C300.791 102.633 300.959 102.704 301.137 102.717C301.314 102.73 301.491 102.685 301.641 102.588C301.791 102.492 301.905 102.349 301.966 102.182C302.027 102.015 302.032 101.832 301.98 101.662C301.535 99.6159 298.944 96.8406 297.378 95.4051C295.429 93.666 293.138 92.3545 290.652 91.5554C289.821 91.2739 289.526 92.4952 290.19 92.8917Z" fill="#010614"/>
<path d="M302.473 95.5039C304.723 95.665 306.084 94.295 303.472 93.7587C301.583 93.3711 299.537 93.2047 297.631 92.8436C296.494 92.6259 294.434 94.9216 302.473 95.5039Z" fill="#010614"/>
<path d="M293.594 101.625C294.374 103.347 294.971 105.227 295.856 106.848C296.334 107.721 297.468 107.508 297.433 106.462C297.221 104.481 296.633 102.559 295.7 100.798C293.004 94.6864 290.213 93.812 282.248 89.7534C281.466 89.3551 280.634 90.5729 281.418 91.1128C288.207 95.8033 290.369 94.497 293.594 101.625Z" fill="#010614"/>
<path d="M227.061 156.838C226.387 155.936 223.167 156.824 229.082 162.492C234.737 167.906 235.47 164.743 234.785 164.104C233.509 162.915 232.559 164.202 227.061 156.838Z" fill="#010614"/>
<path d="M247.069 135.614C252.089 120.463 255.947 107.17 265.61 93.6845C269.868 87.7409 271.553 89.4489 278.267 93.288C285.69 97.536 288.366 98.6812 286.195 108.712C285.885 110.144 285.285 111.508 284.991 112.935C284.871 113.523 286.618 115.979 288.397 108.832C291.052 98.1963 286.688 95.6174 278.254 90.8578C270.677 86.5797 268.426 85.9726 263.047 93.481C256.418 102.733 247.225 123.559 245.469 135.12C245.409 136.071 246.771 136.513 247.069 135.614Z" fill="#010614"/>
<path d="M269.304 115.618C268.251 118.519 265.693 133.672 266.415 136.216C266.447 136.399 266.537 136.568 266.671 136.696C266.806 136.825 266.979 136.906 267.164 136.929C267.348 136.952 267.536 136.915 267.698 136.823C267.86 136.731 267.988 136.589 268.063 136.419C268.52 135.416 269.037 126.93 271.426 116.147C271.695 114.944 269.748 114.416 269.304 115.618Z" fill="#010614"/>
<path d="M276.617 112.009C274.215 110.798 272.056 110.126 269.399 109.073C268.617 108.763 268.771 108.579 268.665 106.595C268.543 104.308 269.07 101.816 267.859 101.639C266.181 101.401 266.394 105.573 266.443 106.789C266.571 110.181 266.888 110.59 269.355 111.6C271.822 112.611 273.808 112.945 276.104 113.875C277.256 114.34 278.256 112.834 276.617 112.009Z" fill="#010614"/>
<path d="M86.7157 178.18C90.0818 178.529 93.4733 178.561 96.8454 178.276C97.0825 178.186 97.285 178.023 97.424 177.811C97.563 177.598 97.6314 177.348 97.6194 177.094C97.6075 176.841 97.5157 176.598 97.3573 176.4C97.1989 176.201 96.982 176.058 96.7374 175.991C93.395 175.697 90.0333 175.697 86.6909 175.991C86.408 176.005 86.1415 176.128 85.9475 176.334C85.7534 176.541 85.6468 176.814 85.65 177.098C85.6532 177.381 85.766 177.652 85.9647 177.854C86.1634 178.056 86.4325 178.173 86.7157 178.18Z" fill="#0705CB"/>
<path d="M113.988 195.217C113.241 195.217 113.05 196.585 113.855 196.781C120.08 198.29 162.303 197.635 167.682 197.564C169.15 197.543 169.369 195.192 167.875 195.263C153.501 195.973 126.178 195.265 113.988 195.217Z" fill="#0705CB"/>
<path d="M201.426 188.227C201.307 188.323 201.215 188.447 201.158 188.589C201.102 188.731 201.083 188.885 201.103 189.036C201.124 189.187 201.183 189.331 201.275 189.452C201.367 189.574 201.49 189.669 201.63 189.73C201.984 189.882 210.281 190.068 211.784 190.163C212.712 190.163 213.908 189.08 213.048 188.202C211.781 186.903 202.996 186.954 201.426 188.227Z" fill="#0705CB"/>
<path d="M113.184 192.812C122.293 193.545 154.655 193.178 165.833 193.075C167.036 193.065 167.426 190.994 166.026 190.951C159.794 190.736 115.783 190.41 113.089 190.951C112.9 191.029 112.74 191.164 112.63 191.336C112.521 191.509 112.468 191.711 112.478 191.915C112.489 192.119 112.562 192.315 112.689 192.476C112.815 192.636 112.988 192.754 113.184 192.812Z" fill="#0705CB"/>
<path d="M219.554 194.724C222.22 194.927 224.892 194.931 227.567 194.881C229.16 194.851 229.057 192.378 227.447 192.378C225.836 192.378 219.859 192.125 218.544 192.642C218.074 192.828 216.738 194.327 219.554 194.724Z" fill="#0705CB"/>
<path d="M87.762 199.836C84.6468 200.089 84.5494 202.509 87.9673 202.399C92.0825 202.268 96.2102 202.344 100.311 202.015C101.31 201.934 101.308 200.068 100.311 199.764C98.3572 199.18 90.5904 199.608 87.762 199.836Z" fill="#0705CB"/>
<path d="M219.314 196.962C218.303 197.286 218.652 198.909 219.638 198.971C221.731 199.1 224.45 198.654 227.879 198.886C230.166 199.04 230.92 196.842 228.107 196.481C225.17 196.136 222.195 196.299 219.314 196.962Z" fill="#0705CB"/>
<path d="M201.638 192.305C200.822 192.562 200.605 193.879 201.578 194.111C205.406 194.514 209.256 194.671 213.104 194.58C213.267 194.585 213.429 194.557 213.581 194.499C213.733 194.441 213.873 194.354 213.991 194.242C214.109 194.131 214.205 193.997 214.271 193.848C214.338 193.7 214.375 193.54 214.38 193.377C214.384 193.214 214.357 193.052 214.299 192.9C214.241 192.748 214.154 192.609 214.042 192.49C213.931 192.372 213.797 192.277 213.648 192.21C213.5 192.143 213.34 192.106 213.177 192.102C210.902 191.872 203.941 191.583 201.638 192.305Z" fill="#0705CB"/>
<path d="M86.8838 185.844C86.7169 185.955 86.5855 186.111 86.5057 186.295C86.4259 186.478 86.4011 186.681 86.4342 186.878C86.4674 187.076 86.5571 187.259 86.6926 187.406C86.828 187.554 87.0033 187.659 87.1971 187.708C87.9423 187.986 95.1019 187.822 96.9427 187.926C99.1092 188.048 100.55 185.538 95.6435 185.255C93.693 185.142 88.4273 184.871 86.8838 185.844Z" fill="#0705CB"/>
<path d="M97.2914 180.936C96.2294 180.267 87.5033 180.451 86.3793 181.08C86.2005 181.178 86.0543 181.326 85.9587 181.507C85.863 181.687 85.8221 181.891 85.8409 182.094C85.8597 182.297 85.9374 182.491 86.0645 182.65C86.1916 182.81 86.3625 182.929 86.5563 182.993C86.8572 183.126 96.2683 183.524 97.2153 182.993C97.396 182.892 97.5477 182.747 97.6558 182.57C97.7639 182.394 97.8247 182.193 97.8323 181.986C97.84 181.779 97.7942 181.574 97.6995 181.39C97.6047 181.206 97.4642 181.05 97.2914 180.936Z" fill="#0705CB"/>
<path d="M212.563 198.634C215.14 198.868 215.427 196.323 212.563 196.047C209.699 195.771 203.527 195.625 201.35 196.696C201.174 196.795 201.031 196.943 200.938 197.122C200.846 197.301 200.807 197.503 200.828 197.704C200.848 197.904 200.927 198.094 201.054 198.251C201.181 198.407 201.351 198.524 201.543 198.585C202.192 198.742 208.955 198.307 212.563 198.634Z" fill="#0705CB"/>
<path d="M202.108 202.917C203.178 203.255 213.345 203.651 214.537 202.989C214.703 202.883 214.838 202.736 214.93 202.561C215.021 202.387 215.065 202.192 215.058 201.995C215.051 201.798 214.992 201.607 214.888 201.44C214.784 201.272 214.637 201.135 214.464 201.042C210.333 200.599 206.167 200.599 202.037 201.042C201.816 201.087 201.618 201.209 201.479 201.386C201.34 201.563 201.268 201.784 201.277 202.01C201.285 202.235 201.373 202.45 201.526 202.616C201.678 202.782 201.884 202.889 202.108 202.917Z" fill="#0705CB"/>
<path d="M168.18 204.649C151.719 204.757 128.803 204.812 112.728 204.975C111.753 204.975 111.524 206.586 112.583 206.745C119.647 207.796 161.419 207.214 168.288 206.938C168.526 206.848 168.729 206.685 168.868 206.472C169.007 206.26 169.076 206.008 169.064 205.755C169.052 205.501 168.96 205.257 168.801 205.059C168.642 204.86 168.425 204.717 168.18 204.649Z" fill="#0705CB"/>
<path d="M202.553 185.471C204.854 185.572 209.375 185.664 211.685 185.629C213.995 185.593 213.356 183.386 212.372 183.221C211.612 183.096 205.152 182.308 202.283 183.221C200.267 183.738 200.449 185.381 202.553 185.471Z" fill="#0705CB"/>
<path d="M230.298 205.01C226.899 204.889 223.496 205.034 220.119 205.444C219.565 205.646 218.254 207.428 221.611 207.526C224.558 207.609 227.518 207.557 230.461 207.526C232.079 207.508 231.898 205.017 230.298 205.01Z" fill="#0705CB"/>
<path d="M228.24 203.518C229.817 203.643 230.176 201.217 228.594 201.112C226.535 200.965 220.461 200.523 218.427 201.208C217.356 201.562 217.705 203.077 218.68 203.277C220.599 203.67 225.675 203.314 228.24 203.518Z" fill="#0705CB"/>
<path d="M214.092 205.083C210.975 205.083 207.848 205.26 204.731 205.299C203.72 205.313 202.408 205.191 201.638 205.973C201.483 206.153 201.403 206.387 201.417 206.625C201.43 206.863 201.536 207.086 201.711 207.248C202.658 208.133 206.524 207.717 207.956 207.706C210.045 207.691 212.135 207.643 214.223 207.561C214.552 207.543 214.86 207.396 215.08 207.152C215.3 206.907 215.414 206.585 215.397 206.256C215.379 205.928 215.232 205.619 214.987 205.399C214.743 205.179 214.421 205.065 214.092 205.083Z" fill="#0705CB"/>
<path d="M85.4041 192.052C86.2696 192.378 94.3798 192.353 96.594 192.366C98.9995 192.38 99.1552 189.96 96.594 189.682C94.0328 189.404 86.8838 189.328 85.2235 190.332C85.082 190.435 84.9701 190.574 84.8991 190.734C84.828 190.894 84.8002 191.07 84.8185 191.244C84.8367 191.418 84.9004 191.585 85.0032 191.726C85.106 191.868 85.2442 191.981 85.4041 192.052Z" fill="#0705CB"/>
<path d="M165.823 202.796C166.101 202.766 166.358 202.635 166.545 202.428C166.732 202.22 166.835 201.95 166.835 201.671C166.835 201.391 166.732 201.122 166.545 200.914C166.358 200.706 166.101 200.575 165.823 200.546C150.386 199.909 127.106 200.252 112.222 200.282C111.999 200.292 111.788 200.388 111.634 200.549C111.48 200.711 111.394 200.925 111.394 201.149C111.394 201.372 111.48 201.587 111.634 201.748C111.788 201.909 111.999 202.005 112.222 202.015C127.46 202.266 150.374 203.134 165.823 202.796Z" fill="#0705CB"/>
<path d="M85.5493 197.058C89.9089 197.327 94.2719 197.506 98.6473 197.394C98.8718 197.336 99.0747 197.214 99.2317 197.044C99.3887 196.873 99.4932 196.661 99.5326 196.432C99.572 196.204 99.5447 195.969 99.4539 195.756C99.3631 195.542 99.2128 195.36 99.0208 195.23C97.4809 194.345 87.3158 194.507 85.3918 195.302C84.6431 195.605 84.767 197.01 85.5493 197.058Z" fill="#0705CB"/>
<path d="M101.177 204.843C95.9617 204.468 90.7223 204.617 85.537 205.289C84.3936 205.671 84.8875 207.413 85.9335 207.429C90.9391 207.547 95.9606 207.581 100.961 207.2C101.241 207.175 101.504 207.052 101.703 206.853C101.902 206.654 102.025 206.392 102.051 206.111C102.076 205.831 102.003 205.551 101.843 205.319C101.684 205.087 101.448 204.919 101.177 204.843Z" fill="#0705CB"/>
<path d="M77.0428 200.534C73.301 200.534 69.5344 200.426 65.805 200.679C65.58 200.72 65.3749 200.834 65.2216 201.004C65.0683 201.173 64.9755 201.389 64.9577 201.617C64.9399 201.845 64.9981 202.072 65.1232 202.264C65.2483 202.455 65.4333 202.6 65.6493 202.675C67.5432 203.346 74.8657 203.084 76.8498 203.029C77.1803 203.055 77.5074 202.948 77.7592 202.733C78.011 202.517 78.1668 202.21 78.1924 201.88C78.218 201.549 78.1112 201.222 77.8956 200.97C77.68 200.719 77.3732 200.563 77.0428 200.537V200.534Z" fill="#0705CB"/>
<path d="M74.5526 204.817C72.7967 204.848 66.1292 204.817 65.0229 205.492C64.8794 205.565 64.7572 205.674 64.6684 205.808C64.5796 205.942 64.5272 206.097 64.5163 206.258C64.5054 206.418 64.5364 206.579 64.6063 206.724C64.6762 206.869 64.7825 206.993 64.9149 207.085C66.3203 207.869 73.7826 207.373 75.9367 207.313C78.6307 207.235 79.6077 204.734 74.5526 204.817Z" fill="#0705CB"/>
<path d="M41.0642 0.886451C36.903 1.65109 17.8684 5.6035 13.2239 7.41952C8.57942 9.23554 8.4449 13.3508 9.206 16.7687C9.9671 20.1865 19.1552 52.2607 21.6703 57.4946C24.1855 62.7285 28.5362 62.2948 31.5239 61.6081C38.2925 60.0669 44.9797 58.1878 51.5603 55.9777C52.4674 53.1949 54.3026 50.808 56.7588 49.2163C56.1896 48.5425 55.6897 47.8131 55.2667 47.0392C55.1216 48.3136 52.8595 48.4711 51.6559 48.7472C49.985 49.1331 48.7071 47.903 50.1656 46.8941C50.6966 46.5206 53.9428 45.3666 54.7481 45.9312C53.0401 41.5522 56.2278 38.906 59.4298 41.4442C58.5271 37.4139 52.5268 11.4976 50.6824 6.55399C50.1453 4.53515 48.8351 2.80883 47.0353 1.74827C45.2355 0.687708 43.0905 0.378123 41.0642 0.886451ZM50.401 26.7178C50.578 28.1728 48.6788 27.8577 46.2981 28.7392C44.4556 29.4224 42.7918 28.6613 44.7582 27.0187C45.7477 26.1868 50.1426 24.5637 50.3939 26.7178H50.401ZM19.1162 24.6009C18.0454 24.3832 16.0718 16.1792 16.2276 15.4801C16.3834 14.7809 44.4626 7.73281 45.1954 8.18947C45.9282 8.64613 48.192 16.3952 47.9035 16.997C47.615 17.5988 19.8349 24.7443 19.0755 24.608L19.1162 24.6009ZM28.1963 30.8986C29.6796 30.7216 29.8938 32.9624 28.4123 33.2208C27.2104 33.4297 26.0086 33.7837 24.8723 34.0385C23.1536 34.4262 22.5129 33.1535 24.0174 32.173C25.3255 31.508 26.7397 31.0767 28.1963 30.8986ZM29.4229 37.7927C30.9628 37.5272 31.1558 39.9344 29.6637 40.1981C28.1716 40.4619 27.4742 40.8477 26.4263 40.9061C24.382 41.0247 24.6829 39.6441 25.7767 38.8724C26.9179 38.2967 28.1527 37.9293 29.4229 37.7874V37.7927ZM31.8284 44.3417C31.9814 44.3813 32.1252 44.4507 32.2514 44.5459C32.3776 44.6411 32.4837 44.7602 32.5638 44.8965C32.6439 45.0328 32.6963 45.1836 32.718 45.3402C32.7397 45.4968 32.7303 45.6561 32.6904 45.8091C32.3877 46.9737 31.0779 46.7224 28.1592 47.4339C26.6653 47.7985 26.1254 46.3878 27.5344 45.5453C28.8453 44.7992 30.3204 44.3888 31.8284 44.3506V44.3417ZM33.3807 53.4625C32.347 53.8165 28.8619 55.2768 28.4123 53.5829C28.0193 52.1014 31.2443 51.6854 32.5381 51.1757C34.8037 50.2907 35.6675 52.6324 33.3453 53.4625H33.3807ZM38.1703 28.2436C40.3598 28.1356 40.5757 30.1693 38.9031 30.5906C37.2304 31.0119 36.7614 31.0242 34.8498 31.5765C34.7346 31.6423 34.6073 31.684 34.4755 31.6992C34.3438 31.7143 34.2103 31.7025 34.0833 31.6644C33.9562 31.6264 33.8382 31.5629 33.7364 31.4779C33.6346 31.3929 33.5512 31.288 33.4912 31.1698C33.4311 31.0515 33.3958 30.9223 33.3872 30.7899C33.3786 30.6576 33.3971 30.5249 33.4413 30.3999C33.4856 30.2748 33.5549 30.1601 33.6448 30.0627C33.7348 29.9653 33.8437 29.8871 33.9648 29.833C35.2447 29.0242 36.6754 28.4835 38.1703 28.2436ZM35.5772 37.775C35.0002 35.9696 39.6217 35.297 40.3067 35.474C40.7757 35.5908 42.328 37.3148 39.3314 37.8795C38.2606 38.1573 36.0233 39.276 35.5418 37.7839L35.5772 37.775ZM37.9349 43.1293C39.2907 42.2386 40.9007 41.8159 42.5192 41.9257C42.7233 42.0356 42.8913 42.2021 43.003 42.4053C43.1148 42.6084 43.1655 42.8395 43.149 43.0708C43.1326 43.302 43.0497 43.5236 42.9103 43.7089C42.7709 43.8941 42.581 44.0352 42.3634 44.1152C41.1098 44.5045 39.8169 44.7538 38.5084 44.8586C38.3075 44.8566 38.1124 44.7918 37.9503 44.6732C37.7882 44.5546 37.6673 44.3883 37.6046 44.1975C37.542 44.0067 37.5406 43.8011 37.6008 43.6095C37.661 43.4179 37.7797 43.25 37.9402 43.1293H37.9349ZM39.9686 51.7439C38.873 51.9386 38.5738 50.0482 39.4996 49.6854C40.9812 49.1005 42.5109 48.6456 44.0715 48.326C45.2255 48.0941 45.5388 50.1544 44.5281 50.5403C43.0521 51.0863 41.527 51.4894 39.9739 51.7439H39.9686ZM53.3657 40.7221C52.8825 41.7133 48.2327 42.9611 47.9035 41.1787C47.6362 39.7008 50.0558 39.7627 51.9462 39.0547C52.168 38.9924 52.4031 38.995 52.6235 39.0622C52.844 39.1294 53.0405 39.2584 53.1899 39.4338C53.3393 39.6093 53.4352 39.8239 53.4664 40.0522C53.4976 40.2805 53.4626 40.513 53.3657 40.7221ZM51.5479 33.4067C52.0418 35.0191 47.9389 35.6829 47.2539 35.7537C45.4379 35.9395 44.8556 34.4864 47.1212 33.4527C48.1832 32.9677 51.0311 31.7676 51.5249 33.4031L51.5479 33.4067Z" fill="#0705CB"/>
<path d="M335.592 135.975C334.593 137.448 333.234 138.641 331.644 139.442C330.054 140.242 328.286 140.622 326.508 140.547C328.565 133.327 323.343 129.633 320.301 131.007C315.956 132.966 318.784 140.354 323.549 142.075C322.591 143.712 321.269 145.108 319.687 146.154C319.583 146.203 319.491 146.272 319.414 146.357C319.338 146.442 319.28 146.542 319.243 146.65C319.207 146.759 319.192 146.873 319.201 146.987C319.21 147.101 319.242 147.212 319.294 147.314C319.347 147.415 319.42 147.505 319.508 147.577C319.597 147.65 319.699 147.704 319.808 147.736C319.918 147.768 320.033 147.778 320.147 147.764C320.26 147.751 320.37 147.714 320.469 147.657C322.781 146.678 324.649 144.878 325.714 142.604C327.967 142.905 330.257 142.486 332.257 141.404C334.256 140.323 335.862 138.636 336.843 136.586C337.173 135.795 336.102 135.373 335.592 135.975ZM324.367 140.066C320.758 138.65 319.278 133.064 321.841 133.209C324.404 133.354 325.092 137.49 324.37 140.066H324.367Z" fill="#0705CB"/>
<path d="M240.97 136.529C239.957 137.513 241.812 151.532 242.173 153.227C244.819 149.857 248.021 146.964 251.641 144.673C251.505 143.636 251.429 142.591 251.413 141.545C247.563 139.103 241.782 135.745 240.97 136.529Z" fill="#0705CB"/>
<path d="M266.897 139.283C269.323 141.617 271.402 144.287 273.069 147.213C273.423 148.03 272.336 148.487 271.805 147.935C268.419 144.395 257.946 133.621 253.999 134.327C250.751 134.908 253.999 148.871 254.264 150.942C254.363 151.735 253.567 151.988 253.121 151.195C252.485 149.814 252.078 148.339 251.917 146.827C243.014 152.555 238.793 162.589 238.288 166.499C238.798 166.885 239.38 167.166 239.999 167.327C240.618 167.488 241.263 167.525 241.897 167.437C243.329 167.235 249.542 161.828 254.218 169.41C259.974 178.743 251.811 190.44 247.828 192.089C251.703 194.881 258.321 196.348 263.734 196.817C265.052 200.524 266.661 204.12 268.546 207.573C269.376 208.356 281.66 208.223 282.352 207.826C283.044 207.43 283.664 200.606 284 197.454C290.334 197.487 296.548 195.718 301.914 192.353C302.052 192.26 302.22 192.224 302.384 192.253C302.547 192.281 302.694 192.372 302.792 192.506C302.89 192.64 302.932 192.806 302.91 192.971C302.888 193.135 302.804 193.285 302.674 193.388C300.353 195.438 297.596 196.932 294.611 197.755C295.574 200.727 297.909 207.38 298.643 207.874C299.378 208.368 311.757 208.163 311.878 207.2C312.75 202.453 314.009 197.785 315.642 193.243C317.085 189.296 332.21 170.41 319.168 150.087C307.024 131.168 278.014 133.954 266.897 139.283ZM244.506 163.355C243.039 163.102 243.621 159.638 244.844 159.746C246.067 159.854 245.865 163.64 244.506 163.415V163.355ZM246.204 156.233C245.557 156.374 244.969 156.71 244.518 157.195C243.972 157.79 243.219 157.123 243.472 156.353C243.654 155.885 243.951 155.471 244.336 155.149C244.721 154.827 245.182 154.608 245.674 154.512C246.696 154.452 247.069 156.087 246.205 156.293L246.204 156.233ZM253.085 163.451C251.545 163.451 252.062 159.721 253.338 159.842C254.615 159.962 254.4 163.536 253.085 163.523V163.451ZM255.31 157.183C254.675 156.616 253.873 156.27 253.025 156.195C251.745 156.07 252.317 154.224 253.494 154.199C254.137 154.191 254.77 154.359 255.326 154.682C255.882 155.006 256.339 155.475 256.65 156.038C257.004 157.001 256.013 157.831 255.314 157.242L255.31 157.183ZM257.004 189.314C257.963 188.886 261.806 187.958 260.841 183.804C260.537 182.494 262.296 181.699 262.911 183.468C264.327 187.563 261.849 190.68 257.547 190.656C256.524 190.657 256.337 189.617 257.004 189.314ZM287.515 139.168C284.374 139.078 281.232 139.324 278.143 139.903C275.918 140.421 275.488 138.943 277.193 137.989C279.379 136.759 284.627 136.605 287.335 136.786C290.043 136.966 289.717 139.133 287.512 139.241L287.515 139.168Z" fill="#0705CB"/>
<path d="M285.75 199.392C285.573 200.245 284.956 205.66 284.547 207.428C288.293 207.911 292.086 207.911 295.832 207.428C294.476 204.583 293.424 201.603 292.692 198.537C290.988 198.935 287.17 199.211 285.75 199.392Z" fill="#0705CB"/>
<path d="M251.292 185.664C256.837 175.859 252.988 166.995 247.683 167.449C243.29 167.826 243.014 169.506 241.222 169.573C239.431 169.641 238.539 168.182 236.41 167.98C230.537 167.437 231.859 179.753 234.893 184.187C238.66 189.698 245.72 195.518 251.292 185.664ZM238.346 180.588C236.399 181.204 234.918 175.305 236.638 174.57C238.647 173.574 240.233 179.988 238.346 180.588ZM247.141 180.719C244.663 180.634 245.409 173.786 247.37 173.91C249.747 174.06 248.874 180.779 247.141 180.719Z" fill="#0705CB"/>
<path d="M251.954 196.022C253.158 199.957 256.225 206.949 257.765 207.573C260.496 208.019 263.271 208.138 266.031 207.927C264.411 204.87 263.039 201.687 261.928 198.41C258.506 198.095 255.148 197.291 251.954 196.022Z" fill="#0705CB"/>
<path d="M285.124 124.113C289.696 124.556 292.027 120.84 291.705 116.244C291.284 110.024 287.908 111.429 288.59 113.019C290.006 116.336 289.792 121.702 285.871 121.766C280.349 121.856 279.444 113.447 281.6 110.493C281.914 110.067 282.314 109.712 282.774 109.451C283.235 109.19 283.744 109.029 284.271 108.978C285.885 108.801 283.621 105.778 280.529 108.364C276.283 111.914 277.497 123.375 285.124 124.113Z" fill="#0705CB"/>
<path d="M343.801 89.9672C341.635 89.8339 339.469 89.7295 337.303 89.654C337.461 86.8828 337.279 84.1027 336.762 81.3757C336.708 81.1463 336.574 80.9441 336.383 80.8064C336.192 80.6686 335.957 80.6046 335.723 80.6262C335.488 80.6477 335.269 80.7534 335.107 80.9237C334.944 81.094 334.849 81.3174 334.838 81.5527C334.548 84.2256 334.499 86.9192 334.693 89.6009C332.031 89.4421 329.36 89.5429 326.717 89.9018C326.517 89.9684 326.345 90.0987 326.226 90.2726C326.108 90.4465 326.05 90.6545 326.06 90.8647C326.071 91.0749 326.151 91.2758 326.286 91.4366C326.422 91.5974 326.607 91.7092 326.813 91.755C329.441 92.0519 332.085 92.1766 334.73 92.1284V99.9164C334.73 101.396 337.291 101.373 337.291 99.7837V92.2169C339.505 92.3001 341.716 92.4099 343.921 92.5408C344.257 92.5171 344.57 92.3631 344.794 92.1117C345.017 91.8603 345.134 91.5314 345.118 91.1953C345.102 90.8592 344.956 90.5426 344.71 90.3131C344.464 90.0837 344.137 89.9595 343.801 89.9672Z" fill="#0705CB"/>
<path d="M239.212 57.3021C237.95 58.8774 236.571 60.3483 235.435 62.0192C234.812 62.9343 236.302 64.0759 237.07 63.3414C238.516 61.9608 239.766 60.3819 241.113 58.9022C242.883 60.3696 244.596 61.8794 246.407 63.2936C247.421 64.0848 249.572 62.6086 247.718 61.0917L242.798 57.0012C244.157 55.4737 245.564 53.9692 246.901 52.3992C247.125 52.1738 247.252 51.8696 247.255 51.5515C247.258 51.2335 247.137 50.9269 246.917 50.6973C246.697 50.4677 246.395 50.3333 246.078 50.3229C245.76 50.3125 245.45 50.4269 245.216 50.6416C243.669 52.1567 242.215 53.7638 240.861 55.4543C239.275 54.0317 237.564 52.7551 235.748 51.6399C234.797 51.2063 234.123 52.4223 234.64 53.1568C236.047 54.6622 237.576 56.0487 239.212 57.3021Z" fill="#0705CB"/>
<path d="M297.072 28.511C296.853 29.2771 296.834 30.0861 297.014 30.8619C297.195 31.6377 297.57 32.3548 298.105 32.9456C298.639 33.5363 299.315 33.9814 300.069 34.239C300.823 34.4965 301.629 34.5579 302.414 34.4175C303.746 33.996 304.883 33.1117 305.62 31.9245C306.357 30.7373 306.645 29.3255 306.431 27.9446C305.49 23.4541 297.997 23.9957 297.072 28.511ZM303.953 29.3287C303.514 32.4935 299.559 32.9395 299.309 30.0757C299.004 26.587 304.38 26.2507 303.953 29.3287Z" fill="#0705CB"/>
<path d="M292.804 17.4687C291.788 12.1445 284.595 13.0136 283.885 18.0917C283.812 19.4077 284.265 20.6987 285.143 21.6811C286.022 22.6635 287.254 23.2569 288.57 23.3309C289.245 23.2496 289.895 23.0296 290.48 22.6847C291.065 22.3397 291.573 21.8773 291.97 21.3266C292.368 20.776 292.648 20.1489 292.791 19.4849C292.935 18.8209 292.939 18.1345 292.804 17.4687ZM288.397 16.4208C292.174 15.9748 290.431 21.6034 288.276 20.9556C284.793 19.906 286.052 16.697 288.397 16.4208Z" fill="#0705CB"/>
<path d="M288.529 33.2642C293.628 28.2138 298.383 22.8275 302.762 17.1412C303.365 16.0474 301.7 14.9057 300.921 15.7252C298.243 18.605 288.542 28.9542 286.977 32.0517C286.48 33.0447 287.75 33.7934 288.529 33.2642Z" fill="#0705CB"/>
</svg>
