<?xml version="1.0" encoding="UTF-8"?>
<svg xmlns="http://www.w3.org/2000/svg" width="25" height="24" viewBox="0 0 25 24" fill="none">
  <path d="M7.83334 7C10.8709 7 13.3333 6.10457 13.3333 5C13.3333 3.89543 10.8709 3 7.83334 3C4.79578 3 2.33334 3.89543 2.33334 5C2.33334 6.10457 4.79578 7 7.83334 7Z" fill="#FDEEE3"></path>
  <path d="M16.8333 13.5C19.8709 13.5 22.3333 12.6046 22.3333 11.5C22.3333 10.3954 19.8709 9.5 16.8333 9.5C13.7958 9.5 11.3333 10.3954 11.3333 11.5C11.3333 12.6046 13.7958 13.5 16.8333 13.5Z" fill="#FDEEE3"></path>
  <path d="M11.3333 11.5C11.3333 10.3954 13.7958 9.5 16.8333 9.5C19.8709 9.5 22.3333 10.3954 22.3333 11.5V19C22.3333 20.1046 19.8709 21 16.8333 21C13.7958 21 11.3333 20.1046 11.3333 19V11.5Z" fill="#FDEEE3"></path>
  <path d="M13.3333 5C13.3333 6.10457 10.8709 7 7.83334 7C4.79578 7 2.33334 6.10457 2.33334 5M13.3333 5C13.3333 3.89543 10.8709 3 7.83334 3C4.79578 3 2.33334 3.89543 2.33334 5M13.3333 5V6.5M2.33334 5V17C2.33334 18.1046 4.79578 19 7.83334 19M7.83334 11C7.6648 11 7.49802 10.9972 7.33334 10.9918C4.53009 10.9 2.33334 10.0433 2.33334 9M7.83334 15C4.79578 15 2.33334 14.1046 2.33334 13M22.3333 11.5C22.3333 12.6046 19.8709 13.5 16.8333 13.5C13.7958 13.5 11.3333 12.6046 11.3333 11.5M22.3333 11.5C22.3333 10.3954 19.8709 9.5 16.8333 9.5C13.7958 9.5 11.3333 10.3954 11.3333 11.5M22.3333 11.5V19C22.3333 20.1046 19.8709 21 16.8333 21C13.7958 21 11.3333 20.1046 11.3333 19V11.5M22.3333 15.25C22.3333 16.3546 19.8709 17.25 16.8333 17.25C13.7958 17.25 11.3333 16.3546 11.3333 15.25" stroke="#807974" stroke-width="1.5" stroke-linecap="round" stroke-linejoin="round"></path>
</svg>
