<svg width="25" height="24" viewBox="0 0 25 24" fill="none" xmlns="http://www.w3.org/2000/svg">
<path d="M7.8999 7C10.9375 7 13.3999 6.10457 13.3999 5C13.3999 3.89543 10.9375 3 7.8999 3C4.86234 3 2.3999 3.89543 2.3999 5C2.3999 6.10457 4.86234 7 7.8999 7Z" fill="#15102B"/>
<path d="M16.8999 13.5C19.9375 13.5 22.3999 12.6046 22.3999 11.5C22.3999 10.3954 19.9375 9.5 16.8999 9.5C13.8623 9.5 11.3999 10.3954 11.3999 11.5C11.3999 12.6046 13.8623 13.5 16.8999 13.5Z" fill="#15102B"/>
<path d="M11.3999 11.5C11.3999 10.3954 13.8623 9.5 16.8999 9.5C19.9375 9.5 22.3999 10.3954 22.3999 11.5V19C22.3999 20.1046 19.9375 21 16.8999 21C13.8623 21 11.3999 20.1046 11.3999 19V11.5Z" fill="#15102B"/>
<path d="M13.3999 5C13.3999 6.10457 10.9375 7 7.8999 7C4.86234 7 2.3999 6.10457 2.3999 5M13.3999 5C13.3999 3.89543 10.9375 3 7.8999 3C4.86234 3 2.3999 3.89543 2.3999 5M13.3999 5V6.5M2.3999 5V17C2.3999 18.1046 4.86234 19 7.8999 19M7.8999 11C7.73136 11 7.56458 10.9972 7.3999 10.9918C4.59665 10.9 2.3999 10.0433 2.3999 9M7.8999 15C4.86234 15 2.3999 14.1046 2.3999 13M22.3999 11.5C22.3999 12.6046 19.9375 13.5 16.8999 13.5C13.8623 13.5 11.3999 12.6046 11.3999 11.5M22.3999 11.5C22.3999 10.3954 19.9375 9.5 16.8999 9.5C13.8623 9.5 11.3999 10.3954 11.3999 11.5M22.3999 11.5V19C22.3999 20.1046 19.9375 21 16.8999 21C13.8623 21 11.3999 20.1046 11.3999 19V11.5M22.3999 15.25C22.3999 16.3546 19.9375 17.25 16.8999 17.25C13.8623 17.25 11.3999 16.3546 11.3999 15.25" stroke="white" stroke-width="1.5" stroke-linecap="round" stroke-linejoin="round"/>
</svg>
