<svg width="235" height="235" viewBox="0 0 235 235" fill="none" xmlns="http://www.w3.org/2000/svg">
<path d="M71.9552 164.032C70.5452 169.252 66.6774 212.47 66.205 217.908C66.1658 218.465 65.6713 219.029 64.8672 219.026C64.6591 219.026 20.4995 218.961 20.4506 218.959C20.256 214.909 19.5155 202.273 17.8019 200.987C16.1373 199.739 6.18766 204.886 2.55369 206.838C7.29045 162.647 9.20719 133.32 9.5193 132.2C9.65639 131.747 10.0713 131.404 10.5181 131.336C10.5878 131.319 17.5436 131.227 30.1052 131.521C30.3402 130.664 30.5899 129.793 30.8531 128.908C26.3917 128.894 20.3771 128.902 10.7494 128.843C9.78405 128.843 8.85559 129.214 8.15535 129.878C7.45511 130.543 7.03646 131.451 6.98568 132.415C6.84003 135.044 0.0115079 207.572 0.0115079 207.572C-0.0851856 208.761 0.432553 209.99 1.37256 210.719C1.89887 211.127 18.8043 220.975 18.9341 221.039C20.0638 221.595 18.983 220.843 64.8745 221.427C65.7991 221.441 66.6953 221.107 67.3848 220.49C68.0744 219.874 68.507 219.021 68.5966 218.101C68.5966 218.101 72.3799 167.664 72.4068 166.227C72.4485 163.992 72.3163 162.697 71.9552 164.032Z" fill="#F07D29"/>
<path d="M184.875 50.1368C184.959 49.8308 185.057 49.5248 185.172 49.2213L185.268 48.9667C185.262 48.1332 185.127 46.837 184.805 44.9974C183.854 39.5568 184.413 38.3806 184.367 38.6291C185.367 39.7674 186.297 41.9448 187.083 44.1577L187.972 41.8016C186.722 38.7209 184.997 35.7674 183.312 37.2117C183.045 37.5862 182.864 37.7747 182.716 38.5422C182.274 40.831 183.353 46.3095 183.728 47.6387C184.133 49.0708 184.57 49.9826 184.875 50.1368Z" fill="#180B02"/>
<path d="M188.173 39.3707C188.664 38.7269 187.594 34.7197 187.4 32.5716C187.273 31.1861 187.49 30.8507 187.486 30.7283C188.447 31.7785 189.314 33.8886 189.83 35.208C189.94 35.4883 190.046 35.7686 190.146 36.0452L191.021 33.7246C189.866 30.94 188.325 28.3085 186.859 29.0539C184.124 30.262 187.24 40.5947 188.173 39.3707Z" fill="#180B02"/>
<path d="M191.64 29.6402C192.138 28.9842 191.066 25.0381 190.867 22.8411C190.741 21.4555 190.956 21.1226 190.954 20.9978C191.912 22.0455 192.78 24.1556 193.298 25.4775C193.444 25.852 193.582 26.2241 193.712 26.5913L194.043 25.7162C194.215 25.2619 194.418 24.8202 194.651 24.3943C193.48 21.4666 191.862 18.54 190.326 19.3234C187.589 20.5265 190.711 30.8605 191.64 29.6402Z" fill="#180B02"/>
<path d="M183.628 136.686C198.825 125.47 207.296 100.135 210.483 81.4081C210.567 80.9112 210.656 80.3885 210.509 80.0005C210.386 79.5868 210.08 79.2025 209.705 78.9724C209.097 78.6003 208.649 78.7105 206.642 78.7888C198.703 79.1046 191.021 77.32 184.535 72.7338C184.169 72.4756 184.079 72.3544 183.329 71.8256C182.246 70.6824 180.584 71.3605 180.28 72.6738C179.508 76.003 178.53 79.1303 177.399 81.905C174.258 89.616 171.203 93.8008 170.325 95.2646C167.779 99.5069 177.965 91.6025 182.394 74.1206C183.751 75.2283 185.262 76.2405 187.515 77.369C194.047 80.637 200.882 81.484 208.048 81.1853C207.667 81.1853 204.607 110.12 187.59 130.129C186.684 131.361 185.596 132.402 184.586 133.506C182.77 135.493 183.609 134.646 181.6 136.476C181.108 136.914 180.635 137.374 180.185 137.855C178.2 140.044 181.056 138.585 183.628 136.686Z" fill="#180B02"/>
<path d="M198.321 65.3041C198.854 65.6554 199.665 65.9198 200.215 66.0385C204.254 66.9063 208.847 64.9455 211.15 61.3311C211.602 60.6212 211.983 59.8134 212.271 59.0655C212.271 59.0655 221.061 36.0537 221.4 34.8273C222.439 31.0624 221.273 26.6903 218.249 23.8581C216.238 21.9732 214.423 21.4872 210.805 20.1482C207.711 19.0038 205.738 17.9328 202.403 18.3147C199.406 18.6574 196.621 20.3 194.815 22.6708C193.923 23.8422 193.327 25.3024 192.88 26.5263C192.416 27.7992 184.782 47.8846 184.194 49.7511C182.662 54.6005 185.017 60.8428 190.646 62.9553C192.245 63.5551 199.406 66.0214 197.934 64.9467C197.272 64.4633 195.262 63.5979 193.856 62.9908C191.37 61.9186 188.747 61.2797 186.703 57.8991C185.173 55.3704 184.927 52.1685 185.987 49.4011C194.381 27.5043 194.651 25.918 195.617 24.3807C197.988 20.6084 202.355 19.1703 206.072 20.1727C206.819 20.3734 207.106 20.4934 212.136 22.4003C214.211 23.1898 217.067 23.9719 218.953 27.4308C219.768 28.9458 220.167 30.6501 220.107 32.3695C220.056 34.0035 219.49 35.3732 218.948 36.8089C211.253 57.1708 210.609 59.2993 210.166 60.008C209.311 61.6112 208.037 62.9521 206.48 63.8877C204.922 64.8232 203.14 65.3183 201.323 65.32C199.51 65.3249 197.454 64.7289 198.321 65.2992V65.3041Z" fill="#180B02"/>
<path d="M204.337 35.9928C200.054 34.8998 195.283 37.1237 193.7 41.3195C193.29 42.4053 193.098 43.5613 193.135 44.7213C193.172 45.8813 193.437 47.0227 193.915 48.0803C194.393 49.1379 195.075 50.091 195.921 50.8851C196.768 51.6792 197.762 52.2988 198.848 52.7085C203.512 54.4686 208.949 51.8701 210.388 47.0942C211.775 42.4982 209.061 37.1972 204.337 35.9928Z" fill="#F07D29"/>
<path d="M212.652 39.0465C212.044 38.7344 209.821 40.066 209.249 40.4491C209.223 40.4675 200.393 46.4197 200.374 46.3915C199.961 45.5629 199.723 44.7538 199.104 43.8408C198.819 43.4197 198.3 42.656 197.982 43.0697C197.829 43.2679 197.857 43.6204 197.897 43.8591C198.169 45.4552 198.672 46.4931 199.087 47.4515C199.323 47.9974 200.275 48.5127 201.125 47.8603C208.278 43.0856 213.88 39.6768 212.652 39.0465Z" fill="#180B02"/>
<path d="M209.847 23.551C209.694 23.4929 209.53 23.4657 209.366 23.4708C209.201 23.476 209.04 23.5134 208.89 23.5811C208.74 23.6487 208.605 23.7452 208.493 23.865C208.38 23.9848 208.292 24.1256 208.234 24.2793C208.176 24.433 208.149 24.5967 208.154 24.761C208.159 24.9253 208.197 25.0869 208.264 25.2367C208.332 25.3865 208.428 25.5215 208.548 25.6341C208.668 25.7466 208.809 25.8344 208.962 25.8925C209.273 26.0098 209.617 25.999 209.92 25.8625C210.222 25.7259 210.458 25.4747 210.576 25.1642C210.693 24.8537 210.682 24.5093 210.546 24.2068C210.409 23.9043 210.158 23.6684 209.847 23.551Z" fill="#180B02"/>
<path d="M218.392 34.2301C218.144 34.5961 218.155 35.4333 218.192 36.0159C218.637 43.2459 220.534 49.6742 219.543 56.9825C218.796 62.4904 210.751 74.7949 210.431 75.3653C209.734 76.6281 209.073 77.9096 208.447 79.2086C207.881 80.4693 209.497 80.7948 209.712 80.5586C211.318 78.7961 213.404 75.1327 214.664 73.0422C216.942 69.2663 219.707 64.6176 221.155 60.4525C222.236 57.3424 222.414 54.3167 222.237 50.7366C222.019 46.3425 221.235 39.443 219.463 35.1628C219.366 34.9063 219.242 34.6609 219.093 34.4309C218.862 34.1053 218.577 33.9572 218.39 34.2314L218.392 34.2301Z" fill="#180B02"/>
<path d="M39.0762 49.9117C39.0125 49.9876 37.4287 51.9019 37.4287 52.0965C37.4287 52.9532 39.015 53.8382 39.4434 53.329C40.7371 51.7905 41.0517 51.4992 41.0517 51.1907C41.0517 50.3658 39.5499 49.3511 39.0762 49.9117Z" fill="#180B02"/>
<path d="M51.2524 39.3293C51.0064 39.1115 50.7995 39.0686 50.6771 39.065C50.1802 39.0515 49.7983 39.1923 49.5156 39.4493C49.3663 39.5839 45.6332 43.0306 45.4948 43.3268C45.3406 43.6549 45.3455 44.0441 45.4226 44.2203C45.572 44.563 46.026 44.9498 46.4361 44.9523C46.9465 44.9547 47.3283 44.8127 47.6025 44.5606C50.8277 41.6096 51.4972 41.1494 51.6343 40.4554C51.7199 40.0209 51.6563 39.6867 51.2524 39.3293Z" fill="#180B02"/>
<path d="M63.6546 30.2987C63.444 30.0466 63.2457 29.9731 63.1246 29.9511C62.635 29.863 62.236 29.9462 61.919 30.1592C61.7513 30.2718 57.5457 33.1224 57.3646 33.3941C57.1638 33.6952 57.11 34.0832 57.1602 34.2693C57.2556 34.6267 57.6436 35.0783 58.0537 35.142C58.5579 35.2203 58.9557 35.1371 59.2654 34.9302C63.2286 32.2693 63.6435 32.082 63.8638 31.4701C64.0107 31.0564 64.0009 30.7136 63.6546 30.2987Z" fill="#180B02"/>
<path d="M77.268 23.2254C77.0966 22.9439 76.913 22.8423 76.798 22.8032C76.328 22.6428 75.9204 22.6649 75.574 22.8276C75.3904 22.9133 70.8079 25.103 70.5876 25.3453C70.3452 25.6134 70.2326 25.9867 70.2547 26.1801C70.2963 26.5522 70.6157 27.054 71.0074 27.1764C71.4945 27.3294 71.9009 27.3074 72.2375 27.1483C76.2497 25.2548 76.9718 25.0259 77.3023 24.4164C77.5103 24.0284 77.5507 23.6881 77.2704 23.2267L77.268 23.2254Z" fill="#180B02"/>
<path d="M91.7935 18.2819C91.6675 17.9772 91.4998 17.8487 91.3908 17.7924C90.9502 17.5635 90.5439 17.5243 90.1779 17.6332C89.9833 17.6908 85.1204 19.1644 84.8671 19.3713C84.5831 19.6002 84.4191 19.9527 84.4118 20.1448C84.3971 20.5194 84.6382 21.064 85.0054 21.2427C85.4644 21.4667 85.8683 21.5071 86.2257 21.3994C90.3431 20.1693 91.2121 20.0347 91.6442 19.4606C91.911 19.1057 92.0016 18.7789 91.7935 18.2819Z" fill="#180B02"/>
<path d="M106.902 15.5792C106.822 15.261 106.677 15.108 106.577 15.0358C106.176 14.7421 105.781 14.6441 105.401 14.6955C105.201 14.7237 100.17 15.4483 99.8873 15.6135C99.5752 15.7971 99.3573 16.119 99.3206 16.3112C99.2496 16.6784 99.405 17.2536 99.7428 17.4862C100.163 17.775 100.557 17.8754 100.926 17.824C105.214 17.2206 106.065 17.2243 106.577 16.7224C106.891 16.4164 107.034 16.1104 106.902 15.5792Z" fill="#180B02"/>
<path d="M122.006 14.5683C121.652 14.2134 121.275 14.0494 120.894 14.042C115.356 13.9441 115.24 13.9808 114.76 14.5524C114.475 14.8903 114.544 15.665 114.884 15.9771C115.256 16.3186 115.631 16.4667 116.004 16.4618C116.202 16.4178 120.071 16.4985 120.38 16.5108C122.559 16.6038 122.441 15.0053 122.006 14.5696V14.5683Z" fill="#180B02"/>
<path d="M137.488 17.0163C137.506 16.6858 137.411 16.4998 137.337 16.4006C137.04 16.0029 136.69 15.7923 136.313 15.7311C136.113 15.6993 131.09 14.9135 130.772 14.9894C130.417 15.0739 130.116 15.3199 130.025 15.49C129.85 15.818 129.828 16.4141 130.083 16.7372C130.399 17.1387 130.746 17.3492 131.115 17.4092C135.511 18.113 136.211 18.3394 136.841 18.0163C137.234 17.8143 137.458 17.5549 137.488 17.0163Z" fill="#180B02"/>
<path d="M152.276 21.1423C152.343 20.8204 152.277 20.6197 152.22 20.5108C151.986 20.0726 151.673 19.8107 151.308 19.6944C151.116 19.6332 146.268 18.0996 145.942 18.1277C145.588 18.1559 145.247 18.3505 145.129 18.5084C144.907 18.807 144.796 19.3933 145 19.7507C145.252 20.195 145.563 20.4557 145.919 20.5707C150.09 21.9073 150.82 22.2574 151.488 22.0309C151.902 21.8914 152.165 21.6833 152.277 21.1411L152.276 21.1423Z" fill="#180B02"/>
<path d="M166.271 27.4496C166.386 27.1411 166.351 26.933 166.31 26.818C166.143 26.3492 165.874 26.0432 165.531 25.8731C165.35 25.7825 160.79 23.5377 160.463 23.5145C160.106 23.49 159.741 23.632 159.601 23.7691C159.336 24.0322 159.139 24.594 159.285 24.9771C159.468 25.4545 159.737 25.758 160.07 25.9245C164.284 28.026 164.702 28.3235 165.355 28.2096C165.79 28.1362 166.081 27.9526 166.269 27.4483L166.271 27.4496Z" fill="#180B02"/>
<path d="M176.072 32.2242C175.99 32.1691 173.918 30.7971 173.726 30.8179C172.877 30.9097 172.162 32.5779 172.714 32.9512C174.551 34.1923 174.764 34.4543 175.217 34.267C176.047 33.9243 176.573 32.562 176.072 32.2242Z" fill="#180B02"/>
<path d="M54.4952 60.7389C56.0937 59.1501 54.7437 56.6655 52.7535 56.9201C47.2738 57.9849 36.1577 61.2688 30.312 64.7045C29.9311 64.9283 29.505 65.0641 29.0649 65.102C28.6247 65.1399 28.1817 65.079 27.7681 64.9236C27.3546 64.7683 26.981 64.5225 26.6746 64.2042C26.3683 63.8859 26.1369 63.5032 25.9975 63.084C24.9572 59.9629 19.6794 45.9068 19.4885 45.4013C18.6966 43.4136 15.8924 43.5568 15.3013 45.6167C9.81911 64.7302 5.10315 91.802 11.1691 110.843C11.3907 111.573 12.9035 115.377 13.1238 115.764C13.9647 117.235 16.1348 117.365 17.2388 116.143C17.8618 115.453 38.3217 76.9369 52.2725 62.9995L54.4977 60.7401L54.4952 60.7389ZM14.4163 112.466C14.0957 111.617 13.6966 110.798 13.4555 109.915C12.2193 105.066 12.7322 109.034 11.5461 101.514C8.78607 84.0114 12.7309 63.7302 17.3845 46.7795C17.393 46.7391 17.4016 46.7024 17.4346 46.6816C17.502 46.64 17.5766 46.6914 17.5876 46.7489C17.9818 47.7158 24.552 63.2847 25.9853 66.0056C26.1692 66.3554 26.2538 66.7488 26.2298 67.1433C26.2059 67.5377 26.0743 67.9181 25.8494 68.243C24.8409 69.6995 23.2864 72.2356 22.18 75.0483C21.9021 75.6284 19.5411 81.8119 17.9499 88.3014C16.338 94.4776 14.2707 106.054 14.4163 112.469V112.466ZM16.4689 112.584C16.6023 111.327 16.7064 109.815 16.8202 109.037C17.0173 107.874 17.229 106.704 17.3282 105.524C17.945 98.2046 20.5496 86.2831 23.7356 77.7129C25.2631 73.5734 25.339 73.9504 26.5728 70.4425C27.0991 68.9468 27.4039 67.407 29.3304 66.516C34.4282 64.155 38.7219 62.8147 44.6031 61.2713C45.4746 61.0449 52.0693 59.4011 52.3435 59.4292C52.8453 59.581 40.4795 68.5808 16.4689 112.584Z" fill="#180B02"/>
<path d="M214.639 152.383C214.672 152.288 215.469 149.933 215.399 149.752C215.093 148.955 213.298 148.687 213.077 149.319C212.439 151.156 212.228 151.607 212.337 151.891C212.632 152.663 214.398 153.073 214.638 152.381L214.639 152.383Z" fill="#180B02"/>
<path d="M208.725 165.654C208.814 165.477 211.031 161.007 211.052 160.685C211.075 160.33 210.932 159.971 210.794 159.833C210.093 159.129 209.007 159.555 208.647 160.272C206.697 164.165 206.271 164.774 206.395 165.457C206.616 166.684 208.179 166.742 208.725 165.654Z" fill="#180B02"/>
<path d="M200.62 178.539C200.734 178.376 203.583 174.28 203.652 173.966C203.863 172.988 202.928 172.473 202.377 172.589C201.883 172.692 201.545 172.906 201.335 173.206C198.813 176.797 198.322 177.318 198.344 178.001C198.381 179.146 199.852 179.629 200.62 178.539Z" fill="#180B02"/>
<path d="M190.718 190.093C190.855 189.95 194.271 186.316 194.383 186.013C194.508 185.68 194.474 185.295 194.383 185.124C193.917 184.247 192.756 184.338 192.202 184.92C189.28 188.002 188.625 188.531 188.544 189.227C188.402 190.449 189.85 191.005 190.718 190.093Z" fill="#180B02"/>
<path d="M177.514 200.05C177.743 200.286 177.944 200.346 178.065 200.36C178.554 200.416 178.94 200.307 179.236 200.076C179.393 199.953 183.302 196.858 183.459 196.577C183.633 196.264 183.654 195.879 183.589 195.697C183.464 195.345 183.043 194.924 182.638 194.889C182.135 194.845 181.749 194.951 181.461 195.176C178.131 197.792 177.398 198.215 177.214 198.902C177.1 199.324 177.141 199.661 177.517 200.049L177.514 200.05Z" fill="#180B02"/>
<path d="M164.716 207.991C164.907 208.259 165.098 208.347 165.216 208.378C165.692 208.504 166.09 208.455 166.415 208.269C166.588 208.171 170.91 205.683 171.106 205.427C171.323 205.142 171.401 204.765 171.363 204.575C171.29 204.21 170.935 203.732 170.54 203.636C170.048 203.519 169.652 203.568 169.334 203.749C165.532 205.919 164.86 206.183 164.587 206.811C164.413 207.214 164.402 207.549 164.718 207.99L164.716 207.991Z" fill="#180B02"/>
<path d="M150.89 213.96C151.039 214.253 151.214 214.369 151.327 214.418C151.779 214.614 152.18 214.621 152.53 214.487C152.715 214.416 157.357 212.591 157.589 212.367C157.845 212.119 157.978 211.756 157.969 211.562C157.952 211.19 157.672 210.665 157.294 210.514C156.825 210.325 156.425 210.314 156.084 210.447C152.003 212.035 151.307 212.182 150.936 212.775C150.705 213.145 150.645 213.482 150.89 213.96Z" fill="#180B02"/>
<path d="M136.69 218.337C137.107 218.598 137.504 218.665 137.87 218.583C143.351 217.35 143.22 217.261 143.423 217.015C143.525 216.893 143.664 216.681 143.682 216.497C143.72 216.123 143.518 215.564 143.17 215.358C142.734 215.101 142.34 215.034 141.982 215.113C139.288 215.721 137.275 216.086 136.785 216.434C136.501 216.636 136.293 216.98 136.26 217.179C136.199 217.554 136.352 218.127 136.69 218.337Z" fill="#180B02"/>
<path d="M121.35 219.491C121.408 219.816 121.543 219.976 121.634 220.056C122.009 220.375 122.391 220.499 122.765 220.472C122.964 220.457 127.938 220.068 128.224 219.921C128.545 219.757 128.775 219.45 128.823 219.263C128.915 218.901 128.8 218.319 128.483 218.062C128.09 217.744 127.709 217.619 127.344 217.646C122.972 217.972 122.266 217.911 121.737 218.371C121.407 218.659 121.255 218.96 121.35 219.491Z" fill="#180B02"/>
<path d="M106.287 218.969C106.299 219.298 106.408 219.477 106.488 219.569C106.812 219.938 107.172 220.118 107.547 220.145C107.745 220.16 112.724 220.495 113.029 220.391C113.367 220.276 113.641 220.004 113.717 219.827C113.859 219.485 113.833 218.891 113.555 218.589C113.212 218.217 112.855 218.039 112.489 218.013C107.813 217.682 107.38 217.566 106.834 217.917C106.467 218.154 106.27 218.43 106.287 218.969Z" fill="#180B02"/>
<path d="M91.5736 216.869C91.8404 217.282 92.1697 217.512 92.5356 217.594C92.7302 217.637 97.6053 218.701 97.9223 218.643C98.2736 218.58 98.5869 218.351 98.6861 218.186C98.8782 217.866 98.9358 217.275 98.7069 216.937C98.4229 216.519 98.0949 216.29 97.7375 216.21C93.2198 215.202 92.7584 215.016 92.1611 215.285C91.4047 215.625 91.3361 216.499 91.5736 216.869Z" fill="#180B02"/>
<path d="M80.9227 214.014C81.0157 214.049 83.3572 214.88 83.5396 214.814C84.3388 214.521 84.6362 212.729 84.0071 212.499C82.1185 211.81 81.7379 211.615 81.4478 211.722C80.6693 212.006 80.2361 213.763 80.9227 214.014Z" fill="#180B02"/>
<path d="M224.745 94.0823C224.491 93.6234 222.155 90.0934 221.791 89.6883C220.573 88.3346 218.062 88.7679 217.45 90.7299C211.644 109.353 203.753 135.615 193.193 152.016C192.877 152.507 192.691 152.844 192.653 153.434C192.605 154.796 193.813 155.855 195.036 155.715C195.49 155.699 195.877 155.486 196.715 155.085C201.079 152.994 205.664 150.534 209.742 147.86C214.339 144.835 216.341 142.906 218.519 140.366C219.52 143.008 227.303 154.845 230.516 159.796C231.713 161.571 234.422 160.834 234.561 158.696C235.869 138.717 234.703 111.373 224.746 94.0799L224.745 94.0823ZM211.666 143.889C202.676 149.761 203.301 149.351 195.454 153.065C195.434 153.07 195.416 153.07 195.408 153.054C195.401 153.04 195.419 153.02 195.419 153.02C195.364 153.145 205.752 139.197 219.29 93.1876C219.917 102.303 220.8 108.485 220.447 117.656C220.187 126.816 218.886 132.697 218.516 135.065C218.131 137.532 218.001 138.266 217.906 138.772C216.233 140.217 213.198 142.917 211.666 143.889ZM232.248 158.109C232.192 158.166 232.107 158.131 232.084 158.078C228.574 152.956 225.442 148.261 219.663 138.911C221.851 133.351 222.749 123.476 222.906 117.551C223.181 110.873 222.639 104.124 222.575 103.13C222.661 101.948 221.666 95.955 221.149 93.0689C221.66 93.8694 222.263 94.6246 222.706 95.474C223.973 98.0101 224.919 99.0504 227.271 106.001C228.827 110.302 231.172 120.067 232.111 132.727C233.006 145.036 232.374 157.997 232.248 158.109Z" fill="#180B02"/>
<path d="M54.0907 90.6698C52.3772 91.1716 44.758 96.4274 38.7091 107.146C33.6198 116.166 30.4277 124.915 27.9149 135.17C26.8574 139.483 26.0043 144.156 25.6077 147.132C25.2356 149.923 25.0631 150.396 25.6897 151.127C26.8562 152.486 28.276 151.265 33.5244 151.564C34.1682 151.6 34.8144 151.583 35.4497 151.661C47.906 152.53 52.7431 158.56 54.0356 158.383C54.4506 158.39 54.8888 158.226 55.1972 157.961C56.0723 157.207 55.6794 156.505 57.1188 151.464C58.4529 146.794 61.1604 140.379 64.0245 135.683C64.6793 134.608 66.104 132.463 65.1113 132.911C64.3464 133.258 62.9266 134.855 62.0465 136.055C57.7981 141.848 55.1923 148.502 53.6513 155.519C48.2108 151.544 41.4288 149.522 34.9564 149.171C31.4326 148.98 29.276 149.174 27.7962 149.284C30.1327 132.161 35.9821 113.105 46.6539 99.7076C47.4715 98.5179 47.906 98.147 50.9317 94.6245C52.2425 93.3589 53.1948 92.4678 53.8068 91.7481C54.4077 91.0395 54.6684 90.4997 54.0907 90.6698Z" fill="#180B02"/>
<path d="M44.8727 205.238C44.3807 205.14 43.4578 205.203 42.6904 205.1C37.912 204.46 27.2341 201.074 26.5193 200.65C26.0579 200.236 25.474 199.158 25.0224 198.111C23.7287 195.117 22.3578 190.31 21.916 186.633C21.5023 183.189 24.6858 175.597 26.5193 172.235C27.9514 169.613 30.2292 166.656 30.8399 162.022C30.9623 161.08 31.1019 159.391 30.9072 158.516C30.7897 157.991 30.5401 157.705 30.2916 158.003C29.9648 158.395 29.6918 159.455 29.4838 160.194C27.359 167.77 25.6185 167.992 22.703 174.49C21.1339 177.983 20.1486 181.224 19.7165 183.409C19.3566 185.226 19.3664 186.024 19.5011 187.152C19.9172 190.628 22.337 200.781 25.1803 202.735C25.7886 203.252 31.966 205.05 32.9354 205.315C36.2315 206.216 40.2474 207.12 43.5508 206.484C43.9645 206.341 44.3648 206.268 44.6818 206.02C45.1775 205.634 45.2693 205.318 44.8727 205.238Z" fill="#180B02"/>
<path d="M59.7071 216.889C55.9128 210.739 56.1881 210.844 55.7108 210.399L11.8584 168.278C11.608 168.041 11.3132 167.855 10.991 167.731C10.6687 167.607 10.3252 167.548 9.98016 167.557C9.6351 167.567 9.29521 167.643 8.9799 167.784C8.66458 167.924 8.38002 168.126 8.14245 168.376C7.90489 168.626 7.71898 168.921 7.59533 169.243C7.47168 169.566 7.41272 169.909 7.42181 170.254C7.4309 170.599 7.50787 170.939 7.64832 171.255C7.78877 171.57 7.98995 171.854 8.24037 172.092L52.5946 213.647C53.0327 214.066 52.9018 213.939 59.1942 217.436C59.5455 217.632 59.9188 217.232 59.7071 216.889Z" fill="#F07D29"/>
<path d="M43.8086 158.402C43.0313 158.997 42.8759 161.681 40.7058 166.282C38.1538 171.692 33.8295 174.803 31.7206 180.858C29.2727 187.885 30.1221 189.662 31.4293 192.87C32.3522 195.135 33.575 197.911 34.8858 199.975C35.1735 200.428 35.958 201.624 36.3656 201.974C36.663 202.229 36.9727 202.302 37.0914 201.996C37.6618 200.537 33.0242 190.897 32.7941 189.616C32.1503 187.114 33.2286 183.935 34.0878 181.53C36.5847 174.545 43.9505 170.128 44.5258 161.338C44.565 160.739 44.5993 159.375 44.4132 158.8C44.2908 158.423 44.068 158.201 43.8061 158.402H43.8086Z" fill="#180B02"/>
<path d="M53.0032 189.941C51.1869 192.313 50.9176 193.154 49.3154 195.302C49.4427 195.421 48.4954 195.709 47.7891 195.661C43.2629 195.361 39.4686 187.278 37.8713 186.584C37.3817 186.371 36.875 186.733 37.1296 187.788C37.6412 189.911 38.7146 191.481 40.2911 193.371C42.7611 196.33 46.171 199.079 49.8356 197.836C50.9653 197.373 50.7254 197.54 51.2089 196.901C55.9138 190.677 54.5638 187.903 53.0032 189.941Z" fill="#180B02"/>
<path d="M54.1208 183.606C53.7659 183.612 53.5003 183.849 53.3301 184.024C51.7573 185.656 52.0327 185.929 49.4208 189.891C49.034 190.17 48.5297 190.442 48.0585 190.366C47.0389 190.2 46.1099 188.642 45.6534 187.722C44.8799 186.164 44.9447 185.831 44.3474 184.898C44.2079 184.68 43.8835 184.19 43.6608 184.059C43.2324 183.808 42.6718 184.055 42.6118 184.899C42.5176 186.22 42.7379 187.639 44.0647 189.859C44.9154 191.282 46.1283 192.583 47.7721 192.799C48.8321 192.938 49.8455 192.585 50.5162 192.132C50.7145 191.998 50.9067 191.861 51.0939 191.725C51.3938 191.509 53.9727 187.576 54.4905 185.898C54.7548 185.04 55.018 183.591 54.1208 183.604V183.606Z" fill="#180B02"/>
<path d="M44.9616 152.549C44.5234 153.423 46.2443 157.111 47.0974 159.052C47.1721 159.276 47.942 160.749 48.2859 162.987C48.6298 165.224 48.3679 168.422 47.9677 171.589C46.8074 180.738 43.1501 179.966 39.1808 183.158C39.0064 183.287 38.8508 183.44 38.7181 183.612C38.5309 183.878 38.5003 184.166 38.7671 184.305C39.1196 184.491 39.7536 184.366 40.1894 184.253C46.248 182.685 49.4524 179.744 50.4193 171.765C51.2369 165.026 51.4266 160.844 47.7657 155.128C47.3337 154.455 46.2027 152.844 45.6532 152.483C45.3863 152.306 45.095 152.281 44.9616 152.549Z" fill="#180B02"/>
<path d="M184.236 101.678C172.785 48.8127 106.653 30.2108 68.4733 68.5308C43.88 93.2134 40.1384 134.301 66.4647 163.936C81.6468 181.026 108.136 191.015 134.558 184.18C174.644 173.31 191.808 134.88 184.236 101.678ZM144.745 178.101C139.312 180.632 134.738 181.654 132.231 182.277C133.465 180.744 134.937 170.554 135.209 168.081C135.667 163.091 138.406 162.878 141.014 160.177C142.711 157.884 142.151 156.087 140.789 153.311C136.401 145.505 124.858 152.043 118.082 149.25C116.124 148.444 114.763 146.756 114.509 145.571C113.149 141.003 127.584 136.3 119.251 128.715C110.771 121.241 108.421 127.869 94.2537 122.339C90.2379 120.826 84.9834 117.208 75.1671 117.365C66.9506 117.486 58.0059 120.36 51.1431 124.149C49.924 111.794 51.9276 100.213 56.482 90.2526C66.2664 68.8552 85.2796 54.837 106.919 51.5164C117.552 49.7661 129.394 51.0917 137.024 53.5543C133.637 62.1246 127.803 71.3851 118.726 72.8894C108.426 74.6299 95.545 80.3017 94.7751 90.364C94.6136 92.4692 94.6895 92.1412 94.6491 92.5892C94.2084 99.5866 87.539 107.616 98.1508 110.278C101.815 111.142 107.249 111.299 111.094 111.16C116.208 111.007 120.46 110.307 122.368 111.581C124.327 112.81 124.272 117.099 125.35 121.464C126.114 124.351 127.265 126.505 129.946 127.824C133.105 129.147 138.277 129.035 143.197 126.469C148.188 123.842 151.447 120.175 155.144 119.234C157.326 118.665 159.122 119.332 161.036 120.524C163.441 122.022 166.798 126.474 175.118 125.54C179.34 124.778 180.985 123.614 182.974 121.673C180.111 148.868 166.651 167.896 144.745 178.103V178.101Z" fill="#F07D29"/>
</svg>
