<svg width="235" height="208" viewBox="0 0 235 208" fill="none" xmlns="http://www.w3.org/2000/svg">
<path d="M71.9552 150.032C70.5452 155.252 66.6774 198.469 66.205 203.907C66.1658 204.464 65.6713 205.029 64.8672 205.026C64.6591 205.026 20.4995 204.961 20.4506 204.959C20.256 200.909 19.5155 188.272 17.8019 186.987C16.1373 185.739 6.18766 190.886 2.55369 192.838C7.29045 148.646 9.20719 119.32 9.5193 118.2C9.65639 117.747 10.0713 117.403 10.5181 117.336C10.5878 117.319 17.5436 117.227 30.1052 117.521C30.3402 116.664 30.5899 115.793 30.8531 114.908C26.3917 114.894 20.3771 114.902 10.7494 114.843C9.78405 114.843 8.85559 115.214 8.15535 115.878C7.45511 116.543 7.03646 117.45 6.98568 118.414C6.84003 121.043 0.0115079 193.572 0.0115079 193.572C-0.0851856 194.761 0.432553 195.989 1.37256 196.719C1.89887 197.127 18.8043 206.975 18.9341 207.038C20.0638 207.595 18.983 206.842 64.8745 207.426C65.7991 207.44 66.6953 207.106 67.3848 206.49C68.0744 205.874 68.507 205.021 68.5966 204.101C68.5966 204.101 72.3799 153.663 72.4068 152.226C72.4485 149.992 72.3163 148.697 71.9552 150.032Z" fill="#D1D0D6"/>
<path d="M184.875 36.1374C184.959 35.8314 185.057 35.5255 185.172 35.2219L185.268 34.9673C185.262 34.1338 185.127 32.8376 184.805 30.998C183.854 25.5574 184.413 24.3812 184.367 24.6297C185.367 25.768 186.297 27.9454 187.083 30.1583L187.972 27.8022C186.722 24.7215 184.997 21.768 183.312 23.2123C183.045 23.5869 182.864 23.7753 182.716 24.5428C182.274 26.8316 183.353 32.3101 183.728 33.6393C184.133 35.0714 184.57 35.9832 184.875 36.1374Z" fill="white"/>
<path d="M188.173 25.3707C188.664 24.7269 187.594 20.7197 187.4 18.5716C187.273 17.1861 187.49 16.8507 187.486 16.7283C188.447 17.7785 189.314 19.8886 189.83 21.208C189.94 21.4883 190.046 21.7686 190.146 22.0452L191.021 19.7246C189.866 16.94 188.325 14.3085 186.859 15.0539C184.124 16.262 187.24 26.5947 188.173 25.3707Z" fill="white"/>
<path d="M191.64 15.641C192.138 14.9849 191.066 11.0388 190.867 8.8418C190.741 7.45627 190.956 7.12335 190.954 6.99851C191.912 8.04622 192.78 10.1563 193.298 11.4782C193.444 11.8528 193.582 12.2249 193.712 12.592L194.043 11.7169C194.215 11.2626 194.418 10.8209 194.651 10.395C193.48 7.46729 191.862 4.54078 190.326 5.32412C187.589 6.52728 190.711 16.8613 191.64 15.641Z" fill="white"/>
<path d="M183.628 122.687C198.825 111.47 207.296 86.1353 210.483 67.4086C210.567 66.9116 210.656 66.389 210.509 66.001C210.386 65.5873 210.08 65.203 209.705 64.9729C209.097 64.6008 208.649 64.7109 206.642 64.7893C198.703 65.1051 191.021 63.3205 184.535 58.7343C184.169 58.476 184.079 58.3549 183.329 57.8261C182.246 56.6829 180.584 57.361 180.28 58.6743C179.508 62.0035 178.53 65.1308 177.399 67.9055C174.258 75.6165 171.203 79.8013 170.325 81.2651C167.779 85.5074 177.965 77.603 182.394 60.1211C183.751 61.2288 185.262 62.241 187.515 63.3695C194.047 66.6375 200.882 67.4845 208.048 67.1858C207.667 67.1858 204.607 96.1204 187.59 116.13C186.684 117.361 185.596 118.403 184.586 119.507C182.77 121.493 183.609 120.646 181.6 122.476C181.108 122.914 180.635 123.375 180.185 123.856C178.2 126.044 181.056 124.585 183.628 122.687Z" fill="white"/>
<path d="M198.321 51.3045C198.854 51.6558 199.665 51.9201 200.215 52.0389C204.254 52.9067 208.847 50.9459 211.15 47.3315C211.602 46.6216 211.983 45.8138 212.271 45.0659C212.271 45.0659 221.061 22.0541 221.4 20.8276C222.439 17.0627 221.273 12.6907 218.249 9.85843C216.238 7.97352 214.423 7.48761 210.805 6.14858C207.711 5.00417 205.738 3.9332 202.403 4.31508C199.406 4.65779 196.621 6.30036 194.815 8.67118C193.923 9.84252 193.327 11.3027 192.88 12.5267C192.416 13.7996 184.782 33.885 184.194 35.7515C182.662 40.6009 185.017 46.8431 190.646 48.9557C192.245 49.5554 199.406 52.0217 197.934 50.9471C197.272 50.4636 195.262 49.5983 193.856 48.9912C191.37 47.919 188.747 47.2801 186.703 43.8995C185.173 41.3708 184.927 38.1688 185.987 35.4015C194.381 13.5046 194.651 11.9184 195.617 10.3811C197.988 6.60879 202.355 5.17063 206.072 6.17306C206.819 6.37379 207.106 6.49374 212.136 8.40069C214.211 9.19015 217.067 9.97226 218.953 13.4312C219.768 14.9462 220.167 16.6505 220.107 18.3699C220.056 20.0039 219.49 21.3735 218.948 22.8093C211.253 43.1712 210.609 45.2997 210.166 46.0084C209.311 47.6115 208.037 48.9525 206.48 49.888C204.922 50.8236 203.14 51.3187 201.323 51.3204C199.51 51.3253 197.454 50.7292 198.321 51.2996V51.3045Z" fill="white"/>
<path d="M204.337 21.9933C200.054 20.9003 195.283 23.1242 193.7 27.32C193.29 28.4058 193.098 29.5617 193.135 30.7218C193.172 31.8818 193.437 33.0232 193.915 34.0808C194.393 35.1384 195.075 36.0915 195.921 36.8856C196.768 37.6797 197.762 38.2993 198.848 38.709C203.512 40.4691 208.949 37.8706 210.388 33.0947C211.775 28.4987 209.061 23.1976 204.337 21.9933Z" fill="#D1D0D6"/>
<path d="M212.652 25.047C212.044 24.7348 209.821 26.0665 209.249 26.4496C209.223 26.468 200.393 32.4202 200.374 32.392C199.961 31.5634 199.723 30.7543 199.104 29.8412C198.819 29.4202 198.3 28.6564 197.982 29.0701C197.829 29.2684 197.857 29.6209 197.897 29.8596C198.169 31.4557 198.672 32.4936 199.087 33.452C199.323 33.9978 200.275 34.5131 201.125 33.8608C208.278 29.0861 213.88 25.6773 212.652 25.047Z" fill="white"/>
<path d="M209.847 9.55153C209.694 9.49342 209.53 9.46617 209.366 9.47132C209.201 9.47647 209.04 9.51393 208.89 9.58156C208.74 9.64918 208.605 9.74565 208.493 9.86545C208.38 9.98525 208.292 10.126 208.234 10.2798C208.176 10.4335 208.149 10.5972 208.154 10.7615C208.159 10.9258 208.197 11.0874 208.264 11.2372C208.332 11.387 208.428 11.522 208.548 11.6345C208.668 11.7471 208.809 11.8349 208.962 11.893C209.273 12.0103 209.617 11.9995 209.92 11.863C210.222 11.7264 210.458 11.4752 210.576 11.1647C210.693 10.8542 210.682 10.5098 210.546 10.2073C210.409 9.90476 210.158 9.66887 209.847 9.55153Z" fill="white"/>
<path d="M218.392 20.231C218.144 20.597 218.155 21.4342 218.192 22.0168C218.637 29.2468 220.534 35.675 219.543 42.9834C218.796 48.4912 210.751 60.7958 210.431 61.3662C209.734 62.6289 209.073 63.9105 208.447 65.2094C207.881 66.4701 209.497 66.7957 209.712 66.5595C211.318 64.7969 213.404 61.1336 214.664 59.0431C216.942 55.2671 219.707 50.6185 221.155 46.4533C222.236 43.3432 222.414 40.3176 222.237 36.7374C222.019 32.3434 221.235 25.4439 219.463 21.1637C219.366 20.9071 219.242 20.6617 219.093 20.4317C218.862 20.1062 218.577 19.9581 218.39 20.2322L218.392 20.231Z" fill="white"/>
<path d="M39.0762 35.9114C39.0125 35.9873 37.4287 37.9016 37.4287 38.0962C37.4287 38.953 39.015 39.8379 39.4434 39.3288C40.7371 37.7902 41.0517 37.4989 41.0517 37.1905C41.0517 36.3655 39.5499 35.3509 39.0762 35.9114Z" fill="white"/>
<path d="M51.2524 25.3297C51.0064 25.1118 50.7995 25.069 50.6771 25.0653C50.1802 25.0519 49.7983 25.1926 49.5156 25.4497C49.3663 25.5843 45.6332 29.031 45.4948 29.3272C45.3406 29.6552 45.3455 30.0444 45.4226 30.2207C45.572 30.5634 46.026 30.9502 46.4361 30.9526C46.9465 30.9551 47.3283 30.8131 47.6025 30.561C50.8277 27.61 51.4972 27.1498 51.6343 26.4558C51.7199 26.0213 51.6563 25.6871 51.2524 25.3297Z" fill="white"/>
<path d="M63.6546 16.2984C63.444 16.0462 63.2457 15.9728 63.1246 15.9507C62.635 15.8626 62.236 15.9459 61.919 16.1588C61.7513 16.2714 57.5457 19.1221 57.3646 19.3938C57.1638 19.6949 57.11 20.0829 57.1602 20.2689C57.2556 20.6263 57.6436 21.078 58.0537 21.1416C58.5579 21.2199 58.9557 21.1367 59.2654 20.9299C63.2286 18.2689 63.6435 18.0817 63.8638 17.4697C64.0107 17.056 64.0009 16.7133 63.6546 16.2984Z" fill="white"/>
<path d="M77.268 9.22519C77.0966 8.94368 76.913 8.84209 76.798 8.80292C76.328 8.64258 75.9204 8.66461 75.574 8.8274C75.3904 8.91308 70.8079 11.1028 70.5876 11.3451C70.3452 11.6132 70.2326 11.9865 70.2547 12.1799C70.2963 12.5519 70.6157 13.0538 71.0074 13.1762C71.4945 13.3292 71.9009 13.3071 72.2375 13.148C76.2497 11.2545 76.9718 11.0256 77.3023 10.4161C77.5103 10.0281 77.5507 9.68785 77.2704 9.22641L77.268 9.22519Z" fill="white"/>
<path d="M91.7935 4.28207C91.6675 3.9773 91.4998 3.84878 91.3908 3.79248C90.9502 3.5636 90.5439 3.52443 90.1779 3.63336C89.9833 3.69089 85.1204 5.16455 84.8671 5.3714C84.5831 5.60028 84.4191 5.95279 84.4118 6.14495C84.3971 6.51948 84.6382 7.06415 85.0054 7.24285C85.4644 7.46684 85.8683 7.50723 86.2257 7.39952C90.3431 6.16943 91.2121 6.03479 91.6442 5.46075C91.911 5.1058 92.0016 4.779 91.7935 4.28207Z" fill="white"/>
<path d="M106.902 1.57937C106.822 1.26113 106.677 1.10814 106.577 1.03593C106.176 0.742174 105.781 0.644255 105.401 0.695662C105.201 0.723813 100.17 1.4484 99.8873 1.61364C99.5752 1.79724 99.3573 2.11914 99.3206 2.3113C99.2496 2.67849 99.405 3.25376 99.7428 3.48631C100.163 3.77517 100.557 3.87554 100.926 3.82413C105.214 3.22071 106.065 3.22438 106.577 2.72255C106.891 2.41656 107.034 2.11057 106.902 1.57937Z" fill="white"/>
<path d="M122.006 0.568346C121.652 0.213395 121.275 0.0493827 120.894 0.0420389C115.356 -0.0558786 115.24 -0.0191586 114.76 0.552435C114.475 0.890251 114.544 1.66502 114.884 1.97713C115.256 2.31862 115.631 2.46672 116.004 2.46183C116.202 2.41776 120.071 2.49855 120.38 2.51079C122.559 2.60381 122.441 1.0053 122.006 0.569571V0.568346Z" fill="white"/>
<path d="M137.488 3.01643C137.506 2.68596 137.411 2.49991 137.337 2.40077C137.04 2.00298 136.69 1.79246 136.313 1.73126C136.113 1.69944 131.09 0.913649 130.772 0.989535C130.417 1.07399 130.116 1.32 130.025 1.49014C129.85 1.81816 129.828 2.41423 130.083 2.73736C130.399 3.13882 130.746 3.34935 131.115 3.40932C135.511 4.1131 136.211 4.33954 136.841 4.01641C137.234 3.81446 137.458 3.55497 137.488 3.01643Z" fill="white"/>
<path d="M152.276 7.14197C152.343 6.82007 152.277 6.61934 152.22 6.5104C151.986 6.07222 151.673 5.81029 151.308 5.69402C151.116 5.63282 146.268 4.09918 145.942 4.12734C145.588 4.15549 145.247 4.3501 145.129 4.50799C144.907 4.80664 144.796 5.39292 145 5.75032C145.252 6.19462 145.563 6.45533 145.919 6.57038C150.09 7.90695 150.82 8.25701 151.488 8.03058C151.902 7.89104 152.165 7.68297 152.277 7.14075L152.276 7.14197Z" fill="white"/>
<path d="M166.271 13.4496C166.386 13.1411 166.351 12.933 166.31 12.818C166.143 12.3492 165.874 12.0432 165.531 11.8731C165.35 11.7825 160.79 9.53775 160.463 9.51449C160.106 9.49001 159.741 9.63199 159.601 9.76907C159.336 10.0322 159.139 10.594 159.285 10.9771C159.468 11.4545 159.737 11.758 160.07 11.9245C164.284 14.026 164.702 14.3235 165.355 14.2096C165.79 14.1362 166.081 13.9526 166.269 13.4483L166.271 13.4496Z" fill="white"/>
<path d="M176.072 18.224C175.99 18.1689 173.918 16.7968 173.726 16.8176C172.877 16.9094 172.162 18.5777 172.714 18.951C174.551 20.1921 174.764 20.454 175.217 20.2668C176.047 19.9241 176.573 18.5618 176.072 18.224Z" fill="white"/>
<path d="M54.4952 46.739C56.0937 45.1503 54.7437 42.6656 52.7535 42.9202C47.2738 43.985 36.1577 47.269 30.312 50.7046C29.9311 50.9284 29.505 51.0642 29.0649 51.1021C28.6247 51.14 28.1817 51.0791 27.7681 50.9237C27.3546 50.7684 26.981 50.5226 26.6746 50.2043C26.3683 49.886 26.1369 49.5033 25.9975 49.0841C24.9572 45.963 19.6794 31.9069 19.4885 31.4014C18.6966 29.4137 15.8924 29.5569 15.3013 31.6168C9.81911 50.7303 5.10315 77.8021 11.1691 96.8434C11.3907 97.5729 12.9035 101.377 13.1238 101.764C13.9647 103.235 16.1348 103.365 17.2388 102.143C17.8618 101.453 38.3217 62.937 52.2725 48.9997L54.4977 46.7402L54.4952 46.739ZM14.4163 98.4664C14.0957 97.6169 13.6966 96.7981 13.4555 95.9156C12.2193 91.0663 12.7322 95.0344 11.5461 87.5143C8.78607 70.0115 12.7309 49.7304 17.3845 32.7796C17.393 32.7392 17.4016 32.7025 17.4346 32.6817C17.502 32.6401 17.5766 32.6915 17.5876 32.749C17.9818 33.716 24.552 49.2848 25.9853 52.0057C26.1692 52.3555 26.2538 52.749 26.2298 53.1434C26.2059 53.5379 26.0743 53.9182 25.8494 54.2431C24.8409 55.6997 23.2864 58.2357 22.18 61.0484C21.9021 61.6286 19.5411 67.8121 17.9499 74.3016C16.338 80.4777 14.2707 92.054 14.4163 98.4688V98.4664ZM16.4689 98.5839C16.6023 97.3269 16.7064 95.8153 16.8202 95.0368C17.0173 93.874 17.229 92.7039 17.3282 91.524C17.945 84.2047 20.5496 72.2832 23.7356 63.713C25.2631 59.5735 25.339 59.9505 26.5728 56.4426C27.0991 54.9469 27.4039 53.4072 29.3304 52.5161C34.4282 50.1551 38.7219 48.8148 44.6031 47.2714C45.4746 47.045 52.0693 45.4012 52.3435 45.4293C52.8453 45.5811 40.4795 54.581 16.4689 98.5839Z" fill="white"/>
<path d="M214.639 138.382C214.672 138.288 215.469 135.933 215.399 135.752C215.093 134.955 213.298 134.687 213.077 135.318C212.439 137.156 212.228 137.606 212.337 137.89C212.632 138.662 214.398 139.072 214.638 138.381L214.639 138.382Z" fill="white"/>
<path d="M208.725 151.654C208.814 151.476 211.031 147.006 211.052 146.685C211.075 146.33 210.932 145.971 210.794 145.833C210.093 145.129 209.007 145.555 208.647 146.272C206.697 150.164 206.271 150.774 206.395 151.457C206.616 152.683 208.179 152.742 208.725 151.654Z" fill="white"/>
<path d="M200.62 164.538C200.734 164.375 203.583 160.28 203.652 159.965C203.863 158.987 202.928 158.472 202.377 158.588C201.883 158.691 201.545 158.905 201.335 159.205C198.813 162.796 198.322 163.318 198.344 164.001C198.381 165.145 199.852 165.629 200.62 164.538Z" fill="white"/>
<path d="M190.718 176.092C190.855 175.949 194.271 172.315 194.383 172.013C194.508 171.68 194.474 171.295 194.383 171.123C193.917 170.247 192.756 170.337 192.202 170.92C189.28 174.002 188.625 174.531 188.544 175.227C188.402 176.449 189.85 177.004 190.718 176.092Z" fill="white"/>
<path d="M177.514 186.049C177.743 186.285 177.944 186.345 178.065 186.359C178.554 186.415 178.94 186.306 179.236 186.075C179.393 185.952 183.302 182.857 183.459 182.576C183.633 182.263 183.654 181.878 183.589 181.696C183.464 181.344 183.043 180.923 182.638 180.888C182.135 180.844 181.749 180.95 181.461 181.175C178.131 183.791 177.398 184.214 177.214 184.901C177.1 185.323 177.141 185.66 177.517 186.048L177.514 186.049Z" fill="white"/>
<path d="M164.716 193.991C164.907 194.259 165.098 194.347 165.216 194.378C165.692 194.504 166.09 194.455 166.415 194.269C166.588 194.171 170.91 191.683 171.106 191.427C171.323 191.142 171.401 190.765 171.363 190.575C171.29 190.21 170.935 189.732 170.54 189.636C170.048 189.519 169.652 189.568 169.334 189.749C165.532 191.919 164.86 192.183 164.587 192.811C164.413 193.214 164.402 193.549 164.718 193.99L164.716 193.991Z" fill="white"/>
<path d="M150.89 199.96C151.039 200.252 151.214 200.368 151.327 200.417C151.779 200.613 152.18 200.621 152.53 200.486C152.715 200.415 157.357 198.59 157.589 198.366C157.845 198.119 157.978 197.755 157.969 197.562C157.952 197.19 157.672 196.665 157.294 196.513C156.825 196.324 156.425 196.313 156.084 196.447C152.003 198.034 151.307 198.181 150.936 198.775C150.705 199.144 150.645 199.481 150.89 199.96Z" fill="white"/>
<path d="M136.69 204.337C137.107 204.597 137.504 204.665 137.87 204.583C143.351 203.349 143.22 203.261 143.423 203.015C143.525 202.892 143.664 202.68 143.682 202.496C143.72 202.122 143.518 201.563 143.17 201.357C142.734 201.1 142.34 201.033 141.982 201.113C139.288 201.72 137.275 202.086 136.785 202.433C136.501 202.635 136.293 202.979 136.26 203.179C136.199 203.553 136.352 204.126 136.69 204.337Z" fill="white"/>
<path d="M121.35 205.491C121.408 205.815 121.543 205.976 121.634 206.055C122.009 206.375 122.391 206.498 122.765 206.471C122.964 206.457 127.938 206.067 128.224 205.921C128.545 205.757 128.775 205.449 128.823 205.262C128.915 204.901 128.8 204.318 128.483 204.061C128.09 203.743 127.709 203.618 127.344 203.645C122.972 203.972 122.266 203.911 121.737 204.371C121.407 204.659 121.255 204.96 121.35 205.491Z" fill="white"/>
<path d="M106.287 204.968C106.299 205.298 106.408 205.476 106.488 205.568C106.812 205.938 107.172 206.118 107.547 206.145C107.745 206.159 112.724 206.495 113.029 206.391C113.367 206.276 113.641 206.004 113.717 205.826C113.859 205.485 113.833 204.89 113.555 204.589C113.212 204.217 112.855 204.038 112.489 204.013C107.813 203.682 107.38 203.566 106.834 203.917C106.467 204.153 106.27 204.43 106.287 204.968Z" fill="white"/>
<path d="M91.5736 202.868C91.8404 203.282 92.1697 203.512 92.5356 203.594C92.7302 203.637 97.6053 204.7 97.9223 204.643C98.2736 204.579 98.5869 204.35 98.6861 204.185C98.8782 203.866 98.9358 203.274 98.7069 202.937C98.4229 202.518 98.0949 202.289 97.7375 202.209C93.2198 201.201 92.7584 201.015 92.1611 201.284C91.4047 201.624 91.3361 202.498 91.5736 202.868Z" fill="white"/>
<path d="M80.9227 200.014C81.0157 200.048 83.3572 200.879 83.5396 200.813C84.3388 200.521 84.6362 198.729 84.0071 198.499C82.1185 197.81 81.7379 197.615 81.4478 197.722C80.6693 198.006 80.2361 199.763 80.9227 200.014Z" fill="white"/>
<path d="M224.745 80.0821C224.491 79.6231 222.155 76.0932 221.791 75.688C220.573 74.3343 218.062 74.7676 217.45 76.7297C211.644 95.3523 203.753 121.615 193.193 138.016C192.877 138.507 192.691 138.844 192.653 139.434C192.605 140.796 193.813 141.855 195.036 141.715C195.49 141.699 195.877 141.486 196.715 141.085C201.079 138.994 205.664 136.534 209.742 133.86C214.339 130.835 216.341 128.906 218.519 126.365C219.52 129.008 227.303 140.845 230.516 145.796C231.713 147.571 234.422 146.834 234.561 144.695C235.869 124.717 234.703 97.3731 224.746 80.0797L224.745 80.0821ZM211.666 129.889C202.676 135.76 203.301 135.35 195.454 139.065C195.434 139.07 195.416 139.07 195.408 139.054C195.401 139.039 195.419 139.02 195.419 139.02C195.364 139.145 205.752 125.196 219.29 79.1874C219.917 88.3023 220.8 94.4846 220.447 103.656C220.187 112.816 218.886 118.697 218.516 121.064C218.131 123.532 218.001 124.266 217.906 124.772C216.233 126.217 213.198 128.917 211.666 129.889ZM232.248 144.109C232.192 144.165 232.107 144.131 232.084 144.077C228.574 138.956 225.442 134.261 219.663 124.911C221.851 119.351 222.749 109.476 222.906 103.55C223.181 96.8725 222.639 90.1235 222.575 89.1297C222.661 87.9473 221.666 81.9548 221.149 79.0687C221.66 79.8691 222.263 80.6243 222.706 81.4738C223.973 84.0098 224.919 85.0502 227.271 92.0011C228.827 96.3021 231.172 106.067 232.111 118.726C233.006 131.036 232.374 143.997 232.248 144.109Z" fill="white"/>
<path d="M54.0907 76.6701C52.3772 77.1719 44.758 82.4276 38.7091 93.1459C33.6198 102.167 30.4277 110.915 27.9149 121.17C26.8574 125.483 26.0043 130.156 25.6077 133.132C25.2356 135.924 25.0631 136.396 25.6897 137.127C26.8562 138.487 28.276 137.265 33.5244 137.564C34.1682 137.6 34.8144 137.583 35.4497 137.662C47.906 138.531 52.7431 144.56 54.0356 144.384C54.4506 144.39 54.8888 144.226 55.1972 143.961C56.0723 143.207 55.6794 142.505 57.1188 137.465C58.4529 132.794 61.1604 126.379 64.0245 121.683C64.6793 120.608 66.104 118.464 65.1113 118.912C64.3464 119.258 62.9266 120.855 62.0465 122.055C57.7981 127.848 55.1923 134.503 53.6513 141.52C48.2108 137.544 41.4288 135.522 34.9564 135.171C31.4326 134.98 29.276 135.175 27.7962 135.285C30.1327 118.161 35.9821 99.1054 46.6539 85.7079C47.4715 84.5182 47.906 84.1473 50.9317 80.6247C52.2425 79.3591 53.1948 78.4681 53.8068 77.7484C54.4077 77.0397 54.6684 76.4999 54.0907 76.6701Z" fill="white"/>
<path d="M44.8727 191.239C44.3807 191.141 43.4578 191.203 42.6904 191.1C37.912 190.46 27.2341 187.075 26.5193 186.65C26.0579 186.236 25.474 185.158 25.0224 184.111C23.7287 181.118 22.3578 176.31 21.916 172.633C21.5023 169.189 24.6858 161.598 26.5193 158.235C27.9514 155.614 30.2292 152.657 30.8399 148.023C30.9623 147.08 31.1019 145.391 30.9072 144.516C30.7897 143.991 30.5401 143.706 30.2916 144.003C29.9648 144.395 29.6918 145.455 29.4838 146.194C27.359 153.77 25.6185 153.992 22.703 160.49C21.1339 163.983 20.1486 167.224 19.7165 169.409C19.3566 171.227 19.3664 172.025 19.5011 173.152C19.9172 176.628 22.337 186.781 25.1803 188.736C25.7886 189.252 31.966 191.05 32.9354 191.316C36.2315 192.217 40.2474 193.12 43.5508 192.485C43.9645 192.341 44.3648 192.268 44.6818 192.021C45.1775 191.634 45.2693 191.318 44.8727 191.239Z" fill="white"/>
<path d="M59.7071 202.889C55.9128 196.739 56.1881 196.844 55.7108 196.399L11.8584 154.278C11.608 154.041 11.3132 153.855 10.991 153.731C10.6687 153.607 10.3252 153.548 9.98016 153.558C9.6351 153.567 9.29521 153.644 8.9799 153.784C8.66458 153.925 8.38002 154.126 8.14245 154.376C7.90489 154.627 7.71898 154.921 7.59533 155.244C7.47168 155.566 7.41272 155.909 7.42181 156.254C7.4309 156.599 7.50787 156.939 7.64832 157.255C7.78877 157.57 7.98995 157.855 8.24037 158.092L52.5946 199.647C53.0327 200.066 52.9018 199.94 59.1942 203.436C59.5455 203.632 59.9188 203.232 59.7071 202.889Z" fill="#D1D0D6"/>
<path d="M43.8086 144.402C43.0313 144.997 42.8759 147.681 40.7058 152.282C38.1538 157.692 33.8295 160.803 31.7206 166.858C29.2727 173.885 30.1221 175.662 31.4293 178.87C32.3522 181.134 33.575 183.91 34.8858 185.975C35.1735 186.428 35.958 187.624 36.3656 187.974C36.663 188.228 36.9727 188.302 37.0914 187.996C37.6618 186.537 33.0242 176.897 32.7941 175.615C32.1503 173.114 33.2286 169.935 34.0878 167.53C36.5847 160.545 43.9505 156.127 44.5258 147.338C44.565 146.738 44.5993 145.375 44.4132 144.8C44.2908 144.423 44.068 144.201 43.8061 144.402H43.8086Z" fill="white"/>
<path d="M53.0032 175.941C51.1869 178.313 50.9176 179.154 49.3154 181.302C49.4427 181.421 48.4954 181.708 47.7891 181.661C43.2629 181.361 39.4686 173.278 37.8713 172.584C37.3817 172.371 36.875 172.733 37.1296 173.788C37.6412 175.911 38.7146 177.481 40.2911 179.371C42.7611 182.33 46.171 185.079 49.8356 183.836C50.9653 183.373 50.7254 183.54 51.2089 182.901C55.9138 176.677 54.5638 173.903 53.0032 175.941Z" fill="white"/>
<path d="M54.1208 169.606C53.7659 169.612 53.5003 169.849 53.3301 170.024C51.7573 171.656 52.0327 171.929 49.4208 175.891C49.034 176.17 48.5297 176.442 48.0585 176.366C47.0389 176.201 46.1099 174.642 45.6534 173.722C44.8799 172.164 44.9447 171.831 44.3474 170.898C44.2079 170.68 43.8835 170.19 43.6608 170.059C43.2324 169.808 42.6718 170.055 42.6118 170.9C42.5176 172.22 42.7379 173.639 44.0647 175.859C44.9154 177.283 46.1283 178.584 47.7721 178.799C48.8321 178.939 49.8455 178.585 50.5162 178.132C50.7145 177.999 50.9067 177.861 51.0939 177.726C51.3938 177.509 53.9727 173.576 54.4905 171.898C54.7548 171.04 55.018 169.591 54.1208 169.605V169.606Z" fill="white"/>
<path d="M44.9616 138.549C44.5234 139.423 46.2443 143.111 47.0974 145.052C47.1721 145.276 47.942 146.75 48.2859 148.987C48.6298 151.225 48.3679 154.423 47.9677 157.589C46.8074 166.738 43.1501 165.966 39.1808 169.158C39.0064 169.288 38.8508 169.44 38.7181 169.612C38.5309 169.878 38.5003 170.167 38.7671 170.305C39.1196 170.491 39.7536 170.366 40.1894 170.254C46.248 168.686 49.4524 165.745 50.4193 157.766C51.2369 151.026 51.4266 146.844 47.7657 141.128C47.3337 140.455 46.2027 138.844 45.6532 138.483C45.3863 138.307 45.095 138.281 44.9616 138.549Z" fill="white"/>
<path d="M184.236 87.678C172.785 34.8123 106.653 16.2104 68.4733 54.5304C43.88 79.213 40.1384 120.3 66.4647 149.935C81.6468 167.025 108.136 177.014 134.558 170.18C174.644 159.31 191.808 120.879 184.236 87.678ZM144.745 164.1C139.312 166.631 134.738 167.653 132.231 168.276C133.465 166.744 134.937 156.553 135.209 154.081C135.667 149.091 138.406 148.878 141.014 146.176C142.711 143.884 142.151 142.087 140.789 139.311C136.401 131.505 124.858 138.043 118.082 135.25C116.124 134.443 114.763 132.756 114.509 131.571C113.149 127.003 127.584 122.299 119.251 114.714C110.771 107.241 108.421 113.868 94.2537 108.339C90.2379 106.826 84.9834 103.208 75.1671 103.364C66.9506 103.486 58.0059 106.359 51.1431 110.149C49.924 97.7941 51.9276 86.2129 56.482 76.2522C66.2664 54.8548 85.2796 40.8367 106.919 37.5161C117.552 35.7658 129.394 37.0913 137.024 39.554C133.637 48.1242 127.803 57.3847 118.726 58.889C108.426 60.6295 95.545 66.3014 94.7751 76.3636C94.6136 78.4688 94.6895 78.1408 94.6491 78.5888C94.2084 85.5862 87.539 93.6155 98.1508 96.2776C101.815 97.1417 107.249 97.2984 111.094 97.1601C116.208 97.0071 120.46 96.307 122.368 97.5811C124.327 98.81 124.272 103.099 125.35 107.463C126.114 110.351 127.265 112.505 129.946 113.823C133.105 115.146 138.277 115.035 143.197 112.468C148.188 109.842 151.447 106.175 155.144 105.233C157.326 104.664 159.122 105.331 161.036 106.523C163.441 108.022 166.798 112.473 175.118 111.539C179.34 110.778 180.985 109.614 182.974 107.673C180.111 134.868 166.651 153.896 144.745 164.103V164.1Z" fill="#D1D0D6"/>
</svg>
