<svg width="235" height="235" viewBox="0 0 235 235" fill="none" xmlns="http://www.w3.org/2000/svg">
<path d="M150.823 61.8117C150.47 61.4415 150.397 61.6942 149.082 62.0337C148.511 62.1814 147.917 62.2248 147.331 62.1618C143.759 61.9444 143.218 57.1011 143.052 53.4316L142.679 50.9429C142.687 50.8695 142.68 50.7952 142.658 50.7248C142.636 50.6543 142.6 50.5891 142.551 50.5335C142.503 50.4779 142.443 50.4329 142.376 50.4016C142.309 50.3703 142.237 50.3533 142.163 50.3517C142.089 50.3501 142.016 50.3638 141.948 50.3921C141.879 50.4204 141.818 50.4626 141.767 50.516C141.716 50.5695 141.677 50.6329 141.652 50.7024C141.626 50.7718 141.616 50.8457 141.621 50.9194C140.909 55.2951 141.423 62.3698 145.955 63.6176C146.097 65.084 146.072 64.7926 146.387 67.1344C146.395 67.2785 146.46 67.4137 146.567 67.5101C146.674 67.6065 146.816 67.6563 146.96 67.6485C147.104 67.6407 147.239 67.576 147.336 67.4685C147.432 67.3611 147.482 67.2198 147.474 67.0757L147.542 64.003C148.292 64.0677 149.046 63.9365 149.73 63.6223C150.336 63.2334 151.313 62.3298 150.823 61.8117Z" fill="white"/>
<path d="M154.315 43.7944C152.793 42.8169 151.019 42.3052 149.21 42.3222C146.199 30.4746 131.161 36.4859 133.818 43.5371C134.723 45.9188 136.73 47.0621 138.947 47.9293C142.781 49.5745 147.019 50.042 151.12 49.2723C151.367 50.862 152.023 52.3602 153.023 53.6198C153.102 53.708 153.204 53.773 153.317 53.808C153.43 53.843 153.551 53.8465 153.666 53.8184C154.048 53.7138 154.739 54.279 154.988 54.7772C155.113 55.0657 155.17 55.3793 155.154 55.6934C155.138 56.0075 155.049 56.3136 154.895 56.5878C154.262 57.9085 153.015 57.6371 153.015 58.6676C153.066 61.1134 153.364 63.5478 153.903 65.9338C153.914 66.0778 153.982 66.2115 154.092 66.3056C154.201 66.3997 154.343 66.4464 154.487 66.4355C154.631 66.4246 154.765 66.357 154.859 66.2474C154.953 66.1379 155 65.9955 154.989 65.8515C155.036 61.8965 154.861 61.2385 154.826 59.2046C155.727 58.7083 156.406 57.8874 156.724 56.9087C157.041 55.93 156.975 54.867 156.537 53.9359C157.905 49.9432 156.745 45.7955 154.315 43.7944Z" fill="white"/>
<path d="M149.442 52.3242C149.862 52.3242 150.201 52.8389 150.201 53.4698C150.201 54.1008 149.862 54.6143 149.442 54.6143C149.021 54.6143 148.683 54.0996 148.683 53.4698C148.683 52.84 149.021 52.3242 149.442 52.3242Z" fill="white"/>
<path d="M146.156 55.5232C146.818 55.5691 147.421 55.5373 147.465 56.0966C147.496 56.5102 147.223 56.663 146.055 57.0366C145.553 57.2152 145.097 57.3621 144.699 57.0131C144.522 56.8493 144.418 56.6226 144.407 56.3822C144.384 55.9028 144.349 55.4128 144.349 54.9099C144.349 52.5434 145.336 51.5999 145.821 51.7679C146.484 52.0241 146.156 53.4235 146.156 55.5232Z" fill="white"/>
<path d="M174.317 72.5723C170.603 69.6513 167.169 66.8007 162.39 65.7961C160.644 65.5604 158.884 65.4473 157.122 65.4577C156.984 66.7254 156.569 67.9474 155.907 69.0374C155.245 70.1274 154.352 71.0589 153.291 71.7663C149.214 74.0669 144.596 71.1118 143.279 67.0933C135.223 67.0146 121.048 79.8585 120.558 96.5435C122.999 95.9818 125.493 97.3025 127.566 98.4235C130.896 100.211 134.319 101.789 137.59 103.669C138.744 100.831 140.276 98.1635 142.146 95.7374C144.5 97.2835 146.692 99.0633 148.688 101.05C152.473 99.8112 159.435 96.9265 159.435 96.9265C161.808 95.9779 164.358 95.5526 166.91 95.6795C169.462 95.8064 171.957 96.4827 174.225 97.6621C179.229 93.2758 181.233 85.3011 185.964 82.1251C185.964 81.9347 181.257 78.0126 174.317 72.5723Z" fill="#D1D0D6"/>
<path d="M135.293 86.1275C135.973 88.3125 137.012 90.3693 138.366 92.214C139.947 94.2479 140.363 94.7167 140.843 94.41C141.313 94.0752 141.122 93.7121 139.791 91.2916C138.665 89.4928 137.71 87.5919 136.941 85.614C136.151 83.6764 135.985 83.5624 135.598 83.64C134.877 83.7857 135.144 85.5717 135.293 86.1275Z" fill="white"/>
<path d="M168.539 102.205C169.994 102.132 171.436 102.516 172.662 103.304C172.775 103.388 172.917 103.424 173.057 103.405C173.197 103.387 173.324 103.314 173.412 103.204C173.5 103.094 173.541 102.953 173.528 102.813C173.514 102.672 173.447 102.543 173.34 102.451C172.709 101.828 171.927 101.38 171.071 101.15C170.215 100.921 169.314 100.919 168.456 101.143C167.663 101.424 167.936 102.196 168.539 102.205Z" fill="white"/>
<path d="M165.64 105.925C167.198 105.717 168.782 105.861 170.277 106.345C170.407 106.407 170.556 106.415 170.691 106.368C170.827 106.321 170.939 106.223 171.003 106.095C171.067 105.967 171.079 105.818 171.035 105.682C170.991 105.545 170.895 105.431 170.769 105.364C169.979 104.821 169.062 104.493 168.107 104.413C167.152 104.333 166.193 104.504 165.325 104.908C164.704 105.263 164.892 105.985 165.64 105.925Z" fill="white"/>
<path d="M205.546 108.161C206.968 107.502 208.196 106.489 209.112 105.219C210.029 103.948 210.603 102.463 210.78 100.907C210.843 100.084 210.93 97.9809 210.102 98.0444C209.499 98.069 209.623 98.6742 209.425 99.7963C209.16 101.31 208.579 102.752 207.719 104.026C206.935 105.102 205.926 105.994 204.764 106.643C203.152 107.641 202.746 107.758 202.895 108.267C203.104 109.012 205.029 108.391 205.546 108.161Z" fill="white"/>
<path d="M215.555 102.851C215.889 101.795 216.074 100.698 216.105 99.5911C216.152 98.8873 216.06 98.1811 215.836 97.5125C215.495 96.6054 215.21 95.9027 214.661 96.0872C214.084 96.2952 214.452 96.5102 214.321 99.4947C214.228 100.472 214.077 101.443 213.867 102.403C213.803 102.738 213.596 104.25 214.193 104.424C214.783 104.626 215.415 103.272 215.555 102.851Z" fill="white"/>
<path d="M220.26 98.7184C220.317 97.4101 220.009 96.1118 219.372 94.9678C218.836 94.1758 218.341 93.4873 217.831 93.8116C217.398 94.0665 217.608 94.5272 217.831 95.1558C217.913 95.4472 217.959 95.7433 218.041 96.0429C218.299 96.9053 218.437 97.7994 218.45 98.6996C218.457 98.8629 218.332 100.932 218.952 101.106C219.571 101.28 220.217 99.9662 220.26 98.7184Z" fill="white"/>
<path d="M49.57 58.103C51.7297 57.9103 54.3394 57.9855 56.2875 58.009C62.0897 58.1006 83.2808 57.8586 91.185 58.0207C91.3291 58.0285 91.4705 57.9787 91.5779 57.8823C91.6853 57.7859 91.75 57.6508 91.7578 57.5067C91.7656 57.3625 91.7158 57.2212 91.6194 57.1138C91.523 57.0064 91.3879 56.9416 91.2438 56.9338C87.5143 56.6225 83.6533 56.3264 79.8886 56.2101C72.0607 55.9751 54.9386 56.3181 54.7964 56.3275C52.9863 56.4392 51.1866 56.6815 49.4114 57.0525C49.2792 57.0813 49.163 57.1592 49.0862 57.2706C49.0094 57.382 48.978 57.5184 48.9982 57.6521C49.0184 57.7859 49.0887 57.9069 49.1949 57.9907C49.3012 58.0744 49.4353 58.1146 49.57 58.103Z" fill="white"/>
<path d="M28.7557 74.9646C38.1017 75.1279 47.0047 75.9563 62.3607 75.2795C82.1701 74.3983 93.2433 73.9623 100.408 73.9952C104.461 73.9788 108.502 73.5252 112.664 73.7602C112.808 73.7713 112.951 73.7245 113.061 73.6302C113.172 73.536 113.24 73.4019 113.251 73.2573C113.26 73.1134 113.212 72.9717 113.118 72.8621C113.025 72.7525 112.892 72.6836 112.748 72.6698C108.644 72.2868 104.535 72.6005 100.435 72.483C82.2088 72.0671 62.6686 73.6122 52.2487 73.7215C48.3465 73.7567 30.7192 73.839 28.7557 73.8848C28.6125 73.8848 28.4752 73.9417 28.374 74.0429C28.2727 74.1442 28.2158 74.2815 28.2158 74.4247C28.2158 74.5679 28.2727 74.7052 28.374 74.8065C28.4752 74.9077 28.6125 74.9646 28.7557 74.9646Z" fill="white"/>
<path d="M28.4879 95.1218C33.8095 95.2146 35.7024 95.5589 45.274 95.6587C65.4182 95.9102 80.37 94.1512 100.146 94.1512C104.198 94.1348 108.245 93.6812 112.401 93.9162C112.542 93.9224 112.681 93.8733 112.787 93.7792C112.893 93.6851 112.958 93.5534 112.968 93.4121C112.979 93.2708 112.934 93.1309 112.843 93.0221C112.752 92.9133 112.623 92.8442 112.482 92.8293C108.36 92.4404 104.2 92.7694 100.17 92.6543C87.5822 92.3018 78.1657 92.9057 62.0283 93.6236C52.1219 94.0737 34.2149 93.8845 28.502 94.056C28.432 94.0545 28.3624 94.0669 28.2972 94.0926C28.2321 94.1182 28.1727 94.1567 28.1226 94.2056C28.0725 94.2545 28.0326 94.3129 28.0054 94.3774C27.9781 94.4419 27.964 94.5112 27.9639 94.5813C27.9632 94.722 28.0177 94.8574 28.1157 94.9584C28.2136 95.0594 28.3472 95.1181 28.4879 95.1218Z" fill="white"/>
<path d="M28.8073 115.302C33.4133 115.389 46.1444 116.335 62.4123 115.618C67.7515 115.372 96.6518 114.134 100.46 114.122C100.604 114.122 100.743 114.066 100.848 113.966C100.952 113.866 101.014 113.729 101.02 113.585C101.021 113.441 100.965 113.303 100.865 113.2C100.764 113.097 100.627 113.038 100.483 113.036C95.3785 112.872 90.2868 112.829 85.2085 112.907C82.1535 112.966 55.6537 114.029 52.3002 114.053C48.5508 114.087 30.3853 114.181 28.8085 114.228C28.666 114.228 28.5295 114.284 28.4288 114.385C28.3281 114.486 28.2715 114.622 28.2715 114.765C28.2715 114.907 28.3281 115.044 28.4288 115.144C28.5295 115.245 28.6649 115.302 28.8073 115.302Z" fill="white"/>
<path d="M28.4202 134.599C32.8311 134.691 46.1767 135.624 62.0251 134.926C67.3643 134.669 96.2646 133.442 100.073 133.418C100.218 133.42 100.358 133.365 100.463 133.264C100.567 133.164 100.629 133.027 100.633 132.882C100.634 132.738 100.578 132.6 100.477 132.497C100.377 132.394 100.24 132.335 100.096 132.333C79.8863 131.685 68.2738 133.189 51.9213 133.361C48.1613 133.384 29.9947 133.489 28.4296 133.536C28.3596 133.534 28.29 133.547 28.2249 133.573C28.1599 133.598 28.1006 133.637 28.0505 133.686C28.0005 133.735 27.9608 133.793 27.9337 133.857C27.9065 133.922 27.8926 133.991 27.8926 134.061C27.8926 134.202 27.9478 134.337 28.0464 134.438C28.1451 134.539 28.2793 134.597 28.4202 134.599Z" fill="white"/>
<path d="M67.2096 157.374C67.1274 157.286 67.0286 157.215 66.9189 157.166C66.8093 157.117 66.6909 157.09 66.5707 157.086C66.4505 157.083 66.3308 157.104 66.2187 157.147C66.1065 157.19 66.004 157.255 65.9171 157.338C64.081 158.829 62.3534 160.449 60.7471 162.185C58.9178 160.318 56.5939 159.01 54.048 158.417C51.5021 157.823 48.8397 157.968 46.373 158.833C43.9063 159.699 41.7376 161.25 40.1213 163.305C38.5049 165.36 37.5079 167.833 37.2471 170.434C37.0546 172.278 37.2278 174.143 37.7568 175.92C38.2858 177.697 39.1603 179.353 40.3301 180.792C41.5 182.231 42.9422 183.425 44.5741 184.306C46.2061 185.187 47.9958 185.737 49.8407 185.925C61.6812 187.154 69.6501 173.927 62.5895 164.371C64.0077 162.608 65.5587 160.481 67.1814 158.659C67.3538 158.491 67.4535 158.263 67.4587 158.022C67.464 157.782 67.3745 157.549 67.2096 157.374ZM62.4379 173.016C62.2412 174.835 61.6004 176.578 60.5721 178.091C59.5438 179.603 58.1594 180.841 56.5408 181.693C54.9221 182.545 53.1188 182.986 51.2895 182.978C49.4602 182.97 47.6609 182.512 46.0501 181.645C44.4392 180.778 43.0661 179.529 42.0516 178.006C41.0371 176.484 40.4122 174.736 40.232 172.916C40.0518 171.095 40.3217 169.258 41.0181 167.567C41.7144 165.875 42.8158 164.381 44.2254 163.215C46.3744 161.412 49.1072 160.454 51.9114 160.522C54.7157 160.59 57.3989 161.679 59.4581 163.583C56.7444 166.473 54.2144 169.53 51.8829 172.736C51.1779 171.87 49.3085 169.907 48.6117 169.021C48.5527 168.919 48.474 168.828 48.3801 168.756C48.2863 168.684 48.1791 168.631 48.0647 168.6C47.9503 168.569 47.8309 168.561 47.7134 168.576C47.5959 168.591 47.4825 168.629 47.3797 168.688C47.2769 168.747 47.1868 168.826 47.1145 168.92C47.0421 169.014 46.9889 169.121 46.958 169.235C46.9271 169.35 46.919 169.469 46.9342 169.587C46.9494 169.704 46.9876 169.818 47.0466 169.92C47.9798 172.212 49.2646 174.345 50.8548 176.241C51.0058 176.433 51.2014 176.585 51.4247 176.685C51.648 176.784 51.8921 176.828 52.136 176.812C52.3799 176.795 52.6162 176.72 52.8243 176.592C53.0325 176.464 53.2062 176.287 53.3305 176.076C55.2798 172.81 58.5534 169.289 61.2606 165.996C62.3748 168.156 62.7852 170.611 62.4344 173.016H62.4379Z" fill="#D1D0D6"/>
<path d="M29.0291 154.523C29.3651 161.311 29.7458 160.674 29.1466 165.387C29.1573 165.626 29.0729 165.859 28.9118 166.035C28.7507 166.211 28.5262 166.316 28.2877 166.327C28.0491 166.338 27.8161 166.253 27.6398 166.092C27.4635 165.931 27.3584 165.707 27.3477 165.468C26.9235 163.56 26.1985 161.693 25.9118 152.945C25.9053 152.728 25.9454 152.511 26.0292 152.311C26.113 152.11 26.2387 151.93 26.3979 151.781C26.5571 151.633 26.7461 151.521 26.9522 151.452C27.1583 151.382 27.3769 151.358 27.5932 151.38C30.7399 151.732 33.9382 151.244 39.1 151.59C39.2199 151.586 39.3394 151.606 39.4515 151.649C39.5636 151.692 39.6661 151.756 39.753 151.839C39.8399 151.922 39.9095 152.021 39.9578 152.13C40.0061 152.24 40.032 152.359 40.0341 152.479C40.0393 152.598 40.0207 152.717 39.9792 152.828C39.9378 152.94 39.8745 153.043 39.7929 153.13C39.7114 153.217 39.6133 153.287 39.5044 153.335C39.3955 153.384 39.278 153.41 39.1588 153.413C36.0603 153.807 33.3543 154.618 29.0291 154.523Z" fill="#D1D0D6"/>
<path d="M77.4322 184.104C77.0727 176.484 77.2713 177.591 77.5956 174.921C77.5797 174.685 77.6579 174.451 77.8133 174.272C77.9686 174.093 78.1885 173.982 78.4251 173.964C78.543 173.953 78.6618 173.966 78.7745 174.002C78.8872 174.038 78.9914 174.097 79.0808 174.174C79.1703 174.252 79.2431 174.347 79.295 174.453C79.3469 174.559 79.3767 174.675 79.3827 174.793C80.4884 178.578 80.1453 177.926 80.5507 185.517C80.5605 185.724 80.5283 185.931 80.456 186.124C80.3837 186.318 80.2727 186.495 80.1299 186.645C79.987 186.795 79.8153 186.914 79.6251 186.995C79.4348 187.076 79.2301 187.118 79.0232 187.118C77.5627 187.071 76.0669 187.118 74.5723 187.071C73.0777 187.024 71.5819 186.872 70.0979 186.825C69.8562 186.844 69.6171 186.765 69.4331 186.608C69.2492 186.45 69.1354 186.226 69.1168 185.984C69.1063 185.865 69.1195 185.745 69.1556 185.631C69.1917 185.517 69.25 185.412 69.3271 185.321C69.4043 185.229 69.4987 185.154 69.6049 185.1C69.7112 185.045 69.8272 185.012 69.9463 185.003C72.4042 184.447 74.9127 184.146 77.4322 184.104Z" fill="#D1D0D6"/>
<path d="M130.983 161.733C130.674 163.827 130.531 164.373 130.211 167.246C129.943 169.831 128.622 185.54 128.587 186.357C128.506 188.437 128.459 190.493 128.436 192.573C128.431 192.643 128.441 192.713 128.464 192.779C128.487 192.846 128.523 192.907 128.569 192.959C128.616 193.011 128.673 193.053 128.736 193.083C128.8 193.113 128.868 193.13 128.939 193.134C129.009 193.138 129.08 193.129 129.147 193.106C129.214 193.083 129.276 193.048 129.329 193.001C129.382 192.954 129.426 192.897 129.457 192.834C129.488 192.77 129.506 192.701 129.511 192.631C132.492 163.218 132.045 165.932 132.045 161.802C132.053 161.662 132.004 161.525 131.911 161.421C131.818 161.316 131.688 161.252 131.548 161.243C131.409 161.234 131.271 161.28 131.165 161.372C131.059 161.464 130.994 161.593 130.983 161.733Z" fill="white"/>
<path d="M139.253 165.76C138.535 168.407 138.121 169.087 135.877 181.576C135.234 185.123 134.798 188.704 134.569 192.301C134.553 192.373 134.551 192.449 134.565 192.522C134.579 192.595 134.609 192.665 134.651 192.726C134.694 192.788 134.749 192.84 134.812 192.878C134.876 192.917 134.947 192.943 135.021 192.952C135.095 192.962 135.171 192.956 135.242 192.935C135.314 192.914 135.38 192.879 135.437 192.83C135.494 192.782 135.541 192.723 135.573 192.655C135.606 192.588 135.624 192.515 135.627 192.44C140.209 166.915 139.724 172.444 140.288 165.958C140.303 165.826 140.267 165.693 140.188 165.587C140.109 165.48 139.993 165.407 139.862 165.382C139.732 165.357 139.597 165.382 139.484 165.452C139.371 165.522 139.288 165.632 139.253 165.76Z" fill="white"/>
<path d="M131.211 200.59C129.648 201.346 127.924 201.709 126.188 201.647C124.151 201.739 120.766 201.968 119.11 200.825C118.782 200.655 118.522 200.379 118.372 200.041C118.223 199.704 118.193 199.325 118.287 198.968C118.992 196.798 123.651 197.676 126.429 196.316C127.084 195.933 127.646 195.41 128.075 194.784C128.499 194.208 128.88 194.5 132.375 194.328C134.812 194.219 134.926 193.949 135.365 194.305C135.458 194.382 135.535 194.478 135.589 194.587C135.643 194.696 135.674 194.814 135.68 194.936C135.68 195.742 135.668 196.513 135.599 197.272C135.487 198.658 135.171 200.02 134.659 201.314C134.616 201.395 134.553 201.464 134.477 201.513C134.4 201.563 134.311 201.593 134.22 201.598C134.129 201.604 134.037 201.587 133.955 201.547C133.872 201.508 133.801 201.447 133.748 201.372C133.221 201.392 132.7 201.449 131.879 201.419C131.743 201.412 131.613 201.359 131.51 201.271C131.406 201.182 131.335 201.062 131.307 200.928L131.211 200.59ZM134.031 195.94C132.444 196.109 130.85 196.195 129.254 196.198C128.713 196.912 128.029 197.505 127.245 197.938C124.739 199.19 121.793 198.843 120.259 199.456C121.4 200.108 124.835 200.014 126.147 199.994C127.907 200.189 129.685 199.838 131.24 198.99C131.33 198.928 131.434 198.89 131.542 198.878C131.651 198.866 131.761 198.88 131.862 198.921C131.964 198.961 132.054 199.026 132.125 199.109C132.195 199.192 132.244 199.292 132.268 199.398L132.431 200.227C132.568 200.227 133.745 200.259 133.868 200.262C134.06 198.83 134.114 197.383 134.027 195.94H134.031ZM120.025 199.316C120.025 199.246 120.014 199.188 119.967 199.222C119.92 199.256 119.974 199.293 120.021 199.316H120.025Z" fill="white"/>
<path d="M172.435 175.371C172.582 176.579 172.82 177.773 173.147 178.945C173.52 180.347 175.939 188.793 176.172 189.53C176.534 190.651 176.908 191.737 177.271 192.847C177.305 192.984 177.393 193.103 177.514 193.176C177.574 193.212 177.641 193.237 177.711 193.247C177.78 193.257 177.851 193.254 177.919 193.237C177.987 193.22 178.051 193.19 178.108 193.149C178.165 193.107 178.212 193.054 178.249 192.994C178.285 192.934 178.309 192.867 178.319 192.798C178.33 192.728 178.327 192.657 178.31 192.589C177.641 188.326 176.637 184.122 175.308 180.017C174.854 178.308 174.232 176.649 173.451 175.063C173.408 174.931 173.315 174.821 173.192 174.757C173.069 174.692 172.925 174.679 172.792 174.719C172.659 174.759 172.547 174.85 172.48 174.972C172.414 175.094 172.397 175.237 172.435 175.371Z" fill="white"/>
<path d="M182.156 198.906C181.458 200.277 181.344 201.032 180.766 201.067C179.402 201.15 178.789 201.173 178.442 201.173C178.281 201.17 178.127 201.105 178.012 200.992C177.896 200.879 177.829 200.727 177.823 200.565C177.636 199.071 177.678 196.533 177.601 195.25C177.597 195.056 177.658 194.867 177.775 194.712C177.891 194.557 178.056 194.446 178.243 194.397C180.121 193.927 182.03 193.595 183.955 193.404C184.729 193.323 184.833 194.194 188.044 195.436C192.949 197.302 196.8 196.741 198.406 197.878C199.417 198.677 198.854 199.993 197.682 200.624C196.191 201.144 194.622 201.401 193.044 201.383C190.656 201.542 187.169 202.15 184.867 200.796C183.866 200.227 183.002 199.37 182.156 198.906ZM183.792 195.226C182.285 195.375 180.788 195.605 179.306 195.916C179.306 196.386 179.141 198.878 179.119 199.911C179.563 199.934 180.1 199.958 180.44 199.981C180.702 199.207 181.03 198.456 181.421 197.738C182.217 196.771 184.722 199.437 186.292 199.794C188.642 200.304 189.966 199.912 192.916 199.653C194.211 199.631 195.498 199.447 196.747 199.105C195.268 198.661 188.673 198.654 183.792 195.226ZM197.121 198.894C197.18 198.847 197.214 198.802 197.156 198.766C197.099 198.731 197.109 198.81 197.121 198.894Z" fill="white"/>
<path d="M172.052 142.136C171.101 137.402 168.997 133.794 164.26 129.882C159.708 126.128 137.649 112.077 126.552 104.93C123.554 102.998 120.301 100.256 116.669 101.308C115.583 101.646 114.613 102.282 113.87 103.143C113.127 104.004 112.64 105.056 112.464 106.18C111.759 109.117 112.229 112.792 112.405 115.151C113.829 134.069 113.304 138.666 115.279 143.644C116.268 146.242 117.998 148.492 120.255 150.114C130.735 157.742 157.919 175.707 159.167 176.504C160.539 177.437 162.106 178.044 163.749 178.279C170.339 179.075 171.857 172.375 172.358 165.745C172.58 162.824 172.347 156.085 172.37 154.905C172.512 149.388 172.935 146.448 172.052 142.136ZM171.276 165.705C170.769 171.363 169.578 177.753 163.922 176.985C161.268 176.607 159.53 175.043 157.459 173.644C149.049 167.815 124.82 151.298 121.293 148.703C119.311 147.271 117.792 145.289 116.923 143.003C115.161 138.505 115.631 135.076 114.202 115.025C113.881 110.705 112.989 104.289 117.18 103.051C119.952 102.214 123.116 104.871 125.567 106.45C137.411 114.088 159.006 127.82 163.149 131.227C167.739 134.973 169.582 138.284 170.508 142.465C171.448 146.702 171.045 149.828 171.045 154.884C171.047 157.856 171.302 165.44 171.276 165.705Z" fill="white"/>
<path d="M225.17 70.0426C224.15 68.6264 222.824 67.4575 221.292 66.6225C219.759 65.7874 218.058 65.3074 216.315 65.2181C208.161 64.5777 199.655 69.1661 193.571 74.5288C184.704 82.2615 181.93 90.2515 174.301 98.7338C174.141 98.9122 174.057 99.1455 174.066 99.3847C170.372 96.392 164.783 97.0347 160.126 98.1486C155.972 99.1846 151.945 100.673 148.116 102.587C146.622 100.98 144.924 99.5784 143.063 98.4165C143.006 98.3773 142.941 98.3499 142.873 98.3357C142.805 98.3215 142.734 98.3209 142.666 98.3339C142.598 98.3469 142.532 98.3732 142.474 98.4114C142.416 98.4495 142.366 98.4988 142.327 98.5564C142.287 98.6139 142.26 98.6786 142.246 98.7468C142.232 98.815 142.231 98.8853 142.244 98.9537C142.257 99.0221 142.283 99.0873 142.321 99.1455C142.36 99.2037 142.409 99.2539 142.466 99.2931C144.195 100.871 145.829 102.548 147.362 104.316C147.501 104.454 147.682 104.542 147.877 104.565C148.072 104.588 148.269 104.546 148.437 104.444C150.472 103.34 152.603 102.422 154.803 101.699C160.724 99.5304 170.58 96.7645 174.644 101.562C174.486 101.586 174.337 101.648 174.21 101.744C174.082 101.839 173.981 101.965 173.913 102.109C173.846 102.254 173.816 102.412 173.825 102.571C173.834 102.73 173.883 102.884 173.966 103.02C174.048 103.161 174.351 103.57 174.398 103.639C174.516 104.116 173.254 104.035 173.136 104.048C172.976 104.051 172.82 104.095 172.681 104.174C172.542 104.254 172.425 104.368 172.342 104.504C171.951 105.156 172.583 105.974 172.107 106.584C171.903 106.892 171.454 106.893 171.196 106.958C171.061 106.988 170.933 107.046 170.821 107.129C170.709 107.212 170.616 107.317 170.548 107.438C170.479 107.559 170.437 107.693 170.424 107.832C170.411 107.97 170.427 108.11 170.471 108.242C170.557 108.594 170.892 109.064 170.717 109.527C170.629 109.816 170.239 109.96 169.941 110.022C169.934 109.889 169.876 109.764 169.781 109.671C169.686 109.578 169.559 109.524 169.426 109.519C166.841 109.191 163.849 109.5 159.402 111.844C158.12 112.41 156.96 113.217 155.985 114.223C128.101 98.0182 127.224 97.0347 123.883 96.674C121.461 96.6342 119.068 97.1996 116.92 98.319C116.796 98.3797 116.701 98.4857 116.655 98.6149C116.608 98.7441 116.613 98.8864 116.669 99.0119C116.725 99.1373 116.827 99.2362 116.955 99.2878C117.082 99.3394 117.225 99.3396 117.352 99.2884C119.341 98.3607 121.527 97.9316 123.719 98.0382C126.491 98.406 129.525 100.754 131.989 102.208C155.48 116.079 161.556 119.387 167.42 123.586C170.945 126.096 174.694 128.581 176.486 132.547C179.276 138.767 178.539 146.384 178.846 153.095C179.081 158.352 179.356 163.724 176.766 168.316C175.574 170.157 174.077 171.781 172.339 173.117C172.229 173.211 172.16 173.344 172.148 173.488C172.137 173.632 172.183 173.774 172.276 173.884C172.37 173.994 172.503 174.063 172.647 174.074C172.791 174.086 172.933 174.04 173.043 173.947C174.916 172.557 176.547 170.868 177.869 168.947C179.867 165.551 178.574 164.549 179.74 171.782C180.958 179.897 181.283 184.12 182.73 192.156C182.751 192.294 182.824 192.418 182.936 192.503C183.047 192.587 183.186 192.625 183.325 192.608C183.463 192.592 183.59 192.521 183.677 192.413C183.765 192.304 183.807 192.165 183.794 192.026C183.55 189.441 183.662 188.258 182.964 182.027C181.442 169.22 180.771 168.479 180.137 166.14C180.119 166.05 180.078 165.966 180.017 165.897C179.956 165.828 179.878 165.776 179.791 165.747C179.704 165.718 179.61 165.712 179.52 165.73C179.43 165.749 179.347 165.791 179.278 165.852C180.673 161.77 180.576 157.352 180.453 153.045C180.19 145.279 181.393 135.216 176.141 128.641C176.836 127.279 177.156 126.174 177.792 125.058C178.876 123.186 182.858 119.564 184.531 118.178C187.697 115.533 191.172 113.284 194.882 111.48C202.272 107.851 202.402 108.8 205.466 103.49C206.8 101.14 207.111 97.7867 209.204 96.271C209.829 95.801 210.416 95.6835 210.91 96.2827C211.118 96.6155 211.302 96.963 211.459 97.3226C211.532 97.4572 211.646 97.5649 211.785 97.6299C211.924 97.6948 212.08 97.7136 212.23 97.6836C212.38 97.6535 212.517 97.5761 212.619 97.4627C212.722 97.3493 212.786 97.2059 212.802 97.0535C212.909 95.9653 213.355 94.938 214.076 94.116C214.474 93.7436 214.81 93.6883 215.336 94.2688C215.408 94.3519 215.5 94.4148 215.603 94.4511C215.707 94.4875 215.818 94.496 215.925 94.4759C216.033 94.4558 216.134 94.4078 216.217 94.3365C216.3 94.2653 216.363 94.1735 216.4 94.0702C217.161 91.9552 219.152 91.4159 220.361 94.6072C220.357 94.7079 220.382 94.8077 220.431 94.8954C220.481 94.9831 220.554 95.0553 220.642 95.104C220.731 95.1527 220.831 95.176 220.931 95.1713C221.032 95.1665 221.129 95.134 221.213 95.0772C225.512 92.1949 228.939 87.1882 229.122 82.0746C229.034 77.7595 227.658 73.5692 225.17 70.0426ZM162.123 114.259C161.546 114.677 160.913 115.011 160.243 115.252C159.958 115.369 159.208 115.324 158.893 115.909C158.324 115.568 157.745 115.246 157.175 114.911C159.501 113.658 161.924 112.594 164.42 111.727C163.822 112.709 163.043 113.569 162.123 114.259Z" fill="white"/>
<path d="M171.949 135.637C173.304 135.287 174.588 134.706 175.746 133.92C176.36 133.509 176.023 132.757 175.313 132.927C173.937 133.236 172.64 133.829 171.505 134.667C170.935 135.125 171.222 135.773 171.949 135.637Z" fill="white"/>
<path d="M150.064 139.089C149.04 133.425 145.03 128.372 139.013 128.155C138.818 128.147 138.626 128.201 138.463 128.307C136.558 128.597 134.772 129.411 133.302 130.657C132.324 128.595 131.352 126.53 130.28 124.51C127.756 119.883 127.165 119.192 126.321 119.615C125.558 119.967 125.566 120.77 127.664 125.759C128.342 127.372 129.101 128.931 129.848 130.526C131.258 133.538 131.164 133.086 131.034 133.296C126.303 140.843 130.273 154.759 141.699 153.727C148.244 153.122 151.271 145.44 150.064 139.089ZM147.178 144.112C146.531 147.301 144.672 150.386 141.421 150.692C134.111 151.359 130.688 143.29 132.647 136.72C132.849 136.037 132.261 136.264 137.162 144.521C137.293 144.744 137.482 144.926 137.709 145.049C137.937 145.172 138.193 145.229 138.451 145.216C138.709 145.203 138.958 145.119 139.171 144.974C139.385 144.829 139.554 144.628 139.662 144.393C140.367 142.496 141.597 139.498 142.536 137.559C142.658 137.352 142.693 137.104 142.633 136.871C142.573 136.637 142.422 136.437 142.215 136.315C142.007 136.193 141.76 136.158 141.526 136.218C141.293 136.278 141.093 136.428 140.971 136.636C140.032 137.983 139.166 139.379 138.377 140.819C138.142 140.363 134.602 133.347 134.467 133.064C135.617 131.546 137.249 130.465 139.095 129.998C145.276 130.66 148.389 138.385 147.178 144.112Z" fill="#D1D0D6"/>
<path d="M109.51 197.839C97.0751 197.617 22.6683 197.29 11.4411 197.29C10.6689 197.285 9.91633 197.046 9.28294 196.604C8.64956 196.162 8.16517 195.538 7.89381 194.815C7.28281 193.146 8.04421 193.483 8.22046 170.272C8.36146 152.373 9.45891 47.2718 9.42366 39.5626C9.41665 38.5654 9.80255 37.6055 10.4979 36.8907C11.1932 36.1758 12.142 35.7634 13.139 35.7427C27.5422 35.4149 99.5227 34.7804 121.143 34.6441C122.181 34.6341 123.182 35.0284 123.934 35.7436C124.686 36.4588 125.131 37.4387 125.173 38.4758C125.592 50.026 124.931 61.5845 126.178 73.0772C126.182 73.1498 126.201 73.2208 126.233 73.2859C126.265 73.3511 126.31 73.409 126.366 73.4563C126.421 73.5036 126.485 73.5392 126.555 73.5611C126.624 73.583 126.697 73.5906 126.769 73.5836C126.842 73.5765 126.912 73.5549 126.976 73.5201C127.04 73.4853 127.096 73.4379 127.141 73.3809C127.186 73.3238 127.219 73.2583 127.238 73.1881C127.258 73.118 127.262 73.0447 127.253 72.9726C126.102 61.6926 126.838 49.8944 126.505 38.4276C126.449 37.0397 125.859 35.7272 124.857 34.7649C123.855 33.8026 122.52 33.265 121.131 33.2646C99.5203 33.2999 27.514 33.6735 13.1096 33.9696C11.648 34.0004 10.2569 34.6037 9.23556 35.6497C8.2142 36.6956 7.64422 38.1007 7.64824 39.5626C7.67174 47.2601 6.42154 98.59 6.29346 116.569C6.11251 141.788 6.98319 167.518 5.88456 193.224C5.84776 193.977 5.96437 194.729 6.2273 195.435C6.49023 196.141 6.89399 196.787 7.41403 197.332C7.93408 197.877 8.55956 198.311 9.25246 198.607C9.94535 198.903 10.6912 199.055 11.4447 199.054C22.3792 199.042 100.075 198.68 109.478 198.902C109.616 198.901 109.748 198.847 109.847 198.751C109.946 198.654 110.003 198.523 110.007 198.386C110.011 198.248 109.962 198.114 109.869 198.012C109.776 197.91 109.648 197.848 109.51 197.839Z" fill="white"/>
<path d="M164.605 84.2271C165.484 86.7017 166.644 89.0672 168.063 91.2771C168.282 91.6191 170.159 94.4626 170.809 93.9984C171.397 93.6036 170.887 93.0749 168.857 89.1809C166.425 84.6196 165.553 81.2755 164.583 81.5998C163.936 81.8254 164.438 83.6596 164.605 84.2271Z" fill="white"/>
</svg>
