<?xml version="1.0" encoding="UTF-8"?>
<svg xmlns="http://www.w3.org/2000/svg" width="25" height="24" viewBox="0 0 25 24" fill="none">
  <path d="M14.6667 18.6C14.6667 18.0399 14.6667 17.7599 14.7757 17.546C14.8716 17.3578 15.0245 17.2049 15.2127 17.109C15.4266 17 15.7066 17 16.2667 17H20.0667C20.6267 17 20.9068 17 21.1207 17.109C21.3088 17.2049 21.4618 17.3578 21.5577 17.546C21.6667 17.7599 21.6667 18.0399 21.6667 18.6V19.4C21.6667 19.9601 21.6667 20.2401 21.5577 20.454C21.4618 20.6422 21.3088 20.7951 21.1207 20.891C20.9068 21 20.6267 21 20.0667 21H16.2667C15.7066 21 15.4266 21 15.2127 20.891C15.0245 20.7951 14.8716 20.6422 14.7757 20.454C14.6667 20.2401 14.6667 19.9601 14.6667 19.4V18.6Z" fill="#FDEEE3"></path>
  <path d="M20.6667 10V6.8C20.6667 5.11984 20.6667 4.27976 20.3397 3.63803C20.0521 3.07354 19.5931 2.6146 19.0287 2.32698C18.3869 2 17.5468 2 15.8667 2H9.46669C7.78653 2 6.94645 2 6.30472 2.32698C5.74023 2.6146 5.28129 3.07354 4.99367 3.63803C4.66669 4.27976 4.66669 5.11984 4.66669 6.8V17.2C4.66669 18.8802 4.66669 19.7202 4.99367 20.362C5.28129 20.9265 5.74023 21.3854 6.30472 21.673C6.94645 22 7.78653 22 9.46669 22H11.1667M13.6667 11H8.66669M11.6667 15H8.66669M16.6667 7H8.66669M19.9167 17V15.25C19.9167 14.2835 19.1332 13.5 18.1667 13.5C17.2002 13.5 16.4167 14.2835 16.4167 15.25V17M16.2667 21H20.0667C20.6267 21 20.9068 21 21.1207 20.891C21.3088 20.7951 21.4618 20.6422 21.5577 20.454C21.6667 20.2401 21.6667 19.9601 21.6667 19.4V18.6C21.6667 18.0399 21.6667 17.7599 21.5577 17.546C21.4618 17.3578 21.3088 17.2049 21.1207 17.109C20.9068 17 20.6267 17 20.0667 17H16.2667C15.7066 17 15.4266 17 15.2127 17.109C15.0245 17.2049 14.8716 17.3578 14.7757 17.546C14.6667 17.7599 14.6667 18.0399 14.6667 18.6V19.4C14.6667 19.9601 14.6667 20.2401 14.7757 20.454C14.8716 20.6422 15.0245 20.7951 15.2127 20.891C15.4266 21 15.7066 21 16.2667 21Z" stroke="#807974" stroke-width="1.5" stroke-linecap="round" stroke-linejoin="round"></path>
</svg>
