<svg width="533" height="210" viewBox="0 0 533 210" fill="none" xmlns="http://www.w3.org/2000/svg">
<path fill-rule="evenodd" clip-rule="evenodd" d="M287.971 134.563C287.173 133.312 286.407 132.042 285.673 130.754V130.753L285.606 130.634C287.539 123.336 287.471 115.094 287.401 106.617C287.304 94.7259 287.201 82.3716 292.615 71.5129C295.857 65.0086 301.241 64.5392 307.212 64.0194C312.321 63.5739 317.86 63.0913 322.855 58.7576C324.25 57.5473 324.951 56.0788 325.059 54.6367C325.41 54.9131 325.777 55.1845 326.16 55.446C336.154 62.2539 352.103 65.3081 369.619 59.8227C370.27 59.6189 370.725 59.3565 371.049 59.1709C371.543 58.8855 371.729 58.7782 371.838 59.3268C372.951 64.9665 370.463 106.416 354.719 130.66H354.717C354.701 130.684 354.661 130.76 354.596 130.884C354.584 130.906 354.573 130.927 354.561 130.948C352.738 130.24 350.863 129.672 348.953 129.251C335.291 126.197 304.609 130.734 287.971 134.563ZM277.417 61.4207C276.182 63.8813 274.939 66.3379 273.688 68.7904C272.179 71.748 270.681 74.7114 269.195 77.6806C268.104 68.3771 268.013 61.3044 268.428 59.2031C268.536 58.6536 268.722 58.7617 269.216 59.0463C269.541 59.2328 269.995 59.4951 270.647 59.6989C272.934 60.415 275.193 60.9859 277.417 61.4207ZM328.692 107.423C330.143 107.439 331.428 107.459 332.566 107.476C340.861 107.603 341.345 107.611 341.325 105.552C341.302 103.178 341.297 101.23 341.292 99.6322C341.278 94.2664 341.274 92.8383 340.64 92.4572C340.411 92.3194 340.098 92.3186 339.672 92.3178H339.641L338.138 92.3145H338.137C335.049 92.3079 331.959 92.3013 328.871 92.3392H328.87C328.563 92.3433 328.34 92.3458 328.179 92.2468C327.752 91.9853 327.762 91.0093 327.799 87.4412C327.816 85.8077 327.838 83.6313 327.828 80.7306C327.823 79.4445 327.66 78.4512 326.393 78.4569C324.343 78.4652 322.593 78.4652 321.099 78.4635C313.072 78.4569 312.445 78.4561 312.471 80.1012C312.502 82.0341 312.502 83.9671 312.502 85.9001C312.502 87.7299 312.5 89.559 312.527 91.388V91.4218C312.533 91.7625 312.536 92.0092 312.427 92.1866C312.141 92.6511 311.078 92.6362 307.223 92.5826C304.784 92.5449 302.344 92.5262 299.904 92.5265C299.427 92.5257 299.095 92.5248 298.863 92.6766C298.328 93.0256 298.322 94.1814 298.3 97.9921C298.291 100.157 298.265 102.321 298.222 104.486C298.157 107.566 298.246 107.568 301.382 107.636L301.414 107.637C305.093 107.718 307.535 107.672 309.155 107.64C312.239 107.582 312.341 107.579 312.329 108.625C312.294 111.699 312.296 114.773 312.297 117.848L312.298 120.12V120.223C312.297 120.677 312.296 121.011 312.444 121.257C312.852 121.939 314.399 121.94 320.243 121.941C321.814 121.941 323.698 121.941 325.954 121.955C327.727 121.966 327.713 121.057 327.654 117.184C327.642 116.369 327.628 115.422 327.628 114.325C327.649 114.325 327.67 110.118 327.615 108.527C327.585 107.668 327.825 107.412 328.694 107.422L328.692 107.423Z" fill="#0705CB"/>
<path fill-rule="evenodd" clip-rule="evenodd" d="M388.353 40.6934C389.015 40.3123 389.264 40.1687 389.409 40.9038H389.409C390.901 48.4608 387.542 103.984 366.47 136.481C366.449 136.514 366.396 136.615 366.309 136.779C366.182 137.019 365.984 137.395 365.707 137.896C363.633 136.063 361.482 134.475 359.15 133.143C376.661 105.872 379.448 59.6214 378.198 53.3102C378.076 52.6939 377.866 52.8152 377.311 53.1344C376.948 53.3432 376.436 53.6377 375.705 53.867C356.037 60.0339 338.126 56.5961 326.901 48.9517C325.415 47.9402 324.145 46.7861 323.097 45.7754C323.058 45.4929 323 45.2133 322.923 44.9389C322.035 41.8336 318.345 37.2771 314.14 34.025C316.188 32.4492 318.015 30.7472 319.594 28.9487C320.079 28.396 321.139 29.4355 322.757 31.0236C324.159 32.3989 325.979 34.185 328.208 35.703C341.6 44.825 362.968 48.9195 386.436 41.5679C387.309 41.294 387.92 40.9434 388.353 40.6934ZM285.026 44.8349C275.505 45.7903 264.9 44.8712 253.827 41.4021C252.954 41.129 252.345 40.7776 251.912 40.5276C251.249 40.1465 250.999 40.0021 250.854 40.738C249.836 45.8893 251.073 73.3362 258.642 100.582C260.587 95.8315 262.675 91.1867 264.811 86.6748C261.849 70.2771 261.421 56.4237 262.065 53.1716C262.187 52.5561 262.396 52.6766 262.95 52.9958C263.313 53.2046 263.825 53.4991 264.557 53.7284C269.774 55.3611 274.866 56.3189 279.744 56.7034C281.699 52.67 283.432 48.8733 284.819 45.3481C284.886 45.1773 284.955 45.0057 285.026 44.8349ZM311.493 166.208L307.46 166.175C304.17 166.149 300.945 166.123 297.801 166.08C298.414 166.571 299.024 167.065 299.633 167.56C304.905 171.837 319.008 183.278 320.997 182.145C327.921 178.197 335.924 172.118 341.868 166.744L341.225 166.758C339.86 166.789 338.588 166.817 337.448 166.87L337.369 166.873L337.294 166.87C334.459 166.721 331.623 166.603 328.785 166.515C326.116 168.451 323.4 170.244 320.857 171.694C319.916 172.229 315.744 169.411 311.493 166.208Z" fill="#0705CB"/>
<path d="M337.386 165.211C292.141 162.823 248.533 169.356 249.302 146.086C250.571 107.722 276.66 70.6138 286.363 45.9529C288.685 40.0534 292.934 33.9541 299.274 33.0706C302.956 32.5574 304.741 30.1006 310.331 33.4237C314.135 35.6858 320.132 41.1943 321.332 45.3928C322.16 48.2926 320.547 49.4889 320.061 47.9899C318.216 42.2908 314.012 38.5453 309.362 35.2246C307.46 33.8659 305.325 33.2884 302.929 34.2635C297.317 36.5463 292.934 34.365 287.7 48.187C279.198 70.6369 254.048 105.766 251.472 146.184C250.36 163.625 287.16 161.65 322.197 162.639C332.87 162.94 357.199 164.595 364.397 156.955C367.852 153.288 368.455 147.594 364.775 143.578C352.985 130.717 337.261 132.033 319.533 133.185C300.249 134.438 283.583 139.328 283.167 138.114C281.876 134.341 329.802 126.665 348.593 130.865C356.874 132.717 363.047 137.301 364.84 139.279C366.44 141.043 371.082 143.856 369.754 151.635C367.27 166.169 347.71 164.791 337.385 165.212L337.386 165.211Z" fill="#010614"/>
<path d="M301.14 61.0527C309.204 59.9529 314.371 60.5156 319.977 56.7676C320.926 56.1332 322.079 54.8387 321.542 53.6986C320.588 51.6732 318.986 52.2416 315.117 52.1806C312.037 52.1319 310.258 50.3128 310.251 47.2438C310.244 44.6187 310.282 41.9869 308.831 39.6241C307.835 38.003 311.991 36.9099 311.976 47.0961C311.969 51.3713 315.93 50.3128 318.902 50.2897C322.959 50.2584 325.122 54.5987 321.769 57.5084C311.487 66.4325 297.669 57.6627 291.132 70.7736C281.598 89.8955 288.621 113.493 283.92 130.669C282.435 136.096 278.034 143.517 277.228 143.08C275.921 142.37 281.772 134.243 283.064 123.079C284.766 108.386 278.783 64.1035 301.138 61.0535L301.14 61.0527Z" fill="#010614"/>
<path d="M338.855 156.733C336.734 155.19 338.6 150.832 343.46 139.696C344.78 136.675 346.313 135.954 349.461 136.985C352.154 137.867 354.319 140.174 353.251 143.604C351.355 149.691 350.296 153.422 346.884 157.809C345.118 160.081 341.008 158.298 338.855 156.733ZM339.906 154.328C339.657 156.134 344.414 158.395 345.649 156.88C346.874 155.38 347.848 153.728 348.647 151.965C348.818 151.588 348.762 151.413 348.402 151.255C341.476 148.223 341.512 148.35 341.234 148.983C340.51 150.631 340.072 152.349 339.906 154.327L339.906 154.328ZM347.233 138.35C345.487 138.25 345.28 140.013 343.975 142.563C343.674 143.151 343.962 143.33 344.436 143.476C350.245 145.262 350.246 147.556 351.296 144.394C351.607 143.458 352.01 142.525 351.799 141.488C351.412 139.595 349.479 138.481 347.233 138.351V138.35ZM350.225 147.76C350.297 147.314 350.409 147.389 345.534 145.238C343.156 144.188 342.892 144.341 342.072 146.907C341.699 148.073 342.831 147.093 348.719 150.07C349.447 150.438 349.238 150.404 350.225 147.76L350.225 147.76Z" fill="#010614"/>
<path d="M344.443 154.566C345.452 154.674 345.417 156.066 344.373 156.007C343.519 155.957 343.457 154.678 344.443 154.566Z" fill="#010614"/>
<path d="M341.749 152.247C342.609 152.401 342.424 153.468 341.708 153.425C340.992 153.382 340.919 152.353 341.749 152.247Z" fill="#010614"/>
<path d="M346.311 151.934C346.23 152.649 345.261 152.554 345.248 151.933C345.233 151.189 346.256 151.166 346.311 151.934Z" fill="#010614"/>
<path d="M347.355 141.968C347.235 143.005 345.906 142.871 345.948 142.062C345.99 141.252 347.302 141.14 347.355 141.968Z" fill="#010614"/>
<path d="M349.473 140.647C349.473 141.467 348.349 141.462 348.348 140.702C348.346 139.972 349.419 139.949 349.473 140.647Z" fill="#010614"/>
<path d="M350.652 143.284C350.623 144.057 349.581 144.081 349.573 143.312C349.567 142.667 350.501 142.607 350.652 143.284Z" fill="#010614"/>
<path d="M27.1247 -7.71412C25.6874 -11.2875 24.4612 -14.7548 24.4739 -16.1995C25.1853 -17.457 27.9809 -19.8466 31.0123 -22.2226L31.9868 -25.7444C32.7355 -28.4517 33.4699 -31.1074 34.2004 -33.6923C33.9517 -33.5092 33.7026 -33.3265 33.4533 -33.1443L33.5116 -33.3433C27.6741 -29.5572 20.7828 -24.2006 15.9191 -19.2713C15.7877 -19.138 15.7253 -18.8896 15.7223 -18.5445C15.5523 -18.244 15.4821 -17.9978 15.5294 -17.8166C17.2767 -11.1159 20.5665 -3.0313 23.7288 3.16638L23.7779 2.96485C23.9027 3.24734 24.027 3.53006 24.1508 3.813C24.1705 3.73544 24.1902 3.65783 24.2099 3.58016C24.8519 1.05018 25.5235 -1.53894 26.2078 -4.17692L27.1247 -7.71412Z" fill="#0705CB"/>
<path fill-rule="evenodd" clip-rule="evenodd" d="M119.654 6.85208C118.805 7.42783 118.054 8.04577 117.386 8.69634C117.64 9.59381 117.98 10.5041 118.428 11.4273C119.127 12.8704 120.199 13.7888 121.383 14.2031C121.072 14.4356 120.762 14.683 120.457 14.9465C113.537 20.9229 107.984 31.327 107.091 44.4361L107.199 44.4136C107.063 46.3791 107.033 48.4042 107.118 50.4854C107.141 51.0752 107.258 51.5143 107.341 51.8281L107.343 51.8348C107.469 52.3125 107.517 52.4929 107.033 52.4604C106.623 52.4332 106.014 52.3303 105.232 52.154C96.6812 50.2652 66.4877 39.2455 51.0514 22.0547L51.0518 22.0533C51.0346 22.0346 50.9801 21.9836 50.8911 21.9011C50.8756 21.8868 50.8602 21.8723 50.8451 21.8576L50.883 21.8056C50.0107 20.9376 49.1593 20.0487 48.3296 19.1396C51.8605 12.4774 56.3601 2.81189 60.0006 -6.68013C61.5938 -16.7207 62.5298 -27.3411 62.8031 -34.8762C63.9762 -35.2486 65.1579 -35.5928 66.3474 -35.9083L66.3405 -35.9723C66.361 -35.9775 66.3816 -35.9824 66.4022 -35.987C66.5205 -36.0139 66.5932 -36.0308 66.6174 -36.0385L66.6178 -36.0398C88.5811 -43.2092 120.239 -37.6561 128.589 -35.0164C129.354 -34.7782 129.933 -34.5626 130.302 -34.3809C130.738 -34.1671 130.606 -34.0349 130.257 -33.6846L130.252 -33.6796C130.024 -33.4494 129.703 -33.1273 129.388 -32.6284C128.274 -30.8685 127.287 -29.0996 126.423 -27.3293L126.34 -27.4029C120.559 -15.6038 120.166 -3.81682 123.171 4.81886C123.303 5.19971 123.448 5.56892 123.601 5.92539C122.369 5.69259 120.981 5.95202 119.654 6.85208ZM75.4829 8.53175C75.745 7.60971 76.0391 6.57497 76.3652 5.41113L76.3655 5.4127C76.5693 4.68535 76.4091 4.42636 75.6826 4.25843C74.3383 3.94797 70.8199 2.98664 70.8247 2.96863C69.9066 2.72263 69.1104 2.52192 68.4251 2.34943L68.4236 2.34904C66.0763 1.7581 65.0245 1.49329 64.7735 0.833966C64.7936 -0.0192746 65.2319 -1.6639 66.135 -5.03642C67.0391 -8.40868 67.4819 -10.0521 67.8911 -10.8011C68.4381 -11.2466 69.4814 -10.95 71.8097 -10.2881L71.8112 -10.2877C72.491 -10.0944 73.2808 -9.87014 74.1989 -9.62414C74.2038 -9.64216 77.7315 -8.71547 79.0509 -8.31217C79.7641 -8.09436 80.0322 -8.23859 80.2194 -8.97038L80.2184 -8.96918C80.5182 -10.1411 80.781 -11.1851 81.0152 -12.1153L81.0155 -12.1167L81.0453 -12.2348C82.8054 -19.2291 82.9081 -19.6375 84.6277 -19.1582C86.492 -18.6391 88.0446 -18.218 89.335 -17.868L89.5768 -17.8024C93.8213 -16.6532 95.1211 -16.3009 95.3996 -15.744C95.3768 -15.6469 95.3483 -15.5413 95.317 -15.4254L95.3165 -15.4235C94.7677 -13.3743 94.203 -11.3295 93.6224 -9.28914L93.6221 -9.28806C92.7102 -6.06408 92.4585 -5.17442 92.783 -4.82984C92.907 -4.69858 93.1143 -4.64601 93.4009 -4.57442L93.4292 -4.56683C94.8836 -4.2003 96.3322 -3.81208 97.7813 -3.42371L98.0302 -3.35702C99.6486 -2.92263 101.267 -2.48894 102.893 -2.08158C102.946 -2.06813 102.998 -2.05442 103.047 -2.04009C103.255 -1.95898 103.439 -1.8669 103.589 -1.75625C104.049 -1.2765 103.829 -0.132033 102.889 3.41561L102.541 4.71852L102.191 6.02088C101.232 9.56348 100.849 10.6643 100.211 10.8497C100.026 10.8705 99.8203 10.8583 99.5996 10.8245C99.55 10.8124 99.4987 10.7986 99.4456 10.7835C97.8341 10.3235 96.2155 9.88977 94.5968 9.45678L94.3485 9.39027C92.8991 9.00198 91.4503 8.61384 90.0073 8.20401L89.979 8.19642C89.695 8.11512 89.4892 8.057 89.3161 8.10866C88.8628 8.24486 88.636 9.14105 87.8138 12.3891L87.8135 12.3903C87.296 14.4475 86.7627 16.5008 86.2134 18.5498L86.2129 18.5517C86.182 18.6677 86.1539 18.7734 86.1251 18.869C85.6054 19.2119 84.3036 18.8671 80.0532 17.7401L79.8102 17.6758C78.5179 17.3338 76.963 16.9223 75.0893 16.4398C73.3604 15.9951 73.4756 15.59 75.4485 8.65274L75.4829 8.53175Z" fill="#0705CB"/>
<path d="M138.467 -17.3184C138.511 -17.2852 138.555 -17.2519 138.599 -17.2186C139.941 -25.4284 143.097 -34.128 148.494 -42.649C148.919 -43.3207 149.35 -43.7539 149.657 -44.0615L149.658 -44.0625C150.125 -44.5326 150.302 -44.7101 149.719 -44.997C148.934 -45.3832 147.442 -45.8842 145.369 -46.4399C131.741 -50.1224 92.2497 -56.2881 64.3878 -47.2148C64.3576 -47.2049 64.272 -47.1853 64.1334 -47.1536L64.1022 -47.1465L64.0875 -47.1431C63.8573 -47.0902 63.5027 -47.0086 63.0314 -46.8913C64.0996 -44.7382 64.9446 -42.5752 65.5356 -40.3183C78.5432 -44.4898 94.5194 -44.7382 108.084 -43.6079L108.113 -43.5827C118.971 -42.6839 128.292 -40.8993 133.325 -39.5314C134.906 -39.0981 136.05 -38.7079 136.669 -38.403C137.157 -38.1625 137.009 -38.0138 136.618 -37.6201L136.615 -37.6171C136.358 -37.3592 135.997 -36.9961 135.642 -36.4349C126.052 -21.3004 124.9 -5.48748 128.775 5.65449C129.288 7.12924 129.969 8.45447 130.579 9.56182L132.004 12.5364L129.244 14.543C128.162 15.1969 126.91 16.0042 125.728 17.0251C116.802 24.7368 109.893 39.0071 110.63 56.9088C110.658 57.5727 110.789 58.0676 110.882 58.4192L110.883 58.4214L110.883 58.4233C111.025 58.9598 111.079 59.1625 110.536 59.1268C109.848 59.0816 108.664 58.8479 107.082 58.4337C102.04 57.1028 93.0722 53.987 83.2162 49.3348L83.1779 49.3419C70.8658 43.5385 57.1541 35.3353 47.975 25.2188C46.3347 26.8779 44.5214 28.3287 42.5197 29.6592C42.8687 29.9958 43.1347 30.2435 43.3075 30.4044L43.3428 30.4372C43.4469 30.5339 43.5115 30.5938 43.5327 30.6175C63.1255 52.4066 100.41 66.8127 114.052 70.4371C116.125 70.9922 117.668 71.3045 118.54 71.3623C119.189 71.4054 119.125 71.1634 118.955 70.5225L118.954 70.5212C118.843 70.1014 118.686 69.5105 118.653 68.7162C118.24 58.6386 119.857 49.5265 122.799 41.7455C122.745 41.7525 122.69 41.7595 122.636 41.7663C125.928 33.0284 130.889 25.9652 136.528 21.0951C137.136 20.5701 137.759 20.0924 138.376 19.6563L138.402 19.7204C138.837 19.3868 139.275 19.0659 139.716 18.7581C140.415 18.3124 141.08 17.9186 141.673 17.5673C142.282 17.207 142.815 16.8913 143.232 16.61C143.448 16.4966 143.664 16.3862 143.88 16.2789C144.039 16.2002 144.105 16.0566 144.097 15.8534C144.206 15.6816 144.22 15.5242 144.122 15.3765C143.988 15.1754 143.856 14.9718 143.726 14.7658C143.506 14.3137 143.202 13.7736 142.855 13.1571C142.516 12.5562 142.137 11.8827 141.755 11.1473C141.527 10.6603 141.308 10.1635 141.099 9.65721L141.044 9.69928C140.728 9.01358 140.427 8.28815 140.163 7.52955C137.715 0.492594 136.949 -8.10525 138.467 -17.3184Z" fill="#0705CB"/>
<path d="M119.654 6.85208C118.805 7.42783 118.054 8.04577 117.386 8.69634C117.64 9.59381 117.98 10.5041 118.428 11.4273C119.127 12.8704 120.199 13.7888 121.383 14.2031L126.143 10.9658L123.601 5.92539C122.369 5.69259 120.981 5.95202 119.654 6.85208Z" fill="#0705CB"/>
<path d="M65.5356 -40.3183C64.9446 -42.5752 64.0996 -44.7382 63.0314 -46.8913L34.2004 -33.6923C33.4699 -31.1074 32.7355 -28.4517 31.9868 -25.7444L31.0123 -22.2226L65.5356 -40.3183Z" fill="#0705CB"/>
<path d="M42.5197 29.6592C44.5214 28.3287 46.3347 26.8779 47.975 25.2188L27.1247 -7.71412L26.2078 -4.17692C25.5235 -1.53894 24.8519 1.05018 24.2099 3.58016L42.5197 29.6592Z" fill="#0705CB"/>
<path d="M48.3296 19.1396C51.8605 12.4774 56.3601 2.81189 60.0006 -6.68013C61.5938 -16.7207 62.5298 -27.3411 62.8031 -34.8762L29.1756 -14.9397L48.3296 19.1396Z" fill="#0705CB"/>
<path d="M512.984 253.844C510.092 256.388 507.229 258.697 505.862 259.165C504.44 258.913 501.257 257.07 498.008 255.001L494.363 255.253C491.56 255.447 488.812 255.637 486.131 255.808C486.386 255.982 486.641 256.156 486.896 256.33L486.689 256.341C492.201 260.588 499.544 265.307 505.809 268.255C505.979 268.335 506.234 268.311 506.56 268.199C506.9 268.259 507.156 268.244 507.311 268.139C513.05 264.263 519.581 258.473 524.374 253.43L524.168 253.451C524.393 253.239 524.618 253.028 524.844 252.817C524.764 252.824 524.685 252.831 524.605 252.839C522.005 253.074 519.34 253.302 516.625 253.533L512.984 253.844Z" fill="#0705CB"/>
<path fill-rule="evenodd" clip-rule="evenodd" d="M495.96 161.736C496.785 162.345 497.617 162.847 498.453 163.261C499.215 162.724 499.96 162.1 500.682 161.371C501.811 160.231 502.32 158.915 502.318 157.662C502.64 157.877 502.977 158.087 503.327 158.287C511.264 162.827 522.922 164.605 535.582 161.089L535.525 160.994C537.424 160.47 539.344 159.825 541.279 159.053C541.827 158.834 542.202 158.579 542.471 158.396L542.477 158.392C542.885 158.114 543.039 158.009 543.169 158.476C543.28 158.872 543.386 159.481 543.479 160.276C544.541 168.969 544.186 201.108 533.105 221.382L533.103 221.382C533.091 221.404 533.061 221.473 533.013 221.584C533.005 221.603 532.996 221.623 532.987 221.642L532.926 221.623C532.397 222.735 531.842 223.833 531.26 224.918C523.803 223.803 513.192 222.773 503.029 222.495C493.03 224.33 482.703 226.978 475.505 229.226C474.764 228.243 474.047 227.243 473.354 226.226L473.295 226.254C473.284 226.236 473.272 226.218 473.261 226.201C473.196 226.098 473.156 226.035 473.141 226.015L473.14 226.015C459.076 207.684 453.789 175.981 453.502 167.228C453.472 166.428 453.483 165.81 453.532 165.401C453.589 164.92 453.757 165 454.203 165.212L454.21 165.215C454.503 165.354 454.913 165.549 455.489 165.681C457.519 166.147 459.515 166.489 461.472 166.716L461.43 166.818C474.48 168.348 485.727 164.8 492.873 159.095C493.188 158.843 493.488 158.584 493.773 158.322C493.963 159.561 494.669 160.783 495.96 161.736ZM512.229 202.836C511.272 202.895 510.198 202.962 508.992 203.041L508.994 203.04C508.24 203.09 508.049 203.327 508.132 204.068C508.286 205.439 508.549 209.077 508.531 209.079C508.604 210.026 508.679 210.844 508.744 211.548L508.744 211.549C508.968 213.959 509.067 215.039 508.529 215.495C507.718 215.76 506.021 215.893 502.54 216.163C499.059 216.431 497.362 216.56 496.519 216.423C495.917 216.055 495.85 214.973 495.7 212.557L495.7 212.555C495.657 211.85 495.606 211.03 495.532 210.083C495.514 210.084 495.215 206.449 495.157 205.071C495.125 204.326 494.9 204.121 494.147 204.187L494.149 204.188C492.944 204.295 491.872 204.394 490.917 204.482L490.915 204.483L490.794 204.494C483.612 205.159 483.193 205.198 483.073 203.417C482.943 201.486 482.824 199.882 482.725 198.548L482.707 198.299C482.38 193.913 482.28 192.571 482.712 192.123C482.811 192.112 482.921 192.104 483.04 192.095L483.042 192.094C485.157 191.931 487.273 191.784 489.391 191.653L489.392 191.653C492.736 191.441 493.658 191.383 493.876 190.962C493.958 190.801 493.939 190.588 493.911 190.294L493.909 190.265C493.771 188.772 493.655 187.276 493.54 185.78L493.52 185.524C493.392 183.853 493.263 182.182 493.106 180.514C493.101 180.459 493.097 180.406 493.094 180.355C493.102 180.131 493.127 179.927 493.182 179.749C493.481 179.156 494.634 178.982 498.292 178.69L499.637 178.585L500.981 178.482C504.641 178.209 505.807 178.203 506.194 178.744C506.275 178.912 506.332 179.109 506.373 179.329C506.378 179.379 506.382 179.432 506.386 179.488C506.488 181.16 506.617 182.831 506.746 184.502L506.766 184.758C506.882 186.254 506.998 187.749 507.091 189.247L507.093 189.276C507.111 189.571 507.124 189.784 507.231 189.93C507.51 190.312 508.43 190.228 511.767 189.924L511.768 189.924C513.881 189.728 515.994 189.548 518.109 189.385L518.111 189.385C518.231 189.376 518.34 189.367 518.44 189.362C518.936 189.738 519.044 191.081 519.394 195.464L519.414 195.715C519.521 197.047 519.65 198.65 519.818 200.578C519.973 202.356 519.553 202.382 512.354 202.828L512.229 202.836Z" fill="#0705CB"/>
<path d="M466.909 152.028C466.926 151.976 466.943 151.923 466.96 151.871C458.771 153.334 449.517 153.25 439.686 150.994C438.911 150.816 438.359 150.553 437.967 150.366L437.966 150.365C437.367 150.081 437.141 149.973 437.064 150.619C436.961 151.487 436.985 153.061 437.15 155.201C438.207 169.278 445.522 208.573 463.342 231.833C463.361 231.858 463.408 231.933 463.484 232.053L463.501 232.08L463.509 232.093C463.636 232.292 463.83 232.599 464.098 233.005C465.773 231.282 467.532 229.766 469.464 228.458C461.206 217.577 455.66 202.592 452.216 189.424L452.23 189.387C449.468 178.848 448.052 169.464 447.669 164.262C447.552 162.628 447.54 161.419 447.622 160.734C447.686 160.194 447.876 160.284 448.377 160.522L448.381 160.524C448.71 160.68 449.172 160.899 449.82 161.048C467.281 165.061 482.578 160.89 491.798 153.531C493.018 152.558 494.042 151.475 494.883 150.531L497.214 148.198L500.025 150.134C501.001 150.937 502.179 151.85 503.534 152.625C513.775 158.48 529.531 160.252 546.169 153.604C546.786 153.358 547.209 153.07 547.51 152.865L547.512 152.864L547.513 152.863C547.972 152.55 548.145 152.432 548.292 152.956C548.478 153.62 548.651 154.814 548.787 156.444C549.208 161.642 549.251 171.135 548.14 181.977L548.159 182.011C546.779 195.552 543.601 211.211 537.112 223.231C539.222 224.227 541.193 225.455 543.113 226.9C543.315 226.459 543.46 226.126 543.554 225.909L543.573 225.865C543.63 225.735 543.665 225.654 543.68 225.626C557.716 199.904 558.907 159.951 557.79 145.879C557.624 143.74 557.406 142.181 557.17 141.339C556.996 140.713 556.789 140.854 556.241 141.227L556.24 141.228C555.881 141.473 555.376 141.818 554.637 142.112C545.27 145.852 536.139 147.357 527.822 147.169C527.847 147.218 527.872 147.267 527.896 147.316C518.561 147.116 510.25 144.785 503.782 141.086C503.085 140.688 502.427 140.258 501.811 139.822L501.863 139.776C501.404 139.477 500.955 139.17 500.519 138.857C499.866 138.346 499.273 137.85 498.745 137.407C498.203 136.952 497.728 136.554 497.324 136.255C497.145 136.089 496.969 135.922 496.796 135.753C496.669 135.63 496.511 135.615 496.323 135.691C496.124 135.645 495.971 135.684 495.864 135.825C495.719 136.018 495.571 136.211 495.42 136.402C495.067 136.76 494.659 137.226 494.193 137.759C493.738 138.277 493.229 138.859 492.663 139.464C492.279 139.841 491.883 140.212 491.476 140.578L491.534 140.616C490.992 141.142 490.408 141.667 489.78 142.168C483.957 146.816 476.103 150.397 466.909 152.028Z" fill="#0705CB"/>
<path d="M495.96 161.736C496.785 162.345 497.617 162.847 498.453 163.261C499.215 162.724 499.96 162.1 500.682 161.371C501.811 160.231 502.32 158.915 502.318 157.662L497.682 154.248L493.773 158.322C493.963 159.561 494.669 160.783 495.96 161.736Z" fill="#0705CB"/>
<path d="M469.464 228.458C467.532 229.766 465.773 231.282 464.098 233.005L486.131 255.808C488.812 255.637 491.56 255.447 494.363 255.253L498.008 255.001L469.464 228.458Z" fill="#0705CB"/>
<path d="M543.113 226.9C541.193 225.455 539.222 224.227 537.112 223.231L512.984 253.844L516.625 253.533C519.34 253.302 522.005 253.074 524.605 252.839L543.113 226.9Z" fill="#0705CB"/>
<path d="M531.26 224.918C523.803 223.803 513.192 222.773 503.029 222.495C493.03 224.33 482.703 226.978 475.505 229.226L505.487 254.312L531.26 224.918Z" fill="#0705CB"/>
<path d="M193.781 232.458C193.343 234.799 192.83 237.016 192.344 237.765C191.555 238.184 189.302 238.502 186.932 238.734L185.253 240.247C183.963 241.41 182.697 242.551 181.457 243.657C181.648 243.644 181.838 243.631 182.029 243.619L181.932 243.703C186.235 243.669 191.61 243.165 195.785 242.21C195.898 242.184 196.013 242.075 196.129 241.896C196.318 241.796 196.436 241.691 196.472 241.581C197.787 237.505 198.758 232.195 199.168 227.911L199.076 228C199.105 227.811 199.134 227.623 199.163 227.434C199.127 227.468 199.091 227.502 199.055 227.536C197.879 228.642 196.669 229.769 195.435 230.918L193.781 232.458Z" fill="#0705CB"/>
<path fill-rule="evenodd" clip-rule="evenodd" d="M150.359 194.11C150.994 194.092 151.59 194.019 152.155 193.901C152.321 193.349 152.446 192.761 152.519 192.131C152.634 191.146 152.38 190.31 151.901 189.701C152.14 189.683 152.384 189.657 152.63 189.621C158.226 188.803 164.58 185.222 169.402 178.681L169.339 178.657C170.063 177.677 170.752 176.631 171.399 175.517C171.583 175.201 171.668 174.934 171.729 174.743L171.73 174.738C171.823 174.447 171.858 174.337 172.099 174.515C172.304 174.666 172.588 174.922 172.937 175.273C176.769 179.1 188.856 194.882 191.194 208.979L191.194 208.98C191.196 208.995 191.208 209.04 191.227 209.112C191.23 209.125 191.233 209.138 191.236 209.15L191.199 209.165C191.366 209.908 191.515 210.654 191.645 211.404C187.589 213.706 182.03 217.252 176.977 220.993C172.809 225.701 168.791 230.929 166.145 234.768C165.409 234.573 164.678 234.36 163.953 234.129L163.935 234.165C163.923 234.16 163.91 234.156 163.898 234.152C163.827 234.126 163.784 234.111 163.769 234.107L163.768 234.108C149.93 230.548 135.263 217.131 131.785 212.979C131.464 212.6 131.234 212.295 131.102 212.078C130.946 211.822 131.059 211.796 131.357 211.729L131.361 211.729C131.557 211.685 131.831 211.623 132.161 211.468C133.327 210.92 134.43 210.325 135.469 209.689L135.488 209.755C142.425 205.522 146.546 199.504 147.849 194.001C147.907 193.759 147.954 193.518 147.993 193.281C148.558 193.812 149.368 194.138 150.359 194.11ZM173.957 207.913C173.514 208.307 173.016 208.749 172.46 209.248L172.46 209.247C172.112 209.558 172.109 209.747 172.432 210.076C173.03 210.684 174.546 212.355 174.538 212.363C174.935 212.796 175.283 213.166 175.584 213.483L175.584 213.484C176.612 214.572 177.073 215.06 176.985 215.487C176.69 215.926 175.915 216.638 174.323 218.097C172.731 219.555 171.954 220.265 171.492 220.52C171.058 220.571 170.613 220.069 169.618 218.95L169.618 218.949C169.327 218.623 168.99 218.243 168.593 217.81C168.584 217.818 167.052 216.162 166.498 215.513C166.198 215.162 166.011 215.149 165.67 215.468L165.671 215.468C165.125 215.979 164.641 216.437 164.21 216.844L164.209 216.845L164.154 216.896C160.912 219.96 160.722 220.138 159.985 219.317C159.185 218.427 158.515 217.691 157.958 217.08L157.854 216.965C156.022 214.955 155.461 214.339 155.501 213.956C155.545 213.913 155.595 213.868 155.65 213.818L155.651 213.817C156.618 212.93 157.592 212.051 158.573 211.18L158.573 211.18C160.12 209.801 160.547 209.421 160.493 209.133C160.472 209.023 160.381 208.927 160.255 208.794L160.243 208.781C159.606 208.107 158.98 207.423 158.353 206.739L158.245 206.621C157.545 205.857 156.845 205.092 156.133 204.34C156.109 204.315 156.087 204.291 156.066 204.267C155.985 204.156 155.919 204.046 155.878 203.939C155.797 203.536 156.292 203.012 157.962 201.474L158.576 200.91L159.192 200.347C160.869 198.818 161.435 198.371 161.829 198.486C161.933 198.537 162.036 198.611 162.14 198.702C162.162 198.725 162.184 198.749 162.206 198.775C162.894 199.551 163.594 200.315 164.295 201.078L164.402 201.196C165.029 201.88 165.656 202.564 166.272 203.257L166.284 203.271C166.405 203.407 166.493 203.506 166.601 203.537C166.883 203.616 167.299 203.224 168.807 201.803L168.808 201.803C169.761 200.902 170.722 200.008 171.689 199.122L171.69 199.121C171.745 199.071 171.795 199.025 171.841 198.985C172.226 198.978 172.791 199.591 174.633 201.591L174.739 201.706C175.299 202.313 175.973 203.045 176.79 203.919C177.544 204.726 177.35 204.899 174.015 207.861L173.957 207.913Z" fill="#0705CB"/>
<path d="M132.514 200.464C132.502 200.433 132.49 200.401 132.478 200.369C129.05 204.205 124.512 207.694 118.866 210.345C118.421 210.554 118.052 210.636 117.79 210.695L117.789 210.695C117.389 210.785 117.238 210.819 117.446 211.162C117.727 211.625 118.339 212.382 119.236 213.361C125.12 219.81 143.669 236.151 161.217 240.677C161.237 240.682 161.288 240.701 161.37 240.73L161.389 240.737L161.398 240.74C161.536 240.789 161.748 240.864 162.032 240.96C162.191 239.482 162.469 238.072 162.911 236.699C154.74 234.552 146.324 229.372 139.625 224.275L139.617 224.251C134.253 220.174 129.984 216.146 127.813 213.76C127.133 213.008 126.666 212.425 126.445 212.06C126.27 211.772 126.396 211.744 126.731 211.668L126.734 211.668C126.953 211.619 127.262 211.549 127.634 211.375C137.666 206.668 143.522 198.802 145.204 191.703C145.426 190.763 145.512 189.846 145.561 189.066L145.806 187.04L147.913 186.911C148.695 186.93 149.616 186.925 150.572 186.785C157.791 185.729 166.137 180.582 171.701 170.999C171.908 170.644 172.004 170.342 172.072 170.128L172.073 170.126L172.073 170.125C172.177 169.798 172.217 169.675 172.488 169.874C172.831 170.126 173.371 170.641 174.059 171.383C176.247 173.753 179.889 178.358 183.483 184.06L183.506 184.069C187.999 191.188 192.425 200.024 193.85 208.351C195.257 208.031 196.685 207.877 198.172 207.848C198.101 207.556 198.045 207.339 198.008 207.197L198.001 207.169C197.979 207.084 197.965 207.031 197.962 207.011C194.984 189.135 180.324 169.23 174.412 162.806C173.516 161.827 172.815 161.152 172.379 160.832C172.055 160.594 172.008 160.741 171.884 161.132L171.884 161.133C171.802 161.389 171.688 161.749 171.441 162.174C168.307 167.568 164.436 171.783 160.315 174.864C160.346 174.879 160.376 174.893 160.407 174.908C155.786 178.371 150.851 180.406 146.291 181.073C145.8 181.145 145.316 181.187 144.849 181.209L144.857 181.167C144.519 181.196 144.184 181.218 143.852 181.232C143.339 181.233 142.862 181.217 142.435 181.203C141.998 181.189 141.615 181.176 141.304 181.184C141.154 181.172 141.004 181.157 140.856 181.141C140.747 181.13 140.665 181.183 140.601 181.291C140.488 181.345 140.428 181.422 140.43 181.532C140.433 181.681 140.434 181.831 140.433 181.982C140.398 182.291 140.377 182.674 140.353 183.111C140.33 183.536 140.304 184.014 140.259 184.524C140.216 184.854 140.165 185.186 140.106 185.52L140.149 185.516C140.085 185.979 140.001 186.457 139.887 186.94C138.825 191.424 136.367 196.163 132.514 200.464Z" fill="#0705CB"/>
<path d="M150.359 194.11C150.994 194.092 151.59 194.019 152.155 193.901C152.321 193.349 152.446 192.761 152.519 192.131C152.634 191.146 152.38 190.31 151.901 189.701L148.342 189.807L147.993 193.281C148.558 193.812 149.368 194.138 150.359 194.11Z" fill="#0705CB"/>
<path d="M162.911 236.699C162.469 238.072 162.191 239.482 162.032 240.96L181.457 243.657C182.697 242.551 183.963 241.41 185.253 240.247L186.932 238.734L162.911 236.699Z" fill="#0705CB"/>
<path d="M198.172 207.848C196.685 207.877 195.257 208.031 193.85 208.351L193.781 232.458L195.435 230.918C196.669 229.769 197.879 228.642 199.055 227.536L198.172 207.848Z" fill="#0705CB"/>
<path d="M191.645 211.404C187.589 213.706 182.03 217.252 176.977 220.993C172.809 225.701 168.791 230.929 166.145 234.768L190.31 235.545L191.645 211.404Z" fill="#0705CB"/>
<path d="M505.516 -25.9918C507.483 -25.303 509.331 -24.566 509.915 -24.0459C510.173 -23.308 510.149 -21.318 510.036 -19.2369L511.122 -17.5847C511.957 -16.3148 512.776 -15.0691 513.568 -13.8502C513.582 -14.0167 513.597 -14.1832 513.612 -14.3497L513.672 -14.255C514.212 -17.9811 514.488 -22.696 514.215 -26.4332C514.208 -26.5343 514.129 -26.6482 513.989 -26.7725C513.928 -26.9487 513.852 -27.0651 513.762 -27.1105C510.411 -28.788 505.947 -30.3309 502.297 -31.2531L502.362 -31.1613C502.202 -31.2112 502.043 -31.2614 501.883 -31.3118C501.908 -31.2762 501.932 -31.2405 501.957 -31.2048C502.758 -30.0415 503.573 -28.8451 504.403 -27.6261L505.516 -25.9918Z" fill="#0705CB"/>
<path fill-rule="evenodd" clip-rule="evenodd" d="M466.599 6.4822C466.668 5.93124 466.683 5.40555 466.657 4.90165C466.201 4.68482 465.709 4.49901 465.174 4.35209C464.337 4.12235 463.581 4.23127 462.99 4.56522C463.006 4.35603 463.016 4.14167 463.018 3.92345C463.052 -1.0241 460.796 -6.99389 455.778 -12.0307L455.749 -11.9786C454.997 -12.7348 454.184 -13.4691 453.306 -14.1764C453.058 -14.377 452.837 -14.4862 452.68 -14.5642L452.677 -14.5659C452.437 -14.6846 452.346 -14.7294 452.532 -14.9148C452.69 -15.0722 452.949 -15.2835 453.299 -15.5389C457.116 -18.3464 472.366 -26.709 484.867 -26.8643L484.868 -26.8637C484.882 -26.864 484.922 -26.868 484.987 -26.8748C484.998 -26.876 485.01 -26.8771 485.021 -26.878L485.029 -26.8441C485.693 -26.8897 486.359 -26.9194 487.024 -26.9331C488.478 -23.1206 490.808 -17.8432 493.374 -12.9773C496.894 -8.74921 500.883 -4.582 503.853 -1.7845C503.587 -1.17418 503.306 -0.570422 503.01 0.0262682L503.038 0.046288C503.033 0.0564724 503.028 0.0665799 503.022 0.0766188C502.991 0.134385 502.972 0.169995 502.967 0.182579L502.967 0.183224C498.056 11.6799 484.509 22.5875 480.458 25.0456C480.088 25.2722 479.794 25.4311 479.588 25.5166C479.346 25.6176 479.339 25.5168 479.321 25.25L479.32 25.2463C479.308 25.0711 479.291 24.8259 479.201 24.5196C478.882 23.4386 478.513 22.4064 478.101 21.4233L478.16 21.416C475.418 14.856 470.76 10.4942 466.173 8.63865C465.971 8.55688 465.769 8.48415 465.569 8.41916C466.103 8.00069 466.492 7.3434 466.599 6.4822ZM481.662 -12.0978C481.944 -11.6624 482.261 -11.1737 482.618 -10.6261L482.618 -10.6265C482.841 -10.2843 483.003 -10.2571 483.331 -10.493C483.936 -10.9296 485.582 -12.0192 485.588 -12.0108C486.015 -12.2968 486.381 -12.5494 486.695 -12.7669L486.696 -12.7673C487.773 -13.5122 488.256 -13.846 488.614 -13.7131C488.954 -13.4007 489.467 -12.636 490.518 -11.0661C491.569 -9.49579 492.08 -8.72967 492.239 -8.29608C492.225 -7.91457 491.733 -7.59559 490.633 -6.88375L490.632 -6.88329C490.311 -6.67549 489.939 -6.43389 489.511 -6.14786C489.517 -6.13947 487.882 -5.03376 487.247 -4.64042C486.904 -4.42777 486.867 -4.26718 487.099 -3.9301L487.099 -3.93096C487.469 -3.3911 487.8 -2.91194 488.095 -2.48501L488.096 -2.48434L488.133 -2.43014C490.353 0.77983 490.483 0.967274 489.674 1.49641C488.798 2.07026 488.073 2.55217 487.471 2.95269L487.358 3.02774C485.377 4.34587 484.77 4.74941 484.444 4.6643C484.413 4.62034 484.38 4.57109 484.344 4.51707L484.343 4.51616C483.705 3.56223 483.074 2.60337 482.45 1.63965L482.45 1.63914C481.463 0.118549 481.19 -0.301061 480.934 -0.291824C480.837 -0.288131 480.741 -0.222485 480.61 -0.131338L480.597 -0.122513C479.929 0.338873 479.255 0.790157 478.58 1.24163L478.464 1.31916C477.71 1.82311 476.957 2.32738 476.211 2.84391C476.187 2.86093 476.163 2.87694 476.14 2.89178C476.032 2.94753 475.929 2.98956 475.831 3.01122C475.471 3.02748 475.084 2.53021 473.975 0.882627L473.569 0.276464L473.163 -0.33033C472.063 -1.98381 471.751 -2.53188 471.903 -2.85784C471.961 -2.94068 472.039 -3.0199 472.131 -3.0977C472.154 -3.11358 472.178 -3.12955 472.203 -3.14578C472.965 -3.63779 473.718 -4.14207 474.472 -4.64666L474.587 -4.724C475.262 -5.1756 475.937 -5.62702 476.618 -6.06834L476.631 -6.07716C476.765 -6.16379 476.862 -6.22685 476.903 -6.3157C477.009 -6.54878 476.725 -6.96063 475.696 -8.45327L475.696 -8.4538C475.043 -9.39785 474.397 -10.347 473.759 -11.301L473.758 -11.3019C473.722 -11.3558 473.689 -11.405 473.66 -11.4508C473.706 -11.7846 474.311 -12.1916 476.285 -13.5201L476.397 -13.5961C476.997 -14.0002 477.719 -14.4865 478.584 -15.0772C479.381 -15.6225 479.505 -15.4312 481.625 -12.1549L481.662 -12.0978Z" fill="#0705CB"/>
<path d="M469.731 22.7576C469.702 22.7636 469.673 22.7696 469.644 22.7755C472.508 26.2487 474.924 30.6348 476.469 35.8694C476.591 36.2819 476.613 36.612 476.629 36.8466L476.629 36.8473C476.654 37.2052 476.663 37.3403 476.988 37.2052C477.425 37.0235 478.161 36.5946 479.126 35.9488C485.483 31.7141 502.072 17.836 508.311 3.25933C508.318 3.24349 508.341 3.20167 508.377 3.13396L508.385 3.11873L508.389 3.11151C508.45 2.99895 508.543 2.82549 508.663 2.59184C507.406 2.25912 506.224 1.83194 505.095 1.26794C502.156 8.05025 496.561 14.6424 491.265 19.7613L491.244 19.7643C487.008 23.8638 482.958 27.0222 480.607 28.5833C479.867 29.0723 479.301 29.399 478.956 29.5421C478.684 29.655 478.676 29.5419 478.655 29.2422L478.655 29.24C478.642 29.0436 478.622 28.7673 478.521 28.4224C475.779 19.1231 469.752 13.0169 463.835 10.6223C463.052 10.3052 462.27 10.1098 461.601 9.96349L459.882 9.48339L460.049 7.64435C460.169 6.97071 460.287 6.17317 460.292 5.32835C460.336 -1.05484 456.989 -8.95474 449.439 -15.0364C449.159 -15.2619 448.911 -15.385 448.734 -15.4724L448.733 -15.473L448.732 -15.4734C448.463 -15.6069 448.362 -15.6573 448.57 -15.8656C448.833 -16.1293 449.35 -16.528 450.083 -17.0246C452.422 -18.6025 456.888 -21.1424 462.295 -23.496L462.306 -23.5141C469.058 -26.4573 477.285 -29.1146 484.676 -29.2447C484.585 -30.5039 484.641 -31.7592 484.813 -33.0484C484.552 -33.0263 484.356 -33.0064 484.229 -32.9934L484.203 -32.9907C484.127 -32.9828 484.079 -32.9779 484.062 -32.9777C468.207 -32.7697 449.051 -22.7277 442.712 -18.4662C441.747 -17.8203 441.07 -17.3037 440.735 -16.9691C440.487 -16.7205 440.608 -16.6603 440.929 -16.501L440.93 -16.5007C441.141 -16.3965 441.437 -16.2498 441.772 -15.9798C446.022 -12.5552 449.155 -8.64863 451.273 -4.67692C451.29 -4.70159 451.307 -4.72626 451.323 -4.75088C453.707 -0.295786 454.813 4.24213 454.786 8.27369C454.783 8.70831 454.755 9.13242 454.713 9.53868L454.677 9.52676C454.658 9.82263 454.632 10.1153 454.6 10.4045C454.533 10.8479 454.456 11.2589 454.387 11.6257C454.317 12.002 454.255 12.3317 454.221 12.6017C454.191 12.73 454.158 12.8572 454.125 12.9836C454.1 13.0763 454.135 13.1544 454.221 13.2235C454.252 13.329 454.311 13.3911 454.406 13.4037C454.536 13.4209 454.666 13.4398 454.796 13.4604C455.059 13.5318 455.387 13.6006 455.762 13.679C456.127 13.7556 456.536 13.8414 456.972 13.9479C457.251 14.0288 457.531 14.1168 457.812 14.212L457.815 14.1745C458.206 14.2905 458.609 14.4265 459.012 14.5895C462.749 16.1016 466.522 18.8552 469.731 22.7576Z" fill="#0705CB"/>
<path d="M466.599 6.4822C466.668 5.93124 466.683 5.40555 466.657 4.90165C466.201 4.68482 465.709 4.49901 465.174 4.35209C464.337 4.12235 463.581 4.23127 462.99 4.56522L462.611 7.65725L465.569 8.41916C466.103 8.00069 466.492 7.3434 466.599 6.4822Z" fill="#0705CB"/>
<path d="M505.095 1.26794C506.224 1.83194 507.406 2.25912 508.663 2.59184L513.568 -13.8502C512.776 -15.0691 511.957 -16.3148 511.122 -17.5847L510.036 -19.2369L505.095 1.26794Z" fill="#0705CB"/>
<path d="M484.813 -33.0484C484.641 -31.7592 484.585 -30.5039 484.676 -29.2447L505.516 -25.9918L504.403 -27.6261C503.573 -28.8451 502.758 -30.0415 501.957 -31.2048L484.813 -33.0484Z" fill="#0705CB"/>
<path d="M487.024 -26.9331C488.478 -23.1206 490.808 -17.8432 493.374 -12.9773C496.894 -8.74921 500.883 -4.582 503.853 -1.7845L507.726 -22.581L487.024 -26.9331Z" fill="#0705CB"/>
</svg>
