<svg width="260" height="260" viewBox="0 0 260 260" fill="none" xmlns="http://www.w3.org/2000/svg">
<path d="M157.56 114.512C158.678 114.751 160.29 115.089 160.16 115.792C160.094 116.476 159.168 116.336 157.875 116.26C157.085 116.211 156.743 116.141 156.341 116.09C156.215 116.075 156.094 116.034 155.985 115.968C155.877 115.902 155.784 115.814 155.712 115.709C155.641 115.604 155.593 115.485 155.572 115.359C155.551 115.234 155.557 115.106 155.59 114.984C156.215 112.282 157.074 109.64 158.157 107.087C158.287 106.843 159.369 104.747 160.098 105.121C160.983 105.624 159.278 107.89 157.56 114.512Z" fill="#180B02"/>
<path d="M165.387 105.501C167.516 104.7 168.959 107.081 169.706 106.501C170.343 106.064 169.488 103.818 166.701 103.535C163.996 103.262 162.715 105.639 163.451 106.155C163.841 106.434 163.848 106.216 165.387 105.501Z" fill="#180B02"/>
<path d="M156.936 120.529C157.054 121.615 157.35 122.674 157.812 123.664C158.104 124.221 158.523 124.701 159.036 125.066C159.549 125.43 160.14 125.669 160.762 125.762C161.384 125.855 162.019 125.8 162.616 125.602C163.213 125.403 163.755 125.067 164.197 124.62C164.9 123.809 165.413 122.851 165.698 121.816C165.983 120.781 166.033 119.696 165.844 118.64C162.822 119.08 159.9 119.842 156.936 120.529Z" fill="#0705CB"/>
<path d="M165.23 118.103C165.255 117.98 165.321 117.87 165.417 117.791C165.513 117.711 165.633 117.667 165.758 117.666C165.882 117.665 166.004 117.706 166.101 117.784C166.199 117.862 166.267 117.97 166.294 118.092C167.638 122.434 165.1 127.26 160.628 126.659C158.226 126.338 156.981 124.668 156.371 122.369C156.206 121.803 156.092 121.224 156.028 120.638C156.004 120.418 156.061 120.197 156.187 120.015C156.314 119.834 156.501 119.704 156.715 119.65C159.504 118.888 162.353 118.371 165.23 118.103ZM165.293 119.366C163.239 119.861 163.525 119.886 157.967 121.21C158.004 121.441 158.057 121.669 158.125 121.893C158.525 123.429 159.197 124.632 160.879 124.863C163.738 125.259 165.161 122.213 165.293 119.366Z" fill="#180B02"/>
<path d="M101.474 192.456C97.2737 191.181 92.3337 193.165 92.3337 197.526C92.245 197.582 92.1729 197.66 92.125 197.753C92.0772 197.846 92.0552 197.95 92.0616 198.054C92.068 198.158 92.1025 198.259 92.1614 198.345C92.2202 198.431 92.3013 198.5 92.3961 198.544C93.5596 199.294 94.955 199.597 96.3246 199.397C97.6941 199.198 98.9451 198.509 99.8464 197.459C100.774 196.332 101.513 195.063 102.037 193.7C102.088 193.583 102.115 193.455 102.114 193.326C102.113 193.198 102.085 193.07 102.032 192.953C101.979 192.836 101.902 192.731 101.806 192.645C101.71 192.56 101.597 192.495 101.474 192.456Z" fill="#0705CB"/>
<path d="M95.3779 203.224C95.3142 203.137 95.2287 203.068 95.1299 203.024C95.0311 202.98 94.9225 202.963 94.815 202.975C94.7421 202.943 94.6633 202.928 94.5839 202.93C94.5046 202.932 94.4265 202.951 94.3552 202.985C94.2838 203.02 94.2208 203.07 94.1705 203.131C94.1202 203.193 94.0837 203.264 94.0636 203.341C93.826 204.018 93.3314 204.574 92.6869 204.89C92.206 205.175 91.6368 205.273 91.0881 205.165C90.5395 205.057 90.0499 204.75 89.7129 204.304C89.376 203.858 89.2152 203.303 89.2614 202.746C89.3076 202.189 89.5576 201.668 89.9634 201.283C90.128 201.15 90.3062 201.035 90.4951 200.94C90.6619 200.853 90.7971 200.716 90.8813 200.548C90.9656 200.38 90.9947 200.19 90.9644 200.004C90.772 198.843 88.9689 199.248 87.8977 199.454C83.0344 200.463 80.1224 207.103 83.4205 211.414C84.1069 212.257 84.9733 212.935 85.956 213.399C86.9387 213.863 88.0129 214.101 89.0996 214.096C90.1864 214.091 91.2582 213.842 92.2364 213.369C93.2146 212.895 94.0744 212.209 94.7526 211.36C95.7544 210.27 96.3607 208.876 96.4741 207.4C96.5875 205.925 96.2014 204.454 95.3779 203.224Z" fill="#0705CB"/>
<path d="M116.628 81.2661C116.239 81.0779 115.905 80.7927 115.659 80.438C115.479 80.1765 115.378 79.8692 115.366 79.5522C115.355 79.2351 115.434 78.9215 115.595 78.6479C115.782 78.3293 116.036 78.0543 116.338 77.8413C116.64 77.6284 116.984 77.4823 117.347 77.4129C117.38 77.4129 117.38 77.4051 117.38 77.4051V77.4545C119.629 76.8264 121.985 76.6715 124.297 76.9995C124.634 77.0651 124.949 77.2163 125.211 77.4388C125.473 77.6612 125.674 77.9473 125.793 78.2695C125.913 78.5918 125.947 78.9393 125.893 79.2788C125.84 79.6183 125.7 79.9382 125.487 80.2079C125.829 80.6318 126.006 81.1649 125.987 81.7094C125.771 84.6084 121.297 84.9425 118.569 84.1456C118.253 84.0844 117.951 83.9613 117.682 83.7834C117.413 83.6054 117.182 83.3761 117.001 83.1086C116.821 82.8411 116.695 82.5407 116.631 82.2245C116.567 81.9083 116.566 81.5826 116.628 81.2661ZM117.598 78.5231C117.598 78.6947 117.61 78.3788 117.004 78.9898C116.502 79.6177 117.42 79.8829 118.225 79.8894C118.414 79.8986 118.594 79.9684 118.741 80.0885C118.887 80.2085 118.99 80.3724 119.036 80.5559C119.081 80.7394 119.067 80.9327 118.994 81.1072C118.921 81.2817 118.794 81.4281 118.632 81.5248C118.412 81.647 118.256 81.7406 118.318 81.8823C118.727 82.9951 124.005 83.0419 124.168 81.6223C124.168 81.3948 123.98 81.2063 123.698 81.0867C123.532 81.0173 123.391 80.9007 123.292 80.7514C123.193 80.6021 123.14 80.4268 123.14 80.2475C123.14 80.0682 123.193 79.8929 123.292 79.7437C123.391 79.5944 123.532 79.4777 123.698 79.4084C123.917 79.3161 124.106 79.1484 124.106 78.9612C124.11 78.3112 118.412 78.501 117.598 78.5205V78.5231Z" fill="#180B02"/>
<path d="M118.967 86.7165C119.084 86.884 119.221 87.0368 119.375 87.1715C120.45 87.6155 121.647 87.6648 122.755 87.3106C123.016 87.1961 123.258 87.0446 123.475 86.8608C123.553 86.8447 123.627 86.8132 123.692 86.768C123.758 86.7228 123.813 86.6649 123.855 86.5977C123.898 86.5306 123.926 86.4556 123.939 86.3772C123.952 86.2988 123.948 86.2187 123.929 86.1415C123.91 86.0644 123.876 85.992 123.828 85.9284C123.781 85.8649 123.721 85.8117 123.652 85.7719C123.583 85.7321 123.507 85.7066 123.428 85.6969C123.35 85.6872 123.27 85.6935 123.193 85.7155C122.92 85.6296 122.634 85.5922 122.348 85.605C121.676 85.7111 120.993 85.7364 120.314 85.6804C119.819 85.6024 119.703 85.7597 119.469 85.7597C119.338 85.6929 119.187 85.6794 119.047 85.7218C118.907 85.7642 118.789 85.8593 118.717 85.9872C118.654 86.117 118.645 86.2667 118.692 86.4034C118.738 86.5401 118.837 86.6527 118.967 86.7165Z" fill="#180B02"/>
<path d="M114.993 76.7249C113.558 75.5598 112.492 74.0031 111.925 72.2438C111.401 70.8001 111.208 69.2571 111.36 67.7289C111.491 66.4836 111.88 65.2792 112.502 64.1925C113.124 63.1059 113.965 62.1608 114.973 61.4177C115.981 60.6746 117.132 60.1497 118.354 59.8766C119.576 59.6034 120.842 59.5881 122.07 59.8314C124.08 60.3136 125.869 61.4568 127.151 63.0778C128.434 64.6988 129.134 66.7034 129.141 68.7702C129.056 70.4656 128.455 72.0946 127.418 73.4385C126.842 74.2626 126.17 75.0147 125.415 75.6784C125.303 75.7802 125.234 75.9215 125.224 76.0726C125.213 76.2237 125.261 76.3731 125.358 76.4895C125.455 76.6059 125.593 76.6803 125.744 76.6973C125.894 76.7143 126.046 76.6725 126.166 76.5806C128.695 74.5799 130.68 72.0527 130.893 68.8599C130.932 66.3641 130.114 63.9303 128.577 61.964C127.039 59.9976 124.874 58.6173 122.443 58.053C119.988 57.555 117.436 57.9279 115.226 59.1077C113.017 60.2874 111.287 62.2003 110.335 64.5173C109.383 66.8343 109.268 69.4106 110.01 71.8032C110.752 74.1958 112.304 76.2552 114.4 77.6271C114.519 77.6954 114.66 77.7156 114.794 77.6836C114.928 77.6515 115.045 77.5696 115.12 77.4546C115.196 77.3396 115.225 77.2001 115.201 77.0645C115.177 76.9289 115.103 76.8075 114.993 76.7249Z" fill="#180B02"/>
<path d="M120.063 67.9315L124.07 64.9142C124.215 64.8058 124.39 64.7435 124.571 64.7353C124.753 64.7271 124.933 64.7734 125.088 64.8682C125.242 64.963 125.365 65.1019 125.441 65.2672C125.516 65.4325 125.54 65.6165 125.51 65.7956C124.508 71.2751 125.405 67.0033 123.789 74.4783C123.779 74.5546 123.754 74.6282 123.716 74.6948C123.678 74.7614 123.626 74.8196 123.565 74.866C123.504 74.9124 123.434 74.946 123.359 74.965C123.284 74.9839 123.207 74.9877 123.131 74.9762C123.053 74.9687 122.977 74.945 122.908 74.9065C122.84 74.868 122.78 74.8157 122.733 74.7528C122.685 74.6899 122.652 74.6179 122.634 74.5413C122.616 74.4647 122.614 74.3852 122.629 74.308C122.75 72.103 122.991 69.9063 123.349 67.7274L120.69 69.7281C120.549 69.8396 120.379 69.9067 120.2 69.9208C120.022 69.9349 119.843 69.8954 119.687 69.8074C118.929 69.4005 118.184 68.9845 117.434 68.5685C118.145 72.7051 117.74 69.7177 118.529 75.1062C118.56 75.246 118.535 75.3925 118.459 75.514C118.383 75.6355 118.263 75.7225 118.123 75.7562C117.982 75.7868 117.834 75.7612 117.711 75.6847C117.589 75.6083 117.5 75.487 117.466 75.3467C116.442 72.6462 115.737 69.8351 115.367 66.9708C115.346 66.8044 115.373 66.6355 115.443 66.4834C115.514 66.3312 115.626 66.202 115.766 66.1103C115.906 66.0187 116.07 65.9684 116.237 65.9652C116.405 65.9619 116.57 66.0059 116.714 66.092C117.672 66.6575 118.546 67.1255 120.063 67.9315Z" fill="#0705CB"/>
<path d="M101.408 74.2678C102.504 74.1443 103.598 74.0338 104.694 73.8544C105.353 73.7426 106.668 73.428 106.604 72.7585C106.386 71.6275 102.991 72.2294 101.846 72.388C101.072 72.4907 98.5452 72.8261 98.7467 73.7699C98.8234 74.4901 100.692 74.3471 101.408 74.2678Z" fill="#0705CB"/>
<path d="M106.947 61.651C107.147 61.7706 108.143 62.028 108.45 61.5847C108.854 60.8879 107.824 60.0845 107.135 59.6607C104.725 58.1852 103.455 59.9857 106.947 61.651Z" fill="#0705CB"/>
<path d="M118.124 51.8883C118.254 52.7983 118.449 56.5423 119.563 56.4045C120.677 56.2667 120.015 52.2042 119.845 50.8678C119.75 50.1242 119.442 47.0653 118.436 47.2174C117.429 47.3695 117.979 50.8457 118.124 51.8883Z" fill="#0705CB"/>
<path d="M133.992 57.8783C134.642 57.3583 136.592 55.9049 135.932 55.1548C135.535 54.6244 134.444 55.3148 133.866 55.7022C132.792 56.4561 129.116 58.9937 129.954 59.9921C130.591 60.7461 133.107 58.5777 133.992 57.8783Z" fill="#0705CB"/>
<path d="M139.782 69.2905C140.66 69.1943 142.902 68.9668 142.819 68.0802C142.707 66.9323 138.472 67.5849 137.091 67.7643C136.406 67.8265 135.727 67.9359 135.057 68.0919C134.684 68.1972 133.204 68.6717 133.334 69.2762C133.536 70.2213 136.318 69.6935 139.782 69.2905Z" fill="#0705CB"/>
<path d="M151.895 204.871C152.117 204.18 152.378 203.503 152.675 202.842C153.187 201.31 154.146 199.967 155.43 198.987C156.046 198.619 156.734 198.388 157.447 198.311C158.16 198.233 158.881 198.31 159.562 198.536C159.704 198.608 159.87 198.621 160.022 198.572C160.174 198.523 160.302 198.417 160.377 198.276C160.443 198.133 160.451 197.97 160.398 197.822C160.345 197.673 160.236 197.552 160.095 197.483C155.74 194.305 150.287 199.813 150.829 204.781C150.818 204.923 150.862 205.063 150.954 205.171C151.045 205.28 151.176 205.347 151.318 205.359C151.459 205.371 151.599 205.326 151.708 205.235C151.816 205.143 151.884 205.012 151.895 204.871Z" fill="#180B02"/>
<path d="M157.593 207.956C157.774 207.402 158.38 205.992 158.437 205.862C158.805 204.599 159.432 203.426 160.279 202.419C161.125 201.412 162.172 200.592 163.352 200.012C163.92 199.753 164.52 199.574 165.136 199.477C165.292 199.482 165.444 199.424 165.557 199.316C165.67 199.209 165.736 199.06 165.741 198.904C165.745 198.748 165.687 198.597 165.579 198.483C165.472 198.37 165.323 198.304 165.167 198.3C164.184 198.137 163.175 198.23 162.237 198.57C161.3 198.91 160.466 199.485 159.815 200.241C158.772 201.204 157.942 202.375 157.376 203.677C156.81 204.979 156.522 206.385 156.529 207.805C156.515 207.877 156.517 207.95 156.532 208.021C156.548 208.092 156.578 208.159 156.62 208.218C156.663 208.277 156.717 208.327 156.779 208.365C156.841 208.403 156.91 208.427 156.982 208.437C157.054 208.448 157.128 208.443 157.198 208.424C157.268 208.405 157.334 208.372 157.391 208.327C157.448 208.282 157.495 208.226 157.53 208.162C157.565 208.099 157.586 208.028 157.593 207.956Z" fill="#180B02"/>
<path d="M163.602 208.725C163.726 208.483 164.28 207.616 164.382 207.46C165.246 205.872 166.379 204.445 167.733 203.246C168.889 202.385 170.269 201.875 171.708 201.778C171.863 201.801 172.021 201.763 172.149 201.673C172.277 201.582 172.366 201.446 172.396 201.292C172.412 201.137 172.37 200.981 172.277 200.856C172.185 200.73 172.048 200.644 171.895 200.615C171.391 200.452 170.865 200.365 170.335 200.355C167.56 200.283 163.101 203.932 162.573 208.391C162.551 208.458 162.542 208.529 162.547 208.6C162.553 208.671 162.572 208.739 162.604 208.803C162.636 208.866 162.68 208.922 162.734 208.968C162.788 209.014 162.85 209.049 162.917 209.071C163.054 209.114 163.202 209.101 163.33 209.037C163.458 208.972 163.556 208.861 163.602 208.725Z" fill="#180B02"/>
<path d="M170.083 211.834C171.017 210.361 172.085 208.978 173.275 207.702C173.949 206.949 174.789 206.364 175.73 205.994C176.67 205.623 177.684 205.477 178.691 205.568C181.405 205.602 186.847 207.016 192.432 205.048C194.457 204.369 196.233 203.102 197.534 201.408C197.626 201.283 197.668 201.128 197.65 200.974C197.633 200.82 197.557 200.678 197.439 200.577C197.381 200.528 197.313 200.491 197.24 200.468C197.168 200.445 197.091 200.438 197.015 200.445C196.939 200.453 196.865 200.476 196.798 200.512C196.731 200.549 196.673 200.599 196.625 200.659C194.922 202.243 192.807 203.316 190.522 203.754C180.538 206.035 174.563 199.022 169.143 211.322C169.11 211.383 169.089 211.451 169.081 211.521C169.074 211.591 169.08 211.662 169.1 211.729C169.12 211.796 169.153 211.859 169.197 211.914C169.241 211.969 169.296 212.014 169.357 212.048C169.419 212.081 169.487 212.103 169.557 212.11C169.626 212.117 169.697 212.111 169.765 212.091C169.832 212.071 169.895 212.038 169.949 211.994C170.004 211.95 170.05 211.896 170.083 211.834Z" fill="#180B02"/>
<path d="M169.268 185.758C170.373 186.328 171.412 187.016 172.367 187.811C172.998 188.201 173.797 188.876 174.308 188.397C174.727 187.95 173.853 186.852 173.745 186.718C172.838 185.772 171.767 184.998 170.584 184.434C169.823 184.097 168.409 183.819 168.205 184.434C168.09 184.791 168.203 185.017 169.268 185.758Z" fill="#180B02"/>
<path d="M174.777 182.65C176.837 185.034 177.608 187.513 178.534 187.081C179.863 186.524 177.364 182.774 176.217 181.593C175.584 180.943 174.299 180.095 173.87 180.614C173.517 181.044 174.384 182.26 174.777 182.65Z" fill="#180B02"/>
<path d="M167.798 169.32C170.268 169.71 170.207 169.532 175.122 169.175C177.075 169.223 179.027 169.055 180.944 168.674C181.089 168.65 181.221 168.572 181.312 168.456C181.403 168.339 181.447 168.193 181.435 168.046C181.423 167.898 181.357 167.761 181.248 167.661C181.14 167.56 180.998 167.504 180.85 167.504C178.908 167.277 176.95 167.23 175 167.366C172.565 167.399 170.141 167.693 167.769 168.245C167.627 168.251 167.493 168.311 167.394 168.414C167.294 168.516 167.238 168.652 167.236 168.795C167.238 168.866 167.254 168.937 167.283 169.002C167.312 169.067 167.354 169.126 167.407 169.175C167.459 169.224 167.521 169.262 167.588 169.287C167.655 169.312 167.726 169.323 167.798 169.32Z" fill="#180B02"/>
<path d="M146.294 217.19C146.292 219.523 146.491 221.851 146.888 224.149C147.268 225.385 147.256 225.922 147.889 225.873C148.044 225.858 148.187 225.783 148.287 225.664C148.386 225.545 148.435 225.391 148.422 225.236C148.562 223.408 148.682 225.029 148.234 220.183C148.026 217.94 148.039 215.102 147.138 215.076C146.51 215.058 146.294 216.831 146.294 217.19Z" fill="#180B02"/>
<path d="M165.82 112.034C166.016 112.046 166.214 112.005 166.402 111.913C166.59 111.82 166.764 111.678 166.915 111.494C167.066 111.311 167.191 111.09 167.282 110.843C167.373 110.597 167.429 110.33 167.446 110.058C167.463 109.786 167.442 109.514 167.382 109.258C167.323 109.002 167.228 108.767 167.101 108.566C166.974 108.365 166.819 108.202 166.645 108.086C166.47 107.97 166.279 107.905 166.083 107.892C165.884 107.874 165.684 107.911 165.492 108.001C165.301 108.091 165.124 108.232 164.969 108.416C164.815 108.6 164.688 108.822 164.595 109.071C164.502 109.32 164.445 109.59 164.428 109.866C164.41 110.141 164.433 110.416 164.493 110.675C164.554 110.933 164.652 111.171 164.782 111.372C164.912 111.574 165.07 111.736 165.248 111.85C165.427 111.963 165.621 112.027 165.82 112.034Z" fill="#180B02"/>
<path d="M153.764 166.774C153.764 167.02 153.806 167.264 153.888 167.491C153.971 167.719 154.091 167.925 154.243 168.1C154.396 168.274 154.576 168.412 154.775 168.506C154.974 168.6 155.187 168.649 155.402 168.649C155.617 168.649 155.83 168.6 156.029 168.506C156.227 168.412 156.408 168.274 156.56 168.1C156.712 167.925 156.833 167.719 156.915 167.491C156.997 167.264 157.04 167.02 157.04 166.774C157.04 166.528 156.997 166.284 156.915 166.057C156.833 165.829 156.712 165.623 156.56 165.448C156.408 165.274 156.227 165.136 156.029 165.042C155.83 164.948 155.617 164.899 155.402 164.899C155.187 164.899 154.974 164.948 154.775 165.042C154.576 165.136 154.396 165.274 154.243 165.448C154.091 165.623 153.971 165.829 153.888 166.057C153.806 166.284 153.764 166.528 153.764 166.774Z" fill="#180B02"/>
<path d="M152.292 182.536C152.292 183.033 152.465 183.51 152.772 183.861C153.079 184.213 153.496 184.41 153.93 184.41C154.364 184.41 154.781 184.213 155.088 183.861C155.395 183.51 155.568 183.033 155.568 182.536C155.568 182.039 155.395 181.562 155.088 181.21C154.781 180.859 154.364 180.661 153.93 180.661C153.496 180.661 153.079 180.859 152.772 181.21C152.465 181.562 152.292 182.039 152.292 182.536Z" fill="#180B02"/>
<path d="M114.805 175.37C110.884 168.636 108.348 158.455 99.4985 156.356C98.355 156.094 97.1677 156.086 96.021 156.334C94.2387 156.16 94.1048 156.074 83.4721 156.714C81.3167 156.854 79.4655 156.974 79.4655 157.663C79.4655 158.379 80.9813 158.421 82.5335 158.477C84.3873 158.538 90.1463 158.175 91.9741 158.057C86.9405 161.221 84.1741 166.794 78.0888 158.768C76.9986 157.239 76.0056 155.644 75.1157 153.99C75.0333 153.841 74.9097 153.719 74.7597 153.637C74.6097 153.556 74.4395 153.52 74.2694 153.533C61.3656 154.564 53.6332 156.263 38.5857 156.326C22.5385 156.39 22.4228 155.777 21.934 156.685C21.8545 156.827 21.8153 156.988 21.8208 157.151C21.8263 157.314 21.8763 157.472 21.9652 157.608C25.548 163.214 28.4743 166.491 36.4277 167.705C40.6969 168.355 45.7955 168.212 56.7753 167.731C57.9658 168.565 59.0207 169.576 59.9031 170.73C60.7444 172.031 61.3978 173.445 61.844 174.928C62.2236 176.125 62.3211 176.063 62.5941 176.861C62.6246 177.014 62.7142 177.148 62.8433 177.234C62.9724 177.321 63.1306 177.353 63.2831 177.323C63.4364 177.291 63.5712 177.201 63.6588 177.071C63.7465 176.941 63.7801 176.783 63.7524 176.629C63.7366 175.894 63.6531 175.163 63.5028 174.445C62.9219 171.776 61.4766 169.373 59.3909 167.609C60.3139 167.564 74.2382 166.699 80.2793 166.303C80.3588 166.302 80.4373 166.285 80.51 166.252C80.5827 166.22 80.6482 166.174 80.7026 166.116C80.7569 166.058 80.7989 165.989 80.8262 165.915C80.8534 165.84 80.8653 165.761 80.8611 165.681C80.8569 165.602 80.8367 165.524 80.8017 165.453C80.7667 165.381 80.7177 165.318 80.6575 165.266C80.5974 165.214 80.5273 165.175 80.4516 165.15C80.3759 165.126 80.2961 165.117 80.2169 165.125C74.1758 165.385 54.0492 166.165 50.0114 166.232C42.9602 166.388 34.4582 167.102 28.7265 162.932C27.0186 161.554 25.5582 159.895 24.4079 158.026C31.4058 158.067 38.4193 158.286 45.4107 158.016C54.9813 157.646 64.2997 156.18 73.8313 155.383C76.0881 159.478 79.8412 165.161 84.4744 164.662C86.6649 164.424 88.6682 162.815 90.7976 161.094C93.1675 159.12 96.1445 157.34 99.154 158.001C107.104 159.734 109.882 169.485 113.897 175.925C113.931 175.986 113.977 176.04 114.032 176.083C114.087 176.125 114.15 176.156 114.217 176.174C114.285 176.191 114.355 176.195 114.424 176.184C114.493 176.173 114.559 176.148 114.618 176.111C114.74 176.037 114.828 175.918 114.863 175.779C114.898 175.64 114.877 175.493 114.805 175.37Z" fill="#180B02"/>
<path d="M222.981 209.541C223.544 206.761 224.515 203.972 224.922 201.167C226.328 191.832 225.654 182.302 222.95 173.257C218.577 158.957 209.262 148.167 194.466 143.347C187.737 141.147 180.476 140.302 173.702 139.223C173.796 138.274 169.861 134.917 168.549 134.374C168.41 134.311 168.258 134.281 168.106 134.287C167.954 134.293 167.805 134.334 167.671 134.408C158.311 139.478 156.004 140.738 154.725 141.589C154.472 139.651 154.454 138.269 154.275 136.324C154.277 136.246 154.261 136.168 154.228 136.097C154.196 136.026 154.148 135.963 154.088 135.913C154.032 135.786 153.929 135.685 153.801 135.632C153.672 135.579 153.528 135.578 153.399 135.629C151.298 136.334 147.442 136.539 146.405 139.462C142.054 139.69 137.743 140.408 133.554 141.605C124.574 144.089 113.637 149.78 110.391 158.464C110.341 158.592 110.341 158.733 110.392 158.86C110.444 158.987 110.542 159.089 110.667 159.146C110.791 159.202 110.933 159.208 111.062 159.163C111.191 159.118 111.298 159.025 111.361 158.904C112.541 156.763 114.064 154.831 115.869 153.184C123.764 145.364 135.125 142.602 146.045 140.793C145.301 144.146 144.747 147.537 144.383 150.952C144.364 151.131 144.397 151.311 144.479 151.472C144.56 151.632 144.687 151.765 144.843 151.855C144.999 151.945 145.177 151.987 145.357 151.977C145.537 151.967 145.71 151.906 145.855 151.799C148.431 149.715 150.896 147.496 153.237 145.151C149.318 159.26 147.378 176.517 146.575 191.023C146.268 197.213 146.649 198.645 146.544 203.503C146.539 203.659 146.596 203.811 146.702 203.926C146.809 204.041 146.956 204.109 147.112 204.116C147.269 204.123 147.421 204.068 147.538 203.964C147.654 203.859 147.724 203.712 147.733 203.556C148.525 192.994 147.685 179.666 154.474 145.013C156.391 147.553 159.05 150.625 161.005 152.964C161.086 153.062 161.188 153.141 161.303 153.197C161.417 153.252 161.542 153.283 161.67 153.286C161.797 153.289 161.924 153.266 162.041 153.216C162.158 153.167 162.264 153.093 162.35 152.999C163.683 151.598 166.885 147.791 167.766 146.716C171.488 141.993 172.506 140.882 173.018 140.216C180.459 141.676 187.382 142.704 193.934 144.961C208.318 149.909 216.983 160 221.234 173.799C223.856 182.586 224.508 191.843 223.144 200.911C222.6 204.607 220.628 210.026 220.827 212.574C220.908 214.355 221.708 216.773 220.732 218.454C220.28 219.212 219.76 219.234 219.355 218.9C218.847 218.42 218.583 217.287 217.477 214.342C216.726 212.487 215.815 210.701 214.755 209.004C210.873 202.572 205.317 195.08 198.259 197.733C198.184 197.756 198.114 197.794 198.054 197.844C197.994 197.895 197.944 197.957 197.908 198.026C197.872 198.096 197.851 198.173 197.845 198.251C197.839 198.329 197.849 198.408 197.874 198.482C197.9 198.557 197.939 198.625 197.992 198.684C198.044 198.743 198.107 198.79 198.178 198.824C198.249 198.858 198.326 198.877 198.404 198.88C198.483 198.883 198.561 198.871 198.635 198.844C204.902 196.557 209.995 204.174 213.314 209.865C215.357 213.382 215.394 213.885 217.352 219.044C218.793 222.097 222.682 221.356 222.986 216.811C223.144 214.293 222.069 213.488 222.981 209.541ZM147.42 148.127C147.107 148.4 146.795 148.669 146.51 148.934C146.811 145.922 147.332 142.935 148.07 139.999C148.525 138.469 151.124 137.731 153.078 136.93C152.943 138.893 152.964 140.863 153.14 142.823C151.239 144.548 149.361 146.4 147.42 148.127ZM166.577 145.411C165.5 146.676 162.287 150.4 161.725 151.01C159.845 148.774 157.193 145.641 155.464 143.291C157.511 141.85 161.602 139.864 166.263 137.151C168.473 135.907 168.093 135.944 168.298 136.032C169.794 136.835 171.164 137.853 172.367 139.051C170.495 141.269 170.409 140.907 166.577 145.411Z" fill="#180B02"/>
<path d="M194.685 192.49C195.155 188.499 194.56 184.455 192.963 180.768C192.917 180.705 192.885 180.633 192.868 180.557C192.851 180.481 192.85 180.403 192.865 180.327C192.88 180.25 192.91 180.178 192.954 180.113C192.998 180.049 193.054 179.995 193.12 179.953C193.185 179.91 193.257 179.881 193.334 179.867C193.41 179.853 193.488 179.854 193.564 179.871C193.64 179.887 193.711 179.919 193.775 179.963C193.838 180.008 193.892 180.064 193.934 180.13C196.656 183.64 197.028 188.783 196.404 193.203C196.382 193.336 196.332 193.464 196.256 193.576C196.181 193.688 196.081 193.783 195.966 193.853C193.454 195.185 192.895 197.743 193.304 200.584C193.325 200.652 193.331 200.723 193.323 200.794C193.315 200.864 193.292 200.933 193.257 200.994C193.222 201.056 193.175 201.11 193.119 201.153C193.062 201.196 192.998 201.227 192.929 201.244C192.86 201.263 192.789 201.268 192.719 201.259C192.649 201.25 192.581 201.227 192.52 201.191C192.458 201.156 192.405 201.108 192.362 201.052C192.319 200.995 192.288 200.931 192.271 200.862C191.003 197.638 191.56 194.464 194.685 192.49Z" fill="#180B02"/>
<path d="M201.978 192.79C203.191 192.762 204.403 192.903 205.578 193.208C208.655 194.055 210.467 196.177 211.118 195.472C211.638 194.912 210.444 193.791 209.865 193.308C207.578 191.597 204.731 190.809 201.89 191.1C201.403 191.174 199.654 191.557 199.729 192.27C199.828 192.755 200.168 192.738 201.978 192.79Z" fill="#180B02"/>
<path d="M71.6712 172.286C72.5383 172.224 74.7054 172.139 75.6466 172.077C89.7061 171.147 89.4409 171.914 96.587 170.874C96.7423 170.858 96.886 170.784 96.9901 170.668C97.0941 170.551 97.1511 170.4 97.1499 170.244C97.1341 170.085 97.0562 169.938 96.9331 169.836C96.8099 169.734 96.6515 169.684 96.4921 169.698C94.4862 169.698 94.5525 169.603 91.2661 169.658C79.7507 169.85 76.359 169.933 71.484 171.218C71.3423 171.242 71.2163 171.322 71.1336 171.44C71.051 171.558 71.0185 171.704 71.0433 171.845C71.0681 171.987 71.1482 172.113 71.266 172.196C71.3837 172.278 71.5295 172.311 71.6712 172.286Z" fill="#0705CB"/>
<path d="M76.4923 177.173C78.8569 177.182 81.2196 177.043 83.5669 176.757C85.7462 176.717 87.9206 176.534 90.076 176.21C90.1557 176.213 90.2354 176.201 90.3102 176.173C90.385 176.145 90.4533 176.102 90.5111 176.047C90.5689 175.992 90.6149 175.926 90.6463 175.852C90.6777 175.779 90.6939 175.7 90.6939 175.62C90.6939 175.54 90.6777 175.461 90.6463 175.388C90.6149 175.314 90.5689 175.248 90.5111 175.193C90.4533 175.138 90.385 175.095 90.3102 175.067C90.2354 175.039 90.1557 175.027 90.076 175.031C87.7858 174.673 85.4558 174.649 83.1587 174.959C81.886 175.045 79.3796 175.281 78.3383 175.502C77.6587 175.66 76.99 175.862 76.3363 176.106C76.1925 176.127 76.0626 176.203 75.9746 176.319C75.8866 176.435 75.8475 176.58 75.8657 176.724C75.8938 176.865 75.9742 176.989 76.0905 177.072C76.2068 177.156 76.3505 177.192 76.4923 177.173Z" fill="#0705CB"/>
<path d="M68.1354 70.9801C68.2587 70.9836 68.3798 70.9476 68.4813 70.8775C68.5828 70.8073 68.6592 70.7067 68.6996 70.5901H68.6411C71.5869 60.8791 80.293 54.7119 83.604 45.8901C84.757 42.7078 85.1368 39.297 84.7121 35.9391C84.2874 32.5811 83.0703 29.3723 81.1614 26.5773C81.0866 26.4523 80.9816 26.3482 80.8559 26.2745C80.7302 26.2009 80.588 26.1602 80.4425 26.1561C72.1537 25.8285 35.2025 26.1899 27.5429 28.0983C27.4253 28.1284 27.315 28.1817 27.2184 28.2551C27.1217 28.3285 27.0408 28.4205 26.9802 28.5256C26.9196 28.6308 26.8807 28.7469 26.8657 28.8673C26.8507 28.9877 26.8599 29.1099 26.8929 29.2267C29.918 40.4639 23.652 44.6967 17.2833 53.8435C13.7312 58.6955 11.5571 64.4177 10.9913 70.4042C10.9725 70.6334 11.0432 70.861 11.1887 71.0392C11.3341 71.2174 11.5429 71.3322 11.7713 71.3597C17.4133 71.8979 23.0683 71.4 28.7675 71.3129C39.2611 71.1452 68.1354 71.1101 68.1354 70.9801ZM79.9043 27.9137C70.4676 27.5926 37.8025 28.0827 28.8832 29.6817C31.6132 41.1217 24.7492 46.2411 18.7432 54.8679C15.5959 59.2391 13.5648 64.3134 12.8269 69.6489C18.0828 70.0597 23.5454 69.5982 28.7272 69.5501C33.1095 69.5098 65.6004 69.8023 67.7272 69.84C71.8651 55.956 86.5408 49.2883 82.4081 33.5986C81.8664 31.5865 81.0222 29.6683 79.9043 27.9098V27.9137Z" fill="#0705CB"/>
<path d="M76.3103 141.73C76.4061 141.735 76.5015 141.714 76.5867 141.67C76.6719 141.626 76.7437 141.56 76.7949 141.479C76.846 141.398 76.8745 141.304 76.8776 141.208C76.8806 141.112 76.858 141.017 76.8121 140.933H76.7796C73.7623 135.299 72.4103 128.079 70.9803 121.748C68.4219 110.425 65.857 94.6272 68.3192 83.2392C68.3449 83.1126 68.3425 82.982 68.3122 82.8564C68.2819 82.7309 68.2245 82.6135 68.1439 82.5126C68.0633 82.4117 67.9616 82.3297 67.8459 82.2724C67.7301 82.2151 67.6033 82.1839 67.4742 82.181C61.5592 82.1225 37.9642 82.3604 32.0739 82.4943C24.2258 82.6737 16.1125 83.2262 8.28387 82.5684C8.05221 82.5511 7.82271 82.623 7.6424 82.7695C7.46209 82.916 7.34462 83.1259 7.31407 83.3562C4.61007 104.092 8.84027 123.811 17.7713 143.178C17.8464 143.344 17.9708 143.483 18.1275 143.576C18.2842 143.669 18.4657 143.712 18.6475 143.698C38.7468 142.21 76.3103 141.906 76.3103 141.73ZM66.3822 83.9568C60.8728 83.9165 22.5605 84.6614 17.7713 84.6978C14.8294 84.7199 11.9213 84.664 9.00667 84.4534C6.57697 104.317 10.7422 123.442 19.1168 141.877C35.1523 140.775 59.3856 140.551 75.3652 140.598C72.3479 134.719 71.174 128.844 69.5438 122.083C66.624 109.98 64.3698 96.1898 66.3822 83.9568Z" fill="#0705CB"/>
<path d="M26.6296 58.0849C31.8699 58.6686 30.6206 58.2916 36.6149 58.7349C39.9 58.9754 41.5822 59.5422 44.8153 59.0807C44.9748 59.0776 45.1266 59.0119 45.238 58.8979C45.3494 58.7838 45.4114 58.6304 45.4107 58.471C45.3964 58.315 45.3241 58.1701 45.2081 58.0649C45.092 57.9597 44.9407 57.9019 44.7841 57.9029C42.7119 57.782 34.2541 55.9724 26.5984 57.0124C26.4562 57.0187 26.3217 57.0791 26.2226 57.1814C26.1235 57.2836 26.0673 57.4199 26.0654 57.5623C26.0674 57.6339 26.0837 57.7044 26.1133 57.7696C26.1428 57.8348 26.1851 57.8935 26.2377 57.9422C26.2902 57.9908 26.352 58.0285 26.4193 58.053C26.4866 58.0775 26.5581 58.0884 26.6296 58.0849Z" fill="white"/>
<path d="M23.8443 62.5052C25.3159 62.5572 26.7862 62.6625 28.2578 62.734C28.7895 62.7587 52.2025 63.5634 52.6718 63.5712C54.176 63.5963 55.6806 63.5486 57.1802 63.4282C57.2596 63.4292 57.3384 63.4142 57.4119 63.384C57.4854 63.3538 57.552 63.309 57.6077 63.2525C57.6635 63.1959 57.7073 63.1287 57.7365 63.0548C57.7656 62.9809 57.7796 62.9019 57.7775 62.8225C57.7754 62.7431 57.7573 62.6649 57.7242 62.5927C57.6912 62.5204 57.6439 62.4556 57.5852 62.4021C57.5266 62.3485 57.4577 62.3074 57.3827 62.2811C57.3078 62.2548 57.2283 62.244 57.149 62.2491C55.6137 62.2491 54.081 62.032 52.5483 61.8864C46.2823 61.3157 31.5715 60.9192 27.8197 61.1064C26.4742 61.1714 25.1274 61.3014 23.8131 61.4288C23.738 61.424 23.6627 61.4348 23.592 61.4608C23.5213 61.4867 23.4568 61.5271 23.4026 61.5793C23.3484 61.6316 23.3058 61.6946 23.2773 61.7643C23.2489 61.834 23.2354 61.9089 23.2375 61.9842C23.2397 62.0594 23.2576 62.1334 23.29 62.2014C23.3224 62.2693 23.3687 62.3297 23.4258 62.3788C23.4829 62.4278 23.5496 62.4644 23.6217 62.4862C23.6938 62.508 23.7696 62.5145 23.8443 62.5052Z" fill="white"/>
<path d="M16.77 92.1298C21.2108 92.1194 41.7807 92.4912 46.2254 92.2481C47.6021 92.1766 48.9164 92.0479 50.2632 91.9179C50.4194 91.9137 50.5675 91.8477 50.6751 91.7344C50.7826 91.621 50.8406 91.4696 50.8365 91.3134C50.8324 91.1572 50.7664 91.009 50.653 90.9015C50.5396 90.794 50.3882 90.7359 50.232 90.7401C50.102 90.7401 34.502 90.3137 26.7865 90.3605C23.4029 90.3017 20.0205 90.5331 16.6764 91.0521C16.5362 91.0694 16.4073 91.1382 16.3149 91.2451C16.2224 91.3519 16.1729 91.4893 16.1759 91.6306C16.1891 91.7753 16.259 91.9089 16.3702 92.0024C16.4815 92.0959 16.6252 92.1417 16.77 92.1298Z" fill="white"/>
<path d="M42.5629 104.519C47.5354 104.458 45.8844 104.335 49.9495 104.111C58.1759 103.656 54.558 104.009 57.9939 103.559C58.1505 103.554 58.2993 103.49 58.4098 103.379C58.5203 103.268 58.5841 103.119 58.588 102.962C58.585 102.806 58.521 102.658 58.4099 102.549C58.2989 102.441 58.1495 102.38 57.9939 102.38C54.8647 101.998 51.7008 101.998 48.5715 102.38C46.4632 102.422 44.3736 102.785 42.3744 103.456C42.2398 103.488 42.1223 103.57 42.0462 103.685C41.9701 103.801 41.9412 103.941 41.9653 104.077C41.9895 104.213 42.0649 104.335 42.176 104.417C42.2872 104.499 42.4256 104.536 42.5629 104.519Z" fill="white"/>
<path d="M42.9007 110.66C43.8471 110.938 43.4207 110.989 46.1572 110.984C47.2508 111.125 48.3624 111.015 49.4072 110.663C49.5588 110.656 49.7018 110.59 49.8065 110.481C49.9113 110.371 49.9697 110.225 49.9697 110.073C49.9697 109.921 49.9113 109.775 49.8065 109.666C49.7018 109.556 49.5588 109.491 49.4072 109.484C48.9682 109.321 48.5071 109.225 48.0396 109.2C46.6423 109.123 45.2415 109.135 43.8458 109.237C43.5008 109.316 43.1649 109.431 42.8435 109.58C42.7039 109.593 42.5745 109.659 42.4815 109.764C42.3886 109.869 42.3391 110.005 42.343 110.145C42.3494 110.287 42.4116 110.421 42.516 110.517C42.6204 110.614 42.7587 110.665 42.9007 110.66Z" fill="white"/>
<path d="M20.2133 126.183C21.1935 126.262 22.6547 126.393 24.0951 126.408C27.0123 126.436 41.9688 125.695 42.6851 125.643C43.7485 125.564 44.8132 125.446 45.9091 125.363C46.0654 125.359 46.2144 125.296 46.3251 125.185C46.4357 125.075 46.4995 124.926 46.5032 124.77C46.4955 124.615 46.4302 124.47 46.3202 124.361C46.2102 124.253 46.0635 124.189 45.9091 124.183C44.5948 124.103 43.3091 124.001 42.0273 123.983C38.8813 123.939 24.1718 124.7 23.4373 124.763C22.3414 124.856 21.278 125 20.2133 125.104C20.0767 125.113 19.9487 125.174 19.8553 125.274C19.7619 125.375 19.71 125.506 19.71 125.643C19.71 125.78 19.7619 125.912 19.8553 126.012C19.9487 126.112 20.0767 126.173 20.2133 126.183Z" fill="white"/>
<path d="M22.4657 132.973C25.1268 133.212 23.8736 133.204 30.072 132.856C32.3954 132.82 34.7152 132.661 37.0218 132.38C37.1016 132.384 37.1813 132.372 37.2561 132.344C37.3308 132.316 37.3992 132.273 37.457 132.218C37.5147 132.163 37.5607 132.096 37.5921 132.023C37.6235 131.95 37.6397 131.871 37.6397 131.791C37.6397 131.711 37.6235 131.632 37.5921 131.558C37.5607 131.485 37.5147 131.419 37.457 131.364C37.3992 131.309 37.3308 131.266 37.2561 131.238C37.1813 131.21 37.1016 131.197 37.0218 131.201C36.2452 131.063 35.4613 130.969 34.674 130.919C33.1556 130.855 27.7645 131.08 25.002 131.392C24.1269 131.513 23.259 131.681 22.402 131.895C22.2599 131.905 22.1274 131.971 22.0336 132.078C21.9397 132.185 21.8923 132.325 21.9015 132.467C21.9131 132.608 21.978 132.738 22.083 132.832C22.1879 132.927 22.3249 132.977 22.4657 132.973Z" fill="white"/>
<path d="M37.8041 116.209C36.5683 111.233 35.7508 106.163 35.3601 101.05C35.3487 100.826 35.251 100.615 35.0875 100.461C34.9239 100.307 34.7072 100.222 34.4826 100.225C30.7269 100.271 18.269 100.474 15.7626 100.551C15.5346 100.559 15.318 100.653 15.1558 100.813C14.9935 100.973 14.8974 101.189 14.8864 101.417C14.79 106.787 15.7599 112.124 17.7399 117.117C18.1013 118.052 19.2466 117.672 22.3419 117.694C23.7173 117.694 25.1265 117.724 26.5019 117.712C26.81 117.712 33.791 117.512 33.921 117.504C35.0665 117.464 36.2022 117.279 37.301 116.953C37.386 116.944 37.468 116.916 37.5413 116.872C37.6145 116.828 37.6773 116.769 37.7252 116.698C37.7731 116.627 37.805 116.547 37.8186 116.462C37.8322 116.378 37.8273 116.292 37.8041 116.209ZM36.3312 115.429C33.1631 113.466 29.8689 111.319 26.8581 109.075C31.9281 104.225 31.2781 105.11 33.7169 102.497C34.1491 106.889 35.025 111.225 36.3312 115.44V115.429ZM32.1101 102.034C29.763 103.888 27.5165 105.866 25.38 107.96C21.87 105.275 22.9958 105.986 17.7815 102.315C22.5291 102.18 27.668 102.103 32.1101 102.034ZM16.7012 103.204C17.8868 104.424 17.9531 104.493 24.0891 109.24C22.1426 111.096 20.4508 113.202 19.0581 115.502C17.6148 111.556 16.8176 107.403 16.6973 103.203L16.7012 103.204ZM20.5011 115.953C22.4511 113.713 23.989 111.913 25.5516 110.363C28.4328 112.646 31.557 114.605 34.8674 116.203C34.4163 116.208 24.4557 115.878 20.4972 115.952L20.5011 115.953Z" fill="white"/>
<path d="M76.9604 35.6089C76.9431 35.3897 76.8428 35.1854 76.68 35.0378C76.5171 34.8901 76.304 34.8103 76.0842 34.8146C67.5744 34.7834 40.3875 33.8396 35.9246 34.6846C35.7434 34.7188 35.576 34.8048 35.4426 34.9322C35.3093 35.0595 35.2157 35.2228 35.1732 35.4022C34.2296 40.6092 32.1218 45.5358 29.0073 49.814C28.9108 49.9465 28.8519 50.1027 28.8369 50.2659C28.8218 50.4291 28.8511 50.5934 28.9217 50.7413C28.9923 50.8893 29.1015 51.0154 29.2378 51.1064C29.3742 51.1974 29.5325 51.2499 29.6963 51.2583C36.9139 51.7146 43.9767 51.6587 51.1371 51.9577C59.7639 52.2177 69.6387 53.3435 70.355 52.5986C72.5936 50.3939 74.3396 47.7399 75.4782 44.8115C76.6167 41.8831 77.1218 38.7467 76.9604 35.6089ZM71.5406 36.4877C62.0688 39.0604 61.5879 38.9889 52.1707 42.1544C43.4204 37.9333 49.6955 40.8193 39.7271 36.2173C46.9109 35.9937 63.3507 36.3759 71.542 36.4877H71.5406ZM36.8099 36.4877C38.0051 37.0248 39.163 37.6415 40.2757 38.3337L49.7267 42.9773C39.0926 46.5536 37.6653 46.5055 31.8959 48.8182C34.2499 45.0302 35.914 40.8551 36.8112 36.4864L36.8099 36.4877ZM51.2008 50.2287C46.1919 49.996 34.3698 49.6866 33.4507 49.6463C39.9962 47.8757 40.1651 48.0863 52.0406 44.1083C57.2414 46.6089 62.4509 49.0911 67.6693 51.5547C62.1274 51.1998 56.6803 50.5459 51.2008 50.2287ZM70.0249 51.3402C64.9159 48.2462 59.4402 45.641 54.5223 43.2802C66.368 39.3555 68.6494 39.4153 75.3054 36.606C75.4683 42.0079 73.5819 47.2715 70.0249 51.3402Z" fill="white"/>
<path d="M197.565 232.114C197.565 232.114 204.764 232.085 206.454 232.037C207.129 232.019 243.69 230.327 252.936 229.697C253.09 229.684 253.234 229.614 253.339 229.5C253.443 229.386 253.501 229.237 253.5 229.082C253.49 228.925 253.419 228.778 253.302 228.673C253.185 228.567 253.031 228.512 252.873 228.519C234.624 229.026 201.784 230.607 197.534 231.029C197.389 231.035 197.252 231.097 197.152 231.203C197.053 231.308 196.999 231.449 197.002 231.594C197.013 231.735 197.077 231.868 197.181 231.965C197.286 232.061 197.423 232.114 197.565 232.114Z" fill="#180B02"/>
<path d="M216.095 221.072C213.606 223.014 210.969 224.757 208.206 226.286C201.04 230.287 193.428 232.738 185.196 231.807C175.145 230.666 166.358 224.618 159.905 216.914C158.966 215.8 158.309 214.964 158.028 214.551C157.861 214.306 157.635 214.108 157.37 213.976C152.404 212.57 150.624 212.264 148.074 211.684C147.934 211.652 147.786 211.676 147.664 211.75C147.541 211.825 147.452 211.944 147.416 212.083C147.388 212.223 147.414 212.369 147.49 212.489C147.566 212.61 147.685 212.698 147.823 212.733C150.194 213.383 153.205 214.283 156.65 215.463C160.763 221.345 166.177 226.199 172.471 229.648C171.584 229.62 165.022 229.441 162.293 229.572C161.923 227.752 159.693 227.184 157.839 227.226L140.592 226.892C139.682 223.704 129.168 187.438 128.632 185.732C128.194 184.101 127.222 182.662 125.872 181.646C124.522 180.63 122.871 180.094 121.182 180.124C120.272 180.148 52.3508 180.575 50.692 180.565C48.0621 180.551 46.7023 181.445 45.9964 182.49C45.5748 183.267 45.3385 184.131 45.3061 185.015C45.2736 185.899 45.4458 186.778 45.8092 187.584C45.8092 187.454 47.4862 192.047 62.4115 229.611C58.323 229.458 32.2034 229.717 24.6491 230.488C24.5104 230.494 24.3796 230.554 24.2839 230.655C24.1882 230.755 24.1348 230.889 24.1348 231.028C24.1348 231.167 24.1882 231.3 24.2839 231.401C24.3796 231.501 24.5104 231.561 24.6491 231.568C32.7806 232.031 57.7991 231.255 62.8834 230.822C63.4178 231.711 64.1792 232.443 65.0896 232.941C65.9999 233.439 67.0265 233.686 68.0639 233.657H157.937C159.04 233.417 160.097 233 161.067 232.422C161.556 232.11 161.939 231.656 162.164 231.122C164.877 231.321 173.494 231.607 176.191 231.382C187.204 235.781 198.796 233.995 209.02 227.698C211.766 225.991 214.381 224.084 216.845 221.991C216.957 221.888 217.026 221.747 217.037 221.596C217.048 221.444 217 221.294 216.904 221.177C216.808 221.059 216.671 220.983 216.521 220.963C216.37 220.944 216.218 220.982 216.095 221.072ZM159.784 231.097C158.393 231.764 163.944 231.463 68.0717 232.708C67.0854 232.653 66.1329 232.33 65.317 231.773C63.4853 230.485 64.9686 233.073 47.4134 186.957C47.3822 186.957 47.3822 186.94 47.3822 186.94C47.2109 186.459 47.0949 185.959 47.0364 185.452C46.8479 183.526 47.7163 182.285 50.6686 182.315C52.8591 182.334 121.221 181.943 121.221 181.943C122.506 181.924 123.761 182.331 124.789 183.101C125.809 183.911 126.544 185.025 126.886 186.281C127.418 187.981 139.062 228.04 139.062 228.04C139.112 228.226 139.222 228.391 139.375 228.509C139.528 228.626 139.715 228.69 139.908 228.69C139.908 228.69 157.848 229.029 157.874 229.028C158.494 228.998 160.535 229.106 160.535 230.127C160.567 230.637 160.16 230.907 159.784 231.097Z" fill="#180B02"/>
<path d="M181.1 91.5204C180.172 89.522 178.764 87.7849 177 86.4647C174.697 85.2002 172.114 84.5346 169.487 84.529C166.051 84.2915 162.604 84.8067 159.387 86.0387C156.171 87.2707 153.262 89.1898 150.863 91.6621C144.899 97.6577 143.241 106.316 141.034 114.442C139.3 121.314 136.735 127.95 133.397 134.202C133.328 134.328 133.29 134.468 133.286 134.611C133.281 134.754 133.311 134.897 133.372 135.026C133.433 135.156 133.524 135.269 133.637 135.357C133.75 135.445 133.882 135.505 134.023 135.532C140.982 137.04 149.97 135.078 156.028 130.957C156.028 134.355 156.091 135.137 156.091 136.85C156.081 137.008 156.135 137.163 156.24 137.281C156.345 137.399 156.493 137.471 156.65 137.48C156.808 137.489 156.963 137.436 157.081 137.331C157.199 137.226 157.271 137.078 157.28 136.92C157.571 134.357 157.639 132.81 157.708 131.584C158.018 131.693 158.335 131.78 158.657 131.844C160.239 132.177 162.905 131.974 162.695 130.9C162.613 130.064 160.4 130.37 159.033 130.06C154.843 129.159 152.972 125.242 152.709 120.951C152.409 114.876 154.427 109.181 155.684 103.791C159.887 103.062 164.499 103.44 168.767 103.596C168.979 103.602 169.187 103.534 169.354 103.402C169.52 103.27 169.635 103.083 169.677 102.875C170.175 100.775 171.138 98.8143 172.494 97.1364C172.365 99.4136 173.09 101.657 174.527 103.428C174.44 105.613 174.503 107.802 174.716 109.978C174.702 110.106 174.714 110.235 174.751 110.358C174.787 110.481 174.848 110.596 174.93 110.695C175.011 110.795 175.112 110.877 175.226 110.937C175.339 110.997 175.464 111.034 175.592 111.045C176.502 111.069 177.533 110.892 178.503 110.945C181.922 111.147 181.056 116.022 177.314 116.564C175.572 116.824 175.14 116.361 174.591 116.833C174.497 116.911 174.421 117.008 174.367 117.118C174.313 117.228 174.283 117.348 174.278 117.47C174.169 119.956 173.413 122.371 172.085 124.475C170.756 126.579 168.901 128.299 166.703 129.466C166.568 129.511 166.451 129.596 166.367 129.71C166.283 129.824 166.236 129.962 166.233 130.103L166.14 133.492C166.128 133.637 166.175 133.781 166.27 133.892C166.364 134.002 166.499 134.071 166.644 134.082C166.789 134.094 166.933 134.047 167.044 133.952C167.154 133.858 167.223 133.723 167.234 133.578L167.61 130.671C169.708 129.818 171.522 128.391 172.845 126.553C173.594 126.628 174.024 126.683 177.785 126.856C179.411 126.931 182.104 127.26 183.826 126.454C184.301 126.248 184.715 125.922 185.028 125.508C185.34 125.095 185.541 124.608 185.61 124.095C185.615 123.994 185.605 123.893 185.579 123.796C186.348 120.473 186.135 117.192 186.299 113.723C186.634 106.279 189.037 92.8958 181.1 91.5204ZM152.709 97.9944C147.45 105.733 145.519 117.614 143.479 124.739C143.072 126.121 142.569 127.433 142.134 128.698C142.091 128.836 141.996 128.952 141.868 129.021C141.741 129.089 141.592 129.106 141.453 129.066C141.314 129.026 141.196 128.934 141.124 128.808C141.052 128.682 141.033 128.534 141.069 128.394C142.292 121.91 143.838 115.492 145.702 109.163C147.157 104.643 148.714 100.766 151.812 97.2729C151.908 97.1522 152.048 97.0745 152.201 97.0568C152.354 97.0392 152.507 97.083 152.628 97.1787C152.749 97.2743 152.827 97.414 152.844 97.567C152.862 97.72 152.818 97.8737 152.722 97.9944H152.709ZM160.535 91.5698C159.506 92.4509 158.407 93.2478 157.249 93.9527C157.141 94.045 157.003 94.0967 156.861 94.0989C156.719 94.101 156.58 94.0534 156.469 93.9644C155.689 93.1714 158.446 91.1044 159.911 90.5662C160.672 90.288 161.124 91.0342 160.535 91.5698Z" fill="#180B02"/>
</svg>
