<svg width="600" height="224" viewBox="0 0 600 224" fill="none" xmlns="http://www.w3.org/2000/svg">
<g clip-path="url(#clip0_524_976)">
<path fill-rule="evenodd" clip-rule="evenodd" d="M317.538 77.1938C295.697 89.8927 292.801 91.6752 293.01 92.9484C293.043 93.1493 293.153 93.3374 293.278 93.5538L344.584 181.016C345.331 182.284 345.643 182.873 346.075 182.982C346.507 183.089 347.059 182.718 348.284 182.066C355.698 178.121 363.04 174.042 370.356 169.918C387.009 160.532 397.694 154.671 404.505 150.933C406.301 149.948 407.828 149.11 409.124 148.395C406.516 149.31 403.591 150.34 400.314 151.503C400.312 151.505 400.241 151.53 400.106 151.578C399.672 151.734 398.583 152.123 396.989 152.691C385.604 159.005 371.718 166.718 367.019 169.328C365.965 169.912 365.373 170.242 365.375 170.24C349.426 178.984 347.2 181.064 346.36 180.606C346.193 180.515 346.081 180.324 345.926 180.064C345.907 180.031 295.066 93.6941 295.082 93.7201C294.665 93.0154 294.803 92.936 299.096 90.4637C300.325 89.7557 301.896 88.8515 303.891 87.6802C303.905 87.6722 310.036 84.1041 318.329 79.2622L317.538 77.1938Z" fill="#180B02"/>
<path d="M374.374 65.8754C374.363 66.7753 374.634 66.4742 363.271 71.0643C356.558 73.7761 340.216 80.3432 333.38 82.7345C331.98 83.2247 332.217 82.966 328.925 74.8359C328.404 73.5511 328.545 73.337 329.866 72.8022C338.708 69.2209 357.982 61.2505 369.158 57.2485C370.624 56.7236 370.717 56.8116 371.289 58.2539C372.769 61.9755 373.623 63.7309 374.374 65.8754ZM369.388 58.805C366.706 59.7473 362.977 61.6407 330.72 74.0489C329.816 74.3967 330.256 74.1978 332.803 80.6476C333.138 81.4965 333.317 81.1117 335.246 80.34C374.359 64.695 372.709 66.0177 372.374 65.2428C369.563 58.7246 369.784 58.6669 369.387 58.8061L369.388 58.805Z" fill="#180B02"/>
<path d="M337.285 91.4104C336.325 91.3332 336.372 90.5333 337.096 90.1876C340.295 88.6627 338.49 89.3703 356.964 81.8195C372.072 75.6447 371.835 75.4589 372.372 76.4817C372.99 77.6588 371.778 77.7142 353.495 85.1139C343.467 89.1724 339.159 91.0561 337.285 91.4104Z" fill="#180B02"/>
<path d="M342.474 102.553C341.335 102.594 341.242 101.497 341.97 101.104C343.005 100.548 341.969 100.962 369.476 90.5002C372.518 89.3438 373.246 89.0872 373.542 89.9687C373.85 90.8861 373.434 90.9752 364.09 94.524C363.459 94.7642 343.15 102.529 342.475 102.553H342.474Z" fill="#180B02"/>
<path d="M357.97 148.131C356.902 148.047 356.916 147.327 357.642 146.945C360.817 145.28 371.723 141.543 375.412 140.318C378.312 139.354 378.943 139.221 379.199 139.994C379.537 141.02 378.906 141.202 367.609 145.136C365.318 145.934 360.346 147.633 357.971 148.13L357.97 148.131Z" fill="#180B02"/>
<path d="M340.183 96.6687C339.131 96.7393 338.983 95.9002 339.494 95.5165C340.166 95.0122 339.473 95.3589 355.135 88.9559C355.807 88.6809 356.477 88.4636 356.779 89.1929C357.202 90.2167 355.871 90.458 354.01 91.2091C340.229 96.7708 341.905 96.1372 340.183 96.6687Z" fill="#180B02"/>
<path d="M361.014 152.956C359.723 152.922 359.656 151.795 360.64 151.394C364.153 149.961 365.724 149.477 370.778 147.767C372.076 147.328 372.666 148.767 371.275 149.329C369 150.248 362.758 152.555 361.014 152.956Z" fill="#180B02"/>
<path fill-rule="evenodd" clip-rule="evenodd" d="M384.695 119.299C383.141 121.799 382.243 124.747 382.243 127.901C382.243 136.913 389.575 144.242 398.584 144.242C407.595 144.242 414.924 136.913 414.924 127.901C414.924 126.261 414.682 124.676 414.23 123.182C413.773 123.419 413.3 123.64 412.808 123.847C413.177 125.136 413.373 126.497 413.373 127.903C413.373 136.06 406.74 142.693 398.584 142.693C390.428 142.693 383.794 136.06 383.794 127.903C383.794 125.112 384.571 122.499 385.921 120.269C385.5 119.957 385.092 119.633 384.695 119.299Z" fill="#F07D29"/>
<path fill-rule="evenodd" clip-rule="evenodd" d="M428.678 139.032L420.466 117.771C420.108 118.294 419.714 118.799 419.287 119.284C421.538 125.116 423.964 131.386 426.577 138.127C426.767 138.618 426.679 138.738 426.21 138.893C424.515 139.453 389.695 151.84 378.113 155.961L378.106 155.963L378.1 155.965C375.783 156.789 374.399 157.281 374.403 157.28C366.712 159.969 361.955 161.793 358.98 162.934C355.315 164.34 354.353 164.709 353.939 164.382C353.792 164.266 353.714 164.062 353.609 163.784L353.605 163.775C353.592 163.739 317.627 70.2206 317.638 70.25C317.356 69.5255 317.491 69.4749 321.475 67.9756C322.888 67.4439 324.785 66.73 327.32 65.7393L327.534 65.6582C331.103 64.3059 378.276 46.4319 388.802 42.1577C388.825 42.1485 388.846 42.1394 388.867 42.1305C388.959 42.0918 389.04 42.0573 389.123 42.054C389.455 42.0403 389.808 42.5297 390.929 45.2658C391.31 44.8883 391.697 44.5653 392.088 44.2908L390.72 40.7479L390.702 40.7146C390.584 40.4902 390.486 40.306 390.339 40.1808C389.66 39.6048 387.921 40.2788 378.181 44.0529C373.916 45.7053 368.118 47.9521 360.204 50.9486C355.778 52.6242 351.787 54.1329 348.188 55.4932C319.371 66.386 315.728 67.7629 315.725 69.1491C315.724 69.3496 315.8 69.5503 315.886 69.7801L315.89 69.7902L352.127 164.496C352.172 164.613 352.214 164.724 352.254 164.829C352.692 165.973 352.9 166.517 353.274 166.68C353.613 166.828 354.087 166.664 354.99 166.351C355.176 166.287 355.38 166.216 355.605 166.141C363.566 163.469 371.478 160.65 379.375 157.784C397.396 151.241 408.912 147.21 416.244 144.645C426.958 140.894 428.729 140.275 428.788 139.521C428.8 139.372 428.744 139.217 428.678 139.032Z" fill="#180B02"/>
<path fill-rule="evenodd" clip-rule="evenodd" d="M388.383 120.633C371.242 109.714 377.7 88.9582 393.984 86.8359C394.698 87.3696 395.472 87.92 396.314 88.4961C394.552 88.5606 392.792 88.877 391.073 89.4866C372.386 96.1132 378.915 119.122 398.32 122.336C398.093 122.97 397.879 123.585 397.678 124.177C394.379 123.59 391.175 122.412 388.383 120.633ZM407.433 124.194C415.464 122.744 422.081 117.566 422.118 108.806C422.121 108.412 422.108 108.018 422.081 107.628C421.417 107.291 420.782 106.952 420.171 106.609C421.364 112.578 418.674 118.494 409.556 121.658C409.02 121.844 408.449 121.992 407.86 122.11C407.717 122.81 407.574 123.506 407.433 124.194ZM408.555 118.704C413.731 117.062 417.671 113.214 417.697 107.236C417.7 106.478 417.637 105.73 417.512 104.996C416.877 104.581 416.267 104.161 415.671 103.733C417.471 108.736 416.046 114 408.92 116.898C408.799 117.497 408.677 118.099 408.555 118.704ZM405.785 105.194C399.174 106.527 389.008 101.525 395.092 91.6278C378.665 95.1161 382.768 115.886 399.977 117.961C399.783 118.448 399.595 118.931 399.412 119.407C396.529 119.01 393.704 118.043 391.277 116.497C377.534 107.743 383.221 91.0637 396.331 89.954C396.614 89.6467 396.906 89.3661 397.202 89.1029C397.682 89.4337 398.149 89.7603 398.603 90.0828C397.711 90.8817 396.567 92.4529 395.135 95.732C392.747 101.195 402.412 105.319 407.027 102.956C406.617 103.661 406.202 104.41 405.785 105.194ZM409.841 99.0641C409.792 99.0219 409.742 98.9794 409.692 98.9369C409.671 99.0247 409.648 99.1123 409.625 99.1994C409.697 99.1476 409.769 99.1026 409.841 99.0641Z" fill="#180B02"/>
<path d="M413.568 100.785C405.288 94.1404 407.918 95.0241 397.174 87.7385C390.534 83.2365 388.292 80.4268 385.608 74.914C384.314 72.2554 383.157 69.5164 382.566 66.5828C382.302 65.2709 382.745 64.2156 383.953 63.6688C391.522 60.244 397.584 75.1901 405.932 76.1009C408.774 76.4107 407.044 73.3076 405.332 71.074C399.062 62.896 397.442 58.7288 392.659 57.556C391.855 57.3593 391.376 57.2745 391.413 56.8843C391.5 55.9757 394.178 55.5898 397.223 58.0082C398.743 59.2158 399.305 59.9288 407.202 70.8838C411.068 76.2477 408.183 78.1617 405.943 77.7128C401.093 76.74 397.726 73.6402 391.102 66.8937C387.146 62.8634 383.023 64.6025 383.765 66.6187C390.97 86.2331 395.144 82.1007 409.353 94.3339C412.862 97.3555 418.659 103.322 430.648 107.79C436.163 109.846 441.814 110.201 443.463 111.174C446.915 113.212 428.744 112.964 413.568 100.785Z" fill="#180B02"/>
<path d="M461.283 86.9731C464.989 87.5938 492.582 108.475 495.586 110.734C498.083 112.611 498.152 114.629 492.889 111.156C484.135 105.381 475.185 97.9738 462.623 89.2198C460.569 87.7883 462.83 91.573 455.188 103.706C452.049 108.689 445.303 115.242 444.138 116.123C443.44 116.65 441.93 115.723 472.578 152.237C474.833 154.925 474.264 156.312 471.012 152.929C465.625 147.323 450.153 128.331 447.783 125.075C441.354 116.245 441.79 116.579 443.261 114.956C450.2 107.304 452.662 104.925 456.574 96.7151C460.686 88.0894 459.856 87.1438 461.283 86.9731Z" fill="#180B02"/>
<path d="M404.951 47.1375C411.736 51.6155 415.48 53.6752 418.068 57.6968C419.566 60.025 418.56 60.9652 416.446 58.1816C413.881 54.8045 403.124 46.6701 396.446 45.5984C393.242 45.0843 388.889 51.6764 387.432 54.5763C385.804 57.8196 388.183 61.7173 387.198 61.8988C386.948 61.9445 386.851 61.7488 386.765 61.5619C383.959 55.4686 386.195 52.1633 391.333 46.4418C396.471 40.7214 402.498 46.7201 403.785 46.1495C412.844 42.1333 426.911 54.1654 425.948 55.2187C424.985 56.2719 419.283 48.1885 408.999 46.4821C407.612 46.2516 406.336 46.5907 404.951 47.1353V47.1375Z" fill="#180B02"/>
<path d="M432.645 50.2942C440.961 50.4985 445.47 59.5188 448.241 67.3609C450.868 74.7964 452.837 79.2735 457.531 86.87C459.286 89.7101 457.885 90.5274 455.614 86.4602C444.65 66.8208 445.271 54.1875 432.992 51.3615C431.781 51.0822 431.519 50.9648 431.533 50.6507C431.552 50.2137 432.083 50.28 432.645 50.2942Z" fill="#180B02"/>
<path d="M420.264 46.699C426.944 46.6044 433.987 53.4172 433.436 54.1541C432.796 55.0117 430.59 51.4836 424.498 48.6793C421.268 47.1924 417.271 48.0717 417.271 47.2196C417.271 46.6327 417.88 46.7327 420.264 46.699Z" fill="#180B02"/>
<path d="M410.931 100.878C410.424 104.697 403.564 137.228 403.558 137.264C402.414 143.1 397.796 137.419 385.073 124.991C382.192 122.177 384.266 122.657 388.015 124.123C397.389 127.789 397.024 130.205 397.624 128.066C400.297 118.55 410.541 95.6424 410.931 100.878Z" fill="#F07D29"/>
<path fill-rule="evenodd" clip-rule="evenodd" d="M220.509 53.2947C241.418 41.1373 244.19 39.4308 243.99 38.2118C243.959 38.0195 243.853 37.8394 243.733 37.6322L194.616 -46.101C193.9 -47.3143 193.601 -47.8783 193.188 -47.9824C192.774 -48.0854 192.246 -47.7306 191.073 -47.1062C183.976 -43.329 176.947 -39.4237 169.943 -35.4758C154 -26.4905 143.77 -20.8787 137.249 -17.3002C135.53 -16.3574 134.068 -15.5552 132.828 -14.8705C135.324 -15.7466 138.124 -16.7331 141.261 -17.8465C141.264 -17.8475 141.331 -17.8715 141.461 -17.9183C141.876 -18.0671 142.919 -18.4396 144.445 -18.9838C155.345 -25.0285 168.639 -32.4124 173.137 -34.9107C174.146 -35.4706 174.713 -35.7859 174.71 -35.7838C189.979 -44.1552 192.111 -46.1468 192.916 -45.7077C193.075 -45.6213 193.183 -45.4382 193.33 -45.1895C193.349 -45.1572 242.022 37.498 242.007 37.473C242.406 38.1477 242.274 38.2237 238.164 40.5906C236.987 41.2684 235.484 42.1341 233.573 43.2555C233.56 43.2631 227.691 46.6791 219.751 51.3145L220.509 53.2947Z" fill="#180B02"/>
<path d="M166.095 64.1305C166.106 63.2689 165.847 63.5572 176.725 59.1628C183.151 56.5666 198.797 50.2795 205.341 47.9903C206.682 47.521 206.455 47.7686 209.607 55.5521C210.105 56.782 209.97 56.987 208.706 57.499C200.241 60.9276 181.788 68.5581 171.089 72.3895C169.685 72.8921 169.597 72.8078 169.048 71.427C167.632 67.8641 166.814 66.1836 166.095 64.1305ZM170.868 70.8994C173.437 69.9972 177.007 68.1846 207.888 56.3054C208.753 55.9725 208.332 56.1629 205.894 49.9881C205.573 49.1755 205.402 49.5438 203.555 50.2826C166.11 65.2606 167.69 63.9942 168.01 64.7361C170.701 70.9764 170.49 71.0316 170.869 70.8984L170.868 70.8994Z" fill="#180B02"/>
<path d="M201.604 39.6842C202.523 39.7581 202.478 40.5239 201.784 40.8548C198.722 42.3147 200.45 41.6373 182.763 48.8662C168.299 54.7776 168.526 54.9556 168.012 53.9764C167.421 52.8494 168.581 52.7964 186.085 45.7122C195.685 41.8267 199.809 40.0234 201.604 39.6842Z" fill="#180B02"/>
<path d="M196.637 29.0165C197.728 28.977 197.816 30.028 197.119 30.4036C196.128 30.9364 197.12 30.5399 170.786 40.5554C167.874 41.6626 167.176 41.9081 166.893 41.0642C166.599 40.186 166.996 40.1007 175.942 36.7032C176.547 36.4732 195.99 29.0394 196.636 29.0165L196.637 29.0165Z" fill="#180B02"/>
<path d="M198.83 34.65C199.837 34.5823 199.979 35.3856 199.49 35.753C198.847 36.2358 199.509 35.9038 184.516 42.0338C183.873 42.2971 183.231 42.5052 182.941 41.807C182.537 40.8268 183.811 40.5958 185.593 39.8767C198.786 34.5521 197.182 35.1588 198.83 34.65Z" fill="#180B02"/>
<path d="M194.305 19.2574C195.224 19.3313 195.179 20.0972 194.485 20.4281C191.423 21.888 193.151 21.2106 175.465 28.4394C161.001 34.3509 161.227 34.5288 160.713 33.5496C160.122 32.4227 161.283 32.3696 178.786 25.2854C188.386 21.4 192.51 19.5966 194.305 19.2574Z" fill="#180B02"/>
<path d="M189.338 8.58977C190.429 8.55023 190.517 9.60121 189.82 9.97685C188.829 10.5096 189.821 10.1132 163.487 20.1286C160.575 21.2358 159.878 21.4814 159.595 20.6375C159.3 19.7592 159.698 19.6739 168.643 16.2765C169.248 16.0465 188.691 8.61267 189.337 8.58977L189.338 8.58977Z" fill="#180B02"/>
<path d="M191.531 14.2232C192.538 14.1556 192.68 14.9589 192.191 15.3262C191.548 15.809 192.211 15.4771 177.217 21.6071C176.574 21.8703 175.932 22.0785 175.643 21.3802C175.238 20.4 176.513 20.169 178.294 19.45C191.487 14.1254 189.883 14.732 191.531 14.2232Z" fill="#180B02"/>
<path fill-rule="evenodd" clip-rule="evenodd" d="M114.107 -5.90705L121.968 14.4475C122.312 13.947 122.689 13.4631 123.097 12.999C120.942 7.41535 118.62 1.41335 116.118 -5.04025C115.936 -5.51059 116.021 -5.62506 116.47 -5.77386C118.092 -6.30975 151.428 -18.1691 162.516 -22.1139L162.523 -22.116L162.529 -22.1181C164.747 -22.9068 166.071 -23.3782 166.068 -23.3771C173.431 -25.9515 177.985 -27.6976 180.833 -28.7902C184.342 -30.1356 185.263 -30.4894 185.659 -30.1762C185.8 -30.0649 185.874 -29.8693 185.975 -29.6039L185.979 -29.5945C185.991 -29.5602 220.423 59.9705 220.412 59.9424C220.682 60.636 220.554 60.6844 216.739 62.1198C215.386 62.6288 213.57 63.3123 211.143 64.2608L210.938 64.3384C207.521 65.6331 162.36 82.7449 152.282 86.8369C152.261 86.8457 152.24 86.8544 152.22 86.8629C152.133 86.9 152.055 86.933 151.976 86.9362C151.658 86.9493 151.32 86.4807 150.246 83.8613C149.881 84.2227 149.511 84.532 149.137 84.7947L150.447 88.1865L150.464 88.2185C150.577 88.4333 150.67 88.6096 150.812 88.7295C151.461 89.2809 153.126 88.6357 162.451 85.0225C166.533 83.4405 172.084 81.2896 179.662 78.4208C183.899 76.8167 187.72 75.3723 191.165 74.07C218.753 63.6416 222.241 62.3234 222.244 60.9964C222.245 60.8044 222.172 60.6122 222.089 60.3922L222.086 60.3826L187.394 -30.2855C187.351 -30.3968 187.311 -30.5029 187.272 -30.6039C186.853 -31.6996 186.653 -32.2199 186.295 -32.376C185.972 -32.5175 185.518 -32.3604 184.653 -32.0607C184.475 -31.9993 184.28 -31.9317 184.064 -31.8599C176.442 -29.3021 168.868 -26.6029 161.308 -23.8589C144.056 -17.5957 133.03 -13.7363 126.011 -11.2805C115.753 -7.68953 114.058 -7.09642 114.002 -6.37531C113.99 -6.23275 114.043 -6.08395 114.107 -5.90705Z" fill="#180B02"/>
<path d="M123.097 12.999C122.689 13.4631 122.312 13.947 121.968 14.4475L149.137 84.7947C149.511 84.532 149.881 84.2227 150.246 83.8613L123.097 12.999Z" fill="#180B02"/>
<path fill-rule="evenodd" clip-rule="evenodd" d="M549.5 48.9516C526.405 56.1374 523.322 57.1824 523.245 58.4152C523.233 58.6097 523.295 58.8088 523.366 59.0376L552.564 151.619C552.991 152.961 553.156 153.578 553.536 153.771C553.916 153.964 554.51 153.736 555.793 153.389C563.554 151.29 571.277 149.052 578.986 146.766C596.531 141.564 607.755 138.376 614.91 136.343C616.796 135.808 618.401 135.352 619.762 134.961C617.134 135.258 614.184 135.595 610.877 135.98C610.875 135.981 610.804 135.989 610.666 136.006C610.229 136.058 609.129 136.189 607.521 136.379C595.547 139.839 580.94 144.071 575.998 145.503C574.889 145.823 574.267 146.004 574.269 146.003C557.518 150.756 554.995 152.222 554.309 151.615C554.173 151.495 554.109 151.292 554.02 151.017C554.009 150.981 525.005 59.5503 525.013 59.5779C524.775 58.8312 524.921 58.7866 529.455 57.3964C530.754 56.9983 532.412 56.4898 534.525 55.8229C534.539 55.8184 541.023 53.7981 549.796 51.0508L549.5 48.9516Z" fill="#180B02"/>
<path d="M604.96 50.529C604.758 51.3665 605.075 51.1434 593.49 52.9999C586.646 54.0969 569.992 56.7348 563.102 57.5063C561.691 57.6647 561.967 57.4739 560.632 49.1834C560.42 47.8733 560.598 47.7036 561.944 47.4867C570.961 46.033 590.651 42.7118 601.935 41.364C603.415 41.1873 603.483 41.2892 603.709 42.7576C604.295 46.5466 604.717 48.3673 604.96 50.529ZM601.817 42.8658C599.113 43.1723 595.228 44.1427 562.475 48.8326C561.557 48.964 562.01 48.8724 563.009 55.4355C563.14 56.2992 563.39 55.9784 565.355 55.6703C605.198 49.4242 603.376 50.3062 603.229 49.5115C601.998 42.8281 602.216 42.8215 601.816 42.8666L601.817 42.8658Z" fill="#180B02"/>
<path d="M572.081 123.789C571.102 123.482 571.269 122.813 572.028 122.612C575.346 121.736 586.322 120.578 590.027 120.223C592.939 119.943 593.556 119.954 593.63 120.729C593.726 121.759 593.099 121.794 581.716 123.053C579.407 123.308 574.404 123.831 572.082 123.788L572.081 123.789Z" fill="#180B02"/>
<path d="M564.892 66.4369C564.013 66.1599 564.227 65.4233 564.978 65.2556C568.289 64.5157 566.453 64.7904 585.306 61.6898C600.725 59.1544 600.543 58.9303 600.826 59.9995C601.15 61.2299 600.008 61.0228 581.365 64.0232C571.14 65.6689 566.718 66.5067 564.892 66.4369Z" fill="#180B02"/>
<path d="M567.355 77.9438C566.283 77.739 566.431 76.6948 567.194 76.4842C568.279 76.1859 567.224 76.3511 595.128 72.4633C598.214 72.0339 598.949 71.9501 599.036 72.8358C599.127 73.7577 598.721 73.7521 589.243 75.0681C588.602 75.1574 567.991 78.0659 567.356 77.944L567.355 77.9438Z" fill="#180B02"/>
<path d="M566.473 71.9632C565.476 71.8044 565.518 70.9898 566.076 70.7408C566.811 70.4137 566.091 70.5894 582.074 67.9591C582.76 67.8459 583.432 67.7863 583.558 68.5315C583.734 69.5773 582.44 69.5181 580.543 69.8215C566.494 72.0683 568.194 71.835 566.473 71.9632Z" fill="#180B02"/>
<path d="M567.45 87.9772C566.571 87.7001 566.785 86.9636 567.535 86.7959C570.846 86.056 569.01 86.3307 587.864 83.2301C603.282 80.6947 603.101 80.4706 603.383 81.5398C603.708 82.7702 602.565 82.5631 583.923 85.5635C573.697 87.2092 569.275 88.047 567.45 87.9772Z" fill="#180B02"/>
<path d="M569.912 99.4841C568.84 99.2793 568.989 98.2351 569.752 98.0245C570.837 97.7262 569.781 97.8914 597.686 94.0036C600.772 93.5742 601.506 93.4904 601.594 94.3761C601.685 95.2979 601.279 95.2924 591.8 96.6084C591.16 96.6976 570.548 99.6062 569.913 99.4843L569.912 99.4841Z" fill="#180B02"/>
<path d="M569.031 93.5035C568.034 93.3447 568.075 92.5301 568.634 92.2811C569.369 91.9539 568.648 92.1296 584.632 89.4994C585.317 89.3862 585.989 89.3266 586.116 90.0717C586.292 91.1176 584.997 91.0583 583.1 91.3618C569.052 93.6086 570.751 93.3752 569.031 93.5035Z" fill="#180B02"/>
<path d="M573.891 128.941C572.693 128.634 572.871 127.568 573.875 127.403C577.46 126.817 579.029 126.701 584.111 126.184C585.416 126.052 585.659 127.521 584.241 127.748C581.922 128.12 575.604 128.939 573.891 128.941Z" fill="#180B02"/>
<path fill-rule="evenodd" clip-rule="evenodd" d="M640.011 130.4L636.889 108.805C636.443 109.216 635.968 109.604 635.466 109.965C636.321 115.889 637.246 122.257 638.244 129.106C638.317 129.606 638.209 129.698 637.738 129.743C636.037 129.904 600.895 134.026 589.207 135.398L589.2 135.399L589.194 135.399C586.855 135.673 585.459 135.837 585.463 135.837C577.711 136.704 572.882 137.39 569.862 137.819C566.141 138.348 565.164 138.487 564.848 138.094C564.736 137.954 564.707 137.746 564.668 137.465L564.666 137.455C564.662 137.419 551.073 42.4632 551.077 42.4929C550.969 41.7566 551.105 41.7381 555.144 41.19C556.576 40.9956 558.499 40.7346 561.076 40.3515L561.293 40.3214C564.913 39.8218 612.754 33.2172 623.49 31.4767C623.513 31.473 623.535 31.4691 623.557 31.4652C623.65 31.4487 623.734 31.4339 623.811 31.4483C624.125 31.5066 624.349 32.0387 624.812 34.8316C625.248 34.5607 625.678 34.3419 626.101 34.1693L625.581 30.5706L625.572 30.5357C625.509 30.3011 625.457 30.1083 625.346 29.9599C624.836 29.2775 623.069 29.535 613.173 30.9767C608.841 31.6079 602.95 32.4662 594.923 33.5721C590.435 34.1905 586.388 34.746 582.739 35.2467C553.52 39.257 549.826 39.7639 549.527 41.0568C549.483 41.2438 549.511 41.4473 549.543 41.6803L549.544 41.6905L563.133 137.813C563.149 137.931 563.165 138.044 563.181 138.151C563.345 139.312 563.423 139.864 563.737 140.096C564.021 140.306 564.499 140.254 565.408 140.155C565.595 140.135 565.801 140.113 566.027 140.091C574.028 139.298 582.013 138.357 589.995 137.369C608.21 135.112 619.819 133.81 627.209 132.982C638.009 131.77 639.794 131.57 640.009 130.88C640.052 130.744 640.034 130.587 640.011 130.4Z" fill="#180B02"/>
<path d="M635.466 109.965C635.968 109.604 636.443 109.216 636.889 108.805L626.101 34.1693C625.678 34.3419 625.248 34.5607 624.812 34.8316L635.466 109.965Z" fill="#180B02"/>
<path fill-rule="evenodd" clip-rule="evenodd" d="M176.888 156.599C173.946 156.504 170.944 157.2 168.213 158.777C160.408 163.283 157.727 173.297 162.232 181.099C166.737 188.903 176.749 191.586 184.553 187.08C185.974 186.26 187.225 185.258 188.293 184.119C187.86 183.842 187.431 183.542 187.006 183.22C186.074 184.184 184.994 185.035 183.776 185.738C176.712 189.816 167.651 187.388 163.573 180.324C159.495 173.261 161.923 164.2 168.986 160.121C171.404 158.726 174.055 158.092 176.661 158.146C176.721 157.626 176.797 157.11 176.888 156.599Z" fill="#F07D29"/>
<path fill-rule="evenodd" clip-rule="evenodd" d="M162.215 165.071C163.603 162.475 165.707 160.224 168.439 158.647C176.243 154.141 186.256 156.826 190.76 164.628C195.266 172.432 192.584 182.444 184.779 186.949C183.359 187.769 181.865 188.352 180.345 188.708C180.322 188.194 180.277 187.673 180.21 187.144C181.511 186.818 182.788 186.308 184.006 185.605C191.069 181.527 193.497 172.466 189.419 165.402C185.341 158.339 176.28 155.911 169.216 159.989C166.799 161.384 164.925 163.364 163.668 165.648C163.187 165.44 162.702 165.247 162.215 165.071Z" fill="#F07D29"/>
<path d="M205.959 170.11C202.398 171.581 170.796 181.905 170.762 181.917C165.135 183.846 167.746 177.005 172.147 159.773C173.144 155.871 173.766 157.907 174.371 161.887C175.882 171.837 173.608 172.73 175.76 172.18C185.338 169.737 210.298 167.155 205.959 170.11Z" fill="#F07D29"/>
<path fill-rule="evenodd" clip-rule="evenodd" d="M497.533 17.9284C500.184 16.6481 502.52 14.6385 504.208 11.974C509.03 4.36132 506.758 -5.75381 499.148 -10.5745C491.536 -15.397 481.422 -13.1278 476.6 -5.51513C475.722 -4.12959 475.079 -2.66117 474.661 -1.1567C475.173 -1.11257 475.692 -1.04628 476.218 -0.957825C476.596 -2.24397 477.159 -3.49882 477.911 -4.68695C482.276 -11.577 491.429 -13.6308 498.319 -9.26612C505.209 -4.90141 507.263 4.25209 502.899 11.1421C501.405 13.5 499.35 15.2914 497.017 16.4534C497.205 16.9419 497.377 17.4343 497.533 17.9284Z" fill="#F07D29"/>
<path fill-rule="evenodd" clip-rule="evenodd" d="M506.601 3.61595C506.575 6.55924 505.757 9.52991 504.069 12.1945C499.246 19.8071 489.13 22.0746 481.52 17.2539C473.908 12.4314 471.638 2.31803 476.461 -5.29462C477.338 -6.68016 478.391 -7.88917 479.573 -8.9097C479.832 -8.46524 480.114 -8.02434 480.418 -7.58697C479.417 -6.69519 478.523 -5.6509 477.77 -4.46278C473.405 2.42727 475.459 11.5808 482.349 15.9455C489.239 20.3102 498.393 18.2563 502.757 11.3663C504.251 9.00841 504.993 6.38515 505.046 3.77892C505.568 3.74038 506.087 3.68558 506.601 3.61595Z" fill="#F07D29"/>
<path d="M465.512 19.4496C467.985 16.4948 491.188 -7.31482 491.212 -7.34163C495.302 -11.6604 496.163 -4.3896 500.261 12.9177C501.188 16.8363 499.692 15.3216 497.31 12.0768C491.354 3.96362 492.954 2.11735 491.303 3.60327C483.953 10.2117 463.04 24.0813 465.512 19.4496Z" fill="#F07D29"/>
<path fill-rule="evenodd" clip-rule="evenodd" d="M461.279 219.595C461.422 222.535 462.359 225.471 464.152 228.066C469.275 235.479 479.474 237.34 486.885 232.219C494.298 227.096 496.161 216.9 491.038 209.486C490.106 208.137 489.005 206.971 487.784 205.998C487.543 206.453 487.279 206.905 486.992 207.354C488.028 208.205 488.964 209.213 489.763 210.37C494.4 217.08 492.714 226.308 486.004 230.945C479.294 235.582 470.066 233.896 465.429 227.186C463.842 224.89 462.996 222.298 462.838 219.696C462.315 219.678 461.795 219.644 461.279 219.595Z" fill="#F07D29"/>
<path fill-rule="evenodd" clip-rule="evenodd" d="M470.911 233.534C468.211 232.36 465.797 230.446 464.003 227.851C458.88 220.437 460.746 210.239 468.157 205.118C475.57 199.995 485.766 201.858 490.889 209.271C491.822 210.621 492.523 212.062 493.001 213.549C492.491 213.613 491.975 213.7 491.453 213.81C491.024 212.54 490.412 211.308 489.612 210.151C484.975 203.441 475.747 201.755 469.037 206.392C462.327 211.029 460.641 220.258 465.278 226.967C466.865 229.264 468.99 230.971 471.368 232.039C471.199 232.535 471.047 233.034 470.911 233.534Z" fill="#F07D29"/>
<path d="M472.391 189.525C474.145 192.956 486.995 223.617 487.01 223.65C489.388 229.102 482.359 227.054 464.826 224.063C460.857 223.386 462.835 222.601 466.753 221.676C476.548 219.363 477.623 221.558 476.9 219.457C473.689 210.109 469.093 185.439 472.391 189.525Z" fill="#F07D29"/>
</g>
<defs>
<clipPath id="clip0_524_976">
<rect width="600" height="224" fill="white"/>
</clipPath>
</defs>
</svg>
