<svg xmlns="http://www.w3.org/2000/svg" width="659" height="424" fill="none"><path fill="url(#a)" fill-opacity=".5" d="m.003 352.466 404.971-235.343L659 263.785v-1.14L405.218 116.124a.495.495 0 0 0-.495.001L.003 351.324v1.142Z"/><path fill="#B2E5CC" stroke="#807974" stroke-linecap="round" stroke-linejoin="round" stroke-miterlimit="10" stroke-width="1.5" d="M187.677 408.597c2.715 1.576 7.144 1.576 9.878 0l49.986-28.86c1.375-.793 2.062-1.839 2.06-2.88.01 3.459.022 6.914.031 10.373.002 1.04-.686 2.084-2.06 2.878l-49.987 28.858c-2.735 1.58-7.162 1.58-9.877 0l-84.097-48.872-.031-10.367 84.097 48.87Z"/><path fill="#fff" stroke="#807974" stroke-linecap="round" stroke-linejoin="round" stroke-miterlimit="10" stroke-width="1.5" d="m103.578 359.726 84.097 48.871c2.715 1.576 7.145 1.576 9.879 0l49.986-28.86c2.735-1.582 2.744-4.143.033-5.72l-84.1-48.873-59.895 34.582Z"/><path stroke="#807974" stroke-linecap="round" stroke-linejoin="round" stroke-miterlimit="10" stroke-width="1.5" d="M105.586 360.891v10.354"/><path fill="#F07D29" stroke="#807974" stroke-linecap="round" stroke-linejoin="round" stroke-miterlimit="10" stroke-width="1.5" d="M153.125 330.033c0 .35.029.71.078 1.074l-5.277 3.044a8.285 8.285 0 0 1-.075-1.054c.005-1.719.614-2.929 1.59-3.497l5.275-3.064c-.978.568-1.584 1.778-1.591 3.497Z"/><path fill="#FDEEE3" stroke="#807974" stroke-linecap="round" stroke-linejoin="round" stroke-miterlimit="10" stroke-width="1.5" d="M152.696 323.058c1.51-.877 3.599-.752 5.908.58 2.926 1.689 5.494 4.908 6.966 8.385l-5.274 3.067c-1.473-3.478-4.038-6.697-6.965-8.389-2.309-1.333-4.4-1.455-5.909-.579 1.758-1.019 3.517-2.042 5.274-3.064Z"/><path fill="#F07D29" stroke="#807974" stroke-linecap="round" stroke-linejoin="round" stroke-miterlimit="10" stroke-width="1.5" d="M153.32 329.978c-3.01-1.737-5.458-.34-5.468 3.119 0 .344.029.696.075 1.054l-2.303 1.327c-.404-1.362-.628-2.729-.624-4.026.014-5.272 3.744-7.397 8.331-4.751 2.927 1.692 5.492 4.912 6.965 8.389l-3.913-2.259c-.872-1.188-1.925-2.195-3.063-2.853ZM142.771 336.003c-.001.352.029.71.076 1.074l-5.276 3.045a8.28 8.28 0 0 1-.073-1.055c.005-1.718.613-2.928 1.591-3.496l5.274-3.063c-.98.568-1.588 1.775-1.592 3.495Z"/><path fill="#FDEEE3" stroke="#807974" stroke-linecap="round" stroke-linejoin="round" stroke-miterlimit="10" stroke-width="1.5" d="M142.34 329.028c1.51-.876 3.601-.751 5.907.58 2.928 1.688 5.494 4.91 6.967 8.386l-5.274 3.067c-1.473-3.479-4.037-6.699-6.966-8.39-2.308-1.332-4.399-1.454-5.909-.579 1.76-1.018 3.517-2.041 5.275-3.064Z"/><path fill="#F07D29" stroke="#807974" stroke-linecap="round" stroke-linejoin="round" stroke-miterlimit="10" stroke-width="1.5" d="M142.965 335.95c-3.011-1.737-5.459-.34-5.469 3.117 0 .344.028.699.074 1.055l-2.302 1.328c-.405-1.364-.628-2.731-.625-4.03.016-5.271 3.743-7.394 8.331-4.749 2.927 1.691 5.493 4.912 6.966 8.39l-3.912-2.26c-.873-1.184-1.926-2.194-3.063-2.851ZM132.414 341.974c0 .352.03.71.078 1.074l-5.276 3.044a7.892 7.892 0 0 1-.074-1.053c.005-1.718.612-2.927 1.591-3.498l5.273-3.064c-.978.571-1.585 1.779-1.592 3.497Z"/><path fill="#FDEEE3" stroke="#807974" stroke-linecap="round" stroke-linejoin="round" stroke-miterlimit="10" stroke-width="1.5" d="M131.986 335.001c1.51-.877 3.601-.754 5.907.578 2.929 1.689 5.494 4.909 6.966 8.389l-5.274 3.065c-1.473-3.48-4.037-6.698-6.965-8.39-2.309-1.33-4.4-1.455-5.91-.577l5.276-3.065Z"/><path fill="#F07D29" stroke="#807974" stroke-linecap="round" stroke-linejoin="round" stroke-miterlimit="10" stroke-width="1.5" d="M132.611 341.922c-3.011-1.738-5.46-.341-5.469 3.117-.001.344.028.697.074 1.053l-2.301 1.328c-.406-1.362-.629-2.731-.626-4.028.016-5.27 3.745-7.394 8.332-4.75 2.927 1.692 5.492 4.91 6.966 8.39l-3.912-2.26c-.874-1.185-1.928-2.195-3.064-2.85ZM122.059 347.948c0 .348.03.709.079 1.073l-5.278 3.043a8.069 8.069 0 0 1-.075-1.054c.006-1.717.613-2.925 1.591-3.494l5.275-3.066c-.979.567-1.587 1.779-1.592 3.498Z"/><path fill="#FDEEE3" stroke="#807974" stroke-linecap="round" stroke-linejoin="round" stroke-miterlimit="10" stroke-width="1.5" d="M121.63 340.973c1.509-.879 3.601-.755 5.909.578 2.926 1.691 5.493 4.912 6.966 8.389l-5.275 3.064c-1.472-3.48-4.038-6.697-6.964-8.388-2.31-1.334-4.4-1.456-5.912-.58 1.759-1.021 3.518-2.041 5.276-3.063Z"/><path fill="#F07D29" stroke="#807974" stroke-linecap="round" stroke-linejoin="round" stroke-miterlimit="10" stroke-width="1.5" d="M122.255 347.893c-3.012-1.736-5.46-.342-5.47 3.115 0 .347.028.698.075 1.055l-2.301 1.33c-.404-1.366-.63-2.734-.625-4.032.015-5.268 3.745-7.393 8.333-4.746 2.926 1.691 5.492 4.909 6.964 8.388l-3.912-2.26c-.873-1.184-1.928-2.194-3.064-2.85ZM111.704 353.919c-.001.352.029.71.077 1.071l-5.276 3.045a8.02 8.02 0 0 1-.074-1.055c.005-1.717.612-2.925 1.591-3.494l5.275-3.064c-.981.568-1.589 1.778-1.593 3.497Z"/><path fill="#FDEEE3" stroke="#807974" stroke-linecap="round" stroke-linejoin="round" stroke-miterlimit="10" stroke-width="1.5" d="M111.273 346.944c1.511-.879 3.601-.753 5.91.578 2.928 1.689 5.494 4.911 6.966 8.388l-5.273 3.066c-1.473-3.48-4.039-6.7-6.966-8.388-2.309-1.334-4.399-1.458-5.91-.579 1.76-1.021 3.517-2.044 5.273-3.065Z"/><path fill="#F07D29" stroke="#807974" stroke-linecap="round" stroke-linejoin="round" stroke-miterlimit="10" stroke-width="1.5" d="M111.9 353.866c-3.011-1.739-5.46-.344-5.47 3.114-.002.348.027.7.074 1.055l-2.302 1.33c-.407-1.363-.63-2.73-.626-4.027.016-5.273 3.745-7.395 8.333-4.749 2.926 1.689 5.492 4.91 6.965 8.388l-3.913-2.259c-.871-1.188-1.924-2.196-3.061-2.852Z"/><path fill="#B2E5CC" stroke="#807974" stroke-linecap="round" stroke-linejoin="round" stroke-miterlimit="10" stroke-width="1.5" d="m129.088 359.843 37.804-21.826c1.323-.765 3.461-.765 4.775 0l18.284 10.626c1.32.764 1.32 2.007-.005 2.77l-37.805 21.826c-1.324.765-3.467.761-4.782-.002l-18.286-10.628c-1.315-.764-1.307-2.002.015-2.766Z"/><path fill="#DBEDFF" d="m142.789 152.461 180.08-103.97c.751-.434 1.524-.56 2.234-.42.754.146 1.501.293 2.255.44l.75.146c-.714-.14-1.487-.015-2.237.419l-180.079 103.97c-2.109 1.217-3.285 4.404-2.616 7.081l33.686 134.89c.431 1.723 1.524 2.835 2.808 3.086l-3.004-.585c-1.286-.251-2.379-1.361-2.807-3.086l-33.687-134.891c-.667-2.675.51-5.862 2.617-7.08Z"/><path fill="#fff" d="m145.793 153.048 180.08-103.97c2.103-1.213 4.374-.015 5.041 2.659l33.688 134.891c.67 2.683-.505 5.87-2.607 7.084L181.913 297.684c-2.109 1.215-4.377.018-5.049-2.665l-33.687-134.891c-.67-2.677.507-5.865 2.616-7.08Z"/><path stroke="#807974" stroke-linecap="round" stroke-linejoin="round" stroke-miterlimit="10" stroke-width=".75" d="m145.793 153.048 180.08-103.97c2.103-1.213 4.374-.015 5.041 2.659l33.688 134.891c.67 2.683-.505 5.87-2.607 7.084L181.913 297.684c-2.109 1.215-4.377.018-5.049-2.665l-33.687-134.891c-.67-2.677.507-5.865 2.616-7.08Z"/><path fill="#FDEEE3" d="M148.807 159.436 326.403 56.902c.698-.404 1.457-.005 1.68.886l29.8 119.334c.222.893-.17 1.955-.87 2.36L179.419 282.015c-.701.406-1.457.007-1.681-.885l-29.8-119.335c-.222-.892.17-1.956.869-2.359Z"/><path stroke="#807974" stroke-linecap="round" stroke-linejoin="round" stroke-miterlimit="10" stroke-width="1.5" d="m179.671 298.103-3.004-.585c-1.286-.251-2.379-1.361-2.807-3.086l-33.687-134.891c-.668-2.675.508-5.863 2.615-7.08l180.08-103.97c.751-.434 1.523-.56 2.234-.42.754.146 2.375.467 3.125.614"/><path fill="#DBEDFF" d="m181.466 299.344 105.29 64.449c2.09 1.214 5.525 1.212 7.63-.004l180.081-103.971c1.058-.612 1.588-1.417 1.585-2.225.008 2.443.016 1.628.021 4.074.003.805-.527 1.614-1.585 2.224l-180.077 103.97c-2.112 1.217-5.544 1.217-7.634.004l-105.29-61.189c-1.041-.603-1.56-1.398-1.563-2.197-.006-2.443-.016-4.888-.022-7.332.004.798.523 1.592 1.564 2.197Z"/><path stroke="#807974" stroke-linecap="round" stroke-linejoin="round" stroke-miterlimit="10" stroke-width="1.5" d="M476.052 257.594c.008 2.444.016 1.628.021 4.074.003.805-.527 1.615-1.585 2.225L294.411 367.862c-2.112 1.218-5.544 1.218-7.634.004l-105.29-61.188c-1.041-.604-1.56-1.399-1.563-2.197-.006-2.444-.016-4.889-.022-7.332"/><path fill="#fff" d="m181.49 294.92 180.082-103.971c2.104-1.212 5.537-1.212 7.63.004l105.291 64.448c2.088 1.215 2.077 3.203-.026 4.417L294.386 363.789c-2.105 1.216-5.54 1.218-7.63.004l-105.29-64.449c-2.094-1.217-2.084-3.206.024-4.424Z"/><path stroke="#807974" stroke-linecap="round" stroke-linejoin="round" stroke-miterlimit="10" stroke-width="1.5" d="m181.49 294.92 180.082-103.971c2.104-1.212 5.537-1.212 7.63.004l105.291 64.448c2.088 1.215 2.077 3.203-.026 4.417L294.386 363.789c-2.105 1.216-5.54 1.218-7.63.004l-105.29-64.449c-2.094-1.217-2.084-3.206.024-4.424Z"/><path fill="#807974" d="m268.512 314.204 5.401-3.119c1.154-.667 3.044-.668 4.192 0l4.9 2.846c1.148.671 1.148 1.766-.007 2.433l-5.4 3.118c-1.153.666-3.053.666-4.199-.004l-4.904-2.845c-1.149-.667-1.137-1.767.017-2.429ZM260.605 316.633l-5.272 3.045c-1.159.669-3.043.671-4.196.003l-4.924-2.863c-1.155-.668-1.141-1.759.018-2.431l5.275-3.045c1.16-.669 3.043-.673 4.194-.003l4.928 2.864c1.149.667 1.137 1.76-.023 2.43ZM257.175 320.746l5.274-3.045c1.16-.669 3.049-.669 4.194-.002l4.902 2.849c1.148.667 1.148 1.763-.012 2.435l-5.272 3.043c-1.16.668-3.054.668-4.202 0l-4.901-2.846c-1.147-.668-1.142-1.763.017-2.434ZM282.396 304.051l-15.725 9.08c-1.155.668-3.045.675-4.198.002l-4.925-2.862c-1.151-.669-1.132-1.762.022-2.429l15.727-9.081c1.157-.67 3.044-.674 4.197-.003l4.924 2.861c1.151.67 1.138 1.761-.022 2.432ZM293.204 297.812l-4.748 2.74c-1.153.665-3.04.669-4.192 0l-4.923-2.863c-1.155-.67-1.143-1.76.012-2.426l4.751-2.743c1.16-.671 3.043-.674 4.198-.004l4.924 2.861c1.151.675 1.141 1.765-.022 2.435ZM279.98 280.327l-4.747 2.74c-1.158.666-3.045.666-4.199-.002l-5.336-3.1c-1.145-.667-1.14-1.761.015-2.428l4.75-2.742c1.16-.672 3.05-.67 4.195-.004l5.337 3.102c1.155.668 1.149 1.762-.015 2.434ZM254.68 286.328c-1.148-.667-1.143-1.762.021-2.431l4.948-2.86c1.162-.669 3.052-.669 4.197-.002l5.338 3.098c1.151.671 1.144 1.765-.015 2.436l-4.951 2.859c-1.16.669-3.05.669-4.202 0l-5.336-3.1ZM282.28 253.238l-4.15 2.396c-1.163.67-3.05.668-4.203 0l-.778-.452c-1.151-.672-1.145-1.763.016-2.437l4.151-2.396c1.16-.668 3.049-.668 4.204 0l.773.453c1.156.671 1.149 1.763-.013 2.436ZM272.064 259.135l-5.369 3.1c-1.155.668-3.048.668-4.198-.002l-.774-.45c-1.154-.671-1.148-1.765.005-2.432l5.373-3.103c1.15-.662 3.047-.668 4.2 0l.779.454c1.151.669 1.137 1.767-.016 2.433ZM268.636 263.364l5.368-3.101c1.155-.666 3.05-.669 4.195-.005l4.76 2.768c1.148.667 1.136 1.764-.019 2.43l-5.368 3.103c-1.158.665-3.046.665-4.192 0l-4.76-2.768c-1.145-.668-1.141-1.762.016-2.427ZM301.304 244.5l4.749-2.74c1.162-.671 3.051-.671 4.198-.006l4.759 2.768c1.144.668 1.137 1.761-.023 2.431l-4.747 2.742c-1.157.666-3.045.666-4.193 0l-4.757-2.766c-1.147-.667-1.141-1.762.014-2.429ZM290.287 250.86l4.958-2.861c1.153-.667 3.05-.672 4.198-.003l4.759 2.766c1.144.666 1.132 1.763-.022 2.43l-4.957 2.863c-1.16.671-3.049.671-4.194.004l-4.761-2.768c-1.148-.668-1.141-1.758.019-2.431ZM353.399 226.912l4.752-2.744c1.158-.669 3.048-.669 4.196-.002l5.334 3.1c1.153.672 1.148 1.764-.013 2.434l-4.75 2.743c-1.153.667-3.043.667-4.197-.002l-5.336-3.102c-1.144-.668-1.139-1.761.014-2.427ZM345.511 218.978l4.75-2.741c1.153-.667 3.047-.673 4.195-.003l4.76 2.765c1.145.667 1.132 1.766-.021 2.429l-4.752 2.743c-1.153.667-3.048.671-4.194.004l-4.759-2.765c-1.147-.667-1.135-1.765.021-2.432ZM348.32 215.108l-4.75 2.742c-1.154.669-3.05.671-4.202 0l-.778-.45c-1.15-.67-1.14-1.768.016-2.434l4.75-2.741c1.153-.67 3.049-.673 4.202 0l.778.449c1.15.67 1.137 1.769-.016 2.434ZM337.511 221.35l-4.956 2.862c-1.161.671-3.05.669-4.204-.002l-.774-.449c-1.155-.671-1.145-1.764.012-2.436l4.958-2.86c1.151-.669 3.043-.669 4.197.003l.775.451c1.153.668 1.148 1.763-.008 2.431ZM304.114 240.631l-4.751 2.743c-1.154.668-3.044.668-4.198-.001l-.774-.455c-1.154-.668-1.148-1.762.008-2.43l4.747-2.742c1.162-.669 3.05-.669 4.202 0l.777.451c1.154.672 1.146 1.764-.011 2.434ZM326.488 227.712l-4.882 2.82c-1.153.665-3.048.67-4.2 0l-.779-.453c-1.149-.668-1.137-1.767.017-2.434l4.881-2.816c1.161-.673 3.05-.673 4.202-.002l.775.451c1.153.67 1.147 1.765-.014 2.434ZM334.497 225.337l4.955-2.862c1.156-.665 3.043-.665 4.189 0l4.759 2.766c1.148.668 1.143 1.762-.01 2.429l-4.959 2.862c-1.158.671-3.05.671-4.198.004l-4.756-2.767c-1.147-.667-1.142-1.761.02-2.432ZM323.548 231.657l4.882-2.817c1.16-.672 3.05-.672 4.198-.005l4.759 2.768c1.143.667 1.137 1.76-.024 2.432l-4.88 2.818c-1.154.667-3.05.668-4.198.001l-4.756-2.764c-1.148-.667-1.136-1.763.019-2.433ZM315.545 234.035l-5.367 3.096c-1.16.671-3.05.669-4.202 0l-.776-.451c-1.152-.669-1.145-1.766.015-2.434l5.362-3.098c1.16-.67 3.05-.67 4.204 0l.775.45c1.154.671 1.145 1.765-.011 2.437ZM312.117 238.256l5.367-3.097c1.16-.67 3.046-.67 4.195-.003l4.758 2.765c1.147.667 1.14 1.764-.02 2.431l-5.363 3.1c-1.161.668-3.05.668-4.199.002l-4.757-2.767c-1.148-.665-1.141-1.759.019-2.431ZM386.02 229.119c1.15.669 1.145 1.763-.016 2.435l-5.362 3.096c-1.161.672-3.049.672-4.203 0l-4.71-2.739c-1.156-.669-1.148-1.766.01-2.433l5.367-3.098c1.159-.67 3.051-.67 4.202 0l4.712 2.739ZM360.913 238.155c-1.156-.67-1.148-1.762.011-2.433l4.751-2.744c1.153-.667 3.043-.667 4.197.005l4.713 2.738c1.153.672 1.148 1.764-.008 2.431l-4.75 2.742c-1.161.672-3.05.672-4.203 0l-4.711-2.739ZM342.386 233.272l4.956-2.863c1.156-.667 3.043-.667 4.188 0l5.337 3.1c1.153.672 1.145 1.765-.008 2.432l-4.958 2.862c-1.154.667-3.051.67-4.202 0l-5.337-3.101c-1.141-.667-1.132-1.765.024-2.43ZM331.436 239.59l4.883-2.818c1.159-.669 3.05-.669 4.194-.002l5.339 3.098c1.154.672 1.148 1.765-.013 2.437l-4.88 2.817c-1.156.668-3.046.668-4.199-.003l-5.337-3.101c-1.147-.667-1.14-1.761.013-2.428ZM320.008 246.189l5.368-3.099c1.157-.667 3.046-.667 4.191 0l5.338 3.099c1.151.673 1.143 1.765-.01 2.432l-5.37 3.1c-1.155.667-3.05.672-4.203 0l-5.333-3.1c-1.146-.668-1.136-1.766.019-2.432ZM352.748 250.756l-4.886 2.818c-1.153.667-3.048.67-4.201 0l-4.714-2.741c-1.15-.668-1.137-1.765.016-2.431l4.881-2.821c1.161-.669 3.051-.669 4.202 0l4.715 2.74c1.15.671 1.143 1.767-.013 2.435ZM309.2 252.429l4.745-2.738c1.16-.669 3.046-.669 4.195-.002l5.335 3.1c1.152.668 1.147 1.763-.014 2.434l-4.745 2.738c-1.16.672-3.05.672-4.202 0l-5.336-3.1c-1.144-.666-1.139-1.76.022-2.432ZM341.8 257.075l-5.367 3.099c-1.156.669-3.046.669-4.202 0l-4.713-2.739c-1.155-.671-1.147-1.764.014-2.435l5.363-3.097c1.164-.67 3.05-.67 4.203 0l4.716 2.738c1.152.67 1.144 1.766-.014 2.434ZM359.065 259.785l-4.883 2.819c-1.156.669-3.04.675-4.194.005l-4.924-2.863c-1.153-.67-1.142-1.76.019-2.431l4.883-2.818c1.153-.667 3.038-.671 4.191 0l4.924 2.861c1.152.668 1.142 1.76-.016 2.427ZM379.363 260.728l-4.884 2.819c-1.153.667-3.048.663-4.199-.004l-4.901-2.848c-1.146-.667-1.138-1.763.015-2.428l4.881-2.819c1.161-.669 3.051-.671 4.198-.002l4.899 2.847c1.152.668 1.152 1.764-.009 2.435ZM298.183 258.789l4.952-2.858c1.153-.665 3.05-.67 4.198-.003l5.333 3.103c1.154.668 1.142 1.764-.013 2.431l-4.953 2.86c-1.158.67-3.047.67-4.2 0l-5.334-3.101c-1.149-.665-1.143-1.761.017-2.432ZM330.37 263.677l-4.75 2.742c-1.161.669-3.046.665-4.199-.006l-4.711-2.736c-1.152-.674-1.152-1.764.005-2.435l4.752-2.74c1.162-.669 3.052-.669 4.203 0l4.712 2.738c1.154.672 1.149 1.763-.012 2.437ZM348.119 266.106l-5.372 3.102c-1.15.663-3.035.667-4.188 0l-4.924-2.865c-1.154-.669-1.14-1.759.013-2.429l5.372-3.099c1.158-.669 3.035-.669 4.189 0l4.924 2.864c1.153.669 1.148 1.757-.014 2.427ZM287.958 264.693l4.161-2.4c1.15-.667 3.042-.667 4.19 0l5.335 3.099c1.155.672 1.147 1.766-.008 2.433l-4.158 2.4c-1.155.665-3.045.665-4.197-.004l-5.335-3.1c-1.148-.666-1.14-1.762.012-2.428ZM319.553 269.919l-4.948 2.856c-1.162.672-3.052.672-4.203 0l-4.714-2.738c-1.151-.668-1.146-1.763.016-2.434l4.95-2.857c1.161-.671 3.05-.671 4.203 0l4.712 2.737c1.153.672 1.147 1.766-.016 2.436ZM336.684 272.708l-4.744 2.74c-1.16.671-3.045.673-4.196.002l-4.924-2.86c-1.153-.671-1.141-1.762.019-2.433l4.746-2.739c1.16-.67 3.043-.673 4.196-.003l4.922 2.861c1.153.671 1.14 1.762-.019 2.432ZM276.528 271.292l5.366-3.099c1.161-.669 3.048-.669 4.196-.002l5.334 3.101c1.155.668 1.148 1.764-.014 2.433l-5.363 3.099c-1.16.669-3.05.669-4.202 0l-5.337-3.102c-1.146-.666-1.141-1.762.02-2.43ZM308.538 276.279l-4.151 2.398c-1.161.669-3.05.669-4.205 0l-4.711-2.739c-1.155-.669-1.144-1.765.011-2.434l4.153-2.396c1.16-.671 3.05-.671 4.204 0l4.713 2.737c1.153.67 1.148 1.765-.014 2.434ZM325.873 278.948l-4.953 2.863c-1.157.667-3.042.671-4.193 0l-4.924-2.863c-1.153-.669-1.141-1.762.013-2.426l4.957-2.866c1.155-.666 3.041-.668 4.193 0l4.923 2.866c1.153.669 1.141 1.759-.016 2.426ZM298.32 282.179l-5.369 3.1c-1.154.667-3.045.667-4.2-.003l-4.71-2.74c-1.153-.67-1.148-1.763.006-2.433l5.37-3.099c1.162-.669 3.051-.669 4.203 0l4.715 2.739c1.151.67 1.145 1.766-.015 2.436ZM314.853 285.313l-4.153 2.396c-1.153.667-3.037.67-4.191 0l-4.924-2.861c-1.151-.671-1.139-1.762.016-2.427l4.153-2.4c1.165-.671 3.043-.671 4.193-.004l4.925 2.863c1.154.671 1.147 1.758-.019 2.433ZM286.889 288.778l-4.747 2.744c-1.158.663-3.052.667-4.203-.004l-4.715-2.737c-1.151-.67-1.139-1.769.016-2.433l4.747-2.743c1.164-.671 3.048-.667 4.199.001l4.715 2.742c1.149.669 1.149 1.759-.012 2.43ZM304.64 291.208l-5.368 3.102c-1.161.669-3.044.672-4.196.004l-4.926-2.863c-1.152-.668-1.14-1.76.02-2.433l5.37-3.1c1.154-.667 3.037-.67 4.192 0l4.922 2.863c1.152.67 1.143 1.76-.014 2.427ZM301.114 295.38l58.223-33.612c1.153-.671 3.043-.671 4.188 0l4.899 2.846c1.148.667 1.148 1.763-.005 2.43l-58.22 33.614c-1.161.669-3.056.667-4.206 0l-4.9-2.845c-1.143-.668-1.137-1.761.021-2.433ZM290.299 301.623l4.75-2.74c1.161-.672 3.05-.672 4.199-.004l4.9 2.846c1.148.667 1.148 1.766-.012 2.437l-4.751 2.741c-1.155.664-3.05.66-4.199-.004l-4.9-2.848c-1.148-.667-1.142-1.762.013-2.428ZM307.597 305.994l72.2-41.686c.876-.506 2.281-.506 3.149 0l33.861 19.679c.867.506.862 1.321-.008 1.826l-72.204 41.681c-.87.506-2.28.506-3.149 0l-33.859-19.675c-.867-.506-.863-1.322.01-1.825ZM279.977 307.582l4.263-2.46c1.161-.67 3.047-.67 4.195-.002l4.9 2.847c1.148.667 1.148 1.766-.011 2.435l-4.26 2.461c-1.163.671-3.055.667-4.203-.003l-4.901-2.848c-1.149-.665-1.142-1.761.017-2.43ZM390.38 254.368l-4.956 2.858c-1.156.671-3.055.667-4.202-.001l-4.899-2.85c-1.148-.663-1.142-1.758.019-2.429l4.95-2.858c1.161-.669 3.05-.669 4.198-.004l4.899 2.848c1.149.668 1.147 1.765-.009 2.436ZM401.193 248.124l-4.745 2.738c-1.159.671-3.055.667-4.203-.002l-4.899-2.848c-1.148-.664-1.143-1.759.021-2.43l4.742-2.738c1.164-.67 3.05-.67 4.198-.005l4.899 2.85c1.146.667 1.146 1.766-.013 2.435ZM398.174 239.344l5.362-3.099c1.161-.669 3.049-.672 4.197-.004l4.901 2.847c1.148.668 1.148 1.766-.013 2.436l-5.364 3.096c-1.159.672-3.053.669-4.202 0l-4.904-2.847c-1.142-.667-1.136-1.76.023-2.429ZM223.535 315.043l5.887-3.398c1.161-.672 3.045-.668 4.196.002l4.712 2.74c1.155.672 1.155 1.763-.005 2.431l-5.89 3.4c-1.16.669-3.05.669-4.2 0l-4.714-2.741c-1.152-.67-1.145-1.763.014-2.434ZM234.281 321.287l5.886-3.4c1.16-.669 3.038-.669 4.189 0l4.927 2.863c1.151.667 1.145 1.758-.015 2.43l-5.887 3.396c-1.16.672-3.045.673-4.2.002l-4.922-2.86c-1.15-.672-1.139-1.759.022-2.431ZM360.937 256.289l-4.927-2.865c-1.15-.67-1.145-1.757.021-2.43l4.951-2.858c1.161-.669 3.044-.673 4.196-.005l4.927 2.863c1.151.669 1.137 1.76-.021 2.433l-4.951 2.857c-1.167.672-3.045.671-4.196.005ZM359.749 208.51l-5.364 3.099c-1.158.668-3.048.668-4.203 0l-.772-.453c-1.156-.669-1.148-1.764.013-2.435l5.364-3.096c1.159-.672 3.051-.672 4.202 0l.778.451c1.149.67 1.141 1.764-.018 2.434ZM371.627 201.652l-5.81 3.357c-1.161.669-3.049.669-4.205 0l-.773-.453c-1.155-.67-1.148-1.763.011-2.434l5.812-3.356c1.156-.666 3.044-.666 4.199.003l.773.451c1.154.671 1.146 1.766-.007 2.432ZM382.503 207.974l-5.809 3.353c-1.164.67-3.05.671-4.198.005l-4.76-2.767c-1.145-.667-1.137-1.761.022-2.431l5.812-3.355c1.153-.667 3.043-.667 4.191 0l4.757 2.766c1.147.667 1.141 1.758-.015 2.429ZM356.325 212.736l5.362-3.099c1.161-.671 3.05-.671 4.196-.002l4.76 2.766c1.148.664 1.142 1.758-.019 2.429l-5.361 3.097c-1.164.671-3.052.671-4.2.006l-4.756-2.767c-1.147-.668-1.142-1.761.018-2.43ZM393.866 214.575l-8.704 5.024c-1.161.671-3.05.671-4.202 0l-5.337-3.101c-1.145-.667-1.137-1.76.022-2.431l8.701-5.025c1.153-.665 3.043-.665 4.191 0l5.337 3.1c1.153.672 1.145 1.766-.008 2.433ZM373.777 217.565l5.334 3.101c1.156.671 1.145 1.767-.011 2.435l-5.367 3.098c-1.161.669-3.05.669-4.201 0l-5.337-3.1c-1.145-.666-1.14-1.762.021-2.433l5.364-3.096c1.159-.672 3.049-.672 4.197-.005ZM404.602 220.818l-12.531 7.233c-1.161.671-3.05.67-4.203 0l-4.714-2.739c-1.15-.668-1.142-1.762.014-2.434l12.534-7.236c1.153-.667 3.043-.667 4.196.005l4.713 2.739c1.152.67 1.147 1.765-.009 2.432ZM414.487 238.019l-4.899-2.847c-1.145-.667-1.145-1.759.013-2.429l7.79-4.497c1.153-.668 3.043-.668 4.191 0l4.902 2.848c1.148.667 1.148 1.764-.008 2.431l-7.787 4.497c-1.164.671-3.054.664-4.202-.003ZM415.546 227.177l-17.161 9.909c-1.156.667-3.038.67-4.191 0l-4.924-2.863c-1.153-.672-1.14-1.762.013-2.429l17.162-9.909c1.153-.666 3.038-.668 4.191 0l4.924 2.863c1.152.671 1.144 1.761-.014 2.429ZM392.342 238.155c1.153.671 1.14 1.762-.013 2.428l-5.372 3.101c-1.161.669-3.046.673-4.197.003l-4.926-2.863c-1.151-.668-1.138-1.758.023-2.431l5.367-3.101c1.156-.664 3.044-.668 4.194 0l4.924 2.863ZM371.789 241.894c1.164-.668 3.044-.672 4.2-.001l4.921 2.861c1.151.67 1.143 1.761-.019 2.429l-4.748 2.744c-1.154.667-3.041.669-4.191 0l-4.925-2.861c-1.155-.671-1.142-1.761.016-2.429l4.746-2.743ZM229.449 307.076l-5.338-3.102c-1.148-.666-1.141-1.76.023-2.43l13.289-7.671c1.159-.672 3.049-.672 4.198-.004l5.334 3.1c1.153.669 1.148 1.764-.017 2.435l-13.288 7.673c-1.16.667-3.05.667-4.201-.001ZM258.15 292.927l-5.144 2.973c-1.16.67-3.05.67-4.202 0l-5.336-3.101c-1.148-.667-1.143-1.759.022-2.432l5.144-2.97c1.16-.671 3.05-.671 4.195-.006l5.337 3.102c1.149.673 1.148 1.766-.016 2.434ZM240.186 313.317l-4.712-2.739c-1.155-.671-1.148-1.766.012-2.435l20.674-11.937c1.16-.669 3.041-.667 4.194.004l4.712 2.74c1.154.67 1.154 1.761-.007 2.432l-20.67 11.935c-1.16.668-3.049.668-4.203 0ZM276.074 295.02l-4.95 2.86c-1.162.67-3.048.67-4.203-.001l-4.713-2.739c-1.15-.67-1.145-1.766.015-2.434l4.95-2.859c1.161-.671 3.051-.671 4.206 0l4.71 2.739c1.154.672 1.147 1.765-.015 2.434ZM363.763 244.394l-4.953 2.86c-1.159.67-3.05.669-4.203 0l-4.711-2.738c-1.153-.673-1.148-1.767.013-2.435l4.951-2.86c1.161-.669 3.049-.669 4.203 0l4.71 2.742c1.156.669 1.148 1.763-.01 2.431ZM201.402 302.181l5.888-3.398c1.16-.671 3.044-.668 4.188 0l4.76 2.765c1.148.666 1.148 1.757-.016 2.427l-5.886 3.401c-1.161.669-3.048.669-4.197.002l-4.759-2.764c-1.147-.671-1.142-1.765.022-2.433ZM212.181 308.443l5.886-3.397c1.161-.668 3.045-.668 4.19 0l5.337 3.099c1.154.673 1.154 1.763-.01 2.434l-5.887 3.395c-1.16.672-3.049.672-4.199 0l-5.337-3.098c-1.145-.667-1.141-1.761.02-2.433ZM280.071 256.76l4.152-2.396c1.161-.67 3.047-.67 4.196-.002l4.76 2.766c1.148.666 1.137 1.759-.023 2.429l-4.153 2.397c-1.158.671-3.048.671-4.194.004l-4.759-2.767c-1.144-.665-1.141-1.76.021-2.431ZM194.496 298.166l5.887-3.398c1.16-.669 3.044-.668 4.198.004l.775.45c1.154.674 1.154 1.763-.006 2.433l-5.888 3.397c-1.16.671-3.048.671-4.203 0l-.774-.452c-1.154-.668-1.149-1.762.011-2.434ZM227.592 284.811l-5.368 3.1c-1.159.667-3.046.667-4.199-.003l-.775-.451c-1.153-.671-1.148-1.766.006-2.429l5.37-3.101c1.16-.671 3.049-.671 4.203 0l.776.449c1.154.67 1.148 1.765-.013 2.435ZM216.156 291.413l-4.745 2.74c-1.16.669-3.048.669-4.202 0l-.776-.454c-1.152-.668-1.145-1.762.015-2.434l4.746-2.739c1.158-.669 3.046-.669 4.199 0l.777.453c1.152.669 1.146 1.764-.014 2.434ZM218.095 300.475l-4.761-2.768c-1.148-.662-1.141-1.758.019-2.429l16.181-9.34c1.159-.671 3.048-.671 4.195-.004l4.758 2.768c1.148.665 1.141 1.759-.019 2.431l-16.178 9.338c-1.161.671-3.051.671-4.195.004ZM238.804 278.337l-5.152 2.977c-1.155.668-3.047.663-4.197-.005l-.778-.451c-1.151-.669-1.144-1.763.009-2.43l5.151-2.976c1.164-.67 3.05-.67 4.203 0l.775.452c1.156.669 1.148 1.763-.011 2.433ZM249.82 271.977l-4.95 2.862c-1.161.668-3.05.667-4.203 0l-.778-.455c-1.15-.67-1.144-1.762.015-2.436l4.951-2.856c1.16-.668 3.049-.668 4.203 0l.775.451c1.154.668 1.148 1.765-.013 2.434ZM260.634 265.733l-4.751 2.745c-1.158.668-3.05.667-4.199 0l-.779-.452c-1.151-.672-1.144-1.765.016-2.436l4.746-2.742c1.155-.665 3.045-.665 4.199.004l.776.45c1.152.671 1.147 1.766-.008 2.431ZM257.826 269.602l4.75-2.741c1.154-.667 3.043-.667 4.192 0l4.756 2.765c1.148.668 1.143 1.761-.012 2.429l-4.751 2.743c-1.16.67-3.049.67-4.197.001l-4.757-2.763c-1.148-.667-1.142-1.761.019-2.434ZM246.81 275.963l4.948-2.859c1.16-.668 3.05-.668 4.199-.002l4.758 2.766c1.145.667 1.14 1.762-.021 2.432l-4.951 2.855c-1.161.673-3.047.673-4.195.005l-4.76-2.767c-1.148-.665-1.142-1.76.022-2.43ZM240.337 287.631l-4.758-2.764c-1.146-.666-1.14-1.76.015-2.427l5.151-2.975c1.159-.668 3.049-.668 4.197-.005l4.757 2.768c1.148.666 1.141 1.76-.021 2.429l-5.152 2.974c-1.153.667-3.043.667-4.189 0ZM293.304 246.874l-4.957 2.858c-1.16.672-3.05.672-4.202 0l-.776-.449c-1.152-.67-1.146-1.762.014-2.433l4.957-2.864c1.155-.666 3.049-.668 4.202 0l.776.453c1.153.668 1.14 1.766-.014 2.435ZM245.226 327.647l5.883-3.398c1.164-.67 3.048-.668 4.193-.001l4.9 2.847c1.148.667 1.155 1.763-.006 2.433l-5.887 3.399c-1.159.671-3.056.667-4.204 0l-4.899-2.851c-1.149-.665-1.144-1.759.02-2.429Z"/><path stroke="#4E473F" stroke-linecap="round" stroke-linejoin="round" stroke-miterlimit="10" stroke-width=".5" d="m268.512 314.204 5.401-3.119c1.154-.667 3.044-.668 4.192 0l4.9 2.846c1.148.671 1.148 1.766-.007 2.433l-5.4 3.118c-1.153.666-3.053.666-4.199-.004l-4.904-2.845c-1.149-.667-1.137-1.767.017-2.429ZM260.605 316.633l-5.272 3.045c-1.159.669-3.043.671-4.196.003l-4.924-2.863c-1.155-.668-1.141-1.759.018-2.431l5.275-3.045c1.16-.669 3.043-.673 4.194-.003l4.928 2.864c1.149.667 1.137 1.76-.023 2.43ZM257.175 320.746l5.274-3.045c1.16-.669 3.049-.669 4.194-.002l4.902 2.849c1.148.667 1.148 1.763-.012 2.435l-5.272 3.043c-1.16.668-3.054.668-4.202 0l-4.901-2.846c-1.147-.668-1.142-1.763.017-2.434ZM282.396 304.051l-15.725 9.08c-1.155.668-3.045.675-4.198.002l-4.925-2.862c-1.151-.669-1.132-1.762.022-2.429l15.727-9.081c1.157-.67 3.044-.674 4.197-.003l4.924 2.861c1.151.67 1.138 1.761-.022 2.432ZM293.204 297.812l-4.748 2.74c-1.153.665-3.04.669-4.192 0l-4.923-2.863c-1.155-.67-1.143-1.76.012-2.426l4.751-2.743c1.16-.671 3.043-.674 4.198-.004l4.924 2.861c1.151.675 1.141 1.765-.022 2.435ZM279.98 280.327l-4.747 2.74c-1.158.666-3.045.666-4.199-.002l-5.336-3.1c-1.145-.667-1.14-1.761.015-2.428l4.75-2.742c1.16-.672 3.05-.67 4.195-.004l5.337 3.102c1.155.668 1.149 1.762-.015 2.434ZM254.68 286.328c-1.148-.667-1.143-1.762.021-2.431l4.948-2.86c1.162-.669 3.052-.669 4.197-.002l5.338 3.098c1.151.671 1.144 1.765-.015 2.436l-4.951 2.859c-1.16.669-3.05.669-4.202 0l-5.336-3.1ZM282.28 253.238l-4.15 2.396c-1.163.67-3.05.668-4.203 0l-.778-.452c-1.151-.672-1.145-1.763.016-2.437l4.151-2.396c1.16-.668 3.049-.668 4.204 0l.773.453c1.156.671 1.149 1.763-.013 2.436ZM272.064 259.135l-5.369 3.1c-1.155.668-3.048.668-4.198-.002l-.774-.45c-1.154-.671-1.148-1.765.005-2.432l5.373-3.103c1.15-.662 3.047-.668 4.2 0l.779.454c1.151.669 1.137 1.767-.016 2.433ZM268.636 263.364l5.368-3.101c1.155-.666 3.05-.669 4.195-.005l4.76 2.768c1.148.667 1.136 1.764-.019 2.43l-5.368 3.103c-1.158.665-3.046.665-4.192 0l-4.76-2.768c-1.145-.668-1.141-1.762.016-2.427ZM301.304 244.5l4.749-2.74c1.162-.671 3.051-.671 4.198-.006l4.759 2.768c1.144.668 1.137 1.761-.023 2.431l-4.747 2.742c-1.157.666-3.045.666-4.193 0l-4.757-2.766c-1.147-.667-1.141-1.762.014-2.429ZM290.287 250.86l4.958-2.861c1.153-.667 3.05-.672 4.198-.003l4.759 2.766c1.144.666 1.132 1.763-.022 2.43l-4.957 2.863c-1.16.671-3.049.671-4.194.004l-4.761-2.768c-1.148-.668-1.141-1.758.019-2.431ZM353.399 226.912l4.752-2.744c1.158-.669 3.048-.669 4.196-.002l5.334 3.1c1.153.672 1.148 1.764-.013 2.434l-4.75 2.743c-1.153.667-3.043.667-4.197-.002l-5.336-3.102c-1.144-.668-1.139-1.761.014-2.427ZM345.511 218.978l4.75-2.741c1.153-.667 3.047-.673 4.195-.003l4.76 2.765c1.145.667 1.132 1.766-.021 2.429l-4.752 2.743c-1.153.667-3.048.671-4.194.004l-4.759-2.765c-1.147-.667-1.135-1.765.021-2.432ZM348.32 215.108l-4.75 2.742c-1.154.669-3.05.671-4.202 0l-.778-.45c-1.15-.67-1.14-1.768.016-2.434l4.75-2.741c1.153-.67 3.049-.673 4.202 0l.778.449c1.15.67 1.137 1.769-.016 2.434ZM337.511 221.35l-4.956 2.862c-1.161.671-3.05.669-4.204-.002l-.774-.449c-1.155-.671-1.145-1.764.012-2.436l4.958-2.86c1.151-.669 3.043-.669 4.197.003l.775.451c1.153.668 1.148 1.763-.008 2.431ZM304.114 240.631l-4.751 2.743c-1.154.668-3.044.668-4.198-.001l-.774-.455c-1.154-.668-1.148-1.762.008-2.43l4.747-2.742c1.162-.669 3.05-.669 4.202 0l.777.451c1.154.672 1.146 1.764-.011 2.434ZM326.488 227.712l-4.882 2.82c-1.153.665-3.048.67-4.2 0l-.779-.453c-1.149-.668-1.137-1.767.017-2.434l4.881-2.816c1.161-.673 3.05-.673 4.202-.002l.775.451c1.153.67 1.147 1.765-.014 2.434ZM334.497 225.337l4.955-2.862c1.156-.665 3.043-.665 4.189 0l4.759 2.766c1.148.668 1.143 1.762-.01 2.429l-4.959 2.862c-1.158.671-3.05.671-4.198.004l-4.756-2.767c-1.147-.667-1.142-1.761.02-2.432ZM323.548 231.657l4.882-2.817c1.16-.672 3.05-.672 4.198-.005l4.759 2.768c1.143.667 1.137 1.76-.024 2.432l-4.88 2.818c-1.154.667-3.05.668-4.198.001l-4.756-2.764c-1.148-.667-1.136-1.763.019-2.433ZM315.545 234.035l-5.367 3.096c-1.16.671-3.05.669-4.202 0l-.776-.451c-1.152-.669-1.145-1.766.015-2.434l5.362-3.098c1.16-.67 3.05-.67 4.204 0l.775.45c1.154.671 1.145 1.765-.011 2.437ZM312.117 238.256l5.367-3.097c1.16-.67 3.046-.67 4.195-.003l4.758 2.765c1.147.667 1.14 1.764-.02 2.431l-5.363 3.1c-1.161.668-3.05.668-4.199.002l-4.757-2.767c-1.148-.665-1.141-1.759.019-2.431ZM386.02 229.119c1.15.669 1.145 1.763-.016 2.435l-5.362 3.096c-1.161.672-3.049.672-4.203 0l-4.71-2.739c-1.156-.669-1.148-1.766.01-2.433l5.367-3.098c1.159-.67 3.051-.67 4.202 0l4.712 2.739ZM360.913 238.155c-1.156-.67-1.148-1.762.011-2.433l4.751-2.744c1.153-.667 3.043-.667 4.197.005l4.713 2.738c1.153.672 1.148 1.764-.008 2.431l-4.75 2.742c-1.161.672-3.05.672-4.203 0l-4.711-2.739ZM342.386 233.272l4.956-2.863c1.156-.667 3.043-.667 4.188 0l5.337 3.1c1.153.672 1.145 1.765-.008 2.432l-4.958 2.862c-1.154.667-3.051.67-4.202 0l-5.337-3.101c-1.141-.667-1.132-1.765.024-2.43ZM331.436 239.59l4.883-2.818c1.159-.669 3.05-.669 4.194-.002l5.339 3.098c1.154.672 1.148 1.765-.013 2.437l-4.88 2.817c-1.156.668-3.046.668-4.199-.003l-5.337-3.101c-1.147-.667-1.14-1.761.013-2.428ZM320.008 246.189l5.368-3.099c1.157-.667 3.046-.667 4.191 0l5.338 3.099c1.151.673 1.143 1.765-.01 2.432l-5.37 3.1c-1.155.667-3.05.672-4.203 0l-5.333-3.1c-1.146-.668-1.136-1.766.019-2.432ZM352.748 250.756l-4.886 2.818c-1.153.667-3.048.67-4.201 0l-4.714-2.741c-1.15-.668-1.137-1.765.016-2.431l4.881-2.821c1.161-.669 3.051-.669 4.202 0l4.715 2.74c1.15.671 1.143 1.767-.013 2.435ZM309.2 252.429l4.745-2.738c1.16-.669 3.046-.669 4.195-.002l5.335 3.1c1.152.668 1.147 1.763-.014 2.434l-4.745 2.738c-1.16.672-3.05.672-4.202 0l-5.336-3.1c-1.144-.666-1.139-1.76.022-2.432ZM341.8 257.075l-5.367 3.099c-1.156.669-3.046.669-4.202 0l-4.713-2.739c-1.155-.671-1.147-1.764.014-2.435l5.363-3.097c1.164-.67 3.05-.67 4.203 0l4.716 2.738c1.152.67 1.144 1.766-.014 2.434ZM359.065 259.785l-4.883 2.819c-1.156.669-3.04.675-4.194.005l-4.924-2.863c-1.153-.67-1.142-1.76.019-2.431l4.883-2.818c1.153-.667 3.038-.671 4.191 0l4.924 2.861c1.152.668 1.142 1.76-.016 2.427ZM379.363 260.728l-4.884 2.819c-1.153.667-3.048.663-4.199-.004l-4.901-2.848c-1.146-.667-1.138-1.763.015-2.428l4.881-2.819c1.161-.669 3.051-.671 4.198-.002l4.899 2.847c1.152.668 1.152 1.764-.009 2.435ZM298.183 258.789l4.952-2.858c1.153-.665 3.05-.67 4.198-.003l5.333 3.103c1.154.668 1.142 1.764-.013 2.431l-4.953 2.86c-1.158.67-3.047.67-4.2 0l-5.334-3.101c-1.149-.665-1.143-1.761.017-2.432ZM330.37 263.677l-4.75 2.742c-1.161.669-3.046.665-4.199-.006l-4.711-2.736c-1.152-.674-1.152-1.764.005-2.435l4.752-2.74c1.162-.669 3.052-.669 4.203 0l4.712 2.738c1.154.672 1.149 1.763-.012 2.437ZM348.119 266.106l-5.372 3.102c-1.15.663-3.035.667-4.188 0l-4.924-2.865c-1.154-.669-1.14-1.759.013-2.429l5.372-3.099c1.158-.669 3.035-.669 4.189 0l4.924 2.864c1.153.669 1.148 1.757-.014 2.427ZM287.958 264.693l4.161-2.4c1.15-.667 3.042-.667 4.19 0l5.335 3.099c1.155.672 1.147 1.766-.008 2.433l-4.158 2.4c-1.155.665-3.045.665-4.197-.004l-5.335-3.1c-1.148-.666-1.14-1.762.012-2.428ZM319.553 269.919l-4.948 2.856c-1.162.672-3.052.672-4.203 0l-4.714-2.738c-1.151-.668-1.146-1.763.016-2.434l4.95-2.857c1.161-.671 3.05-.671 4.203 0l4.712 2.737c1.153.672 1.147 1.766-.016 2.436ZM336.684 272.708l-4.744 2.74c-1.16.671-3.045.673-4.196.002l-4.924-2.86c-1.153-.671-1.141-1.762.019-2.433l4.746-2.739c1.16-.67 3.043-.673 4.196-.003l4.922 2.861c1.153.671 1.14 1.762-.019 2.432ZM276.528 271.292l5.366-3.099c1.161-.669 3.048-.669 4.196-.002l5.334 3.101c1.155.668 1.148 1.764-.014 2.433l-5.363 3.099c-1.16.669-3.05.669-4.202 0l-5.337-3.102c-1.146-.666-1.141-1.762.02-2.43ZM308.538 276.279l-4.151 2.398c-1.161.669-3.05.669-4.205 0l-4.711-2.739c-1.155-.669-1.144-1.765.011-2.434l4.153-2.396c1.16-.671 3.05-.671 4.204 0l4.713 2.737c1.153.67 1.148 1.765-.014 2.434ZM325.873 278.948l-4.953 2.863c-1.157.667-3.042.671-4.193 0l-4.924-2.863c-1.153-.669-1.141-1.762.013-2.426l4.957-2.866c1.155-.666 3.041-.668 4.193 0l4.923 2.866c1.153.669 1.141 1.759-.016 2.426ZM298.32 282.179l-5.369 3.1c-1.154.667-3.045.667-4.2-.003l-4.71-2.74c-1.153-.67-1.148-1.763.006-2.433l5.37-3.099c1.162-.669 3.051-.669 4.203 0l4.715 2.739c1.151.67 1.145 1.766-.015 2.436ZM314.853 285.313l-4.153 2.396c-1.153.667-3.037.67-4.191 0l-4.924-2.861c-1.151-.671-1.139-1.762.016-2.427l4.153-2.4c1.165-.671 3.043-.671 4.193-.004l4.925 2.863c1.154.671 1.147 1.758-.019 2.433ZM286.889 288.778l-4.747 2.744c-1.158.663-3.052.667-4.203-.004l-4.715-2.737c-1.151-.67-1.139-1.769.016-2.433l4.747-2.743c1.164-.671 3.048-.667 4.199.001l4.715 2.742c1.149.669 1.149 1.759-.012 2.43ZM304.64 291.208l-5.368 3.102c-1.161.669-3.044.672-4.196.004l-4.926-2.863c-1.152-.668-1.14-1.76.02-2.433l5.37-3.1c1.154-.667 3.037-.67 4.192 0l4.922 2.863c1.152.67 1.143 1.76-.014 2.427ZM301.114 295.38l58.223-33.612c1.153-.671 3.043-.671 4.188 0l4.899 2.846c1.148.667 1.148 1.763-.005 2.43l-58.22 33.614c-1.161.669-3.056.667-4.206 0l-4.9-2.845c-1.143-.668-1.137-1.761.021-2.433ZM290.299 301.623l4.75-2.74c1.161-.672 3.05-.672 4.199-.004l4.9 2.846c1.148.667 1.148 1.766-.012 2.437l-4.751 2.741c-1.155.664-3.05.66-4.199-.004l-4.9-2.848c-1.148-.667-1.142-1.762.013-2.428Z"/><path stroke="#807974" stroke-linecap="round" stroke-linejoin="round" stroke-miterlimit="10" stroke-width=".5" d="m307.597 305.994 72.2-41.686c.876-.506 2.281-.506 3.149 0l33.861 19.679c.867.506.862 1.321-.008 1.826l-72.204 41.681c-.87.506-2.28.506-3.149 0l-33.859-19.675c-.867-.506-.863-1.322.01-1.825Z"/><path stroke="#4E473F" stroke-linecap="round" stroke-linejoin="round" stroke-miterlimit="10" stroke-width=".5" d="m279.977 307.582 4.263-2.46c1.161-.67 3.047-.67 4.195-.002l4.9 2.847c1.148.667 1.148 1.766-.011 2.435l-4.26 2.461c-1.163.671-3.055.667-4.203-.003l-4.901-2.848c-1.149-.665-1.142-1.761.017-2.43ZM390.38 254.368l-4.956 2.858c-1.156.671-3.055.667-4.202-.001l-4.899-2.85c-1.148-.663-1.142-1.758.019-2.429l4.95-2.858c1.161-.669 3.05-.669 4.198-.004l4.899 2.848c1.149.668 1.147 1.765-.009 2.436ZM401.193 248.124l-4.745 2.738c-1.159.671-3.055.667-4.203-.002l-4.899-2.848c-1.148-.664-1.143-1.759.021-2.43l4.742-2.738c1.164-.67 3.05-.67 4.198-.005l4.899 2.85c1.146.667 1.146 1.766-.013 2.435ZM398.174 239.344l5.362-3.099c1.161-.669 3.049-.672 4.197-.004l4.901 2.847c1.148.668 1.148 1.766-.013 2.436l-5.364 3.096c-1.159.672-3.053.669-4.202 0l-4.904-2.847c-1.142-.667-1.136-1.76.023-2.429ZM223.535 315.043l5.887-3.398c1.161-.672 3.045-.668 4.196.002l4.712 2.74c1.155.672 1.155 1.763-.005 2.431l-5.89 3.4c-1.16.669-3.05.669-4.2 0l-4.714-2.741c-1.152-.67-1.145-1.763.014-2.434ZM234.281 321.287l5.886-3.4c1.16-.669 3.038-.669 4.189 0l4.927 2.863c1.151.667 1.145 1.758-.015 2.43l-5.887 3.396c-1.16.672-3.045.673-4.2.002l-4.922-2.86c-1.15-.672-1.139-1.759.022-2.431ZM360.937 256.289l-4.927-2.865c-1.15-.67-1.145-1.757.021-2.43l4.951-2.858c1.161-.669 3.044-.673 4.196-.005l4.927 2.863c1.151.669 1.137 1.76-.021 2.433l-4.951 2.857c-1.167.672-3.045.671-4.196.005ZM359.749 208.51l-5.364 3.099c-1.158.668-3.048.668-4.203 0l-.772-.453c-1.156-.669-1.148-1.764.013-2.435l5.364-3.096c1.159-.672 3.051-.672 4.202 0l.778.451c1.149.67 1.141 1.764-.018 2.434ZM371.627 201.652l-5.81 3.357c-1.161.669-3.049.669-4.205 0l-.773-.453c-1.155-.67-1.148-1.763.011-2.434l5.812-3.356c1.156-.666 3.044-.666 4.199.003l.773.451c1.154.671 1.146 1.766-.007 2.432ZM382.503 207.974l-5.809 3.353c-1.164.67-3.05.671-4.198.005l-4.76-2.767c-1.145-.667-1.137-1.761.022-2.431l5.812-3.355c1.153-.667 3.043-.667 4.191 0l4.757 2.766c1.147.667 1.141 1.758-.015 2.429ZM356.325 212.736l5.362-3.099c1.161-.671 3.05-.671 4.196-.002l4.76 2.766c1.148.664 1.142 1.758-.019 2.429l-5.361 3.097c-1.164.671-3.052.671-4.2.006l-4.756-2.767c-1.147-.668-1.142-1.761.018-2.43ZM393.866 214.575l-8.704 5.024c-1.161.671-3.05.671-4.202 0l-5.337-3.101c-1.145-.667-1.137-1.76.022-2.431l8.701-5.025c1.153-.665 3.043-.665 4.191 0l5.337 3.1c1.153.672 1.145 1.766-.008 2.433ZM373.777 217.565l5.334 3.101c1.156.671 1.145 1.767-.011 2.435l-5.367 3.098c-1.161.669-3.05.669-4.201 0l-5.337-3.1c-1.145-.666-1.14-1.762.021-2.433l5.364-3.096c1.159-.672 3.049-.672 4.197-.005ZM404.602 220.818l-12.531 7.233c-1.161.671-3.05.67-4.203 0l-4.714-2.739c-1.15-.668-1.142-1.762.014-2.434l12.534-7.236c1.153-.667 3.043-.667 4.196.005l4.713 2.739c1.152.67 1.147 1.765-.009 2.432ZM414.487 238.019l-4.899-2.847c-1.145-.667-1.145-1.759.013-2.429l7.79-4.497c1.153-.668 3.043-.668 4.191 0l4.902 2.848c1.148.667 1.148 1.764-.008 2.431l-7.787 4.497c-1.164.671-3.054.664-4.202-.003ZM415.546 227.177l-17.161 9.909c-1.156.667-3.038.67-4.191 0l-4.924-2.863c-1.153-.672-1.14-1.762.013-2.429l17.162-9.909c1.153-.666 3.038-.668 4.191 0l4.924 2.863c1.152.671 1.144 1.761-.014 2.429ZM392.342 238.155c1.153.671 1.14 1.762-.013 2.428l-5.372 3.101c-1.161.669-3.046.673-4.197.003l-4.926-2.863c-1.151-.668-1.138-1.758.023-2.431l5.367-3.101c1.156-.664 3.044-.668 4.194 0l4.924 2.863ZM371.789 241.894c1.164-.668 3.044-.672 4.2-.001l4.921 2.861c1.151.67 1.143 1.761-.019 2.429l-4.748 2.744c-1.154.667-3.041.669-4.191 0l-4.925-2.861c-1.155-.671-1.142-1.761.016-2.429l4.746-2.743ZM229.449 307.076l-5.338-3.102c-1.148-.666-1.141-1.76.023-2.43l13.289-7.671c1.159-.672 3.049-.672 4.198-.004l5.334 3.1c1.153.669 1.148 1.764-.017 2.435l-13.288 7.673c-1.16.667-3.05.667-4.201-.001ZM258.15 292.927l-5.144 2.973c-1.16.67-3.05.67-4.202 0l-5.336-3.101c-1.148-.667-1.143-1.759.022-2.432l5.144-2.97c1.16-.671 3.05-.671 4.195-.006l5.337 3.102c1.149.673 1.148 1.766-.016 2.434ZM240.186 313.317l-4.712-2.739c-1.155-.671-1.148-1.766.012-2.435l20.674-11.937c1.16-.669 3.041-.667 4.194.004l4.712 2.74c1.154.67 1.154 1.761-.007 2.432l-20.67 11.935c-1.16.668-3.049.668-4.203 0ZM276.074 295.02l-4.95 2.86c-1.162.67-3.048.67-4.203-.001l-4.713-2.739c-1.15-.67-1.145-1.766.015-2.434l4.95-2.859c1.161-.671 3.051-.671 4.206 0l4.71 2.739c1.154.672 1.147 1.765-.015 2.434ZM363.763 244.394l-4.953 2.86c-1.159.67-3.05.669-4.203 0l-4.711-2.738c-1.153-.673-1.148-1.767.013-2.435l4.951-2.86c1.161-.669 3.049-.669 4.203 0l4.71 2.742c1.156.669 1.148 1.763-.01 2.431ZM201.402 302.181l5.888-3.398c1.16-.671 3.044-.668 4.188 0l4.76 2.765c1.148.666 1.148 1.757-.016 2.427l-5.886 3.401c-1.161.669-3.048.669-4.197.002l-4.759-2.764c-1.147-.671-1.142-1.765.022-2.433ZM212.181 308.443l5.886-3.397c1.161-.668 3.045-.668 4.19 0l5.337 3.099c1.154.673 1.154 1.763-.01 2.434l-5.887 3.395c-1.16.672-3.049.672-4.199 0l-5.337-3.098c-1.145-.667-1.141-1.761.02-2.433ZM280.071 256.76l4.152-2.396c1.161-.67 3.047-.67 4.196-.002l4.76 2.766c1.148.666 1.137 1.759-.023 2.429l-4.153 2.397c-1.158.671-3.048.671-4.194.004l-4.759-2.767c-1.144-.665-1.141-1.76.021-2.431ZM194.496 298.166l5.887-3.398c1.16-.669 3.044-.668 4.198.004l.775.45c1.154.674 1.154 1.763-.006 2.433l-5.888 3.397c-1.16.671-3.048.671-4.203 0l-.774-.452c-1.154-.668-1.149-1.762.011-2.434ZM227.592 284.811l-5.368 3.1c-1.159.667-3.046.667-4.199-.003l-.775-.451c-1.153-.671-1.148-1.766.006-2.429l5.37-3.101c1.16-.671 3.049-.671 4.203 0l.776.449c1.154.67 1.148 1.765-.013 2.435ZM216.156 291.413l-4.745 2.74c-1.16.669-3.048.669-4.202 0l-.776-.454c-1.152-.668-1.145-1.762.015-2.434l4.746-2.739c1.158-.669 3.046-.669 4.199 0l.777.453c1.152.669 1.146 1.764-.014 2.434ZM218.095 300.475l-4.761-2.768c-1.148-.662-1.141-1.758.019-2.429l16.181-9.34c1.159-.671 3.048-.671 4.195-.004l4.758 2.768c1.148.665 1.141 1.759-.019 2.431l-16.178 9.338c-1.161.671-3.051.671-4.195.004ZM238.804 278.337l-5.152 2.977c-1.155.668-3.047.663-4.197-.005l-.778-.451c-1.151-.669-1.144-1.763.009-2.43l5.151-2.976c1.164-.67 3.05-.67 4.203 0l.775.452c1.156.669 1.148 1.763-.011 2.433ZM249.82 271.977l-4.95 2.862c-1.161.668-3.05.667-4.203 0l-.778-.455c-1.15-.67-1.144-1.762.015-2.436l4.951-2.856c1.16-.668 3.049-.668 4.203 0l.775.451c1.154.668 1.148 1.765-.013 2.434ZM260.634 265.733l-4.751 2.745c-1.158.668-3.05.667-4.199 0l-.779-.452c-1.151-.672-1.144-1.765.016-2.436l4.746-2.742c1.155-.665 3.045-.665 4.199.004l.776.45c1.152.671 1.147 1.766-.008 2.431ZM257.826 269.602l4.75-2.741c1.154-.667 3.043-.667 4.192 0l4.756 2.765c1.148.668 1.143 1.761-.012 2.429l-4.751 2.743c-1.16.67-3.049.67-4.197.001l-4.757-2.763c-1.148-.667-1.142-1.761.019-2.434ZM246.81 275.963l4.948-2.859c1.16-.668 3.05-.668 4.199-.002l4.758 2.766c1.145.667 1.14 1.762-.021 2.432l-4.951 2.855c-1.161.673-3.047.673-4.195.005l-4.76-2.767c-1.148-.665-1.142-1.76.022-2.43ZM240.337 287.631l-4.758-2.764c-1.146-.666-1.14-1.76.015-2.427l5.151-2.975c1.159-.668 3.049-.668 4.197-.005l4.757 2.768c1.148.666 1.141 1.76-.021 2.429l-5.152 2.974c-1.153.667-3.043.667-4.189 0ZM293.304 246.874l-4.957 2.858c-1.16.672-3.05.672-4.202 0l-.776-.449c-1.152-.67-1.146-1.762.014-2.433l4.957-2.864c1.155-.666 3.049-.668 4.202 0l.776.453c1.153.668 1.14 1.766-.014 2.435ZM245.226 327.647l5.883-3.398c1.164-.67 3.048-.668 4.193-.001l4.9 2.847c1.148.667 1.155 1.763-.006 2.433l-5.887 3.399c-1.159.671-3.056.667-4.204 0l-4.899-2.851c-1.149-.665-1.144-1.759.02-2.429Z"/><path stroke="#807974" stroke-linecap="round" stroke-linejoin="round" stroke-miterlimit="10" stroke-width=".5" d="m406.281 277.872-75.358 43.508M383.46 305.057l-12.092-7.027"/><path fill="#fff" d="M488.743 184.008c7.396 4.429 11.069 10.136 11.069 15.846-.013 5.885-3.983 11.768-11.854 16.181-15.487 8.69-40.235 8.426-55.284-.567-7.38-4.415-11.056-10.109-11.056-15.788v-.044c.013-5.898 3.964-11.765 11.835-16.181l3.649-2.033c-13.41 7.539-13.713 19.959-.667 27.758 13.028 7.805 34.486 8.02 47.906.48 13.423-7.523 13.731-19.944.686-27.745-.248-.144-.497-.29-.742-.421v-.014c.594.349 1.204.682 1.801 1.016.173.101.363.203.535.304.422.248.845.48 1.267.712.29.161.577.335.855.496Z"/><path fill="url(#b)" d="M487.959 216.035c7.873-4.414 11.841-10.297 11.854-16.181-.013 1.236-.013 2.473-.013 3.705-.016 5.883-3.982 11.766-11.854 16.181-15.473 8.686-40.223 8.438-55.272-.567-7.411-4.416-11.087-10.138-11.074-15.833 0-1.222.019-2.441.019-3.661 0 5.68 3.676 11.374 11.057 15.788 15.047 8.994 39.797 9.258 55.283.568Z"/><path fill="url(#c)" d="M480.988 206.027c11.52-6.463 11.781-17.126.595-23.821-11.201-6.682-29.604-6.871-41.123-.407-11.506 6.463-11.767 17.127-.581 23.808 11.199 6.695 29.604 6.887 41.109.42Zm4.039-24.112c13.045 7.801 12.737 20.222-.686 27.745-13.42 7.54-34.878 7.325-47.906-.48-13.046-7.799-12.743-20.219.667-27.758 13.177-7.38 34.079-7.306 47.183.073.245.13.494.276.742.42Z"/><path fill="#fff" d="M440.46 181.799c11.519-6.465 29.922-6.277 41.123.407 11.184 6.695 10.925 17.358-.595 23.821-11.503 6.467-29.909 6.277-41.109-.419-11.186-6.682-10.927-17.346.581-23.809Z"/><path fill="#89B6F6" d="M499.811 200.932c.002-.358 0-.716.002-1.077 0-3.464-1.361-6.929-4.08-10.106l-12.5-6.469H466.58l-5.372 12.271h28.537l10.066 5.381Z"/><path stroke="#807974" stroke-linecap="round" stroke-linejoin="round" stroke-miterlimit="10" stroke-width="1.5" d="M437.103 181.42c-13.41 7.539-13.713 19.96-.667 27.759 13.028 7.805 34.487 8.02 47.907.479 13.422-7.523 13.73-19.943.685-27.745-.248-.143-.497-.29-.742-.42-13.104-7.378-34.006-7.452-47.183-.073Z"/><path stroke="#807974" stroke-linecap="round" stroke-linejoin="round" stroke-miterlimit="10" stroke-width="1.5" d="M480.988 206.027c-11.503 6.466-29.909 6.277-41.109-.419-11.185-6.681-10.925-17.345.581-23.808 11.519-6.465 29.922-6.276 41.123.407 11.184 6.694 10.925 17.357-.595 23.82Z"/><path stroke="#807974" stroke-linecap="round" stroke-linejoin="round" stroke-miterlimit="10" stroke-width="1.5" d="M421.619 199.68c0 1.222-.019 2.441-.019 3.661-.013 5.694 3.663 11.417 11.074 15.833 15.049 9.005 39.797 9.253 55.272.567 7.872-4.416 11.838-10.299 11.854-16.181 0-1.232 0-2.47.013-3.705"/><path stroke="#807974" stroke-linecap="round" stroke-linejoin="round" stroke-miterlimit="10" stroke-width="1.5" d="m437.103 181.42-3.648 2.034c-7.873 4.417-11.824 10.284-11.836 16.181v.044c0 5.68 3.676 11.374 11.057 15.788 15.049 8.991 39.797 9.255 55.283.567 7.873-4.414 11.841-10.298 11.854-16.181 0-5.71-3.673-11.417-11.068-15.847-.278-.16-.567-.333-.854-.495-.422-.232-.845-.464-1.267-.712-.173-.101-.362-.203-.535-.304-.597-.334-1.207-.669-1.802-1.017"/><path fill="#89B6F6" d="m459.158 17.052-2.615 4.227-4.358-2.586 2.615-4.226 4.358 2.585ZM456.543 21.28l44.67 66.676-10.24-5.942-38.788-63.32 4.358 2.585Z"/><path fill="#fff" d="m501.213 87.956-40.005 107.423-10.244-5.956 40.009-107.409 10.24 5.942Z"/><path fill="#89B6F6" d="m508.275 80.505.491 4.5-38.94 105.382-8.618 4.992 40.005-107.423-44.67-66.677 2.615-4.227 49.117 63.453Z"/><path stroke="#807974" stroke-linecap="round" stroke-linejoin="round" stroke-miterlimit="10" stroke-width="1.5" d="m501.213 87.956-10.24-5.942-38.788-63.32M456.543 21.28l-4.358-2.587 2.615-4.226 4.358 2.585"/><path stroke="#807974" stroke-linecap="round" stroke-linejoin="round" stroke-miterlimit="10" stroke-width="1.5" d="m459.158 17.052 49.117 63.453.491 4.5-38.94 105.382-8.618 4.992 40.005-107.423-44.67-66.677 2.615-4.227Z"/><path stroke="#807974" stroke-linecap="round" stroke-linejoin="round" stroke-miterlimit="10" stroke-width="1.5" d="m461.208 195.379-10.244-5.956 40.009-107.409"/><path fill="#fff" d="M440.188 70.598c5.81 7.568 1.305 9.835-10.055 5.07-4.618-1.947-9.642-4.751-14.392-7.903-6.946-4.59-13.25-9.95-16.691-14.438-5.813-7.568-1.324-9.835 10.052-5.056 4.618 1.932 9.642 4.735 14.395 7.887 6.93 4.605 13.234 9.952 16.691 14.44ZM463.475 11.766a12.074 12.074 0 0 1-1.846 8.556l-4.124 6.216a44.485 44.485 0 0 0-1.006-1.64 5.796 5.796 0 0 0-.405-.553c-2.544-3.31-8.642-7.697-13.628-9.79-1.189-.508-2.221-.828-3.05-.987a29.362 29.362 0 0 0-1.885-.292l4.108-6.217c.348-.465.827-1.075 1.202-1.526.206-.232.5-.522.729-.726.976-.813.976-.813 1.555-1.192.889-.58 1.686-.901 1.686-.901 1.234-.493 3.774-1.525 7.468-.726 4.707 1.019 8.409 4.94 9.196 9.778Z"/><path fill="#fff" d="M460.96 35.328c1.205 5.172 1.348 9.21 1.148 13.596-.319 6.784-2.196 12.958-2.266 13.22-.769 2.528-2.398 7.801-5.693 12.812-1.527 2.296-3.05 4.59-4.562 6.872 1.045-1.597.175-4.474-2.922-8.498-4.53-5.913-12.84-12.959-21.963-19.015-6.232-4.125-12.856-7.816-18.928-10.357-8.873-3.732-14.571-4.199-16.124-1.858 1.526-2.296 3.038-4.59 4.564-6.887a90.026 90.026 0 0 1 2.557-3.399 35.86 35.86 0 0 1 1.567-1.757c1.99-2.12 3.764-3.647 5.421-5.025 1.755-1.482 6.387-4.895 11.224-7.22 1.817-.873 6.641-3.183 12.724-4.228 2.399-.422 5.928-.77 9.825-.306a30.42 30.42 0 0 1 1.885.291c.829.16 1.861.48 3.05.987 4.986 2.093 11.084 6.48 13.628 9.79.16.19.289.379.405.553.41.639.729 1.162 1.007 1.64.61 1.032 1.058 1.92 1.726 3.472 1.06 2.483 1.727 5.288 1.727 5.317Z"/><path fill="url(#d)" d="M446.665 73.328c-4.53-5.912-12.84-12.958-21.963-19.014-6.232-4.126-12.856-7.816-18.928-10.357-8.873-3.733-14.571-4.2-16.124-1.859-1.061 1.583-.192 4.474 2.906 8.512 4.548 5.913 12.856 12.959 21.981 19.015 6.228 4.14 12.853 7.816 18.914 10.357 8.901 3.734 14.595 4.199 16.137 1.845 1.044-1.599.174-4.475-2.923-8.499Zm-16.532 2.34c-4.618-1.947-9.642-4.752-14.392-7.903-6.946-4.59-13.25-9.95-16.691-14.438-5.813-7.569-1.324-9.835 10.052-5.056 4.618 1.932 9.642 4.735 14.395 7.886 6.93 4.606 13.234 9.951 16.691 14.44 5.811 7.569 1.306 9.836-10.055 5.07Z"/><path stroke="#807974" stroke-linecap="round" stroke-linejoin="round" stroke-miterlimit="10" stroke-width="1.5" d="m457.505 26.538 4.124-6.215a12.064 12.064 0 0 0 1.846-8.557c-.788-4.837-4.489-8.76-9.196-9.776-3.694-.798-6.234.232-7.468.727 0 0-.797.32-1.686.901-.578.378-.578.378-1.555 1.192a9.604 9.604 0 0 0-.729.726c-.375.45-.854 1.06-1.202 1.526l-4.108 6.217M449.587 81.827c1.045-1.597.175-4.475-2.922-8.499-4.53-5.912-12.84-12.958-21.963-19.014-6.232-4.126-12.856-7.816-18.928-10.357-8.873-3.733-14.571-4.2-16.124-1.859-1.061 1.583-.192 4.474 2.906 8.512 4.548 5.913 12.856 12.959 21.981 19.015 6.228 4.14 12.853 7.816 18.914 10.357 8.9 3.732 14.594 4.198 16.136 1.845Z"/><path stroke="#807974" stroke-linecap="round" stroke-linejoin="round" stroke-miterlimit="10" stroke-width="1.5" d="M423.497 56.158c6.93 4.605 13.234 9.95 16.691 14.44 5.81 7.568 1.305 9.835-10.055 5.07-4.618-1.947-9.642-4.751-14.392-7.903-6.946-4.59-13.25-9.95-16.691-14.438-5.813-7.568-1.324-9.835 10.052-5.056 4.618 1.932 9.644 4.735 14.395 7.887Z"/><path stroke="#807974" stroke-linecap="round" stroke-linejoin="round" stroke-miterlimit="10" stroke-width="1.5" d="M449.587 81.827c1.512-2.28 3.035-4.576 4.562-6.872 3.295-5.011 4.924-10.284 5.693-12.812.07-.261 1.947-6.435 2.266-13.22.2-4.386.057-8.425-1.148-13.596 0-.03-.667-2.833-1.728-5.317-.669-1.554-1.118-2.44-1.727-3.472a44.485 44.485 0 0 0-1.006-1.64 5.809 5.809 0 0 0-.405-.553c-2.544-3.31-8.642-7.697-13.628-9.79-1.189-.508-2.221-.828-3.05-.987a29.362 29.362 0 0 0-1.885-.292c-3.897-.465-7.427-.115-9.826.306-6.082 1.045-10.906 3.354-12.723 4.228-4.838 2.324-9.469 5.738-11.225 7.22-1.658 1.379-3.432 2.905-5.421 5.026a36.387 36.387 0 0 0-1.567 1.757 91.137 91.137 0 0 0-2.557 3.399c-1.526 2.296-3.038 4.59-4.564 6.886"/><path fill="#fff" d="m559.129 238.061-12.027 53.174c-.659 2.893-2.953 5.684-6.868 7.873-9.137 5.095-23.652 4.938-32.41-.332-3.501-2.106-5.558-4.717-6.183-7.413-4.126-17.776-8.264-35.544-12.377-53.325 1.004 4.08 4.162 8.014 9.469 11.205 7.624 4.599 18.084 6.672 28.277 6.172 7.833-.363 15.53-2.257 21.644-5.662 5.838-3.25 9.336-7.388 10.475-11.692Z"/><path fill="#fff" d="M545.436 223.193c11.254 6.773 10.873 17.562-.852 24.102-5.009 2.788-11.287 4.363-17.715 4.716-8.595.463-17.45-1.264-23.891-5.132-11.255-6.774-10.863-17.564.862-24.101 5.012-2.792 11.287-4.363 17.718-4.717 8.581-.46 17.447 1.269 23.878 5.132Z"/><path fill="#807974" d="M545.436 235.494c-6.431-3.867-15.296-5.594-23.878-5.134-6.431.356-12.707 1.928-17.718 4.719-3.22 1.795-5.556 3.919-7.058 6.184 1.361 2.033 3.421 3.947 6.196 5.616 6.441 3.868 15.295 5.593 23.891 5.132 6.428-.355 12.707-1.928 17.715-4.716 3.22-1.795 5.553-3.914 7.054-6.18-1.362-2.034-3.425-3.95-6.202-5.621Z"/><path stroke="#807974" stroke-linecap="round" stroke-linejoin="round" stroke-miterlimit="10" stroke-width="1.5" d="M551.637 241.115c-1.361-2.034-3.424-3.95-6.201-5.621-6.431-3.867-15.296-5.594-23.878-5.134-6.431.356-12.707 1.928-17.718 4.719-3.22 1.795-5.556 3.919-7.058 6.184"/><path fill="#fff" d="M549.69 220.83c-7.624-4.59-18.084-6.657-28.272-6.162-7.851.356-15.535 2.234-21.657 5.65-8.454 4.717-11.998 11.277-10.547 17.534.013.058.026.117.049.186 1.004 4.08 4.162 8.014 9.468 11.205 7.625 4.599 18.084 6.672 28.278 6.172 7.833-.363 15.53-2.257 21.644-5.662 5.839-3.25 9.337-7.387 10.474-11.69.021-.141.057-.282.09-.426 1.349-5.944-1.806-12.164-9.527-16.807Zm-5.107 26.465c-5.01 2.788-11.287 4.363-17.715 4.716-8.595.463-17.45-1.264-23.892-5.132-11.254-6.774-10.863-17.564.862-24.101 5.013-2.792 11.288-4.363 17.718-4.717 8.583-.462 17.448 1.268 23.878 5.132 11.256 6.773 10.875 17.562-.851 24.102Z"/><path stroke="#807974" stroke-linecap="round" stroke-linejoin="round" stroke-miterlimit="10" stroke-width="1.5" d="m559.129 238.061-12.027 53.174c-.659 2.893-2.953 5.684-6.868 7.873-9.137 5.095-23.652 4.938-32.41-.332-3.501-2.106-5.558-4.717-6.183-7.413-4.126-17.776-8.264-35.544-12.377-53.325"/><path stroke="#807974" stroke-linecap="round" stroke-linejoin="round" stroke-miterlimit="10" stroke-width="1.5" d="M521.417 214.668c10.189-.495 20.648 1.571 28.273 6.162 7.719 4.642 10.876 10.861 9.528 16.806-.033.143-.07.284-.09.425-1.137 4.304-4.637 8.441-10.474 11.691-6.114 3.404-13.81 5.298-21.644 5.662-10.194.5-20.653-1.572-28.278-6.172-5.305-3.191-8.464-7.125-9.468-11.206-.024-.068-.036-.128-.049-.186-1.453-6.256 2.093-12.816 10.546-17.533 6.121-3.414 13.805-5.293 21.656-5.649Z"/><path stroke="#807974" stroke-linecap="round" stroke-linejoin="round" stroke-miterlimit="10" stroke-width="1.5" d="M545.436 223.193c-6.431-3.864-15.296-5.592-23.878-5.132-6.431.355-12.707 1.925-17.718 4.717-11.726 6.537-12.117 17.328-.862 24.101 6.441 3.868 15.295 5.593 23.891 5.132 6.428-.355 12.707-1.928 17.715-4.716 11.725-6.54 12.106-17.329.852-24.102Z"/><path fill="#fff" d="M555.494 264.465c-1.056-1.82-2.65-3.26-3.566-3.796l-4.132-2.387.016-3.17 4.116 2.39c1.624.918 4.165 3.214 5.861 6.429 1.229 2.31 1.532 5.127 1.457 6.72-.629 5.191-6.353 17.712-7.29 19.517-1.13 2.253-4.237 1.64-6.593.721a16.936 16.936 0 0 1-2.268-1.072l.016-3.154c2.401 1.393 5.524 2.067 6.338.735 1.331-2.556 6.504-14.282 7.071-18.735.365-1.699.365-1.778-.81-3.844a2.759 2.759 0 0 0-.216-.354Z"/><path fill="#E5EFFD" d="M560.271 262.645c1.483 2.829 2.112 5.666 1.777 8.172-.675 5.42-6.446 18.049-7.411 19.901-.319.627-.765 1.089-1.285 1.377-2.037 1.193-5.296.137-8.006-1.162l.019-.045c2.355.919 5.463 1.531 6.592-.721.937-1.806 6.663-14.327 7.29-19.517.075-1.593-.229-4.41-1.456-6.72-1.697-3.215-4.238-5.511-5.861-6.43l-4.116-2.389.059-3.215 5.499 3.185c1.925 1.103 4.879 3.751 6.899 7.564Z"/><path fill="#fff" d="M566.516 258.999c1.498 2.832 2.126 5.665 1.791 8.177-.675 5.431-6.446 18.06-7.408 19.9a3.275 3.275 0 0 1-1.288 1.393l-6.261 3.626c.521-.288.965-.75 1.285-1.377.965-1.851 6.737-14.48 7.412-19.901.334-2.506-.294-5.343-1.777-8.172-2.021-3.812-4.973-6.461-6.901-7.562l-5.499-3.184 6.245-3.644 5.514 3.184c1.929 1.102 4.882 3.765 6.887 7.56Z"/><path fill="#004F93" d="m561.066 252.189-1.437-.75-5.513-3.184 2.817 1.546 4.133 2.388Z"/><path fill="#E5EFFD" d="M555.71 264.817c1.175 2.065 1.175 2.144.81 3.843-.567 4.453-5.74 16.178-7.071 18.735-.813 1.334-3.935.658-6.338-.735l.062-3.215c3.489 2.021 5.035 1.992 5.418 1.271.397-.75 1.132-2.326 1.99-4.285 1.99-4.546 4.608-11.129 4.976-14.07 0-.888-.065-1.73-.065-1.898.078.11.156.231.218.354Z"/><path fill="#E5EFFD" d="M549.433 279.803c.781.445.473.321 1.148.629-.856 1.959-1.593 3.535-1.99 4.285-.383.721-1.931.75-5.418-1.271l6.26-3.643Z"/><path stroke="#807974" stroke-linecap="round" stroke-linejoin="round" stroke-miterlimit="10" stroke-width="1.5" d="m543.173 283.446 6.26-3.643c.781.445.473.321 1.148.629"/><path stroke="#807974" stroke-linecap="round" stroke-linejoin="round" stroke-miterlimit="10" stroke-width="1.5" d="m543.111 286.661.062-3.214c3.489 2.02 5.035 1.991 5.418 1.27.397-.75 1.132-2.326 1.99-4.285 1.99-4.545 4.608-11.129 4.976-14.069 0-.889-.065-1.731-.065-1.898v-.029"/><path stroke="#807974" stroke-linecap="round" stroke-linejoin="round" stroke-miterlimit="10" stroke-width="1.5" d="m547.812 255.112 4.116 2.39c1.624.918 4.165 3.214 5.861 6.429 1.229 2.31 1.532 5.127 1.457 6.72-.629 5.191-6.353 17.712-7.29 19.517-1.13 2.253-4.237 1.64-6.593.721a16.936 16.936 0 0 1-2.268-1.072l.016-3.154c2.401 1.393 5.524 2.067 6.338.735 1.331-2.556 6.504-14.282 7.071-18.735.365-1.699.365-1.778-.81-3.844a2.844 2.844 0 0 0-.216-.353c-1.056-1.82-2.65-3.259-3.566-3.796l-4.132-2.387.016-3.171Z"/><path stroke="#807974" stroke-linecap="round" stroke-linejoin="round" stroke-miterlimit="10" stroke-width="1.5" d="m553.352 292.095 6.26-3.626c.522-.308.965-.75 1.288-1.393.962-1.84 6.734-14.469 7.408-19.9.335-2.512-.294-5.345-1.791-8.177-2.004-3.795-4.958-6.458-6.886-7.56l-5.515-3.184-6.245 3.644 5.499 3.184c1.928 1.101 4.881 3.75 6.901 7.562 1.483 2.829 2.112 5.666 1.777 8.172-.675 5.42-6.446 18.049-7.411 19.901-.32.626-.766 1.089-1.285 1.377ZM553.352 292.095c-2.037 1.193-5.296.137-8.006-1.162M547.871 251.899l-.059 3.213"/><path fill="#fff" stroke="#807974" stroke-linecap="round" stroke-linejoin="round" stroke-miterlimit="10" stroke-width="1.5" d="m351.221 350.886 54.459-31.442c1.437-.831 3.759-.831 5.185 0l5.839 3.39-3.109 1.795c-1.586-.442-3.557-.293-4.883.473-1.674.965-1.691 2.54-.021 3.508 1.668.969 4.386.965 6.057 0 1.329-.767 1.591-1.907.827-2.832l3.107-1.794 11.283 6.557-3.107 1.797c-1.593-.448-3.565-.299-4.891.468-1.674.964-1.691 2.539-.021 3.51 1.668.968 4.386.964 6.057 0 1.329-.768 1.591-1.909.832-2.829l3.109-1.795 11.276 6.554-3.107 1.794c-1.593-.447-3.555-.292-4.886.473-1.671.965-1.685 2.539-.026 3.504 1.669.97 4.386.964 6.058 0 1.328-.766 1.598-1.904.834-2.828l3.109-1.795 11.275 6.553-3.109 1.796c-1.585-.443-3.554-.294-4.883.473-1.671.963-1.688 2.54-.021 3.507 1.669.97 4.386.965 6.058 0 1.328-.766 1.59-1.907.826-2.831l3.109-1.795 11.282 6.558-3.109 1.795c-1.593-.448-3.563-.299-4.891.468-1.671.965-1.688 2.54-.021 3.51 1.668.969 4.386.963 6.057 0 1.329-.767 1.591-1.909.835-2.828l3.106-1.797 11.278 6.555-3.109 1.793c-1.593-.447-3.555-.292-4.883.475-1.674.963-1.688 2.538-.029 3.503 1.669.969 4.386.965 6.057 0 1.329-.767 1.602-1.903.835-2.828l3.109-1.794 5.836 3.39c1.426.83 1.418 2.174-.018 3.003l-54.46 31.444c-1.437.83-3.766.833-5.192.004l-79.939-46.456c-1.431-.829-1.416-2.176.02-3.006Z"/><path stroke="#807974" stroke-linecap="round" stroke-linejoin="round" stroke-miterlimit="10" stroke-width="1.5" d="m365.116 353.236 39.637-22.884M371.23 356.788l39.641-22.887M377.342 360.343l39.648-22.891M383.456 363.895l39.65-22.894M389.569 367.447l39.656-22.895M395.683 371.001l39.659-22.899M401.796 374.552l39.664-22.9M407.908 378.105l39.672-22.903M414.025 381.66l39.67-22.908M420.136 385.211l39.679-22.91M426.249 388.763l39.682-22.911M432.363 392.317l39.687-22.914"/><path fill="#fff" stroke="#807974" stroke-linecap="round" stroke-linejoin="round" stroke-miterlimit="10" stroke-width="1.5" d="m487.32 388.106-80.455-46.449c-1.439-.83-3.759-.83-5.194.006l-54.105 31.441c-1.429.831-1.421 2.173.018 3.003l5.872 3.39 3.089-1.794c-.775-.923-.516-2.06.803-2.828 1.669-.969 4.376-.97 6.05-.005 1.677.97 1.685 2.541.018 3.51-1.318.767-3.279.918-4.878.471l-3.089 1.796 11.349 6.553 3.089-1.794c-.769-.92-.518-2.063.803-2.829 1.669-.968 4.376-.968 6.055-.001 1.674.966 1.688 2.541.021 3.51-1.318.767-3.287.915-4.886.468l-3.089 1.795 11.357 6.557 3.089-1.794c-.777-.925-.527-2.065.794-2.832 1.668-.969 4.378-.969 6.057 0 1.681.97 1.689 2.54.022 3.508-1.321.767-3.29.916-4.889.471l-3.087 1.794 11.358 6.558 3.086-1.795c-.775-.924-.518-2.06.803-2.827 1.668-.969 4.376-.969 6.05-.005 1.677.97 1.688 2.541.021 3.509-1.321.767-3.282.919-4.881.472l-3.089 1.795 11.352 6.555 3.086-1.795c-.767-.92-.518-2.062.803-2.827 1.669-.969 4.376-.969 6.058-.002 1.671.966 1.688 2.541.021 3.51-1.321.767-3.29.916-4.889.471l-3.089 1.793 11.357 6.557 3.089-1.793c-.777-.926-.524-2.066.794-2.833 1.668-.968 4.378-.968 6.057 0 1.681.97 1.689 2.54.021 3.509-1.32.767-3.287.916-4.885.469l-3.09 1.794 5.875 3.392c1.444.835 3.762.835 5.191.003l54.105-31.441c1.434-.834 1.426-2.18-.018-3.016Z"/><path stroke="#807974" stroke-linecap="round" stroke-linejoin="round" stroke-miterlimit="10" stroke-width="1.5" d="m368.494 371.496 39.638-22.887M374.609 375.048l39.64-22.889M380.721 378.6l39.646-22.891M386.833 382.154l39.651-22.895M392.947 385.707l39.656-22.895M399.06 389.258l39.661-22.899M405.174 392.812l39.664-22.902M411.286 396.365l39.67-22.904M417.401 399.917l39.672-22.907M423.513 403.47l39.678-22.909M429.627 407.022l39.681-22.91M435.74 410.574l39.688-22.914"/><path fill="#fff" stroke="#807974" stroke-linecap="round" stroke-linejoin="round" stroke-miterlimit="10" stroke-width="1.5" d="m576.195 361.675-80.454-46.45c-1.44-.83-3.759-.83-5.195.005l-54.105 31.442c-1.429.831-1.421 2.172.019 3.003l5.871 3.391 3.09-1.795c-.775-.924-.518-2.061.802-2.829 1.669-.968 4.376-.968 6.05-.003 1.678.968 1.686 2.539.018 3.508-1.318.767-3.279.92-4.878.472l-3.089 1.796 11.349 6.552 3.09-1.794c-.77-.92-.518-2.061.802-2.827 1.669-.97 4.376-.97 6.055-.001 1.674.965 1.689 2.54.021 3.508-1.318.767-3.287.915-4.885.468l-3.09 1.795 11.357 6.557 3.09-1.793c-.778-.924-.527-2.066.793-2.834 1.669-.969 4.379-.969 6.058 0 1.68.97 1.688 2.541.021 3.508-1.321.768-3.29.916-4.889.471l-3.086 1.795 11.357 6.557 3.087-1.794c-.775-.925-.518-2.062.802-2.829 1.669-.968 4.376-.968 6.05-.004 1.679.968 1.688 2.539.021 3.508-1.321.767-3.282.92-4.881.472l-3.089 1.796 11.352 6.554 3.087-1.796c-.767-.92-.518-2.06.802-2.827 1.669-.97 4.376-.97 6.058-.001 1.671.965 1.688 2.54.021 3.509-1.321.767-3.29.916-4.888.47l-3.09 1.794 11.357 6.557 3.09-1.794c-.778-.924-.525-2.065.793-2.832 1.669-.969 4.379-.969 6.058 0 1.68.97 1.688 2.541.021 3.51-1.321.765-3.287.916-4.886.467l-3.089 1.796 5.874 3.391c1.444.834 3.763.834 5.193.004l54.105-31.443c1.431-.83 1.425-2.174-.02-3.01Z"/><path stroke="#807974" stroke-linecap="round" stroke-linejoin="round" stroke-miterlimit="10" stroke-width="1.5" d="m457.37 345.063 39.635-22.884M463.483 348.615l39.64-22.887M469.597 352.17l39.645-22.894M475.708 355.722l39.651-22.894M481.821 359.274l39.656-22.895M487.935 362.827l39.662-22.899M494.05 366.379l39.662-22.9M500.16 369.933l39.672-22.905M506.277 373.486l39.672-22.907M512.388 377.038l39.679-22.91M518.501 380.59l39.683-22.911M524.615 384.143l39.687-22.913"/><defs><linearGradient id="a" x1="396.909" x2="429.105" y1="100.497" y2="281.093" gradientUnits="userSpaceOnUse"><stop stop-color="#180B02"/><stop offset="1" stop-color="#180B02" stop-opacity="0"/></linearGradient><linearGradient id="b" x1="492.575" x2="425.67" y1="213.689" y2="210.061" gradientUnits="userSpaceOnUse"><stop stop-color="#DBEDFF"/><stop offset="1" stop-color="#fff"/></linearGradient><linearGradient id="c" x1="484.223" x2="432.266" y1="188.193" y2="204.448" gradientUnits="userSpaceOnUse"><stop stop-color="#DBEDFF"/><stop offset="1" stop-color="#fff"/></linearGradient><linearGradient id="d" x1="455.268" x2="385.799" y1="82.33" y2="42.66" gradientUnits="userSpaceOnUse"><stop stop-color="#DBEDFF"/><stop offset="1" stop-color="#fff"/></linearGradient></defs></svg>