<svg width="240" height="217" viewBox="0 0 240 217" fill="none" xmlns="http://www.w3.org/2000/svg">
<path d="M179.652 68.2829C180.383 54.5501 191.4 43.5315 205.075 43.5001C219.007 43.4639 230.743 55.0028 230.743 69.8923L230.708 71.4003C237.341 74.5685 240.638 82.734 237.38 90.1341C238.519 91.0262 239.342 92.2322 239.737 93.5878C240.133 94.9434 240.081 96.3825 239.589 97.709C239.098 99.0355 238.19 100.185 236.99 101C235.79 101.816 234.357 102.258 232.884 102.266C211.599 102.198 191.695 96.3123 170.804 96.0937C170.617 96.0903 170.438 96.0166 170.307 95.8886C170.175 95.7606 170.102 95.5884 170.102 95.4092C170.101 95.3206 170.119 95.2328 170.154 95.1508C170.189 95.0688 170.24 94.9942 170.306 94.9314C170.371 94.8686 170.449 94.8189 170.534 94.785C170.62 94.7512 170.712 94.7339 170.804 94.7342C191.666 94.8707 212.376 100.507 232.884 100.44C233.564 100.439 234.237 100.309 234.864 100.057C235.491 99.8051 236.059 99.4368 236.536 98.9734C237.085 98.4429 237.503 97.8011 237.757 97.0954C238.011 96.3898 238.096 95.6385 238.005 94.8973C237.914 94.156 237.65 93.4439 237.231 92.8137C236.813 92.1835 236.252 91.6514 235.589 91.257C235.376 91.1327 235.219 90.9375 235.147 90.709C235.076 90.4805 235.096 90.2349 235.202 90.0194C238.487 84.1177 236.047 75.6696 229.232 72.9156C229.032 72.8377 228.864 72.7011 228.75 72.5256C228.637 72.35 228.584 72.1446 228.601 71.9388L228.706 69.8923C228.706 56.2742 217.986 45.45 205.075 45.415C192.984 45.3836 182.178 54.794 181.267 68.9868C181.259 69.1759 181.18 69.356 181.045 69.4941C180.91 69.6322 180.727 69.7191 180.53 69.739C171.182 70.7314 166.863 81.9335 171.997 89.231C172.086 89.3726 172.115 89.5421 172.075 89.7033C172.036 89.8646 171.933 90.0049 171.787 90.0943C171.717 90.14 171.639 90.1717 171.556 90.1874C171.473 90.2032 171.388 90.2027 171.305 90.186C171.222 90.1693 171.144 90.1367 171.075 90.0902C171.006 90.0437 170.947 89.9843 170.903 89.9156C165.21 81.8502 169.679 69.9961 179.652 68.2829Z" fill="white"/>
<path d="M164.444 115.075C164.409 111.112 164.198 96.868 164.127 91.2971C164.126 90.6038 163.938 89.9224 163.582 89.3186C163.225 88.7149 162.712 88.2091 162.091 87.8501C159.142 86.1126 153.98 83.0761 153.98 83.0761C153.98 83.0761 144.816 78.6438 113.558 78.3335C82.3415 78.0219 72.6502 83.3514 72.6502 83.3514C72.6502 83.3514 67.173 86.3094 63.9771 88.0215C63.3156 88.3873 62.7662 88.9127 62.384 89.5452C62.0018 90.1777 61.8002 90.8951 61.7993 91.6256C61.8359 97.3341 61.9408 111.491 61.9749 115.703C61.9827 116.281 62.1182 116.851 62.3725 117.376C62.6267 117.9 62.994 118.368 63.4503 118.747C74.2153 127.638 118.652 126.791 132.955 125.74C132.979 125.06 133.019 124.334 133.048 123.55L138.512 123.377C138.587 123.997 138.726 124.607 138.925 125.2C155.252 123.421 161.158 120.038 163.279 117.945C163.662 117.565 163.963 117.115 164.163 116.622C164.363 116.13 164.459 115.604 164.444 115.075ZM74.3618 87.1111C74.6966 86.0342 74.9934 88.1773 90.0925 89.7119C105.591 91.1068 121.192 91.1035 136.689 89.7022C151.679 88.2087 152.051 86.1356 152.385 87.1111C152.409 87.1582 152.422 87.2094 152.425 87.2617C152.427 87.314 152.418 87.3662 152.399 87.4151C152.379 87.4639 152.349 87.5083 152.31 87.5456C152.272 87.5828 152.226 87.6121 152.175 87.6315C147.214 89.2797 142.061 90.3412 136.83 90.7925C121.251 92.4328 105.531 92.4328 89.9523 90.7925C84.724 90.3569 79.5711 89.312 74.6082 87.681C74.5509 87.6615 74.4986 87.6307 74.4545 87.5906C74.4105 87.5506 74.3757 87.5021 74.3525 87.4484C74.3293 87.3947 74.3181 87.3369 74.3197 87.2788C74.3213 87.2207 74.3357 87.1636 74.3618 87.1111ZM161.727 92.7858C154.78 96.9103 139.082 98.7709 130.932 99.4265C120.197 100.227 109.417 100.298 98.6721 99.639C89.6365 99.0703 73.5875 97.3884 65.5472 93.3738C65.444 93.3171 65.3679 93.2241 65.335 93.1146C65.3022 93.0052 65.3153 92.8878 65.3714 92.7874C65.4276 92.6869 65.5224 92.6113 65.6359 92.5766C65.7493 92.5418 65.8725 92.5506 65.9792 92.6011C73.9033 96.4382 89.8348 97.9136 98.7151 98.4316C109.404 99.0282 120.122 98.9504 130.8 98.1986C160.233 96.0373 160.991 91.0098 161.854 92.2413C161.908 92.331 161.926 92.437 161.902 92.5384C161.879 92.6398 161.816 92.729 161.727 92.7883V92.7858Z" fill="#D1D0D6"/>
<path d="M164.444 204.407C164.373 199.859 164.233 188.069 164.162 182.363C164.146 181.383 163.87 180.424 163.36 179.574C162.851 178.724 162.124 178.012 161.248 177.503C153.199 172.752 154.088 173.181 152.575 172.701C133.889 177.573 91.9957 177.278 73.956 172.931C72.9454 173.305 73.4608 173.032 64.8963 177.674C63.954 178.181 63.1705 178.919 62.627 179.812C62.0835 180.706 61.7998 181.722 61.8053 182.755C61.8419 188.572 61.9467 200.251 61.9808 204.984C61.982 205.934 62.2297 206.87 62.7017 207.706C63.1737 208.542 63.8552 209.254 64.6854 209.776C69.2506 212.576 81.3293 216.523 113.423 216.523C145.903 216.523 157.736 212.15 162.021 209.116C162.785 208.569 163.403 207.858 163.824 207.039C164.245 206.221 164.458 205.319 164.444 204.407ZM74.3615 177.251C74.6962 176.174 74.9931 178.318 90.0921 179.853C105.59 181.248 121.192 181.244 136.689 179.842C151.678 178.349 152.051 176.276 152.384 177.251C152.409 177.298 152.422 177.349 152.425 177.401C152.427 177.454 152.418 177.506 152.399 177.555C152.379 177.604 152.349 177.648 152.31 177.685C152.272 177.723 152.226 177.752 152.175 177.771C147.214 179.42 142.06 180.482 136.829 180.933C121.251 182.572 105.531 182.572 89.9519 180.933C84.7237 180.497 79.5709 179.452 74.6078 177.822C74.5505 177.802 74.4981 177.771 74.4541 177.731C74.41 177.691 74.3753 177.642 74.3521 177.588C74.3289 177.535 74.3177 177.477 74.3193 177.419C74.3209 177.36 74.3353 177.303 74.3615 177.251ZM161.727 182.925C154.789 187.041 139.14 188.905 130.931 189.566C120.197 190.367 109.417 190.438 98.6717 189.778C89.6449 189.211 73.5871 187.528 65.5469 183.514C65.4474 183.456 65.3751 183.363 65.3447 183.255C65.3143 183.147 65.3279 183.032 65.383 182.934C65.438 182.835 65.5302 182.76 65.6409 182.724C65.7516 182.689 65.8725 182.694 65.9789 182.741C73.9017 186.576 89.8294 188.053 98.7147 188.571C109.404 189.168 120.122 189.09 130.8 188.338C160.233 186.178 160.99 181.149 161.853 182.381C161.908 182.47 161.925 182.576 161.901 182.677C161.878 182.778 161.816 182.866 161.727 182.925Z" fill="#D1D0D6"/>
<path d="M20.4077 182.584C21.4145 179.288 23.5048 176.388 26.3695 174.315C29.2341 172.242 32.7209 171.105 36.3139 171.073C40.4313 171.162 44.3723 172.688 47.3933 175.363C50.4144 178.039 52.3065 181.678 52.7128 185.596C54.8918 187.044 56.4942 189.154 57.2593 191.583C58.0244 194.011 57.9072 196.616 56.9268 198.973L57.3828 198.957C57.5709 198.948 57.7551 199.01 57.8947 199.131C58.0344 199.252 58.1181 199.421 58.1275 199.601C58.1369 199.781 58.0711 199.957 57.9447 200.09C57.8184 200.223 57.6417 200.304 57.4536 200.312L55.8379 200.392C55.7096 200.403 55.5804 200.382 55.4639 200.329C55.3475 200.276 55.2481 200.194 55.1763 200.092C55.1044 199.989 55.0627 199.87 55.0555 199.747C55.0484 199.624 55.076 199.502 55.1356 199.392C56.2821 197.223 56.5469 194.725 55.879 192.38C55.2111 190.035 53.6578 188.01 51.5191 186.696C51.4139 186.635 51.3265 186.55 51.2651 186.449C51.2036 186.347 51.1702 186.232 51.1679 186.115C49.8655 174.645 36.4731 168.748 27.2201 176.033C24.6758 178.078 22.8798 180.844 22.0928 183.931C22.0601 184.054 22.0023 184.169 21.9228 184.271C21.8433 184.373 21.7437 184.458 21.6295 184.523C21.5154 184.588 21.389 184.631 21.2576 184.649C21.1262 184.667 20.9924 184.66 20.8637 184.629C11.5956 182.535 4.39536 192.743 9.45195 200.896C9.54669 201.04 9.60053 201.205 9.60816 201.375C9.61578 201.544 9.57693 201.713 9.49544 201.864C9.41394 202.016 9.29262 202.144 9.14344 202.236C8.99426 202.329 8.82238 202.383 8.64477 202.393L6.011 202.491C4.94885 202.531 3.94347 202.959 3.2029 203.688C2.64391 204.205 2.26103 204.871 2.10434 205.599C1.94765 206.327 2.02443 207.083 2.32464 207.769C2.62485 208.455 3.13453 209.038 3.78703 209.442C4.43954 209.847 5.20451 210.053 5.98194 210.036C15.9183 209.658 55.6687 207.92 58.4427 207.807C58.6164 207.803 58.7852 207.862 58.9154 207.972C59.0456 208.083 59.1276 208.235 59.145 208.401C59.1463 208.566 59.0817 208.725 58.9643 208.846C58.8469 208.967 58.6856 209.04 58.5134 209.052C49.1657 209.502 8.96689 211.829 6.09058 211.955C4.90723 211.992 3.73964 211.688 2.73971 211.082C1.73978 210.476 0.95381 209.596 0.484065 208.558C0.0143198 207.519 -0.117453 206.369 0.105889 205.258C0.329232 204.146 0.897351 203.125 1.73633 202.326C2.8413 201.223 4.35209 200.573 5.9491 200.515L6.93313 200.483C2.81636 191.903 9.64775 181.145 20.4077 182.584Z" fill="white"/>
<path d="M170.343 152.257C170.663 151.787 171.04 151.355 171.466 150.969C172.995 149.593 174.904 149.126 176.417 150.536C177.674 152.063 178.377 153.939 178.419 155.882C182.442 155.602 184.026 159.667 182.738 163.293C183.687 163.732 191.214 167.429 194.045 168.797C194.253 168.905 194.416 169.079 194.506 169.289C194.595 169.499 194.606 169.732 194.536 169.948C194.46 170.165 194.305 170.349 194.098 170.465C193.892 170.582 193.649 170.624 193.413 170.583C186.607 169.331 178.47 167.685 170.764 167.565C170.576 167.56 170.398 167.486 170.266 167.357C170.135 167.229 170.062 167.056 170.062 166.876C170.061 166.788 170.079 166.701 170.115 166.619C170.15 166.538 170.201 166.463 170.267 166.401C170.332 166.339 170.41 166.289 170.495 166.256C170.58 166.222 170.672 166.205 170.764 166.205C176.262 166.247 181.747 166.725 187.162 167.635C180.511 164.453 180.688 164.657 180.455 164.112C180.374 163.861 180.399 163.589 180.526 163.356C181.916 160.626 181.097 157.044 177.681 157.849C177.536 157.882 177.385 157.882 177.239 157.849C177.094 157.815 176.959 157.749 176.846 157.656C176.733 157.563 176.645 157.445 176.588 157.313C176.532 157.18 176.51 157.037 176.523 156.895C176.689 155.31 176.353 152.806 175.223 151.679C174.04 150.498 172.123 152.122 171.221 153.49C171.12 153.642 170.962 153.752 170.779 153.796C170.597 153.841 170.403 153.818 170.237 153.732C169.833 153.505 169.383 153.363 168.917 153.315C168.451 153.267 167.98 153.314 167.534 153.453C167.375 153.506 167.201 153.499 167.048 153.433C166.894 153.367 166.773 153.247 166.71 153.098C166.647 152.949 166.646 152.782 166.708 152.633C166.77 152.483 166.89 152.362 167.043 152.295C168.103 151.904 169.274 151.891 170.343 152.257Z" fill="white"/>
<path d="M110.949 8.28276C111.404 7.77204 112.176 8.11614 112.359 8.23567C112.5 8.34474 112.679 8.40094 112.86 8.39384C113.042 8.38673 113.215 8.31679 113.347 8.19703C114.297 7.22147 110.82 4.77651 109.827 7.68752C109.573 8.43489 110.359 8.94441 110.949 8.28276Z" fill="white"/>
<path d="M116.877 7.99832C117.163 7.81394 117.501 7.71716 117.847 7.72083C118.192 7.7245 118.528 7.82844 118.81 8.01885C118.925 8.15452 119.089 8.24376 119.27 8.26882C119.451 8.29388 119.635 8.25291 119.786 8.15408C120.981 7.2594 117.649 4.41843 115.87 7.20387C115.76 7.33147 115.707 7.4957 115.724 7.66043C115.74 7.82516 115.824 7.97689 115.958 8.08224C116.091 8.18759 116.263 8.23794 116.436 8.2222C116.608 8.20646 116.767 8.12593 116.877 7.99832Z" fill="white"/>
<path d="M117.871 11.9026C118.119 11.9174 118.365 11.8151 118.554 11.6181C118.744 11.4211 118.861 11.1457 118.88 10.8523C118.899 10.5589 118.819 10.2716 118.657 10.0537C118.494 9.83573 118.264 9.70497 118.015 9.69014C117.767 9.67531 117.521 9.77764 117.332 9.97461C117.143 10.1716 117.026 10.4471 117.006 10.7405C116.987 11.0338 117.067 11.3211 117.23 11.539C117.392 11.757 117.622 11.8878 117.871 11.9026Z" fill="white"/>
<path d="M111.415 11.8381C111.663 11.853 111.909 11.7506 112.098 11.5537C112.288 11.3567 112.405 11.0812 112.424 10.7878C112.443 10.4944 112.363 10.2072 112.201 9.98922C112.038 9.77128 111.808 9.64051 111.559 9.62569C111.311 9.61086 111.065 9.71319 110.876 9.91016C110.687 10.1071 110.569 10.3826 110.55 10.676C110.531 10.9694 110.611 11.2567 110.774 11.4746C110.936 11.6925 111.166 11.8233 111.415 11.8381Z" fill="white"/>
<path d="M104.698 27.993C92.5539 30.4199 84.0854 42.1424 80.2768 53.3795C79.193 56.5779 78.358 60.759 79.553 63.9236C81.0954 68.0082 87.4467 70.0197 91.9185 69.5983C92.083 69.5861 92.2461 69.6347 92.3742 69.7341C92.5023 69.8335 92.5857 69.976 92.607 70.1324C92.6284 70.2888 92.5862 70.4471 92.4891 70.5746C92.392 70.7021 92.2475 70.7891 92.0852 70.8177C86.9528 71.3925 80.0191 69.1842 78.113 64.4367C76.7045 60.9353 77.4927 56.4958 78.6549 52.8893C82.6377 40.5269 91.7795 28.2345 105.149 25.9356C105.382 25.8993 105.621 25.9412 105.826 26.0541C106.03 26.1669 106.187 26.3439 106.271 26.555C109.155 33.7571 119.893 36.1042 124.539 25.8729C124.62 25.6973 124.753 25.5487 124.923 25.4465C125.092 25.3442 125.29 25.293 125.491 25.2994C137.64 25.5614 144.454 35.9545 149.436 46.5143C152.846 53.7526 154.615 61.5994 148.425 66.808C145.658 69.0373 142.285 70.4682 138.699 70.9337C138.521 70.9518 138.343 70.9044 138.201 70.8012C138.059 70.698 137.963 70.5469 137.934 70.3786C137.905 70.2104 137.944 70.0377 138.043 69.8961C138.142 69.7544 138.295 69.6543 138.469 69.6164C141.783 69.181 144.891 67.8293 147.412 65.7274C152.999 60.9921 150.955 53.6536 147.848 47.2086C143.3 37.7584 136.939 27.7793 126.11 27.2227C124.773 30.1227 122.413 32.4814 119.441 33.8863C113.764 36.2419 107.216 33.2633 104.698 27.993Z" fill="white"/>
<path d="M95.8684 47.3756C95.5421 49.1255 95.5084 50.9137 95.7686 52.6736C95.7791 52.8477 95.8598 53.0111 95.9938 53.1295C96.1277 53.2479 96.3045 53.312 96.4868 53.3084C96.6692 53.3048 96.8431 53.2338 96.9718 53.1102C97.1005 52.9867 97.1741 52.8202 97.1771 52.6459C97.4115 50.8922 97.4115 49.1172 97.1771 47.3636C97.1763 47.2814 97.1585 47.2003 97.1249 47.1247C97.0912 47.0491 97.0423 46.9806 96.981 46.9231C96.9196 46.8656 96.847 46.8202 96.7673 46.7895C96.6876 46.7588 96.6024 46.7434 96.5164 46.7442C96.4305 46.745 96.3456 46.7619 96.2665 46.7941C96.1874 46.8263 96.1158 46.873 96.0556 46.9316C95.9954 46.9903 95.9479 47.0597 95.9158 47.1358C95.8837 47.212 95.8676 47.2935 95.8684 47.3756Z" fill="white"/>
<path d="M128.55 45.8124C128.142 47.5745 128.107 49.3967 128.446 51.172C128.45 51.2583 128.472 51.3431 128.51 51.4214C128.548 51.4997 128.602 51.5701 128.669 51.6285C128.735 51.6869 128.813 51.7322 128.898 51.7618C128.983 51.7914 129.073 51.8047 129.164 51.801C129.254 51.7973 129.343 51.7766 129.425 51.7401C129.507 51.7036 129.58 51.6521 129.641 51.5884C129.703 51.5247 129.75 51.4502 129.781 51.369C129.812 51.2878 129.826 51.2016 129.822 51.1152C129.948 49.3794 129.945 47.6371 129.81 45.9017C129.817 45.8226 129.806 45.7431 129.78 45.6678C129.754 45.5924 129.713 45.5227 129.659 45.4626C129.605 45.4025 129.539 45.3532 129.465 45.3175C129.39 45.2818 129.31 45.2605 129.227 45.2546C129.144 45.2487 129.061 45.2585 128.982 45.2834C128.903 45.3082 128.83 45.3477 128.767 45.3995C128.705 45.4513 128.653 45.5144 128.616 45.5852C128.578 45.6561 128.556 45.7333 128.55 45.8124Z" fill="white"/>
<path d="M117.389 65.3229C117.356 64.3741 116.939 63.4747 116.224 62.8151C115.51 62.1555 114.555 61.7874 113.562 61.7889C113.067 61.7788 112.575 61.8624 112.115 62.0349C111.654 62.2074 111.234 62.4654 110.878 62.7939C110.522 63.1224 110.238 63.5151 110.042 63.9491C109.845 64.3832 109.741 64.8501 109.734 65.3229C109.711 65.817 109.793 66.3105 109.975 66.7735C110.157 67.2365 110.435 67.6595 110.793 68.0169C111.151 68.3744 111.58 68.6589 112.056 68.8532C112.532 69.0476 113.044 69.1477 113.562 69.1477C114.079 69.1477 114.591 69.0476 115.067 68.8532C115.543 68.6589 115.973 68.3744 116.33 68.0169C116.688 67.6595 116.966 67.2365 117.148 66.7735C117.33 66.3105 117.412 65.817 117.389 65.3229Z" fill="white"/>
<path d="M114.918 58.149C114.576 58.4151 114.305 58.7546 114.127 59.1398C113.948 59.5249 113.867 59.945 113.89 60.3658C113.848 60.4704 113.834 60.5835 113.85 60.6946C113.865 60.8057 113.91 60.9112 113.98 61.0013C114.05 61.0914 114.142 61.1632 114.249 61.21C114.356 61.2567 114.473 61.277 114.59 61.2689C115.45 61.3488 116.311 61.1243 117.009 60.6381C117.708 60.1519 118.195 59.4376 118.379 58.6307C118.685 57.2145 116.188 57.0466 114.918 58.149Z" fill="white"/>
<path d="M122.503 15.5809C123.125 15.5159 123.708 15.2582 124.163 14.847C124.617 14.4358 124.919 13.8937 125.021 13.3033C125.124 12.713 125.021 12.1069 124.73 11.5775C124.438 11.0481 123.973 10.6244 123.406 10.371C123.22 10.2833 123.023 10.2168 122.821 10.173C122.934 8.89258 122.924 7.60493 122.791 6.32628C121.582 -3.235 106.552 -1.89118 106.759 9.90135C102.559 10.9204 103.484 15.6316 106.773 15.9878C106.048 17.5755 104.919 20.4551 106.47 21.3317L106.445 21.7325C106.345 23.255 106.797 24.8089 108.388 24.8427C108.52 25.3304 108.842 25.7516 109.288 26.0207C109.734 26.2898 110.27 26.3866 110.788 26.2916C111.7 28.8271 113.515 29.1519 114.896 28.0314C115.126 28.2128 115.395 28.3455 115.683 28.4209C115.971 28.4962 116.273 28.5124 116.568 28.4685C116.863 28.4247 117.145 28.3216 117.396 28.1662C117.646 28.0107 117.86 27.8064 118.022 27.5666C118.393 27.0853 118.657 26.5363 118.796 25.9535C120.149 26.2107 121.145 25.1361 121.604 23.907C122.393 24.0857 123.239 23.6305 123.359 22.3483C123.396 21.8696 123.357 21.3883 123.242 20.9211C123.597 20.7792 123.898 20.5348 124.102 20.2219C124.306 19.909 124.402 19.5431 124.378 19.1753C124.378 18.1236 123.08 16.3983 122.379 15.5845C122.42 15.5863 122.462 15.5851 122.503 15.5809ZM116.715 18.1164C116.286 18.0059 115.865 17.8737 115.451 17.7204C114.344 17.2374 114.827 17.1541 114.292 17.4789C113.74 17.803 113.113 17.991 112.466 18.0258C112.379 18.0372 112.29 18.016 112.218 17.9666C112.146 17.9172 112.097 17.8433 112.08 17.7602C112.068 17.6768 112.091 17.5922 112.143 17.5245C112.195 17.4568 112.273 17.4114 112.36 17.398C113.061 17.1097 113.712 16.7222 114.292 16.2486C114.387 16.1743 114.506 16.1346 114.629 16.1363C114.752 16.1381 114.87 16.1813 114.963 16.2582C115.568 16.7453 116.241 17.1492 116.963 17.4584C117.009 17.474 117.051 17.498 117.086 17.5291C117.122 17.5601 117.151 17.5976 117.172 17.6394C117.192 17.6811 117.204 17.7263 117.206 17.7725C117.209 17.8186 117.202 17.8647 117.185 17.9081C117.169 17.9516 117.144 17.9915 117.111 18.0257C117.079 18.0598 117.04 18.0875 116.996 18.1072C116.952 18.1269 116.905 18.1381 116.857 18.1403C116.808 18.1425 116.76 18.1356 116.715 18.12V18.1164ZM122.307 14.2528C122.194 14.2685 122.088 14.3104 121.996 14.375C121.904 14.4395 121.831 14.5245 121.782 14.6227C121.733 14.7208 121.71 14.8289 121.715 14.9375C121.721 15.0461 121.754 15.1518 121.812 15.2452C121.719 15.2504 121.629 15.276 121.548 15.32C121.468 15.3639 121.399 15.4251 121.347 15.4988H121.279C120.268 16.74 118.752 12.8522 115.421 12.4453C115.527 11.6791 115.52 10.9025 115.402 10.138C115.27 8.95476 115.237 8.37401 114.644 8.31605C113.999 8.25327 113.813 8.9789 113.581 10.0643C113.395 10.9007 113.4 11.7656 113.596 12.5999C111.989 13.1178 111.424 14.394 110.005 15.2658C109.364 15.6497 109.101 15.4807 108.856 15.0605C108.794 14.934 108.7 14.8237 108.584 14.7387C108.468 14.6538 108.332 14.5966 108.188 14.572C108.043 14.5475 107.895 14.5562 107.755 14.5975C107.615 14.6387 107.488 14.7114 107.383 14.8094L106.79 14.755C106.531 14.6966 106.29 14.5834 106.083 14.4236C105.877 14.2638 105.711 14.0616 105.597 13.8321C105.484 13.6025 105.426 13.3515 105.428 13.0976C105.43 12.8438 105.492 12.5936 105.609 12.3656C105.858 12.0613 106.178 11.816 106.542 11.6485C106.907 11.481 107.307 11.3959 107.712 11.3997C107.932 11.3819 108.137 11.2846 108.284 11.1276C108.432 10.9705 108.511 10.7656 108.506 10.5545C108.367 1.39049 117.67 -0.226195 120.265 4.49589C121.04 6.2846 121.336 8.22945 121.127 10.1549C121.076 10.9325 121.001 11.1305 121.29 11.4275C121.645 11.7897 121.959 11.6303 122.365 11.6871C122.694 11.7295 122.995 11.8862 123.211 12.1273C123.426 12.3684 123.542 12.677 123.534 12.9941C123.527 13.3113 123.398 13.6148 123.172 13.8467C122.945 14.0787 122.637 14.224 122.307 14.2528Z" fill="white"/>
<path d="M164.444 160.342C164.373 155.918 164.233 143.466 164.127 137.771C164.12 136.878 163.874 136.001 163.413 135.224C162.953 134.447 162.292 133.795 161.494 133.33C158.509 131.565 153.98 128.9 153.98 128.9C152.016 128.1 149.967 127.505 147.87 127.124C145.768 127.524 143.4 127.893 140.734 128.219C141.77 129.414 144.941 132.267 145.451 134.342C147.633 133.984 149.777 133.438 151.857 132.712C151.96 132.672 152.076 132.672 152.179 132.713C152.281 132.755 152.362 132.833 152.404 132.932C152.446 133.03 152.446 133.14 152.403 133.238C152.36 133.336 152.278 133.414 152.175 133.454C150.009 134.254 147.773 134.867 145.493 135.286C145.16 137.127 143.192 136.755 141.413 136.002C126.015 138.361 104.789 138.359 89.3088 136.537C85.5192 138.495 84.3268 137.212 84.8182 135.933C81.3338 135.475 77.9108 134.661 74.6077 133.506C74.4956 133.462 74.4067 133.377 74.3604 133.269C74.314 133.162 74.3142 133.042 74.3608 132.935C74.4073 132.827 74.4965 132.742 74.6087 132.698C74.7208 132.654 74.8468 132.654 74.9589 132.699C78.3346 133.814 81.8259 134.579 85.3727 134.98C87.1403 133.078 88.6527 130.973 89.8748 128.713C85.3601 128.313 81.5781 127.805 78.415 127.235C76.4205 127.66 74.4869 128.314 72.6561 129.181C72.6561 129.181 67.8458 131.772 64.6145 133.507C63.7618 133.978 63.0534 134.654 62.5603 135.469C62.0673 136.283 61.8068 137.208 61.8052 138.149C61.8418 143.966 61.9467 156.31 61.9808 160.931C61.9787 161.782 62.1954 162.621 62.6119 163.374C63.0285 164.126 63.632 164.77 64.3695 165.247C68.6176 168.053 80.4866 172.211 113.423 172.211C146.747 172.211 158.334 167.604 162.337 164.563C163.009 164.066 163.55 163.425 163.916 162.692C164.282 161.959 164.463 161.154 164.444 160.342ZM161.727 138.609C154.789 142.723 139.14 144.589 130.931 145.249C120.197 146.05 109.417 146.121 98.6717 145.461C89.6461 144.893 73.587 143.211 65.5468 139.197C65.4435 139.14 65.3674 139.047 65.3346 138.937C65.3018 138.828 65.3148 138.711 65.371 138.61C65.4271 138.51 65.522 138.434 65.6354 138.399C65.7489 138.365 65.872 138.373 65.9788 138.424C73.9028 142.261 89.8331 143.736 98.7146 144.254C109.403 144.851 120.122 144.773 130.8 144.021C138.807 143.433 154.36 141.86 161.292 137.931C161.385 137.878 161.496 137.862 161.601 137.887C161.707 137.912 161.797 137.976 161.853 138.064C161.908 138.154 161.925 138.259 161.901 138.361C161.878 138.462 161.816 138.549 161.727 138.609Z" fill="#D1D0D6"/>
<path d="M90.8623 135.611C107.131 137.033 123.509 136.892 139.748 135.188C136.608 133.482 133.78 132.17 133.121 128.957C120.832 129.759 108.502 129.828 96.2031 129.163C96.1564 132.031 93.5656 133.898 90.8623 135.611Z" fill="#D1D0D6"/>
<path d="M146.219 133.531C145.278 131.237 142.183 128.74 140.882 127.132C140.164 126.114 139.628 124.99 139.294 123.805C139.719 123.736 140.141 123.652 140.558 123.551C140.729 123.516 140.885 123.431 141.005 123.308C141.124 123.185 141.201 123.03 141.225 122.864C142.032 117.977 142.84 113.117 143.472 108.231C144.229 102.522 144.674 96.7802 144.806 91.0277C144.738 87.3307 143.393 83.759 140.978 80.87C139.152 78.5442 137.03 76.4442 134.662 74.6182C134.569 74.5477 134.459 74.4993 134.343 74.4769L138.068 53.1605C138.092 53.018 138.082 52.8722 138.04 52.7337C137.997 52.5953 137.922 52.4678 137.821 52.3605C137.72 52.2533 137.595 52.169 137.456 52.114C137.316 52.0589 137.165 52.0345 137.014 52.0425L89.9577 54.3727C89.832 54.3785 89.7093 54.4111 89.5986 54.4682C89.4879 54.5253 89.392 54.6054 89.3179 54.7026C89.2439 54.7998 89.1936 54.9116 89.1707 55.0298C89.1479 55.148 89.153 55.2697 89.1859 55.3857L94.8071 75.8123C90.7901 77.476 86.1769 79.2267 83.5646 82.6074C79.4895 87.9924 79.8698 94.8974 81.5637 101.315C83.4765 109.367 85.9999 117.277 89.1139 124.979C89.2016 125.155 89.3327 125.309 89.496 125.426C89.6592 125.543 89.8497 125.62 90.0512 125.652C89.2048 130.394 85.2965 132.986 84.0295 135.19C83.7842 135.539 83.6501 135.949 83.6436 136.369C83.637 136.79 83.7582 137.203 83.9925 137.559C84.2267 137.915 84.564 138.198 84.9634 138.375C85.3628 138.551 85.8072 138.613 86.2426 138.553C87.7883 138.327 89.2629 137.778 90.5615 136.946C92.8782 135.445 95.2353 133.874 96.3192 131.82C96.7624 131.012 96.9998 130.116 97.0121 129.204C97.0244 128.291 96.8112 127.389 96.3899 126.571C96.0589 125.866 95.0496 126.329 96.5579 125.967C96.7745 125.911 96.9664 125.789 97.1054 125.621C97.2443 125.452 97.323 125.246 97.3297 125.031C97.5255 112.957 96.4758 103.988 96.5225 92.6855C99.2 90.6676 102.069 88.8927 105.091 87.3838C105.301 87.3657 115.167 86.8007 118.679 86.5942C122.111 86.3914 125.374 88.5321 128.617 90.0956C129.037 94.3999 130.724 116.417 131.143 123.169C131.15 123.382 131.24 123.585 131.396 123.737C131.552 123.889 131.763 123.979 131.986 123.989L132.391 124.011C131.994 128.766 131.867 131.203 135.646 133.933C136.446 134.48 137.278 134.982 138.139 135.437C139.774 136.538 141.645 137.28 143.616 137.61C146.089 137.721 147.1 135.548 146.219 133.531ZM95.0597 127.057C96.544 131.074 93.2306 133.037 89.4764 135.323C88.4788 135.952 87.3544 136.374 86.1757 136.562C86.0001 136.569 85.8245 136.592 85.755 136.462V136.475C85.6489 136.475 85.7891 136.297 85.8245 136.2C86.3171 135.136 89.0507 132.532 90.4238 129.407C90.8962 128.318 91.2067 127.172 91.3459 126.001C92.6945 126.297 94.0886 126.355 95.4589 126.171C95.2832 126.238 95.1425 126.369 95.0675 126.535C94.9924 126.701 94.9892 126.889 95.0585 127.057H95.0597ZM95.9996 75.2219L91.0882 55.958C94.178 55.8373 132.558 54.182 135.894 54.0262L132.483 74.0459L95.9996 75.2219ZM144.499 135.229C144.323 135.804 143.727 135.679 143.131 135.538C141.733 135.097 140.399 134.488 139.162 133.727C136.959 132.46 134.714 131.486 134.036 129.118C133.702 127.453 133.592 125.754 133.709 124.062C135.092 124.123 136.478 124.095 137.858 123.98C139.042 129.276 142.351 130.161 144.254 133.902C144.492 134.306 144.578 134.775 144.498 135.232L144.499 135.229Z" fill="white"/>
</svg>
