<svg width="333" height="333" viewBox="0 0 333 333" fill="none" xmlns="http://www.w3.org/2000/svg">
<path d="M91.7561 125.198C90.4857 124.805 83.1481 127.947 81.916 128.5C43.0882 145.899 44.2637 145.483 42.5454 146.453C41.653 146.96 38.969 148.428 39.9497 148.729C41.2201 149.122 48.5577 145.982 49.7898 145.428C80.7472 131.555 93.944 125.871 91.7561 125.198Z" fill="#F07D29"/>
<path d="M96.2199 135.155C94.9478 134.762 87.6118 137.902 86.3797 138.456C47.7517 155.762 48.7241 155.439 47.0074 156.41C46.1183 156.913 43.436 158.386 44.4117 158.686C45.6838 159.079 53.0481 155.922 54.2535 155.384C80.2242 143.746 98.6391 135.899 96.2199 135.155Z" fill="#F07D29"/>
<path d="M71.09 158.371C70.3874 157.787 67.4454 158.898 66.6112 159.271C49.8979 166.761 50.4007 166.645 49.6998 167.161C49.4534 167.342 48.8789 167.785 48.7341 168.053C48.501 168.486 48.789 168.977 49.8197 168.816C52.2739 168.436 52.6918 168.042 66.2765 161.953C67.5686 161.373 72.1873 159.281 71.09 158.371Z" fill="#F07D29"/>
<path d="M53.3834 92.241C57.1452 94.7224 60.6281 97.6029 63.7713 100.832C64.0061 101.027 63.1569 101.177 77.083 97.2193C77.1508 97.2001 77.2227 97.2002 77.2905 97.2197C77.3582 97.2391 77.4192 97.2772 77.4665 97.3295C77.5138 97.3818 77.5455 97.4463 77.5581 97.5157C77.5706 97.5851 77.5635 97.6566 77.5375 97.7222C76.3862 102.083 74.7206 106.292 72.5758 110.26C72.4643 110.543 72.058 109.78 80.1266 121.801C80.1659 121.86 80.188 121.928 80.1904 121.999C80.1929 122.069 80.1755 122.139 80.1404 122.2C80.1052 122.262 80.0536 122.312 79.9914 122.345C79.9293 122.378 79.859 122.394 79.7886 122.389C65.3764 121.483 66.2022 121.445 66.0124 121.687L57.6874 132.293C57.644 132.348 57.5857 132.391 57.5193 132.415C57.4528 132.439 57.3808 132.444 57.3117 132.43C57.2425 132.415 57.1789 132.381 57.1281 132.332C57.0773 132.282 57.0415 132.22 57.0247 132.151C53.4333 118.165 53.7247 118.938 53.435 118.833C49.1095 117.592 44.8789 116.041 40.776 114.192C40.7101 114.168 40.6523 114.125 40.6092 114.07C40.566 114.014 40.5391 113.948 40.5315 113.878C40.5239 113.808 40.5359 113.737 40.5661 113.674C40.5964 113.61 40.6437 113.556 40.7027 113.518C52.8939 105.781 52.2495 106.297 52.2612 105.989C52.0016 101.492 52.1694 96.9808 52.7623 92.5157C52.7673 92.3725 52.8556 92.2443 53.3834 92.2393V92.241Z" fill="#F07D29"/>
<path d="M87.0623 94.8117C89.2424 96.2511 91.2609 97.9213 93.0829 99.7934C93.2528 99.9333 92.9864 99.9199 100.8 97.6988C100.84 97.6874 100.881 97.6873 100.921 97.6984C100.96 97.7096 100.996 97.7317 101.023 97.7621C101.051 97.7925 101.069 97.83 101.076 97.8704C101.083 97.9107 101.079 97.9522 101.063 97.9902C100.395 100.518 99.4296 102.958 98.1862 105.258C98.1196 105.424 97.8981 105 102.565 111.951C102.587 111.985 102.6 112.025 102.601 112.066C102.602 112.107 102.592 112.147 102.571 112.182C102.55 112.218 102.521 112.246 102.484 112.266C102.448 112.285 102.408 112.294 102.367 112.291C94.2701 111.781 94.5115 111.716 94.38 111.885L89.5531 118.032C89.5276 118.063 89.4939 118.087 89.4557 118.101C89.4175 118.114 89.3763 118.117 89.3367 118.108C89.2971 118.1 89.2605 118.081 89.2312 118.053C89.2018 118.025 89.1807 117.989 89.1702 117.95C87.0889 109.855 87.2554 110.291 87.0889 110.23C84.5809 109.511 82.1281 108.611 79.7496 107.539C79.7113 107.525 79.6777 107.5 79.6527 107.468C79.6276 107.436 79.612 107.397 79.6077 107.356C79.6034 107.316 79.6105 107.275 79.6282 107.238C79.6459 107.201 79.6735 107.17 79.708 107.148C86.8392 102.621 86.403 102.952 86.408 102.782C86.2577 100.176 86.3553 97.5611 86.6993 94.9732C86.7027 94.89 86.7526 94.8134 87.0573 94.8101L87.0623 94.8117Z" fill="#F07D29"/>
<path d="M32.2472 119.372C34.4278 120.811 36.4469 122.482 38.2695 124.354C38.4393 124.494 38.1729 124.48 45.9868 122.259C46.0261 122.248 46.0678 122.248 46.1073 122.259C46.1467 122.27 46.1821 122.292 46.2096 122.323C46.237 122.353 46.2554 122.39 46.2625 122.431C46.2696 122.471 46.2652 122.513 46.2498 122.551C45.5819 125.079 44.6161 127.518 43.3727 129.818C43.3061 129.985 43.0847 129.56 47.7517 136.512C47.774 136.546 47.7864 136.586 47.7875 136.626C47.7885 136.667 47.7782 136.707 47.7576 136.743C47.737 136.778 47.707 136.807 47.671 136.826C47.6349 136.845 47.5943 136.854 47.5535 136.851C39.4566 136.342 39.698 136.277 39.5665 136.445L34.7397 142.592C34.7141 142.624 34.6804 142.647 34.6422 142.661C34.604 142.674 34.5628 142.677 34.5232 142.669C34.4836 142.66 34.4471 142.641 34.4177 142.613C34.3883 142.585 34.3672 142.55 34.3567 142.511C32.2755 134.415 32.442 134.852 32.2755 134.79C29.7675 134.071 27.3146 133.172 24.9362 132.099C24.8978 132.085 24.8643 132.061 24.8392 132.028C24.8141 131.996 24.7985 131.957 24.7942 131.917C24.7899 131.876 24.797 131.835 24.8147 131.798C24.8324 131.761 24.8601 131.73 24.8945 131.708C32.0257 127.181 31.5895 127.512 31.5945 127.343C31.4442 124.736 31.5418 122.122 31.8859 119.534C31.8892 119.45 31.9391 119.374 32.2438 119.37L32.2472 119.372Z" fill="#F07D29"/>
<path d="M121.755 183.586C100.271 192.554 63.2516 209.232 57.4274 211.663C55.3478 212.218 54.9133 210.473 54.0341 208.819C31.7698 166.993 10.4861 112.499 10.0948 110.32C9.95494 109.539 10.273 108.838 10.7791 108.415C10.9406 108.278 17.191 104.805 17.3575 104.712C42.8787 90.581 66.4767 80.9573 90.3145 72.7388C90.9106 72.6056 91.455 72.7222 91.9096 73.0252C92.4024 73.3532 92.4923 73.6463 93.0285 74.6569C96.0427 80.3271 98.9916 86.0318 101.875 91.7698C101.895 89.2856 101.921 86.8014 101.958 84.3156C99.9114 80.3381 97.8451 76.371 95.759 72.4142C94.8383 70.2963 92.4673 68.946 90.0847 69.264C88.9625 69.4138 88.4047 69.7918 88.5712 69.6736C57.6056 80.248 35.7874 90.0066 9.2956 105.261C6.82807 106.683 6.06217 109.647 7.05618 112.099C20.3062 144.79 33.4797 177.084 51.8463 211.916C52.9069 214.357 55.6459 215.529 57.8403 215.026C59.2389 214.705 107.359 192.401 126.322 183.583H121.753L121.755 183.586Z" fill="#F07D29"/>
<path d="M102.726 148.997C89.0244 153.684 90.5045 174.121 104.126 177.521C103.552 168.019 103.085 158.511 102.727 148.999L102.726 148.997Z" fill="#F07D29"/>
<path d="M269.272 212.892C264.751 209.469 235.521 194.407 214.398 183.586H207.587C229.578 194.474 265.864 212.201 266.215 212.347C269.064 213.551 270.797 214.047 269.27 212.892H269.272Z" fill="#F07D29"/>
<path d="M324.703 108.561C323.914 107.815 323.266 107.596 323.433 107.644C296.168 90.5277 274.966 79.6486 245.869 68.4648C243.241 67.4558 240.442 68.6813 239.145 71.0289L237.615 73.8028C237.669 75.9207 237.717 78.0402 237.757 80.1598C240.407 75.4911 242.111 72.649 242.442 72.266C242.673 71.9948 242.971 71.79 243.307 71.6726C243.643 71.5553 244.004 71.5296 244.353 71.5983C244.553 71.6366 251.205 74.3106 251.371 74.3789C278.115 85.1914 300.379 97.3342 322.147 110.926C322.627 111.304 322.878 111.8 322.93 112.346C322.985 112.935 322.815 113.19 322.367 114.242C300.804 165.103 280.459 199.004 274.174 211.492C273.759 212.316 270.667 212.973 270.236 213.132C269.668 213.34 269.688 213.518 270.654 213.596C272.134 213.714 274.129 213.503 275.199 212.472C278.305 208.761 295.895 179.427 309.718 150.621C314.535 140.581 318.369 132.338 325.829 114.955C326.916 112.862 326.418 110.185 324.703 108.561Z" fill="#F07D29"/>
<path d="M260.626 166.662C254.921 167.807 250.173 172.261 248.651 177.88C244.75 192.288 263.548 203.188 274.467 193.376C285.319 183.626 274.617 163.849 260.626 166.662ZM275.053 179.252C273.563 180.538 272.279 180.746 259.988 185.794C259.769 185.885 259.533 185.93 259.296 185.925C259.059 185.92 258.825 185.866 258.61 185.766C258.395 185.666 258.203 185.522 258.046 185.344C257.89 185.165 257.772 184.956 257.7 184.73L257.312 183.473C257.044 182.607 256.353 179.71 257.019 179.102C257.223 178.918 257.567 178.898 257.93 179.392C258.831 180.619 259.041 181.573 259.658 183.45C259.697 183.486 270.889 178.974 270.939 178.954C271.776 178.62 274.615 177.704 275.273 178.32C275.478 178.511 275.511 178.856 275.053 179.252Z" fill="#F07D29"/>
<path d="M282.303 145.075C281.809 143.841 274.744 140.116 273.542 139.509C249.678 127.432 241.265 123.222 237.793 121.553L237.748 123.926C238.546 124.366 239.351 124.794 240.162 125.208C268.562 139.577 283.194 147.301 282.303 145.071V145.075Z" fill="#F07D29"/>
<path d="M277.379 154.81C276.884 153.576 269.803 149.843 268.617 149.244C251.809 140.739 242.667 136.134 237.519 133.573L237.445 136.064C262.81 148.914 278.273 157.035 277.38 154.81H277.379Z" fill="#F07D29"/>
<path d="M240.002 146.995L237.112 145.536L237.009 148.073C239.923 149.547 243.504 151.207 243.521 149.908C243.532 148.994 240.822 147.411 240.002 146.995Z" fill="#F07D29"/>
<path d="M283.748 94.5104C284.187 98.9955 284.142 103.515 283.613 107.99C283.61 108.297 282.959 107.732 294.803 116.059C294.86 116.1 294.905 116.155 294.932 116.22C294.959 116.285 294.968 116.356 294.957 116.425C294.946 116.494 294.916 116.559 294.87 116.613C294.825 116.666 294.765 116.705 294.698 116.727C290.586 118.578 286.268 119.934 281.835 120.764C281.543 120.856 281.88 120.062 277.621 133.901C277.6 133.968 277.56 134.028 277.507 134.075C277.454 134.121 277.389 134.151 277.319 134.162C277.249 134.173 277.178 134.165 277.113 134.137C277.048 134.11 276.992 134.065 276.951 134.008C268.581 122.241 269.131 122.86 268.823 122.865L255.343 123.074C255.272 123.075 255.203 123.056 255.143 123.02C255.082 122.983 255.033 122.931 255.001 122.868C254.969 122.806 254.955 122.735 254.96 122.665C254.966 122.595 254.991 122.527 255.033 122.471C263.636 110.874 263.22 111.587 263.12 111.295C261.36 107.154 259.901 102.892 258.754 98.5414C258.731 98.4746 258.727 98.4025 258.742 98.3334C258.758 98.2643 258.793 98.201 258.843 98.1507C258.892 98.1004 258.955 98.0651 259.024 98.0488C259.093 98.0325 259.165 98.0359 259.232 98.0585C272.92 102.659 272.113 102.482 272.359 102.298C275.69 99.2653 279.3 96.5554 283.142 94.2041C283.257 94.1158 283.411 94.1042 283.746 94.5104H283.748Z" fill="#F07D29"/>
<path d="M302.953 122.294C303.208 124.895 303.182 127.515 302.875 130.11C302.873 130.286 302.513 129.972 309.361 134.788C309.395 134.812 309.421 134.844 309.437 134.881C309.452 134.919 309.458 134.96 309.451 135C309.445 135.04 309.428 135.078 309.401 135.109C309.375 135.14 309.34 135.162 309.301 135.175C306.917 136.247 304.414 137.033 301.844 137.516C301.676 137.569 301.887 137.049 299.401 145.13C299.389 145.169 299.366 145.203 299.336 145.23C299.305 145.257 299.267 145.275 299.227 145.281C299.187 145.288 299.145 145.283 299.108 145.267C299.07 145.252 299.037 145.226 299.013 145.193C294.117 138.31 294.47 138.729 294.301 138.733L286.486 138.854C286.445 138.855 286.405 138.844 286.37 138.823C286.335 138.802 286.307 138.771 286.288 138.735C286.269 138.699 286.261 138.658 286.264 138.617C286.268 138.577 286.282 138.538 286.306 138.505C291.266 131.82 291.051 132.194 290.995 132.028C289.975 129.626 289.129 127.155 288.464 124.632C288.451 124.593 288.448 124.552 288.457 124.512C288.466 124.472 288.487 124.436 288.515 124.407C288.544 124.378 288.581 124.357 288.62 124.348C288.66 124.339 288.702 124.341 288.74 124.354C296.453 126.945 296.183 126.936 296.351 126.811C298.282 125.054 300.375 123.483 302.602 122.119C302.668 122.069 302.758 122.061 302.953 122.298V122.294Z" fill="#F07D29"/>
<path d="M255.769 107.667C248.921 102.852 249.28 103.168 249.282 102.99C249.588 100.394 249.615 97.7755 249.36 95.1747C249.166 94.9383 249.076 94.9466 249.009 94.9966C246.782 96.3597 244.689 97.9307 242.759 99.6885C242.615 99.7951 242.794 99.8184 237.963 98.1817C237.978 102.672 237.965 107.164 237.927 111.655L240.707 111.612C240.877 111.612 240.524 111.19 245.419 118.072C245.443 118.105 245.475 118.132 245.513 118.148C245.551 118.164 245.593 118.169 245.633 118.162C245.674 118.155 245.711 118.138 245.742 118.11C245.773 118.083 245.796 118.048 245.807 118.009C248.295 109.928 248.082 110.446 248.25 110.394C250.82 109.913 253.323 109.127 255.707 108.054C255.746 108.041 255.78 108.018 255.807 107.987C255.833 107.956 255.851 107.918 255.857 107.878C255.863 107.838 255.858 107.797 255.842 107.759C255.826 107.722 255.8 107.689 255.767 107.666L255.769 107.667Z" fill="#F07D29"/>
<path d="M92.1872 315.537C90.5158 315.086 89.0777 314.017 88.1629 312.547C87.1472 310.895 59.9211 234.807 59.8079 233.964C59.3917 230.932 61.7893 228.443 64.4333 228.39C67.6684 228.325 156.559 228.428 177.61 228.355C179.067 228.35 179.921 228.323 180.86 228.718C181.768 229.099 182.575 229.74 183.114 230.569C183.694 231.46 183.313 230.629 207.137 298.633C207.574 299.879 208.301 301.004 209.257 301.915C210.213 302.827 211.371 303.499 212.637 303.876C214.295 304.375 212.755 304.487 253.143 304.235C256.181 304.217 258.889 307.882 257.252 311.337C256.398 313.137 254.543 314.215 252.44 314.162C247.295 314.032 100.339 315.015 97.8448 315.151C93.9604 315.363 91.7343 315.704 94.1036 316.045C97.2788 316.503 106.058 316.743 112.214 316.863C137.139 317.347 252.532 317.574 253.154 317.549C259.065 317.312 262.815 311.087 260.414 305.759C259.187 303.033 256.516 300.907 252.976 300.812L214.919 300.797C213.03 300.802 211.065 299.57 210.326 297.367L186.976 230.709C186.263 228.654 184.983 227.144 183.419 226.17C181.296 224.848 179.59 224.912 178.036 224.907C62.5885 224.554 64.375 224.703 62.4436 225.235C58.5259 226.312 55.5122 230.349 56.5595 235.228C56.5595 235.228 85.344 309.85 85.8752 311.169C86.4629 312.629 87.0573 313.723 88.3593 314.733C90.081 316.067 91.8558 316.199 92.6084 316.085C93.4043 315.967 93.3011 315.846 92.1888 315.539L92.1872 315.537Z" fill="#180B02"/>
<path d="M136.059 280.706C136.202 280.749 136.51 280.826 136.522 280.839L136.575 280.881C136.597 280.897 136.615 280.917 136.63 280.94C136.665 280.979 136.565 281.069 136.532 281.077C136.363 281.167 133.868 285.411 128.586 285.431C123.383 285.451 119.187 280.949 118.363 275.534C117.176 267.72 123.242 260.186 131.032 262.459L131.05 262.462C131.112 262.486 131.215 262.489 131.237 262.551C131.209 262.722 128.859 264.93 128.916 268.838C128.923 269.329 128.973 269.822 129.111 270.223C129.329 270.857 129.703 271.16 130.021 270.779C130.657 270.018 130.827 267.988 132.169 266.142C132.669 265.454 132.86 265.283 133.36 264.793C134.219 264.037 135.449 263.3 135.404 262.106C135.373 261.263 134.8 260.544 134.269 260.289C132.467 259.207 129.955 258.52 127.278 258.719C116.44 259.527 110.884 273.643 117.869 283.198C122.314 289.279 130.339 290.846 136.294 286.233C138.356 284.635 139.472 282.802 140.451 280.892C140.611 280.388 140.554 279.975 140.604 279.54C140.517 279.121 140.298 278.74 139.978 278.455C139.87 278.348 139.698 278.283 139.552 278.203C139.372 278.142 139.325 278.022 139.049 278.017C137.384 277.835 137.571 277.947 136.735 277.847C134.377 277.567 132.554 275.801 132.013 275.423C129.707 273.814 131.08 279.219 136.057 280.704L136.059 280.706Z" fill="#180B02"/>
<path d="M141.81 244.996C141.8 244.295 141.734 243.931 141.601 242.932C141.393 242.429 141.291 241.61 140.167 241.09C139.643 240.844 139.473 240.904 138.99 240.894C138.585 240.856 138.132 240.992 137.7 241.059C133.544 241.966 130.235 244.988 128.957 248.535C127.242 252.928 129.088 256.5 131.682 256.598C137.352 256.964 141.892 250.965 141.81 244.996ZM136.243 251.077C134.971 252.571 133.873 253.073 131.98 254.131C131.875 254.187 131.757 254.213 131.638 254.205C131.519 254.196 131.405 254.154 131.309 254.083C131.213 254.013 131.14 253.916 131.097 253.805C131.054 253.694 131.043 253.573 131.066 253.456C131.995 248.811 133.812 245.712 138.316 244.445L138.347 244.455C138.534 247.171 137.71 249.374 136.244 251.075L136.243 251.077Z" fill="#180B02"/>
<path d="M78.4635 310.159C76.5521 309.531 74.5515 309.216 72.5394 309.227C42.3164 309.227 43.2205 309.435 41.8402 309.8C41.319 309.936 40.1835 310.271 39.7906 310.639C39.1279 311.26 39.2861 312.38 40.9061 312.92C44.6274 314.162 44.8954 313.852 70.2317 313.852C72.9907 313.852 75.6763 313.769 77.5294 313.28C78.0506 313.143 79.1861 312.808 79.5791 312.44C80.25 311.813 80.0736 310.695 78.4635 310.159Z" fill="#F07D29"/>
<path d="M324.565 311.248C324.207 310.637 323.217 310.319 322.524 310.16C319.701 309.526 316.815 309.213 313.921 309.227C270.132 309.227 271.349 309.434 269.336 309.8C268.656 309.923 266.938 310.266 266.359 310.639C265.921 310.922 265.669 311.375 265.937 311.831C266.295 312.442 267.286 312.76 267.979 312.92C273.758 314.249 276.024 313.853 310.569 313.853C314.489 313.853 318.533 313.758 321.167 313.28C321.848 313.157 323.563 312.815 324.144 312.441C324.582 312.158 324.834 311.705 324.565 311.248Z" fill="#F07D29"/>
<path d="M231.15 183.208C232.952 182.366 235.281 180.829 235.911 178.943C236.813 175.043 240.523 128.944 239.489 79.9933C239.162 64.4954 238.745 51.7415 237.073 25.298C237.101 22.346 235.076 19.5454 232.119 18.6663C230.821 18.28 230.333 18.4116 230.087 18.35C162.218 11.943 117.328 18.1468 109.217 18.3866C105.531 18.4965 102.614 21.4768 102.476 25.2131C100.696 73.3133 99.0094 121.49 102.533 178.258C102.504 181.646 104.91 184.362 107.897 185.043C108.636 185.211 109.501 185.218 110.003 185.215C110.586 185.21 222.094 184.395 224.868 184.259C229.186 184.047 231.663 183.706 229.028 183.365C217.045 181.81 114.705 182.038 109.089 181.831C108.603 181.758 108.039 181.641 107.464 181.255C105.654 180.038 105.951 178.413 105.754 175.601C101.179 110.513 105.255 27.3909 106.024 24.4922C106.384 23.1368 107.348 22.2694 108.475 21.9514C108.851 21.8448 118.954 20.979 119.123 20.9657C159.557 17.5441 195.218 18.6896 230.762 21.8931C231.469 22.0244 232.118 22.3708 232.619 22.8849C233.121 23.3991 233.452 24.0558 233.566 24.7652C233.621 25.1099 233.64 25.9191 233.69 26.5451C235.396 48.1252 236.863 88.2517 236.087 129.833C235.952 137.073 234.607 177.745 234.57 178.471C234.492 179.993 230.749 182.777 230.443 183.06C229.828 183.628 229.94 183.776 231.155 183.208H231.15Z" fill="#180B02"/>
<path d="M223.18 155.634C215.745 174.78 185.392 173.045 181.16 152.594C179.51 144.619 182.627 136.06 189.022 131.026C204.713 118.673 230.567 136.603 223.178 155.634H223.18Z" fill="#F07D29"/>
<path d="M229.764 124.104C228.17 123.958 223.07 129.382 222.006 130.586C202.276 152.907 202.644 152.829 202.486 152.662C200.782 150.902 199.054 149.167 197.301 147.456C196.512 146.76 194.209 144.867 193.313 144.564C192.875 144.414 192.466 144.48 192.394 144.9C192.125 146.477 197.138 151.99 198.25 153.14L200.393 155.358C201.537 156.54 203.616 156.716 204.98 155.071C204.98 155.071 226.275 130.954 227.597 129.196C228.228 128.357 229.937 125.914 230.17 124.995C230.283 124.545 230.185 124.144 229.762 124.106L229.764 124.104Z" fill="white"/>
<path d="M202.452 103.988C201.045 103.103 189.682 102.977 187.997 102.977C185.914 102.977 128.435 103.198 127.454 103.263C126.179 103.347 121.755 103.6 122.837 104.279C124.244 105.161 135.607 105.29 137.292 105.29C139.375 105.29 196.854 105.068 197.835 105.003C199.111 104.918 203.534 104.667 202.452 103.988Z" fill="#180B02"/>
<path d="M202.452 115.979C201.045 115.095 189.692 114.968 187.997 114.968C185.914 114.968 128.435 115.188 127.454 115.255C126.18 115.338 121.758 115.591 122.837 116.27C124.251 117.156 135.641 117.281 137.292 117.281C139.374 117.281 196.854 117.059 197.835 116.995C199.109 116.91 203.534 116.657 202.452 115.979Z" fill="#180B02"/>
<path d="M157.085 129.137C156.497 128.28 151.891 128.127 150.851 128.127C130.228 128.127 121.693 127.89 122.752 129.429C123.34 130.286 127.945 130.439 128.986 130.439C146.159 130.439 158.258 130.844 157.085 129.137Z" fill="#180B02"/>
<path d="M172.387 26.1272C176.335 32.3365 179.6 38.9538 182.128 45.8641C182.172 45.9537 182.237 46.0313 182.318 46.0902C182.399 46.149 182.493 46.1874 182.592 46.2021L204.374 49.3672C204.488 49.3836 204.595 49.4316 204.683 49.5058C204.771 49.58 204.837 49.6774 204.872 49.787C204.908 49.8966 204.912 50.014 204.884 50.1258C204.856 50.2376 204.798 50.3393 204.715 50.4195C200.088 56.1468 194.798 61.3039 188.954 65.7825C188.883 65.8525 188.829 65.9387 188.798 66.0338C188.767 66.1288 188.76 66.2299 188.776 66.3286L192.497 88.0235C192.517 88.1371 192.504 88.2539 192.461 88.3606C192.417 88.4674 192.345 88.5598 192.252 88.6275C192.158 88.6951 192.048 88.7352 191.933 88.7433C191.818 88.7513 191.703 88.7269 191.601 88.6729L172.119 78.4298C172.031 78.3831 171.932 78.3588 171.832 78.3588C171.732 78.3588 171.633 78.3831 171.545 78.4298L152.063 88.6729C151.961 88.7269 151.846 88.7513 151.731 88.7433C151.616 88.7352 151.506 88.6951 151.412 88.6275C151.319 88.5598 151.247 88.4674 151.203 88.3606C151.16 88.2539 151.147 88.1371 151.167 88.0235L154.888 66.3286C154.905 66.2299 154.898 66.1286 154.867 66.0334C154.836 65.9381 154.782 65.852 154.71 65.7825C149.095 61.0463 143.827 55.912 138.949 50.4195C138.866 50.3393 138.808 50.2376 138.78 50.1258C138.752 50.014 138.756 49.8966 138.792 49.787C138.827 49.6774 138.893 49.58 138.981 49.5058C139.069 49.4316 139.176 49.3836 139.29 49.3672L161.072 46.2037C161.171 46.1892 161.265 46.1507 161.346 46.0915C161.427 46.0323 161.493 45.9542 161.536 45.8641C164.152 38.9918 167.413 32.3832 171.277 26.1272C171.38 25.9174 171.596 25.7825 172.384 26.1272H172.387Z" fill="#F07D29"/>
<path d="M214.895 54.1674C216.856 57.2529 218.479 60.5408 219.735 63.9743C219.843 64.1941 219.147 64.0226 230.787 65.7142C230.844 65.7224 230.897 65.7463 230.941 65.7831C230.984 65.82 231.017 65.8684 231.035 65.9228C231.052 65.9772 231.054 66.0355 231.041 66.091C231.027 66.1465 230.998 66.1971 230.957 66.237C228.658 69.0826 226.029 71.6452 223.126 73.871C222.952 74.0425 222.898 73.3266 224.886 84.9216C224.896 84.978 224.89 85.0359 224.868 85.0889C224.847 85.1419 224.811 85.1877 224.764 85.2214C224.718 85.255 224.663 85.275 224.606 85.2791C224.549 85.2832 224.492 85.2713 224.442 85.2447C213.914 79.7102 214.683 80.0482 214.477 80.1564L204.796 85.2447C204.746 85.2713 204.689 85.2832 204.632 85.2791C204.575 85.275 204.52 85.255 204.474 85.2214C204.427 85.1877 204.391 85.1419 204.37 85.0889C204.348 85.0359 204.342 84.978 204.352 84.9216C206.361 73.2084 206.28 74.0325 206.112 73.871C203.322 71.5177 200.705 68.9664 198.281 66.237C198.24 66.1971 198.211 66.1465 198.197 66.091C198.184 66.0355 198.186 65.9772 198.203 65.9228C198.221 65.8684 198.254 65.82 198.297 65.7831C198.341 65.7463 198.394 65.7224 198.451 65.7142C210.221 64.0042 209.402 64.1824 209.503 63.9743C210.803 60.5595 212.423 57.2758 214.343 54.1674C214.395 54.0625 214.503 53.9959 214.895 54.1674Z" fill="#F07D29"/>
<path d="M126.897 55.7475C128.858 58.8329 130.481 62.1209 131.737 65.5544C131.845 65.7741 131.149 65.6043 142.789 67.2943C142.846 67.3025 142.899 67.3263 142.943 67.3632C142.986 67.4001 143.019 67.4484 143.037 67.5028C143.054 67.5573 143.056 67.6155 143.043 67.6711C143.029 67.7266 143 67.7772 142.959 67.8171C140.66 70.6626 138.031 73.2252 135.128 75.4511C134.953 75.6226 134.9 74.9067 136.888 86.5017C136.898 86.5581 136.892 86.616 136.87 86.669C136.849 86.722 136.813 86.7678 136.766 86.8014C136.72 86.8351 136.665 86.855 136.608 86.8592C136.551 86.8633 136.494 86.8514 136.444 86.8247C125.916 81.2903 126.685 81.6299 126.479 81.7365L116.798 86.8247C116.748 86.8514 116.691 86.8633 116.634 86.8592C116.577 86.855 116.522 86.8351 116.476 86.8014C116.429 86.7678 116.393 86.722 116.372 86.669C116.35 86.616 116.344 86.5581 116.354 86.5017C118.363 74.7884 118.282 75.6143 118.114 75.4511C115.324 73.0978 112.707 70.5465 110.283 67.8171C110.242 67.7772 110.213 67.7266 110.199 67.6711C110.186 67.6155 110.188 67.5573 110.205 67.5028C110.223 67.4484 110.256 67.4001 110.299 67.3632C110.343 67.3263 110.396 67.3025 110.453 67.2943C122.223 65.5843 121.404 65.7625 121.505 65.5544C122.805 62.1395 124.425 58.8558 126.345 55.7475C126.397 55.6426 126.505 55.576 126.897 55.7475Z" fill="#F07D29"/>
<path d="M246.258 249.094C245.334 248.803 242.46 251.22 241.749 251.876C226.021 266.397 226.556 266.012 225.925 266.858C225.494 267.434 224.688 268.51 225.392 268.731C225.728 268.836 226.191 268.626 226.494 268.455C229.02 267.029 229.693 266.145 242.112 254.688C243.224 253.663 247.698 249.547 246.258 249.094Z" fill="#F07D29"/>
<path d="M256.289 279.677C255.833 278.902 252.918 279.001 252.034 279.089C234.904 280.832 235.464 280.857 234.661 281.13C234.385 281.225 233.747 281.457 233.54 281.665C233.204 282.003 233.327 282.557 234.286 282.737C236.586 283.165 237.315 282.922 250.956 281.523C252.347 281.38 257 280.886 256.289 279.677Z" fill="#F07D29"/>
<path d="M218.619 236.911C217.773 236.905 216.741 238.971 216.436 239.76C212.425 250.165 211.09 253.306 211.558 254.37C211.739 254.782 212.291 254.898 212.812 254.292C214.021 252.882 213.931 252.707 218.205 241.603C218.683 240.363 219.95 236.915 218.619 236.91V236.911Z" fill="#F07D29"/>
</svg>
