<?xml version="1.0" encoding="UTF-8"?>
<svg id="Layer_2" data-name="Layer 2" xmlns="http://www.w3.org/2000/svg" viewBox="0 0 323 208.94">
  <defs>
    <style>
      .cls-1 {
        fill: #fff;
      }

      .cls-2 {
        fill: #d1d0d6;
      }
    </style>
  </defs>
  <g id="Layer_1-2" data-name="Layer 1">
    <path class="cls-2" d="M309.28,186.71c-1.32-22.12-22.89-69.22-60.15-70.71-1.9,4.03-8.12,13.85-14.15,18.96-3.6-2.25-10.87-7.31-14.7-14.77-.92,3.37-8.79,9.58-14.06,11.94-6.24,2.79-7.97,1.65-9.88-5.8-15.41,9.47-40.86,33.65-40.17,60.69,.61,23.6,29.07,14.16,33.43,10.75-1.12-3.96-2.9-20.11-3.9-31.73-4.27,.79-8.39,2.24-12.22,4.31-.74,.4-1.23-.61-.56-1.12,4.14-3.17,7.96-4.17,12.59-5.42-.37-4.5-.61-8.07-.62-9.5-.02-5.11,2.36-8.63,8.12-9.37,5.76-.74,74.11-1.28,79.64-1.28s7.88,2.45,8.09,8.2c.07,1.85-.3,6.74-.91,12.64,2.95,.06,10.79,2.15,13.07,3.74,1.33,.92,.24,1.59-.47,1.29-4.09-1.65-8.4-2.67-12.79-3.05-1.28,12.16-3.37,27.75-4.44,31.85,13.73,5.81,35.16,6.64,34.08-11.63Z"/>
    <path class="cls-1" d="M321.86,204.88c-105.97,.54-214.67,1.3-321,1.33-1.2,0-1.12,2.11,.07,2.12,105.92,1.56,214.86-.33,320.67-.85,1.66-.01,1.95-2.61,.26-2.6Z"/>
    <path class="cls-1" d="M239.07,86.1c-.48,.88,.08,1.46,.93,.85,.29-.21,.62-.34,.98-.38s.71,0,1.04,.13c1.12,.26,1.12-.55,.45-1.18-.24-.23-.54-.4-.85-.49-.32-.1-.66-.12-.99-.06-.33,.06-.64,.19-.91,.38-.27,.2-.49,.45-.64,.75Z"/>
    <path class="cls-1" d="M239.38,94.66c-4.49,4.38-9.32,1.85-6.79,4.85,3.61,4.29,8.43,2.89,8.64-4.27,.06-1.91-.58-1.83-1.85-.58Zm-5.62,4.13c1.12-.03,2.23-.28,3.25-.73,1.03-.46,1.95-1.11,2.72-1.93-.17,5.17-3.87,5.36-5.9,2.66h-.07Z"/>
    <path class="cls-1" d="M229.2,86.15c-.13-.3-.32-.56-.57-.77s-.55-.35-.86-.42c-.32-.07-.65-.06-.96,.03-.31,.09-.6,.25-.83,.47-.68,.49-.73,1.3,.12,1.12,.36-.1,.74-.11,1.1-.05,.37,.06,.72,.21,1.02,.42,.81,.72,1.31,.01,.98-.81Z"/>
    <path class="cls-1" d="M227.66,79.33c-2.89,0-5.98,3.77-4.34,4.57,1.03,.51,.82-1.76,4.5-2.46,.21-.09,.39-.25,.51-.45,.12-.2,.17-.43,.16-.66s-.11-.45-.25-.63c-.15-.18-.35-.31-.57-.37Z"/>
    <path class="cls-1" d="M238.56,81.61c1.53-.28,3.12-.03,4.49,.71,.79,.42,1.51-.37,.62-1.33-.74-.62-1.6-1.08-2.53-1.33-.93-.25-1.91-.29-2.85-.11-1.52,.38-1.39,2.19,.27,2.06Z"/>
    <path class="cls-1" d="M233.54,94.36c.44-.11,.86-.29,1.24-.53,1.14-.73,.24-1.53-.34-1.26-.43,.2-.89,.33-1.36,.37,.11-1.93,.33-3.86,.65-5.77,.09-.56-.51-1.36-1.12-.11-.62,1.65-1,3.38-1.12,5.14-.26,1.75-.13,2.7,2.06,2.16Z"/>
    <path class="cls-1" d="M99.77,50.01c4.01-3.6,10.27-13.09,13.01-19.63,3.22,.21,2.84-2.31,1.6-2-5.98,1.48-5.8-9.13-.44-10.05,2.31-.4,2.74,2.04,2.72,3.7-.01,1.12,1.44,1.38,1.48,.21,.08-2.12-.15-4.89-2.46-5.8,7.76-24.84,43.78-15.54,32.23,12.23-3.6,8.67-12.72,25.24-24.28,22.67-4.5-1-8.42-4.66-8.46-9.37-.01-1.23-1.52-1.22-1.5,0,.07,2.52,.95,4.95,2.51,6.94,1.56,1.98,3.71,3.41,6.15,4.08-.74,2.24-1.24,4.55-1.47,6.9,.02,.18,.1,.34,.23,.46,.13,.12,.3,.19,.48,.21,.18,0,.35-.04,.5-.15,.14-.11,.24-.26,.28-.44,.24-1.12,1.06-4.97,1.63-6.63,11.49,1.71,19.26-11.16,23.75-19.97C165.89-2.34,120.75-11.49,114.01,16.22c-5.97,.51-8.43,11.04-2.91,13.71-3.18,6.93-7.35,13.37-12.36,19.11-.62,.8,.25,1.67,1.04,.97Z"/>
    <path class="cls-1" d="M133.25,28.07c-1.22-.55-3.17,2.85-1.6,3.23,1.79,.42,2.7-2.73,1.6-3.23Z"/>
    <path class="cls-1" d="M130.68,38.71c.64,.8,1.55,1.36,2.55,1.56,1.01,.21,2.06,.05,2.96-.44,2.07-1.32,3.03-4.5,2.71-7.51,.01-.18-.04-.36-.16-.49-.11-.14-.28-.23-.45-.25-.18-.02-.36,.03-.5,.13-.14,.11-.24,.27-.27,.44-.26,2.03-.29,4.46-1.93,5.93-1.76,1.57-3.29-.15-4.33-.55-.57-.31-1.54,.18-.58,1.17Z"/>
    <path class="cls-1" d="M122.91,32.73c-6.23,7.71-.06,13.68,5.05,11.51,.19-.08,.36-.21,.48-.38,.12-.17,.18-.38,.18-.59s-.06-.41-.18-.59c-.12-.17-.28-.31-.48-.38-1.39-.91-2.46-2.23-3.07-3.78-.6-1.55-.71-3.24-.31-4.85,.35-1.4-.63-2.22-1.68-.93Zm3.63,10.42c-3.16,.37-6.43-2.83-3.47-8.15-.24,1.54-.03,3.12,.58,4.55,.61,1.43,1.62,2.67,2.89,3.56v.03Z"/>
    <path class="cls-1" d="M145.28,29.84c.4,.68,1.04,.53,1.2-.33,.08-.78-.1-1.57-.52-2.24s-1.05-1.17-1.79-1.44c-.85-.2-1.44,1.49-.66,1.87,.83,.47,1.46,1.23,1.76,2.13Z"/>
    <path class="cls-1" d="M135.66,21.9c-.9-.34-1.86-.44-2.81-.32-.95,.13-1.85,.49-2.62,1.06-1.12,.94-.46,2.25,1.01,1.59,.58-.3,1.22-.47,1.88-.5,.65-.03,1.31,.09,1.91,.33,1.29,.4,1.72-1.55,.63-2.16Z"/>
    <path class="cls-1" d="M142.73,32.46c-1.26-.84-3.18,2.94-1.41,3.29,1.02,.2,2.27-2.72,1.41-3.29Z"/>
    <path class="cls-1" d="M114.96,126.53c-.49,1.93-3.1,2.34-4.78,2.92-.61,.21-1,2.07,1.64,1.65,1.18-.11,2.28-.61,3.14-1.43,.86-.82,1.41-1.9,1.57-3.07,.05-.87-1.33-1.05-1.57-.08Z"/>
    <path class="cls-1" d="M116.13,133.33c.18-1.27-.81-1.89-1.52-.74-1.19,1.93-1.46,2.49-3.79,3.06-1.89,.47-1.23,1.98,.08,1.98,1.24,0,2.43-.43,3.38-1.21,.95-.78,1.6-1.87,1.84-3.09Z"/>
    <path class="cls-1" d="M114.24,121.83c-4.52,1.22-6.74,.76-10.83,.29-.66-.08-2.1,1.36,.1,2.11,3.12,1.06,9.16,.83,11.29-.37,1.14-.63,.67-2.37-.56-2.04Z"/>
    <path class="cls-1" d="M113.88,139.68c.52-.76-.51-1.64-1.12-1.04-4.76,4.59-10.46,5.97-20.76,5.02-1.01-.09-1.12,1.84-.12,2.01,7.82,1.39,17.23,1.03,22.01-5.99Z"/>
    <path class="cls-1" d="M93.73,121.7c-.87,.49-.38,1.95,1.27,1.82,2.35-.51,4.44-1.83,5.93-3.72,2.89-3.27,3.82-9.24,2.7-13.65-.43-1.66-1.87-1.52-1.8-.09,.51,9.55-1.16,11.68-8.09,15.63Z"/>
    <path class="cls-1" d="M189.93,122.07c-1.82,1.12-.68,2.59,.44,2.16,1.51-.58,5.61-1.43,6.74-.79,2.36,1.36,2.66,5.26,3.07,6.43,.26,.77,1.63,1.04,1.58-.51-.08-2.96-1.72-6.74-3.67-7.71-1.32-.48-2.72-.68-4.13-.61-1.4,.07-2.78,.42-4.04,1.03Z"/>
    <path class="cls-1" d="M199.18,119.98c1.53,.32,4.77,1.02,6.43,7.43,.79,3.06,2.27,1.9,1.72-.68-1.36-6.33-5.26-8.53-7.44-8.5-1.75,0-2.36,1.41-.71,1.75Z"/>
    <path class="cls-1" d="M207.6,119.87c1.19,1.37,2.04,3,2.5,4.76,.49,1.82,2.02,1.48,1.55-1.12-.49-1.92-1.42-3.7-2.72-5.19-.71-.72-1.56-1.29-2.49-1.67s-1.94-.58-2.95-.57c-.11-.02-.22-.02-.33,0-.11,.02-.21,.07-.31,.13s-.17,.15-.23,.24c-.06,.09-.1,.2-.12,.31-.02,.11-.02,.22,0,.33,.02,.11,.07,.21,.13,.31,.06,.09,.15,.17,.24,.23,.09,.06,.2,.1,.31,.12,1.66,.23,3.21,.97,4.43,2.12Z"/>
    <path class="cls-1" d="M175.68,137.7c-.15,.14-.25,.33-.27,.53-.02,.21,.04,.41,.16,.57,.12,.16,.31,.27,.51,.31,.2,.04,.41,0,.59-.12,3.1-1.03,8.16-8.58,9.12-11.39,.77-2.25-1.02-2.45-2-.88-3.03,4.89-4.55,8.47-8.1,10.96Z"/>
    <path class="cls-1" d="M186.12,118.64c5.52-1.84,15.87-4.84,23.87-2.59,1.37,.25,2.65,.83,3.74,1.7,1.09,.87,1.94,1.99,2.49,3.27,.59,1.44,1.53,.43,1.4-.51-.44-3.26-4.15-5.61-7.11-6.41-6.04-1.63-17.09-.18-25.14,2.84-1.06,.39-.19,2.01,.75,1.69Z"/>
    <path class="cls-1" d="M224.7,108.43c-.11,2.98-.6,5.93-1.46,8.78-.38,1.29,1.05,1.35,1.33,.61,1.18-3.25,1.86-6.66,2-10.12,4.63,4.83,10.85,5.25,15.86,.7,.19,2.52,.68,5.01,1.46,7.42,.64,1.94,2.43,1.5,1.89-.22-.75-2.34-1.3-4.73-1.65-7.16,5.94,.09,18.09-1.05,24.48-4.81-5.39-9.19-8.56-19.51-9.26-30.13-.79-12.27-9.58-20.02-15.74-15.43-6.83-10.2-27.57-7.07-31.94,15.22-2.97,15.17-6.46,24.58-10.29,28.78,7.05,4.21,15.12,6.41,23.33,6.36Zm-3.6-30.08c-1.25-.14-2.49-.36-3.72-.65-.93-.22-.8-1.34,.12-1.24,10.97,1.12,22.03,1.02,32.98-.32,.85-.1,1.13,.78,.27,1.07-1.17,.38-2.37,.62-3.6,.72,.85,5.44,.72,10.99-.39,16.39-.59,4.01-2.13,7.83-4.5,11.13-6.91,8.39-16.07,2.27-19.23-8.22-1.56-6.17-2.21-12.53-1.94-18.88Z"/>
    <path class="cls-1" d="M121.95,199.27c.87,.23,1.78,.27,2.68,.12,.89-.15,1.74-.48,2.49-.97,.54,2.63,1.13,4.49,1.61,4.66,1.13,.42,13.8,.77,14.84-.38,1.72-1.92,3.83-25.92,3.12-27.63-.71-1.71-20.59-.85-21.73,0-.36,1.47-.42,3-.18,4.5-1.13-.57-2.4-.81-3.66-.71s-2.47,.56-3.48,1.31c-5.58,4.14-1.3,17.58,4.31,19.09Zm-2.25-17.44c.85-.47,1.84-.65,2.8-.51,.97,.14,1.86,.59,2.55,1.28,.34,4.01,.92,8.93,1.6,12.95-.46,.63-1.11,1.1-1.86,1.33-.75,.24-1.55,.22-2.29-.03-3.81-1.46-7.35-12.39-2.85-15.02h.06Z"/>
    <path class="cls-1" d="M119.45,129.39c5.82-7.32,11.76-19.46,11.58-31.64-.02-1.29-1.68-1.34-1.68,0,.03,11.62-6.45,22.99-11.14,30.7-.46,.76,.64,1.69,1.24,.94Z"/>
    <path class="cls-1" d="M167.8,143.19c-11.12,5.88-33.38,12.89-41.59-.34-2.11-3.91-3.62-8.11-4.5-12.46-.06-.21-.19-.39-.38-.5-.19-.11-.41-.14-.62-.09-.21,.05-.39,.18-.51,.37-.12,.18-.15,.4-.11,.62,.9,7.51,3.79,16.26,11.12,19.8,9.48,4.59,28.12,.4,37.52-5.45,1.25-.78,.33-2.61-.93-1.94Z"/>
    <path class="cls-1" d="M21.06,131.04c15.82,13.09,44.2,18.87,64.06,17.84,.7,0,1.37-.22,1.93-.64,.55-.42,.95-1.01,1.13-1.68,1.5-4.42,2.67-18.81,2.04-24.51-.29-2.62-.94-2.97-3.61-3.46-10.91-1.74-21.59-4.7-31.83-8.84,4.64-12.11,7.19-15.85,13.58-23.38,.56-.66-.18-1.9-1.02-1.3-5.72,4.08-12.58,16.44-14.28,23.94-1.68-.71-3.22-1.69-4.57-2.91-.57-.52-1.82,0-.82,1.42,4.33,6.14,33.17,12.52,40.46,13.49,.83,6.95-.39,17.59-2.33,25.67-19.4,1.12-48.08-4.49-63.6-17.32-6.6-5.45-9.18-9.95-7.98-18.41,3.32-23.33,23.61-58.89,49.76-61.74,9.94-1.1,19.98-1.01,29.9,.26,.8,11.8,22,21.56,31.08,14.61,6.25,2.42,11.59,6.75,15.25,12.36,7.16,10.9,10.35,29.1,12.51,42.24-1.6-.13-3.22-.08-4.81,.15-.68,.17-1.12,1.34-.21,1.52,9.01,1.77,23.31-1.79,32-2.11-2.94,3.44-6.69,14.29-3.6,13.58,.17-.04,.33-.13,.45-.26,.12-.13,.2-.29,.23-.46,.23-4.09,1.71-8.01,4.24-11.24,1.66-2.15,1.42-4.07-1.8-3.94-7.62,.3-15.53,2.53-24.25,2.71-2.19-13.55-4.95-31-12.84-43.15-4.81-7.41-8.1-8.79-15.58-12.92-1.4-.78-2.11-.79-3.12-.06-7.31,5.33-26.47-3.32-27.83-13.55-.14-1.01-.34-1.69-1.87-1.91-9.91-1.34-19.94-1.38-29.86-.13-27.47,3.23-48.23,38.67-51.71,63.47-1.27,9.03,2,14.97,8.92,20.7Z"/>
    <path class="cls-1" d="M107.46,147.46c.41-1.12-1.45-1.79-1.94-.73-3.35,7.12-7.27,22.73-6.93,30.35-29.71,.83-53.72-5.47-80.27-17.6,.74-7.93,2.54-15.74,5.34-23.2,.1-.23,.1-.49,0-.72-.09-.23-.28-.42-.51-.52-.23-.1-.49-.11-.73-.02-.23,.09-.42,.27-.53,.5-3.11,7.43-4.97,15.33-5.51,23.37-.15,1.91,.49,2.19,1.51,2.73,23.16,12.36,53.59,18.23,79.91,17.67,5.88-.13-.93-2.64,9.65-31.82Z"/>
    <path class="cls-1" d="M17.18,164.05c-2.15,14.71-1.12,32.34-.8,38.46H100.68c-.99-7.08-1.12-16.06-1.64-21.36-34.12,.61-58.24-5.45-81.86-17.1Z"/>
    <path class="cls-1" d="M187.68,155.49c0,3.37,3.25,44.95,5.97,46.5,2.25,1.28,76.14,.57,77.69,0,1.56-.57,6.49-42.24,6.63-48.63,.14-6.39-3.37-7.24-7.39-7.18-4.01,.06-70.81,1.12-76.94,1.51-6.14,.38-5.96,4.41-5.96,7.81Zm44.44,14.2c4.66-.49,9.8,2.25,9.51,7.81-.29,5.56-3.62,7.81-8.8,8.37-3.92,.43-9.25-2.25-9.71-6.53-.59-5.46,3.64-9.08,9.04-9.65h-.03Z"/>
  </g>
</svg>