<?xml version="1.0" encoding="utf-8"?>
<!-- Generator: Adobe Illustrator 26.5.0, SVG Export Plug-In . SVG Version: 6.00 Build 0)  -->
<svg version="1.1" id="Layer_1" xmlns="http://www.w3.org/2000/svg" xmlns:xlink="http://www.w3.org/1999/xlink" x="0px" y="0px"
	 viewBox="0 0 328 210" style="enable-background:new 0 0 328 210;" xml:space="preserve">
<style type="text/css">
	.st0{fill:#F07D29;}
	.st1{fill:#180B02;}
</style>
<path class="st0" d="M306.6,185.4c-1.3-21.3-22.1-66.8-58-68.2c-1.8,3.9-7.8,13.4-13.6,18.3c-3.5-2.2-10.5-7.1-14.2-14.2
	c-0.9,3.3-8.5,9.2-13.6,11.5c-6,2.7-7.7,1.6-9.5-5.6c-14.9,9.1-39.4,32.5-38.8,58.5c0.6,22.8,28,13.7,32.3,10.4
	c-1.1-3.8-2.8-19.4-3.8-30.6c-4.1,0.8-8.1,2.2-11.8,4.2c-0.7,0.4-1.2-0.6-0.5-1.1c4-3.1,7.7-4,12.1-5.2c-0.4-4.3-0.6-7.8-0.6-9.2
	c0-4.9,2.3-8.3,7.8-9c5.6-0.7,71.5-1.2,76.8-1.2c5.3,0,7.6,2.4,7.8,7.9c0.1,1.8-0.3,6.5-0.9,12.2c2.8,0.1,10.4,2.1,12.6,3.6
	c1.3,0.9,0.2,1.5-0.5,1.2c-3.9-1.6-8.1-2.6-12.3-2.9c-1.2,11.7-3.3,26.8-4.3,30.7C286.9,202.3,307.6,203,306.6,185.4z"/>
<path class="st1" d="M318.7,203c-102.2,0.5-207.1,1.3-309.7,1.3c-1.2,0-1.1,2,0.1,2c102.2,1.5,207.3-0.3,309.4-0.8
	C320.1,205.5,320.3,203,318.7,203z"/>
<path class="st1" d="M238.8,88.4c-0.5,0.8,0.1,1.4,0.9,0.8c0.3-0.2,0.6-0.3,0.9-0.4c0.3,0,0.7,0,1,0.1c1.1,0.2,1.1-0.5,0.4-1.1
	c-0.2-0.2-0.5-0.4-0.8-0.5c-0.3-0.1-0.6-0.1-0.9-0.1c-0.3,0.1-0.6,0.2-0.9,0.4C239.2,87.8,239,88.1,238.8,88.4z"/>
<path class="st1" d="M239.1,96.6c-4.3,4.2-9,1.8-6.6,4.7c3.5,4.1,8.1,2.8,8.3-4.1C241,95.3,240.4,95.4,239.1,96.6z M233.7,100.6
	c1.1,0,2.1-0.3,3.1-0.7c1-0.4,1.9-1.1,2.6-1.9C239.3,103,235.7,103.2,233.7,100.6L233.7,100.6z"/>
<path class="st1" d="M229.3,88.4c-0.1-0.3-0.3-0.5-0.6-0.7c-0.2-0.2-0.5-0.3-0.8-0.4c-0.3-0.1-0.6-0.1-0.9,0
	c-0.3,0.1-0.6,0.2-0.8,0.5c-0.7,0.5-0.7,1.3,0.1,1.1c0.3-0.1,0.7-0.1,1.1,0c0.4,0.1,0.7,0.2,1,0.4C229.1,89.9,229.6,89.2,229.3,88.4
	z"/>
<path class="st1" d="M227.8,81.8c-2.8,0-5.8,3.6-4.2,4.4c1,0.5,0.8-1.7,4.3-2.4c0.2-0.1,0.4-0.2,0.5-0.4c0.1-0.2,0.2-0.4,0.2-0.6
	c0-0.2-0.1-0.4-0.2-0.6C228.2,82,228,81.9,227.8,81.8z"/>
<path class="st1" d="M238.3,84c1.5-0.3,3,0,4.3,0.7c0.8,0.4,1.5-0.4,0.6-1.3c-0.7-0.6-1.5-1-2.4-1.3c-0.9-0.2-1.8-0.3-2.8-0.1
	C236.6,82.4,236.7,84.2,238.3,84z"/>
<path class="st1" d="M233.5,96.3c0.4-0.1,0.8-0.3,1.2-0.5c1.1-0.7,0.2-1.5-0.3-1.2c-0.4,0.2-0.9,0.3-1.3,0.4
	c0.1-1.9,0.3-3.7,0.6-5.6c0.1-0.5-0.5-1.3-1.1-0.1c-0.6,1.6-1,3.3-1.1,5C231.3,95.9,231.4,96.9,233.5,96.3z"/>
<path class="st1" d="M104.4,53.6c3.9-3.5,9.9-12.6,12.6-18.9c3.1,0.2,2.7-2.2,1.5-1.9c-5.8,1.4-5.6-8.8-0.4-9.7
	c2.2-0.4,2.6,2,2.6,3.6c0,1.1,1.4,1.3,1.4,0.2c0.1-2-0.1-4.7-2.4-5.6c7.5-24,42.2-15,31.1,11.8c-3.5,8.4-12.3,24.4-23.4,21.9
	c-4.3-1-8.1-4.5-8.2-9c0-1.2-1.5-1.2-1.4,0c0.1,2.4,0.9,4.8,2.4,6.7c1.5,1.9,3.6,3.3,5.9,3.9c-0.7,2.2-1.2,4.4-1.4,6.7
	c0,0.2,0.1,0.3,0.2,0.4c0.1,0.1,0.3,0.2,0.5,0.2c0.2,0,0.3,0,0.5-0.1c0.1-0.1,0.2-0.3,0.3-0.4c0.2-1.1,1-4.8,1.6-6.4
	c11.1,1.6,18.6-10.8,22.9-19.3c17.5-34.4-26-43.3-32.5-16.5c-5.8,0.5-8.1,10.6-2.8,13.2c-3.1,6.7-7.1,12.9-11.9,18.4
	C102.9,53.4,103.7,54.2,104.4,53.6z"/>
<path class="st1" d="M136.7,32.4c-1.2-0.5-3.1,2.8-1.5,3.1C136.9,35.9,137.8,32.9,136.7,32.4z"/>
<path class="st1" d="M134.3,42.7c0.6,0.8,1.5,1.3,2.5,1.5c1,0.2,2,0,2.9-0.4c2-1.3,2.9-4.3,2.6-7.2c0-0.2,0-0.3-0.2-0.5
	c-0.1-0.1-0.3-0.2-0.4-0.2c-0.2,0-0.3,0-0.5,0.1c-0.1,0.1-0.2,0.3-0.3,0.4c-0.3,2-0.3,4.3-1.9,5.7c-1.7,1.5-3.2-0.1-4.2-0.5
	C134.3,41.2,133.3,41.7,134.3,42.7z"/>
<path class="st1" d="M126.8,36.9c-6,7.4-0.1,13.2,4.9,11.1c0.2-0.1,0.3-0.2,0.5-0.4c0.1-0.2,0.2-0.4,0.2-0.6c0-0.2-0.1-0.4-0.2-0.6
	c-0.1-0.2-0.3-0.3-0.5-0.4c-1.3-0.9-2.4-2.2-3-3.6c-0.6-1.5-0.7-3.1-0.3-4.7C128.7,36.4,127.8,35.6,126.8,36.9z M130.3,46.9
	c-3,0.4-6.2-2.7-3.3-7.9c-0.2,1.5,0,3,0.6,4.4C128.1,44.9,129,46,130.3,46.9L130.3,46.9z"/>
<path class="st1" d="M148.3,34.1c0.4,0.7,1,0.5,1.2-0.3c0.1-0.8-0.1-1.5-0.5-2.2c-0.4-0.6-1-1.1-1.7-1.4c-0.8-0.2-1.4,1.4-0.6,1.8
	C147.4,32.5,148.1,33.2,148.3,34.1z"/>
<path class="st1" d="M139.1,26.4c-0.9-0.3-1.8-0.4-2.7-0.3c-0.9,0.1-1.8,0.5-2.5,1c-1.1,0.9-0.4,2.2,1,1.5c0.6-0.3,1.2-0.5,1.8-0.5
	c0.6,0,1.3,0.1,1.8,0.3C139.7,28.9,140.1,27,139.1,26.4z"/>
<path class="st1" d="M145.9,36.6c-1.2-0.8-3.1,2.8-1.4,3.2C145.5,40,146.7,37.2,145.9,36.6z"/>
<path class="st1" d="M119.1,127.4c-0.5,1.9-3,2.3-4.6,2.8c-0.6,0.2-1,2,1.6,1.6c1.1-0.1,2.2-0.6,3-1.4c0.8-0.8,1.4-1.8,1.5-3
	C120.7,126.6,119.3,126.4,119.1,127.4z"/>
<path class="st1" d="M120.2,133.9c0.2-1.2-0.8-1.8-1.5-0.7c-1.1,1.9-1.4,2.4-3.7,3c-1.8,0.5-1.2,1.9,0.1,1.9c1.2,0,2.3-0.4,3.3-1.2
	C119.4,136.2,120,135.1,120.2,133.9z"/>
<path class="st1" d="M118.4,122.8c-4.4,1.2-6.5,0.7-10.5,0.3c-0.6-0.1-2,1.3,0.1,2c3,1,8.8,0.8,10.9-0.4
	C120,124.2,119.6,122.5,118.4,122.8z"/>
<path class="st1" d="M118.1,140.1c0.5-0.7-0.5-1.6-1.1-1c-4.6,4.4-10.1,5.8-20,4.8c-1-0.1-1.1,1.8-0.1,1.9
	C104.4,147.2,113.5,146.8,118.1,140.1z"/>
<path class="st1" d="M98.6,122.7c-0.8,0.5-0.4,1.9,1.2,1.8c2.3-0.5,4.3-1.8,5.7-3.6c2.8-3.2,3.7-8.9,2.6-13.2
	c-0.4-1.6-1.8-1.5-1.7-0.1C106.9,116.9,105.3,118.9,98.6,122.7z"/>
<path class="st1" d="M191.4,123.1c-1.8,1.1-0.7,2.5,0.4,2.1c1.5-0.6,5.4-1.4,6.5-0.8c2.3,1.3,2.6,5.1,3,6.2c0.3,0.7,1.6,1,1.5-0.5
	c-0.1-2.9-1.7-6.5-3.5-7.4c-1.3-0.5-2.6-0.7-4-0.6C194,122.1,192.6,122.5,191.4,123.1z"/>
<path class="st1" d="M200.3,121.1c1.5,0.3,4.6,1,6.2,7.2c0.8,3,2.2,1.8,1.7-0.7c-1.3-6.1-5.1-8.2-7.2-8.2
	C199.3,119.4,198.8,120.7,200.3,121.1z"/>
<path class="st1" d="M208.5,120.9c1.1,1.3,2,2.9,2.4,4.6c0.5,1.8,2,1.4,1.5-1.1c-0.5-1.9-1.4-3.6-2.6-5c-0.7-0.7-1.5-1.2-2.4-1.6
	c-0.9-0.4-1.9-0.6-2.8-0.6c-0.1,0-0.2,0-0.3,0c-0.1,0-0.2,0.1-0.3,0.1c-0.1,0.1-0.2,0.1-0.2,0.2c-0.1,0.1-0.1,0.2-0.1,0.3
	c0,0.1,0,0.2,0,0.3c0,0.1,0.1,0.2,0.1,0.3c0.1,0.1,0.1,0.2,0.2,0.2c0.1,0.1,0.2,0.1,0.3,0.1C205.8,119.1,207.3,119.8,208.5,120.9z"
	/>
<path class="st1" d="M177.7,138.2c-0.1,0.1-0.2,0.3-0.3,0.5c0,0.2,0,0.4,0.2,0.6c0.1,0.2,0.3,0.3,0.5,0.3s0.4,0,0.6-0.1
	c3-1,7.9-8.3,8.8-11c0.7-2.2-1-2.4-1.9-0.8C182.6,132.3,181.1,135.7,177.7,138.2z"/>
<path class="st1" d="M187.8,119.8c5.3-1.8,15.3-4.7,23-2.5c1.3,0.2,2.6,0.8,3.6,1.6c1,0.8,1.9,1.9,2.4,3.1c0.6,1.4,1.5,0.4,1.4-0.5
	c-0.4-3.1-4-5.4-6.9-6.2c-5.8-1.6-16.5-0.2-24.3,2.7C186,118.5,186.8,120.1,187.8,119.8z"/>
<path class="st1" d="M225,109.9c-0.1,2.9-0.6,5.7-1.4,8.5c-0.4,1.2,1,1.3,1.3,0.6c1.1-3.1,1.8-6.4,1.9-9.8
	c4.5,4.7,10.5,5.1,15.3,0.7c0.2,2.4,0.7,4.8,1.4,7.2c0.6,1.9,2.3,1.4,1.8-0.2c-0.7-2.3-1.3-4.6-1.6-6.9c5.7,0.1,17.4-1,23.6-4.6
	c-5.2-8.9-8.3-18.8-8.9-29.1c-0.8-11.8-9.2-19.3-15.2-14.9c-6.6-9.8-26.6-6.8-30.8,14.7c-2.9,14.6-6.2,23.7-9.9,27.8
	C209.3,107.8,217,110,225,109.9z M221.5,80.9c-1.2-0.1-2.4-0.3-3.6-0.6c-0.9-0.2-0.8-1.3,0.1-1.2c10.6,1.1,21.3,1,31.8-0.3
	c0.8-0.1,1.1,0.8,0.3,1c-1.1,0.4-2.3,0.6-3.5,0.7c0.8,5.2,0.7,10.6-0.4,15.8c-0.6,3.9-2.1,7.6-4.3,10.7c-6.7,8.1-15.5,2.2-18.6-7.9
	C221.9,93.2,221.2,87,221.5,80.9z"/>
<path class="st1" d="M125.8,197.5c0.8,0.2,1.7,0.3,2.6,0.1c0.9-0.1,1.7-0.5,2.4-0.9c0.5,2.5,1.1,4.3,1.6,4.5
	c1.1,0.4,13.3,0.7,14.3-0.4c1.7-1.9,3.7-25,3-26.7c-0.7-1.6-19.9-0.8-21,0c-0.3,1.4-0.4,2.9-0.2,4.3c-1.1-0.6-2.3-0.8-3.5-0.7
	s-2.4,0.5-3.4,1.3C116.3,183.1,120.4,196.1,125.8,197.5z M123.7,180.7c0.8-0.5,1.8-0.6,2.7-0.5s1.8,0.6,2.5,1.2
	c0.3,3.9,0.9,8.6,1.5,12.5c-0.4,0.6-1.1,1.1-1.8,1.3c-0.7,0.2-1.5,0.2-2.2,0C122.7,193.8,119.3,183.3,123.7,180.7L123.7,180.7z"/>
<path class="st1" d="M123.4,130.1c5.6-7.1,11.3-18.8,11.2-30.5c0-1.2-1.6-1.3-1.6,0c0,11.2-6.2,22.2-10.7,29.6
	C121.8,130,122.9,130.9,123.4,130.1z"/>
<path class="st1" d="M170.1,143.4c-10.7,5.7-32.2,12.4-40.1-0.3c-2-3.8-3.5-7.8-4.3-12c-0.1-0.2-0.2-0.4-0.4-0.5
	c-0.2-0.1-0.4-0.1-0.6-0.1c-0.2,0-0.4,0.2-0.5,0.4c-0.1,0.2-0.2,0.4-0.1,0.6c0.9,7.2,3.7,15.7,10.7,19.1c9.1,4.4,27.1,0.4,36.2-5.3
	C172.2,144.6,171.3,142.8,170.1,143.4z"/>
<path class="st1" d="M28.5,131.7c15.3,12.6,42.6,18.2,61.8,17.2c0.7,0,1.3-0.2,1.9-0.6c0.5-0.4,0.9-1,1.1-1.6
	c1.4-4.3,2.6-18.1,2-23.6c-0.3-2.5-0.9-2.9-3.5-3.3c-10.5-1.7-20.8-4.5-30.7-8.5c4.5-11.7,6.9-15.3,13.1-22.6c0.5-0.6-0.2-1.8-1-1.3
	c-5.5,3.9-12.1,15.9-13.8,23.1c-1.6-0.7-3.1-1.6-4.4-2.8c-0.5-0.5-1.8,0-0.8,1.4c4.2,5.9,32,12.1,39,13c0.8,6.7-0.4,17-2.2,24.8
	c-18.7,1.1-46.4-4.3-61.4-16.7c-6.4-5.3-8.9-9.6-7.7-17.8c3.2-22.5,22.8-56.8,48-59.6c9.6-1.1,19.3-1,28.8,0.2
	c0.8,11.4,21.2,20.8,30,14.1c6,2.3,11.2,6.5,14.7,11.9c6.9,10.5,10,28.1,12.1,40.7c-1.5-0.1-3.1-0.1-4.6,0.1
	c-0.7,0.2-1.1,1.3-0.2,1.5c8.7,1.7,22.5-1.7,30.9-2c-2.8,3.3-6.5,13.8-3.5,13.1c0.2,0,0.3-0.1,0.4-0.2c0.1-0.1,0.2-0.3,0.2-0.4
	c0.2-3.9,1.7-7.7,4.1-10.8c1.6-2.1,1.4-3.9-1.7-3.8c-7.3,0.3-15,2.4-23.4,2.6c-2.1-13.1-4.8-29.9-12.4-41.6
	c-4.6-7.1-7.8-8.5-15-12.5c-1.4-0.7-2-0.8-3-0.1c-7.1,5.1-25.5-3.2-26.8-13.1c-0.1-1-0.3-1.6-1.8-1.8c-9.6-1.3-19.2-1.3-28.8-0.1
	c-26.5,3.1-46.5,37.3-49.9,61.2C18.7,120.5,21.8,126.2,28.5,131.7z"/>
<path class="st1" d="M111.9,147.6c0.4-1.1-1.4-1.7-1.9-0.7c-3.2,6.9-7,21.9-6.7,29.3c-28.7,0.8-51.8-5.3-77.4-17
	c0.7-7.7,2.4-15.2,5.2-22.4c0.1-0.2,0.1-0.5,0-0.7c-0.1-0.2-0.3-0.4-0.5-0.5c-0.2-0.1-0.5-0.1-0.7,0c-0.2,0.1-0.4,0.3-0.5,0.5
	c-3,7.2-4.8,14.8-5.3,22.5c-0.1,1.8,0.5,2.1,1.5,2.6c22.3,11.9,51.7,17.6,77.1,17C108.2,178.1,101.7,175.7,111.9,147.6z"/>
<path class="st1" d="M24.8,163.6c-2.1,14.2-1.1,31.2-0.8,37.1h81.3c-1-6.8-1.1-15.5-1.6-20.6C70.8,180.7,47.6,174.8,24.8,163.6z"/>
<path class="st1" d="M189.3,155.3c0,3.3,3.1,43.4,5.8,44.9c2.2,1.2,73.4,0.6,74.9,0c1.5-0.6,6.3-40.7,6.4-46.9
	c0.1-6.2-3.3-7-7.1-6.9c-3.9,0.1-68.3,1.1-74.2,1.5S189.3,152,189.3,155.3z M232.1,169c4.5-0.5,9.5,2.2,9.2,7.5
	c-0.3,5.4-3.5,7.5-8.5,8.1c-3.8,0.4-8.9-2.2-9.4-6.3C222.9,173,227,169.6,232.1,169L232.1,169z"/>
</svg>
