<svg width="326" height="215" viewBox="0 0 326 215" fill="none" xmlns="http://www.w3.org/2000/svg">
<path d="M307.309 205.586C208.241 206.09 105.044 206.673 9.49636 206.558C8.32732 206.558 8.1631 208.383 9.35816 208.39C108.34 208.953 208.103 208.066 307.115 207.581C308.441 207.577 308.597 205.58 307.309 205.586Z" fill="#180B02"/>
<path d="M252.915 121.108C252.861 122.293 252.51 123.446 251.894 124.461C251.243 125.376 252.077 126.242 252.989 125.45C253.536 124.864 253.922 124.147 254.109 123.368C254.296 122.59 254.277 121.777 254.056 121.007C254 120.898 253.913 120.808 253.805 120.749C253.697 120.689 253.574 120.663 253.451 120.674C253.329 120.685 253.212 120.732 253.116 120.809C253.021 120.886 252.95 120.99 252.915 121.108Z" fill="#180B02"/>
<path d="M253.169 115.813C254.66 114.667 255.72 113.054 256.179 111.234C256.546 109.795 255.663 108.853 254.826 110.656C254.273 112.141 253.453 113.512 252.405 114.703C251.585 115.619 252.046 116.372 253.169 115.813Z" fill="#180B02"/>
<path d="M238.768 101.872C239.069 107.298 237.508 113.347 239.062 118.021C239.285 118.69 240.415 118.571 240.332 117.82C239.89 114.118 239.89 110.376 240.332 106.673C241.155 94.1178 237.568 95.5616 237.783 96.6525C238.336 98.3429 238.667 100.097 238.768 101.872Z" fill="#180B02"/>
<path d="M251.238 113.277C252.644 111.303 253.443 108.964 253.537 106.545C253.414 104.713 252.035 104.575 251.955 106.26C251.746 108.426 251.058 110.518 249.941 112.388C249.378 113.633 250.134 114.742 251.238 113.277Z" fill="#180B02"/>
<path d="M253.612 118.176C252.995 118.957 253.564 119.578 254.457 119.175C255.75 118.318 256.774 117.115 257.411 115.705C258.062 113.68 256.405 113.439 256.159 114.789C255.943 115.98 254.147 117.5 253.612 118.176Z" fill="#180B02"/>
<path d="M245.375 107.965C245.852 106.956 248.811 103.109 248.926 103.614C248.765 106.499 247.736 109.269 245.973 111.564C245.551 112.115 246.165 113.147 247.261 112.26C249.027 110.83 250.628 105.676 250.435 103.429C250.42 103.23 250.364 103.036 250.269 102.861C250.174 102.685 250.042 102.531 249.884 102.408C249.725 102.286 249.542 102.199 249.347 102.152C249.152 102.104 248.95 102.099 248.752 102.135C247.063 102.418 244.936 105.61 244.326 107.476C244.133 108.085 245.089 108.568 245.375 107.965Z" fill="#180B02"/>
<path d="M201.035 101.872C200.877 101.749 200.695 101.659 200.501 101.608C200.307 101.556 200.104 101.545 199.905 101.574C199.706 101.604 199.516 101.673 199.345 101.778C199.174 101.883 199.026 102.021 198.91 102.185C198.468 102.89 198.777 103.337 199.435 103.009C199.887 102.781 200.398 102.698 200.899 102.771C201.404 102.788 201.44 102.12 201.035 101.872Z" fill="#180B02"/>
<path d="M190.602 110.758C190.325 110.135 189.221 110.597 189.332 111.289C189.803 114.229 193.756 115.579 195.415 115.219C195.974 115.098 196.377 114.708 195.956 114.229C195.299 113.482 192.267 114.523 190.602 110.758Z" fill="#180B02"/>
<path d="M191.247 98.5477C190.642 98.6733 190.086 98.9661 189.642 99.3924C189.197 99.8188 188.883 100.361 188.735 100.958C188.588 101.872 189.278 102.415 190.06 101.223C190.227 100.934 190.451 100.68 190.718 100.477C190.985 100.275 191.289 100.127 191.614 100.042C192.892 99.7115 192.471 98.4102 191.247 98.5477Z" fill="#180B02"/>
<path d="M193.997 103.339C193.586 103.175 193.128 103.171 192.715 103.327C192.301 103.483 191.961 103.787 191.761 104.181C191.436 104.813 191.716 105.336 192.451 104.906C192.902 104.611 193.43 104.455 193.969 104.456C194.543 104.451 194.613 103.65 193.997 103.339Z" fill="#180B02"/>
<path d="M201.597 97.4942C201.169 97.1218 200.65 96.8702 200.091 96.7658C199.533 96.6613 198.957 96.7077 198.423 96.9001C197.558 97.2659 197.706 98.2646 198.748 98.2646C199.497 98.1536 200.262 98.2293 200.974 98.4847C201.808 98.7923 202.057 97.9069 201.597 97.4942Z" fill="#180B02"/>
<path d="M196.332 108.557C195.519 109.281 196.571 109.867 198.337 109.043C198.658 108.948 198.938 108.746 199.129 108.471C199.319 108.196 199.41 107.864 199.385 107.531C199.06 106.217 198.492 104.974 197.711 103.867C197.06 103.208 196.735 104.079 197.021 104.783C197.408 105.74 197.716 106.727 197.941 107.733C197.981 107.827 196.529 108.379 196.332 108.557Z" fill="#180B02"/>
<path d="M99.2894 46.3566C98.8699 52.3454 100.13 68.5717 94.3953 74.1558C89.6314 78.793 81.4253 74.7611 78.0987 70.255C77.4255 69.3405 76.6565 70.4735 77.3166 71.3718C81.2692 76.7358 90.2167 80.6139 95.6554 75.3098C101.094 70.0057 100.39 54.3718 100.504 46.5945C100.514 45.9358 99.343 45.5942 99.2894 46.3566Z" fill="#180B02"/>
<path d="M69.6898 59.8377C70.4927 61.2909 71.705 62.4786 73.1774 63.2546C72.6682 67.7179 72.5143 72.2143 72.7173 76.7018C72.8116 79.0374 74.2424 78.9678 74.1806 76.7018C74.0394 72.2736 74.2143 67.841 74.7041 63.4375C75.0293 60.5888 74.1399 63.083 71.41 59.1418C69.2735 56.0567 70.4345 52.7338 72.3303 52.5056C74.631 52.2353 75.8927 55.1552 76.9317 53.9073C78.8831 51.001 80.1416 47.6892 80.6111 44.2249C86.1962 45.5198 105.717 47.891 106.854 37.1031C108.232 24.0071 83.9052 23.7579 76.665 32.8721C72.8181 28.4113 63.9308 33.3027 70.7027 51.1913C68.1809 52.716 67.7062 56.8418 69.6898 59.8377Z" fill="#180B02"/>
<path d="M98.1024 49.8284C97.2986 49.1036 96.2599 48.6905 95.1757 48.6647C94.0619 48.7391 93.7758 50.0032 95.1009 50.2833C95.8338 50.3071 96.544 50.5427 97.1447 50.9614C98.1755 51.8711 99.0438 50.6701 98.1024 49.8284Z" fill="#180B02"/>
<path d="M90.3213 62.387C89.0709 62.3045 88.297 63.7046 90.57 63.8616C92.0236 63.9619 92.7683 63.567 93.1276 62.8904C93.6691 61.8723 93.4772 57.8566 93.1276 56.0746C93.1276 55.9179 93.0651 55.7676 92.9538 55.6568C92.8425 55.546 92.6916 55.4838 92.5342 55.4838C92.3768 55.4838 92.2258 55.546 92.1145 55.6568C92.0032 55.7676 91.9407 55.9179 91.9407 56.0746C92.0935 61.3965 92.6838 62.5424 90.3213 62.387Z" fill="#180B02"/>
<path d="M83.583 63.669C83.1049 68.4778 89.2737 70.5108 91.0264 68.8986C91.1077 68.804 91.1627 68.6899 91.1859 68.5675C91.2091 68.4452 91.1998 68.3189 91.1589 68.2013C91.118 68.0837 91.0469 67.9787 90.9526 67.8969C90.8584 67.8151 90.7442 67.7592 90.6216 67.7349C89.9735 67.9017 89.297 67.9283 88.6376 67.8131C87.9783 67.6978 87.3514 67.4433 86.7991 67.0667C86.2469 66.69 85.782 66.2 85.4359 65.6296C85.0898 65.0591 84.8705 64.4215 84.7926 63.7596C84.7933 63.6065 84.7356 63.4589 84.6312 63.3465C84.5268 63.234 84.3836 63.1651 84.2302 63.1536C84.0768 63.1421 83.9248 63.1889 83.8047 63.2845C83.6846 63.3802 83.6054 63.5175 83.583 63.669Z" fill="#180B02"/>
<path d="M96.1332 57.9715C97.403 57.8744 97.3022 55.2345 96.1332 55.3057C95.2601 55.3591 94.891 58.067 96.1332 57.9715Z" fill="#180B02"/>
<path d="M87.3461 55.1601C86.164 55.3786 86.4258 57.7612 87.3461 57.7142C88.2664 57.6673 88.5314 54.94 87.3461 55.1601Z" fill="#180B02"/>
<path d="M88.1475 49.2149C87.419 48.4056 84.3607 48.9689 83.9201 50.9727C83.8095 51.4777 84.3704 52.4845 85.3362 51.2754C86.302 50.0663 87.4369 50.6797 87.8206 50.5519C87.9502 50.5066 88.0663 50.4298 88.1585 50.3284C88.2507 50.2271 88.3159 50.1045 88.3484 49.9717C88.3809 49.8388 88.3795 49.7001 88.3444 49.5679C88.3093 49.4358 88.2416 49.3144 88.1475 49.2149Z" fill="#180B02"/>
<path d="M76.0489 117.893C76.4348 109.076 77.5101 100.302 79.2649 91.6511C79.4893 90.5424 78.078 90.2316 77.8471 91.3274C76.6667 96.9439 73.8913 112.303 74.792 117.89C74.8168 118.038 74.8933 118.172 75.0081 118.269C75.1229 118.366 75.2685 118.42 75.4191 118.42C75.5697 118.421 75.7155 118.368 75.8308 118.271C75.9461 118.175 76.0233 118.041 76.0489 117.893Z" fill="#180B02"/>
<path d="M127.684 181.672C128.156 180.191 128.447 158.983 128.097 156.519C128.056 156.381 127.971 156.26 127.855 156.173C127.739 156.087 127.598 156.04 127.454 156.04C127.309 156.04 127.168 156.087 127.052 156.173C126.936 156.26 126.851 156.381 126.81 156.519C126.377 158.845 126.8 169.919 126.12 181.672C126.073 182.478 127.428 182.475 127.684 181.672Z" fill="#180B02"/>
<path d="M48.6567 157.123C48.5608 161.817 51.3151 179.11 52.3362 185.38C52.6354 187.214 52.5768 187.484 54.4076 188.018C74.452 193.887 103.525 190.184 125.072 188.311C125.193 188.299 125.31 188.264 125.417 188.206C125.524 188.149 125.618 188.072 125.695 187.978C125.772 187.884 125.829 187.777 125.864 187.661C125.899 187.545 125.911 187.424 125.899 187.304C125.887 187.184 125.851 187.067 125.793 186.96C125.736 186.854 125.658 186.76 125.564 186.684C125.47 186.607 125.362 186.55 125.246 186.515C125.129 186.48 125.007 186.469 124.887 186.481C102.247 188.457 76.4064 191.773 54.3524 186.343C53.0077 177.603 51.1493 168.28 49.9998 157.032C49.9819 156.263 48.673 156.317 48.6567 157.123Z" fill="#180B02"/>
<path d="M50.2485 118.617C48.8128 120.13 47.1706 126.423 46.9169 128.28C46.9088 128.428 46.9548 128.575 47.0466 128.693C47.1383 128.81 47.2697 128.891 47.4164 128.92C47.5632 128.949 47.7155 128.924 47.8454 128.85C47.9753 128.776 48.074 128.658 48.1234 128.517C49.6127 122.326 51.1752 120.596 51.2874 119.139C51.3265 118.634 50.6322 118.212 50.2485 118.617Z" fill="#180B02"/>
<path d="M143.831 156.674C144.926 156.605 144.991 155.282 143.831 155.2C134.928 154.598 126.082 153.333 117.369 151.417C115.972 144.391 115.662 137.194 116.448 130.075C116.588 128.968 115.19 129.013 115.05 130.075C114.143 136.965 113.891 144.383 115.97 151.06C113.265 150.309 105.251 148.308 103.088 146.591C102.115 139.893 101.788 133.118 102.113 126.358C114.455 126.127 126.753 127.881 138.533 131.552C139.197 131.76 139.25 130.829 138.662 130.471C134.597 128.001 126.352 126.514 121.521 125.891C121.227 123.93 119.754 117.867 118.816 116.861C118.751 116.803 118.675 116.759 118.593 116.73C118.511 116.702 118.424 116.69 118.337 116.695C118.25 116.7 118.165 116.722 118.087 116.76C118.009 116.798 117.939 116.851 117.881 116.916C117.23 117.637 118.79 119.343 119.892 125.69C114.334 124.962 108.733 124.601 103.127 124.609C101.002 124.609 100.514 124.609 100.303 126.551C99.8876 132.855 100.134 139.185 101.039 145.438C101.353 147.782 101.755 148.19 104.075 149.358C110.702 152.701 135.551 157.209 143.831 156.674Z" fill="#180B02"/>
<path d="M74.2715 139.106C73.278 150.941 75.0113 173.293 76.9494 185.463C77.112 186.524 78.7802 186.38 78.6338 185.301C76.6401 169.998 75.6257 154.585 75.5966 139.155C75.5771 138.997 75.5018 138.852 75.3842 138.744C75.2666 138.637 75.1143 138.574 74.9548 138.569C74.7953 138.563 74.6389 138.614 74.5136 138.712C74.3884 138.811 74.3026 138.951 74.2715 139.106Z" fill="#180B02"/>
<path d="M36.8045 161.796C42.0126 160.136 46.72 157.204 50.4964 153.267C51.589 152.134 51.976 151.555 50.8638 150.108C48.7363 147.634 47.2136 144.703 46.4152 141.545C45.6168 138.388 45.5646 135.088 46.2625 131.907C46.5681 130.24 46.2625 129.29 44.5244 129.754C39.4092 131.123 30.6341 134.328 27.0424 137.604C26.4701 138.125 27.1432 139.089 27.7968 138.703C32.9701 135.471 38.6213 133.068 44.5439 131.582C43.0805 140.099 45.3357 144.917 49.872 151.576C47.9241 153.659 45.7051 155.473 43.274 156.971C35.6192 150.742 33.6339 142.763 34.0729 139.037C34.1623 138.286 32.5998 137.094 32.6193 139.265C32.6514 142.849 33.5051 146.378 35.1155 149.584C36.7258 152.789 39.0503 155.587 41.9115 157.762C40.4115 158.592 38.8446 159.296 37.2272 159.866C27.5594 163.265 22.5256 161.083 20.5371 151.165C17.3747 135.392 30.3479 111.474 40.4856 99.7796C48.6331 90.3788 51.4166 90.1101 64.0956 85.7561C65.2384 88.9249 67.0076 91.8336 69.2986 94.3104C71.4659 96.6605 72.3553 93.5998 78.6915 88.7052C80.8503 90.732 82.8158 92.9536 84.5628 95.3414C85.3123 96.2688 86.1887 96.1912 87.3268 95.7347C93.9888 92.6701 99.9891 88.3461 104.994 83.0029C106.236 84.1845 121.741 89.3607 131.199 98.6563C139.948 107.257 151.832 128.351 153.447 140.874C153.587 141.953 154.884 141.66 154.747 140.571C153.122 127.956 141.864 106.803 132.31 97.5168C125.115 90.5164 115.197 85.5053 105.877 81.9411C105.969 81.8261 106.037 81.6937 106.077 81.5519C106.117 81.41 106.128 81.2617 106.109 81.1156C106.09 80.9696 106.042 80.8288 105.967 80.7018C105.892 80.5747 105.792 80.4639 105.674 80.376C104.089 78.9343 102.388 77.6258 100.586 76.4638C98.9327 75.4231 98.8725 75.3794 97.3474 76.7034C91.0323 82.1839 87.6861 84.0939 78.8346 86.4942C75.9569 84.5823 73.4064 82.2225 71.2806 79.5052C70.3652 78.3382 70.2871 78.1763 68.8986 78.8917C66.9654 79.8888 63.0729 82.7294 63.5704 84.1586C50.1224 88.8137 47.6884 88.7489 39.1604 98.7404C28.987 110.661 15.8528 134.398 18.7973 150.839C20.6753 161.323 26.0603 165.208 36.8045 161.796ZM99.1327 77.4674C100.942 78.6066 102.653 79.8935 104.248 81.3147C99.2345 87.0034 92.9942 91.4903 85.9936 94.4398C84.2185 91.9903 82.1685 89.7502 79.8833 87.7632C87.1715 86.2775 93.8633 82.7 99.1327 77.4722V77.4674ZM70.0286 80.1607C71.9708 83.0826 74.4949 85.5765 77.4445 87.488C75.058 89.1789 72.9104 91.1812 71.0594 93.4412C68.4326 90.7489 66.3855 87.5511 65.0435 84.0437C66.4172 82.4243 68.1114 81.1041 70.0205 80.1655L70.0286 80.1607Z" fill="#180B02"/>
<path d="M88.4411 140.388C88.4411 140.115 88.3403 139.749 88.0362 139.665C86.5355 139.255 87.1159 140.96 82.23 140.829C82.0658 140.8 81.8969 140.833 81.756 140.922C81.6152 141.011 81.5125 141.148 81.4679 141.308C81.4233 141.468 81.44 141.639 81.5147 141.787C81.5895 141.935 81.7169 142.051 81.8723 142.11C84.2413 143.057 88.4183 141.727 88.4411 140.388Z" fill="#180B02"/>
<path d="M85.5071 121.914C84.7153 121.786 84.66 122.969 85.3445 123.233C90.2824 125.148 92.2742 123.9 96.9016 127.749C97.4625 128.217 98.5405 127.813 98.2901 126.939C97.5162 124.212 90.7328 122.759 85.5071 121.914Z" fill="#180B02"/>
<path d="M89.2499 145.527C90.2255 144.823 89.6093 143.559 88.4126 144.09C87.1146 144.762 85.6111 144.925 84.1982 144.548C83.4437 144.41 83.2698 145.263 83.9136 145.812C85.1298 146.848 88.0175 146.417 89.2499 145.527Z" fill="#180B02"/>
<path d="M80.1165 136.899C79.4661 137.052 79.5832 138.281 80.2791 138.237C88.025 137.752 90.324 129.515 88.716 128.097C88.6082 128.001 88.4691 127.949 88.325 127.949C88.1808 127.949 88.0417 128.001 87.9339 128.097C86.4836 129.372 88.1323 135.019 80.1165 136.899Z" fill="#180B02"/>
<path d="M87.1708 149.507C92.6989 150.919 98.8482 146.906 98.7149 144.681C98.7149 144.13 98.0255 143.582 97.4922 143.975C96.9589 144.368 95.146 148.646 87.3708 148.225C87.2165 148.231 87.069 148.289 86.9536 148.391C86.8381 148.493 86.762 148.632 86.7383 148.784C86.7146 148.936 86.7449 149.091 86.8238 149.223C86.9028 149.355 87.0255 149.456 87.1708 149.507Z" fill="#180B02"/>
<path d="M49.5953 130.79C51.9172 127.8 57.4746 122.05 61.7215 124.434C62.6873 124.976 63.3669 123.521 62.3946 122.977C57.416 120.198 50.4164 125.607 48.5921 129.626C47.8849 131.18 49.1612 131.348 49.5953 130.79Z" fill="#180B02"/>
<path d="M64.915 141.882C63.1054 141.687 61.3401 141.199 59.6893 140.435C59.0389 140.324 57.413 142.039 61.7315 143.025C66.6255 144.147 65.7703 141.937 64.915 141.882Z" fill="#180B02"/>
<path d="M58.703 144.428C56.9454 143.577 56.9681 145.971 59.9826 146.736C60.9045 146.971 63.6751 146.935 63.4149 145.82C63.1775 144.814 62.2459 146.142 58.703 144.428Z" fill="#180B02"/>
<path d="M60.5526 149.507C61.3087 149.119 60.9282 147.963 60.1283 148.212C57.3642 149.054 55.444 148.972 51.5629 147.534C51.4261 147.494 51.2796 147.499 51.1461 147.549C51.0127 147.6 50.8996 147.693 50.8243 147.813C50.749 147.934 50.7158 148.076 50.7296 148.218C50.7435 148.359 50.8038 148.492 50.9011 148.596C52.3099 149.528 53.9281 150.099 55.612 150.258C57.2958 150.417 58.993 150.159 60.5526 149.507Z" fill="#180B02"/>
<path d="M67.6104 138.227C62.5506 135.617 61.3734 134.06 60.0109 131.303C59.7263 130.725 58.385 130.942 58.8516 132.502C59.7897 135.621 64.1976 138.218 66.9487 139.624C67.0425 139.681 67.1471 139.717 67.2557 139.73C67.3644 139.744 67.4747 139.734 67.5795 139.703C67.6843 139.671 67.7812 139.618 67.8641 139.546C67.9469 139.475 68.0138 139.387 68.0604 139.289C68.1069 139.19 68.1322 139.083 68.1345 138.974C68.1367 138.865 68.116 138.757 68.0736 138.656C68.0312 138.556 67.968 138.465 67.8883 138.39C67.8085 138.316 67.7138 138.259 67.6104 138.223V138.227Z" fill="#180B02"/>
<path d="M247.356 167.071C244.601 170.492 243.049 177.188 247.061 179.895C251.495 182.884 257.035 179.794 259.744 175.9C262.833 171.476 263.259 165.088 259.744 162.848C255.876 160.379 250.5 163.165 247.356 167.071ZM259.831 171.944C258.043 176.523 252.238 181.107 248.211 178.465C245.071 176.407 246.585 170.517 248.735 168.005C250.642 165.771 254.043 163.202 257.237 163.774C261.064 164.458 260.89 169.241 259.831 171.944Z" fill="#180B02"/>
<path d="M207.605 196.637C207.513 196.637 179.532 197.073 174.618 197.27C170.879 197.421 170.019 197.701 170.019 201.08C169.904 201.855 170.064 202.645 170.472 203.314C170.881 203.983 171.511 204.489 172.254 204.745C172.888 204.886 173.175 204.084 172.752 203.626C172.413 203.338 172.151 202.97 171.99 202.556C171.829 202.142 171.775 201.694 171.832 201.254C171.942 199.311 171.887 199.104 174.49 199.02C185.044 198.674 195.047 199.039 206.013 198.542C208.35 198.437 209.004 198.644 209.335 196.344C211.418 181.855 213.446 163.205 215.932 147.287C217.099 139.812 223.669 138.106 230.461 137.889C245.245 137.413 265.784 137.052 280.744 136.826C293.516 136.632 291.896 141.79 291.197 149.65C289.571 167.969 287.76 184.008 285.409 199.771C285.256 200.786 284.823 201.738 284.159 202.523C284.062 202.577 283.978 202.651 283.912 202.74C283.846 202.829 283.8 202.93 283.776 203.038C283.753 203.146 283.752 203.258 283.775 203.366C283.797 203.474 283.843 203.577 283.908 203.666C283.973 203.756 284.056 203.83 284.152 203.886C284.248 203.941 284.355 203.975 284.465 203.987C284.576 203.998 284.687 203.986 284.793 203.952C284.898 203.917 284.995 203.861 285.077 203.787C286.273 202.607 287.03 201.056 287.222 199.391C289.209 183.401 291.339 167.873 292.817 151.715C293.989 138.893 294.022 134.963 282.06 134.908C267.992 134.843 242.496 136.07 231.51 136.089C222.226 136.104 215.738 138.247 214.312 147.758C211.881 164.015 209.564 180.728 207.605 196.637Z" fill="#180B02"/>
<path d="M127.123 190.208C105.173 193.075 65.7683 195.758 52.8699 189.512C52.6666 192.588 52.6943 199.926 52.6113 204.002C59.328 203.919 122.77 203.654 127.14 203.481C127.196 201.401 127.391 193.468 127.123 190.208Z" fill="#180B02"/>
<path d="M204.257 104.475C204.161 101.597 203.913 98.7259 203.512 95.8739C203.392 95.3058 202.34 95.2152 202.407 95.8739C202.984 101.539 204.259 116.43 201.028 120.421C199.275 122.587 195.212 123.27 188.274 121.1C187.356 120.811 187.118 121.747 187.962 122.161C190.507 123.392 193.303 124.019 196.132 123.994C196.393 126.609 196.971 129.182 197.853 131.659C198.1 132.347 199.197 132.056 198.991 131.335C198.522 129.717 198.169 128.067 197.934 126.399C208.322 125.483 218.773 117.579 216.226 116.616C213.678 115.653 208.185 112.105 204.257 104.475Z" fill="#180B02"/>
<path d="M179.716 128.94V132.062C179.709 132.147 179.719 132.233 179.745 132.314C179.771 132.395 179.813 132.471 179.868 132.536C179.923 132.601 179.991 132.655 180.067 132.694C180.143 132.734 180.226 132.757 180.311 132.765C180.397 132.772 180.483 132.762 180.565 132.736C180.646 132.711 180.722 132.669 180.788 132.614C180.853 132.559 180.907 132.492 180.946 132.416C180.986 132.34 181.01 132.257 181.017 132.172C181.414 127.089 181.334 121.98 180.778 116.912C180.575 115.078 180.879 114.615 179.315 114.348C177.087 113.966 176.273 111.597 175.92 109.302C175.595 107.168 176.334 104.931 178.165 104.831C179.848 104.744 180.375 106.828 181.163 104.401C181.611 102.178 181.57 99.8846 181.045 97.6786C185.581 97.6786 202.45 97.1493 212.219 88.069C213.58 86.8049 207.121 87.0526 204.001 82.404C197.912 73.3253 180.308 67.8594 174.18 83.6228C166.376 80.5264 162.091 87.7372 164.538 107.777C165.62 116.634 158.438 124.264 158.36 125.18C158.282 126.096 167.977 129.773 179.716 128.94Z" fill="#180B02"/>
<path d="M94.5482 107.928C92.9989 107.562 91.4775 107.088 89.9956 106.508C91.4866 104.503 93.0507 102.542 94.4133 100.453C94.5254 100.311 94.5761 100.13 94.5543 99.9502C94.5325 99.7707 94.44 99.6071 94.297 99.4955C94.1541 99.3839 93.9724 99.3334 93.7921 99.3551C93.6117 99.3768 93.4474 99.4689 93.3353 99.6112C91.3907 101.763 89.57 104.023 87.8819 106.38C87.7399 106.577 87.6822 106.822 87.7216 107.062C87.7609 107.301 87.894 107.515 88.0917 107.657C89.3208 108.242 90.6029 108.71 91.9207 109.054C89.7404 110.621 86.4918 112.435 84.4317 113.635C83.131 114.392 83.5098 115.562 84.9097 115.062C88.303 113.441 91.5886 111.606 94.7466 109.567C95.6278 109.127 95.6864 108.195 94.5482 107.928Z" fill="#F07D29"/>
<path d="M67.1861 114.844C66.1097 111.909 64.8155 109.035 63.505 106.196C63.1619 105.451 62.3669 105.004 61.8222 106.142C61.3929 107.07 60.8687 107.95 60.258 108.771C58.8711 106.43 57.6859 103.976 56.7151 101.435C56.6505 101.266 56.521 101.13 56.3553 101.056C56.1896 100.982 56.0011 100.977 55.8315 101.041C55.6618 101.106 55.5247 101.235 55.4505 101.4C55.3762 101.564 55.3709 101.752 55.4355 101.921C56.4858 105.032 57.7841 108.055 59.3182 110.961C59.3754 111.11 59.4706 111.242 59.5945 111.343C59.7185 111.445 59.8668 111.512 60.025 111.539C60.1831 111.566 60.3455 111.551 60.4962 111.496C60.6468 111.441 60.7805 111.348 60.884 111.226C61.5333 110.366 62.0969 109.444 62.5668 108.475C63.7658 110.719 64.8469 113.024 65.8057 115.38C65.8292 115.485 65.8752 115.583 65.9405 115.669C66.0059 115.755 66.0892 115.825 66.1845 115.876C66.2799 115.927 66.3851 115.956 66.493 115.962C66.6009 115.969 66.7089 115.952 66.8096 115.913C66.9103 115.874 67.0014 115.813 67.0765 115.736C67.1515 115.659 67.2089 115.566 67.2447 115.464C67.2805 115.363 67.2937 115.255 67.2836 115.148C67.2735 115.041 67.2402 114.937 67.1861 114.844Z" fill="#F07D29"/>
<path d="M39.4308 161.823C31.402 172.744 32.0703 187.559 17.3475 198.937C15.7005 200.21 15.5135 202.809 18.8564 200.201C31.9451 189.99 33.345 176.233 40.7088 162.65C41.1576 161.817 39.9186 161.161 39.4308 161.823Z" fill="#F07D29"/>
<path d="M135.761 188.577C111.421 178.151 109.882 157.098 98.04 148.651C97.3311 148.146 96.6173 149.205 97.1197 149.805C110.725 166.109 112.273 181.123 135.166 190.509C136.394 191.011 136.932 189.079 135.761 188.577Z" fill="#F07D29"/>
<path d="M278.296 97.8746C277.548 108.541 277.579 121.551 268.856 130.419C267.946 131.344 269.289 132.864 270.19 131.93C279.235 122.56 280.173 110.771 280.026 97.9847C280.034 97.8716 280.018 97.7582 279.982 97.6509C279.945 97.5437 279.887 97.4447 279.812 97.3597C279.737 97.2746 279.646 97.2051 279.543 97.1551C279.441 97.1052 279.33 97.0758 279.217 97.0685C279.103 97.0613 278.989 97.0764 278.881 97.113C278.774 97.1496 278.674 97.207 278.589 97.2818C278.503 97.3567 278.434 97.4475 278.383 97.5492C278.333 97.651 278.304 97.7615 278.296 97.8746Z" fill="#F07D29"/>
<path d="M276.439 20.9027C276.211 18.2466 276.204 13.0655 275.692 10.8674C275.53 10.1812 274.431 10.0064 274.239 10.7768C273.904 14.2766 273.991 17.8038 274.497 21.283C274.652 22.4873 276.554 22.2671 276.439 20.9027Z" fill="#F07D29"/>
<path d="M235.841 55.3429C237.204 55.4433 242.908 54.3426 244.987 54.1419C246.046 54.0416 245.909 52.232 244.804 52.3113C243.158 52.4262 237.038 53.0429 235.52 53.9509C235.393 54.0389 235.296 54.1625 235.241 54.3057C235.186 54.449 235.175 54.6054 235.209 54.755C235.244 54.9045 235.322 55.0404 235.435 55.1451C235.548 55.2499 235.689 55.3187 235.841 55.3429Z" fill="#F07D29"/>
<path d="M246.222 26.8558C248.336 28.6832 249.429 29.5168 250.822 30.7858C251.817 31.6906 253.276 30.734 252.424 29.6965C250.675 27.8415 248.739 26.1714 246.645 24.7128C244.946 23.2027 243.982 24.9265 246.222 26.8558Z" fill="#F07D29"/>
<path d="M301.53 18.1543C299.837 19.3553 297.14 23.8824 296.148 25.6111C296.073 25.7232 296.022 25.8496 295.998 25.9822C295.974 26.1148 295.978 26.251 296.009 26.3821C296.04 26.5133 296.098 26.6366 296.179 26.7445C296.26 26.8524 296.363 26.9425 296.48 27.0093C296.598 27.0761 296.728 27.118 296.863 27.1326C296.997 27.1472 297.133 27.134 297.263 27.094C297.392 27.0539 297.512 26.9878 297.614 26.8998C297.717 26.8117 297.8 26.7037 297.859 26.5822C299.382 24.0184 301.062 21.5404 302.624 18.9992C302.92 18.5152 302.037 17.7885 301.53 18.1543Z" fill="#F07D29"/>
<path d="M255.258 51.5409C255.908 60.3897 262.329 67.9549 269.27 73.0292C270.189 73.7009 270.896 72.5712 270.107 71.8396C264.862 66.9223 259.404 61.7622 257.732 54.4365C251.837 28.5991 297.815 24.933 298.08 48.6695C298.176 57.3435 292.552 64.5009 287.397 70.9736C286.596 71.9804 287.758 72.8172 288.612 71.8897C293.935 66.0984 299.298 59.0673 299.993 50.8222C302.353 23.303 253.276 24.7954 255.258 51.5409Z" fill="#F07D29"/>
<path d="M316.471 43.7458C313.27 44.1164 310.031 44.5405 306.878 45.1119C305.96 45.2737 306.335 46.6964 307.173 46.6317C310.393 46.3846 313.608 46.0242 316.816 45.5505C317.905 45.3903 317.492 43.6292 316.471 43.7458Z" fill="#F07D29"/>
<path d="M285.299 53.8134C292.821 47.2306 283.945 40.8793 280.755 48.4818C279.972 50.3541 279.356 52.2915 278.914 54.2715C277.175 54.579 275.403 54.6682 273.641 54.5369C272.962 52.0184 272.032 47.9007 269.414 46.7677C264.06 44.4499 261.253 54.5903 272.054 56.3481C273.271 61.4463 274.22 66.6042 274.898 71.8008C274.919 71.962 274.999 72.1101 275.122 72.2174C275.244 72.3247 275.402 72.3839 275.566 72.3839C275.729 72.3839 275.887 72.3247 276.01 72.2174C276.132 72.1101 276.212 71.962 276.233 71.8008C276.145 66.6658 275.45 61.559 274.162 56.5861C275.616 56.6442 277.072 56.5765 278.514 56.3837C277.821 61.4283 278.102 66.5584 279.342 71.4981C279.617 72.7525 281.008 72.4126 280.777 71.2035C279.815 66.1792 279.793 61.0211 280.712 55.9888C282.408 55.6823 283.992 54.9314 285.299 53.8134ZM285.354 47.2727C287.92 48.9528 283.911 53.0996 281.195 53.7471C282.696 47.7486 284.407 46.6512 285.354 47.2727ZM266.952 51.2852C265.894 49.2328 267.725 47.4103 269.409 49.1422C270.459 50.6571 271.162 52.3824 271.471 54.197C270.556 54.0413 269.683 53.7028 268.903 53.2021C268.124 52.7014 267.454 52.0488 266.934 51.2836L266.952 51.2852Z" fill="#F07D29"/>
<path d="M314.439 69.6123C311.685 68.0336 308.782 66.7271 305.773 65.7115C304.999 65.5011 304.513 66.6827 305.155 67.1213C307.747 68.8645 310.855 69.7499 313.556 71.3296C315.265 72.338 316.546 71.0415 314.439 69.6123Z" fill="#F07D29"/>
<path d="M254.642 72.8738C253.445 73.0988 249.385 77.9109 248.788 79.0245C247.587 81.2905 249.288 81.5268 249.663 80.8567C251.367 77.8121 254.39 75.7339 255.276 74.4439C255.692 73.8434 255.598 72.6942 254.642 72.8738Z" fill="#F07D29"/>
<path d="M269.767 74.8793C269.307 87.2081 271.966 94.775 278.72 94.7879C287.322 94.8009 288.252 84.5212 287.672 74.2529C281.735 75.0027 275.742 75.2124 269.767 74.8793ZM283.523 86.1091C281.188 87.6652 278.511 88.6364 275.718 88.94C274.687 88.9578 274.489 87.8199 275.469 87.5755C277.997 86.9738 280.394 85.9215 282.545 84.4694C282.761 84.3776 283.003 84.3668 283.225 84.4391C283.448 84.5115 283.637 84.662 283.756 84.8626C283.876 85.0632 283.918 85.3003 283.875 85.5296C283.832 85.759 283.707 85.9649 283.523 86.1091ZM283.799 80.0005C281.788 81.5964 274.975 83.2976 273.99 83.2377C273.263 83.2377 272.819 82.4559 273.539 81.9833C274.816 81.1449 278.905 80.4408 282.741 78.4224C284.036 77.7426 285.038 79.0164 283.806 80.0005H283.799Z" fill="#F07D29"/>
<path d="M71.7851 120.504C64.9562 120.828 62.2702 123.701 62.6669 128.921C63.0636 134.14 66.1074 135.333 71.803 135.471C70.511 133.187 69.8307 130.611 69.8275 127.99C69.8244 125.369 70.4985 122.791 71.7851 120.504Z" fill="#F07D29"/>
<path d="M83.871 128.335C83.9718 122.446 78.3428 120.752 74.0536 120.504C72.6257 122.737 71.8672 125.33 71.8672 127.978C71.8672 130.625 72.6257 133.218 74.0536 135.452C78.6534 135.259 82.4987 134.28 83.5393 130.497C84.5701 130.936 85.0351 131.954 85.8302 131.256C87.0497 130.18 84.7165 128.775 83.871 128.335Z" fill="#F07D29"/>
<path d="M194.346 147.167C192.083 143.952 183.359 137.797 176.119 132.732C170.019 134.563 158.693 139.877 152.582 146.078C146.472 152.278 136.421 181.212 139.001 195.538C140.789 205.467 148.488 204.167 168.445 203.984C168.003 202.6 167.572 197.654 170.092 196.179C172.612 194.705 197.29 194.884 205.976 194.962C206.335 193.01 207.035 187.635 207.817 181.139C192.709 180.223 173.552 182.635 158.551 183.842C157.631 183.915 157.567 183.064 158.431 182.926C160.471 182.498 162.528 182.152 164.596 181.89C164.845 178.228 166.13 166.19 167.503 162.655C167.793 161.915 168.599 162.187 168.469 162.913C167.401 169.131 166.701 175.407 166.372 181.708C180.198 180.085 194.114 179.35 208.034 179.509C212.677 142.454 212.021 139.011 220.502 135.937C218.063 134.71 206.378 131.175 200.711 131.175C200.272 133.281 196.959 143.695 194.346 147.167Z" fill="#F07D29"/>
<path d="M234.5 134.293C239.431 134.12 248.439 133.89 251.623 133.716C251.844 132.443 252.221 130.479 252.957 127.496C251.117 126.201 241.235 121.158 238.324 119.889C238.098 120.87 235.43 130.653 234.5 134.293Z" fill="#F07D29"/>
</svg>
