<svg width="609" height="490" viewBox="0 0 609 490" fill="none" xmlns="http://www.w3.org/2000/svg">
<path fill-rule="evenodd" clip-rule="evenodd" d="M84.0777 127.443C9.24101 170.956 -0.681489 177.063 0.0342805 181.426C0.147201 182.114 0.524842 182.759 0.95414 183.501L176.751 483.189C179.312 487.532 180.381 489.55 181.862 489.923C183.341 490.291 185.231 489.021 189.429 486.787C214.832 473.268 239.99 459.29 265.058 445.16C322.118 413.001 358.731 392.916 382.071 380.108C388.223 376.734 393.456 373.863 397.895 371.412C388.961 374.548 378.939 378.079 367.71 382.064C367.703 382.067 367.461 382.153 366.995 382.321C365.509 382.853 361.777 384.186 356.318 386.134C317.305 407.769 269.725 434.196 253.624 443.138C250.012 445.142 247.985 446.27 247.993 446.263C193.344 476.225 185.715 483.353 182.835 481.781C182.264 481.472 181.879 480.817 181.351 479.927C181.284 479.811 7.08059 183.981 7.13273 184.07C5.70539 181.656 6.17763 181.384 20.8878 172.912C25.1004 170.486 30.4805 167.388 37.3179 163.375C37.3652 163.347 58.3724 151.121 86.7883 134.531L84.0777 127.443Z" fill="white"/>
<path d="M278.829 88.6614C278.792 91.7451 279.719 90.7135 240.786 106.441C217.785 115.733 161.786 138.235 138.364 146.429C133.567 148.108 134.379 147.222 123.098 119.364C121.315 114.962 121.799 114.229 126.324 112.396C156.621 100.125 222.663 72.8146 260.956 59.1018C265.981 57.3029 266.297 57.6046 268.26 62.5467C273.329 75.2987 276.256 81.3134 278.829 88.6614ZM261.746 64.4349C252.555 67.6639 239.777 74.1516 129.251 116.668C126.152 117.86 127.661 117.178 136.387 139.278C137.534 142.187 138.148 140.868 144.759 138.224C278.777 84.6168 273.124 89.1493 271.977 86.4939C262.346 64.1593 263.102 63.9619 261.742 64.4387L261.746 64.4349Z" fill="white"/>
<path d="M151.743 176.157C148.454 175.892 148.614 173.151 151.098 171.967C162.059 166.742 155.873 169.166 219.175 143.294C270.942 122.136 270.13 121.499 271.97 125.004C274.085 129.037 269.933 129.227 207.287 154.582C172.926 168.488 158.167 174.943 151.743 176.157Z" fill="white"/>
<path d="M169.522 214.336C165.619 214.478 165.303 210.716 167.798 209.372C171.343 207.465 167.794 208.884 262.045 173.038C272.469 169.075 274.964 168.196 275.977 171.216C277.031 174.36 275.608 174.665 243.591 186.825C241.427 187.648 171.839 214.254 169.526 214.336H169.522Z" fill="white"/>
<path d="M222.619 370.507C218.958 370.221 219.007 367.751 221.495 366.444C232.373 360.739 269.743 347.935 282.383 343.737C292.319 340.434 294.483 339.979 295.358 342.627C296.517 346.143 294.356 346.765 255.646 360.247C247.795 362.981 230.761 368.802 222.623 370.504L222.619 370.507Z" fill="white"/>
<path d="M161.672 194.173C158.067 194.416 157.56 191.54 159.311 190.226C161.612 188.498 159.24 189.686 212.903 167.746C215.205 166.804 217.503 166.059 218.538 168.558C219.987 172.066 215.424 172.893 209.048 175.466C161.828 194.524 167.571 192.352 161.672 194.173Z" fill="white"/>
<path d="M233.051 387.04C228.627 386.925 228.396 383.063 231.766 381.689C243.807 376.78 249.189 375.123 266.506 369.261C270.953 367.756 272.976 372.687 268.208 374.613C260.414 377.763 239.025 385.666 233.051 387.04Z" fill="white"/>
<path fill-rule="evenodd" clip-rule="evenodd" d="M314.191 271.717C308.867 280.283 305.79 290.383 305.79 301.191C305.79 332.069 330.914 357.182 361.781 357.182C392.659 357.182 417.772 332.069 417.772 301.191C417.772 295.571 416.941 290.141 415.392 285.02C413.828 285.832 412.204 286.592 410.521 287.299C411.783 291.716 412.457 296.379 412.457 301.198C412.457 329.145 389.728 351.875 361.781 351.875C333.834 351.875 311.105 329.145 311.105 301.198C311.105 291.634 313.768 282.681 318.392 275.039C316.951 273.97 315.55 272.86 314.191 271.717Z" fill="#D1D0D6"/>
<path fill-rule="evenodd" clip-rule="evenodd" d="M464.898 339.332L436.762 266.481C435.533 268.272 434.184 270.004 432.721 271.665C440.434 291.65 448.746 313.131 457.699 336.229C458.351 337.913 458.049 338.322 456.441 338.855C450.634 340.773 331.323 383.219 291.637 397.337L291.614 397.345L291.593 397.352C283.654 400.175 278.914 401.862 278.926 401.859C252.574 411.073 236.274 417.322 226.079 421.232C213.522 426.048 210.224 427.314 208.808 426.193C208.303 425.795 208.037 425.095 207.676 424.145L207.662 424.111C207.618 423.988 84.3848 103.55 84.4221 103.651C83.4571 101.168 83.9171 100.995 97.5699 95.8579C102.412 94.036 108.913 91.5899 117.598 88.1952L118.331 87.9174C130.56 83.2836 292.197 22.0389 328.266 7.39316C328.342 7.36187 328.416 7.3306 328.488 7.30006C328.802 7.16747 329.08 7.04941 329.363 7.03787C330.502 6.99094 331.711 8.66798 335.554 18.0431C336.859 16.7497 338.185 15.6428 339.524 14.7024L334.835 2.56277L334.775 2.44843C334.369 1.67974 334.035 1.04848 333.529 0.619438C331.204 -1.35406 325.244 0.955368 291.872 13.8872C277.259 19.5492 257.392 27.2477 230.272 37.5152C215.108 43.2565 201.432 48.4262 189.1 53.0871C90.3597 90.4111 77.8781 95.1291 77.8662 99.8786C77.8644 100.566 78.1239 101.254 78.4208 102.041L78.4334 102.076L202.597 426.584C202.751 426.983 202.896 427.363 203.035 427.724C204.535 431.646 205.248 433.508 206.53 434.066C207.689 434.573 209.313 434.01 212.407 432.938C213.044 432.718 213.744 432.476 214.515 432.219C241.795 423.065 268.904 413.404 295.961 403.583C357.71 381.167 397.172 367.353 422.293 358.564C459.007 345.711 465.073 343.589 465.275 341.008C465.316 340.497 465.126 339.965 464.898 339.332Z" fill="white"/>
<path fill-rule="evenodd" clip-rule="evenodd" d="M326.829 276.287C268.097 238.873 290.225 167.754 346.021 160.482C348.467 162.311 351.119 164.197 354.005 166.171C347.967 166.392 341.937 167.476 336.047 169.565C272.015 192.271 294.386 271.11 360.88 282.123C360.102 284.294 359.368 286.402 358.679 288.432C347.376 286.421 336.395 282.384 326.829 276.287ZM392.104 288.488C419.623 283.52 442.297 265.777 442.423 235.763C442.431 234.411 442.386 233.063 442.297 231.726C440.021 230.572 437.842 229.41 435.749 228.233C439.839 248.686 430.621 268.958 399.378 279.799C397.542 280.436 395.587 280.942 393.568 281.348C393.077 283.747 392.589 286.13 392.104 288.488ZM395.948 269.677C413.683 264.053 427.183 250.865 427.273 230.382C427.284 227.786 427.068 225.224 426.64 222.706C424.465 221.287 422.372 219.846 420.331 218.379C426.498 235.521 421.616 253.558 397.199 263.49C396.786 265.543 396.365 267.606 395.948 269.677ZM386.458 223.386C363.804 227.953 328.97 210.813 349.819 176.902C293.532 188.854 307.591 260.023 366.556 267.133C365.893 268.801 365.249 270.455 364.619 272.086C354.742 270.727 345.062 267.412 336.747 262.116C289.657 232.121 309.142 174.969 354.065 171.166C355.033 170.113 356.035 169.152 357.048 168.25C358.694 169.383 360.292 170.503 361.848 171.608C358.791 174.345 354.873 179.729 349.964 190.965C341.783 209.682 374.898 223.813 390.712 215.717C389.308 218.134 387.885 220.701 386.458 223.386ZM400.354 202.382C400.186 202.237 400.015 202.092 399.844 201.946C399.773 202.247 399.695 202.547 399.616 202.845C399.862 202.668 400.108 202.514 400.354 202.382Z" fill="white"/>
<path d="M413.123 208.278C384.752 185.511 393.765 188.539 356.95 163.575C334.198 148.149 326.515 138.522 317.32 119.632C312.884 110.523 308.922 101.137 306.896 91.0855C305.991 86.5903 307.51 82.974 311.648 81.1007C337.584 69.3655 358.354 120.578 386.96 123.699C396.699 124.76 390.77 114.128 384.904 106.474C363.419 78.4528 357.87 64.1739 341.479 60.1554C338.723 59.4813 337.085 59.1908 337.211 57.8538C337.509 54.7403 346.686 53.4181 357.118 61.7047C362.328 65.8423 364.253 68.2855 391.31 105.823C404.558 124.202 394.673 130.76 386.998 129.222C370.38 125.889 358.842 115.267 336.146 92.1507C322.59 78.341 308.464 84.2999 311.004 91.2084C335.692 158.417 349.993 144.257 398.681 186.174C410.706 196.527 430.568 216.97 471.647 232.282C490.544 239.324 509.91 240.542 515.56 243.875C527.388 250.858 465.126 250.009 413.123 208.278Z" fill="white"/>
<path d="M576.615 160.953C589.315 163.08 683.86 234.629 694.153 242.368C702.708 248.8 702.946 255.716 684.913 243.817C654.918 224.028 624.249 198.647 581.207 168.651C574.168 163.746 581.915 176.714 555.729 218.288C544.974 235.362 521.861 257.816 517.868 260.833C515.477 262.639 510.304 259.462 615.318 384.579C623.046 393.79 621.094 398.542 609.951 386.948C591.494 367.742 538.478 302.664 530.36 291.51C508.33 261.254 509.824 262.397 514.863 256.837C538.639 230.618 547.074 222.463 560.481 194.334C574.57 164.778 571.725 161.538 576.615 160.953Z" fill="white"/>
<path d="M383.598 24.4561C406.845 39.8002 419.675 46.8577 428.542 60.6375C433.674 68.6149 430.229 71.8365 422.986 62.2986C414.196 50.7272 377.337 22.8547 354.455 19.1825C343.476 17.421 328.56 40.0087 323.57 49.9451C317.991 61.0584 326.143 74.4136 322.765 75.0356C321.909 75.192 321.577 74.5217 321.283 73.8811C311.667 53.0028 319.332 41.6772 336.936 22.0726C354.541 2.47167 375.192 23.026 379.602 21.0708C410.643 7.30953 458.843 48.5373 455.543 52.1462C452.244 55.755 432.706 28.0575 397.467 22.2104C392.715 21.4208 388.342 22.5828 383.598 24.4487V24.4561Z" fill="white"/>
<path d="M478.489 35.2734C506.983 35.9735 522.435 66.8813 531.928 93.752C540.93 119.23 547.678 134.571 563.76 160.6C569.774 170.331 564.974 173.132 557.194 159.195C519.623 91.9014 521.754 48.6137 479.68 38.9306C475.528 37.9735 474.63 37.5712 474.679 36.4949C474.746 34.9978 476.563 35.2249 478.489 35.2734Z" fill="white"/>
<path d="M436.065 22.9535C458.955 22.6295 483.088 45.9733 481.2 48.4984C479.006 51.4368 471.446 39.3478 450.575 29.7392C439.507 24.6444 425.809 27.6573 425.809 24.7375C425.809 22.7264 427.898 23.069 436.065 22.9535Z" fill="white"/>
<path d="M404.09 208.597C402.351 221.684 378.847 333.149 378.825 333.272C374.907 353.271 359.082 333.804 315.486 291.221C305.616 281.579 312.722 283.221 325.567 288.245C357.686 300.807 356.438 309.086 358.494 301.757C367.652 269.151 402.753 190.657 404.09 208.597Z" fill="#D1D0D6"/>
</svg>
